<svg width="320" height="320" viewBox="0 0 320 320" fill="none" xmlns="http://www.w3.org/2000/svg">
    <path
        d="M245.538 282.96C184.053 282.96 141.831 314.809 112.204 314.809C82.5777 314.809 20.3555 297.778 20.3555 161.484C20.3555 25.191 104.062 5.18213 136.649 5.18213C289.244 5.18213 354.427 282.96 245.538 282.96Z"
        fill="#666666" />
    <path
        d="M48.889 62.2223C41.5379 62.2223 35.5557 56.2401 35.5557 48.889C35.5557 41.5379 41.5379 35.5557 48.889 35.5557C56.2401 35.5557 62.2223 41.5379 62.2223 48.889C62.2223 56.2401 56.2401 62.2223 48.889 62.2223ZM48.889 44.4446C46.4446 44.4446 44.4446 46.4357 44.4446 48.889C44.4446 51.3423 46.4446 53.3334 48.889 53.3334C51.3334 53.3334 53.3334 51.3423 53.3334 48.889C53.3334 46.4357 51.3334 44.4446 48.889 44.4446Z"
        fill="#212121" />
    <path
        d="M251.111 260H68.8889C63.9822 260 60 256.018 60 251.111V228.889C60 223.982 63.9822 220 68.8889 220H251.111C256.018 220 260 223.982 260 228.889V251.111C260 256.018 256.018 260 251.111 260Z"
        fill="#F3F3F1" />
    <path
        d="M215.555 220H104.444V177.778C104.444 147.093 129.315 122.222 160 122.222C190.684 122.222 215.555 147.093 215.555 177.778V220Z"
        fill="#01AC67" />
    <path
        d="M170 123.164C166.755 122.578 163.422 122.222 160 122.222C129.315 122.222 104.444 147.093 104.444 177.778V220H124.444V177.778C124.444 150.516 144.098 127.884 170 123.164Z"
        fill="#017948" />
    <path
        d="M80 251.111V228.889C80 223.982 83.9822 220 88.8889 220H68.8889C63.9822 220 60 223.982 60 228.889V251.111C60 256.018 63.9822 260 68.8889 260H88.8889C83.9822 260 80 256.018 80 251.111Z"
        fill="#D5DBE1" />
    <path
        d="M251.111 266.667H68.8886C60.3108 266.667 53.333 259.689 53.333 251.111V228.889C53.333 220.311 60.3108 213.333 68.8886 213.333H251.111C259.689 213.333 266.666 220.311 266.666 228.889V251.111C266.666 259.689 259.689 266.667 251.111 266.667ZM68.8886 226.667C67.6619 226.667 66.6663 227.662 66.6663 228.889V251.111C66.6663 252.338 67.6619 253.333 68.8886 253.333H251.111C252.337 253.333 253.333 252.338 253.333 251.111V228.889C253.333 227.662 252.337 226.667 251.111 226.667H68.8886Z"
        fill="#212121" />
    <path
        d="M215.555 226.667H104.444C100.764 226.667 97.7773 223.68 97.7773 220V177.778C97.7773 143.467 125.697 115.556 160 115.556C194.302 115.556 222.222 143.467 222.222 177.778V220C222.222 223.68 219.235 226.667 215.555 226.667ZM111.111 213.333H208.888V177.778C208.888 150.818 186.951 128.889 160 128.889C133.048 128.889 111.111 150.818 111.111 177.778V213.333Z"
        fill="#212121" />
    <path
        d="M137.778 177.778H124.444C124.444 158.169 140.391 142.222 160 142.222V155.556C147.742 155.556 137.778 165.529 137.778 177.778Z"
        fill="#212121" />
    <path d="M166.666 60H153.333V91.1111H166.666V60Z" fill="#212121" />
    <path d="M228.392 82.1797L206.394 104.179L215.822 113.607L237.82 91.6076L228.392 82.1797Z" fill="#212121" />
    <path d="M91.6042 82.1726L82.1748 91.5994L104.171 113.601L113.6 104.175L91.6042 82.1726Z" fill="#212121" />
    <path d="M73.3333 153.333H60V166.667H73.3333V153.333Z" fill="#212121" />
    <path d="M260 153.333H246.667V166.667H260V153.333Z" fill="#212121" />
</svg>