<svg width="260" height="260" viewBox="0 0 260 260" fill="none" xmlns="http://www.w3.org/2000/svg">
    <path
        d="M199.5 229.905C149.544 229.905 115.238 255.783 91.1663 255.783C67.0946 255.783 16.5391 241.945 16.5391 131.206C16.5391 20.4682 84.5507 4.21094 111.027 4.21094C235.011 4.21094 287.972 229.905 199.5 229.905Z"
        fill="#666666" />
    <path
        d="M39.722 50.5573C33.7492 50.5573 28.8887 45.6967 28.8887 39.724C28.8887 33.7512 33.7492 28.8906 39.722 28.8906C45.6948 28.8906 50.5553 33.7512 50.5553 39.724C50.5553 45.6967 45.6948 50.5573 39.722 50.5573ZM39.722 36.1128C37.7359 36.1128 36.1109 37.7306 36.1109 39.724C36.1109 41.7173 37.7359 43.3351 39.722 43.3351C41.7081 43.3351 43.3331 41.7173 43.3331 39.724C43.3331 37.7306 41.7081 36.1128 39.722 36.1128Z"
        fill="#212121" />
    <path
        d="M204.028 211.25H55.9722C51.9856 211.25 48.75 208.014 48.75 204.028V185.972C48.75 181.986 51.9856 178.75 55.9722 178.75H204.028C208.014 178.75 211.25 181.986 211.25 185.972V204.028C211.25 208.014 208.014 211.25 204.028 211.25Z"
        fill="#F3F3F1" />
    <path
        d="M175.139 178.749H84.8613V144.444C84.8613 119.512 105.069 99.3047 130 99.3047C154.931 99.3047 175.139 119.512 175.139 144.444V178.749Z"
        fill="#01AC67" />
    <path
        d="M138.125 100.07C135.489 99.5936 132.781 99.3047 130 99.3047C105.069 99.3047 84.8613 119.512 84.8613 144.444V178.749H101.111V144.444C101.111 122.293 117.08 103.905 138.125 100.07Z"
        fill="#017948" />
    <path
        d="M65 204.028V185.972C65 181.986 68.2356 178.75 72.2222 178.75H55.9722C51.9856 178.75 48.75 181.986 48.75 185.972V204.028C48.75 208.014 51.9856 211.25 55.9722 211.25H72.2222C68.2356 211.25 65 208.014 65 204.028Z"
        fill="#D5DBE1" />
    <path
        d="M204.028 216.665H55.9729C49.0034 216.665 43.334 210.996 43.334 204.026V185.971C43.334 179.001 49.0034 173.332 55.9729 173.332H204.028C210.998 173.332 216.667 179.001 216.667 185.971V204.026C216.667 210.996 210.998 216.665 204.028 216.665ZM55.9729 184.165C54.9762 184.165 54.1673 184.974 54.1673 185.971V204.026C54.1673 205.023 54.9762 205.832 55.9729 205.832H204.028C205.025 205.832 205.834 205.023 205.834 204.026V185.971C205.834 184.974 205.025 184.165 204.028 184.165H55.9729Z"
        fill="#212121" />
    <path
        d="M175.14 184.168H84.862C81.872 184.168 79.4453 181.742 79.4453 178.752V144.446C79.4453 116.568 102.13 93.8906 130.001 93.8906C157.871 93.8906 180.556 116.568 180.556 144.446V178.752C180.556 181.742 178.13 184.168 175.14 184.168ZM90.2786 173.335H169.723V144.446C169.723 122.541 151.899 104.724 130.001 104.724C108.103 104.724 90.2786 122.541 90.2786 144.446V173.335Z"
        fill="#212121" />
    <path
        d="M111.945 144.444H101.111C101.111 128.511 114.068 115.555 130 115.555V126.388C120.041 126.388 111.945 134.491 111.945 144.444Z"
        fill="#212121" />
    <path d="M135.417 48.75H124.584V74.0278H135.417V48.75Z" fill="#212121" />
    <path d="M185.569 66.7701L167.695 84.6445L175.356 92.3047L193.23 74.4303L185.569 66.7701Z" fill="#212121" />
    <path d="M74.429 66.7665L66.7676 74.4258L84.6392 92.3024L92.3006 84.6431L74.429 66.7665Z" fill="#212121" />
    <path d="M59.5833 124.582H48.75V135.415H59.5833V124.582Z" fill="#212121" />
    <path d="M211.249 124.582H200.416V135.415H211.249V124.582Z" fill="#212121" />
</svg>