<svg width="161" height="161" viewBox="0 0 161 161" fill="none" xmlns="http://www.w3.org/2000/svg">
<path d="M123.271 141.98C92.5286 141.98 71.4175 157.905 56.6041 157.905C41.7908 157.905 10.6797 149.389 10.6797 81.2424C10.6797 13.0958 52.533 3.09131 68.8264 3.09131C145.124 3.09131 177.715 141.98 123.271 141.98Z" fill="#666666"/>
<path d="M24.944 31.6112C21.2685 31.6112 18.2773 28.6201 18.2773 24.9445C18.2773 21.2689 21.2685 18.2778 24.944 18.2778C28.6196 18.2778 31.6107 21.2689 31.6107 24.9445C31.6107 28.6201 28.6196 31.6112 24.944 31.6112ZM24.944 22.7223C23.7218 22.7223 22.7218 23.7178 22.7218 24.9445C22.7218 26.1712 23.7218 27.1667 24.944 27.1667C26.1662 27.1667 27.1662 26.1712 27.1662 24.9445C27.1662 23.7178 26.1662 22.7223 24.944 22.7223Z" fill="#212121"/>
<path d="M126.056 130.5H34.9444C32.4911 130.5 30.5 128.509 30.5 126.056V114.944C30.5 112.491 32.4911 110.5 34.9444 110.5H126.056C128.509 110.5 130.5 112.491 130.5 114.944V126.056C130.5 128.509 128.509 130.5 126.056 130.5Z" fill="#F3F3F1"/>
<path d="M108.278 110.5H52.7227V89.3891C52.7227 74.0469 65.1582 61.6113 80.5004 61.6113C95.8427 61.6113 108.278 74.0469 108.278 89.3891V110.5Z" fill="#01AC67"/>
<path d="M85.5004 62.0824C83.8782 61.7891 82.2115 61.6113 80.5004 61.6113C65.1582 61.6113 52.7227 74.0469 52.7227 89.3891V110.5H62.7227V89.3891C62.7227 75.758 72.5493 64.4424 85.5004 62.0824Z" fill="#017948"/>
<path d="M40.5 126.056V114.944C40.5 112.491 42.4911 110.5 44.9444 110.5H34.9444C32.4911 110.5 30.5 112.491 30.5 114.944V126.056C30.5 128.509 32.4911 130.5 34.9444 130.5H44.9444C42.4911 130.5 40.5 128.509 40.5 126.056Z" fill="#D5DBE1"/>
<path d="M126.057 133.833H34.9457C30.6569 133.833 27.168 130.344 27.168 126.055V114.944C27.168 110.655 30.6569 107.167 34.9457 107.167H126.057C130.346 107.167 133.835 110.655 133.835 114.944V126.055C133.835 130.344 130.346 133.833 126.057 133.833ZM34.9457 113.833C34.3324 113.833 33.8346 114.331 33.8346 114.944V126.055C33.8346 126.669 34.3324 127.167 34.9457 127.167H126.057C126.67 127.167 127.168 126.669 127.168 126.055V114.944C127.168 114.331 126.67 113.833 126.057 113.833H34.9457Z" fill="#212121"/>
<path d="M108.28 113.833H52.724C50.884 113.833 49.3906 112.34 49.3906 110.5V89.3889C49.3906 72.2334 63.3506 58.2778 80.5017 58.2778C97.6529 58.2778 111.613 72.2334 111.613 89.3889V110.5C111.613 112.34 110.12 113.833 108.28 113.833ZM56.0573 107.167H104.946V89.3889C104.946 75.9089 93.9773 64.9445 80.5017 64.9445C67.0262 64.9445 56.0573 75.9089 56.0573 89.3889V107.167Z" fill="#212121"/>
<path d="M69.3893 89.3891H62.7227C62.7227 79.5847 70.696 71.6113 80.5004 71.6113V78.278C74.3715 78.278 69.3893 83.2647 69.3893 89.3891Z" fill="#212121"/>
<path d="M83.8346 30.5H77.168V46.0556H83.8346V30.5Z" fill="#212121"/>
<path d="M114.695 41.5897L103.695 52.5894L108.409 57.3033L119.409 46.3037L114.695 41.5897Z" fill="#212121"/>
<path d="M46.3006 41.5864L41.5859 46.2998L52.5838 57.3008L57.2985 52.5874L46.3006 41.5864Z" fill="#212121"/>
<path d="M37.1667 77.1665H30.5V83.8332H37.1667V77.1665Z" fill="#212121"/>
<path d="M130.499 77.1665H123.832V83.8332H130.499V77.1665Z" fill="#212121"/>
</svg>
