<svg width="714" height="951" viewBox="0 0 714 951" fill="none" xmlns="http://www.w3.org/2000/svg">
    <g clip-path="url(#clip0_5891_9792)">
        <path fill-rule="evenodd" clip-rule="evenodd"
            d="M714 0H0V951H714V0ZM356.5 765C531 765 663.387 619.932 672.5 441.5C683.328 229.5 526.5 118 356.5 118C202.136 118 30.5 215 41.5 441.5C50.1666 619.954 182 765 356.5 765Z"
            fill="#01AC67" fill-opacity="0.12" />
        <path opacity="0.32"
            d="M368.561 104C824.797 104 696.957 572.243 625.269 806.364L400.5 884.5L358.018 935L310.5 884.5L90.7678 806.364C26.1076 572.243 -129.569 104 368.561 104Z"
            stroke="#01AC67" stroke-width="12" />
        <path
            d="M38 413.634C38 313.598 75.9323 241.443 133.933 194.177C192.104 146.773 270.977 124 353.287 124C442.71 124 523.15 146.817 581.115 194.173C638.901 241.383 675 313.5 675 413.634C675 614.267 516.16 776 353.287 776C190.556 776 38 614.424 38 413.634Z"
            stroke="#01AC67" stroke-width="12" />
    </g>
    <defs>
        <clipPath id="clip0_5891_9792">
            <rect width="714" height="951" fill="white" />
        </clipPath>
    </defs>
</svg>