<svg width="200" height="200" viewBox="0 0 200 200" fill="none" xmlns="http://www.w3.org/2000/svg">
<path d="M23.1497 153.462C23.1497 115.034 3.24414 88.6449 3.24414 70.1282C3.24414 51.6115 13.8886 12.7227 99.0719 12.7227C184.255 12.7227 196.755 65.0393 196.755 85.406C196.761 180.778 23.1497 221.517 23.1497 153.462Z" fill="#666666"/>
<path d="M57.6386 40.2773H52.083V51.3885H57.6386V40.2773Z" fill="#212121"/>
<path d="M45.1385 56.9443H34.0273V62.4999H45.1385V56.9443Z" fill="#212121"/>
<path d="M37.5 104.167V151.389H52.7778L63.8889 110.356C63.8889 110.356 55.7889 104.167 37.5 104.167Z" fill="#01AC67"/>
<path d="M148.611 133.333C141.4 133.333 133.027 136.822 125 139.283V136.889C125 131.611 121.277 127.056 116.111 126L62.6108 115.056L54.333 145.167C64.9441 150.167 92.2775 162.5 105.555 162.5C122.222 162.5 162.5 140.278 162.5 140.278C162.5 140.278 159.722 133.333 148.611 133.333Z" fill="#F3F3F1"/>
<path d="M133.334 106.944C133.334 106.944 162.5 94.5444 162.5 69.7444C162.5 59.8222 162.5 47.4222 162.5 47.4222L133.334 37.5L104.167 47.4222C104.167 47.4222 104.167 54.8611 104.167 69.7444C104.167 94.5444 133.334 106.944 133.334 106.944Z" fill="#01AC67"/>
<path d="M37.5 104.167V151.389H50V105.278C46.5222 104.628 42.4056 104.167 37.5 104.167ZM116.667 69.7444C116.667 54.8611 116.667 47.4222 116.667 47.4222L139.583 39.6278L133.333 37.5L104.167 47.4222C104.167 47.4222 104.167 54.8611 104.167 69.7444C104.167 94.5444 133.333 106.944 133.333 106.944C133.333 106.944 135.95 105.817 139.583 103.617C131.017 98.4278 116.667 87.1556 116.667 69.7444Z" fill="#017948"/>
<path d="M66.833 145.167L74.4441 117.478L62.6108 115.056L54.333 145.167C64.9441 150.167 92.2775 162.5 105.555 162.5C107.3 162.5 109.35 162.211 111.539 161.772C97.2552 159.089 75.9219 149.45 66.833 145.167Z" fill="#D5DBE1"/>
<path d="M52.7775 155.556H37.4997C35.1997 155.556 33.333 153.689 33.333 151.389V104.167C33.333 101.867 35.1997 100 37.4997 100C56.9775 100 66.0441 106.761 66.4163 107.05C67.7608 108.078 68.3552 109.817 67.9108 111.45L56.7997 152.483C56.3108 154.294 54.6608 155.556 52.7775 155.556ZM41.6663 147.222H49.5886L59.0219 112.383C56.1163 111.011 50.4386 108.967 41.6663 108.456V147.222Z" fill="#212121"/>
<path d="M105.556 166.666C92.1949 166.666 66.6171 155.555 52.5615 148.939L56.1115 141.4C78.956 152.166 96.9782 158.339 105.556 158.339C116.823 158.339 142.4 146.166 155.806 139.144C154.262 138.261 151.962 137.505 148.612 137.505C143.734 137.505 137.7 139.516 131.873 141.455C125.412 143.611 118.734 145.839 112.5 145.839C100.795 145.839 85.3393 140.272 84.6893 140.033L87.5337 132.2C87.6782 132.255 102.267 137.505 112.5 137.505C117.378 137.505 123.412 135.494 129.239 133.555C135.7 131.4 142.378 129.172 148.612 129.172C162.384 129.172 166.212 138.344 166.367 138.739C167.15 140.689 166.35 142.916 164.512 143.933C162.834 144.855 123.095 166.666 105.556 166.666Z" fill="#212121"/>
<path d="M129.167 139.388H120.834V136.888C120.834 133.605 118.495 130.738 115.278 130.083L61.7725 119.138L63.4447 110.972L116.95 121.916C124.028 123.361 129.167 129.661 129.167 136.888V139.388ZM133.334 111.111C132.778 111.111 132.228 111 131.706 110.777C130.411 110.227 100 96.9884 100 69.744V47.4217C100 45.6384 101.134 44.0551 102.828 43.4773L131.995 33.5551C132.861 33.2551 133.806 33.2551 134.672 33.5551L163.839 43.4773C165.534 44.0495 166.667 45.6329 166.667 47.4217V69.744C166.667 96.9884 136.256 110.233 134.961 110.783C134.439 111 133.889 111.111 133.334 111.111ZM108.334 50.4051V69.744C108.334 88.344 127.528 99.4162 133.328 102.333C139.117 99.3995 158.334 88.2717 158.334 69.744V50.4051L133.334 41.8995L108.334 50.4051Z" fill="#212121"/>
<path d="M131.944 86.1115C130.844 86.1115 129.778 85.6727 129 84.8893L117.889 73.7782L123.783 67.8838L131.5 75.6004L145.278 57.2227L151.939 62.2227L135.272 84.4449C134.55 85.4115 133.444 86.0171 132.233 86.1004C132.139 86.1115 132.044 86.1115 131.944 86.1115Z" fill="#212121"/>
</svg>
