<svg width="126" height="126" viewBox="0 0 126 126" fill="none" xmlns="http://www.w3.org/2000/svg">
    <path
        d="M29.3195 111.416C53.529 111.416 70.154 123.957 81.8195 123.957C93.485 123.957 117.985 117.251 117.985 63.585C117.985 9.91951 85.0255 2.04102 72.1945 2.04102C12.11 2.04102 -13.5555 111.416 29.3195 111.416Z"
        fill="#666666" />
    <path d="M96.6472 10.1716L94.1724 12.6465L99.1222 17.5961L101.597 15.1212L96.6472 10.1716Z" fill="#212121" />
    <path d="M110.878 24.404L108.403 26.8789L113.353 31.8286L115.828 29.3537L110.878 24.404Z" fill="#212121" />
    <path d="M112.731 10.1732L107.781 15.123L110.256 17.5979L115.206 12.648L112.731 10.1732Z" fill="#212121" />
    <path
        d="M27.125 41.125H36.75L24.325 65.975C23.905 65.38 23.625 64.645 23.625 63.875V44.625C23.625 42.7 25.2 41.125 27.125 41.125Z"
        fill="#F3F3F1" />
    <path d="M57.75 41.125H82.25L68.25 67.375H43.75L57.75 41.125Z" fill="#F3F3F1" />
    <path
        d="M102.375 44.6254V63.8754C102.375 65.8004 100.8 67.3754 98.875 67.3754H89.25L101.675 42.5254C102.095 43.1204 102.375 43.8554 102.375 44.6254Z"
        fill="#F3F3F1" />
    <path
        d="M57.7502 41.125L43.7502 67.375H27.1252C25.9702 67.375 24.9552 66.815 24.3252 65.975L36.7502 41.125H57.7502V41.125ZM101.675 42.525L89.2502 67.375H68.2502L82.2502 41.125H98.8752C100.03 41.125 101.045 41.685 101.675 42.525Z"
        fill="#01AC67" />
    <path
        d="M32.2002 65.975L44.6252 41.125H36.7502L24.3252 65.975C24.9552 66.815 25.9702 67.375 27.1252 67.375H35.0002C33.8452 67.375 32.8302 66.815 32.2002 65.975Z"
        fill="#017948" />
    <path d="M82.25 41.125L68.25 67.375H76.125L90.125 41.125H82.25Z" fill="#017948" />
    <path
        d="M31.5 44.625C31.5 42.7 33.075 41.125 35 41.125H27.125C25.2 41.125 23.625 42.7 23.625 44.625V63.875C23.625 64.645 23.905 65.38 24.325 65.975L31.5 51.625V44.625Z"
        fill="#D5DBE1" />
    <path d="M57.75 41.125L43.75 67.375H51.625L65.625 41.125H57.75Z" fill="#D5DBE1" />
    <path
        d="M102.375 44.6254C102.375 43.8554 102.095 43.1204 101.675 42.5254L89.25 67.3754H97.125L102.375 56.8754V44.6254Z"
        fill="#D5DBE1" />
    <path
        d="M98.875 70H27.125C23.7475 70 21 67.2525 21 63.875V44.625C21 41.2475 23.7475 38.5 27.125 38.5H98.875C102.252 38.5 105 41.2475 105 44.625V63.875C105 67.2525 102.252 70 98.875 70ZM27.125 43.75C26.642 43.75 26.25 44.142 26.25 44.625V63.875C26.25 64.358 26.642 64.75 27.125 64.75H98.875C99.358 64.75 99.75 64.358 99.75 63.875V44.625C99.75 44.142 99.358 43.75 98.875 43.75H27.125Z"
        fill="#212121" />
    <path d="M34.402 39.9509L21.9771 64.8008L26.6728 67.1486L39.0977 42.2988L34.402 39.9509Z" fill="#212121" />
    <path d="M55.4369 39.8898L41.4312 66.1367L46.063 68.6083L60.0687 42.3614L55.4369 39.8898Z" fill="#212121" />
    <path d="M79.9369 39.8898L65.9312 66.1367L70.563 68.6083L84.5687 42.3614L79.9369 39.8898Z" fill="#212121" />
    <path d="M99.3292 41.3552L86.9043 66.2051L91.6 68.5529L104.025 43.7031L99.3292 41.3552Z" fill="#212121" />
    <path d="M39.375 67.375H34.125V88.375H39.375V67.375Z" fill="#212121" />
    <path d="M91.875 67.375H86.625V88.375H91.875V67.375Z" fill="#212121" />
    <path d="M42.875 85.75H30.625V91H42.875V85.75Z" fill="#212121" />
    <path d="M95.375 85.75H83.125V91H95.375V85.75Z" fill="#212121" />
</svg>