<svg width="714" height="951" viewBox="0 0 714 951" fill="none" xmlns="http://www.w3.org/2000/svg">
    <g clip-path="url(#clip0_5891_9774)">
        <path opacity="0.32"
            d="M159.789 839.49L160.897 835.423L157.446 833.001C75.8182 775.741 22 670.186 22 498C22 281.168 172.808 107 357 107C541.192 107 692 281.168 692 498C692 689.716 633.394 793.732 545.956 845.219L541.835 847.645L543.281 852.203L561.493 909.604L356.988 925.483L140.703 909.551L159.789 839.49Z"
            stroke="#01AC67" stroke-width="12" />
        <path fill-rule="evenodd" clip-rule="evenodd"
            d="M714 0H0V951H714V0ZM356.75 152C185.892 152 56 268.583 56 507.967C56 747.351 202.515 823 356.75 823C510.986 823 659 748.905 659 524.548C659 235.422 517.118 152 356.75 152Z"
            fill="#01AC67" fill-opacity="0.12" />
        <path
            d="M664 516.219C664 620.635 629.487 695.577 574.343 744.488C519.082 793.502 442.394 817 357 817C271.606 817 194.918 793.502 139.657 744.488C84.5134 695.577 50 620.635 50 516.219C50 306.694 188.527 139 357 139C525.473 139 664 306.694 664 516.219Z"
            stroke="#01AC67" stroke-width="12" />
    </g>
    <defs>
        <clipPath id="clip0_5891_9774">
            <rect width="714" height="951" fill="white" />
        </clipPath>
    </defs>
</svg>