<svg width="320" height="320" viewBox="0 0 320 320" fill="none" xmlns="http://www.w3.org/2000/svg">
<path opacity="0.4" d="M245.538 37.0403C184.053 37.0403 141.831 5.19141 112.204 5.19141C82.5777 5.19141 20.3555 22.2225 20.3555 158.516C20.3555 294.809 104.062 314.809 136.649 314.809C289.244 314.818 354.426 37.0403 245.538 37.0403Z" fill="#666666"/>
<path d="M257.778 11.1113H266.667V28.8891H257.778V11.1113ZM277.778 37.778H295.556V46.6669H277.778V37.778Z" fill="white" fill-opacity="0.87"/>
<path d="M215.556 260H242.222C246.937 260 251.459 258.127 254.793 254.793C258.127 251.459 260 246.937 260 242.222V77.7778C260 73.0628 258.127 68.541 254.793 65.207C251.459 61.873 246.937 60 242.222 60H77.7778C73.0628 60 68.541 61.873 65.207 65.207C61.873 68.541 60 73.0628 60 77.7778V242.222C60 246.937 61.873 251.459 65.207 254.793C68.541 258.127 73.0628 260 77.7778 260H215.556Z" fill="#666666"/>
<path d="M86.6665 131.315C86.6665 93.0751 126.96 77.7773 160.08 77.7773C193.111 77.7773 233.333 93.5373 233.333 131.404V169.644C233.333 180.044 230.942 189.991 226.729 199.013C225.075 202.382 220.951 208.8 220.951 208.8C207.075 228.995 187.831 242.213 160.08 242.213C131.84 242.213 112.187 228.444 98.3998 207.795C98.3998 207.795 94.7643 201.902 93.2798 198.844C88.9438 189.685 86.6884 179.68 86.6754 169.546L86.6665 131.315Z" fill="#26A559"/>
<path d="M80 242.222V77.7778C80 73.0628 81.873 68.541 85.207 65.207C88.541 61.873 93.0628 60 97.7778 60H77.7778C73.0628 60 68.541 61.873 65.207 65.207C61.873 68.541 60 73.0628 60 77.7778V242.222C60 246.937 61.873 251.459 65.207 254.793C68.541 258.127 73.0628 260 77.7778 260H97.7778C93.0628 260 88.541 258.127 85.207 254.793C81.873 251.459 80 246.937 80 242.222Z" fill="#666666"/>
<path d="M118.391 207.805C118.391 207.805 114.755 201.912 113.271 198.854C108.936 189.698 106.68 179.696 106.667 169.565V131.325C106.667 96.8982 139.315 81.1115 169.991 78.2938C166.649 77.9827 163.324 77.7871 160.08 77.7871C126.969 77.7871 86.6665 93.0849 86.6665 131.325V169.565C86.6665 179.965 89.0576 189.912 93.271 198.863C94.7554 201.92 98.391 207.814 98.391 207.814C112.178 228.463 131.831 242.232 160.071 242.232C163.434 242.234 166.795 242.03 170.133 241.618C147.138 238.747 130.507 225.938 118.391 207.805Z" fill="#1F8447"/>
<path fill-rule="evenodd" clip-rule="evenodd" d="M79.9998 155.555H57.7775V168.889H79.9998V169.555C80.0035 180.7 82.4904 191.705 87.2798 201.769C89.015 205.082 90.8741 208.328 92.8531 211.502C109.413 236.311 132.035 248.889 160.08 248.889C187.564 248.889 209.884 236.675 226.56 212.4C227.004 211.715 230.942 205.555 232.773 201.831C237.519 191.764 239.986 180.774 240 169.644V168.889H262.222V155.555H240V131.395C240 89.973 198.569 71.1108 160.08 71.1108C121.511 71.1108 79.9998 89.9553 79.9998 131.315V155.555ZM93.3331 168.889V169.555C93.3331 178.684 95.342 187.591 99.3064 196.017C100.599 198.68 103.756 203.8 104.049 204.275C104.062 204.297 104.07 204.309 104.071 204.311C118.08 225.271 136.435 235.564 160.08 235.564C183.226 235.564 201.342 225.582 215.449 205.031C216.426 203.502 219.52 198.551 220.738 196.08C224.649 187.697 226.666 178.764 226.666 169.644V168.889H93.3331ZM226.666 155.555H93.3331V131.315C93.3331 94.2486 136.995 84.4441 160.08 84.4441C183.111 84.4441 226.666 94.2575 226.666 131.395V155.555ZM53.333 104.444H66.6663V77.7774C66.6663 71.653 71.653 66.6663 77.7774 66.6663H104.444V53.333H77.7774C71.2958 53.3377 65.081 55.9146 60.4978 60.4978C55.9146 65.081 53.3377 71.2958 53.333 77.7774V104.444ZM77.7774 266.666H104.444V253.333H77.7774C71.653 253.333 66.6663 248.346 66.6663 242.222V215.555H53.333V242.222C53.3377 248.703 55.9146 254.918 60.4978 259.501C65.081 264.085 71.2958 266.662 77.7774 266.666ZM253.333 104.444H266.666V77.7774C266.662 71.2958 264.085 65.081 259.501 60.4978C254.918 55.9146 248.703 53.3377 242.222 53.333H215.555V66.6663H242.222C248.346 66.6663 253.333 71.653 253.333 77.7774V104.444ZM215.555 266.666H242.222C248.703 266.662 254.918 264.085 259.501 259.501C264.085 254.918 266.662 248.703 266.666 242.222V215.555H253.333V242.222C253.333 248.346 248.346 253.333 242.222 253.333H215.555V266.666Z" fill="white" fill-opacity="0.87"/>
<path fill-rule="evenodd" clip-rule="evenodd" d="M223.086 196.598C206.1 203.36 183.42 212.39 156.182 212.39C128.724 212.39 108.39 203.193 93.4241 196.425C89.648 194.717 86.2136 193.164 83.0928 191.952L89.2469 176.105C93.412 177.722 97.555 179.582 101.816 181.495C116.587 188.125 132.77 195.39 156.182 195.39C179.805 195.39 198.557 187.97 215.366 181.32C220.166 179.42 224.809 177.583 229.361 176L234.945 192.056C231.375 193.298 227.415 194.875 223.086 196.598Z" fill="#E3F3EA"/>
</svg>
