<svg width="320" height="320" viewBox="0 0 320 320" fill="none" xmlns="http://www.w3.org/2000/svg">
<path d="M74.4618 282.959C135.946 282.959 178.168 314.808 207.795 314.808C237.422 314.808 299.644 297.777 299.644 161.484C299.644 25.1905 215.937 5.18164 183.351 5.18164C30.7551 5.18164 -34.4271 282.959 74.4618 282.959Z" fill="#666666"/>
<path d="M272.222 20H263.333V37.7778H272.222V20Z" fill="white"/>
<path d="M301.111 46.666H283.333V55.5549H301.111V46.666Z" fill="white"/>
<path d="M242.222 251.111C252 251.111 260 243.111 260 233.333V100H60V233.333C60 243.111 68 251.111 77.7778 251.111H242.222Z" fill="white"/>
<path d="M60 99.9998H260V86.6665C260 76.8442 252.044 68.8887 242.222 68.8887H77.7778C67.9556 68.8887 60 76.8442 60 86.6665V99.9998ZM184.444 215.555H135.556C130.649 215.555 126.667 211.573 126.667 206.666V175.555C126.667 170.649 130.649 166.666 135.556 166.666H184.444C189.351 166.666 193.333 170.649 193.333 175.555V206.666C193.333 211.573 189.351 215.555 184.444 215.555Z" fill="#01AC67"/>
<path d="M146.667 206.666V175.555C146.667 170.649 150.649 166.666 155.556 166.666H135.556C130.649 166.666 126.667 170.649 126.667 175.555V206.666C126.667 211.573 130.649 215.555 135.556 215.555H155.556C150.649 215.555 146.667 211.573 146.667 206.666ZM97.7778 68.8887H77.7778C67.9556 68.8887 60 76.8442 60 86.6665V99.9998H80V86.6665C80 76.8442 87.9556 68.8887 97.7778 68.8887Z" fill="#017948"/>
<path d="M80 233.333V100H60V233.333C60 243.111 68 251.111 77.7778 251.111H97.7778C88 251.111 80 243.111 80 233.333Z" fill="#D5DBE1"/>
<path d="M242.222 257.778H77.7775C64.293 257.778 53.333 246.818 53.333 233.334V86.6671C53.333 73.1827 64.293 62.2227 77.7775 62.2227H242.222C255.706 62.2227 266.666 73.1827 266.666 86.6671V233.334C266.666 246.818 255.706 257.778 242.222 257.778ZM77.7775 75.556C71.653 75.556 66.6663 80.5427 66.6663 86.6671V233.334C66.6663 239.458 71.653 244.445 77.7775 244.445H242.222C248.346 244.445 253.333 239.458 253.333 233.334V86.6671C253.333 80.5427 248.346 75.556 242.222 75.556H77.7775Z" fill="#212121"/>
<path d="M260 93.334H60V106.667H260V93.334Z" fill="#212121"/>
<path d="M160 219.786C184.428 219.786 204.231 199.983 204.231 175.555C204.231 151.127 184.428 131.324 160 131.324C135.572 131.324 115.77 151.127 115.77 175.555C115.77 199.983 135.572 219.786 160 219.786Z" fill="#01AC67"/>
<path d="M133.077 175.555C133.077 154.093 148.37 136.209 168.654 132.186C165.854 131.632 162.962 131.324 160 131.324C135.57 131.324 115.77 151.124 115.77 175.555C115.77 199.986 135.57 219.786 160 219.786C162.962 219.786 165.854 219.486 168.654 218.924C148.37 214.901 133.077 197.017 133.077 175.555Z" fill="#017948"/>
<path d="M177.339 149.73L134.176 192.895L142.661 201.38L185.824 158.215L177.339 149.73Z" fill="#212121"/>
<path d="M134.175 158.215L177.339 201.379L185.824 192.894L142.661 149.73L134.175 158.215Z" fill="#212121"/>
<path d="M160 225.555C132.431 225.555 110 203.124 110 175.555C110 147.985 132.431 125.555 160 125.555C187.569 125.555 210 147.985 210 175.555C210 203.124 187.569 225.555 160 225.555ZM160 137.093C138.792 137.093 121.538 154.347 121.538 175.555C121.538 196.762 138.792 214.016 160 214.016C181.208 214.016 198.462 196.762 198.462 175.555C198.462 154.347 181.208 137.093 160 137.093Z" fill="#212121"/>
</svg>
