<svg width="320" height="320" viewBox="0 0 320 320" fill="none" xmlns="http://www.w3.org/2000/svg">
<path d="M74.4618 37.0401C135.946 37.0401 178.168 5.19116 207.795 5.19116C237.422 5.19116 299.644 22.2223 299.644 158.516C299.644 294.809 215.937 314.809 183.351 314.809C30.7551 314.818 -34.4271 37.0401 74.4618 37.0401Z" fill="#666666"/>
<path d="M236.564 43.612L230.278 49.8975L242.849 62.468L249.135 56.1825L236.564 43.612Z" fill="#212121"/>
<path d="M272.699 79.7567L266.414 86.0422L278.985 98.6128L285.27 92.3273L272.699 79.7567Z" fill="#212121"/>
<path d="M277.424 43.6055L264.854 56.1765L271.139 62.4618L283.71 49.8908L277.424 43.6055Z" fill="#212121"/>
<path d="M128.889 233.333C128.889 233.333 197.778 220 197.778 141.591C197.778 97.7778 197.778 86.6667 197.778 86.6667L128.889 60L60 86.6667C60 86.6667 60 97.7778 60 141.591C60 220 128.889 233.333 128.889 233.333Z" fill="#F3F3F1"/>
<path d="M208.888 260C237.116 260 260 237.117 260 208.889C260 180.661 237.116 157.778 208.888 157.778C180.661 157.778 157.777 180.661 157.777 208.889C157.777 237.117 180.661 260 208.888 260Z" fill="#01AC67"/>
<path d="M177.777 208.889C177.777 184.089 195.448 163.422 218.888 158.773C215.653 158.133 212.311 157.778 208.888 157.778C180.657 157.778 157.777 180.658 157.777 208.889C157.777 237.12 180.657 260 208.888 260C212.311 260 215.653 259.653 218.888 259.005C195.448 254.356 177.777 233.689 177.777 208.889Z" fill="#017948"/>
<path d="M80 141.591C80 97.7778 80 86.6667 80 86.6667L138.889 63.8667L128.889 60L60 86.6667C60 86.6667 60 97.7778 60 141.591C60 220 128.889 233.333 128.889 233.333C128.889 233.333 132.889 232.524 138.889 230.293C119.813 223.191 80 201.244 80 141.591Z" fill="#D5DBE1"/>
<path d="M239.599 168.75L168.751 239.6L178.179 249.028L249.027 178.178L239.599 168.75Z" fill="#212121"/>
<path d="M208.889 266.667C177.031 266.667 151.111 240.747 151.111 208.889C151.111 177.031 177.031 151.111 208.889 151.111C240.747 151.111 266.667 177.031 266.667 208.889C266.667 240.747 240.747 266.667 208.889 266.667ZM208.889 164.444C184.382 164.444 164.445 184.382 164.445 208.889C164.445 233.396 184.382 253.333 208.889 253.333C233.396 253.333 253.334 233.396 253.334 208.889C253.334 184.382 233.396 164.444 208.889 164.444Z" fill="#212121"/>
<path d="M127.617 239.875C126.871 239.733 53.333 224.542 53.333 141.6V86.6666C53.333 83.911 55.0219 81.4399 57.5908 80.4533L126.48 53.7866C128.026 53.1821 129.742 53.1821 131.289 53.7866L200.177 80.4533C202.755 81.4399 204.444 83.911 204.444 86.6666V133.333H191.111V91.2355L128.889 67.1555L66.6663 91.2355V141.6C66.6663 213.351 127.582 226.275 130.177 226.791L127.617 239.875Z" fill="#212121"/>
</svg>
