<svg width="160" height="161" viewBox="0 0 160 161" fill="none" xmlns="http://www.w3.org/2000/svg">
<path opacity="0.3" d="M79.9993 27.1665C50.5993 27.1665 26.666 51.0998 26.666 80.4998C26.666 109.9 50.5993 133.833 79.9993 133.833C109.399 133.833 133.333 109.9 133.333 80.4998C133.333 51.0998 109.399 27.1665 79.9993 27.1665ZM66.666 113.833L39.9993 87.1665L49.3993 77.7665L66.666 94.9665L110.599 51.0332L119.999 60.4998L66.666 113.833Z" fill="#26A559"/>
<path d="M80.0007 13.8335C43.2007 13.8335 13.334 43.7002 13.334 80.5002C13.334 117.3 43.2007 147.167 80.0007 147.167C116.801 147.167 146.667 117.3 146.667 80.5002C146.667 43.7002 116.801 13.8335 80.0007 13.8335ZM80.0007 133.834C50.6007 133.834 26.6673 109.9 26.6673 80.5002C26.6673 51.1002 50.6007 27.1668 80.0007 27.1668C109.401 27.1668 133.334 51.1002 133.334 80.5002C133.334 109.9 109.401 133.834 80.0007 133.834ZM110.601 51.0335L66.6673 94.9668L49.4007 77.7668L40.0007 87.1668L66.6673 113.834L120.001 60.5002L110.601 51.0335Z" fill="#26A559"/>
</svg>
