<svg width="190" height="190" viewBox="0 0 190 190" fill="none" xmlns="http://www.w3.org/2000/svg">
<mask id="mask0_2852_37980" style="mask-type:alpha" maskUnits="userSpaceOnUse" x="0" y="0" width="190" height="190">
<circle cx="95" cy="95" r="95" fill="#2F2F2F"/>
</mask>
<g mask="url(#mask0_2852_37980)">
<circle cx="95" cy="95" r="95" fill="#2F2F2F"/>
</g>
<path d="M94.9993 95.0001C112.495 95.0001 126.666 80.8292 126.666 63.3334C126.666 45.8376 112.495 31.6667 94.9993 31.6667C77.5035 31.6667 63.3327 45.8376 63.3327 63.3334C63.3327 80.8292 77.5035 95.0001 94.9993 95.0001ZM94.9993 110.833C73.8618 110.833 31.666 121.442 31.666 142.5V150.417C31.666 154.771 35.2285 158.333 39.5827 158.333H150.416C154.77 158.333 158.333 154.771 158.333 150.417V142.5C158.333 121.442 116.137 110.833 94.9993 110.833Z" fill="white" fill-opacity="0.8"/>
</svg>
