<svg width="24" height="20" viewBox="0 0 24 20" fill="none" xmlns="http://www.w3.org/2000/svg">
<g clip-path="url(#clip0_275_23181)">
<path d="M12 0H24V20H12V0Z" fill="white"/>
<path d="M0 0H12V20H0V0Z" fill="#006233"/>
<path d="M15.9 7.5C15.4047 6.54679 14.6402 5.80181 13.725 5.3806C12.8098 4.9594 11.7951 4.8855 10.8382 5.17037C9.88139 5.45525 9.03588 6.08297 8.43284 6.95619C7.8298 7.82942 7.50293 8.89933 7.50293 10C7.50293 11.1007 7.8298 12.1706 8.43284 13.0438C9.03588 13.917 9.88139 14.5448 10.8382 14.8296C11.7951 15.1145 12.8098 15.0406 13.725 14.6194C14.6402 14.1982 15.4047 13.4532 15.9 12.5C15.4339 13.1469 14.7984 13.617 14.0814 13.8453C13.3644 14.0735 12.6013 14.0487 11.8975 13.7743C11.1937 13.4998 10.5841 12.9892 10.1528 12.3131C9.72146 11.637 9.4898 10.8287 9.4898 10C9.4898 9.17127 9.72146 8.363 10.1528 7.68689C10.5841 7.01078 11.1937 6.50022 11.8975 6.22575C12.6013 5.95128 13.3644 5.92646 14.0814 6.15473C14.7984 6.383 15.4339 6.85308 15.9 7.5ZM16.05 10L12 8.53334L14.52 12.3667V7.63334L12 11.4667L16.05 10Z" fill="#D21034"/>
</g>
<defs>
<clipPath id="clip0_275_23181">
<rect width="24" height="20" rx="4" fill="white"/>
</clipPath>
</defs>
</svg>
