<svg width="24" height="20" viewBox="0 0 24 20" fill="none" xmlns="http://www.w3.org/2000/svg">
<g clip-path="url(#clip0_275_23183)">
<path d="M-14.0249 -0.666992H24.3751V20.6663H-14.0249V-0.666992Z" fill="#000066"/>
<path fill-rule="evenodd" clip-rule="evenodd" d="M-14.0249 9.99967L24.3751 20.6663V-0.666992L-14.0249 9.99967Z" fill="#BD1021"/>
<path fill-rule="evenodd" clip-rule="evenodd" d="M24.3752 0.475586V19.5231L-9.91064 9.99934L24.3752 0.475586Z" fill="white"/>
<path fill-rule="evenodd" clip-rule="evenodd" d="M17.9253 12.3912C17.9253 12.3912 17.6856 12.1733 17.9689 11.8221C17.8164 11.6769 17.958 11.3984 17.958 11.3984C17.958 11.3984 17.6965 11.2894 17.9689 10.8415C17.7728 10.6962 17.8599 10.3693 17.8599 10.3693C17.8599 10.3693 17.217 10.1029 17.8273 9.84868C17.326 10.0908 16.8574 9.52168 16.8574 9.52168L16.1274 9.54593C16.0036 8.8721 15.041 9.4573 15.7566 7.52426C15.5713 7.48793 15.3643 7.42743 15.1573 7.59693C14.9502 7.76639 14.3618 8.12959 14.0131 7.76639C13.6645 7.40318 14.2419 6.88255 14.2528 6.87047C14.2637 6.85839 15.0265 6.42255 15.1354 6.13193C15.1246 5.91401 14.8849 5.74451 15.1027 5.27234C15.3534 4.8243 16.8896 4.40055 17.5875 4.25526C17.9253 4.08576 18.0778 3.75884 18.0778 3.75884L18.1541 4.07364C18.1541 4.07364 19.7014 3.56509 19.7777 3.32297C19.854 3.08084 19.8104 3.54089 19.8104 3.54089C20.4206 3.48034 21.1943 2.89922 21.3033 3.16555C21.8154 3.05659 22.7962 2.5723 22.7962 2.5723C22.7962 2.5723 23.1339 2.56022 22.8942 2.97189C23.0467 3.23822 22.8506 3.46826 22.8397 3.46826C22.8288 3.46826 22.9051 3.73468 22.7089 3.87993C22.7744 4.11001 22.5891 4.29159 22.5891 4.29159C22.5891 4.29159 22.6763 4.57009 22.3276 4.71534C22.3603 4.95751 22.1314 5.00597 22.1314 5.00597C22.1314 5.00597 22.1641 5.26022 22.0116 5.36918C22.0116 5.56293 21.8372 5.65976 21.8372 5.65976C21.8372 5.65976 21.9462 5.73239 21.7936 5.85351C21.6411 5.97455 20.0611 7.05209 20.0611 7.04001C20.0611 7.02793 21.2161 7.27001 21.2924 7.31847C21.3687 7.36693 22.2404 8.00864 22.2404 8.00864L21.3577 9.2193C21.3577 9.2193 20.3771 9.09826 20.3335 9.1588C20.29 9.21935 20.5405 9.24355 20.595 9.34039C20.6496 9.43722 20.7368 9.66735 20.9111 9.6431C21.0855 9.61885 20.5842 9.99422 20.2573 10.0306C20.2573 10.1637 20.6713 10.1758 20.7803 10.0668C20.8893 9.95789 20.5188 10.3816 20.4752 10.4422C20.4316 10.5027 20.9656 10.3574 20.9656 10.3574C20.9656 10.3574 20.8785 10.757 20.4099 10.8781C20.5952 11.2171 20.5189 11.4351 20.508 11.4351C20.497 11.4351 20.2029 11.096 19.9196 11.1566C19.9958 11.4834 20.2247 11.7861 20.2901 11.8346C20.3554 11.883 19.7779 11.8708 19.7016 11.6892C19.6254 11.5076 19.56 12.1251 19.767 12.3188C19.5273 12.3309 19.3202 12.1735 19.3202 12.1735C19.3202 12.1735 19.1786 12.5367 19.2766 12.7184C19.3748 12.9001 18.9389 12.3551 18.9389 12.3551L18.1108 12.7426L17.9255 12.3915L17.9253 12.3912Z" fill="#9C3900" stroke="black" stroke-width="1.761" stroke-linejoin="round"/>
<path fill-rule="evenodd" clip-rule="evenodd" d="M11.5249 11.6703C11.5443 11.6703 12.728 11.6487 13.2714 11.3037C13.543 11.778 13.9117 12.1015 13.9117 12.1015L14.0864 11.4115C14.0864 11.4115 14.5133 11.433 14.5521 11.5409C14.4939 11.6702 14.4745 11.8427 14.4745 11.8427C14.4745 11.8427 14.7655 11.8643 14.785 11.9073C14.8044 11.9505 14.7074 12.3169 14.7074 12.3169L15.9492 12.6404C15.9492 12.6404 16.0462 12.1014 16.1433 12.166C16.2403 12.2308 16.6672 12.8992 17.2688 12.9423C17.8703 12.9854 17.9091 12.3817 17.9091 12.3817L18.0449 12.4679C18.0449 12.4679 18.2972 11.8643 18.336 11.8643C18.3748 11.8643 18.433 11.9505 18.7629 11.9505C18.8599 12.0799 18.8988 12.3817 18.8988 12.3817C18.8988 12.3817 18.53 12.7914 18.6465 13.1148C18.7629 13.4382 18.7823 13.3519 18.7823 13.3519L21.4601 14.0634C21.4601 14.0634 21.596 14.3006 21.3631 14.43C21.3631 14.4515 18.6659 13.74 18.6659 13.74C18.6659 13.74 18.4136 14.0634 18.2196 13.9988C18.0255 13.9341 18.1614 14.1281 18.1614 14.1281L21.072 14.3869C21.072 14.3869 21.2855 14.6887 21.1302 14.775C20.9362 14.7965 17.9867 14.5594 17.9867 14.5594C17.9867 14.5594 17.812 14.969 17.618 14.624C17.4822 14.8611 17.3269 14.5594 17.3269 14.5594C17.3269 14.5594 17.0747 14.775 17.0358 14.5377C16.8224 14.7102 16.6866 14.43 16.6866 14.43L15.4446 14.3438L15.367 14.4731C15.367 14.4731 15.5805 14.5377 15.2506 14.6887C14.9207 14.8396 17.2298 14.7749 17.2881 14.7965C17.3463 14.8181 17.1328 15.0121 17.1328 15.0121C17.1328 15.0121 18.3165 15.0984 18.5299 14.8181C18.7434 14.5377 18.4523 15.1845 18.4523 15.1845C18.4523 15.1845 19.3838 15.1415 19.3838 15.0983C19.3838 15.0551 19.3643 15.4218 18.724 15.3786C19.1121 15.6589 19.5972 15.8314 19.5972 15.8314C19.5972 15.8314 19.1121 15.9607 18.5494 15.8098C18.6463 16.0901 19.0733 16.3488 19.0733 16.3488C19.0733 16.3488 18.7628 16.6507 18.0642 15.9175C18.2583 16.3057 18.103 16.4566 18.0837 16.4135C18.0642 16.3703 17.7344 15.8314 16.9582 15.6373C17.4433 15.9823 17.2298 16.1332 17.2298 16.1332C17.2298 16.1332 16.9776 15.6373 16.5701 16.1332C16.4148 15.6804 15.8133 15.4217 15.0759 15.3785C14.8431 15.0768 14.7073 15.163 14.1639 14.9905C13.8534 14.6024 13.4072 14.1712 13.4072 14.1712C13.4072 14.1712 13.4266 13.5891 13.9505 13.6537C14.0087 13.8478 14.0087 13.7831 14.0087 13.7831C14.0087 13.7831 14.5908 13.5459 14.7654 13.8693C15.0177 13.3734 15.367 13.7952 15.4252 13.9677C15.5924 13.9949 16.4343 14.0203 16.4343 14.0203C16.4343 14.0203 16.3372 13.8262 16.3954 13.8478C16.4536 13.8693 16.9193 13.6538 16.9 13.5891C16.8806 13.5244 16.8612 13.3088 16.9388 13.3303C17.0164 13.3519 16.279 13.2225 15.8715 13.5675C15.7357 13.4166 15.8327 13.0069 15.8327 13.0069L14.6297 12.7267L14.5714 13.0717C14.5714 13.0717 14.2222 13.1363 14.2416 13.0501C14.261 12.9638 14.164 13.3519 14.164 13.3519C14.164 13.3519 13.6982 13.2225 13.6982 13.201C13.6982 13.1795 13.8341 12.4248 13.8341 12.4464C13.8341 12.468 13.446 12.4895 12.9027 12.9423C12.7474 12.4033 11.5249 11.6918 11.5249 11.6702V11.6703Z" fill="#FFC221" stroke="black" stroke-width="1.878"/>
<path d="M14.4746 11.8643L14.2223 13.1148M14.7074 12.3385L14.6298 12.7481M15.9494 12.662L15.8329 13.05M18.1034 15.292C18.084 15.292 17.4825 15.3783 17.4048 15.3568C17.3272 15.3353 18.3557 15.7018 18.3557 15.8526M17.0167 15.4435C17.0167 15.4435 16.4152 15.0124 16.3182 15.0555C16.2212 15.0986 16.9197 15.0339 16.9779 14.9692M15.7747 14.9475C15.7747 14.9475 15.1538 14.9691 15.0956 14.9044C15.0374 14.8398 15.6971 15.3788 15.8135 15.3357M14.5716 14.6453C14.5522 14.6453 14.1447 14.4728 13.9701 14.4296C14.1253 14.6021 14.2417 14.8393 14.6298 14.9255M14.7269 14.3653C14.7074 14.3222 13.9507 14.0634 13.9507 13.934C14.1253 13.9988 14.3775 14.085 14.6104 14.0203M18.7437 13.3733L18.666 13.7614" stroke="black" stroke-width="1.878"/>
<path fill-rule="evenodd" clip-rule="evenodd" d="M13.0385 9.90234C13.0385 9.90234 12.2235 10.6785 13.0385 11.1313C13.0773 10.8294 13.1355 10.7863 13.1355 10.7863C13.1355 10.7863 13.8146 11.0666 14.2222 10.3982C14.0475 10.118 13.737 10.2258 13.737 10.2258C13.737 10.2258 13.0967 10.2258 13.0385 9.90247L13.0385 9.90234Z" fill="#FFC221" stroke="black" stroke-width="1.878"/>
<path d="M13.7175 10.248L13.1548 10.787M15.4506 13.9916C15.4506 13.9916 15.5804 14.1505 15.4639 14.3445M18.1808 14.1507L17.9673 14.1724M16.4343 14.021L16.8224 14.0857M17.4781 12.9123C17.4781 12.9123 17.489 13.3481 17.1621 13.336C16.8352 13.3239 16.9442 13.3481 16.9442 13.3481" stroke="black" stroke-width="1.878"/>
<path d="M17.7293 12.8389C17.7293 12.8389 17.86 12.8873 17.8274 12.9963C17.7947 13.1052 17.86 13.42 17.4787 13.7227C17.0754 13.8195 17.1191 13.3474 17.1191 13.3474" stroke="black" stroke-width="1.878"/>
<path d="M17.8706 12.972C17.8706 12.972 18.1103 12.8146 18.143 13.0689C18.1756 13.3231 17.9469 13.7953 17.7834 13.868C17.62 13.9406 17.4348 13.8559 17.4565 13.7348M18.1648 13.0812C18.1648 13.0812 18.3828 12.8874 18.4482 13.1416C18.5136 13.3959 18.2739 13.965 18.1758 13.9771M18.4696 13.1416C18.4696 13.1416 18.5787 13.0811 18.6549 13.1537M18.121 14.0132C18.0774 14.0253 17.8922 14.0374 17.8268 13.8801M17.1406 13.5894C17.1297 13.5894 16.9117 13.6016 16.9117 13.6016M17.9794 14.5462L17.9577 14.1466L17.8705 14.0135L17.718 14.183C17.718 14.183 17.6961 14.5826 17.6307 14.6188M17.718 14.1705C17.707 14.1463 17.5981 13.9163 17.5981 13.9163L17.4128 14.1705C17.4128 14.1705 17.3911 14.5338 17.3257 14.5701M17.4126 14.1582C17.4126 14.1461 17.3363 13.9161 17.3363 13.9161C17.3363 13.9161 17.1184 14.0493 17.0966 14.1461C17.0749 14.243 17.0639 14.5093 17.0094 14.5336M17.0967 14.0977C17.0967 14.0977 17.1185 13.8798 17.0531 13.8798C16.9878 13.8798 16.6935 14.1825 16.6826 14.4489" stroke="black" stroke-width="1.878"/>
<path fill-rule="evenodd" clip-rule="evenodd" d="M13.0654 9.9085C13.0654 9.9085 13.1744 9.78742 13.2071 9.64217C13.2397 9.49688 13.1635 9.33946 13.2942 9.20634C13.425 9.07309 15.1466 8.26192 15.2883 8.1045C15.43 7.94709 15.6914 7.60809 15.7242 7.53542C15.7568 7.4628 15.8549 7.89863 15.5607 8.09238C15.8767 7.99546 16.0838 7.88655 16.2145 7.93488C16.0837 8.14071 15.7351 8.4798 15.5716 8.4798C15.953 8.32238 16.3017 8.18917 16.3997 8.27396C16.4978 8.35871 15.9312 8.78246 15.7024 8.80667C16.0837 8.69771 16.596 8.52821 16.6613 8.7098C16.4543 8.78246 16.5196 8.84292 16.0947 9.10938C16.0402 9.15784 15.7678 9.16988 15.7678 9.16988C16.0947 9.13355 16.5414 8.98821 16.585 9.25463C16.3235 9.36359 16.2254 9.50888 16.0075 9.56942C15.7896 9.62996 15.2883 9.73888 14.9832 9.87209C14.6781 10.0053 14.2313 10.3927 14.2313 10.3927C14.2313 10.3927 13.2616 10.429 13.2616 10.4169C13.2616 10.4048 13.0763 9.92046 13.0654 9.90834V9.9085Z" fill="white" stroke="black" stroke-width="1.878" stroke-linejoin="round"/>
<path d="M13.5229 9.82491C13.5229 9.82491 13.5338 9.58283 13.6319 9.49803C13.73 9.41328 14.2204 9.20741 14.3294 9.02583C14.4383 8.84416 14.1659 9.34058 14.2095 9.47374M13.7191 9.46158C13.7191 9.46158 13.9588 9.55849 13.9044 9.76428" stroke="black" stroke-width="1.878"/>
<path d="M14.0022 9.60018C14.0022 9.62642 13.9976 9.6524 13.9885 9.67664C13.9795 9.70088 13.9662 9.72291 13.9496 9.74146C13.9329 9.76002 13.913 9.77474 13.8912 9.78478C13.8694 9.79482 13.846 9.79999 13.8224 9.79999C13.7988 9.8 13.7754 9.79483 13.7536 9.78479C13.7318 9.77476 13.712 9.76004 13.6953 9.74149C13.6786 9.72294 13.6653 9.70092 13.6563 9.67668C13.6472 9.65244 13.6426 9.62646 13.6426 9.60022C13.6426 9.54723 13.6615 9.49641 13.6952 9.45893C13.729 9.42145 13.7747 9.4004 13.8224 9.40039C13.8701 9.40039 13.9158 9.42143 13.9496 9.4589C13.9833 9.49637 14.0022 9.54719 14.0022 9.60018H14.0022Z" stroke="black" stroke-width="1.631"/>
<path fill-rule="evenodd" clip-rule="evenodd" d="M21.3797 9.1701L23.2648 9.56968C23.2648 9.56968 23.4718 9.30326 23.3629 9.15801C23.6462 9.08539 23.57 8.67372 23.57 8.67372C23.57 8.67372 23.8968 8.51639 23.6244 8.1531C23.8097 7.94726 23.5808 7.78989 23.5808 7.78989C23.5808 7.78989 23.6571 7.42668 23.4173 7.39031C23.4828 7.09981 23.0033 7.00293 23.0033 7.00293C23.0033 7.00293 22.0117 7.30564 21.3143 7.32989C21.5431 7.58414 21.2271 7.74155 21.2271 7.74155C21.2271 7.74155 21.4124 7.8868 21.3579 8.00789C21.3034 8.12893 21.3906 8.26205 21.1509 8.34689C21.4669 8.5043 21.1182 8.77064 21.1182 8.77064C21.1182 8.77064 21.4669 9.03697 21.3798 9.17014L21.3797 9.1701Z" fill="white" stroke="black" stroke-width="1.878"/>
<path d="M21.1939 8.72235C21.1939 8.72235 22.8611 8.94027 22.9374 8.94027C23.0137 8.94027 23.3079 9.04927 23.3624 9.15819M21.2811 8.61315L23.602 8.67369M21.2921 8.55273C21.2921 8.55273 23.4933 8.40744 23.6458 8.15315M21.3571 8.02002C21.3571 8.02002 23.5692 7.7536 23.591 7.78994M21.2811 7.71727C21.2811 7.71727 23.4277 7.34198 23.4495 7.40248M15.1572 6.17969C15.1572 6.17969 15.8328 7.00302 15.7674 7.55994" stroke="black" stroke-width="1.878"/>
<path d="M15.7238 7.12465C15.7238 7.12465 15.9417 7.47574 16.0289 7.51207C16.1162 7.5484 16.8789 7.59682 16.9224 7.96007C16.966 8.19007 16.759 8.11745 16.7917 8.28695C16.8462 8.50486 17.3583 8.78332 17.9141 8.45645M17.402 8.62603C17.402 8.62603 17.8596 9.37674 18.5353 8.56561M18.1865 8.89257C18.1865 8.89257 18.7422 9.21945 19.1999 8.37195M18.6112 8.96478C18.6112 8.96478 18.8836 9.21903 19.4503 8.88007M20.2351 8.54103C20.2351 8.54103 21.0741 8.73465 21.1286 8.7952M20.551 8.33553C20.5619 8.33553 21.1394 8.35978 21.1394 8.35978M20.1912 7.97215C20.1912 7.97215 21.1937 7.89953 21.3245 8.12957M19.7554 7.62103C19.7554 7.62103 21.1611 7.68157 21.2265 7.76632M20.0713 9.21895C20.0713 9.21895 20.3111 9.14632 20.3438 9.1827M19.5267 9.87278C19.5267 9.87278 19.8427 10.1755 20.246 10.0423M19.701 10.3817C19.701 10.3817 20.0606 10.5633 20.4856 10.4543M19.821 10.6839C19.821 10.6839 20.1805 10.9503 20.4202 10.9019M19.6577 10.8419C19.6577 10.8419 19.9083 11.0477 19.9192 11.1567M19.3091 11.0837C19.3091 11.0837 19.3853 11.5195 19.6578 11.6769M19.1236 11.2774C19.1236 11.2774 19.0038 11.8464 19.3089 12.1975M18.8077 11.7252C18.8077 11.7373 18.786 11.9916 18.7968 12.0158M16.8463 9.52178L17.4347 9.48545C17.4347 9.48545 17.6526 9.38861 17.5001 9.23128M17.5763 9.37686C17.5873 9.37686 18.1321 9.4252 18.2738 9.60686C18.4154 9.78845 18.5898 10.1517 18.6878 10.2123C18.7859 10.2727 18.8077 10.188 18.8077 10.188M18.5679 10.0911C18.5679 10.0911 18.2737 10.6481 18.5025 10.8176M18.4041 10.7086C18.4041 10.7086 18.1427 11.0961 18.3497 11.2898M18.2953 11.241C18.2953 11.241 18.0883 11.6164 18.3389 11.8706M18.204 10.2455C18.1899 10.2611 17.9508 10.4486 17.8665 10.4017M17.9508 10.8389C17.9508 10.8389 18.0493 10.9483 18.1337 10.9327M17.9625 11.4071L18.1196 11.5268M17.9836 11.842L18.1195 11.9331M15.5225 5.90395C15.5225 5.90395 15.809 6.06953 16.0381 5.90395C16.2673 5.73853 17.3673 5.11465 17.6538 5.01278C17.9402 4.9109 18.1007 4.32528 18.158 4.0707M17.9403 4.75811L19.5446 4.23615C19.5446 4.23615 19.8081 3.99424 19.8195 3.54865M19.7047 4.03245C19.7047 4.03245 21.3089 3.8542 21.3089 3.19215M21.0571 3.65045C21.0571 3.65045 22.7415 3.14115 22.902 2.9502" stroke="black" stroke-width="1.878"/>
<path d="M16.3589 6.31112C16.3589 6.31112 17.3787 5.72541 17.5391 5.66178C17.6995 5.59812 18.0662 5.08887 17.5162 5.08887" stroke="black" stroke-width="1.878"/>
<path d="M16.8521 6.54029C16.8635 6.54029 17.6885 5.94183 17.9636 5.86546C18.1125 5.63629 18.0323 5.39442 17.7802 5.44533" stroke="black" stroke-width="1.878"/>
<path d="M18.0322 5.71253C18.0551 5.69978 18.4791 5.68703 18.3301 6.05628C18.1125 6.23453 17.1729 6.75653 17.1729 6.75653M17.8145 5.31782L19.6021 4.65573C19.6021 4.65573 19.7511 4.31198 19.5334 4.26107M21.0232 3.66261C21.0232 3.6754 21.2524 3.81544 21.1149 4.04461C20.8628 4.21015 19.6711 4.52844 19.6711 4.52844M22.8336 3.45898L21.1491 3.98094M22.7073 3.87915L21.2407 4.37569M22.5816 4.28657L21.2867 4.71948M22.3407 4.69394C22.3063 4.69394 21.3782 5.01228 21.3782 5.01228M22.1347 5.01228L21.5388 5.27965M21.9857 5.36873C21.9628 5.36873 21.4701 5.61061 21.4701 5.61061M21.8367 5.66157L21.3784 5.90344M21.0459 6.20907C21.0459 6.20907 21.1032 6.23448 21.0918 6.31094M19.8885 6.90928C19.8885 6.90928 20.0833 6.98569 19.9 7.1894C19.8083 7.3294 19.5448 7.29128 19.3843 7.5459M21.1378 4.0574C21.1378 4.0574 21.3785 4.12107 21.1951 4.46482C20.7139 4.66857 19.7399 4.99953 19.7399 4.99953C19.7399 4.99953 19.6941 5.08869 19.5681 5.16507C19.4421 5.2414 18.0555 5.67423 18.0555 5.67423M21.2181 4.45207C21.2181 4.45207 21.4817 4.5794 21.2181 4.79582C20.9202 4.98682 19.8775 5.34332 19.8775 5.34332C19.8775 5.34332 19.866 5.44515 19.8202 5.48332C19.7743 5.52153 18.3993 6.03082 18.3993 6.03082" stroke="black" stroke-width="1.878"/>
<path d="M21.2868 4.7959C21.2868 4.7959 21.5618 4.88507 21.3212 5.13965C21.0347 5.33065 20.118 5.6744 20.118 5.6744C20.118 5.6744 20.0263 5.80173 19.8773 5.85265C19.7284 5.90357 18.7773 6.3364 18.7773 6.3364M21.3555 5.13969C21.4357 5.1779 21.6534 5.21611 21.3899 5.44527C21.0805 5.59807 20.3242 5.92911 20.3242 5.92911L20.2554 6.06911L19.0523 6.64202M21.4242 5.48348C21.4242 5.48348 21.5387 5.63627 21.2866 5.81452C21.0116 5.98002 20.4158 6.23465 20.4158 6.23465M21.2868 5.83994C21.2868 5.83994 21.4128 5.92911 21.2525 6.0564C21.0691 6.15823 20.3472 6.5784 20.3472 6.5784L19.8774 6.92215" stroke="black" stroke-width="1.878"/>
<path d="M19.6364 4.66895C19.6364 4.68174 19.8312 4.85995 19.7624 5.06365C19.9343 5.20374 19.8999 5.35649 19.8999 5.35649C19.8999 5.35649 20.1405 5.50932 20.1062 5.72578C20.3468 5.78945 20.3353 5.9422 20.3353 5.9422L20.2551 6.0822C20.2551 6.0822 20.4957 6.06953 20.2895 6.41328C20.4155 6.48965 20.3583 6.57878 20.3583 6.57878M20.2893 6.42603C20.2549 6.42603 19.4529 6.75703 19.2466 6.96074" stroke="black" stroke-width="1.878"/>
<path d="M18.3531 6.03133C18.3531 6.03133 18.5938 6.01858 18.5594 6.31142C18.8344 6.20954 18.7771 6.50237 18.7771 6.50237C18.7771 6.50237 19.0979 6.36229 19.0406 6.80792C19.2469 6.757 19.2125 6.98617 19.2125 6.98617C19.2125 6.98617 19.3959 6.97342 19.3959 7.088C19.5219 6.96071 19.6594 7.02437 19.6594 7.02437C19.6594 7.02437 19.7511 6.88437 19.8771 6.92254M18.5708 6.29871C18.5708 6.32412 17.4937 6.98621 17.4937 6.98621M18.7768 6.51508L17.9632 7.07529M19.052 6.79521C19.052 6.80791 18.3416 7.26629 18.3416 7.26629M19.2126 6.97346C19.2126 6.97346 18.7084 7.43179 18.5938 7.40637M19.3843 7.11354C19.3843 7.11354 19.0978 7.35542 18.8572 7.47M19.6822 7.01167C19.6822 7.01167 19.7739 7.139 19.201 7.47" stroke="black" stroke-width="1.878"/>
</g>
<defs>
<clipPath id="clip0_275_23183">
<rect width="24" height="20" rx="4" fill="white"/>
</clipPath>
</defs>
</svg>
