<svg width="24" height="20" viewBox="0 0 24 20" fill="none" xmlns="http://www.w3.org/2000/svg">
<g clip-path="url(#clip0_275_23267)">
<path d="M0 0H24V20H0V0Z" fill="#000066"/>
<path d="M0 0V1.16458L11.5139 10.4167H12.9632V9.25208L1.44926 0H0ZM12.9632 0V1.16458L1.44926 10.4167H0V9.25208L11.5139 0H12.9632Z" fill="white"/>
<path d="M5.40131 0V10.4167H7.56184V0H5.40128H5.40131ZM0 3.47221V6.94442H12.9632V3.47221H0Z" fill="white"/>
<path d="M0 4.16667V6.25H12.9632V4.16667H0ZM5.83343 0V10.4167H7.12973V0H5.83343ZM0 10.4167L4.32105 6.94442H5.28724L0.966188 10.4167H0ZM0 0L4.32105 3.47221H3.35486L0 0.776375V0ZM7.67588 3.47221L11.997 0H12.9632L8.6421 3.47221H7.67588ZM12.9632 10.4167L8.64214 6.94442H9.60833L12.9632 9.64025V10.4167H12.9632Z" fill="#CC0000"/>
<path fill-rule="evenodd" clip-rule="evenodd" d="M11.2412 16.3547L9.60426 16.5129L9.82975 18.3214L8.69773 16.9979L7.56576 18.3214L7.79128 16.5129L6.1543 16.3547L7.5673 15.4229L6.65815 13.9023L8.19452 14.5487L8.69777 12.8106L9.20102 14.5486L10.7374 13.9022L9.82832 15.4228M18.245 18.0216L17.8498 17.361L18.5177 17.6419L18.7361 16.8867L18.9545 17.642L19.6223 17.3611L19.2272 18.0216L19.841 18.4266L19.1299 18.4953L19.228 19.2807L18.7361 18.706L18.2442 19.2808L18.3423 18.4954L17.6312 18.4266M18.245 6.26765L17.8498 5.60698L18.5177 5.8879L18.7361 5.13281L18.9545 5.88781L19.6223 5.60698L19.2272 6.2676L19.841 6.67248L19.1299 6.74123L19.228 7.52665L18.7361 6.95194L18.2442 7.52669L18.3423 6.74127L17.6312 6.67252M14.278 11.0426L13.8829 10.3821L14.5507 10.663L14.7691 9.90781L14.9875 10.663L15.6553 10.3821L15.2602 11.0426L15.8741 11.4476L15.1629 11.5164L15.261 12.3018L14.7691 11.727L14.2772 12.3018L14.3753 11.5164L13.6642 11.4476M21.7721 9.86727L21.3762 9.20669L22.0445 9.4876L22.2614 8.7324L22.4809 9.4876L23.1473 9.20669L22.7533 9.86727L23.3669 10.2722L22.6555 10.3409L22.7533 11.1264L22.2614 10.5516L21.7695 11.1264L21.8674 10.3409L21.1573 10.2722M20.3228 13.3303L19.9341 13.598L20.0434 13.1046L19.694 12.777L20.1502 12.7397L20.3229 12.2693L20.4956 12.7397L20.9518 12.7771L20.6024 13.1047L20.7116 13.598" fill="white"/>
</g>
<defs>
<clipPath id="clip0_275_23267">
<rect width="24" height="20" rx="4" fill="white"/>
</clipPath>
</defs>
</svg>
