<svg width="24" height="20" viewBox="0 0 24 20" fill="none" xmlns="http://www.w3.org/2000/svg">
<g clip-path="url(#clip0_275_23253)">
<path d="M0.00390625 0H24.0039V20H0.00390625V0Z" fill="#3F9C35"/>
<path d="M0.00390625 0H24.0039V13.3333H0.00390625V0Z" fill="#ED2939"/>
<path d="M0.00390625 0H24.0039V6.66667H0.00390625V0Z" fill="#00B9E4"/>
<path d="M11.4002 13C12.8914 13 14.1002 11.6569 14.1002 10C14.1002 8.34315 12.8914 7 11.4002 7C9.90903 7 8.7002 8.34315 8.7002 10C8.7002 11.6569 9.90903 13 11.4002 13Z" fill="white"/>
<path d="M12 12.5C13.2426 12.5 14.25 11.3807 14.25 10C14.25 8.61929 13.2426 7.5 12 7.5C10.7574 7.5 9.75 8.61929 9.75 10C9.75 11.3807 10.7574 12.5 12 12.5Z" fill="#ED2939"/>
<path d="M14.3999 8.33301L14.6869 9.22976L15.4606 8.82117L15.0928 9.68076L15.8999 9.99967L15.0928 10.3186L15.4606 11.1782L14.6869 10.7696L14.3999 11.6663L14.1129 10.7696L13.3393 11.1782L13.707 10.3186L12.8999 9.99967L13.707 9.68076L13.3393 8.82117L14.1129 9.22976L14.3999 8.33301Z" fill="white"/>
</g>
<defs>
<clipPath id="clip0_275_23253">
<rect width="24" height="20" rx="4" fill="white"/>
</clipPath>
</defs>
</svg>
