<svg width="24" height="20" viewBox="0 0 24 20" fill="none" xmlns="http://www.w3.org/2000/svg">
<g clip-path="url(#clip0_275_23252)">
<path d="M0 0H24V20H0V0Z" fill="#CF142B"/>
<path d="M0 0H12V6.66667H0V0Z" fill="#00247D"/>
<path d="M0 0V0.745333L10.6584 6.66667H12V5.92133L1.3416 0H0ZM12 0V0.745333L1.3416 6.66667H0V5.92133L10.6584 0H12Z" fill="white"/>
<path d="M4.99999 0V6.66667H7.00001V0H4.99999ZM0 2.22221V4.44446H12V2.22221H0Z" fill="white"/>
<path d="M0 2.66667V4H12V2.66667H0ZM5.4 0V6.66667H6.6V0H5.4ZM0 6.66667L4.00001 4.44446H4.89439L0.894375 6.66667H0ZM0 0L4.00001 2.22221H3.10564L0 0.496875V0ZM7.10561 2.22221L11.1056 0H12L7.99999 2.22221H7.10561ZM12 6.66667L7.99999 4.44446H8.89436L12 6.16979V6.66667Z" fill="#CF142B"/>
<path d="M20.7687 6.17773V11.8241C20.7687 13.3323 18.0552 13.8223 18.0552 13.8223C18.0552 13.8223 15.3418 13.3323 15.3418 11.8241V6.17773H20.7688H20.7687Z" fill="white"/>
<path d="M20.7687 11.8237C20.7687 13.3319 18.0552 13.8219 18.0552 13.8219C18.0552 13.8219 15.3418 13.3319 15.3418 11.8237C15.3418 11.8237 15.3418 11.7023 15.397 11.6332C15.397 11.6332 15.3671 11.884 15.5405 12.0737C15.5405 12.0737 15.4045 11.8061 15.5375 11.5431C15.5375 11.5431 15.4882 11.8815 15.6781 12.0758C15.6781 12.0758 15.5735 11.7994 15.6916 11.4911C15.6916 11.4911 15.6332 11.9955 15.8396 12.096C15.8396 12.096 15.8964 11.8062 15.8142 11.6202C15.8142 11.6202 15.9562 11.6838 15.9487 12.1043C15.9487 12.1043 15.9935 12.0424 16.0055 11.7391C16.0055 11.7391 16.0115 12.0859 16.1191 12.1663C16.1191 12.1663 16.1521 12.1312 16.1072 11.9737C16.0624 11.8162 16.1266 11.761 16.1371 11.7643C16.1371 11.7643 16.1135 11.9385 16.245 12.0692C16.245 12.0692 16.188 11.7961 16.2673 11.7592C16.2673 11.7592 16.2508 11.9905 16.4153 12.0424C16.4153 12.0424 16.4273 11.9753 16.3914 11.9C16.3914 11.9 16.36 11.8106 16.3839 11.7422C16.3839 11.7422 16.4362 11.9519 16.508 11.9871C16.508 11.9871 16.4646 11.8642 16.505 11.7422C16.505 11.7422 16.514 11.9168 16.6545 11.9888C16.6545 11.9888 16.5619 11.8537 16.5985 11.705L17.5023 11.7542L17.9703 11.779L19.3744 11.6687L19.6166 11.4375C19.6166 11.4375 19.7123 11.585 19.5613 11.8179C19.5613 11.8179 19.7109 11.7877 19.7587 11.528C19.7587 11.528 19.82 11.6721 19.7362 11.8313C19.7362 11.8313 19.9023 11.647 19.9262 11.4376C19.9262 11.4376 19.9905 11.6402 19.8335 11.8581C19.8335 11.8581 19.974 11.8061 20.0338 11.5749C20.0338 11.5749 20.0817 11.7142 19.9456 11.911C19.9456 11.911 20.1999 11.761 20.1924 11.451C20.1924 11.451 20.2985 11.6218 20.1774 11.8564C20.1774 11.8564 20.3075 11.7274 20.3195 11.5348C20.3195 11.5348 20.3912 11.6218 20.3135 11.8614C20.3135 11.8614 20.472 11.6956 20.4959 11.5163C20.4959 11.5163 20.5303 11.6821 20.3943 11.8916C20.3943 11.8916 20.4869 11.8665 20.5752 11.662C20.5752 11.662 20.5991 11.7425 20.5184 11.8899C20.5184 11.8899 20.6051 11.8732 20.6634 11.6889C20.6634 11.6889 20.6739 11.7995 20.6485 11.8983C20.6485 11.8983 20.7158 11.8498 20.7307 11.6403C20.7307 11.6403 20.7683 11.709 20.769 11.7944C20.7695 11.8799 20.7689 11.8237 20.7689 11.8237L20.7687 11.8237Z" fill="#2F8F22"/>
<path d="M19.3716 8.55985C19.3716 8.55985 19.2773 8.57764 19.1562 8.53664C19.0351 8.4956 18.9861 8.51226 18.9485 8.53664C18.9485 8.53664 18.9977 8.42847 18.878 8.3431C18.878 8.3431 18.9169 8.45226 18.8631 8.50322C18.8631 8.50322 18.8392 8.52822 18.8108 8.49055C18.8108 8.49055 18.7689 8.4428 18.7248 8.40597C18.7248 8.40597 18.8264 8.3666 18.8078 8.2518C18.7891 8.13705 18.7338 8.12197 18.7039 8.10776C18.7039 8.10776 18.7144 8.15968 18.7039 8.19485C18.7039 8.19485 18.5932 8.12618 18.7435 8.02901C18.8938 7.9318 18.8661 7.87485 18.8392 7.82543C18.8123 7.77605 18.7547 7.7216 18.7263 7.7023C18.7263 7.7023 18.7562 7.75426 18.751 7.79868C18.7457 7.84305 18.6776 7.8716 18.6911 7.79368C18.7046 7.71576 18.6904 7.7291 18.6889 7.64618C18.6889 7.64618 18.8227 7.69647 18.875 7.5516C18.875 7.5516 18.9266 7.4016 18.7576 7.32701C18.7576 7.32701 18.7987 7.38818 18.7785 7.43426C18.7785 7.43426 18.7427 7.50968 18.7 7.44851C18.6574 7.38735 18.6305 7.3756 18.635 7.30351C18.635 7.30351 18.7882 7.32705 18.7464 7.14185C18.7464 7.14185 18.7217 7.26505 18.5229 7.09918C18.5229 7.09918 18.6521 6.95168 18.6021 6.83276C18.6021 6.83276 18.5863 6.7783 18.4458 6.81014C18.4458 6.81014 18.5677 6.72472 18.5161 6.6518C18.5161 6.6518 18.4898 6.60326 18.3762 6.66689C18.3762 6.66689 18.4204 6.5823 18.3089 6.49097C18.3089 6.49097 18.2342 6.53455 18.1946 6.57472C18.1946 6.57472 18.1183 6.46751 18.0697 6.4248C18.0697 6.4248 17.9815 6.46251 17.9591 6.5748C17.9591 6.5748 17.918 6.5203 17.8245 6.49522C17.8245 6.49522 17.7797 6.5873 17.838 6.66772C17.838 6.66772 17.7946 6.66605 17.7154 6.62751C17.7154 6.62751 17.6249 6.57976 17.6383 6.66605C17.6518 6.7523 17.6585 6.7716 17.6765 6.8118C17.6765 6.8118 17.4735 6.75943 17.4821 6.88139C17.4881 6.96597 17.5165 7.0388 17.5793 7.09997C17.5793 7.09997 17.4656 7.26497 17.3684 7.14097C17.3684 7.14097 17.3348 7.18118 17.4073 7.28672C17.4073 7.28672 17.4798 7.37547 17.42 7.43172C17.42 7.43172 17.34 7.50285 17.3012 7.36464C17.3012 7.36464 17.1718 7.50789 17.3243 7.61764C17.3243 7.61764 17.4223 7.67964 17.5225 7.5841C17.5225 7.5841 17.4919 7.85885 17.3961 7.80605C17.3961 7.80605 17.3386 7.75918 17.4417 7.70305C17.4417 7.70305 17.293 7.6821 17.269 7.8421C17.269 7.8421 17.2507 7.96939 17.3804 8.01551C17.3804 8.01551 17.4806 8.05572 17.3767 8.14201C17.3767 8.14201 17.3034 8.20401 17.3513 8.29618C17.3513 8.29618 17.4088 8.39751 17.263 8.40755C17.263 8.40755 17.1838 8.40672 17.1554 8.39505C17.1554 8.39505 17.1234 8.46105 17.1457 8.53651C17.1457 8.53651 17.0731 8.47643 16.9079 8.54293C16.7427 8.60947 16.7554 8.56251 16.7419 8.58268C16.7284 8.60276 16.6963 8.6706 16.6963 8.6706C16.6963 8.6706 16.783 8.78789 16.7845 8.78539C16.786 8.78289 16.7681 8.91943 16.7681 8.91943L16.8107 8.94205L17.1508 8.77372L17.4963 8.57372L17.774 8.5926L17.9501 8.63918L18.1814 8.65793L18.3471 8.55976H18.5871L18.851 8.70589L19.1523 8.90564L19.3093 8.93622L19.4303 8.92905V8.65797L19.3714 8.55989L19.3716 8.55985Z" fill="#D40000" stroke="black" stroke-width="0.532" stroke-linejoin="round"/>
<path d="M16.6314 8.87641C16.6314 8.87641 16.763 8.951 16.8179 8.8605C16.8179 8.8605 16.8897 8.7085 16.7321 8.65575C16.7321 8.65575 16.8178 8.54137 16.7259 8.43583C16.7259 8.43583 16.6777 8.37929 16.5935 8.42083C16.5935 8.42083 16.5588 8.34033 16.4769 8.34283C16.4769 8.34283 16.4052 8.34158 16.3805 8.4295C16.3805 8.4295 16.2818 8.38433 16.2268 8.44966C16.2268 8.44966 16.136 8.56275 16.2627 8.65196L16.3539 8.66121L16.4436 8.61512L16.5438 8.647C16.5439 8.647 16.5181 8.75966 16.6313 8.8765L16.6314 8.87641Z" fill="#D40000" stroke="black" stroke-width="0.532" stroke-linejoin="round"/>
<path d="M19.5689 8.60938C19.7274 8.5928 19.7834 8.74147 19.7834 8.74147C19.8664 8.95805 19.69 9.07368 19.69 9.07368C19.7035 9.12222 19.705 9.18584 19.705 9.18584C19.9531 9.21938 19.9097 9.52934 19.9097 9.52934L19.8275 9.45393C19.684 9.39193 19.536 9.52768 19.4298 9.75551C19.3237 9.98343 19.3745 10.0906 19.3924 10.3603C19.4104 10.6301 19.8051 10.7909 19.8051 10.7909C19.8051 10.7909 19.6182 11.3254 19.4971 11.6688C19.376 12.0123 19.1233 11.8699 19.05 11.7976C18.9767 11.7252 18.9584 11.7654 18.9214 11.7976C18.8844 11.8297 19.0874 12.0056 18.7181 12.1715C18.3487 12.3373 18.2844 12.4647 18.2231 12.5066C18.1619 12.5484 17.9061 12.5199 17.8808 12.4847C17.8553 12.4496 17.8703 12.4496 17.7746 12.3842C17.6789 12.3188 17.5174 12.2619 17.3409 12.1664C17.1645 12.0709 17.169 11.9486 17.1705 11.9235C17.172 11.8983 17.2317 11.6939 17.0251 11.8564C16.8185 12.0189 16.6426 11.7791 16.6426 11.7791C16.6023 11.7201 16.4303 11.2081 16.4303 11.2081C16.3839 11.0171 16.2927 10.7942 16.2927 10.7942C16.2972 10.7926 16.2837 10.8177 16.4363 10.7205C16.5888 10.6234 16.6571 10.4617 16.7099 10.3017C16.7627 10.1417 16.7114 9.86772 16.692 9.81243C16.6725 9.75718 16.5588 9.50368 16.4181 9.45059C16.2774 9.39747 16.1831 9.52934 16.1831 9.52934C16.1831 9.52934 16.1397 9.21934 16.3878 9.18584C16.3878 9.18584 16.3893 9.12222 16.4028 9.07363C16.4028 9.07363 16.2264 8.95797 16.3095 8.74134C16.3095 8.74134 16.3655 8.59272 16.524 8.60926L16.4856 8.68988C16.4856 8.68988 16.4457 9.13222 17.0284 8.83572C17.6111 8.53905 17.5936 8.4838 17.9256 8.6698L18.1678 8.6648C18.1678 8.6648 18.5177 8.48493 18.6298 8.5623C18.7419 8.63968 19.1457 8.89097 19.1457 8.89097C19.1457 8.89097 19.5359 9.05359 19.6122 8.75363L19.5688 8.6093L19.5689 8.60938Z" fill="#64B4D1" stroke="black" stroke-width="0.399"/>
<path d="M17.8155 10.5273C17.8155 10.5273 17.7953 10.3916 17.774 10.3036C17.774 10.3036 17.7308 10.1657 17.8046 10.0688L17.8961 9.95186C17.8961 9.95186 17.9529 9.86686 18.0233 9.85527C18.0233 9.85527 18.0937 9.85294 18.1004 9.83702C18.1072 9.82111 18.1842 9.68036 18.3673 9.83702C18.3673 9.83702 18.4257 9.73315 18.5154 9.71557C18.5154 9.71557 18.6123 9.68286 18.6592 9.76327C18.6592 9.76327 18.7681 9.67152 18.8616 9.81919C18.8616 9.81919 18.9909 9.73836 19.0851 9.89911C19.0851 9.89911 19.2129 9.82982 19.2914 9.97744C19.37 10.1252 19.3542 10.1855 19.3542 10.1855L19.4125 10.4201L19.6189 10.7032L19.1389 10.9042H18.9237L18.493 11.0324L17.7282 11.0977L17.5151 10.8188L17.8156 10.5273L17.8155 10.5273Z" fill="white" stroke="#00247D" stroke-width="0.532" stroke-miterlimit="10"/>
<path d="M17.1688 11.9391C17.1688 11.9391 17.0544 11.9467 16.9961 11.9794C16.9377 12.012 16.8929 12.0472 16.8256 12.095C16.8256 12.095 16.7942 12.1415 16.6619 12.1132C16.6619 12.1132 16.4331 12.0522 16.4331 12.2508C16.4331 12.2508 16.1594 12.2759 16.2716 12.5423C16.2716 12.5423 16.3478 12.7509 16.5048 12.6026C16.5048 12.6026 16.4039 12.7635 16.599 12.8264C16.599 12.8264 16.7381 12.864 16.7784 12.7057C16.7784 12.7057 16.8009 12.6429 16.7471 12.565C16.7471 12.565 16.8144 12.5499 16.8614 12.4695C16.8614 12.4695 16.7179 12.671 16.8749 12.7436C16.8749 12.7436 17.0722 12.7986 17.0834 12.57C17.0834 12.57 17.0674 12.4644 17.1438 12.4267C17.1438 12.4267 17.301 12.3865 17.3728 12.1917C17.3728 12.1917 17.1468 12.058 17.1687 11.9392L17.1688 11.9391ZM16.7068 9.93466C16.7068 9.93466 16.5304 9.84437 16.4466 9.93466C16.4466 9.93466 16.33 9.85441 16.2074 9.93466C16.2074 9.93466 16.0908 10.0194 16.01 10.1126C16.01 10.1126 15.9532 10.1667 15.9741 10.3371C15.9741 10.3371 16.0041 10.4572 15.9861 10.5175C15.9861 10.5175 15.9472 10.509 15.8695 10.6114C15.8695 10.6114 15.7708 10.7384 15.6841 10.6263C15.6841 10.6263 15.711 10.7823 15.8739 10.7571C15.8739 10.7571 15.7947 10.8259 15.8635 11.0035C15.8635 11.0035 15.9144 11.1291 15.8336 11.2866C15.8336 11.2866 15.9757 11.223 15.9697 11.037C15.9697 11.037 15.9577 10.9113 15.9996 10.8225C15.9996 10.8225 15.9577 10.9032 16.0549 11.0755C16.0549 11.0755 16.1297 11.1995 16.0684 11.3284C16.0684 11.3284 16.2089 11.2715 16.1955 11.0822C16.182 10.8928 16.0968 10.9716 16.1521 10.7973C16.1521 10.7973 16.1656 10.8866 16.2074 10.9316C16.2493 10.9766 16.3031 11.052 16.2807 11.1777C16.2807 11.1777 16.3644 11.062 16.345 10.9431C16.3256 10.8241 16.3047 10.7882 16.3047 10.7882L16.5693 10.6214L16.7009 10.3567L16.7069 9.93462L16.7068 9.93466Z" fill="#D40000" stroke="black" stroke-width="0.532" stroke-linejoin="round"/>
<path d="M16.3049 10.6818C16.3049 10.6818 16.1957 10.6734 16.1777 10.5795M15.9863 10.5176C15.9863 10.5176 16.0244 10.5159 16.0588 10.5544C16.0588 10.5544 16.085 10.598 16.1224 10.5929" stroke="black" stroke-width="0.532" stroke-miterlimit="10"/>
<path d="M16.4665 10.325C16.4665 10.325 16.4097 10.325 16.3783 10.2948C16.3783 10.2948 16.3453 10.2698 16.326 10.31C16.326 10.31 16.2961 10.3669 16.3514 10.392C16.3514 10.392 16.4202 10.4306 16.311 10.5077C16.311 10.5077 16.4412 10.4557 16.3888 10.3854C16.3888 10.3854 16.332 10.3401 16.3529 10.3234C16.3529 10.3234 16.3589 10.31 16.3814 10.3267C16.4038 10.3435 16.4487 10.3368 16.4665 10.325L16.4665 10.325Z" fill="black"/>
<path d="M18.1827 10.6706L18.2496 10.6454L17.8124 8.96777L17.7964 8.97252L18.1827 10.6706Z" fill="#784421" stroke="black" stroke-width="0.399"/>
<path d="M16.727 12.5275C16.727 12.5275 16.6238 12.4631 16.5386 12.5385C16.5386 12.5385 16.5473 12.4966 16.6124 12.4781C16.6124 12.4781 16.6477 12.3676 16.7464 12.3776C16.7464 12.3776 16.706 12.4312 16.6522 12.4765C16.6522 12.4765 16.709 12.483 16.727 12.5275V12.5275Z" fill="black"/>
<path d="M16.3636 12.7935C16.3636 12.7935 16.1999 12.6792 16.2885 12.4869C16.2885 12.4869 16.3143 12.4316 16.3636 12.4429C16.3636 12.4429 16.4656 12.4781 16.3861 12.6352C16.3861 12.6352 16.3457 12.737 16.3636 12.7936V12.7935ZM16.6956 12.9745C16.6956 12.9745 16.4623 12.8564 16.5341 12.6553C16.5341 12.6553 16.5563 12.5874 16.6079 12.5925C16.6079 12.5925 16.6979 12.5975 16.6799 12.7307C16.6799 12.7307 16.6529 12.8613 16.6956 12.9744V12.9745Z" fill="#64B4D1" stroke="#00247D" stroke-width="0.399" stroke-miterlimit="2.613"/>
<path d="M16.6464 12.2246C16.6464 12.2246 16.5763 12.2821 16.5478 12.3207C16.5478 12.3207 16.5193 12.2813 16.4819 12.2574C16.4819 12.2574 16.525 12.2512 16.5478 12.2726C16.5478 12.2726 16.5836 12.2341 16.6464 12.2246H16.6464Z" fill="black"/>
<path d="M16.854 12.9247C16.854 12.9247 17.0368 12.8732 17.0032 12.6633C17.0032 12.6633 16.9852 12.5717 16.9079 12.5842C16.9079 12.5842 16.8146 12.6106 16.8753 12.744C16.8753 12.744 16.9112 12.8393 16.854 12.9247V12.9247Z" fill="#64B4D1" stroke="#00247D" stroke-width="0.399" stroke-miterlimit="2.613"/>
<path d="M17.6797 8.48539C17.6797 8.48539 17.7974 8.52552 17.8614 8.55448C17.8614 8.55448 18.0318 8.63989 18.2483 8.55448C18.2483 8.55448 18.3946 8.49006 18.4142 8.48539L18.302 8.6751L18.2964 8.7731L18.3665 8.88744C18.3665 8.88744 18.3245 8.90631 18.1989 8.82085C18.1989 8.82085 18.0598 8.70148 17.8938 8.82085C17.8938 8.82085 17.8031 8.88919 17.7268 8.88744L17.8345 8.75389L17.793 8.63356L17.6797 8.48535L17.6797 8.48539Z" fill="#F5CE00" stroke="black" stroke-width="0.532" stroke-miterlimit="2.613"/>
<path d="M16.9244 12.6742C16.9244 12.6742 16.9311 12.6642 16.9233 12.6597C16.9233 12.6597 16.9154 12.656 16.9098 12.6682C16.9098 12.6682 16.8908 12.7018 16.9069 12.7479C16.9069 12.7479 16.9221 12.7798 16.9148 12.8131C16.9148 12.8131 16.9137 12.8225 16.9205 12.8238C16.9205 12.8238 16.9269 12.8213 16.9282 12.8144C16.9282 12.8144 16.9373 12.7819 16.9216 12.7501C16.9216 12.7501 16.9026 12.7006 16.9244 12.6742L16.9244 12.6742Z" fill="white"/>
<path d="M19.4567 8.87641C19.4567 8.87641 19.3251 8.951 19.2702 8.8605C19.2702 8.8605 19.1984 8.7085 19.356 8.65575C19.356 8.65575 19.2702 8.54137 19.3622 8.43583C19.3622 8.43583 19.4104 8.37929 19.4945 8.42083C19.4945 8.42083 19.5293 8.34033 19.6112 8.34283C19.6112 8.34283 19.6829 8.34158 19.7075 8.4295C19.7075 8.4295 19.8063 8.38433 19.8612 8.44966C19.8612 8.44966 19.952 8.56275 19.8253 8.65196L19.7341 8.66121L19.6444 8.61512L19.5442 8.647C19.5442 8.647 19.57 8.75966 19.4567 8.8765L19.4567 8.87641Z" fill="#D40000" stroke="black" stroke-width="0.532" stroke-linejoin="round"/>
<path d="M18.4143 8.75834C18.4143 8.75834 18.4109 8.78846 18.384 8.7918C18.384 8.7918 18.356 8.80188 18.3396 8.76305C18.3396 8.76305 18.3378 8.75421 18.3373 8.74992C18.3354 8.73175 18.3298 8.6795 18.3807 8.63684C18.3807 8.63684 18.4637 8.56142 18.6222 8.65275C18.6222 8.65275 18.7478 8.71975 18.8345 8.77671C18.8345 8.77671 19.0587 8.9108 19.0857 8.92088C19.0857 8.92088 19.1844 8.97613 19.3354 8.98284C19.3354 8.98284 19.5417 8.99959 19.6292 8.83875C19.6292 8.83875 19.6957 8.71642 19.6292 8.6385C19.6292 8.6385 19.6023 8.60334 19.558 8.60975C19.5395 8.61255 19.5189 8.62205 19.4992 8.64767C19.4992 8.64767 19.467 8.69967 19.5043 8.73821C19.5043 8.73821 19.5529 8.7713 19.5701 8.70138C19.5701 8.70138 19.5709 8.69638 19.5724 8.70263C19.5733 8.70667 19.5843 8.76 19.5585 8.80521C19.5585 8.80521 19.434 9.01455 19.0916 8.79763L18.64 8.51621C18.64 8.51621 18.4135 8.38717 18.2782 8.58905C18.2782 8.58905 18.169 8.75655 18.3096 8.86634C18.3096 8.86634 18.4142 8.93584 18.48 8.8253C18.48 8.8253 18.5347 8.71638 18.4487 8.66863C18.4487 8.66863 18.3732 8.6293 18.3433 8.71305C18.3134 8.7968 18.4016 8.81859 18.4098 8.75913C18.4098 8.75913 18.412 8.74484 18.4143 8.7583V8.75834Z" fill="#F5CE00" stroke="black" stroke-width="0.532" stroke-miterlimit="2.613"/>
<path d="M16.6245 9.62279V9.30862C16.6245 9.28396 16.6246 9.26341 16.6582 9.23321C16.6919 9.20308 16.7278 9.15529 16.7793 9.29112C16.7793 9.29112 16.8803 9.17296 16.914 9.15537C16.914 9.15537 16.9722 9.10004 17.0126 9.18046C17.0126 9.18046 17.0664 9.08996 17.109 9.06733C17.109 9.06733 17.21 8.99441 17.2144 9.21316L17.293 9.13266C17.293 9.13266 17.3535 9.07741 17.4208 9.15279C17.4208 9.15279 17.5352 9.27591 17.5509 9.31112C17.5509 9.31112 17.5761 9.34921 17.5781 9.40933C17.5781 9.40933 17.5778 9.47696 17.6092 9.51466C17.6092 9.51466 17.6451 9.54983 17.6798 9.55737C17.6798 9.55737 17.7617 9.55987 17.7908 9.64529C17.7908 9.64529 17.8043 9.6305 17.8447 10.04V10.7863L17.3916 11.387L16.6649 11.1557L16.3756 11.0225L16.3105 10.7864L16.5909 10.5853L16.7434 10.1279L16.6941 9.80625L16.6245 9.62279Z" fill="#E4CB5E" stroke="black" stroke-width="0.399" stroke-miterlimit="2.613"/>
<path d="M18.6265 10.019L18.6609 9.96202L18.7431 9.8916C18.7431 9.8916 18.8687 10.2579 18.8747 10.3378V10.4514C18.8747 10.4514 19.0631 10.5049 19.096 10.8265L18.9405 11.1449L18.6967 10.994L18.6265 10.9371V10.0189L18.6265 10.019Z" fill="#784421" stroke="black" stroke-width="0.399"/>
<path d="M16.3183 12.5328C16.3183 12.5328 16.3273 12.5196 16.3211 12.514C16.3211 12.514 16.3172 12.5077 16.3066 12.5227C16.3066 12.5227 16.2571 12.5843 16.2965 12.6789C16.2965 12.6789 16.301 12.6924 16.3088 12.688C16.3088 12.688 16.3156 12.6842 16.3094 12.673C16.3094 12.673 16.2741 12.5951 16.3184 12.5329L16.3183 12.5328Z" fill="white"/>
<path d="M17.0532 12.4712C17.0532 12.4712 17.0606 12.4428 17.0427 12.4126C17.0427 12.4126 17.0307 12.3908 17.0352 12.3623" stroke="black" stroke-width="0.532" stroke-miterlimit="10"/>
<path d="M17.2144 9.21289C17.2144 9.21289 17.215 9.29143 17.2352 9.34927C17.2554 9.40702 17.3236 9.50697 17.328 9.56102" stroke="black" stroke-width="0.399" stroke-miterlimit="10"/>
<path d="M18.9234 11.9395C18.9234 11.9395 19.0377 11.947 19.096 11.9797C19.1544 12.0124 19.1992 12.0475 19.2665 12.0953C19.2665 12.0953 19.2979 12.1418 19.4302 12.1135C19.4302 12.1135 19.659 12.0526 19.659 12.2511C19.659 12.2511 19.9327 12.2762 19.8205 12.5426C19.8205 12.5426 19.7443 12.7512 19.5872 12.603C19.5872 12.603 19.6882 12.7638 19.4931 12.8267C19.4931 12.8267 19.354 12.8644 19.3137 12.706C19.3137 12.706 19.2912 12.6432 19.345 12.5653C19.345 12.5653 19.2777 12.5502 19.2307 12.4698C19.2307 12.4698 19.3741 12.6714 19.2172 12.744C19.2172 12.744 19.0198 12.799 19.0086 12.5703C19.0086 12.5703 19.0247 12.4647 18.9482 12.427C18.9482 12.427 18.791 12.3868 18.7192 12.192C18.7192 12.192 18.9453 12.0583 18.9234 11.9395V11.9395Z" fill="#D40000" stroke="black" stroke-width="0.532" stroke-linejoin="round"/>
<path d="M17.124 9.56072L17.3107 11.2349M17.1671 9.55705L17.3765 11.1176M17.2064 9.5498L17.4475 11.0975" stroke="black" stroke-width="0.399" stroke-miterlimit="10"/>
<path d="M17.5881 10.9646L17.6549 10.9394L17.2177 9.26172L17.2017 9.26651L17.5881 10.9646Z" fill="#784421" stroke="black" stroke-width="0.399"/>
<path d="M17.3401 9.48828L17.7816 10.7279M17.3105 9.50832L17.7367 10.8033" stroke="black" stroke-width="0.399" stroke-miterlimit="10"/>
<path d="M16.6112 12.8563C16.6112 12.8563 16.56 12.8017 16.5671 12.7038C16.5671 12.7038 16.5701 12.683 16.5608 12.68C16.5608 12.68 16.5507 12.6754 16.5493 12.6996C16.5493 12.6996 16.535 12.8019 16.5971 12.8605C16.5971 12.8605 16.6012 12.8664 16.6081 12.8646C16.6081 12.8646 16.6155 12.8629 16.6112 12.8563Z" fill="white"/>
<path d="M17.3603 9.47168L17.8156 10.6025M17.2358 9.54193L17.5151 11.0648" stroke="black" stroke-width="0.399" stroke-miterlimit="10"/>
<path d="M19.5198 10.6706C19.3203 10.5449 19.2766 10.2659 19.2766 10.2659C19.2283 9.98822 19.3259 9.76835 19.3259 9.76835C19.4549 9.46551 19.6759 9.40918 19.6759 9.40918C19.6759 9.40918 19.4594 9.57605 19.3989 9.80101C19.3989 9.80101 19.3518 9.99068 19.3787 10.1779C19.4056 10.3651 19.3955 10.3174 19.437 10.4619L19.5198 10.6706Z" fill="#F5CE00" stroke="black" stroke-width="0.532" stroke-miterlimit="2.613"/>
<path d="M18.661 9.962L17.823 10.256L17.7772 10.6707C17.5784 10.9908 17.1743 11.0476 17.1743 11.0476L17.4887 11.4196L18.0928 11.5603L18.4098 11.2889L18.6969 10.994C18.667 10.8365 18.6834 10.6028 18.6834 10.6028C18.6834 10.5634 18.6969 10.4712 18.6969 10.4712C18.6969 10.4712 18.6475 10.0926 18.661 9.96191V9.962Z" fill="#784421" stroke="black" stroke-width="0.243"/>
<path d="M17.7889 10.566C17.7889 10.566 18.3408 10.3745 18.6699 10.2207M17.5239 10.9156C17.5239 10.9156 18.2125 10.7772 18.6969 10.4707L18.8749 10.3372" stroke="black" stroke-width="0.399" stroke-miterlimit="10"/>
<path d="M18.875 10.4512L18.6835 10.6026C18.6835 10.6026 17.9135 10.9972 17.3271 11.0077M18.6833 10.883C18.6833 10.883 18.0914 11.2216 17.752 11.2267" stroke="black" stroke-width="0.399" stroke-miterlimit="10"/>
<path d="M19.3892 9.93466C19.3892 9.93466 19.5657 9.84437 19.6494 9.93466C19.6494 9.93466 19.766 9.85441 19.8887 9.93466C19.8887 9.93466 20.0053 10.0194 20.086 10.1126C20.086 10.1126 20.1428 10.1667 20.1219 10.3371C20.1219 10.3371 20.092 10.4572 20.1099 10.5175C20.1099 10.5175 20.1488 10.509 20.2266 10.6114C20.2266 10.6114 20.3252 10.7384 20.412 10.6263C20.412 10.6263 20.385 10.7823 20.2221 10.7571C20.2221 10.7571 20.3013 10.8259 20.2326 11.0035C20.2326 11.0035 20.1817 11.1291 20.2625 11.2866C20.2625 11.2866 20.1203 11.223 20.1263 11.037C20.1263 11.037 20.1383 10.9113 20.0965 10.8225C20.0965 10.8225 20.1383 10.9032 20.0412 11.0755C20.0412 11.0755 19.9664 11.1995 20.0277 11.3284C20.0277 11.3284 19.8872 11.2715 19.9006 11.0822C19.9141 10.8928 19.9993 10.9716 19.944 10.7973C19.944 10.7973 19.9305 10.8865 19.8887 10.9316C19.8468 10.9766 19.793 11.052 19.8154 11.1777C19.8154 11.1777 19.7316 11.062 19.7511 10.9431C19.7705 10.8241 19.7915 10.7882 19.7915 10.7882L19.5268 10.6214L19.3952 10.3567L19.3892 9.93462L19.3892 9.93466Z" fill="#D40000" stroke="black" stroke-width="0.532" stroke-linejoin="round"/>
<path d="M16.3912 10.9948C16.3912 10.9948 16.4158 10.8649 16.528 10.916C16.528 10.916 16.5661 10.7032 16.7702 10.6956C16.9743 10.6881 16.9855 10.9169 16.9855 10.9319C16.9855 10.9319 17.0455 10.8338 17.1456 10.8451C17.1456 10.8451 17.3182 10.8339 17.2539 11.1417L17.2865 11.1803C17.2865 11.1803 17.4184 10.8364 17.6897 10.9269C17.6897 10.9269 17.9544 11.0165 17.7817 11.3013C17.7817 11.3013 17.9123 11.4898 18.023 11.4722C18.1338 11.4547 18.2325 11.417 18.3424 11.2008C18.4523 10.9847 18.708 10.952 18.773 10.9645C18.8381 10.9771 18.8894 11.024 18.9001 11.0752C18.9001 11.0752 19.0354 10.5731 19.5222 10.652L19.7173 10.761L19.7913 10.7986L19.681 11.1446L19.4121 11.8196L19.2081 11.8894L18.9951 11.7537L18.9211 11.7978L18.9151 11.9999L18.634 12.2247L18.4388 12.314L18.2235 12.4774L18.1734 12.6235C18.1734 12.6235 18.0545 12.5678 17.9203 12.6235L17.8759 12.5026L17.7503 12.3694L17.2624 12.1136L17.1743 11.7978L17.0852 11.7536L16.9854 11.8805L16.8397 11.8994L16.6221 11.7361L16.3911 10.9947L16.3912 10.9948Z" fill="white" stroke="#00247D" stroke-width="0.532" stroke-miterlimit="10"/>
<path d="M18.5161 8.53619C18.5161 8.53619 18.3299 8.52702 18.3366 8.74148" stroke="black" stroke-width="0.532" stroke-miterlimit="2.613"/>
<path d="M19.7408 10.8147C19.4167 10.7041 19.3281 10.3171 19.3281 10.3171C19.2619 10.0268 19.3685 9.77306 19.3685 9.77306C19.5165 9.38681 19.767 9.38681 19.767 9.38681C19.8926 9.38306 19.9076 9.50247 19.9076 9.50247C19.9195 9.58706 19.8661 9.61764 19.8661 9.61764C19.7801 9.6696 19.7259 9.59922 19.7259 9.59922C19.69 9.54726 19.7176 9.50122 19.7176 9.50122C19.7397 9.46685 19.782 9.48193 19.782 9.48193C19.8154 9.49339 19.8118 9.53985 19.8118 9.53985C19.812 9.5411 19.8128 9.5411 19.8128 9.5411C19.8143 9.54068 19.8137 9.5401 19.8137 9.5401C19.8137 9.5401 19.8212 9.48314 19.7711 9.47726C19.7711 9.47726 19.6736 9.45381 19.5592 9.61214C19.5592 9.61214 19.4085 9.82576 19.4088 10.1022C19.4088 10.1022 19.3898 10.6212 19.8765 10.7556C19.8765 10.7556 19.8238 10.8398 19.7308 11.1438C19.7308 11.1438 19.6254 11.5347 19.5247 11.7459C19.5247 11.7459 19.3909 12.0473 19.0926 11.9242C19.0926 11.9242 18.9151 11.8375 18.9155 11.6942C18.9155 11.6942 18.9031 11.5635 19.0097 11.5535C19.0097 11.5535 19.114 11.5447 19.1128 11.6439C19.1128 11.6439 19.1157 11.7514 19.0018 11.7269C19.0018 11.7269 18.9621 11.7175 18.9693 11.6741C18.9693 11.6741 18.9757 11.6351 19.0237 11.6521C19.0237 11.6521 19.0252 11.6523 19.0254 11.6515C19.0254 11.6515 19.0259 11.6506 19.0243 11.65C19.0243 11.65 19.0057 11.6408 18.986 11.6483C18.986 11.6483 18.9685 11.6549 18.967 11.6854C18.967 11.6854 18.9659 11.7099 18.9895 11.7238C18.9895 11.7238 19.0182 11.735 19.0405 11.7325C19.0405 11.7325 19.0707 11.8002 19.139 11.8231C19.234 11.855 19.3122 11.8242 19.3602 11.7818C19.4123 11.7356 19.446 11.6548 19.456 11.6351C19.4662 11.6153 19.5536 11.3976 19.6194 11.1634C19.6194 11.1634 19.677 10.9616 19.7229 10.856L19.7409 10.8146L19.7408 10.8147Z" fill="#F5CE00" stroke="black" stroke-width="0.532" stroke-miterlimit="2.613"/>
<path d="M18.8265 11.7986C18.8265 11.7986 18.887 11.7895 18.887 11.8495C18.887 11.8495 18.8833 11.9371 18.7873 11.918C18.7873 11.918 18.6925 11.8949 18.7261 11.7772C18.7261 11.7772 18.7485 11.6943 18.8383 11.7063C18.8383 11.7063 18.9251 11.7106 18.9633 11.8426C18.9633 11.8426 18.9924 11.9538 18.9425 12.0493C18.8868 12.1558 18.7459 12.2258 18.6779 12.2568C18.6779 12.2568 18.4054 12.3758 18.3241 12.4438C18.3241 12.4438 18.1994 12.5467 18.2546 12.6424C18.2546 12.6424 18.2759 12.6788 18.3079 12.6788C18.3079 12.6788 18.3443 12.6807 18.3505 12.6393C18.3505 12.6393 18.3507 12.6384 18.3501 12.6374C18.3501 12.6374 18.3496 12.6374 18.3494 12.6384C18.3494 12.6384 18.3467 12.6638 18.3269 12.6732C18.3269 12.6732 18.3004 12.688 18.2726 12.6618C18.2726 12.6618 18.243 12.6304 18.2677 12.5816C18.2677 12.5816 18.3 12.5215 18.3753 12.557C18.3753 12.557 18.4417 12.5935 18.4144 12.6719C18.4144 12.6719 18.3901 12.744 18.3101 12.7437C18.3101 12.7437 18.2498 12.7415 18.2113 12.6966C18.1512 12.6266 18.148 12.4902 18.2009 12.4197C18.2009 12.4197 18.251 12.3447 18.3516 12.299C18.4098 12.2726 18.5198 12.2195 18.6342 12.1696C18.7146 12.1346 18.7882 12.0926 18.836 12.0297C18.836 12.0297 18.8787 11.977 18.891 11.8865C18.891 11.8865 18.9028 11.8186 18.8655 11.8038C18.8655 11.8038 18.8467 11.7943 18.8259 11.7975C18.8259 11.7975 18.8254 11.7975 18.8252 11.7979C18.8252 11.7979 18.8243 11.7989 18.8264 11.7985L18.8265 11.7986Z" fill="#F5CE00" stroke="black" stroke-width="0.532" stroke-miterlimit="2.613"/>
<path d="M18.8315 11.7986C18.8315 11.7986 18.8984 11.7851 18.9403 11.8736C18.9403 11.8736 18.965 11.9305 18.9689 11.9635M18.9908 11.6475C18.9908 11.6475 18.9238 11.6604 18.9583 11.7657C18.9908 11.865 19.0512 11.8976 19.0691 11.9114" stroke="black" stroke-width="0.532" stroke-miterlimit="2.613"/>
<path d="M17.6797 8.75826C17.6797 8.75826 17.683 8.78843 17.7099 8.79181C17.7099 8.79181 17.738 8.80181 17.7544 8.76306C17.7544 8.76306 17.7562 8.75418 17.7567 8.74989C17.7586 8.73172 17.7642 8.67947 17.7133 8.63681C17.7133 8.63681 17.6303 8.56139 17.4718 8.65272C17.4718 8.65272 17.3462 8.71972 17.2595 8.77672C17.2595 8.77672 17.0352 8.91076 17.0083 8.92081C17.0083 8.92081 16.9096 8.9761 16.7585 8.98281C16.7585 8.98281 16.5522 8.99956 16.4648 8.83876C16.4648 8.83876 16.3983 8.71639 16.4648 8.63847C16.4648 8.63847 16.4918 8.60331 16.536 8.60981C16.5545 8.61251 16.575 8.62201 16.5949 8.64772C16.5949 8.64772 16.627 8.69968 16.5896 8.73814C16.5896 8.73814 16.541 8.77131 16.5239 8.70135C16.5239 8.70135 16.5231 8.69635 16.5216 8.7026C16.5206 8.70664 16.5096 8.75997 16.5355 8.80522C16.5355 8.80522 16.6599 9.01451 17.0024 8.7976L17.4539 8.51618C17.4539 8.51618 17.6804 8.38718 17.8157 8.5891C17.8157 8.5891 17.9249 8.7566 17.7844 8.86635C17.7844 8.86635 17.6797 8.93593 17.6139 8.82531C17.6139 8.82531 17.5593 8.71639 17.6453 8.66864C17.6453 8.66864 17.7208 8.62931 17.7507 8.7131C17.7806 8.79685 17.6924 8.81864 17.6842 8.75914C17.6842 8.75914 17.6819 8.74485 17.6797 8.75822L17.6797 8.75826ZM16.5741 10.67C16.7736 10.5443 16.8173 10.2653 16.8173 10.2653C16.8655 9.9876 16.768 9.76772 16.768 9.76772C16.639 9.46489 16.418 9.40856 16.418 9.40856C16.418 9.40856 16.6345 9.57543 16.6951 9.80039C16.6951 9.80039 16.7422 9.99006 16.7152 10.1773C16.6882 10.3645 16.6984 10.3168 16.6569 10.4613L16.5741 10.67Z" fill="#F5CE00" stroke="black" stroke-width="0.532" stroke-miterlimit="2.613"/>
<path d="M17.5781 8.53619C17.5781 8.53619 17.7644 8.52702 17.7576 8.74148" stroke="black" stroke-width="0.532" stroke-miterlimit="2.613"/>
<path d="M16.3531 10.8147C16.6772 10.7041 16.7658 10.3171 16.7658 10.3171C16.8319 10.0268 16.7254 9.77306 16.7254 9.77306C16.5774 9.38681 16.3269 9.38681 16.3269 9.38681C16.2013 9.38306 16.1863 9.50247 16.1863 9.50247C16.1744 9.58706 16.2278 9.61764 16.2278 9.61764C16.3138 9.6696 16.368 9.59922 16.368 9.59922C16.4039 9.54726 16.3763 9.50122 16.3763 9.50122C16.3541 9.46685 16.312 9.48193 16.312 9.48193C16.2785 9.49339 16.2821 9.53985 16.2821 9.53985C16.2819 9.5411 16.2811 9.5411 16.2811 9.5411C16.2796 9.54068 16.2802 9.5401 16.2802 9.5401C16.2802 9.5401 16.2727 9.48314 16.3228 9.47726C16.3228 9.47726 16.4204 9.45381 16.5348 9.61214C16.5348 9.61214 16.6854 9.82576 16.685 10.1022C16.685 10.1022 16.7042 10.6212 16.2174 10.7556C16.2174 10.7556 16.2701 10.8398 16.3632 11.1438C16.3632 11.1438 16.4686 11.5347 16.5692 11.7459C16.5692 11.7459 16.703 12.0473 17.0013 11.9242C17.0013 11.9242 17.179 11.8375 17.1785 11.6942C17.1785 11.6942 17.1908 11.5635 17.0843 11.5535C17.0843 11.5535 16.98 11.5447 16.9811 11.6439C16.9811 11.6439 16.9783 11.7514 17.0921 11.7269C17.0921 11.7269 17.132 11.7175 17.1247 11.6741C17.1247 11.6741 17.1183 11.6351 17.0703 11.6521C17.0703 11.6521 17.0688 11.6523 17.0686 11.6515C17.0686 11.6515 17.068 11.6506 17.0698 11.65C17.0698 11.65 17.0883 11.6408 17.1079 11.6483C17.1079 11.6483 17.1256 11.6549 17.1269 11.6854C17.1269 11.6854 17.128 11.7099 17.1045 11.7238C17.1045 11.7238 17.0759 11.735 17.0535 11.7325C17.0535 11.7325 17.0233 11.8002 16.955 11.8231C16.8601 11.855 16.7818 11.8242 16.7339 11.7818C16.6817 11.7356 16.6481 11.6548 16.638 11.6351C16.6279 11.6153 16.5405 11.3976 16.4747 11.1634C16.4747 11.1634 16.4171 10.9616 16.3712 10.856L16.3532 10.8146L16.3531 10.8147Z" fill="#F5CE00" stroke="black" stroke-width="0.532" stroke-miterlimit="2.613"/>
<path d="M17.2673 11.7986C17.2673 11.7986 17.2068 11.7895 17.2068 11.8495C17.2068 11.8495 17.2105 11.9371 17.3066 11.918C17.3066 11.918 17.4014 11.8949 17.3677 11.7772C17.3677 11.7772 17.3453 11.6943 17.2556 11.7063C17.2556 11.7063 17.1687 11.7106 17.1305 11.8426C17.1305 11.8426 17.1014 11.9538 17.1513 12.0493C17.207 12.1558 17.3479 12.2258 17.4159 12.2568C17.4159 12.2568 17.6884 12.3758 17.7697 12.4438C17.7697 12.4438 17.8944 12.5467 17.8393 12.6424C17.8393 12.6424 17.8179 12.6788 17.7859 12.6788C17.7859 12.6788 17.7495 12.6807 17.7433 12.6393C17.7433 12.6393 17.7431 12.6384 17.7437 12.6374C17.7437 12.6374 17.7443 12.6374 17.7445 12.6384C17.7445 12.6384 17.7471 12.6638 17.7669 12.6732C17.7669 12.6732 17.7934 12.688 17.8213 12.6618C17.8213 12.6618 17.8508 12.6304 17.8261 12.5816C17.8261 12.5816 17.7938 12.5215 17.7184 12.557C17.7184 12.557 17.6521 12.5935 17.6794 12.6719C17.6794 12.6719 17.7037 12.744 17.7837 12.7437C17.7837 12.7437 17.8439 12.7415 17.8825 12.6966C17.9426 12.6266 17.9458 12.4902 17.8928 12.4197C17.8928 12.4197 17.8427 12.3447 17.7421 12.299C17.6839 12.2726 17.5739 12.2195 17.4595 12.1696C17.3791 12.1346 17.3055 12.0926 17.2577 12.0297C17.2577 12.0297 17.2151 11.977 17.2027 11.8865C17.2027 11.8865 17.191 11.8186 17.2282 11.8038C17.2282 11.8038 17.247 11.7943 17.2678 11.7975C17.2678 11.7975 17.2684 11.7975 17.2685 11.7979C17.2685 11.7979 17.2694 11.7989 17.2673 11.7985L17.2673 11.7986Z" fill="#F5CE00" stroke="black" stroke-width="0.532" stroke-miterlimit="2.613"/>
<path d="M17.2625 11.7988C17.2625 11.7988 17.1956 11.7853 17.1538 11.8738C17.1538 11.8738 17.129 11.9307 17.1251 11.9637M17.1033 11.6476C17.1033 11.6476 17.1703 11.6605 17.1358 11.7659C17.1032 11.8652 17.0429 11.8977 17.0249 11.9115M17.885 8.73029C17.885 8.73029 18.047 8.61758 18.2125 8.74237" stroke="black" stroke-width="0.532" stroke-miterlimit="2.613"/>
<path d="M16.9632 9.83056C16.9632 9.83056 16.9857 9.73006 16.8825 9.5541C16.8825 9.5541 16.8152 9.39327 16.7793 9.29027M17.0126 9.17969C17.0126 9.17969 17.071 9.33777 17.0911 9.40856C17.0911 9.40856 17.1635 9.6069 17.1789 9.6471" stroke="black" stroke-width="0.399" stroke-miterlimit="2.613"/>
<path d="M17.0415 9.94193C17.0415 9.94193 17.1024 10.0148 17.0955 10.1379M16.8396 9.86402C16.8396 9.86402 16.907 9.90006 16.9025 10.0986C16.9025 10.0986 16.8958 10.2435 16.9967 10.3164M16.8306 10.3675C16.8306 10.3675 17.0412 10.3419 17.0528 10.486C17.0528 10.486 17.0573 10.6242 17.129 10.6393C17.129 10.6393 17.2365 10.6506 17.2578 10.7612M16.8969 10.5275C16.8969 10.5275 16.9339 10.5891 16.9698 10.6154M17.1671 10.3754C17.1671 10.3754 17.2206 10.4655 17.2307 10.5183M17.3989 9.29102C17.3989 9.29102 17.4483 9.3656 17.4961 9.40077M17.5963 9.73247C17.5963 9.73247 17.7009 9.78947 17.683 10.0827C17.683 10.0827 17.6695 10.2546 17.7129 10.3485" stroke="black" stroke-width="0.399" stroke-miterlimit="10"/>
<path d="M17.1036 9.53335L17.1102 9.56097C17.1102 9.56097 17.2979 9.56972 17.3992 9.42776L17.3883 9.40051C17.3883 9.40051 17.2246 9.39126 17.1035 9.53326L17.1036 9.53335Z" fill="#784421" stroke="black" stroke-width="0.399"/>
<path d="M17.7793 10.6519C17.7793 10.6519 18.4283 10.4369 18.6784 10.3115" stroke="black" stroke-width="0.399" stroke-miterlimit="10"/>
<path d="M17.7097 9.32148L17.7021 9.29782L18.0231 9.16211L18.0307 9.18594L17.7097 9.32148Z" fill="#784421" stroke="black" stroke-width="0.243"/>
<path d="M17.7368 9.30989L17.9499 10.4705M17.7738 9.29431L18.0179 10.4496M17.8153 9.27677L18.0822 10.4236M17.92 9.2326L18.2838 10.0934M17.9681 9.21231L18.3561 10.0681M18.0037 9.19727L18.4234 10.0445M17.9355 10.4797L18.1002 10.4194M17.8108 10.3649C17.8108 10.3649 18.2935 10.2082 18.6589 10.0445M17.8043 10.4236C17.8043 10.4236 18.4161 10.2438 18.6589 10.1125M17.991 10.9765L18.0231 11.0854L18.1107 11.0543L18.0807 10.9463M18.2381 10.8983L18.2702 11.0071L18.3578 10.976L18.3279 10.8681M17.8229 10.2552L17.8153 10.1078L18.6175 9.83718L18.6609 9.96114M18.1555 9.9931L18.1992 10.1232M18.436 9.89847L18.487 10.0222M18.5025 9.87606L18.5502 9.99314M18.566 9.85456L18.6162 9.97689" stroke="black" stroke-width="0.399" stroke-miterlimit="10"/>
<path d="M18.6177 9.83752L18.7059 9.78223L18.7433 9.8911M18.6611 9.81035L18.706 9.92306" stroke="black" stroke-width="0.399" stroke-miterlimit="10"/>
<path d="M16.6718 11.5074C16.6718 11.5074 16.5148 11.3307 16.6718 11.1577C16.6718 11.1577 16.5014 11.0651 16.5283 10.916M16.9522 11.6473C16.9522 11.6473 16.7896 11.6719 16.8378 11.3202C16.8378 11.3202 16.7705 11.4596 16.7473 11.5313C16.7299 11.585 16.7414 11.6716 16.8102 11.7184C16.8377 11.7371 16.9835 11.7793 17.0306 11.672M16.7705 11.1091C16.7705 11.1091 16.7043 11.177 16.7514 11.3013M16.8389 11.1254C16.8389 11.1254 16.8467 11.246 16.9006 11.3139M16.8854 11.0777C16.8854 11.0777 16.8849 11.2196 16.9769 11.3076M16.9311 11.0286C16.9311 11.0286 16.932 11.1882 17.0385 11.2863M17.4602 11.2623C17.4602 11.2623 17.514 11.1316 17.6273 11.138C17.6273 11.138 17.5723 11.1656 17.5734 11.2267C17.5734 11.2267 17.5667 11.3277 17.6642 11.3377C17.6642 11.3377 17.7428 11.3491 17.7819 11.3013" stroke="#00247D" stroke-width="0.532" stroke-miterlimit="10"/>
<path d="M17.728 11.8592C17.728 11.8592 17.4488 11.7135 17.4779 11.5037C17.4779 11.5037 17.4891 11.3755 17.6019 11.3152M17.543 11.4483C17.543 11.4483 17.5183 11.5388 17.5733 11.6017M17.6058 11.3868C17.6058 11.3868 17.5721 11.486 17.6282 11.5602M17.673 11.3385C17.673 11.3385 17.6327 11.4207 17.6809 11.4948M17.4185 11.8806C17.4185 11.8806 17.571 12.0276 17.6899 12.0289M17.3703 11.9271C17.3703 11.9271 17.5128 12.0552 17.6019 12.0742M17.3164 11.9634C17.3164 11.9634 17.4927 12.1357 17.6019 12.1482M18.033 12.3066C18.033 12.3066 17.8599 12.4103 17.9941 12.5199M17.9232 12.1923C17.9232 12.1923 18.1194 12.0779 18.2046 12.0352M17.9938 12.2513C17.9938 12.2513 18.2775 12.059 18.3616 12.0176M18.1395 12.2639C18.1395 12.2639 18.3818 12.0842 18.5119 12.0063M18.2999 12.2576C18.2999 12.2576 18.467 12.1118 18.6285 12.0063M18.6857 11.8241C18.6857 11.8241 18.6039 11.6909 18.3347 11.8241C18.3347 11.8241 18.4333 11.7246 18.6285 11.6474M18.9002 11.0752C18.9002 11.0752 18.9223 11.1832 18.8987 11.2485" stroke="#00247D" stroke-width="0.532" stroke-miterlimit="10"/>
<path d="M18.4638 11.5989C18.4638 11.5989 18.5199 11.5071 18.6623 11.4619C18.6623 11.4619 18.7007 11.5687 18.8115 11.5448C18.8115 11.5448 18.9786 11.5084 18.9281 11.3048C18.9281 11.3048 18.8934 11.1527 18.7025 11.1377M19.2702 10.8828C19.2702 10.8828 19.4641 10.9216 19.4608 11.0975C19.4608 11.0975 19.4765 11.3614 19.2264 11.4129M19.4332 10.9911C19.4332 10.9911 19.4865 10.8625 19.6054 10.8097M19.461 10.7344C19.461 10.7344 19.5139 10.8287 19.5502 10.8425M19.4332 10.8097C19.4332 10.8097 19.4832 10.8775 19.5 10.8889M19.417 10.8751C19.417 10.8751 19.4433 10.9182 19.4667 10.9318M18.4189 9.8549C18.4189 9.8549 18.4567 9.78686 18.5506 9.81573M18.9337 10.3652C18.9337 10.3652 18.9931 10.0897 19.2006 10.1915M19.1165 10.1689C19.1165 10.1689 19.1379 10.0419 19.0862 9.97727M18.9752 10.1601C18.9752 10.1601 19.0016 10.2126 18.979 10.2555" stroke="#00247D" stroke-width="0.532" stroke-miterlimit="10"/>
<path d="M19.3965 12.975C19.3965 12.975 19.6297 12.8569 19.558 12.6559C19.558 12.6559 19.5358 12.588 19.4841 12.593C19.4841 12.593 19.3942 12.598 19.4122 12.7312C19.4122 12.7312 19.4392 12.8619 19.3965 12.975L19.3965 12.975Z" fill="#64B4D1" stroke="#00247D" stroke-width="0.399" stroke-miterlimit="2.613"/>
<path d="M19.4813 12.8563C19.4813 12.8563 19.5326 12.8017 19.5254 12.7038C19.5254 12.7038 19.5224 12.683 19.5318 12.6801C19.5318 12.6801 19.5418 12.6753 19.5433 12.6996C19.5433 12.6996 19.5576 12.8018 19.4955 12.8605C19.4955 12.8605 19.4913 12.8663 19.4844 12.8646C19.4844 12.8646 19.477 12.8629 19.4813 12.8563Z" fill="white"/>
<path d="M19.7286 12.7935C19.7286 12.7935 19.8924 12.6792 19.8037 12.4869C19.8037 12.4869 19.7779 12.4316 19.7286 12.4429C19.7286 12.4429 19.6266 12.4781 19.7061 12.6352C19.7061 12.6352 19.7466 12.737 19.7286 12.7936V12.7935Z" fill="#64B4D1" stroke="#00247D" stroke-width="0.399" stroke-miterlimit="2.613"/>
<path d="M19.7696 12.5328C19.7696 12.5328 19.7606 12.5197 19.7668 12.514C19.7668 12.514 19.7708 12.5077 19.7814 12.5227C19.7814 12.5227 19.8309 12.5843 19.7915 12.6789C19.7915 12.6789 19.787 12.6924 19.7792 12.6881C19.7792 12.6881 19.7724 12.6842 19.7786 12.6729C19.7786 12.6729 19.814 12.595 19.7696 12.5328V12.5328Z" fill="white"/>
<path d="M19.2387 12.9247C19.2387 12.9247 19.056 12.8732 19.0896 12.6633C19.0896 12.6633 19.1076 12.5717 19.1849 12.5842C19.1849 12.5842 19.2782 12.6106 19.2174 12.744C19.2174 12.744 19.1816 12.8393 19.2387 12.9247V12.9247Z" fill="#64B4D1" stroke="#00247D" stroke-width="0.399" stroke-miterlimit="2.613"/>
<path d="M19.168 12.6742C19.168 12.6742 19.1613 12.6642 19.1692 12.6597C19.1692 12.6597 19.177 12.656 19.1827 12.6682C19.1827 12.6682 19.2017 12.7018 19.1855 12.7479C19.1855 12.7479 19.1703 12.7798 19.1777 12.8131C19.1777 12.8131 19.1788 12.8225 19.172 12.8238C19.172 12.8238 19.1655 12.8213 19.1642 12.8144C19.1642 12.8144 19.1551 12.7819 19.1708 12.7501C19.1708 12.7501 19.1899 12.7006 19.168 12.6742L19.168 12.6742Z" fill="white"/>
<path d="M19.3695 12.5275C19.3695 12.5275 19.4726 12.4631 19.5579 12.5385C19.5579 12.5385 19.5492 12.4966 19.484 12.4782C19.484 12.4782 19.4488 12.3676 19.3501 12.3776C19.3501 12.3776 19.3905 12.4312 19.4443 12.4765C19.4443 12.4765 19.3875 12.483 19.3696 12.5275L19.3695 12.5275ZM19.4458 12.2246C19.4458 12.2246 19.5159 12.2821 19.5444 12.3207C19.5444 12.3207 19.5729 12.2813 19.6103 12.2574C19.6103 12.2574 19.5672 12.2512 19.5444 12.2726C19.5444 12.2726 19.5086 12.2341 19.4458 12.2246Z" fill="black"/>
<path d="M19.0391 12.4711C19.0391 12.4711 19.0316 12.4426 19.0496 12.4125C19.0496 12.4125 19.0616 12.3907 19.0571 12.3622M19.7912 10.6818C19.7912 10.6818 19.9004 10.6734 19.9183 10.5795M20.1097 10.5176C20.1097 10.5176 20.0717 10.5159 20.0374 10.5544C20.0374 10.5544 20.0111 10.598 19.9737 10.5929" stroke="black" stroke-width="0.532" stroke-miterlimit="10"/>
<path d="M19.6299 10.325C19.6299 10.325 19.6867 10.325 19.7182 10.2948C19.7182 10.2948 19.751 10.2698 19.7705 10.31C19.7705 10.31 19.8004 10.3669 19.7451 10.392C19.7451 10.392 19.6763 10.4306 19.7854 10.5077C19.7854 10.5077 19.6553 10.4557 19.7077 10.3854C19.7077 10.3854 19.7644 10.3401 19.7435 10.3234C19.7435 10.3234 19.7375 10.31 19.7151 10.3267C19.6926 10.3435 19.6478 10.3368 19.6299 10.325L19.6299 10.325Z" fill="black"/>
<path d="M19.707 8.79976C19.707 8.79976 19.7327 8.76101 19.7222 8.64455C19.7117 8.52809 19.8027 8.51472 19.8377 8.54818C19.8377 8.54818 19.8738 8.58301 19.8406 8.65684C19.8214 8.69943 19.7907 8.75464 19.7071 8.79976H19.707Z" fill="#64B4D1" stroke="#00247D" stroke-width="0.399" stroke-miterlimit="2.613"/>
<path d="M19.7416 8.713C19.7416 8.713 19.7757 8.67225 19.7594 8.58384C19.7594 8.58384 19.7593 8.57509 19.7638 8.5745C19.7638 8.5745 19.772 8.57217 19.7735 8.58088C19.7735 8.58088 19.7918 8.67521 19.7533 8.72646C19.7533 8.72646 19.7463 8.73396 19.7415 8.72646C19.7415 8.72646 19.7364 8.72104 19.7415 8.71304L19.7416 8.713Z" fill="white"/>
<path d="M19.6782 8.75688C19.6782 8.75688 19.6756 8.70992 19.6025 8.63021C19.5295 8.55042 19.5895 8.47688 19.6342 8.47754C19.6342 8.47754 19.6806 8.47838 19.6972 8.55671C19.7069 8.60213 19.715 8.66471 19.6782 8.75688H19.6782Z" fill="#64B4D1" stroke="#00247D" stroke-width="0.399" stroke-miterlimit="2.613"/>
<path d="M19.6667 8.65472C19.6667 8.65472 19.668 8.59722 19.6019 8.53722C19.6019 8.53722 19.5965 8.53022 19.5996 8.52651C19.5996 8.52651 19.6045 8.51872 19.6109 8.52476C19.6109 8.52476 19.682 8.58809 19.6838 8.65713C19.6838 8.65713 19.683 8.66838 19.6748 8.66563C19.6748 8.66563 19.6675 8.66492 19.6667 8.6548V8.65472Z" fill="white"/>
<path d="M19.5789 8.72151C19.5789 8.72151 19.5598 8.68326 19.4697 8.64776C19.3795 8.61218 19.4039 8.52468 19.4418 8.50593C19.4418 8.50593 19.4812 8.48676 19.5234 8.54538C19.5478 8.5793 19.577 8.6283 19.579 8.72155L19.5789 8.72151Z" fill="#64B4D1" stroke="#00247D" stroke-width="0.399" stroke-miterlimit="2.613"/>
<path d="M19.5395 8.65135C19.5395 8.65135 19.519 8.59865 19.4365 8.57552C19.4365 8.57552 19.429 8.57177 19.4303 8.56694C19.4303 8.56694 19.4318 8.55752 19.4399 8.55998C19.4399 8.55998 19.5283 8.5836 19.5559 8.64548C19.5559 8.64548 19.5595 8.65598 19.5511 8.65731C19.5511 8.6574 19.5442 8.66023 19.5395 8.6514L19.5395 8.65135Z" fill="white"/>
<path d="M19.6357 8.76022C19.6357 8.76022 19.5937 8.77334 19.4971 8.72159C19.4006 8.66984 19.3583 8.75993 19.3752 8.8081C19.3752 8.8081 19.3929 8.85797 19.4676 8.84922C19.5108 8.84414 19.5686 8.8316 19.6357 8.76022H19.6357Z" fill="#64B4D1" stroke="#00247D" stroke-width="0.399" stroke-miterlimit="2.613"/>
<path d="M19.4108 8.79449C19.4108 8.79449 19.4546 8.82449 19.534 8.79032C19.534 8.79032 19.5421 8.78865 19.5434 8.79344C19.5434 8.79344 19.5471 8.80211 19.5392 8.80528C19.5392 8.80528 19.4547 8.8427 19.4004 8.80986C19.4004 8.80986 19.3921 8.80349 19.3983 8.79694C19.3983 8.79694 19.4025 8.79019 19.4108 8.79444L19.4108 8.79449Z" fill="white"/>
<path d="M19.4941 8.4209C19.4941 8.4209 19.5424 8.44686 19.5312 8.50965" stroke="black" stroke-width="0.532" stroke-miterlimit="2.613"/>
<path d="M19.7075 8.42969C19.7075 8.42969 19.7264 8.49602 19.7056 8.53177" stroke="black" stroke-width="0.532" stroke-miterlimit="10"/>
<path d="M16.3806 8.79976C16.3806 8.79976 16.3549 8.76101 16.3654 8.64455C16.3759 8.52809 16.2849 8.51472 16.2499 8.54818C16.2499 8.54818 16.2137 8.58301 16.247 8.65684C16.2662 8.69943 16.2969 8.75464 16.3806 8.79976Z" fill="#64B4D1" stroke="#00247D" stroke-width="0.399" stroke-miterlimit="2.613"/>
<path d="M16.3463 8.713C16.3463 8.713 16.3122 8.67225 16.3285 8.58384C16.3285 8.58384 16.3286 8.57509 16.3241 8.5745C16.3241 8.5745 16.3159 8.57217 16.3144 8.58088C16.3144 8.58088 16.2961 8.67521 16.3346 8.72646C16.3346 8.72646 16.3416 8.73396 16.3463 8.72646C16.3463 8.72646 16.3515 8.72104 16.3463 8.71304L16.3463 8.713Z" fill="white"/>
<path d="M16.4095 8.75688C16.4095 8.75688 16.4122 8.70992 16.4852 8.63021C16.5582 8.55042 16.4982 8.47688 16.4535 8.47754C16.4535 8.47754 16.4072 8.47838 16.3905 8.55671C16.3808 8.60213 16.3727 8.66471 16.4095 8.75688Z" fill="#64B4D1" stroke="#00247D" stroke-width="0.399" stroke-miterlimit="2.613"/>
<path d="M16.4209 8.65472C16.4209 8.65472 16.4196 8.59722 16.4857 8.53722C16.4857 8.53722 16.4911 8.53022 16.488 8.52651C16.488 8.52651 16.4831 8.51872 16.4767 8.52476C16.4767 8.52476 16.4055 8.58809 16.4038 8.65713C16.4038 8.65713 16.4046 8.66838 16.4128 8.66563C16.4128 8.66563 16.42 8.66492 16.4209 8.6548V8.65472Z" fill="white"/>
<path d="M16.5088 8.72151C16.5088 8.72151 16.528 8.68326 16.6181 8.64776C16.7082 8.61218 16.6838 8.52468 16.6459 8.50593C16.6459 8.50593 16.6065 8.48676 16.5644 8.54538C16.54 8.5793 16.5107 8.6283 16.5088 8.72155L16.5088 8.72151Z" fill="#64B4D1" stroke="#00247D" stroke-width="0.399" stroke-miterlimit="2.613"/>
<path d="M16.5484 8.65135C16.5484 8.65135 16.5688 8.59865 16.6514 8.57552C16.6514 8.57552 16.6589 8.57177 16.6575 8.56694C16.6575 8.56694 16.656 8.55752 16.648 8.55998C16.648 8.55998 16.5596 8.5836 16.532 8.64548C16.532 8.64548 16.5285 8.65598 16.5369 8.65731C16.5369 8.6574 16.5437 8.66023 16.5484 8.6514L16.5484 8.65135Z" fill="white"/>
<path d="M16.4521 8.76022C16.4521 8.76022 16.4941 8.77334 16.5907 8.72159C16.6873 8.66984 16.7296 8.75993 16.7126 8.8081C16.7126 8.8081 16.695 8.85797 16.6202 8.84922C16.5771 8.84414 16.5193 8.8316 16.4521 8.76022Z" fill="#64B4D1" stroke="#00247D" stroke-width="0.399" stroke-miterlimit="2.613"/>
<path d="M16.6769 8.79449C16.6769 8.79449 16.6331 8.82449 16.5537 8.79032C16.5537 8.79032 16.5456 8.78865 16.5443 8.79344C16.5443 8.79344 16.5407 8.80211 16.5486 8.80528C16.5486 8.80528 16.6331 8.8427 16.6873 8.80986C16.6873 8.80986 16.6956 8.80349 16.6894 8.79694C16.6894 8.79694 16.6853 8.79019 16.6769 8.79444L16.6769 8.79449Z" fill="white"/>
<path d="M16.5939 8.4209C16.5939 8.4209 16.5457 8.44686 16.5569 8.50965" stroke="black" stroke-width="0.532" stroke-miterlimit="2.613"/>
<path d="M16.3804 8.42969C16.3804 8.42969 16.3615 8.49602 16.3823 8.53177" stroke="black" stroke-width="0.532" stroke-miterlimit="10"/>
<path d="M18.4737 7.82002C18.4737 7.82002 18.5042 7.91697 18.491 8.00477C18.4792 8.08331 18.4953 8.1036 18.5209 8.11914C18.543 8.13256 18.5942 8.10902 18.6004 8.04747C18.6004 8.04747 18.6609 8.17872 18.5431 8.26735C18.5431 8.26735 18.4585 8.32518 18.3868 8.24789C18.3614 8.22068 18.3503 8.14547 18.3626 8.07572C18.3626 8.07572 18.3811 7.98114 18.3502 7.88406C18.3502 7.88406 18.3985 7.94127 18.3862 8.05531C18.3862 8.05531 18.3615 8.25981 18.4977 8.24977C18.4977 8.24977 18.5919 8.24852 18.5947 8.1216C18.5947 8.1216 18.5594 8.16677 18.5157 8.15172C18.4847 8.14106 18.4562 8.10772 18.4613 8.05522C18.4666 8.00022 18.4804 7.90418 18.4737 7.81997L18.4737 7.82002ZM18.3193 8.15597C18.3193 8.15597 18.3118 8.31764 18.1787 8.35702C18.1787 8.35702 18.1975 8.32772 18.1675 8.24731C18.1675 8.24731 18.1384 8.20039 18.1406 8.12752C18.1406 8.12752 18.0982 8.16435 18.1466 8.26152C18.1758 8.32018 18.1504 8.39056 18.1414 8.39306C18.1324 8.39556 18.3611 8.35952 18.3193 8.15597ZM18.1465 7.99514C18.1465 7.99514 18.1144 7.95493 18.1122 7.86193C18.1099 7.76893 18.0942 7.74635 18.083 7.73543C18.083 7.73543 18.0994 7.81585 18.0949 7.86527C18.0904 7.91468 18.0979 7.94318 18.1039 7.96664C18.1039 7.96664 18.0314 7.97914 17.9858 7.86185C17.9422 7.74977 17.8983 7.75881 17.8767 7.75964C17.8767 7.75964 17.9019 7.76277 17.9529 7.86518C18.0038 7.96756 18.018 7.98839 18.1465 7.9951V7.99514ZM17.8072 7.75218C17.8072 7.75218 17.849 7.8636 17.8505 7.92227C17.8505 7.92227 17.7533 7.88622 17.7271 7.79239C17.7271 7.79239 17.6233 7.83177 17.6614 7.96497C17.6614 7.96497 17.5717 7.92977 17.5312 7.84847C17.5312 7.84847 17.5814 7.89035 17.6277 7.90881C17.6277 7.90881 17.6225 7.80156 17.7436 7.76131C17.7436 7.76131 17.7616 7.85739 17.8221 7.88031C17.8221 7.88031 17.8176 7.82002 17.8072 7.75214V7.75218ZM17.9671 7.56127C17.9671 7.56127 18.0008 7.61568 18.0695 7.61818C18.1024 7.61943 18.1378 7.6111 18.172 7.56122C18.172 7.56122 18.1675 7.65581 18.0695 7.65664C18.0695 7.65664 17.9671 7.66081 17.9671 7.56122V7.56127ZM17.5434 8.20835C17.5434 8.20835 17.5944 8.25985 17.6051 8.27681C17.6051 8.27681 17.641 8.31577 17.6718 8.26539C17.6718 8.26539 17.7111 8.18481 17.7593 8.18693C17.7593 8.18693 17.7251 8.21335 17.6867 8.28943C17.6867 8.28943 17.6763 8.3176 17.6477 8.32068C17.6343 8.32222 17.6175 8.32702 17.5919 8.29735C17.5919 8.29735 17.5698 8.26735 17.5435 8.20831L17.5434 8.20835ZM18.0696 7.18168C17.9672 7.18168 18.0534 7.26968 18.0534 7.26968C18.0557 7.40914 17.955 7.45206 17.8864 7.41168C17.8178 7.37127 17.8714 7.26968 17.8714 7.26968C17.8714 7.26968 17.7941 7.32618 17.8434 7.40789C17.8927 7.48956 18.0221 7.45306 18.0696 7.37768C18.117 7.4531 18.2464 7.48952 18.2957 7.40785C18.3451 7.3261 18.2677 7.2696 18.2677 7.2696C18.2677 7.2696 18.3213 7.37114 18.2527 7.4116C18.1841 7.45202 18.0834 7.4091 18.0856 7.2696C18.0856 7.2696 18.172 7.1816 18.0695 7.18168H18.0696ZM18.1316 7.03093C18.1316 7.03093 18.1675 7.09885 18.1596 7.20177C18.1596 7.20177 18.1921 7.09877 18.1316 7.03093H18.1316ZM17.8177 7.19052C17.8177 7.19052 17.8098 7.11635 17.7447 7.1101C17.7447 7.1101 17.7997 7.1541 17.8176 7.19052H17.8177ZM18.3223 7.19052C18.3223 7.19052 18.3301 7.11635 18.3952 7.1101C18.3952 7.1101 18.3402 7.1541 18.3223 7.19052ZM17.7144 7.3036C17.7144 7.3036 17.766 7.32122 17.7974 7.27847C17.7974 7.27847 17.738 7.29606 17.7144 7.3036ZM17.5474 6.84877C17.5474 6.84877 17.6074 6.84118 17.6674 6.94043C17.6674 6.94043 17.6079 6.97564 17.5933 6.99702C17.5933 6.99702 17.5933 6.96435 17.6225 6.93543C17.6225 6.93543 17.6112 6.88518 17.5474 6.84877ZM18.5521 6.84877C18.5521 6.84877 18.4921 6.84118 18.4321 6.94043C18.4321 6.94043 18.4916 6.97564 18.5062 6.99702C18.5062 6.99702 18.5062 6.96435 18.477 6.93543C18.477 6.93543 18.4882 6.88518 18.5521 6.84877ZM18.089 6.92281C18.089 6.92281 18.1428 6.93922 18.2101 6.89772C18.2101 6.89772 18.2931 6.84872 18.3458 6.89772C18.3458 6.89772 18.2998 6.87502 18.2112 6.92281C18.2112 6.92281 18.1226 6.97677 18.089 6.92281Z" fill="black"/>
<path d="M18.145 6.98331C18.145 6.98331 18.191 6.89373 18.3312 6.91152C18.3312 6.91152 18.2931 7.0361 18.1451 6.98331H18.145Z" fill="white"/>
<path d="M18.2421 6.99508C18.2574 6.99508 18.2698 6.9776 18.2698 6.95603C18.2698 6.93447 18.2574 6.91699 18.2421 6.91699C18.2268 6.91699 18.2144 6.93447 18.2144 6.95603C18.2144 6.9776 18.2268 6.99508 18.2421 6.99508Z" fill="#784421"/>
<path d="M18.242 6.97956C18.2511 6.97956 18.2585 6.96883 18.2585 6.9556C18.2585 6.94237 18.2511 6.93164 18.242 6.93164C18.233 6.93164 18.2256 6.94237 18.2256 6.9556C18.2256 6.96883 18.233 6.97956 18.242 6.97956Z" fill="black"/>
<path d="M17.8447 6.79302C17.8447 6.79302 17.9333 6.79927 17.9871 6.83702C17.9871 6.83702 18.0443 6.87472 18.1094 6.82064C18.1094 6.82064 18.1801 6.77543 18.2255 6.7126C18.2255 6.7126 18.1172 6.79552 18.0768 6.8081C18.0768 6.8081 18.0398 6.77668 18.0253 6.73143C18.0253 6.73143 18.0309 6.69756 18.0892 6.63477C18.0892 6.63477 18.0107 6.6611 17.995 6.73518C17.995 6.73518 18.0096 6.78047 18.0399 6.81568C18.0399 6.81568 18.0252 6.82318 17.9871 6.79681C17.9871 6.79681 17.9042 6.76539 17.8447 6.79306V6.79302ZM18.0698 7.38418C17.9931 7.45777 18.0698 7.45022 18.0698 7.45022C18.0698 7.45022 18.1464 7.45772 18.0698 7.38422V7.38418ZM18.0254 6.92364C18.0254 6.92364 17.9716 6.94006 17.9043 6.89856C17.9043 6.89856 17.8213 6.84956 17.7686 6.89856C17.7686 6.89856 17.8146 6.87585 17.9032 6.92364C17.9032 6.92364 17.9918 6.9776 18.0254 6.92364Z" fill="black"/>
<path d="M17.9694 6.98331C17.9694 6.98331 17.9234 6.89373 17.7832 6.91152C17.7832 6.91152 17.8213 7.0361 17.9694 6.98331Z" fill="white"/>
<path d="M17.8724 6.99508C17.8877 6.99508 17.9002 6.9776 17.9002 6.95603C17.9002 6.93447 17.8877 6.91699 17.8724 6.91699C17.8571 6.91699 17.8447 6.93447 17.8447 6.95603C17.8447 6.9776 17.8571 6.99508 17.8724 6.99508Z" fill="#784421"/>
<path d="M17.8724 6.97956C17.8815 6.97956 17.8889 6.96883 17.8889 6.9556C17.8889 6.94237 17.8815 6.93164 17.8724 6.93164C17.8633 6.93164 17.856 6.94237 17.856 6.9556C17.856 6.96883 17.8633 6.97956 17.8724 6.97956Z" fill="black"/>
<path d="M20.7776 6.17773V11.8241C20.7776 13.3323 18.0641 13.8223 18.0641 13.8223C18.0641 13.8223 15.3506 13.3323 15.3506 11.8241V6.17773H20.7776Z" stroke="black" stroke-width="1.28"/>
</g>
<defs>
<clipPath id="clip0_275_23252">
<rect width="24" height="20" rx="4" fill="white"/>
</clipPath>
</defs>
</svg>
