<svg width="24" height="20" viewBox="0 0 24 20" fill="none" xmlns="http://www.w3.org/2000/svg">
<g clip-path="url(#clip0_275_23238)">
<path d="M0.00366211 0H24.0074V20H0.00366211V0Z" fill="#FFD520"/>
<path d="M0.00366211 20H24.0074V0L0.00366211 20Z" fill="#FF4E12"/>
<path d="M12.9523 6.25256C12.8026 6.19351 12.706 6.27939 12.7109 6.49401C12.7156 6.70868 12.8171 6.8321 12.9668 6.7516L12.9523 6.25256Z" fill="white" stroke="black" stroke-width="0.4168"/>
<path d="M13.0835 5.85028C12.9589 5.74095 12.8427 5.78782 12.7851 5.99278C12.7277 6.19778 12.788 6.35087 12.953 6.32807L13.0835 5.85032V5.85028Z" fill="white" stroke="black" stroke-width="0.4168"/>
<path d="M13.2913 5.46168C13.1839 5.33151 13.0624 5.3571 12.976 5.54918C12.8898 5.74126 12.9273 5.9031 13.0935 5.91001L13.2913 5.46168ZM13.1551 7.35268C12.9716 7.42781 12.9522 7.70685 13.0682 7.87851C13.184 8.05026 13.3966 8.08243 13.5124 7.87851L13.1551 7.35256L13.1551 7.35268Z" fill="white" stroke="black" stroke-width="0.4168"/>
<path d="M12.9426 6.76192C12.7687 6.69755 12.6121 6.95701 12.5852 7.19117C12.5515 7.4863 12.1747 7.58288 12.3825 8.02826C12.4259 7.74388 12.595 7.58826 12.7301 7.57755C12.8654 7.56684 13.0682 7.53463 13.1551 7.35217L12.9426 6.76192ZM13.4931 7.91026C13.2902 7.96392 13.2612 8.26442 13.4061 8.47905C13.5301 8.6628 13.918 8.61859 13.9084 8.43613L13.4931 7.9103V7.91026ZM14.0679 9.71859C14.0775 9.52543 13.7975 9.4503 13.6623 9.48784C13.527 9.52542 13.2686 9.48251 13.2083 9.32151C13.16 9.4503 13.23 9.58984 13.4256 9.65959C13.5737 9.71238 13.5705 9.83126 13.527 9.88497C13.6382 9.90642 13.9665 9.90642 14.0679 9.71859Z" fill="white" stroke="black" stroke-width="0.4168"/>
<path d="M13.9085 8.48511C13.7105 8.38853 13.5931 8.53565 13.5174 8.67828C13.4062 8.88757 13.0634 8.61928 12.9475 8.89828C13.1045 8.82315 13.2642 8.98336 13.3386 9.03782C13.5511 9.1934 13.9617 9.14511 14.0196 8.78024L13.9085 8.48511Z" fill="white" stroke="black" stroke-width="0.4168"/>
<path d="M14.0244 8.74219C13.8264 8.90852 13.7491 9.10706 13.754 9.24123C13.7589 9.3754 13.9279 9.67048 14.1114 9.6866C14.2176 9.4451 14.2708 8.93535 14.0244 8.74219ZM13.2036 9.77785C13.2036 9.69735 13.3098 9.66519 13.3822 9.69202C13.4547 9.71881 13.5657 9.79931 13.5271 9.88519L13.2036 9.77785ZM12.1119 9.33785C12.0926 9.24127 12.2326 9.07494 12.421 9.16615C12.6092 9.2574 12.6335 9.43448 12.5561 9.50423L12.1119 9.33785Z" fill="white" stroke="black" stroke-width="0.4168"/>
<path d="M12.5707 9.51487C12.5562 9.46121 12.6919 9.35404 12.9234 9.41829C13.1551 9.48267 13.212 9.6485 13.2035 9.77779L12.5707 9.51487ZM12.088 9.33787C12.2088 9.23592 12.163 9.04271 12.0542 8.98371C11.8562 8.87637 11.9287 8.59737 11.803 8.54371C11.6775 8.49004 11.5568 8.39346 11.5519 8.29688C11.4892 8.43104 11.5278 8.55446 11.6148 8.64029C11.7017 8.72617 11.5472 9.07496 11.6582 9.16617L12.088 9.33787ZM9.49934 9.26288C9.39794 9.08579 9.15644 9.118 9.05504 9.24142C8.95364 9.36483 8.96811 9.54725 9.06471 9.62775L9.49934 9.26283V9.26288ZM10.0789 8.99987C10.0403 8.76379 9.78434 8.73696 9.64431 8.79596C9.50425 8.855 9.40769 9.09108 9.49941 9.26279L10.079 8.99987H10.0789Z" fill="white" stroke="black" stroke-width="0.4168"/>
<path d="M10.4651 8.96752C10.5569 8.76898 10.3782 8.47385 10.1754 8.43094C10.006 8.3951 9.80593 8.39606 9.74076 8.21094C9.69969 8.3719 9.80837 8.47385 9.93392 8.5651C10.0595 8.65631 9.90977 8.89244 10.1126 9.02656L10.4651 8.96752Z" fill="white" stroke="black" stroke-width="0.4168"/>
<path d="M10.446 8.97508C10.4037 8.83287 10.4894 8.64362 10.6629 8.65691C10.8364 8.67016 10.9353 8.81025 10.8588 8.98541L10.446 8.97508Z" fill="white" stroke="black" stroke-width="0.4168"/>
<path d="M10.8321 8.98528C10.8082 8.83786 10.917 8.66394 11.0871 8.70411C11.2573 8.74428 11.3374 8.89844 11.2396 9.05994L10.8321 8.98528Z" fill="white" stroke="black" stroke-width="0.4168"/>
<path d="M11.2159 9.05291C11.1987 8.90433 11.3152 8.73666 11.4833 8.78621C11.6514 8.83579 11.7245 8.99421 11.6195 9.15004L11.2159 9.05291ZM8.3017 11.5112C7.97811 11.5112 7.8991 11.5968 7.85256 11.9673C7.79463 12.4288 8.35968 12.4825 8.3017 11.5112Z" fill="white" stroke="black" stroke-width="0.4168"/>
<path d="M8.44654 11.0286C7.9491 10.8193 7.67869 11.694 7.18609 11.5384C7.36234 11.8496 7.78961 11.539 7.9491 11.5706C8.21955 11.6243 8.80391 11.5116 8.44654 11.0286ZM8.12284 12.2253C7.87654 12.1019 7.61093 12.5204 7.65923 12.7029C7.72054 12.9346 8.28221 12.7458 8.12284 12.2253ZM6.97354 14.0283C7.10876 14.0711 7.27294 14.1571 7.24399 14.4468C7.215 14.7365 6.72244 15.3268 6.27814 15.359C5.83384 15.3912 5.67443 15.9868 5.29294 15.8204C5.65031 15.7454 5.65031 15.2946 5.9304 15.1551C5.72753 15.0746 5.62129 15.5844 5.36055 15.5844C5.09978 15.5844 4.97419 16.0458 4.65544 16.0136C4.33669 15.9815 4.30316 16.5754 3.66544 16.5825C3.17768 16.5878 2.57404 17.221 2.35669 16.9474C2.82998 16.8722 3.02096 16.5808 3.30326 16.2604C3.75724 15.7454 4.26915 15.9761 4.443 15.52C4.24071 15.6717 4.00125 15.7504 3.75724 15.7454C3.46016 15.7386 3.13425 16.2713 2.80099 16.0351C2.99419 16.0083 3.11974 15.9171 3.32261 15.681C3.53029 15.4392 3.83509 15.5954 4.07599 15.3483C4.45264 14.9619 4.77623 15.2839 5.13844 14.801C5.037 14.7473 4.81969 14.7848 4.61681 14.9029C4.41401 15.021 4.15324 14.8223 3.92141 14.9619C3.9504 14.6454 4.49126 14.8265 4.82933 14.6078C5.21089 14.361 5.5272 14.4333 5.82904 14.4629C5.40889 14.4603 5.24468 14.0175 4.66519 14.1463C4.41244 14.2025 4.21121 13.76 3.96008 13.9853C3.96731 13.819 4.23053 13.6848 4.50098 13.8458C4.77143 14.0068 4.88044 13.705 5.4186 14.0819C5.64071 14.2375 6.02224 13.9853 6.2637 14.1517C6.23231 14.0497 6.09465 13.9853 5.93288 13.9988C6.03431 13.7681 6.68869 13.7975 6.97361 14.0283L6.97354 14.0283Z" fill="white" stroke="black" stroke-width="0.4168"/>
<path d="M7.40352 13.6792C7.19104 13.4968 6.89644 13.7169 6.6936 13.6309C6.6936 13.7812 6.76122 14.0066 6.98337 14.0924C7.05098 14.0388 7.35522 13.7437 7.40352 13.6792Z" fill="white" stroke="black" stroke-width="0.4168"/>
<path d="M7.73669 13.1583C7.40347 12.9705 7.34553 13.4373 7.08472 13.3407C7.09439 13.4749 7.19099 13.6412 7.40347 13.6788L7.73673 13.1583H7.73669Z" fill="white" stroke="black" stroke-width="0.4168"/>
<path d="M7.93474 12.7345C7.44214 12.5199 7.37936 13.0458 7.0896 12.9438C7.15721 13.1262 7.57256 13.2228 7.78504 13.1584L7.93474 12.7345ZM8.61064 10.4325C8.48025 10.2286 8.20496 10.395 8.1615 10.6364C8.11804 10.8779 8.22427 11.2159 8.4078 11.1408L8.61064 10.4325Z" fill="white" stroke="black" stroke-width="0.4168"/>
<path d="M8.94401 9.78913C8.71703 9.73013 8.45625 9.75692 8.48524 10.0038C8.39828 10.0467 8.37416 10.3633 8.61079 10.433L8.94401 9.78909V9.78913Z" fill="white" stroke="black" stroke-width="0.4168"/>
<path d="M9.09357 9.62234C8.87142 9.33259 8.62369 9.33929 8.48509 9.46134C8.22912 9.68675 7.98038 9.55796 7.97314 9.7833C8.12772 9.65184 8.26291 9.81013 8.38849 9.76184C8.51404 9.71355 8.60581 9.98184 8.95354 9.86917L9.09357 9.62234ZM8.55747 13.953C8.59129 14.0227 8.79893 14.055 8.90037 13.9369C9.03477 13.7804 8.88589 13.3466 8.67338 13.3144C8.46091 13.2822 8.44159 13.8027 8.55751 13.953H8.55747Z" fill="white" stroke="black" stroke-width="0.4168"/>
<path d="M8.31592 13.9636C8.62016 14.0869 8.75054 13.8079 8.58637 13.6309C8.54287 13.6899 8.38349 13.9045 8.31592 13.9636Z" fill="white" stroke="black" stroke-width="0.4168"/>
<path d="M7.17624 14.4247C7.11826 14.6179 6.81886 14.6501 6.4808 15.2511C6.14274 15.8521 5.81919 15.5999 5.73706 16.013C6.14274 15.6482 6.46134 15.8905 6.70291 15.5301C7.06996 14.9827 7.37221 15.0614 7.51426 14.693C7.7171 14.1672 8.6057 14.1779 8.654 13.3515C8.3546 13.2871 7.40802 14.1779 7.17624 14.4247V14.4247ZM14.7971 6.31137C15.1835 6.45087 15.1931 7.00895 15.6374 7.19137C16.0817 7.37382 16.1252 7.81378 16.4874 7.70649C16.1493 7.60453 16.1735 7.16991 15.821 7.06257C15.4075 6.93674 15.2511 6.2362 14.9226 6.12891M16.5695 9.22503C16.6371 9.39674 16.6275 9.70261 16.386 9.78311C16.5164 9.87432 16.7095 9.78845 16.8158 9.58995C16.6564 9.98161 16.7627 10.3358 17.0138 10.4056C16.893 10.1319 17.1635 10.0031 17.0766 9.82603C17.236 9.90116 17.376 10.1426 17.3712 10.2929C17.5789 10.0353 17.2167 9.69187 17.2843 9.45045L16.5695 9.22503ZM14.0678 11.983C13.8312 11.7523 13.7302 12.0434 13.6139 11.9428C13.5052 11.8489 13.3604 11.8354 13.3049 11.9294C13.5077 11.9374 13.4086 12.1118 13.8022 12.1547C13.4086 12.1842 13.4811 12.6726 13.2179 12.6484C13.498 12.9435 13.6428 12.3855 13.8698 12.4767C13.8022 12.4982 13.9761 12.6752 13.8553 12.9113C14.051 12.906 14.1306 12.6055 14.1548 12.4499L14.0678 11.983ZM8.85684 14.489C8.76991 14.4086 8.51877 14.371 8.42221 14.4354C8.32561 14.4997 8.35944 14.5158 8.47531 14.5267C8.59122 14.5374 8.74089 14.7457 8.48982 14.7574C8.37391 14.7627 8.41257 15.0739 8.17107 15.0954C8.27007 15.2296 8.5526 15.141 8.654 14.9935C8.63469 15.1142 8.77955 15.2242 8.72161 15.3691C8.9003 15.3906 8.79646 14.9667 9.07899 14.9881C8.96311 15.0042 9.01137 15.2939 9.21421 15.2188C9.09346 15.2832 9.15627 15.4388 9.29146 15.4013C9.20457 15.4335 9.17559 15.5568 9.29634 15.6267C9.41221 15.4496 9.28182 14.8164 8.85684 14.4891V14.489ZM19.3754 8.56837C19.7451 8.56837 20.0447 8.23536 20.0447 7.82461C20.0447 7.41395 19.745 7.08095 19.3754 7.08095C19.0057 7.08095 18.7061 7.41395 18.7061 7.82461C18.7061 8.23536 19.0057 8.56837 19.3754 8.56837Z" fill="white"/>
<path d="M14.7971 6.31137C15.1835 6.45087 15.1931 7.00895 15.6374 7.19136C16.0817 7.37382 16.1252 7.81378 16.4874 7.70649C16.1493 7.60453 16.1735 7.16991 15.821 7.06257C15.4075 6.93674 15.2511 6.2362 14.9226 6.12891M7.17624 14.4247C7.11826 14.6179 6.81886 14.6501 6.4808 15.2511C6.14274 15.8521 5.81919 15.5999 5.73706 16.013C6.14274 15.6482 6.46134 15.8905 6.70291 15.5301C7.06996 14.9827 7.37221 15.0614 7.51426 14.693C7.7171 14.1672 8.6057 14.1779 8.654 13.3515C8.3546 13.2871 7.40802 14.1779 7.17624 14.4247V14.4247ZM16.5695 9.22503C16.6371 9.39674 16.6275 9.70261 16.386 9.78311C16.5164 9.87432 16.7095 9.78845 16.8158 9.58995C16.6564 9.98161 16.7627 10.3358 17.0138 10.4056C16.893 10.1319 17.1635 10.0031 17.0766 9.82603C17.236 9.90116 17.376 10.1426 17.3712 10.2929C17.5789 10.0353 17.2167 9.69187 17.2843 9.45045L16.5695 9.22503V9.22503ZM14.0678 11.983C13.8312 11.7523 13.7302 12.0434 13.6139 11.9428C13.5052 11.8489 13.3604 11.8354 13.3049 11.9294C13.5077 11.9374 13.4086 12.1118 13.8022 12.1547C13.4086 12.1842 13.4811 12.6726 13.2179 12.6484C13.498 12.9435 13.6428 12.3855 13.8698 12.4767C13.8022 12.4982 13.9761 12.6752 13.8553 12.9113C14.051 12.906 14.1306 12.6055 14.1548 12.4499L14.0678 11.983ZM8.85684 14.489C8.76991 14.4086 8.51877 14.371 8.42221 14.4354C8.32561 14.4997 8.35943 14.5158 8.47531 14.5267C8.59122 14.5374 8.74089 14.7457 8.48982 14.7574C8.37391 14.7627 8.41257 15.0739 8.17107 15.0954C8.27007 15.2296 8.5526 15.141 8.654 14.9935C8.63468 15.1142 8.77955 15.2242 8.72161 15.3691C8.9003 15.3906 8.79646 14.9667 9.07899 14.9881C8.96311 15.0042 9.01137 15.2939 9.21421 15.2188C9.09346 15.2832 9.15627 15.4388 9.29146 15.4013C9.20457 15.4335 9.17559 15.5568 9.29634 15.6267C9.41221 15.4496 9.28182 14.8164 8.85684 14.4891V14.489ZM19.3754 8.56837C19.7451 8.56837 20.0447 8.23536 20.0447 7.82461C20.0447 7.41395 19.745 7.08095 19.3754 7.08095C19.0057 7.08095 18.7061 7.41395 18.7061 7.82461C18.7061 8.23536 19.0057 8.56837 19.3754 8.56837V8.56837Z" stroke="black" stroke-width="0.4168"/>
<path d="M15.879 9.46702C16.0818 9.2524 16.391 9.14507 16.6033 9.30602C16.8158 9.46702 17.521 9.66019 17.8687 9.3919C18.2163 9.12357 18.3806 8.98407 18.5351 9.01627C18.6511 9.20944 18.7911 9.30065 18.965 9.31677C19.0181 9.38115 19.2065 9.43482 19.3127 9.41869C19.4672 9.46161 19.6556 9.40798 19.8052 9.22552C20.0371 9.26311 20.2544 9.06994 20.3365 8.78019C20.5827 8.74798 20.5972 8.44211 20.4427 8.23819C20.2978 8.20602 20.409 7.66402 19.8825 7.77136C20.1047 7.92161 19.9356 8.22211 20.1192 8.36165C19.9936 8.36165 19.8319 8.42065 19.7932 8.62994C19.8415 8.48507 19.786 8.38848 19.7521 8.35627C19.757 8.23286 19.5107 7.92969 19.2789 8.03969C19.4455 8.07994 19.3513 8.37773 19.4721 8.4904C19.3851 8.49582 19.2933 8.54407 19.2402 8.62994C19.1775 8.50652 18.9553 8.37773 18.8201 8.36702C18.8201 8.32411 18.8128 8.23823 18.796 8.19527C18.7356 8.06652 18.6849 7.91361 18.709 7.71773C18.5931 7.85723 18.4965 8.05044 18.4386 8.18994C18.2551 8.0504 17.8011 8.25432 17.5886 8.30798C17.3761 8.36165 16.6614 8.23286 16.4971 8.03965C16.333 7.84652 16.0143 7.72844 15.7149 7.63186C15.3031 7.49911 15.2995 6.99869 14.8455 6.65527C14.8359 7.27777 15.6859 9.2524 15.879 9.46702H15.879ZM11.1462 14.2104C11.5035 14.2104 11.7933 13.8884 11.7933 13.4913C11.7933 13.0942 11.5035 12.7723 11.1462 12.7723C10.7888 12.7723 10.499 13.0942 10.499 13.4913C10.499 13.8884 10.7887 14.2104 11.1462 14.2104Z" fill="white" stroke="black" stroke-width="0.4168"/>
<path d="M9.60069 13.6576C9.73108 13.8455 9.95319 13.8348 10.045 13.8186C10.1222 14.0439 10.3685 14.0386 10.4748 14.162C10.5811 14.2855 10.9432 14.2748 11.0495 14.2049C10.9529 14.1942 10.8274 14.1299 10.7066 14.0171C10.5609 13.8811 10.6294 13.6093 10.5134 13.5128C10.6004 13.4054 10.6148 13.2284 10.5956 13.1586C10.6873 13.0995 10.7549 13.003 10.7646 12.9547C10.924 12.944 11.0639 12.8527 11.122 12.783C11.2041 12.8688 11.4117 12.7561 11.5228 12.901C11.547 12.5468 11.2427 12.359 11.0398 12.4771C10.9577 12.4288 10.7404 12.461 10.7018 12.5254C10.6342 12.4932 10.4458 12.6005 10.3589 12.6703C10.4555 12.6113 10.47 12.4342 10.4314 12.3698C10.5134 12.3323 10.6052 12.2088 10.6148 12.1176C10.7308 12.139 10.9046 12.0532 10.9819 12.0747C10.8563 11.8922 10.6487 11.8278 10.4362 11.8439C10.2164 11.8574 10.1223 12.0291 10.0933 12.2142C9.9629 12.3 9.91944 12.5898 9.96774 12.6918C9.89285 12.6891 9.82284 12.7696 9.79389 12.8152C9.69245 12.7669 9.54759 12.732 9.44375 12.732M9.48969 12.4396C9.44623 12.3001 9.50379 12.1745 9.53315 12.064C9.608 11.7823 9.56214 11.7099 9.33515 11.7475C9.31584 11.8816 9.43175 12.3216 9.48969 12.4396Z" fill="white"/>
<path d="M9.60069 13.6576C9.73108 13.8455 9.95319 13.8348 10.045 13.8186C10.1222 14.0439 10.3685 14.0386 10.4748 14.162C10.5811 14.2855 10.9432 14.2748 11.0495 14.2049C10.9529 14.1942 10.8274 14.1299 10.7066 14.0171C10.5609 13.8811 10.6294 13.6093 10.5134 13.5128C10.6004 13.4054 10.6148 13.2284 10.5956 13.1586C10.6873 13.0995 10.7549 13.003 10.7646 12.9547C10.924 12.944 11.0639 12.8527 11.122 12.783C11.2041 12.8688 11.4117 12.7561 11.5228 12.901C11.547 12.5468 11.2427 12.359 11.0398 12.4771C10.9577 12.4288 10.7404 12.461 10.7018 12.5254C10.6342 12.4932 10.4458 12.6005 10.3589 12.6703C10.4555 12.6113 10.47 12.4342 10.4314 12.3698C10.5134 12.3323 10.6052 12.2088 10.6148 12.1176C10.7308 12.139 10.9046 12.0532 10.9819 12.0747C10.8563 11.8922 10.6487 11.8278 10.4362 11.8439C10.2164 11.8574 10.1223 12.0291 10.0933 12.2142C9.9629 12.3 9.91944 12.5898 9.96774 12.6918C9.89285 12.6891 9.82284 12.7696 9.79389 12.8152C9.69245 12.7669 9.54759 12.732 9.44375 12.732M9.48969 12.4396C9.44623 12.3001 9.50379 12.1745 9.53315 12.064C9.608 11.7823 9.56214 11.7099 9.33515 11.7475C9.31584 11.8816 9.43175 12.3216 9.48969 12.4396Z" stroke="black" stroke-width="0.4168"/>
<path d="M9.32324 11.7632C9.38118 11.8275 9.58645 11.8571 9.60817 11.6532C9.63314 11.4191 9.54779 11.3285 9.3643 11.4197C9.34983 11.4734 9.33288 11.6934 9.32324 11.7632Z" fill="white" stroke="black" stroke-width="0.4168"/>
<path d="M9.3667 11.4122C9.44395 11.447 9.6106 11.5168 9.70232 11.3182C9.77931 11.1517 9.67821 11.0231 9.51884 11.0338C9.48021 11.0822 9.40292 11.2538 9.3667 11.4122Z" fill="white" stroke="black" stroke-width="0.4168"/>
<path d="M9.50903 11.0177C9.52835 11.0821 9.72635 11.2968 9.87121 11.1412C10.0161 10.9855 10.0161 10.7548 9.7988 10.6689C9.74082 10.6797 9.56697 10.9051 9.50903 11.0177V11.0177Z" fill="white" stroke="black" stroke-width="0.4168"/>
<path d="M9.79858 10.6687C9.84205 10.8028 9.97727 11.0336 10.2284 10.9262C10.4795 10.8189 10.3733 10.4701 10.2574 10.4004C10.1898 10.4058 9.9145 10.5453 9.79858 10.6687Z" fill="white" stroke="black" stroke-width="0.4168"/>
<path d="M10.2576 10.4008C10.2383 10.5189 10.2576 10.8408 10.6004 10.8354C10.9433 10.8301 10.8468 10.3847 10.7598 10.3203C10.6198 10.3203 10.3831 10.3257 10.2576 10.4008Z" fill="white" stroke="black" stroke-width="0.4168"/>
<path d="M10.7742 10.336C10.7356 10.4273 10.6485 11.0277 11.3199 10.8618C11.4068 10.8404 11.6338 10.2877 10.7742 10.336Z" fill="white" stroke="black" stroke-width="0.4168"/>
<path d="M11.1413 10.3898C11.0738 10.4649 11.2475 11.0713 11.7015 10.9693C12.1555 10.8674 11.774 10.2932 11.1413 10.3898Z" fill="white" stroke="black" stroke-width="0.4168"/>
<path d="M11.5275 10.4814C11.4551 10.6478 11.5639 11.1414 12.124 11.1414C12.6316 11.1414 12.0973 10.4922 11.5275 10.4814Z" fill="white" stroke="black" stroke-width="0.4168"/>
<path d="M11.967 10.6264C11.9306 10.7186 11.8861 11.2419 12.5465 11.2864C13.0246 11.3186 12.9087 10.5673 11.967 10.6264Z" fill="white" stroke="black" stroke-width="0.4168"/>
<path d="M12.6771 10.8457C12.595 11.0067 12.508 11.4091 13.2324 11.4413C13.6966 11.462 13.4112 10.8565 12.6771 10.8457Z" fill="white" stroke="black" stroke-width="0.4168"/>
<path d="M13.2808 10.9697C13.1746 11.1307 13.2528 11.4464 13.5222 11.5063C13.8603 11.5814 13.9086 11.2273 13.6768 11.0555C13.445 10.8838 13.2808 10.9697 13.2808 10.9697V10.9697Z" fill="white" stroke="black" stroke-width="0.4168"/>
<path d="M13.6091 11.0439C13.5319 11.1942 13.5798 11.5591 14.092 11.5591C14.1983 11.5591 14.604 11.0976 13.6091 11.0439ZM9.64434 18.0416C10.0592 18.0416 10.3956 17.6679 10.3956 17.2069C10.3956 16.7458 10.0592 16.372 9.64434 16.372C9.2294 16.372 8.89307 16.7458 8.89307 17.2069C8.89307 17.6679 9.22944 18.0416 9.64434 18.0416Z" fill="white" stroke="black" stroke-width="0.4168"/>
<path d="M15.1547 5.90409C15.0966 5.96847 14.976 6.16164 14.9518 6.23676C14.7006 7.07384 15.371 7.69914 15.7632 8.59776C16.0723 9.30609 16.0337 10.4222 15.5507 11.1305C15.3854 11.3728 15.4348 11.4418 15.2223 11.6886C15.1408 11.7833 15.0484 11.9032 15.0774 12.2466C15.2127 12.193 15.4058 12.3325 15.4444 12.4506C15.541 12.3969 15.6763 12.4183 15.7245 12.4827C15.8886 12.3969 16.0239 12.4398 16.1688 12.6116C16.2944 12.5901 16.4296 12.6116 16.5551 12.7618C16.6227 12.6116 16.758 12.5579 16.8545 12.5901C16.8449 12.3969 17.0187 12.2574 17.1732 12.3325C17.125 12.0749 17.3375 11.8817 17.5404 11.9569C17.7141 11.8066 18.0619 11.7959 18.2358 12.0213C17.9267 11.9247 17.9364 12.2896 17.6755 12.2574C17.7431 12.472 17.5693 12.5954 17.3955 12.6652C17.5065 12.6061 17.6273 12.5364 17.6659 12.6115C17.7625 12.5176 17.9556 12.5525 18.004 12.6008C18.1319 12.5552 18.2552 12.5901 18.313 12.7618C18.4869 12.8798 18.6028 13.1803 18.4773 13.4057C18.4386 13.1696 18.2938 13.1803 18.2358 13.0837C18.1005 13.1374 17.9653 13.1374 17.9267 13.0408C17.8494 13.1266 17.5886 13.2018 17.4728 13.073C17.4293 13.2662 17.2795 13.4272 17.1057 13.4272C17.154 13.5774 17.0188 13.835 16.9125 13.9638C17.0768 14.0603 17.0284 14.275 16.9898 14.4038C17.2409 14.4467 17.0284 14.6935 17.463 14.8545C17.2506 14.9296 16.8353 14.8545 16.7773 14.5647C16.5648 14.5541 16.4199 14.3179 16.4297 14.071C16.2654 13.8993 16.2413 13.6525 16.4683 13.4808C16.275 13.5452 16.1688 13.2018 15.8886 13.3413C15.7494 13.4107 15.3816 13.293 15.3865 13.1481C15.3285 13.2554 14.976 13.2125 14.9276 13.0301C14.8117 13.0998 14.5412 12.9818 14.5461 12.8047C14.3963 12.8798 14.1936 12.7457 14.2032 12.574C14.0632 12.5525 14.0487 12.413 14.0583 12.2949C13.9327 12.2306 13.9666 12.0964 14.0148 11.9354C13.928 11.8281 13.9666 11.6778 14.0342 11.5383C13.9376 11.431 13.957 11.3022 13.9859 11.152C13.5222 11.1091 12.9415 10.9848 11.6099 10.5296C9.60083 9.84272 9.05993 11.4525 9.50423 12.4613C10.0169 13.6253 9.4463 13.878 9.62015 14.7473C9.80367 14.7902 9.90027 14.9618 9.8906 15.1443C9.99923 15.1496 10.0765 15.2623 10.0379 15.477C10.1296 15.4583 10.248 15.4877 10.3252 15.5735C10.3929 15.4341 10.615 15.4018 10.7309 15.5628C10.982 15.5413 11.1076 15.7667 11.098 16.0458C11.2331 16.3141 11.1849 16.6415 11.04 16.8506C11.0545 16.738 11.04 16.577 11.0352 16.4805C11.0262 16.3028 10.8033 16.2658 10.8275 16.1209C10.7116 16.1316 10.6005 16.0619 10.5619 15.9653C10.4943 16.0296 10.3977 16.0512 10.3156 16.019C10.446 16.0834 10.5474 16.3409 10.5088 16.5126C10.5764 16.6414 10.5619 16.8776 10.4798 16.9795C10.4412 17.1886 10.2963 17.2638 10.1079 17.1726C10.2142 17.0976 10.2528 16.9634 10.248 16.8506C10.1804 16.7863 10.1466 16.6628 10.1417 16.5877C9.95341 16.6199 9.6926 16.4428 9.64448 16.3728C9.22958 16.3728 8.89325 16.7466 8.89325 17.2077C8.87393 17.0359 8.67845 16.8667 8.7026 16.7218C8.58672 16.3248 8.7509 15.9545 9.22418 15.8795C9.16625 15.7292 9.36905 15.5735 9.2918 15.4018C9.1931 15.1826 9.01167 14.8974 8.7413 14.5648C8.90547 14.2535 8.85717 13.835 8.76057 13.5774C8.6219 13.2076 8.49012 13.2984 7.99752 13.8993C7.19472 14.8788 6.12372 14.6077 5.17715 15.2516C4.92567 15.4227 4.67495 15.4877 4.9454 15.1873C5.21581 14.8867 5.93056 14.5863 6.39417 14.3287C7.26237 13.8463 7.99752 13.0408 8.28728 11.474C8.96817 7.79201 11.4745 9.00568 13.0585 9.69251C14.5456 10.3374 14.2755 8.87689 13.5221 7.99689C12.6166 6.93914 12.7977 6.10809 13.2227 5.44272C13.9857 5.32464 15.4491 5.6198 15.1545 5.90418L15.1547 5.90409Z" fill="white" stroke="black" stroke-width="0.4168"/>
<path d="M17.8447 14.9491C18.3012 14.9491 18.6713 14.538 18.6713 14.0308C18.6713 13.5235 18.3012 13.1123 17.8447 13.1123C17.3882 13.1123 17.0181 13.5235 17.0181 14.0308C17.0181 14.538 17.3882 14.9491 17.8447 14.9491Z" fill="white" stroke="black" stroke-width="0.4168"/>
<path d="M14.691 5.94629C14.5075 6.84779 14.662 7.25558 14.9325 7.65266C15.4913 8.47337 15.9369 10.3464 15.2994 11.5697" stroke="black" stroke-width="0.4168"/>
<path d="M15.6566 10.5128C15.7339 10.4806 15.8787 10.3787 15.9126 10.2016M15.7145 10.1212C15.7386 9.96553 15.9559 9.89849 15.9608 9.73215M15.7193 9.51449C15.7048 9.35349 15.9367 9.20865 15.9028 9.04765M15.5939 8.93515C15.5745 8.8439 15.787 8.67224 15.7292 8.52736M15.4346 8.37182C15.3911 8.26986 15.536 8.15182 15.4732 8.04449M15.2027 7.92082C15.1882 7.85107 15.2776 7.69815 15.2293 7.60695M14.9708 7.38982C14.9901 7.36299 15.0675 7.29857 15.036 7.21811M14.8115 7.00082C14.8429 6.98203 14.937 6.94982 14.925 6.87207" stroke="black" stroke-width="0.4168" stroke-linecap="round"/>
<path d="M9.97731 17.1177C9.78415 17.0425 9.54268 17.1499 9.49438 17.3324M9.63921 17.4987C9.66336 17.3163 9.91446 17.2358 9.99171 17.3216C9.83237 17.225 9.75508 17.5684 9.89515 17.5792M11.1944 13.2543C11.0785 13.3188 11.0448 13.5548 11.1944 13.732M11.3681 13.308C11.2861 13.3831 11.2909 13.6085 11.4116 13.6622C11.3102 13.5817 11.4116 13.4422 11.4841 13.4368C11.5565 13.4314 11.6047 13.528 11.5178 13.6246M18.1535 13.839C17.8831 13.7586 17.6658 14.1073 17.912 14.4186C17.9072 14.118 18.1004 13.9196 18.337 13.9732M18.2282 14.181C18.1617 14.181 18.1243 14.2388 18.1243 14.295C18.1243 14.354 18.1702 14.4105 18.2451 14.4105C18.2935 14.4105 18.3321 14.3488 18.3321 14.3005M19.1819 7.59301C19.2254 7.77547 19.4524 7.85059 19.631 7.80763M19.631 7.68967C19.491 7.69505 19.3751 7.55017 19.3847 7.42676C19.3847 7.51797 19.5731 7.56092 19.631 7.50188" stroke="black" stroke-width="0.4168" stroke-linecap="round" stroke-linejoin="round"/>
<path d="M10.0449 13.8182C10.0063 13.7108 10.1608 13.6036 10.1656 13.5016C10.1705 13.3996 10.3395 13.3191 10.5133 13.5123M10.4313 12.3696C10.3975 12.3856 10.3685 12.4071 10.3395 12.4178M10.7646 12.9542C10.7235 12.9569 10.639 12.9516 10.5931 12.9166M10.5957 13.1582C10.5619 13.177 10.487 13.2092 10.4436 13.22M8.93909 16.3992C8.93426 16.4959 9.02122 16.6353 9.06948 16.6783M9.31589 16.1686C9.26759 16.249 9.23864 16.3886 9.26759 16.4851M10.0353 16.4906C9.94837 16.4261 10.0063 16.2597 9.99667 16.1525C9.98699 16.0451 10.0981 15.8735 10.3154 16.0183M9.22409 15.8789C9.31102 15.8628 9.40278 15.8681 9.46072 15.8948M10.3251 15.5729C10.2865 15.6319 10.2768 15.6963 10.272 15.7393M10.7307 15.5622C10.6631 15.5622 10.6051 15.6158 10.5762 15.6696M9.79379 12.8149C9.87104 12.8444 10.0715 12.9812 10.0787 13.1234M10.6149 12.1172C10.3783 12.1118 10.2865 11.8436 10.4652 11.8436M11.04 12.4766C10.9482 12.5195 10.9917 12.6966 11.1221 12.7824M10.4748 14.1616C10.4289 14.0973 10.4893 13.9095 10.639 13.9657M10.8273 16.1202C10.8369 15.9566 11.0229 15.8599 11.0978 16.0451M10.1415 16.5869C10.1294 16.4072 10.2115 16.3481 10.284 16.3374C10.3564 16.3268 10.4602 16.3937 10.5085 16.5118M8.70239 16.7212C8.71207 16.6138 8.79416 16.5012 8.88108 16.5173M17.5401 11.9562C17.4772 12.0072 17.4362 12.2353 17.6752 12.2567M17.1732 12.3319C17.1732 12.3587 17.2046 12.3963 17.2239 12.4124M18.3129 12.7612C18.2502 12.7076 18.0883 12.9249 18.2356 13.0832M16.7772 14.5642C16.7409 14.4113 16.869 14.371 16.9897 14.4033M16.4682 13.4802C16.5406 13.4266 16.6131 13.3676 16.7048 13.3407M16.4295 14.0702C16.4295 13.9415 16.4874 13.8343 16.5405 13.802M16.8543 12.5896C16.8447 12.7452 16.9027 12.8954 16.9462 12.9759M18.0039 12.6002C17.9338 12.6244 17.871 12.6539 17.8445 12.7183M17.9265 13.0402C17.9604 13.008 17.999 12.9705 18.0159 12.9436M19.752 8.35556C19.752 8.50581 19.583 8.58627 19.472 8.48972M20.1192 8.36089C20.1939 8.42527 20.4523 8.3636 20.3919 8.19727M19.8051 9.22489C19.752 9.21414 19.6602 9.14977 19.6216 9.09614M20.3364 8.77956C20.2495 8.80102 20.1915 8.77956 20.148 8.7581M18.9648 9.31622C19.0131 9.31622 19.1289 9.29477 19.2087 9.24914M18.8199 8.36656C18.7572 8.35852 18.7111 8.37193 18.675 8.39877M19.7931 8.62922C19.7762 8.69631 19.7327 8.80093 19.6796 8.84656" stroke="black" stroke-width="0.4168" stroke-linecap="round"/>
<path d="M18.6558 8.86524C18.7765 8.8062 18.9262 9.26232 19.216 9.10132M19.2402 8.62891C19.2015 8.68795 19.1774 8.77916 19.1725 8.85966" stroke="black" stroke-width="0.4168" stroke-linecap="round" stroke-linejoin="round"/>
<path d="M13.4644 7.93186C13.503 7.92648 13.5706 7.9104 13.5851 7.85673M8.49487 12.9275C8.63977 13.0188 8.74117 13.1744 8.6784 13.4051M15.1351 7.43819C15.1786 7.4704 15.3428 7.4704 15.4346 7.43282M15.5506 7.54553C15.5457 7.62065 15.5651 7.90503 15.4347 7.96407M15.4831 7.92653C15.6038 7.96944 15.8453 7.95336 15.9226 7.70653M15.7534 7.91553C15.8161 8.02286 15.8354 8.23211 15.6471 8.34478M15.8017 8.09286C15.9417 8.14653 16.2653 8.15186 16.2314 7.84603M16.1206 8.09286C16.2172 8.24311 16.6422 8.42019 16.5745 8.10894M15.7294 8.52719C15.8935 8.57011 16.1254 8.44669 16.0287 8.12478M16.4923 8.28586C16.5164 8.40928 17.0572 8.53807 16.9849 8.25903M16.8835 8.42019C16.985 8.67773 17.521 8.65628 17.352 8.31286M17.2651 8.58086C17.3713 8.72573 17.8447 8.6399 17.6563 8.29111M17.6512 8.57553C17.9458 8.82236 18.2887 8.46819 17.9168 8.21061M18.0859 8.49519C18.3468 8.72594 18.6655 8.30736 18.4385 8.18936M16.0237 8.39853C16.1058 8.42536 16.2797 8.41461 16.3183 8.24828M16.2532 8.36086C16.2435 8.60503 16.6131 8.69894 16.7071 8.41723M16.5841 8.57019C16.6517 8.73115 16.9752 8.79557 17.0283 8.56482M16.9753 8.67219C17.0284 8.83319 17.3085 8.81707 17.3857 8.65073M17.2843 8.75819C17.3712 8.96744 17.7285 8.96744 17.8107 8.66161M17.7481 8.79553C17.8881 8.89211 18.1876 8.85457 18.1633 8.55407M18.1054 8.76886C18.313 8.95669 18.6076 8.77423 18.4627 8.45761M18.4483 9.01553C18.5594 8.99407 18.6173 8.74723 18.5014 8.68286M15.8743 9.05853C16.106 8.91903 16.1495 8.68294 15.9901 8.45219M16.0723 8.82253C16.2171 8.91911 16.4924 8.81715 16.5406 8.58107M16.2703 8.84919C16.3523 8.96723 16.3668 9.11211 16.2605 9.24628M16.3378 8.99953C16.5936 8.82244 16.9124 9.14978 16.6758 9.34832M16.6324 8.98353C16.6904 8.96744 16.7917 8.84936 16.8014 8.71523M16.7482 9.10686C16.8544 8.98344 17.5789 9.23565 17.1201 9.49319M17.0863 8.76886C17.2263 8.8279 17.2988 9.0479 17.0863 9.12303M17.2699 9.30553C17.4244 9.12844 17.9074 9.24115 17.7335 9.46653M17.6176 9.23553C17.7045 8.90819 18.2212 9.11211 18.0522 9.24623M17.5114 8.90819C17.5259 8.97261 17.5306 9.13357 17.4341 9.21944M17.9461 8.84386C17.9653 8.89753 17.9606 8.99948 17.9171 9.06386M18.2743 8.84919C18.3033 8.90819 18.3515 9.0209 18.2453 9.11211M14.1406 6.38086C14.1453 6.68669 14.2419 6.89061 14.6138 6.69744M14.2564 6.74586C14.0729 7.01953 14.2805 7.31465 14.6427 7.01953M13.6912 6.87986C13.9423 7.18036 14.3914 6.96036 14.1016 6.50423M14.4061 7.13753C14.3577 7.43265 14.5751 7.49169 14.7537 7.35753M13.4692 6.92819C13.5149 7.2249 13.7879 7.45944 14.0535 7.27698M13.7977 7.33619C13.7977 7.76011 14.3241 7.8084 14.4448 7.3684M14.2564 7.63653C14.4254 8.02286 14.7924 7.86728 14.9131 7.63115M13.8844 7.01953C13.952 7.20732 14.0872 7.41661 14.4011 7.26098M12.9187 6.92819C12.9622 7.08382 13.2133 7.27161 13.503 7.05694M13.0972 7.12686C12.9426 7.37907 13.2517 7.61519 13.6236 7.23953M13.2808 7.43819C13.3435 7.79236 13.469 8.07678 13.923 7.62065M13.696 7.80286C13.8602 8.02823 14.1114 8.16773 14.3479 7.78678" stroke="black" stroke-width="0.4168"/>
<path d="M14.5219 7.86719C14.5073 8.13548 14.5556 8.2696 14.744 8.25885C14.8925 8.25044 15.0337 8.11935 15.1159 7.97985M14.7103 8.25919C14.7054 8.56502 14.9226 8.80652 15.3284 8.49531M14.8792 8.61852C14.8019 8.84927 15.0337 9.22485 15.4876 9.03169M13.9183 8.00685C13.8894 8.30198 14.1356 8.50052 14.5316 8.11952M14.1115 8.33419C14.126 8.57565 14.3722 8.86544 14.7345 8.44685M14.2852 8.64019C14.2562 9.05335 14.599 9.17144 14.8888 8.85481M13.7686 8.33419C13.8458 8.33956 13.9085 8.26444 13.9472 8.21077M13.9327 8.63452C14.0003 8.6506 14.1163 8.58085 14.1549 8.49502M14.1019 9.12285C14.1791 9.2141 14.4399 9.14969 14.4736 9.02627M14.3917 9.11752C14.5365 9.4931 14.9228 9.47702 15.0822 9.05315M15.0097 9.20352C15.082 9.42352 15.2657 9.56302 15.565 9.4879M15.1546 9.42885C14.9855 9.73469 15.2077 10.0942 15.5843 9.7401M15.2464 9.88485C15.2271 10.078 15.3865 10.298 15.6037 10.3249M14.5315 9.32152C14.4734 9.75615 14.7536 9.96544 15.1062 9.73469M14.1211 9.53085C14.2128 9.61135 14.3771 9.6221 14.5315 9.55769M14.7199 9.80985C14.6329 10.1748 14.971 10.4377 15.2607 10.0299M14.2516 9.58985C14.2564 9.77765 14.4207 9.98152 14.7055 9.92252M15.5023 10.2982C15.309 10.4431 15.2704 10.7006 15.5409 10.8669M15.0289 10.2229C15.0386 10.4429 15.1304 10.5663 15.3476 10.5877M14.7442 10.1102C14.4544 10.4053 14.7393 10.7488 15.0822 10.459M14.947 10.5502C14.8503 10.8883 15.2126 11.0921 15.4057 10.7487M14.3482 9.83119C14.2419 10.1639 14.3771 10.3839 14.6234 10.3624M13.9666 9.76685C13.9811 9.9654 14.1356 10.0351 14.3094 9.99223M14.0776 9.97619C13.9472 10.2552 14.1452 10.4054 14.4061 10.2981M15.1981 10.9205C15.1546 11.0976 15.1787 11.2264 15.4153 11.2854M15.2125 11.1729C14.9275 11.3177 14.9033 11.6236 15.1255 11.8221M14.983 10.8322C14.8333 10.9824 14.8622 11.2426 15.0265 11.3446M13.7155 9.85285C13.5512 10.0326 13.7082 10.5289 14.0703 10.258M14.6572 10.4805C14.4349 10.6844 14.5364 11.0547 14.9034 10.9527M14.29 10.3249C14.1741 10.6898 14.2852 10.8185 14.546 10.8239" stroke="black" stroke-width="0.4168"/>
<path d="M13.4739 9.83705C13.2759 10.0034 13.3291 10.2395 13.4161 10.3468C13.5029 10.4541 13.6671 10.4058 13.7202 10.2663M13.0584 9.69238C12.8363 10.009 13.0584 10.3846 13.3725 10.2719M14.2467 10.6314C14.0197 10.7226 13.8466 10.9516 13.9858 11.1519C14.068 11.2699 14.4253 11.286 14.5267 10.8299M13.836 10.3361C13.7056 10.5453 13.749 10.7439 13.9905 10.8458M13.8216 10.7281C13.6815 10.8139 13.5898 10.9159 13.6236 11.1037M13.5078 10.4007C13.4547 10.6529 13.5175 10.8085 13.6575 10.8836M13.503 10.701C13.2856 10.685 13.1746 10.7869 13.247 11.023M13.2663 10.76C13.0538 10.6742 13.02 10.4703 13.1117 10.2556M13.0827 10.5724C12.8509 10.5831 12.7495 10.7119 12.7495 10.889" stroke="black" stroke-width="0.4168"/>
<path d="M12.7686 9.56822C12.5995 9.64872 12.5464 9.90092 12.6092 10.0404C12.6721 10.1799 12.8701 10.1907 12.9908 10.0994M12.2955 9.36988C12.141 9.56305 12.3196 9.93867 12.595 9.84747M11.8995 9.21955C11.7546 9.44492 11.914 9.82055 12.2858 9.71322M12.3051 10.7595C12.2664 10.4912 12.5176 10.3142 12.8267 10.663M12.6771 10.1212C12.5853 10.2125 12.5419 10.3573 12.5563 10.4754M11.5035 9.09088C11.3441 9.39138 11.5373 9.66505 11.8802 9.55772M12.3969 9.83655C12.1699 10.0888 12.2471 10.341 12.4161 10.4858M12.252 10.1319C11.9091 10.1373 11.8898 10.5773 12.1699 10.7168M11.9913 9.69188C11.8513 9.79922 11.8078 10.0943 12.0493 10.2124M11.9817 10.3519C11.8368 10.2768 11.6629 10.368 11.6774 10.5558M11.7642 10.3572C11.6338 10.0138 11.2523 10.0728 11.2862 10.427M11.8704 9.93322C11.7883 9.9493 11.6241 10.003 11.5614 10.1425M11.5857 9.54688C11.4312 9.74005 11.5518 9.9708 11.6774 10.0191M11.127 9.00488C11.098 9.23563 11.1801 9.3483 11.4408 9.32684M11.2185 9.30022C11.1169 9.57926 11.2522 9.70263 11.5129 9.68655M11.2764 9.64355C11.1219 9.84747 11.2281 10.0675 11.3777 10.1587M11.2041 9.90122C10.9288 9.86363 10.8853 10.2178 10.9771 10.3841" stroke="black" stroke-width="0.4168"/>
<path d="M10.9817 8.97852C10.8127 9.05902 10.7161 9.2951 10.8079 9.43997C10.8997 9.58485 11.0832 9.53656 11.1846 9.46143M10.8659 9.50418C10.7259 9.74027 10.8514 9.91735 11.0011 9.9871" stroke="black" stroke-width="0.4168"/>
<path d="M10.3251 8.95117C10.214 9.07992 10.2816 9.34292 10.5521 9.34826C10.7698 9.35259 10.8804 9.12288 10.8128 8.96192M10.5135 9.34817C10.4265 9.5628 10.4797 9.79355 10.8081 9.75596M10.9482 10.0942C10.7453 9.99221 10.4749 10.0942 10.5908 10.3625M10.5618 9.71317C10.4796 9.84192 10.5086 10.0244 10.6004 10.1371M10.5474 10.0565C10.4121 10.0833 10.2818 10.1638 10.3638 10.3999M10.3443 10.2068C10.1704 10.1478 9.94827 10.2873 10.0835 10.4859M10.0548 10.2982C9.90507 10.2713 9.72638 10.4484 9.87125 10.6255M9.81327 10.4805C9.67805 10.5181 9.51867 10.6898 9.65873 10.8239M10.4943 9.63817C10.3011 9.73475 10.2818 9.97626 10.3735 10.1533M10.2912 9.19284C10.0014 9.31625 10.0062 9.74555 10.325 9.87967M10.1898 9.78284C10.0159 9.8955 9.9821 10.1102 10.098 10.2497M9.88557 9.03184C9.76966 9.07475 9.77933 9.47184 10.0884 9.46109M9.56697 9.16584C9.33515 9.33755 9.61527 9.77217 9.99196 9.46096M9.78417 9.56817C9.75038 9.74526 9.79385 9.93842 10.0498 9.95992M9.79857 9.80451C9.61505 9.87963 9.58126 10.2982 9.91445 10.3303M9.21447 9.42351C8.97785 9.66496 9.40763 9.87425 9.56705 9.52546M8.88597 9.82584C8.77006 9.98146 9.17573 10.3893 9.35442 9.7078M9.39777 9.69717C9.40741 9.85813 9.49437 9.95471 9.67302 9.96546M9.66837 10.1212C9.38345 10.1695 9.29168 10.5665 9.61043 10.6524M9.14187 10.0675C9.1322 10.2178 9.27226 10.3412 9.43163 10.3143M9.57657 10.6415C9.3158 10.7059 9.28197 11.0815 9.5138 11.06M9.39297 11.4088C9.17562 11.3364 9.17082 11.0493 9.36398 10.942" stroke="black" stroke-width="0.4168"/>
<path d="M9.21434 11.1567C9.03086 11.2801 9.10327 11.5752 9.19987 11.6182C9.29643 11.6611 9.37372 11.6075 9.38339 11.5162M9.36884 11.9294C9.38815 12.0689 8.9221 12.0152 9.1612 11.5806M9.15854 11.9537C9.0016 12.2274 9.25754 12.45 9.41932 12.2166M9.18044 12.2837C9.11767 12.5037 9.35669 12.662 9.51119 12.4903M8.65874 10.223C8.57182 10.4216 9.00644 10.4967 9.03543 10.0889M8.53814 10.5184C8.45122 10.9047 9.10799 10.8242 8.93898 10.3252M8.95334 10.5827C9.0451 10.6417 9.32039 10.6471 9.38797 10.3198M9.19004 10.5934C9.20936 10.6953 9.29144 10.8187 9.36873 10.8563M8.87624 10.6954C8.84725 10.9047 9.03562 11.0764 9.25293 11.0603M8.90984 10.8994C8.80361 11.0604 8.76978 11.3716 9.10304 11.393M8.40284 10.953C8.34971 11.1194 8.66362 11.2911 8.84714 11.0174M8.30624 11.3767C8.27965 11.5028 8.56218 11.6718 8.72155 11.1352M8.59604 11.409C8.66365 11.5432 8.89064 11.6505 9.03067 11.3876M8.80364 11.5487C8.74571 11.7365 8.90508 11.9136 9.09824 11.86M8.44154 11.5057C8.40292 11.774 8.683 11.9296 8.85685 11.7901M8.25794 11.6237C8.17586 11.9671 8.57185 12.0959 8.72155 11.8383M8.62034 11.9404C8.63486 12.1335 8.90531 12.2999 9.11778 12.1389M8.13734 12.1014C8.11803 12.1872 8.44162 12.2731 8.48984 11.9726M8.32574 12.1764C8.40299 12.3964 8.66377 12.45 8.81351 12.1817M8.72654 12.289C8.76037 12.493 8.99699 12.6056 9.20467 12.4661M9.29144 12.5467C9.23834 12.8204 9.49428 13.0404 9.65362 12.8901M8.88104 12.4984C8.80379 12.7989 9.14182 12.9706 9.33018 12.8042M8.47544 12.348C8.45613 12.6271 8.65413 12.7934 8.88112 12.67M8.04554 12.375C7.97793 12.5575 8.3353 12.7077 8.50432 12.5521M7.82324 12.874C7.915 12.9921 8.23372 12.874 8.26274 12.6111M8.17604 12.804C8.29192 12.9543 8.5672 13.0348 8.67832 12.7128M8.58164 12.8794C8.57681 13.1101 8.94869 13.2765 9.0694 12.8525M9.50624 12.9357C9.47242 13.0484 9.55214 13.2281 9.71872 13.2496M9.19964 12.866C9.17549 12.9948 9.34454 13.1745 9.52323 13.1021M9.55724 13.1557C9.50894 13.2952 9.54997 13.4964 9.71902 13.4937M9.57404 13.416C9.44849 13.5341 9.50159 13.7434 9.68272 13.7515M9.50894 13.6144C9.33026 13.7485 9.39307 14.0436 9.62969 14.0276M8.96804 13.0457C8.96804 13.3355 9.29159 13.3784 9.35437 13.1101M9.22874 13.2817C9.18044 13.4534 9.30599 13.6198 9.50399 13.5715M9.26744 15.353C9.31094 15.4229 9.48959 15.3048 9.44129 15.1868C9.39303 15.0687 9.20373 15.1329 9.22398 15.2565M9.39764 15.1384C9.42179 14.9022 9.17065 14.8647 9.10788 15.0687M9.19964 14.9507C9.26242 14.8327 9.04994 14.6717 8.96302 14.8433M9.04034 14.7734C9.09828 14.6016 8.85682 14.5266 8.83751 14.6821M8.78444 14.4567C8.81343 14.3709 9.08388 14.4245 8.96797 14.6016M9.17564 14.8164C9.28188 14.709 9.10323 14.489 8.99212 14.5696M9.89024 15.1437C9.80572 15.1544 9.71876 15.2161 9.78157 15.4147C9.82507 15.5525 10.011 15.5595 10.0375 15.4763" stroke="black" stroke-width="0.4168"/>
<path d="M9.76731 15.243C9.68518 15.184 9.50653 15.2833 9.58862 15.4765C9.65042 15.6219 9.80593 15.5623 9.83012 15.4872M9.30591 15.5194C9.34693 15.5998 9.55217 15.5651 9.58839 15.4765M9.44601 15.2537C9.48947 15.2215 9.56912 15.2616 9.58607 15.3019M9.43161 13.931C9.29154 14.033 9.37847 14.3442 9.59582 14.2637M9.38811 14.1834C9.27703 14.2799 9.37843 14.5805 9.58611 14.4678M9.42201 14.4677C9.34476 14.5535 9.41957 14.7923 9.62001 14.7467M9.39291 14.5857C9.34941 14.5642 9.23593 14.5803 9.18763 14.6607M9.26751 13.499C9.16127 13.6117 9.21197 13.8425 9.40997 13.8612M9.22881 13.735C9.07667 13.8182 9.07667 14.1535 9.38091 14.167M9.21681 14.1134C9.13232 14.1885 9.17334 14.4782 9.39066 14.4406M9.28671 14.43C9.25528 14.4649 9.25044 14.5535 9.27703 14.591M9.19011 14.32C9.11286 14.3227 9.01142 14.3845 8.98483 14.473M8.84481 14.1617C8.87379 14.0759 9.11286 14.0813 9.12973 14.3335M9.15381 14.033C9.11998 14.0411 9.05481 14.076 9.03793 14.1485M9.05001 13.247C8.94613 13.3517 8.89547 13.6817 9.21178 13.746M8.84001 13.9284C8.84001 13.8397 9.05492 13.7646 9.12977 13.8962M8.70231 13.448C8.73369 13.5151 8.88339 13.6064 8.97516 13.5312M7.92471 12.9224C7.91991 13.078 8.03578 13.2175 8.19516 13.196C8.35453 13.1746 8.38832 13.019 8.34002 12.917M8.21931 13.2014C8.11307 13.3462 8.24346 13.5502 8.36417 13.4911M8.34021 13.0994C8.40298 13.0725 8.61066 13.0403 8.67343 13.1477M7.66881 13.1424C7.62051 13.2229 7.91994 13.3034 8.02131 13.1477M7.91991 13.228C7.91023 13.3354 7.95853 13.5178 8.20483 13.4427" stroke="black" stroke-width="0.4168"/>
<path d="M8.24364 13.6093C8.28227 13.5181 8.09874 13.3679 7.95872 13.5342C7.81865 13.7005 7.97803 13.8884 8.06495 13.8239M7.60134 13.25C7.52889 13.3895 7.80902 13.6444 7.96839 13.4083" stroke="black" stroke-width="0.4168"/>
<path d="M7.41529 13.4909C7.31389 13.6063 7.43944 13.8183 7.59158 13.7538C7.74368 13.6895 7.7292 13.5124 7.69302 13.4668" stroke="black" stroke-width="0.4168"/>
<path d="M7.21976 13.7058C7.13763 13.789 7.21732 13.9848 7.33083 13.9848C7.44431 13.9848 7.51436 13.8856 7.49261 13.7596M7.68086 13.6898C7.66635 13.8133 7.83056 13.8991 7.9368 13.7838M7.94186 13.5582C7.95633 13.5313 7.9443 13.4857 7.92015 13.4643M7.04366 13.8722C6.94953 13.9554 7.15233 14.1861 7.28028 13.9741M7.77026 13.8265C7.70988 13.8908 7.80645 14.0598 7.90305 14.0089M7.43966 13.9445C7.45413 14.0598 7.65697 14.1456 7.78496 13.9687M7.55066 14.0598C7.51927 14.1323 7.58208 14.2478 7.65933 14.2316M9.47276 14.7228C9.39795 14.8865 9.63697 15.077 9.81082 14.8784M9.64646 14.9668C9.61027 15.0553 9.65373 15.1788 9.71891 15.2243M9.41966 15.1518C9.43657 15.0713 9.54041 14.9961 9.63457 15.0338M9.29396 14.9398C9.30843 14.8675 9.39536 14.795 9.46057 14.8139M14.9805 11.5915C14.6376 11.5969 14.7825 12.2086 15.0771 12.0852M14.8695 12.0425C14.8018 12.1659 14.9322 12.3618 15.0771 12.2464M15.0387 12.2705C14.9371 12.4583 15.2994 12.7454 15.4443 12.4503M15.3285 12.5628C15.3332 12.7399 15.7968 12.8526 15.7293 12.4985M15.6858 12.6915C15.7968 12.9008 16.2121 12.9223 16.1686 12.611M16.077 12.8258C16.164 12.9653 16.5696 13.0512 16.5551 12.7614M14.43 11.0605C14.4878 11.2268 14.6858 11.2859 14.9032 11.1893M14.3046 11.1785C14.4398 11.2751 14.2418 11.7151 14.0342 11.538M14.3046 11.4522C14.4543 11.5327 14.6378 11.4736 14.6909 11.2376M14.5992 11.4198C14.6137 11.5433 14.773 11.6398 14.9807 11.5916M14.2272 11.5488C14.4204 11.7313 14.1403 12.1069 14.0146 11.9352M14.2998 11.6882C14.3915 11.7633 14.6281 11.7204 14.6523 11.5218M14.5461 11.6882C14.5654 11.8169 14.6572 11.8653 14.7876 11.8706M14.2467 11.8652C14.3431 12.0154 14.5847 12.0583 14.6909 11.8598M14.5845 11.9725C14.5748 12.1174 14.7197 12.2354 14.8695 12.2033M14.0583 12.2945C14.1838 12.3643 14.319 12.1013 14.2128 11.9189M14.2032 12.5735C14.3529 12.5843 14.3722 12.3321 14.2321 12.1925M14.5461 12.8042C14.6717 12.772 14.6329 12.4661 14.3287 12.4393M14.9274 13.0298C15.0481 12.9923 14.9515 12.6542 14.6184 12.6757M15.3864 13.1478C15.4684 13.0083 15.198 12.7723 14.9759 12.8956M15.6132 13.3408C15.7629 13.3891 15.8643 12.9492 15.391 13.0189M15.8886 13.3408C16.0191 13.3033 16.1108 13.0403 15.7293 13.1262M16.1784 13.3625C16.2942 13.4269 16.3474 13.0513 15.9947 13.1533M14.232 12.1925C14.3768 12.2838 14.6038 12.1764 14.5845 11.9725M14.5266 12.1498C14.5749 12.2464 14.5555 12.4342 14.4638 12.4825M14.541 12.3752C14.6376 12.4181 14.7679 12.3806 14.8452 12.2088M14.7102 12.3752C14.739 12.4503 14.7488 12.6006 14.6859 12.6757M14.7345 12.5038C14.8407 12.5682 14.9662 12.4824 15.0193 12.359M14.9517 12.4662C15.0289 12.5198 15.0965 12.772 14.9662 12.874M15.0387 12.7562C15.1304 12.7616 15.2656 12.7616 15.3525 12.6328M15.2898 12.7025C15.3719 12.7293 15.4684 12.8796 15.4346 13.0138M15.4395 12.9652C15.5313 12.9544 15.6906 12.8847 15.7341 12.7613M15.6906 12.8418C15.7679 12.8901 15.8211 12.9921 15.8113 13.1101M15.8112 13.0242C15.9029 13.0188 15.985 12.9652 16.0092 12.8525M15.9852 12.9278C16.0528 12.9547 16.1349 13.0405 16.1398 13.1425M16.1301 13.0778C16.1977 13.0671 16.2459 13.0188 16.2894 12.9437M16.473 12.9332C16.56 13.0298 16.4441 13.3518 16.2653 13.2927M14.6184 6.42951C14.4396 6.54755 13.9325 6.51001 14.1836 6.04318M14.6667 6.11284C14.3142 6.26847 13.8794 5.96797 14.3334 5.64064M14.2128 5.53351C13.9181 5.53351 13.7201 6.05934 14.1163 6.24184M13.0683 5.75351C12.991 5.91984 13.2663 6.10226 13.4546 5.93597C13.6005 5.80709 13.5898 5.45839 13.5029 5.32422M12.9186 6.15051C12.8219 6.50468 13.5319 6.52609 13.4208 5.96268M12.8799 6.67651C12.904 6.9448 13.5609 6.85897 13.3482 6.31697M13.4256 6.16651C13.4787 6.24701 13.6236 6.38651 13.8698 6.35968M13.5414 5.78551C13.5631 5.88209 13.7104 5.95722 13.8987 5.8848M6.95186 13.9498C6.78525 14.0814 7.04122 14.2879 7.13538 14.0598M6.82136 14.0518C6.65478 14.1832 6.91072 14.3898 7.00488 14.1617M6.68366 14.1512C6.51701 14.2827 6.77298 14.4893 6.86718 14.2612M6.53876 14.2425C6.37938 14.3364 6.56531 14.5671 6.72708 14.3632M6.38186 14.3312C6.22248 14.4249 6.40845 14.6558 6.57022 14.4519M7.19096 14.0545C7.18852 14.1913 7.42278 14.2477 7.50723 14.0437M7.33826 14.1808C7.26581 14.2828 7.39863 14.4089 7.47108 14.3632M7.02656 14.1618C7.01928 14.2773 7.22212 14.3443 7.32116 14.2182M7.13786 14.2828C7.07265 14.3767 7.20063 14.5028 7.28272 14.4652M6.89156 14.2665C6.8988 14.3578 7.01467 14.4623 7.14026 14.4033M6.96626 14.3898C6.91796 14.4382 6.94211 14.551 7.00972 14.5858M6.71516 14.3818C6.69585 14.4651 6.82383 14.6127 6.95422 14.516M6.74156 14.4785C6.66431 14.5456 6.67395 14.6476 6.77295 14.6609M6.55586 14.4678C6.54622 14.5241 6.61143 14.6153 6.69352 14.6046M6.14276 14.4625C6.06551 14.5081 6.26351 14.7416 6.38662 14.5242M5.95196 14.5588C5.85536 14.61 6.09446 14.8675 6.2007 14.6046M6.57746 14.5482C6.50257 14.5669 6.45431 14.6878 6.51708 14.736M6.33356 14.5912C6.32388 14.6395 6.41568 14.7199 6.49053 14.6905M6.27086 14.6128C6.19841 14.6638 6.23703 14.8059 6.3216 14.7845M6.01256 14.7065C5.94495 14.7628 5.99081 14.8756 6.08501 14.8487M6.13556 14.6985C6.138 14.728 6.19833 14.7736 6.24907 14.7549M5.77826 14.6502C5.69377 14.6905 5.69861 14.9266 5.98353 14.7978M5.58746 14.7442C5.46911 14.8086 5.50777 14.9857 5.76615 14.8167M5.78786 14.8302C5.75647 14.857 5.72268 14.9751 5.841 14.9293M5.57066 14.8862C5.52236 14.9345 5.55378 15.0338 5.66002 14.9962M5.32196 14.9025C5.23503 14.9589 5.42576 15.0341 5.55378 14.8838M5.37986 14.9722C5.34123 15.0151 5.34123 15.1412 5.44263 15.0956M5.13356 15.0232C5.07562 15.0715 5.17458 15.136 5.35571 15.0473M5.20586 15.0928C5.13825 15.1545 5.14548 15.2323 5.24448 15.2081M5.00546 15.1278C4.93061 15.203 5.03925 15.254 5.16967 15.1921M5.00786 15.2112C4.87987 15.2755 4.93541 15.3936 5.0151 15.348M9.28196 15.6215C9.2523 15.6925 9.34957 15.7503 9.44133 15.7341C9.52946 15.7187 9.6138 15.6381 9.54757 15.525M9.55226 15.6645C9.63918 15.7396 9.79372 15.6538 9.79372 15.5411" stroke="black" stroke-width="0.4168"/>
<path d="M14.8791 4.29386C14.4928 4.07923 13.6911 3.68211 13.4641 4.00411C13.6717 3.90752 14.2803 4.00948 14.7825 4.52461L14.8791 4.29386Z" fill="white" stroke="black" stroke-width="0.4168"/>
<path d="M15.1134 4.2716C14.6666 3.69335 14.4035 3.82281 14.0823 3.62364C13.7805 3.43648 13.2999 3.39823 13.2068 3.69585C13.6477 3.45727 14.0524 3.82419 14.301 3.86856C14.6425 3.92948 14.8353 4.22281 14.9352 4.35773L15.1134 4.2716H15.1134ZM16.7964 4.1976C16.5645 3.60735 16.0688 3.76152 15.8498 3.51077C15.5312 3.14589 14.7247 2.80785 14.3914 3.06002C15.1254 3.0171 15.438 3.62219 15.8305 3.83273C16.1106 3.98298 16.41 4.30494 16.7964 4.19764V4.1976Z" fill="white" stroke="black" stroke-width="0.4168"/>
<path d="M15.9273 4.13315C15.5313 3.58582 14.9226 3.1029 14.6426 3.28532C15.0096 3.30678 15.1255 3.59115 15.3864 3.77365C15.6471 3.95607 15.5313 4.21898 15.9273 4.13315ZM14.0436 5.09915C13.6282 4.92744 12.8169 4.84161 12.4402 5.36748C13.068 5.48548 14.0145 5.42111 14.0436 5.09915Z" fill="white" stroke="black" stroke-width="0.4168"/>
<path d="M13.9665 5.30274C13.5511 5.08811 13.2268 5.3879 12.8364 5.34565C12.0928 5.26515 11.5615 5.31344 11.4939 5.71057C11.9189 5.28665 12.6337 5.63544 12.9234 5.54957C13.2132 5.46374 14.2853 5.53886 14.6233 5.69982C14.4494 5.46374 14.179 5.39932 13.9665 5.30274ZM15.2703 4.07374C15.1738 3.71957 15.1786 3.34399 15.6567 3.37082C15.5359 3.20444 15.0917 3.11861 15.0192 3.74107C14.4928 3.31182 13.9181 3.23665 13.812 3.6069C14.0823 3.34936 14.5024 3.53715 15.0047 4.17036C15.0482 4.14353 15.1641 4.08986 15.2703 4.07378L15.2703 4.07374Z" fill="white" stroke="black" stroke-width="0.4168"/>
<path d="M14.5461 4.56204C14.2468 4.34741 13.841 3.99862 14.551 3.85912C14.2467 3.67666 13.8024 3.75716 13.8507 4.37962C13.0394 4.0147 12.4568 4.13787 12.3342 4.49766C12.199 4.89474 12.7014 5.11474 12.7883 4.86254C12.6965 4.90545 12.3826 4.78741 12.5468 4.56204C12.711 4.3367 13.5525 4.50587 14.353 4.96987C14.5751 5.09862 15.3381 5.0772 14.5461 4.56204H14.5461Z" fill="white" stroke="black" stroke-width="0.4168"/>
<path d="M14.3334 5.15272C14.1024 4.62864 13.3531 5.10443 13.2021 4.5968C12.9957 5.34055 14.2677 4.92897 14.3334 5.15272ZM19.1001 5.72139C19.2573 5.80814 19.3931 5.67176 19.1528 5.5648C19.31 5.65147 19.4471 5.51839 19.2068 5.41134C19.364 5.49805 19.5011 5.36497 19.2608 5.25793C19.1966 5.32968 19.1049 5.59259 19.1001 5.72139ZM19.182 4.71272C19.5298 4.30493 19.1532 4.16539 19.578 3.74689C19.9258 3.40439 19.6444 3.17618 19.9742 2.90976C20.0804 2.82393 20.3122 2.65218 20.3315 2.48047C20.4716 2.8668 19.8968 2.92047 19.9354 3.54297C19.9601 3.9393 19.7189 3.90464 19.6264 4.57322C19.6071 4.71272 19.5202 5.02397 19.182 4.71272Z" fill="white" stroke="black" stroke-width="0.4168"/>
<path d="M19.3369 4.89465C19.53 4.43319 19.7518 4.44207 19.8584 4.26148C20.0613 3.91807 20.491 4.32052 20.8533 4.01465C20.7905 4.44927 20.3028 4.29369 20.0903 4.57273C19.8778 4.85173 19.7039 4.98057 19.3369 4.89469V4.89465Z" fill="white" stroke="black" stroke-width="0.4168"/>
<path d="M19.385 5.0456C19.7232 4.7451 19.9723 4.9456 20.206 4.78802C20.7952 4.39093 21.0319 4.86852 21.5583 4.68072C21.4182 5.05631 20.6407 4.73439 20.3026 5.01339C19.9645 5.29243 18.7765 5.56072 19.385 5.0456ZM18.3998 7.1866C18.3949 7.01489 18.2501 6.79485 18.0472 6.76806C17.8444 6.74122 17.7574 6.50514 17.6029 6.49439C17.4484 6.48368 17.347 6.14022 17.1345 6.1456C16.9219 6.15097 16.8351 6.45685 17.3325 6.73585C17.8299 7.01489 18.3804 7.33685 18.3998 7.18664V7.1866ZM17.7719 7.3316C17.5594 7.34235 17.5304 7.68577 17.3277 7.69652C17.6077 7.86285 17.8105 7.62139 17.9554 7.40672L17.7719 7.3316Z" fill="white" stroke="black" stroke-width="0.4168"/>
<path d="M17.946 7.37402C17.7625 7.54573 17.7094 7.90527 17.975 8.00719C17.8156 7.76302 18.2551 7.65302 18.1199 7.42765L17.946 7.37402Z" fill="white" stroke="black" stroke-width="0.4168"/>
<path d="M18.1294 7.38471C17.9845 7.69596 18.3564 7.73346 18.2598 7.96962C18.4723 7.91596 18.5062 7.47058 18.3129 7.35254L18.1294 7.38471Z" fill="white" stroke="black" stroke-width="0.4168"/>
<path d="M16.7095 6.71939C17.0572 6.69793 17.3752 6.90693 17.5885 7.24522C17.7237 7.45989 18.1776 7.54572 18.3322 7.37401C18.4867 7.20235 18.3999 6.83743 18.0135 6.95551C17.9169 6.77305 17.6367 6.83743 17.5016 6.68718C17.3664 6.53697 16.8447 6.10768 16.7095 6.71939Z" fill="white" stroke="black" stroke-width="0.4168"/>
<path d="M18.0136 6.95535C17.9218 6.97681 17.8928 7.15389 17.9507 7.2451L18.0136 6.95535ZM18.2116 7.06268C18.2405 7.11635 18.2212 7.19143 18.2067 7.22902L18.2116 7.06268ZM17.2603 6.73535C17.4389 6.7461 17.4728 6.89098 17.6659 6.94464L17.2603 6.73535Z" fill="white"/>
<path d="M18.0136 6.95535C17.9218 6.97681 17.8928 7.15389 17.9507 7.2451M18.2116 7.06268C18.2405 7.11635 18.2212 7.19143 18.2067 7.22902M17.2603 6.73535C17.4389 6.7461 17.4728 6.89098 17.6659 6.94464" stroke="black" stroke-width="0.4168" stroke-linecap="round"/>
<path d="M17.1421 6.24777C17.7592 6.41948 18.2488 6.56973 18.5524 6.7629C18.8561 6.95611 19.3262 7.00973 19.7376 6.88098C20.149 6.75219 20.9422 6.63415 20.9031 7.20294C21.1187 6.91852 20.8443 6.61265 20.2958 6.55898C20.3057 6.27998 20.037 6.02773 19.8437 6.19411C20.0224 6.16727 20.1767 6.53752 19.8242 6.68777C19.8927 6.40873 19.6429 6.15652 19.3834 6.27994C19.5499 6.33361 19.7183 6.64386 19.3458 6.76286C19.1107 6.83802 18.7679 6.74144 18.5133 6.56973C18.2587 6.39798 16.8287 5.77556 17.1421 6.24777Z" fill="white" stroke="black" stroke-width="0.4168"/>
<path d="M18.6994 5.96843C18.5063 6.06501 18.6318 6.29038 18.3325 6.41918C18.0329 6.54793 17.8253 6.84305 17.893 7.09526C18.0958 6.60159 18.4532 6.62305 18.5787 6.42989C18.7043 6.23672 18.8878 5.95234 18.6994 5.96843Z" fill="white" stroke="black" stroke-width="0.4168"/>
<path d="M18.7525 6.00054C18.7429 6.39221 18.4654 6.24954 18.5738 6.80009C18.6077 6.97175 18.6704 7.25079 18.5642 7.52984C18.8756 7.27767 18.6753 6.74784 18.8153 6.54788C18.8829 6.45129 18.9698 6.30104 19.0037 6.17229C18.9311 6.39763 18.936 6.81621 19.134 6.92354C18.9746 6.50496 19.5639 6.16154 19.1582 5.67863C19.1003 5.79667 18.9167 6.00592 18.7525 6.00059V6.00054ZM17.7673 5.60888C17.8157 5.68938 17.864 5.89329 17.8205 6.00596C17.9171 5.94159 18.0572 5.77525 18.1006 5.66254C18.2986 5.69475 18.3758 5.96838 18.1876 6.08646C18.3035 6.08646 18.5015 6.08646 18.6125 5.94159C18.4774 5.77521 18.0572 5.51763 17.7673 5.60888Z" fill="white" stroke="black" stroke-width="0.4168"/>
<path d="M14.7633 4.8386C14.7321 4.80693 14.6793 4.77689 14.5847 4.75526C14.2923 4.68864 14.4433 4.3958 14.6922 4.39843C15.2233 3.75451 15.5216 4.25089 16.1687 4.04697C16.3952 3.97564 16.5507 3.99672 16.6741 4.05601C16.9638 3.84143 17.3037 3.90135 17.5501 4.15355C17.5775 4.10522 17.6142 4.06826 17.6658 4.0523C17.8927 3.9823 18.0762 4.1973 18.139 4.4763C18.3158 4.43989 18.5178 4.53714 18.6507 4.6713C18.8347 4.5663 18.9614 4.56164 19.0081 4.66964C19.1723 4.58376 19.3851 4.52993 19.4913 4.81968C19.5976 5.10943 19.2402 5.0236 19.1822 5.6353C19.1465 6.01268 18.767 6.16118 18.4675 5.9358C17.9885 5.57526 17.521 5.51726 17.2891 6.06455C17.0573 6.61193 16.8757 6.92993 16.3136 6.75143C16.1108 6.68701 15.85 6.77289 15.6858 7.01972C15.5216 7.26655 15.2705 7.0358 14.9711 7.06264C15.3477 6.99826 15.2035 6.89297 15.5313 6.86947C15.8307 6.84801 15.7535 6.5368 15.9466 6.49384C15.1932 6.70851 15.2222 6.39726 14.6041 6.61189C14.8745 6.22555 15.2995 6.44022 15.512 6.2148C14.9517 6.2041 14.7012 5.79743 14.4495 5.96801C14.0535 6.2363 14.2272 7.00018 13.1939 6.93385C12.6916 6.90168 12.3728 6.97676 12.0735 7.30951C12.5951 6.10755 13.3046 6.76785 13.6478 6.3866C13.8507 6.16118 14.0052 5.98947 14.1115 5.77485C14.1488 5.69926 14.1995 5.6561 14.2627 5.63943C13.4031 5.33889 13.9229 4.8708 14.7633 4.83864V4.8386Z" fill="white" stroke="black" stroke-width="0.4168"/>
<path d="M19.0077 4.66992C19.0208 4.70009 19.0276 4.73926 19.0276 4.78767C19.0276 5.02376 18.7088 5.03451 18.6895 5.3833C18.6794 5.56576 18.6606 5.66771 18.5494 5.64621C18.4384 5.62476 18.3418 5.43163 18.448 5.20621" fill="white"/>
<path d="M19.0077 4.66992C19.0208 4.70009 19.0276 4.73926 19.0276 4.78767C19.0276 5.02376 18.7088 5.03451 18.6895 5.3833C18.6794 5.56576 18.6606 5.66771 18.5494 5.64621C18.4384 5.62476 18.3418 5.43163 18.448 5.20621" stroke="black" stroke-width="0.4168" stroke-linecap="round"/>
<path d="M14.9227 4.48735C14.8427 4.4249 14.7627 4.39952 14.6909 4.39877L14.9227 4.48735ZM16.6723 4.05469C16.928 4.17773 17.0527 4.4729 17.4243 4.48735C17.7819 4.50131 18.0039 5.0776 18.6027 4.70198C18.6189 4.69181 18.6348 4.68231 18.6501 4.67352M17.5501 4.15402C17.4967 4.24831 17.4846 4.37998 17.4992 4.49548L17.5501 4.15402ZM16.3813 5.36735C15.9274 5.36735 15.8114 5.6249 15.8114 5.87177C15.8114 6.1186 16.0239 6.44052 16.4007 6.44052C16.7773 6.44052 16.9801 6.18302 16.9801 5.90394C16.9801 5.6249 16.7483 5.36735 16.3813 5.36735Z" fill="white"/>
<path d="M14.9227 4.48735C14.8427 4.4249 14.7627 4.39952 14.6909 4.39877M16.6723 4.05469C16.928 4.17773 17.0527 4.4729 17.4243 4.48735C17.7819 4.50131 18.0039 5.0776 18.6027 4.70198C18.6189 4.69181 18.6348 4.68231 18.6501 4.67352M17.5501 4.15402C17.4967 4.24831 17.4846 4.37998 17.4992 4.49548M16.3813 5.36735C15.9274 5.36735 15.8114 5.6249 15.8114 5.87177C15.8114 6.1186 16.0239 6.44052 16.4007 6.44052C16.7773 6.44052 16.9801 6.18302 16.9801 5.90394C16.9801 5.6249 16.7483 5.36735 16.3813 5.36735V5.36735Z" stroke="black" stroke-width="0.4168"/>
<path d="M16.4631 6.4302C16.4535 6.2907 16.2265 6.31216 16.2361 6.20482C16.2457 6.09749 16.3618 6.05457 16.3618 5.90432C16.3618 5.75407 16.5645 5.74337 16.6321 5.86141C16.6998 5.97945 16.9026 6.21016 16.9461 6.09216M16.6323 5.86153C16.5261 5.97957 16.4778 6.22103 16.6178 6.40887L16.6323 5.86153ZM16.7772 6.04387C16.7435 6.12437 16.7338 6.24778 16.7725 6.32291L16.7772 6.04387Z" fill="white"/>
<path d="M16.4631 6.4302C16.4535 6.2907 16.2265 6.31216 16.2361 6.20482C16.2457 6.09749 16.3618 6.05457 16.3618 5.90432C16.3618 5.75407 16.5645 5.74337 16.6321 5.86141C16.6998 5.97945 16.9026 6.21016 16.9461 6.09216M16.6323 5.86153C16.5261 5.97957 16.4778 6.22103 16.6178 6.40887M16.7772 6.04387C16.7435 6.12437 16.7338 6.24778 16.7725 6.32291" stroke="black" stroke-width="0.4168"/>
<path d="M18.5809 5.64905C18.9359 5.68126 18.9963 5.24655 18.7307 5.2198M18.1441 4.47672C18.021 4.30234 17.7385 4.2433 17.7336 4.61355" stroke="black" stroke-width="0.4168"/>
<path d="M17.6998 5.03516C17.5791 4.70245 17.27 4.65416 17.1057 4.82053C16.9691 4.95895 16.9657 5.31953 17.2603 5.3947C17.3617 5.26053 17.5597 5.08345 17.6998 5.0352V5.03516ZM17.5669 4.82582C17.393 4.65411 17.1371 4.97874 17.3689 5.27657L17.5669 4.82582ZM14.2594 5.63882C14.3758 5.60811 14.5459 5.67141 14.8068 5.80774C14.9711 5.89357 15.4637 6.07607 15.7727 5.89357C15.4539 6.02236 15.2126 5.48578 14.9711 5.55016C14.7296 5.61457 14.2877 5.71382 14.1018 5.51795C14.5557 5.55016 14.7998 5.15057 15.3187 5.49649C15.4637 5.59307 15.6472 5.65749 15.8113 5.64674C15.3864 5.07795 14.8262 5.44282 14.7682 4.98136C15.0242 5.28724 15.6495 4.91161 15.9683 5.48578M14.86 5.06716C14.8003 4.98453 14.8273 4.90216 14.7632 4.83699L14.86 5.06716Z" fill="white"/>
<path d="M17.5669 4.82582C17.393 4.65411 17.1371 4.97874 17.3689 5.27657M14.2594 5.63882C14.3758 5.60811 14.5459 5.67141 14.8068 5.80774C14.9711 5.89357 15.4637 6.07607 15.7727 5.89357C15.4539 6.02236 15.2126 5.48578 14.9711 5.55016C14.7296 5.61457 14.2877 5.71382 14.1018 5.51795C14.5557 5.55016 14.7998 5.15057 15.3187 5.49649C15.4637 5.59307 15.6472 5.65749 15.8113 5.64674C15.3864 5.07795 14.8262 5.44282 14.7682 4.98136C15.0242 5.28724 15.6495 4.91161 15.9683 5.48578M14.86 5.06716C14.8003 4.98453 14.8273 4.90216 14.7632 4.83699M17.6998 5.03516C17.5791 4.70245 17.27 4.65416 17.1057 4.82053C16.9691 4.95895 16.9657 5.31953 17.2603 5.3947C17.3617 5.26053 17.5597 5.08345 17.6998 5.0352V5.03516Z" stroke="black" stroke-width="0.4168"/>
<path d="M18.1441 4.47642C18.0378 4.35034 17.806 4.44959 17.8712 4.7045C17.922 4.58646 18.0306 4.48717 18.1441 4.47642ZM17.4874 5.16375C17.5605 5.10475 17.636 5.0563 17.6996 5.03438C17.6649 4.93888 17.6148 4.86684 17.5569 4.81655C17.5016 4.77413 17.3429 5.01134 17.4874 5.16375Z" fill="black"/>
<path d="M17.2021 4.72866C17.0282 4.59991 16.8689 4.61061 16.8157 4.71795C16.6902 4.71253 16.5864 4.81453 16.5815 5.01841M16.8496 5.10432C16.642 4.94603 16.357 5.00507 16.3764 5.35924M16.2508 5.56032C16.3522 5.46907 16.4971 5.4047 16.6082 5.5657M17.8012 5.21166C17.7626 5.27066 17.7336 5.36191 17.7963 5.50141C17.7191 5.38874 17.526 5.38874 17.3182 5.6892M18.2599 5.19566C18.0088 5.22786 18.0136 5.41028 18.2164 5.49078M16.4731 4.51399C16.2606 4.4657 16.1061 4.60524 16.4007 4.72328M16.8787 4.35299C16.5792 4.27249 16.4585 4.35836 16.5937 4.43349M16.0141 5.68932C16.0045 5.80736 16.0624 5.96299 16.2362 5.7859M16.0723 6.04332C16.0723 6.07553 16.0674 6.11307 16.048 6.13991M15.3766 4.47099C15.1931 4.41195 15.1594 4.22416 15.3718 4.24024M15.3139 4.90566C15.111 4.83053 15.111 4.61053 15.28 4.63199M15.6907 4.79299C15.4541 4.72857 15.4444 4.54616 15.6232 4.57299M15.7195 4.23499C15.594 4.22428 15.4008 4.37986 15.7244 4.47111M16.0723 4.54632C15.7777 4.49803 15.7825 4.63216 15.9563 4.71803M16.2943 4.23499C16.0673 4.1867 15.99 4.33695 16.1446 4.40132M15.5797 5.16332C15.5241 5.11236 15.4783 4.8682 15.7438 4.94066M16.1302 5.08832C15.9516 5.03466 15.7826 5.22782 15.9467 5.34053M16.3666 4.85766C16.1784 4.82007 16.019 4.87911 16.1203 4.95424" stroke="black" stroke-width="0.4168" stroke-linecap="round"/>
<path d="M18.1337 4.47656C18.0276 4.4984 17.9325 4.56769 17.8708 4.70456L18.1337 4.47656Z" fill="white"/>
<path d="M18.1337 4.47656C18.0276 4.4984 17.9325 4.56769 17.8708 4.70456" stroke="black" stroke-width="0.4168"/>
</g>
<defs>
<clipPath id="clip0_275_23238">
<rect width="24" height="20" rx="4" fill="white"/>
</clipPath>
</defs>
</svg>
