<svg width="24" height="20" viewBox="0 0 24 20" fill="none" xmlns="http://www.w3.org/2000/svg">
<g clip-path="url(#clip0_275_23279)">
<path d="M0 0H24V20H0V0Z" fill="#F7E017"/>
<path d="M0 1.38867V10.2776L24 14.4443V9.72201L0 1.38867Z" fill="white"/>
<path d="M0 6.11133V10.278L24 18.6113V14.4447L0 6.11133Z" fill="black"/>
<path d="M11.3938 15.8263C10.9098 15.7549 10.466 15.5838 10.1578 15.3494C10.098 15.3038 10.0418 15.2666 10.033 15.2666C10.024 15.2666 10.0168 15.3171 10.0168 15.3796C10.0168 15.5566 9.95276 15.6458 9.79176 15.6921C9.63776 15.7366 9.40276 15.6469 9.21226 15.4713C9.01501 15.2894 8.78726 15.1505 8.59451 15.0949C8.43575 15.0488 8.225 15.0563 8.07275 15.113C8.002 15.1394 7.9215 15.1766 7.8935 15.1958C7.86575 15.2149 7.8345 15.2305 7.8245 15.2305C7.7975 15.2305 7.80125 15.0402 7.8295 14.9794C7.86675 14.8996 7.9585 14.821 8.0655 14.7777C8.1195 14.7558 8.16375 14.7277 8.16375 14.7152C8.16375 14.7027 8.1455 14.6569 8.12325 14.6138C8.05075 14.4727 8.0805 14.336 8.207 14.2285C8.3365 14.1185 8.55575 14.0996 8.74951 14.1816C8.79826 14.2021 8.84376 14.2191 8.85051 14.2191C8.87601 14.2191 8.86051 14.1794 8.79026 14.0658C8.70926 13.9341 8.69326 13.8691 8.70326 13.7124C8.71626 13.5141 8.86176 13.3519 9.04001 13.3374C9.18551 13.3257 9.27601 13.3802 9.49076 13.6074C10.132 14.2869 10.8293 14.6613 11.6425 14.7627C11.8478 14.7883 12.2608 14.7746 12.503 14.7341C13.2348 14.6116 13.972 14.2027 14.5478 13.6002C14.7073 13.4332 14.784 13.3891 14.9148 13.3885C15.0285 13.388 15.1083 13.4288 15.1898 13.5288C15.264 13.6205 15.2893 13.7074 15.2813 13.8466C15.276 13.9358 15.263 13.9796 15.2153 14.066C15.1448 14.1935 15.1568 14.2052 15.2963 14.1452C15.4848 14.0635 15.717 14.1013 15.8423 14.2335C15.9525 14.3499 15.963 14.4663 15.8773 14.6241C15.846 14.6819 15.8205 14.736 15.8205 14.7446C15.8205 14.7605 15.8443 14.768 15.9588 14.7885C16.1085 14.8152 16.1943 14.9388 16.1943 15.1277C16.1943 15.1844 16.188 15.2305 16.1803 15.2305C16.1728 15.2305 16.116 15.2074 16.0543 15.1791C15.8798 15.0991 15.7805 15.0785 15.5765 15.0799C15.4213 15.081 15.3678 15.0891 15.2595 15.1283C15.0938 15.1885 14.9165 15.3046 14.772 15.4477C14.6128 15.6055 14.5125 15.6552 14.3575 15.6538C14.2135 15.6521 14.115 15.6058 14.063 15.5144C14.0353 15.4655 14.0313 15.4358 14.038 15.3252C14.0425 15.2533 14.0415 15.1944 14.0363 15.1944C14.0308 15.1944 13.9748 15.2338 13.9115 15.2824C13.7455 15.4091 13.6398 15.4719 13.4498 15.5555C12.8703 15.8102 12.034 15.9205 11.3938 15.8263Z" fill="#CF1126"/>
<path d="M11.6587 14.5889C10.6942 14.4861 9.77132 13.9279 9.21019 13.0429C8.60094 12.1197 8.40893 10.9007 8.59491 9.7862C8.69376 9.27878 8.89314 8.77103 9.23351 8.4097C8.96226 9.04867 8.87061 9.78106 9.01526 10.4733C9.24001 11.8554 10.2912 13.0253 11.5488 13.2277C12.0463 13.3877 12.561 13.2187 13.0362 13.0473C14.0846 12.6367 14.8832 11.5311 14.9806 10.2951C15.064 9.62626 14.9716 8.93081 14.7004 8.3252C14.855 8.416 15.0501 8.77206 15.1652 9.0115C15.5652 9.8727 15.5835 10.9047 15.348 11.8237C15.0285 12.9931 14.2239 14.0176 13.1602 14.3899C12.6775 14.5651 12.1642 14.6186 11.6588 14.589L11.6587 14.5889Z" fill="#CF1126"/>
<path d="M6.80038 13.0539C6.73718 13.0429 6.66748 13.112 6.69131 13.1844C6.73688 13.2575 6.81541 13.2933 6.88626 13.3283C7.05606 13.4039 7.24076 13.4333 7.42304 13.4284C7.36021 13.4282 7.44461 13.4291 7.46809 13.4284C7.61244 13.4289 7.75599 13.4 7.89169 13.3456C7.96714 13.3161 8.06329 13.2894 8.09419 13.1966C8.12436 13.1362 8.06969 13.0759 8.01456 13.088C7.93776 13.1066 7.86596 13.1453 7.78981 13.1674C7.62551 13.2189 7.45246 13.2388 7.28223 13.2233C7.15773 13.2064 7.03713 13.1621 6.92198 13.1082C6.88206 13.0886 6.84458 13.06 6.80036 13.0539H6.80038Z" fill="#CF1126"/>
<path d="M6.87066 12.7656C6.80676 12.755 6.75171 12.8367 6.77836 12.9019C6.82749 12.981 6.91004 13.0232 6.98726 13.0602C7.12151 13.1199 7.26736 13.1449 7.41164 13.1401C7.35686 13.1399 7.43046 13.1408 7.45076 13.1401C7.57362 13.1401 7.69529 13.1134 7.80889 13.0614C7.87824 13.0315 7.96314 13.0024 7.99202 12.9176C8.01442 12.871 7.99732 12.8033 7.94452 12.7996C7.89629 12.797 7.85469 12.8311 7.81007 12.8464C7.64794 12.9209 7.46951 12.9524 7.29471 12.9357C7.18579 12.9201 7.08171 12.8754 6.98296 12.8237C6.94584 12.8038 6.91246 12.7727 6.87069 12.7656H6.87066Z" fill="#CF1126"/>
<path d="M6.95717 12.4888C6.90242 12.4815 6.86472 12.5502 6.87395 12.605C6.88212 12.6531 6.92102 12.6855 6.9532 12.715C7.0864 12.8233 7.25525 12.8694 7.41883 12.8633C7.3553 12.8631 7.50408 12.8645 7.4587 12.8631C7.5623 12.8627 7.66465 12.8345 7.75785 12.7847C7.82008 12.7546 7.89313 12.7198 7.9141 12.6408C7.92413 12.6041 7.9304 12.5512 7.89308 12.5306C7.85398 12.5063 7.81515 12.5436 7.7796 12.5588C7.65988 12.6265 7.52648 12.6642 7.39193 12.6635C7.27568 12.6678 7.1661 12.6135 7.06522 12.5549C7.02862 12.5342 6.99847 12.4982 6.9572 12.4888H6.95717Z" fill="#CF1126"/>
<path d="M6.03833 8.40918C5.9569 8.49974 6.01908 8.66671 6.01468 8.78538C6.05688 9.15088 6.1093 9.52105 6.2321 9.8651C6.38248 10.2013 6.70186 10.381 6.89543 10.6781C6.96461 10.8213 6.94006 10.9935 6.95463 11.1502C6.96608 11.577 6.96253 12.0041 6.95581 12.431C7.12928 12.5278 7.31766 12.6251 7.51721 12.5879C7.63546 12.5565 7.85501 12.537 7.87961 12.4061C7.87004 11.67 7.86386 10.9336 7.85504 10.1976C7.78779 9.9721 7.58126 9.85541 7.42681 9.7111C7.29945 9.57129 7.18093 9.42187 7.07211 9.26391C7.00656 9.14121 6.75041 9.09699 6.84308 9.31049C6.89741 9.49532 7.03608 9.63299 7.07081 9.82721C7.07838 9.93363 7.19273 10.1294 7.09513 10.1915C7.03303 10.0742 6.94308 9.97441 6.82808 9.91488C6.71728 9.8231 6.5341 9.78488 6.4941 9.62274C6.46473 9.39274 6.35873 9.18435 6.22193 9.01202C6.25718 8.80546 6.22205 8.5471 6.06135 8.41507L6.03833 8.40918Z" fill="#CF1126"/>
<path d="M6.28592 8.4502C6.21185 8.46347 6.21437 8.56836 6.24865 8.6235C6.2851 8.74261 6.29502 8.87198 6.2753 8.99598C6.40698 9.16725 6.50898 9.37217 6.5397 9.59709C6.54045 9.68165 6.62053 9.70962 6.67243 9.7514C6.7942 9.83756 6.93113 9.90004 7.03958 10.0079C7.0624 10.035 7.07963 10.0642 7.0635 10.0088C7.04658 9.93809 7.03785 9.86001 6.98798 9.80648C6.9196 9.72481 6.83423 9.65195 6.73465 9.62703C6.72635 9.51276 6.67735 9.40778 6.6321 9.3067C6.58195 9.21006 6.52955 9.10653 6.4436 9.04387C6.44705 8.87448 6.44455 8.69678 6.37895 8.54047C6.3597 8.50031 6.33137 8.45261 6.28595 8.4502H6.28592Z" fill="#CF1126"/>
<path d="M6.49312 8.51855C6.44152 8.53558 6.45137 8.60631 6.46772 8.64956C6.49244 8.76944 6.49632 8.89328 6.49429 9.01578C6.58907 9.09911 6.64837 9.21995 6.70234 9.33764C6.73617 9.41625 6.76824 9.49739 6.78122 9.58389C6.85812 9.61217 6.92542 9.66573 6.98549 9.72492C6.96169 9.64487 6.90859 9.58289 6.87289 9.50981C6.83412 9.43378 6.79707 9.35448 6.78064 9.26834C6.70669 9.18064 6.66597 9.05639 6.68212 8.93633C6.68544 8.80367 6.64687 8.66661 6.56697 8.56661C6.54684 8.54458 6.52282 8.52022 6.49312 8.51855Z" fill="#CF1126"/>
<path d="M6.72895 8.5559C6.70089 8.5614 6.68382 8.59106 6.66879 8.61526C6.66297 8.63951 6.68972 8.66559 6.69399 8.69193C6.72693 8.7838 6.73908 8.88324 6.7294 8.98154C6.72725 9.05104 6.74962 9.11893 6.7815 9.17779C6.7907 9.13437 6.8269 9.10315 6.86615 9.0989C6.88042 9.09609 6.90142 9.10412 6.8931 9.07993C6.88312 8.94698 6.8649 8.81332 6.8231 8.6877C6.80687 8.64287 6.78847 8.59565 6.7535 8.56493C6.74639 8.55934 6.73792 8.55454 6.72895 8.5559Z" fill="#CF1126"/>
<path d="M17.1996 13.0539C17.2628 13.0429 17.3325 13.112 17.3087 13.1844C17.2631 13.2575 17.1846 13.2933 17.1137 13.3283C16.9439 13.4039 16.7592 13.4333 16.577 13.4284C16.6398 13.4282 16.5554 13.4291 16.5319 13.4284C16.3876 13.4289 16.244 13.4 16.1083 13.3456C16.0329 13.3161 15.9367 13.2894 15.9058 13.1966C15.8756 13.1362 15.9303 13.0759 15.9854 13.088C16.0622 13.1066 16.134 13.1453 16.2102 13.1674C16.3745 13.2189 16.5475 13.2388 16.7178 13.2233C16.8423 13.2064 16.9629 13.1621 17.078 13.1082C17.1179 13.0886 17.1554 13.06 17.1996 13.0539H17.1996Z" fill="#CF1126"/>
<path d="M17.1293 12.7656C17.1932 12.755 17.2483 12.8367 17.2216 12.9019C17.1725 12.981 17.09 13.0232 17.0127 13.0602C16.8785 13.1199 16.7326 13.1449 16.5884 13.1401C16.6431 13.1399 16.5695 13.1408 16.5492 13.1401C16.4264 13.1401 16.3047 13.1134 16.1911 13.0614C16.1218 13.0315 16.0369 13.0024 16.008 12.9176C15.9856 12.871 16.0027 12.8033 16.0555 12.7996C16.1037 12.797 16.1453 12.8311 16.1899 12.8464C16.3521 12.9209 16.5305 12.9524 16.7053 12.9357C16.8142 12.9201 16.9183 12.8754 17.017 12.8237C17.0542 12.8038 17.0875 12.7727 17.1293 12.7656H17.1293Z" fill="#CF1126"/>
<path d="M17.0428 12.4888C17.0976 12.4815 17.1353 12.5502 17.1261 12.605C17.1179 12.6531 17.079 12.6855 17.0468 12.715C16.9136 12.8233 16.7447 12.8694 16.5812 12.8633C16.6447 12.8631 16.4959 12.8645 16.5413 12.8631C16.4377 12.8627 16.3353 12.8345 16.2421 12.7847C16.1799 12.7546 16.1069 12.7198 16.0859 12.6408C16.0759 12.6041 16.0696 12.5512 16.1069 12.5306C16.146 12.5063 16.1848 12.5436 16.2204 12.5588C16.3401 12.6265 16.4735 12.6642 16.6081 12.6635C16.7243 12.6678 16.8339 12.6135 16.9348 12.5549C16.9714 12.5342 17.0015 12.4982 17.0428 12.4888H17.0428Z" fill="#CF1126"/>
<path d="M17.9617 8.40918C18.0431 8.49974 17.9809 8.66671 17.9853 8.78538C17.9431 9.15088 17.8907 9.52105 17.7679 9.8651C17.6175 10.2013 17.2981 10.381 17.1046 10.6781C17.0354 10.8213 17.0599 10.9935 17.0454 11.1502C17.0339 11.577 17.0375 12.0041 17.0442 12.431C16.8707 12.5278 16.6823 12.6251 16.4828 12.5879C16.3645 12.5565 16.145 12.537 16.1204 12.4061C16.13 11.67 16.1361 10.9336 16.145 10.1976C16.2122 9.9721 16.4187 9.85541 16.5732 9.7111C16.7006 9.57129 16.8191 9.42187 16.9279 9.26391C16.9934 9.14121 17.2496 9.09699 17.1569 9.31049C17.1026 9.49532 16.9639 9.63299 16.9292 9.82721C16.9216 9.93363 16.8073 10.1294 16.9049 10.1915C16.967 10.0742 17.0569 9.97441 17.1719 9.91488C17.2827 9.8231 17.4659 9.78488 17.5059 9.62274C17.5353 9.39274 17.6413 9.18435 17.7781 9.01202C17.7428 8.80546 17.7779 8.5471 17.9386 8.41507L17.9617 8.40918Z" fill="#CF1126"/>
<path d="M17.7141 8.4502C17.7882 8.46347 17.7856 8.56836 17.7514 8.6235C17.7149 8.74261 17.705 8.87198 17.7247 8.99598C17.593 9.16725 17.491 9.37217 17.4603 9.59709C17.4595 9.68165 17.3795 9.70962 17.3276 9.7514C17.2058 9.83756 17.0689 9.90004 16.9604 10.0079C16.9376 10.035 16.9204 10.0642 16.9365 10.0088C16.9534 9.93809 16.9621 9.86001 17.012 9.80648C17.0804 9.72481 17.1658 9.65195 17.2653 9.62703C17.2736 9.51276 17.3226 9.40778 17.3679 9.3067C17.418 9.21006 17.4704 9.10653 17.5564 9.04387C17.5529 8.87448 17.5554 8.69678 17.6211 8.54047C17.6403 8.50031 17.6686 8.45261 17.7141 8.4502H17.7141Z" fill="#CF1126"/>
<path d="M17.5069 8.51855C17.5585 8.53558 17.5486 8.60631 17.5323 8.64956C17.5076 8.76944 17.5037 8.89328 17.5057 9.01578C17.4109 9.09911 17.3516 9.21995 17.2977 9.33764C17.2638 9.41625 17.2318 9.49739 17.2188 9.58389C17.1419 9.61217 17.0746 9.66573 17.0145 9.72492C17.0383 9.64487 17.0914 9.58289 17.1271 9.50981C17.1659 9.43378 17.2029 9.35448 17.2194 9.26834C17.2933 9.18064 17.334 9.05639 17.3179 8.93633C17.3146 8.80367 17.3531 8.66661 17.433 8.56661C17.4532 8.54458 17.4772 8.52022 17.5069 8.51855Z" fill="#CF1126"/>
<path d="M17.2711 8.5559C17.2991 8.5614 17.3162 8.59106 17.3312 8.61526C17.337 8.63951 17.3103 8.66559 17.306 8.69193C17.2731 8.7838 17.2609 8.88324 17.2706 8.98154C17.2728 9.05104 17.2504 9.11893 17.2185 9.17779C17.2093 9.13437 17.1731 9.10315 17.1339 9.0989C17.1196 9.09609 17.0986 9.10412 17.1069 9.07993C17.1169 8.94698 17.1351 8.81332 17.1769 8.6877C17.1931 8.64287 17.2115 8.59565 17.2465 8.56493C17.2536 8.55934 17.2621 8.55454 17.2711 8.5559Z" fill="#CF1126"/>
<path d="M11.8917 13.2219C11.5544 13.1862 11.25 12.913 11.146 12.5552C11.1516 12.4936 11.2207 12.5897 11.2533 12.5962C11.3145 12.6339 11.3808 12.6651 11.4513 12.6699C11.5402 12.7124 11.5952 12.8097 11.6801 12.8605C11.7195 12.8946 11.859 12.9616 11.8331 12.8532C11.8004 12.7965 11.7779 12.7247 11.806 12.6598C11.8533 12.5445 11.9261 12.4442 11.9993 12.348C12.0531 12.328 12.0892 12.4459 12.1277 12.4857C12.1809 12.5767 12.2452 12.6879 12.2138 12.801C12.1833 12.8429 12.1633 12.969 12.2449 12.9266C12.3454 12.8774 12.4278 12.7949 12.5111 12.7178C12.5841 12.6612 12.6775 12.6572 12.754 12.6075C12.7894 12.5975 12.8632 12.5188 12.8786 12.5624C12.8367 12.6871 12.7666 12.7987 12.6916 12.9016C12.5701 13.0558 12.4058 13.1718 12.2219 13.2045C12.1133 13.2266 12.0017 13.2312 11.8917 13.2219V13.2219Z" fill="#CF1126"/>
<path d="M12.2883 12.7842C12.2958 12.7089 12.2803 12.6321 12.2458 12.5637C12.1927 12.4436 12.1177 12.3369 12.0446 12.2315C11.9757 12.1866 11.9374 12.3331 11.8916 12.3751C11.8202 12.4939 11.7305 12.6156 11.7262 12.765C11.686 12.8345 11.6111 12.7084 11.5788 12.6668C11.5171 12.5699 11.4704 12.4552 11.478 12.3339C11.4707 12.1384 11.5045 11.9438 11.5685 11.7622C11.6169 11.6071 11.6954 11.4564 11.6875 11.287C11.6931 11.1595 11.6698 11.0187 11.5768 10.933C11.4884 10.8559 11.6341 10.8394 11.6804 10.8794C11.7596 10.8853 11.8024 11.0308 11.8748 10.9948C11.9036 10.9188 11.9094 10.8282 11.9688 10.7689C12.0271 10.6802 12.0881 10.8066 12.1081 10.8658C12.1493 10.9178 12.1058 11.0466 12.1726 11.0499C12.2528 10.9875 12.3099 10.8827 12.4124 10.8598C12.454 10.8335 12.525 10.8563 12.4702 10.9094C12.3944 10.9884 12.3296 11.0872 12.3157 11.2047C12.2925 11.3521 12.3257 11.5016 12.3836 11.6344C12.4947 11.8952 12.5807 12.1899 12.5245 12.4801C12.4984 12.6091 12.4195 12.7202 12.3237 12.7951C12.3116 12.8032 12.2924 12.8027 12.2883 12.7842Z" fill="#CF1126"/>
<path d="M12.1683 10.8236C12.1319 10.7507 12.0877 10.6789 12.0265 10.6293C11.967 10.6291 11.9303 10.7126 11.8898 10.7563C11.8615 10.8149 11.827 10.9129 11.7572 10.8363C11.6461 10.7642 11.6264 10.6064 11.6271 10.4763C11.6201 10.2655 11.6966 10.0687 11.7644 9.87668C11.8076 9.75646 11.797 9.62115 11.7706 9.49796C11.7375 9.35651 11.6353 9.25843 11.5566 9.14809C11.562 9.10543 11.6625 9.12873 11.7003 9.13684C11.7843 9.16051 11.8345 9.24309 11.8971 9.30146C11.9416 9.28646 11.9235 9.18646 11.9442 9.13943C11.9457 9.07326 12.025 8.98604 12.0577 9.08076C12.1067 9.14098 12.0562 9.26034 12.1194 9.29784C12.1797 9.27304 12.2094 9.19982 12.2661 9.16673C12.3218 9.12451 12.4005 9.11979 12.4605 9.15293C12.4817 9.2144 12.3945 9.26557 12.3693 9.31896C12.268 9.45801 12.2324 9.64979 12.2758 9.82207C12.3102 9.95721 12.3711 10.0833 12.3922 10.223C12.4175 10.38 12.4167 10.545 12.3801 10.6997C12.3582 10.7936 12.285 10.8564 12.2094 10.8954C12.1908 10.8761 12.1809 10.8477 12.1683 10.8236V10.8236Z" fill="#CF1126"/>
<path d="M11.7903 9.08047C11.7063 9.01213 11.6786 8.94685 11.6786 8.81769C11.6786 8.75157 11.6896 8.71574 11.7288 8.65574C11.7866 8.56685 11.7761 8.53879 11.6943 8.56491C11.5628 8.60685 11.5001 8.56852 11.4956 8.44407C11.4936 8.38324 11.5051 8.35741 11.5788 8.25907C11.6378 8.18018 11.6593 8.13879 11.6476 8.12574C11.6361 8.11296 11.5663 8.18018 11.4231 8.34213C11.3088 8.47129 11.1803 8.60324 11.1376 8.63546C10.8916 8.81991 10.6566 8.84852 10.5493 8.70657C10.4943 8.63407 10.4973 8.59324 10.5608 8.54935C10.5901 8.52935 10.6393 8.48324 10.6706 8.44685C10.7443 8.36157 10.9641 8.18546 11.0731 8.12435C11.1616 8.07463 11.1826 8.04102 11.1251 8.04102C11.0506 8.04102 10.8116 8.21379 10.6303 8.39879C10.5771 8.45352 10.5003 8.51435 10.4601 8.53407C10.3696 8.57852 10.1918 8.59491 10.1128 8.56602C10.0571 8.54546 9.95533 8.4388 9.95533 8.40074C9.95533 8.39074 9.97858 8.36852 10.0068 8.35157C10.0351 8.33491 10.0858 8.29407 10.1193 8.26157C10.2643 8.12018 10.5391 7.97463 10.7571 7.92379C10.8263 7.90768 10.8008 7.86879 10.7236 7.87268C10.5738 7.8799 10.2766 8.03463 10.0991 8.1974C9.89108 8.38796 9.57733 8.36991 9.47632 8.16157C9.45882 8.12574 9.44858 8.09213 9.45358 8.08685C9.45833 8.08157 9.52008 8.06102 9.59083 8.04102C9.66733 8.01963 9.81883 7.9499 9.96358 7.86962C10.1913 7.74351 10.2588 7.71657 10.4156 7.68851C10.4861 7.67601 10.4898 7.63768 10.4213 7.62879C10.3331 7.61712 10.1978 7.66629 9.95883 7.79685C9.65183 7.96463 9.56582 7.99351 9.40407 7.98296C9.25657 7.97296 9.17332 7.93101 9.05357 7.80518C8.97532 7.72268 8.86432 7.51323 8.88607 7.48907C8.89132 7.48323 8.92732 7.48907 8.96607 7.50157C9.00907 7.51573 9.13232 7.52518 9.28082 7.52546C9.48857 7.52601 9.54383 7.5199 9.65458 7.48435C9.83983 7.4249 10.0861 7.28573 10.2546 7.14601C10.5768 6.87823 10.8396 6.77073 11.1746 6.76906C11.4838 6.76768 11.6806 6.84712 11.8548 7.04351C11.9138 7.1099 11.9641 7.15296 11.9723 7.14379C11.9801 7.13518 11.9886 7.01907 11.9911 6.88573C11.9911 6.88573 12.0821 6.87601 12.1013 6.90434C12.1013 7.12073 12.1036 7.13768 12.1318 7.13768C12.1503 7.13768 12.1701 7.11657 12.1823 7.08379C12.2088 7.01295 12.3068 6.91601 12.4116 6.85712C12.6378 6.72962 13.0293 6.72573 13.3438 6.84768C13.4763 6.89934 13.6233 6.99157 13.7633 7.11157C13.9038 7.23157 14.1911 7.39212 14.3608 7.44573C14.5326 7.4999 14.8354 7.51351 14.9906 7.47435C15.0546 7.45823 15.1146 7.4449 15.1241 7.4449C15.1814 7.4449 15.0839 7.65685 14.9694 7.78101C14.7601 8.00824 14.4878 8.00713 14.1048 7.77768C13.8661 7.6349 13.5806 7.55685 13.5806 7.63462C13.5806 7.65074 13.5956 7.66157 13.6178 7.66157C13.7008 7.66157 13.8611 7.72351 14.0846 7.84129C14.3263 7.96907 14.4621 8.02296 14.5426 8.02296C14.6011 8.02296 14.6028 8.06324 14.5483 8.15213C14.4906 8.24685 14.3926 8.29379 14.2541 8.29352C14.1218 8.29296 14.0483 8.26074 13.9301 8.15157C13.7323 7.96879 13.2396 7.7649 13.2586 7.87379C13.2623 7.89546 13.2861 7.90879 13.3368 7.9174C13.5083 7.94657 13.7096 8.05324 13.9156 8.22463C13.9791 8.27768 14.0451 8.32991 14.0618 8.34102C14.0901 8.35935 14.0906 8.36491 14.0683 8.41129C14.0313 8.48796 13.9381 8.54741 13.8371 8.55907C13.7063 8.57407 13.5926 8.53074 13.4748 8.42129C13.2263 8.19018 12.9921 8.02296 12.9171 8.02296C12.8558 8.02296 12.8833 8.06046 12.9913 8.12407C13.1333 8.20768 13.2793 8.32074 13.3868 8.43046C13.4376 8.48268 13.4948 8.53435 13.5138 8.54574C13.5588 8.57241 13.5571 8.61157 13.5076 8.68352C13.4571 8.75685 13.3736 8.78907 13.2653 8.7763C13.0493 8.75102 12.8808 8.63518 12.6161 8.32991C12.5126 8.21074 12.4203 8.11324 12.4108 8.11324C12.3756 8.11324 12.3963 8.16629 12.4646 8.25129C12.5491 8.35629 12.5653 8.41546 12.5333 8.50074C12.5051 8.5763 12.4581 8.5938 12.3616 8.56491C12.2628 8.53518 12.2473 8.56213 12.3121 8.65157C12.4086 8.78519 12.3943 8.9488 12.2761 9.0613C12.2393 9.09602 12.2008 9.12463 12.1903 9.12463C12.1801 9.12463 12.1541 9.09491 12.1323 9.05852C12.0563 8.93019 11.9896 8.93102 11.9156 9.06074C11.8898 9.10602 11.8681 9.14269 11.8673 9.14241C11.8663 9.14213 11.8316 9.11435 11.7903 9.08047Z" fill="#CF1126"/>
<path d="M12.1671 6.47363L12.0388 6.58641L11.9238 6.49002V7.26058L12.1671 7.26391V6.47363Z" fill="#CF1126"/>
<path d="M11.3725 5.67377C11.347 6.03794 11.2637 6.2921 11.1479 6.57238L11.4255 6.28655L11.6185 6.54127L11.8275 6.2821L12.0407 6.50099L12.2457 6.27322L12.4587 6.55016L12.6437 6.32238L12.9572 6.57238C12.8435 6.2921 12.6895 6.0546 12.7087 5.66016C12.405 5.91099 11.6832 5.95627 11.3725 5.67377Z" fill="#CF1126"/>
<path d="M11.924 5.48828C11.8125 5.4905 11.695 5.49217 11.5893 5.51523C11.516 5.53134 11.4495 5.55773 11.394 5.60134C11.403 5.83828 12.419 5.93717 12.6916 5.60578C12.6343 5.55939 12.5643 5.53189 12.4873 5.51523C12.3855 5.49328 12.273 5.49106 12.1663 5.48911C12.1663 5.55411 12.1668 5.61939 12.1668 5.68467L11.924 5.68384V5.48828Z" fill="#CF1126"/>
<path d="M12.1226 4.27734L11.9648 4.27873V5.65041L12.1258 5.65124L12.1226 4.27734Z" fill="#CF1126"/>
<path d="M12.1223 4.31271L12.062 4.96938L12.67 5.29938L12.3623 4.84216L12.7825 4.69077L12.1223 4.31271ZM12.0545 4.1416C11.9623 4.1416 11.894 4.17994 11.894 4.22549C11.894 4.27105 11.9623 4.30966 12.0545 4.30966C12.1468 4.30966 12.2145 4.27105 12.2145 4.22549C12.2145 4.17994 12.1468 4.1416 12.0545 4.1416Z" fill="#CF1126"/>
<path d="M11.7763 15.6613C11.8761 15.6246 11.9329 15.5574 11.9736 15.4279C11.9938 15.3635 12.0076 15.2965 12.0041 15.279C11.9956 15.2376 11.9526 15.2399 11.9051 15.2838C11.8726 15.314 11.8686 15.3293 11.8778 15.391C11.9016 15.5465 11.8519 15.5851 11.5868 15.6168C11.5606 15.6199 11.4846 15.6149 11.4176 15.6057C11.2916 15.5882 11.2466 15.6021 11.2924 15.6443C11.3061 15.6571 11.3411 15.6743 11.3701 15.6824C11.4409 15.7026 11.7006 15.689 11.7763 15.6613ZM12.3256 15.6354C12.3406 15.6201 12.3921 15.5938 12.4401 15.5765C12.5041 15.5538 12.5371 15.5293 12.5641 15.4846C12.6418 15.356 12.6274 15.2451 12.5131 15.0957C12.4511 15.0146 12.4236 15.0168 12.3741 15.1068C12.3313 15.1846 12.3323 15.1896 12.3938 15.2074C12.4261 15.2165 12.4571 15.2429 12.4741 15.2754C12.5411 15.4043 12.5213 15.484 12.4221 15.4849C12.3321 15.4857 12.3073 15.4999 12.2831 15.5646C12.2704 15.5982 12.2601 15.634 12.2601 15.6443C12.2601 15.6715 12.2941 15.6668 12.3256 15.6354ZM12.1453 15.4899C12.1624 15.4388 12.1684 15.3468 12.1663 15.1593C12.1651 15.0165 12.1601 14.8954 12.1551 14.8899C12.1401 14.8732 12.0661 14.9263 12.0563 14.9604C12.0514 14.9782 12.0596 15.0193 12.0746 15.0515C12.0976 15.1013 12.1006 15.1476 12.0936 15.3424C12.0846 15.5885 12.0991 15.6299 12.1453 15.4899Z" fill="#F7E017"/>
<path d="M11.7222 15.373C11.7312 15.3272 11.7427 15.2333 11.7479 15.1647C11.7532 15.0961 11.7659 15.0094 11.776 14.9719C11.8015 14.8758 11.7757 14.8505 11.7074 14.9044L11.6567 14.9447L11.6672 15.0828C11.677 15.2072 11.6592 15.4391 11.6335 15.5291C11.6264 15.553 11.6365 15.5469 11.6647 15.5103C11.6875 15.4808 11.7134 15.4189 11.7222 15.373ZM11.347 15.44C11.4382 15.3551 11.4277 15.2102 11.4479 15.0922C11.4458 15.0137 11.4931 14.9197 11.4626 14.851C11.3773 14.8683 11.3247 14.9581 11.3684 15.0475C11.372 15.1513 11.3687 15.2644 11.3207 15.3562C11.2814 15.4163 11.1571 15.4013 11.1628 15.3162C11.194 15.1882 11.056 15.2505 11.0022 15.2841C10.9606 15.3163 10.8726 15.3186 10.9032 15.238C10.883 15.1306 10.7587 15.1978 10.6911 15.1973C10.6273 15.1961 10.6859 15.0537 10.5943 15.0787C10.4242 15.0638 10.2363 15.0803 10.0891 14.9662C10.0028 14.9201 10.0156 14.8049 10.0605 14.7303C10.1141 14.6286 10.1294 14.5012 10.2145 14.4222C10.2987 14.3325 10.135 14.3703 10.0982 14.4006C10.0161 14.4505 10.0924 14.579 10.0252 14.6503C9.98597 14.7242 9.9343 14.8263 9.84347 14.8122C9.71245 14.7847 9.63696 14.6493 9.54302 14.5586C9.46259 14.5407 9.50781 14.7036 9.54936 14.7379C9.63156 14.8062 9.7276 14.8561 9.82664 14.8856C9.92526 14.8681 9.92845 15.0115 10.0127 15.034C10.1674 15.1141 10.3398 15.1381 10.5086 15.1479C10.5749 15.154 10.5376 15.2852 10.6247 15.2593C10.6734 15.2733 10.7834 15.2391 10.7889 15.302C10.7151 15.3994 10.8598 15.3972 10.9133 15.3798C10.9819 15.3681 11.0695 15.339 11.0876 15.4434C11.1448 15.5105 11.2499 15.5006 11.3196 15.4622C11.3294 15.4559 11.3386 15.4485 11.347 15.44Z" fill="#F7E017"/>
<path d="M9.85307 14.5991C9.88082 14.56 9.92229 14.4808 9.94532 14.423C9.96804 14.365 10.0023 14.2991 10.0211 14.2766C10.0651 14.2239 10.0406 14.1914 9.96954 14.2089C9.93204 14.218 9.91682 14.2333 9.91055 14.2694C9.88929 14.3872 9.85082 14.5078 9.81654 14.5639C9.75455 14.6655 9.75305 14.6697 9.77855 14.6697C9.79179 14.6697 9.82532 14.638 9.85307 14.5991ZM8.91654 13.9469C8.84657 13.9469 8.84357 13.9961 8.91182 14.0225C8.94482 14.0353 8.97279 14.0661 8.99529 14.1164C9.06182 14.2633 9.10082 14.2894 9.27729 14.3064L9.39054 14.3178L9.39605 14.3941C9.39879 14.4364 9.40779 14.4713 9.41657 14.4713C9.4253 14.4713 9.46907 14.4503 9.51332 14.4253C9.5963 14.3786 9.67505 14.2697 9.67505 14.2022C9.67505 14.158 9.60879 14.1103 9.54857 14.1103C9.52179 14.1103 9.47079 14.1341 9.43055 14.1666C9.30455 14.268 9.16982 14.2475 9.09605 14.1155C9.03557 14.0066 8.9723 13.9469 8.91654 13.9469ZM9.52805 14.2178C9.56154 14.2178 9.56979 14.2453 9.55157 14.2978C9.53904 14.3339 9.49832 14.335 9.48605 14.2994C9.47154 14.2575 9.49179 14.2178 9.52805 14.2178ZM14.2711 14.0469C14.2253 14.0489 14.2118 14.06 14.1828 14.1078C14.1353 14.1861 14.1305 14.3558 14.1743 14.4158C14.2016 14.453 14.2055 14.4539 14.2633 14.4272C14.3438 14.3897 14.3573 14.3911 14.357 14.4391C14.3566 14.5619 14.198 14.7986 14.0321 14.9244C13.9873 14.9583 13.9473 14.9961 13.943 15.0086C13.931 15.0436 13.9925 15.0358 14.0681 14.993C14.171 14.9347 14.3063 14.7814 14.3618 14.6605C14.4058 14.5641 14.4121 14.5314 14.4173 14.3628C14.4221 14.2075 14.4183 14.1619 14.3945 14.1103C14.3681 14.0522 14.3596 14.0469 14.2931 14.0469C14.285 14.0469 14.2778 14.0466 14.2711 14.0469ZM14.2766 14.1553C14.3111 14.1553 14.3171 14.1639 14.321 14.2189C14.3246 14.2644 14.3173 14.2922 14.2946 14.315C14.2636 14.3461 14.261 14.3458 14.2336 14.2994C14.195 14.2339 14.2188 14.1553 14.2766 14.1553ZM13.5176 15.3408C13.6638 15.2608 13.7501 15.1708 13.8056 15.0405C13.8318 14.9786 13.8533 14.9203 13.8533 14.9103C13.8533 14.8878 13.7813 14.8505 13.7381 14.8505C13.6951 14.8505 13.6863 14.8175 13.7048 14.7261C13.7228 14.6369 13.7011 14.5253 13.6658 14.5253C13.6531 14.5253 13.6306 14.5461 13.6156 14.5714C13.5926 14.6105 13.5913 14.6272 13.6083 14.6841C13.6333 14.7686 13.6136 14.8316 13.5455 14.8855C13.5133 14.9111 13.4956 14.9405 13.4956 14.9691C13.4956 14.9933 13.4983 15.013 13.5016 15.013C13.505 15.013 13.5406 14.9925 13.5806 14.9678L13.6535 14.9225L13.6966 14.96C13.7201 14.9805 13.7396 15.0141 13.7396 15.0347C13.7396 15.1336 13.4858 15.2997 13.3115 15.3153C13.2188 15.3236 13.2031 15.32 13.1708 15.2844C13.1446 15.2553 13.1371 15.2308 13.1435 15.1964C13.1486 15.17 13.1576 15.1219 13.1636 15.0897C13.1795 15.0036 13.1463 15.0153 13.0888 15.1158C13.0415 15.1989 13.0276 15.2875 13.0541 15.3341C13.0758 15.3722 13.2203 15.4086 13.3226 15.4016C13.3868 15.3975 13.4503 15.3775 13.5176 15.3408ZM14.4935 14.7358C14.5856 14.6339 14.6246 14.5097 14.6251 14.3178L14.6253 14.1736L14.7013 14.1336C14.8001 14.0814 14.8936 13.9775 14.8936 13.9197C14.8936 13.8603 14.8698 13.8633 14.8268 13.928C14.7956 13.975 14.7538 14.0033 14.6011 14.0814C14.5625 14.1011 14.5601 14.1116 14.5513 14.2911C14.5411 14.498 14.5158 14.5755 14.4118 14.7169C14.348 14.803 14.3458 14.8144 14.39 14.8144C14.4083 14.8144 14.4548 14.7791 14.4935 14.7358ZM13.4915 14.6203C13.5003 14.5905 13.4495 14.5694 13.4276 14.5936C13.4183 14.6039 13.4158 14.6216 13.4221 14.633C13.4366 14.6589 13.4825 14.6503 13.4915 14.6203ZM14.8733 14.2228C14.8823 14.193 14.8313 14.1719 14.8096 14.1961C14.8001 14.2066 14.7976 14.2244 14.8038 14.2358C14.8183 14.2616 14.8643 14.253 14.8733 14.2228ZM13.2103 13.1466C13.1746 13.1656 13.156 13.2084 13.1312 13.2412C13.1133 13.2547 13.1276 13.2673 13.1379 13.28C13.201 13.3555 13.2277 13.4574 13.2576 13.5525C13.2871 13.6647 13.3241 13.7852 13.2934 13.9021C13.2812 13.9469 13.2495 13.9933 13.2022 13.9784C13.1264 13.9732 13.0519 13.9509 12.9759 13.9517C12.9083 13.9556 12.856 14.024 12.7869 14.0166C12.7427 14.0198 12.7445 13.9161 12.7035 13.9438C12.6832 13.9979 12.6932 14.0582 12.6908 14.1154C12.6984 14.1236 12.7199 14.1165 12.7328 14.1189H12.8689C12.8785 14.1711 12.8773 14.231 12.9111 14.2725C12.9583 14.2912 13.0115 14.2751 13.0564 14.2546C13.1045 14.2298 13.111 14.1655 13.1246 14.1154C13.139 14.0615 13.2025 14.0756 13.2399 14.0545C13.3316 14.0248 13.3916 13.9189 13.3862 13.8149C13.3803 13.6559 13.3258 13.5064 13.2843 13.3559C13.2635 13.2897 13.2491 13.2205 13.2249 13.1558C13.2221 13.1502 13.2163 13.1456 13.2103 13.1466ZM12.9836 14.0555C13.0345 14.0519 13.0566 14.1213 13.0458 14.1675C13.0268 14.2301 12.9574 14.19 12.9434 14.1448C12.9176 14.1045 12.9336 14.0502 12.9836 14.0555Z" fill="#F7E017"/>
<path d="M11.0985 13.5342C11.0758 13.5337 11.0503 13.5431 11.025 13.5628C10.8923 13.6662 10.8583 13.7884 10.9485 13.8362C11.0148 13.8715 10.998 13.9128 10.8938 13.9709C10.7445 14.0537 10.6128 14.0434 10.3625 13.9284C10.301 13.9 10.285 13.9109 10.2993 13.9734C10.313 14.0348 10.3635 14.0684 10.489 14.1C10.624 14.1345 10.7873 14.1234 10.8923 14.0731C10.9435 14.0487 11.0043 13.9973 11.0555 13.9353L11.1368 13.8362L11.2313 13.8492C11.3478 13.865 11.35 13.8665 11.35 13.9284C11.35 13.9775 11.3525 13.9787 11.4595 13.9898C11.5198 13.9962 11.599 14.002 11.636 14.002C11.6833 14.0023 11.71 14.0115 11.7258 14.0359C11.7468 14.0684 11.7593 14.07 11.9353 14.0525C12.0998 14.0359 12.132 14.0373 12.2063 14.0653C12.259 14.0853 12.317 14.0934 12.361 14.0881C12.487 14.0723 12.6608 13.9578 12.686 13.8737C12.689 13.8634 12.7348 13.8453 12.7875 13.8337C12.9148 13.8053 12.9203 13.7745 12.8015 13.7581C12.75 13.7509 12.6728 13.73 12.6298 13.7112C12.5865 13.6923 12.5275 13.6765 12.4985 13.6765C12.4345 13.6765 12.3743 13.7209 12.3743 13.7667C12.3743 13.7967 12.3838 13.7998 12.4595 13.7912C12.5308 13.7831 12.5515 13.7875 12.589 13.8206C12.6138 13.8423 12.6303 13.8678 12.625 13.877C12.6083 13.9073 12.4595 13.9825 12.3938 13.9942C12.3498 14.002 12.3143 13.9967 12.2798 13.977C12.222 13.9437 12.137 13.9387 12.121 13.9673C12.1143 13.9798 12.096 13.9717 12.071 13.9456L12.032 13.9048L11.9438 13.9456C11.854 13.987 11.821 13.9853 11.821 13.9378C11.821 13.9162 11.7948 13.9137 11.6625 13.9231C11.5168 13.9337 11.5015 13.9309 11.4743 13.897C11.449 13.8659 11.4485 13.855 11.4665 13.8231C11.483 13.7937 11.483 13.7809 11.4673 13.7634C11.4515 13.7459 11.431 13.7462 11.3735 13.7634C11.2285 13.8065 11.1875 13.7823 11.1875 13.6565C11.1875 13.5809 11.1485 13.535 11.0985 13.5342ZM11.0625 13.6498C11.0703 13.6498 11.0768 13.655 11.0868 13.6662C11.0995 13.6803 11.1063 13.705 11.1008 13.7209C11.0878 13.7584 11.0263 13.757 11.0133 13.7192C11.007 13.7009 11.015 13.6803 11.0335 13.6653C11.0465 13.6548 11.0548 13.6495 11.0625 13.6498Z" fill="#F7E017"/>
<path d="M10.8025 13.7672C10.8907 13.7049 10.8887 13.7097 10.9015 13.5369C10.9102 13.4149 10.9087 13.4058 10.879 13.4058C10.8357 13.4058 10.8132 13.4585 10.8132 13.5591C10.8132 13.6235 10.8042 13.6524 10.7732 13.6866C10.6997 13.7683 10.5172 13.731 10.4942 13.6297C10.4865 13.5949 10.4965 13.5635 10.5347 13.5033C10.6145 13.3774 10.5965 13.3466 10.4987 13.4422C10.4315 13.5074 10.4195 13.5094 10.4322 13.453C10.444 13.401 10.4195 13.3805 10.3647 13.3958C10.3367 13.4035 10.3215 13.423 10.3147 13.4608C10.3082 13.4977 10.293 13.5183 10.2665 13.5255C10.2222 13.538 10.1467 13.4913 10.1467 13.4516C10.1467 13.4222 10.2597 13.2688 10.4047 13.1016C10.4595 13.0383 10.5042 12.9794 10.5042 12.9705C10.5042 12.9616 10.475 12.9544 10.4392 12.9544C10.387 12.9544 10.3742 12.9608 10.3742 12.9877C10.3742 13.006 10.3012 13.1124 10.2117 13.2244C10.0252 13.4577 10.0097 13.5063 10.102 13.5685C10.1762 13.6191 10.2715 13.6152 10.3462 13.5588L10.4067 13.513V13.596C10.4067 13.7022 10.4257 13.7402 10.5007 13.7844C10.5949 13.8397 10.7089 13.833 10.8025 13.7672ZM14.7165 12.3252C14.6473 12.3711 14.7014 12.4675 14.7119 12.5316C14.6837 12.6189 14.5826 12.6425 14.5089 12.6587C14.4046 12.6779 14.3307 12.7749 14.291 12.8779C14.2695 12.9449 14.2176 13.0486 14.161 12.9467C14.1118 12.8914 14.0214 12.8475 13.9633 12.9122C13.9191 12.9588 13.9079 13.0276 13.8915 13.09C13.8654 13.042 13.8537 12.9706 13.7985 12.9554C13.7103 12.9692 13.7421 13.0928 13.7836 13.1437C13.8213 13.2031 13.8575 13.2814 13.8206 13.352C13.788 13.4367 13.6753 13.4939 13.6092 13.4214C13.5473 13.3852 13.5887 13.2557 13.5278 13.2486C13.4977 13.2728 13.4952 13.4082 13.447 13.3348C13.4123 13.272 13.4307 13.1861 13.3882 13.1297C13.3379 13.1366 13.2975 13.2328 13.3142 13.2844C13.3813 13.3849 13.4088 13.5109 13.435 13.6307C13.4513 13.6787 13.4326 13.7759 13.473 13.7949C13.501 13.7177 13.475 13.6302 13.497 13.5522C13.5625 13.5431 13.6353 13.5763 13.7039 13.5587C13.8021 13.5445 13.878 13.4524 13.9125 13.3543C13.9229 13.2806 13.9105 13.2058 13.9086 13.1317C13.9863 13.145 14.0669 13.1447 14.1415 13.1727C14.1785 13.2358 14.1297 13.3241 14.1195 13.393C14.0805 13.5333 13.9816 13.6352 13.8854 13.729C13.8451 13.7555 13.8397 13.8256 13.8991 13.7879C14.0285 13.7264 14.1249 13.5962 14.1804 13.4554C14.2208 13.347 14.1883 13.2263 14.2147 13.1154C14.2538 13.0322 14.3478 13.0497 14.4173 13.05C14.4893 13.0469 14.5507 12.9538 14.5267 12.8761C14.5038 12.7859 14.5896 12.7424 14.6483 12.7102C14.7261 12.6666 14.7858 12.578 14.7798 12.478C14.7765 12.4269 14.7788 12.3299 14.7165 12.3252V12.3252ZM14.4407 12.846C14.524 12.8706 14.4256 13.0475 14.3813 12.9354C14.3677 12.8927 14.4001 12.8445 14.4407 12.846ZM14.054 12.9727C14.1624 12.9657 14.1234 13.1416 14.0318 13.0617C13.9843 13.0352 14 12.9694 14.054 12.9727ZM10.1275 13.6527C10.1305 13.6352 10.1225 13.6227 10.1082 13.6227C10.078 13.6227 10.0597 13.6522 10.074 13.6777C10.0887 13.7041 10.1212 13.6891 10.1275 13.6527ZM11.3985 13.4949C11.3985 13.4691 11.3897 13.4594 11.3702 13.4635C11.3277 13.4724 11.323 13.5324 11.3647 13.5324C11.388 13.5324 11.3985 13.5208 11.3985 13.4949ZM9.82571 12.6472C9.77498 12.6356 9.74306 12.6833 9.7257 12.7287C9.68779 12.7996 9.64144 12.8721 9.57338 12.9096C9.52444 12.9247 9.47104 12.904 9.42885 12.8759C9.37849 12.8481 9.38993 12.7808 9.36833 12.7343C9.33191 12.7025 9.2673 12.7479 9.26876 12.7974C9.26471 12.8636 9.32051 12.9019 9.36686 12.9275C9.40624 12.9543 9.46331 12.9692 9.47903 13.0234C9.47794 13.0695 9.49463 13.1223 9.5451 13.1045C9.60161 13.1034 9.61624 13.1799 9.59344 13.2258C9.57019 13.2775 9.55451 13.3381 9.56565 13.3957C9.59265 13.4209 9.62021 13.3532 9.63975 13.3338L9.67961 13.2748C9.77959 13.2808 9.87945 13.2949 9.97961 13.291C10.0509 13.2896 10.1116 13.2407 10.1569 13.1834C10.221 13.1089 10.2737 13.0214 10.3469 12.9572C10.3989 12.943 10.3709 12.834 10.3165 12.8655C10.2675 12.8859 10.2521 12.9475 10.2181 12.9867C10.1603 13.0646 10.1012 13.1436 10.0283 13.2046C9.97515 13.2291 9.91399 13.2184 9.85943 13.2046C9.83666 13.1825 9.90465 13.1644 9.91414 13.1399C9.94541 13.1051 9.98258 13.0722 10.0007 13.0265C9.98336 12.9844 9.9303 12.981 9.89291 12.9802C9.80078 12.9924 9.73039 13.0784 9.63731 13.0865C9.5667 13.0892 9.60345 13.0042 9.63529 12.9752C9.69757 12.8931 9.76489 12.8157 9.82991 12.7362C9.8484 12.7115 9.91515 12.6881 9.87244 12.6534C9.85751 12.6474 9.84139 12.6474 9.82571 12.6472ZM9.87101 13.063C9.91751 13.092 9.84139 13.1395 9.80933 13.133C9.76725 13.147 9.7665 13.0994 9.80385 13.0899C9.82485 13.0777 9.84705 13.0651 9.87101 13.0629V13.063ZM9.72806 13.1714C9.7545 13.1709 9.80993 13.1992 9.75788 13.2172C9.72165 13.2484 9.6807 13.1854 9.72806 13.1714Z" fill="#F7E017"/>
<path d="M10.8538 13.2428C10.8538 13.2036 10.7906 13.2092 10.7835 13.2489C10.779 13.2745 10.7863 13.2806 10.8158 13.2759C10.8368 13.2725 10.8538 13.2578 10.8538 13.2428ZM13.655 12.9672C13.6616 12.9297 13.6145 12.9047 13.5898 12.9322C13.565 12.9597 13.5878 13.012 13.6213 13.0047C13.6368 13.0014 13.652 12.9845 13.655 12.9672ZM9.29554 12.5859C9.33953 12.5439 9.34006 12.5411 9.32104 12.4489C9.29404 12.3197 9.29581 12.3059 9.34006 12.2936C9.39604 12.2778 9.53828 12.3625 9.56978 12.4303C9.59431 12.4828 9.59356 12.4864 9.55204 12.5292C9.50731 12.575 9.50753 12.6286 9.55231 12.6286C9.58928 12.6286 9.69154 12.5211 9.69154 12.4825C9.69154 12.4289 9.57803 12.3022 9.48829 12.2559C9.43279 12.227 9.37729 12.2136 9.31306 12.2134C9.19804 12.2134 9.18256 12.2409 9.21353 12.3895C9.25006 12.5636 9.20056 12.5872 9.07429 12.4559C8.98054 12.3584 8.94353 12.257 8.94406 12.0972C8.94428 11.9259 9.00331 11.8411 9.13628 11.8211C9.22456 11.8081 9.22231 11.785 9.13156 11.77C8.99903 11.7478 8.88706 11.8461 8.84453 12.0217C8.79728 12.2164 8.90554 12.4536 9.09706 12.5759C9.19729 12.6397 9.23731 12.6417 9.29554 12.5859ZM14.5166 12.3722C14.5273 12.3603 14.5361 12.3334 14.5361 12.3125C14.5361 12.2917 14.5543 12.247 14.5766 12.2134C14.5991 12.1797 14.6173 12.1453 14.6173 12.137C14.6173 12.1028 14.5665 12.1039 14.5265 12.1392C14.4855 12.1747 14.4548 12.1756 14.4548 12.1409C14.4548 12.1322 14.4743 12.1145 14.4983 12.1014C14.5578 12.0692 14.5628 12.0372 14.5125 12.0117C14.448 11.9792 14.3833 12.0386 14.3765 12.1367C14.3723 12.2022 14.3771 12.2136 14.4225 12.2434C14.4641 12.2706 14.4718 12.285 14.4648 12.3239C14.4528 12.3914 14.478 12.415 14.5166 12.3722ZM15.0073 12.3106C15.0433 12.2747 15.0725 12.2339 15.0725 12.2203C15.0725 12.2067 15.1035 12.1706 15.1415 12.1403C15.2493 12.0542 15.273 11.9672 15.2248 11.8336C15.206 11.7811 15.147 11.7086 15.0188 11.5803C14.9203 11.4814 14.8295 11.4006 14.8178 11.4006C14.7828 11.4006 14.789 11.5436 14.8245 11.5561C14.8886 11.5789 14.9273 11.6081 15.0281 11.7089C15.1451 11.8264 15.1991 11.9361 15.1695 11.9972C15.1413 12.0564 15.1038 12.0381 15.0005 11.915C14.9463 11.8503 14.8925 11.7975 14.8815 11.7975C14.8695 11.7978 14.861 11.8211 14.861 11.8539C14.861 11.895 14.8808 11.9342 14.9343 12.0003C15.0215 12.1081 15.03 12.1728 14.9645 12.23C14.9411 12.2506 14.9168 12.2675 14.9108 12.2675C14.9051 12.2675 14.8858 12.2353 14.8683 12.1961C14.8318 12.1139 14.6085 11.852 14.5751 11.852C14.5598 11.852 14.5523 11.8731 14.5523 11.9147C14.5523 11.965 14.5613 11.9828 14.5973 12.0034C14.6415 12.0289 14.751 12.1514 14.861 12.2992C14.8925 12.3414 14.9235 12.3756 14.9303 12.3759C14.9368 12.3759 14.9715 12.3464 15.0073 12.3106ZM15.2263 11.6142C15.2118 11.5622 14.9123 11.2197 14.8815 11.2197C14.8655 11.2197 14.8605 11.2409 14.8643 11.2953C14.8685 11.3614 14.8751 11.3728 14.916 11.3847C14.9415 11.3922 15.0206 11.4611 15.0913 11.5375C15.1618 11.6139 15.2238 11.672 15.2288 11.6661C15.2338 11.6606 15.2328 11.6372 15.2263 11.6142ZM13.4375 15.4692C13.4375 15.4812 13.4328 15.4927 13.4245 15.5012C13.4161 15.5097 13.4048 15.5145 13.393 15.5145C13.3812 15.5145 13.3699 15.5097 13.3615 15.5012C13.3532 15.4927 13.3485 15.4812 13.3485 15.4692C13.3485 15.4572 13.3532 15.4456 13.3615 15.4371C13.3699 15.4286 13.3812 15.4239 13.393 15.4239C13.4048 15.4239 13.4161 15.4286 13.4245 15.4371C13.4328 15.4456 13.4375 15.4572 13.4375 15.4692ZM13.5948 15.4109C13.5948 15.4229 13.5901 15.4344 13.5818 15.4429C13.5734 15.4514 13.5621 15.4562 13.5503 15.4562C13.5385 15.4562 13.5272 15.4514 13.5188 15.4429C13.5105 15.4344 13.5058 15.4229 13.5058 15.4109C13.5058 15.3988 13.5105 15.3873 13.5188 15.3788C13.5272 15.3703 13.5385 15.3655 13.5503 15.3655C13.5621 15.3655 13.5734 15.3703 13.5818 15.3788C13.5901 15.3873 13.5948 15.3988 13.5948 15.4109Z" fill="#F7E017"/>
</g>
<defs>
<clipPath id="clip0_275_23279">
<rect width="24" height="20" rx="4" fill="white"/>
</clipPath>
</defs>
</svg>
