<svg width="24" height="20" viewBox="0 0 24 20" fill="none" xmlns="http://www.w3.org/2000/svg">
<g clip-path="url(#clip0_275_23226)">
<path d="M0 0H24V20H0V0Z" fill="#DE2910"/>
<path d="M2.91248 7.43L4.50006 2L6.08764 7.43L1.92969 4.07H7.07042L2.91248 7.43Z" fill="#FFDE00"/>
<path d="M9.90815 2.08752L8.23882 2.51346L9.36415 1.07875L9.21188 2.97542L8.33112 1.34218L9.90815 2.08752Z" fill="#FFDE00"/>
<path d="M11.5945 4.45949L9.90721 4.13272L11.4452 3.29525L10.6429 4.97785L10.4011 3.0929L11.5945 4.45949Z" fill="#FFDE00"/>
<path d="M11.3538 7.78834L9.9331 6.72532L11.6448 6.65767L10.2946 7.83035L10.7657 5.99974L11.3538 7.78834Z" fill="#FFDE00"/>
<path d="M9.23592 9.96716L8.29499 8.37694L9.89738 9.04911L8.2443 9.55135L9.31523 8.06499L9.23592 9.96716Z" fill="#FFDE00"/>
</g>
<defs>
<clipPath id="clip0_275_23226">
<rect width="24" height="20" rx="4" fill="white"/>
</clipPath>
</defs>
</svg>
