<svg width="24" height="20" viewBox="0 0 24 20" fill="none" xmlns="http://www.w3.org/2000/svg">
<g clip-path="url(#clip0_275_23308)">
<path fill-rule="evenodd" clip-rule="evenodd" d="M0 0H24V20H0V0Z" fill="#FFE800"/>
<path fill-rule="evenodd" clip-rule="evenodd" d="M0 10H24V20H0V10Z" fill="#00148E"/>
<path fill-rule="evenodd" clip-rule="evenodd" d="M0 15H24V20H0V15Z" fill="#DA0010"/>
<path fill-rule="evenodd" clip-rule="evenodd" d="M10.108 12.1183L7.39213 15.3052L7.34424 15.2367L10.0601 12.0498L10.108 12.1183H10.108ZM12 12.6391L8.44584 16.802L8.38351 16.7365L11.9377 12.5736L12 12.6391Z" fill="black"/>
<path fill-rule="evenodd" clip-rule="evenodd" d="M8.45703 16.7539L8.12484 17.123L7.74615 17.4404L8.03183 17.0197L8.36402 16.6506L8.45703 16.7539L8.45703 16.7539Z" fill="#808080" stroke="black" stroke-width="0.485592"/>
<path fill-rule="evenodd" clip-rule="evenodd" d="M7.54052 15.1279L7.20834 15.497L6.82965 15.8144L7.11533 15.3937L7.44751 15.0246L7.54053 15.1279L7.54052 15.1279Z" fill="#808080" stroke="black" stroke-width="0.485592"/>
<path fill-rule="evenodd" clip-rule="evenodd" d="M7.7964 4.78621C7.7964 4.78621 7.49744 13.7625 8.69331 13.7625C9.88917 13.7625 10.4871 12.8176 10.4871 12.8176L10.4726 7.88347L7.7964 4.78613V4.78621Z" fill="#FFDF00" stroke="black" stroke-width="0.715542"/>
<path fill-rule="evenodd" clip-rule="evenodd" d="M8.52663 5.62207C8.52663 6.09452 8.39423 12.8173 8.99216 12.8173C9.5901 12.8173 10.487 12.3448 10.487 12.3448L10.4725 7.88322L8.52663 5.62215V5.62207Z" fill="#0000C4" stroke="black" stroke-width="0.715542"/>
<path fill-rule="evenodd" clip-rule="evenodd" d="M8.91602 6.0743C8.91602 6.54675 8.99238 11.8722 9.59031 11.8722H10.4872L10.4727 7.8831L8.91602 6.07422V6.0743Z" fill="#E10000" stroke="black" stroke-width="0.715542"/>
<path fill-rule="evenodd" clip-rule="evenodd" d="M7.73242 4.83404L10.4482 8.02092L10.4961 7.9525L7.78031 4.76562L7.73246 4.83404H7.73242Z" fill="black"/>
<path fill-rule="evenodd" clip-rule="evenodd" d="M6.91188 6.62402C6.91188 6.62402 6.14121 15.3198 8.45322 15.3198C10.3799 15.3198 10.3799 13.9467 10.7652 13.9467L10.3798 10.7429L6.91179 6.62402H6.91188Z" fill="#FFDF00" stroke="black" stroke-width="0.799555"/>
<path d="M8.82059 8.06829C8.83758 8.06688 9.42164 6.66183 10.8808 5.77222" stroke="black" stroke-width="0.868035"/>
<path fill-rule="evenodd" clip-rule="evenodd" d="M8.57833 6.74274C8.78233 6.84852 8.91116 6.96962 9.0286 7.11089C8.79515 7.05674 8.67529 7.03541 8.47129 6.92963C8.2673 6.82386 8.11212 6.66219 7.98874 6.53131C8.14063 6.58355 8.37433 6.63697 8.57833 6.74274Z" fill="#005B00" stroke="black" stroke-width="0.391759"/>
<path fill-rule="evenodd" clip-rule="evenodd" d="M9.09152 7.60343C9.10677 7.63223 9.09345 7.67143 9.06179 7.69098C9.03013 7.71053 8.99208 7.70303 8.97683 7.67422C8.96158 7.64542 8.97489 7.60622 9.00656 7.58667C9.03823 7.56712 9.07626 7.57463 9.09151 7.60343L9.09152 7.60343Z" fill="#FF0000" stroke="black" stroke-width="0.2687"/>
<path fill-rule="evenodd" clip-rule="evenodd" d="M9.73074 5.8449C9.64234 6.09423 9.5453 6.25816 9.43339 6.41128C9.48377 6.13392 9.50472 5.99229 9.59312 5.74296C9.68152 5.49363 9.8104 5.2943 9.91466 5.13553C9.86897 5.31801 9.81914 5.59557 9.73074 5.8449Z" fill="#005B00" stroke="black" stroke-width="0.369335"/>
<path fill-rule="evenodd" clip-rule="evenodd" d="M9.43309 5.82978C9.41269 6.07911 9.36829 6.27159 9.3099 6.46696C9.29442 6.22477 9.28272 6.1046 9.30311 5.85527C9.32351 5.60594 9.38616 5.36391 9.43733 5.16997C9.43753 5.33851 9.45349 5.58045 9.43309 5.82978Z" fill="#005B00" stroke="black" stroke-width="0.318892"/>
<path fill-rule="evenodd" clip-rule="evenodd" d="M9.62697 6.11436C9.51137 6.26547 9.4145 6.33109 9.31263 6.37394C9.41551 6.16429 9.4655 6.05309 9.58109 5.90199C9.69669 5.75088 9.82031 5.68051 9.91963 5.62586C9.84522 5.75293 9.74257 5.96325 9.62697 6.11436Z" fill="#005B00" stroke="black" stroke-width="0.346373"/>
<path fill-rule="evenodd" clip-rule="evenodd" d="M8.64272 6.33084C8.77872 6.51217 8.84634 6.68606 8.89759 6.87834C8.71945 6.74398 8.62581 6.68207 8.48981 6.50074C8.35382 6.31941 8.27768 6.09269 8.21795 5.90986C8.32812 6.01587 8.50673 6.14951 8.64272 6.33084Z" fill="#005B00" stroke="black" stroke-width="0.396345"/>
<path fill-rule="evenodd" clip-rule="evenodd" d="M8.36946 7.72291C8.53945 7.87402 8.62912 8.02907 8.70078 8.20433C8.48444 8.10487 8.37125 8.06091 8.20126 7.9098C8.03126 7.75869 7.92841 7.55457 7.84741 7.38971C7.98262 7.4731 8.19946 7.5718 8.36946 7.72291Z" fill="#005B00" stroke="black" stroke-width="0.420812"/>
<path fill-rule="evenodd" clip-rule="evenodd" d="M9.16502 7.6377C9.02903 7.87947 8.88263 8.04155 8.71475 8.19463C8.79582 7.92952 8.83024 7.79452 8.96624 7.55275C9.10224 7.31097 9.29619 7.11302 9.45301 6.95523C9.3813 7.13065 9.30102 7.39592 9.16502 7.6377Z" fill="#005B00" stroke="black" stroke-width="0.432296"/>
<path fill-rule="evenodd" clip-rule="evenodd" d="M9.30754 7.63201C9.08995 7.79822 8.90126 7.88468 8.7001 7.95295C8.88595 7.73991 8.97526 7.62832 9.19286 7.46211C9.41046 7.29589 9.65265 7.19714 9.84742 7.11944C9.71044 7.25224 9.52514 7.46579 9.30754 7.63201Z" fill="#005B00" stroke="black" stroke-width="0.415441"/>
<path fill-rule="evenodd" clip-rule="evenodd" d="M10.7713 5.89697C10.6761 6.01785 10.5911 6.08938 10.4994 6.15183C10.5777 6.00756 10.6149 5.9329 10.7101 5.81202C10.8053 5.69113 10.9149 5.60638 11.0032 5.53921C10.9445 5.63157 10.8665 5.77608 10.7713 5.89697Z" fill="#005B00" stroke="black" stroke-width="0.220006"/>
<path fill-rule="evenodd" clip-rule="evenodd" d="M10.5695 5.54032C10.5151 5.66876 10.4572 5.76498 10.3911 5.86127C10.4244 5.73288 10.4386 5.66876 10.493 5.54032C10.5474 5.41188 10.624 5.2916 10.6859 5.19531C10.6569 5.28357 10.6239 5.41188 10.5695 5.54032Z" fill="#005B00" stroke="black" stroke-width="0.182761"/>
<path fill-rule="evenodd" clip-rule="evenodd" d="M10.8834 5.77152C10.7883 5.83196 10.7169 5.8506 10.6456 5.85647C10.7407 5.76323 10.7883 5.71303 10.8834 5.65259C10.9786 5.59215 11.0678 5.57539 11.1392 5.56291C11.0737 5.61745 10.9786 5.71108 10.8834 5.77152Z" fill="#005B00" stroke="black" stroke-width="0.20033"/>
<path fill-rule="evenodd" clip-rule="evenodd" d="M9.57248 6.44601C9.40248 6.55934 9.26315 6.62521 9.11796 6.682C9.27311 6.54527 9.34896 6.47439 9.51896 6.36106C9.68895 6.24773 9.86608 6.17006 10.0083 6.10855C9.89733 6.19572 9.74247 6.33268 9.57248 6.44601Z" fill="#005B00" stroke="black" stroke-width="0.25153"/>
<path fill-rule="evenodd" clip-rule="evenodd" d="M10.0694 6.61524C9.845 6.76635 9.65465 6.83768 9.45346 6.88899C9.65033 6.68636 9.74561 6.57946 9.97 6.42835C10.1944 6.27724 10.4378 6.19834 10.6335 6.13666C10.4902 6.26093 10.2938 6.46413 10.0694 6.61524Z" fill="#005B00" stroke="black" stroke-width="0.418688"/>
<path d="M8.54406 9.05776C8.55893 9.04832 8.42215 7.72492 9.33208 6.34868" stroke="black" stroke-width="0.841915"/>
<path fill-rule="evenodd" clip-rule="evenodd" d="M9.94357 6.26847C9.95882 6.29727 9.9455 6.33647 9.91384 6.35602C9.88218 6.37556 9.84413 6.36806 9.82888 6.33926C9.81363 6.31046 9.82694 6.27126 9.85861 6.25171C9.89028 6.23216 9.92832 6.23967 9.94356 6.26847L9.94357 6.26847Z" fill="#FF0000" stroke="black" stroke-width="0.2687"/>
<path fill-rule="evenodd" clip-rule="evenodd" d="M10.3479 6.00284C10.3631 6.03164 10.3498 6.07085 10.3181 6.09039C10.2865 6.10994 10.2484 6.10244 10.2332 6.07364C10.2179 6.04484 10.2312 6.00564 10.2629 5.98609C10.2946 5.96654 10.3326 5.97405 10.3479 6.00285L10.3479 6.00284Z" fill="#FF0000" stroke="black" stroke-width="0.2687"/>
<path fill-rule="evenodd" clip-rule="evenodd" d="M9.21756 6.88706C9.22823 6.90908 9.20836 6.94279 9.17318 6.96233C9.13799 6.98188 9.1008 6.97988 9.09013 6.95785C9.07946 6.93583 9.09932 6.90212 9.13451 6.88257C9.1697 6.86302 9.20688 6.86504 9.21755 6.88706L9.21756 6.88706Z" fill="#FF0000" stroke="black" stroke-width="0.242268"/>
<path fill-rule="evenodd" clip-rule="evenodd" d="M9.33475 6.83042C9.34542 6.85244 9.32555 6.88615 9.29036 6.90569C9.25518 6.92524 9.21799 6.92324 9.20732 6.90121C9.19664 6.87919 9.21651 6.84548 9.2517 6.82593C9.28689 6.80638 9.32407 6.8084 9.33474 6.83042L9.33475 6.83042Z" fill="#FF0000" stroke="black" stroke-width="0.242268"/>
<path fill-rule="evenodd" clip-rule="evenodd" d="M9.26737 6.95151C9.27804 6.97353 9.25816 7.00724 9.22298 7.02679C9.1878 7.04633 9.15061 7.04433 9.13993 7.0223C9.12926 7.00028 9.14913 6.96658 9.18432 6.94703C9.21951 6.92748 9.25669 6.92949 9.26736 6.95151L9.26737 6.95151Z" fill="#FF0000" stroke="black" stroke-width="0.242268"/>
<path fill-rule="evenodd" clip-rule="evenodd" d="M9.47398 6.96904C9.48924 7.00291 9.47308 7.04625 9.43787 7.06579C9.40266 7.08533 9.36178 7.0737 9.34656 7.03983C9.33133 7.00595 9.34746 6.96262 9.38267 6.94308C9.41788 6.92354 9.45872 6.93516 9.47398 6.96904Z" fill="#FF0000" stroke="black" stroke-width="0.298147"/>
<path fill-rule="evenodd" clip-rule="evenodd" d="M9.55992 6.8704C9.57518 6.90428 9.55902 6.94761 9.52381 6.96715C9.48859 6.9867 9.44772 6.97507 9.43249 6.9412C9.41727 6.90732 9.43339 6.86399 9.46861 6.84445C9.50382 6.8249 9.54466 6.83653 9.55992 6.8704Z" fill="#FF0000" stroke="black" stroke-width="0.298147"/>
<path fill-rule="evenodd" clip-rule="evenodd" d="M9.58189 6.91826C9.59715 6.95213 9.58099 6.99546 9.54578 7.01501C9.51057 7.03455 9.46969 7.02292 9.45447 6.98905C9.43924 6.95517 9.45537 6.91184 9.49058 6.8923C9.52579 6.87276 9.56663 6.88438 9.58189 6.91826Z" fill="#FF0000" stroke="black" stroke-width="0.298147"/>
<path fill-rule="evenodd" clip-rule="evenodd" d="M7.6825 7.53906C7.6825 7.99675 6.91184 13.0312 8.83852 14.4043C9.60918 14.8619 10.7652 13.9466 10.7652 14.4043L10.38 10.7427L7.68255 7.53906H7.6825Z" fill="#0000C4" stroke="black" stroke-width="0.799555"/>
<path fill-rule="evenodd" clip-rule="evenodd" d="M8.45325 8.45508C8.45325 8.91277 8.06793 12.5742 9.22392 13.4895C9.99459 14.4048 11.9214 14.1565 11.9214 14.1565L10.3799 10.7434L8.45332 8.45513L8.45325 8.45508Z" fill="#E10000" stroke="black" stroke-width="0.799555"/>
<path fill-rule="evenodd" clip-rule="evenodd" d="M6.89453 6.58703L10.4486 10.7499L10.5109 10.6844L6.95682 6.52148L6.89457 6.58707L6.89453 6.58703Z" fill="black"/>
<path fill-rule="evenodd" clip-rule="evenodd" d="M6.34725 6.08703L6.57313 6.13132L6.63957 6.20514C6.63013 6.20475 6.706 6.27896 6.61299 6.3823C6.51998 6.48565 6.38711 6.33801 6.38711 6.33801C6.38711 6.33801 6.42697 6.58899 6.55984 6.73663C6.69272 6.88427 6.85217 6.85475 6.85217 6.85475C6.85217 6.85475 6.70082 6.71704 6.8123 6.60376C6.92379 6.49047 6.97175 6.57423 6.97175 6.57423L7.10462 6.72187L7.19763 6.61852L6.66615 6.02798L6.62629 5.77699L6.28451 5.71382L6.34725 6.08703L6.34725 6.08703Z" fill="#CECECC" stroke="black" stroke-width="0.223109"/>
<path fill-rule="evenodd" clip-rule="evenodd" d="M6.86876 4.33922L7.14209 4.80998L7.48757 4.91332L7.26168 5.07572L7.67359 5.06095L7.85961 5.20859L7.92605 5.09048L7.74004 4.94285L7.59387 4.48518L7.55402 4.79522L7.34142 4.45565L6.86876 4.33922Z" fill="#CECECC" stroke="black" stroke-width="0.240228"/>
<path fill-rule="evenodd" clip-rule="evenodd" d="M7.97859 4.62028C7.97859 4.64613 7.94922 4.66711 7.91304 4.66711C7.87684 4.66711 7.84746 4.64613 7.84746 4.62028C7.84746 4.59443 7.87686 4.57345 7.91301 4.57345C7.94922 4.57345 7.97859 4.59445 7.97859 4.62028ZM7.88493 4.71916C7.88493 5.16666 8.19868 7.06678 8.22366 7.11366C8.22576 7.16916 8.15289 7.19343 8.1175 7.12406C8.01925 6.90728 7.80636 5.12518 7.79752 4.70881C7.79386 4.53713 7.85392 4.52381 7.92241 4.52668C7.97881 4.52931 8.04729 4.57325 8.04729 4.62556C8.04729 4.688 7.95984 4.73481 7.88493 4.71921V4.71916Z" fill="#E10000" stroke="black" stroke-width="0.46188"/>
<path fill-rule="evenodd" clip-rule="evenodd" d="M8.10257 5.06223C8.09094 5.08808 8.0536 5.1009 8.01923 5.09085C7.98484 5.08079 7.96636 5.05166 7.978 5.02581C7.98963 4.99996 8.027 4.98713 8.06135 4.99718C8.09575 5.00723 8.1142 5.03639 8.10257 5.06223ZM7.9691 5.13509C8.07235 6.03396 7.72531 7.42272 7.72794 7.47653C7.70496 7.53262 7.62481 7.53665 7.62241 7.45745C7.60572 7.40568 8.00542 6.15242 7.89071 5.10046C7.96449 4.92776 8.02754 4.93112 8.09131 4.95302C8.14371 4.97131 8.18899 5.03427 8.16545 5.08658C8.13735 5.14902 8.03321 5.17154 7.96906 5.13513L7.9691 5.13509Z" fill="#0000C4" stroke="black" stroke-width="0.484048"/>
<path fill-rule="evenodd" clip-rule="evenodd" d="M6.9995 6.31375C6.9995 6.35684 6.96279 6.3918 6.91756 6.3918C6.8723 6.3918 6.83559 6.35684 6.83559 6.31375C6.83559 6.27067 6.87234 6.23571 6.91752 6.23571C6.96279 6.23571 6.9995 6.27071 6.9995 6.31375ZM6.88242 6.47855C6.88242 7.22438 7.2746 10.3913 7.30584 10.4694C7.30846 10.5619 7.21737 10.6023 7.17312 10.4867C7.05031 10.1254 6.78421 7.15525 6.77315 6.4613C6.76857 6.17517 6.84365 6.15296 6.92926 6.15776C6.99976 6.16213 7.08537 6.23538 7.08537 6.32255C7.08537 6.42663 6.97606 6.50463 6.88242 6.47863V6.47855Z" fill="#E10000" stroke="black" stroke-width="0.666667"/>
<path fill-rule="evenodd" clip-rule="evenodd" d="M7.20362 6.69551C7.18811 6.73687 7.14028 6.75819 7.09686 6.74312C7.05343 6.72804 7.03075 6.68223 7.04626 6.64087C7.06177 6.59951 7.10964 6.57818 7.15302 6.59324C7.19648 6.60833 7.21912 6.65417 7.20362 6.69551ZM7.0319 6.81469C7.13808 8.23976 6.65812 10.4546 6.65997 10.54C6.62919 10.6297 6.52718 10.6382 6.52634 10.5124C6.50656 10.4306 7.04968 8.42964 6.93321 6.7617C7.03182 6.4855 7.11189 6.4892 7.19235 6.52234C7.25845 6.55004 7.31426 6.64887 7.28287 6.73257C7.24541 6.83247 7.11238 6.87093 7.03185 6.81476L7.0319 6.81469Z" fill="#0000C4" stroke="black" stroke-width="0.681832"/>
<path fill-rule="evenodd" clip-rule="evenodd" d="M13.892 12.1183L16.6079 15.3052L16.6558 15.2367L13.9399 12.0498L13.8921 12.1183H13.892ZM12 12.6391L15.5542 16.802L15.6165 16.7365L12.0624 12.5736L12 12.6391H12Z" fill="black"/>
<path fill-rule="evenodd" clip-rule="evenodd" d="M15.543 16.7539L15.8752 17.123L16.2538 17.4404L15.9682 17.0197L15.636 16.6506L15.543 16.7539L15.543 16.7539Z" fill="#808080" stroke="black" stroke-width="0.485592"/>
<path fill-rule="evenodd" clip-rule="evenodd" d="M16.4595 15.1279L16.7917 15.497L17.1704 15.8144L16.8847 15.3937L16.5525 15.0246L16.4595 15.1279L16.4595 15.1279Z" fill="#808080" stroke="black" stroke-width="0.485592"/>
<path fill-rule="evenodd" clip-rule="evenodd" d="M16.2046 4.78524C16.2046 4.78524 16.5035 13.7615 15.3077 13.7615C14.1118 13.7615 13.5139 12.8166 13.5139 12.8166L13.5284 7.88249L16.2046 4.78516V4.78524Z" fill="#FFDF00" stroke="black" stroke-width="0.715542"/>
<path fill-rule="evenodd" clip-rule="evenodd" d="M15.4743 5.62109C15.4743 6.09355 15.6067 12.8163 15.0088 12.8163C14.4109 12.8163 13.514 12.3438 13.514 12.3438L13.5285 7.88224L15.4743 5.62117V5.62109Z" fill="#0000C4" stroke="black" stroke-width="0.715542"/>
<path fill-rule="evenodd" clip-rule="evenodd" d="M15.085 6.0743C15.085 6.54675 15.0086 11.8722 14.4107 11.8722H13.5138L13.5283 7.8831L15.085 6.07422V6.0743Z" fill="#E10000" stroke="black" stroke-width="0.715542"/>
<path fill-rule="evenodd" clip-rule="evenodd" d="M16.2681 4.83404L13.5522 8.02092L13.5044 7.9525L16.2203 4.76562L16.2681 4.83404H16.2681Z" fill="black"/>
<path fill-rule="evenodd" clip-rule="evenodd" d="M14.1248 7.29479C14.1248 7.29479 14.886 8.37844 15.253 9.21758C15.62 10.0567 16.0482 11.3387 16.0482 11.3387C16.0482 11.3387 15.8035 10.0766 15.3414 9.0657C14.7365 7.79695 14.1248 7.36747 14.1248 7.29478L14.1248 7.29479Z" fill="#005B00" stroke="black" stroke-width="0.33387"/>
<path fill-rule="evenodd" clip-rule="evenodd" d="M14.098 6.43253C14.098 6.43253 14.9475 7.77292 15.3349 8.76876C15.7223 9.7646 16.1531 11.2608 16.1531 11.2608C16.1531 11.2608 15.9441 9.82133 15.453 8.61783C14.8066 7.10271 14.0929 6.51275 14.098 6.43252L14.098 6.43253Z" fill="#005B00" stroke="black" stroke-width="0.385781"/>
<path fill-rule="evenodd" clip-rule="evenodd" d="M14.83 5.1067C14.83 5.1067 15.4314 7.09274 15.6141 8.32176C15.7968 9.55075 15.9072 11.2442 15.9072 11.2442C15.9072 11.2442 16.0236 9.8227 15.7781 8.31431C15.4383 6.38673 14.8053 5.16898 14.83 5.10672L14.83 5.1067Z" fill="#005B00" stroke="black" stroke-width="0.43819"/>
<path fill-rule="evenodd" clip-rule="evenodd" d="M14.2914 5.01177C14.2914 5.01177 15.124 6.77505 15.4477 7.97479C15.7713 9.17452 16.0746 10.9086 16.0746 10.9086C16.0746 10.9086 16.0313 9.3332 15.6125 7.87296C15.051 6.0218 14.2736 5.09199 14.2915 5.01178L14.2914 5.01177Z" fill="#005B00" stroke="black" stroke-width="0.444029"/>
<path fill-rule="evenodd" clip-rule="evenodd" d="M15.2903 5.57648C15.2903 5.57648 15.7049 7.47568 15.8086 8.60936C15.9122 9.74302 15.9411 11.2742 15.9411 11.2742C15.9411 11.2742 16.0855 10.0348 15.9411 8.63872C15.7356 6.84897 15.2682 5.62649 15.2904 5.57651L15.2903 5.57648Z" fill="#005B00" stroke="black" stroke-width="0.393774"/>
<path fill-rule="evenodd" clip-rule="evenodd" d="M14.1957 5.62793C14.1957 5.62793 15.0011 7.13823 15.3265 8.19543C15.6518 9.25263 15.9713 10.8008 15.9713 10.8008C15.9713 10.8008 15.894 9.366 15.4751 8.08226C14.9162 6.4586 14.1812 5.70343 14.1957 5.62793H14.1957Z" fill="#005B00" stroke="black" stroke-width="0.404988"/>
<path fill-rule="evenodd" clip-rule="evenodd" d="M14.0472 6.68444C14.0472 6.68444 14.8967 7.88136 15.2842 8.79979C15.6715 9.71823 16.1023 11.1163 16.1023 11.1163C16.1023 11.1163 15.8933 9.74664 15.4023 8.63942C14.7558 7.24889 14.0421 6.76278 14.0472 6.68443L14.0472 6.68444Z" fill="#005B00" stroke="black" stroke-width="0.381518"/>
<path fill-rule="evenodd" clip-rule="evenodd" d="M14.1556 6.1308C14.1556 6.1308 14.9372 7.53916 15.277 8.55954C15.6168 9.57993 15.9779 11.0969 15.9779 11.0969C15.9779 11.0969 15.8335 9.65931 15.4002 8.42372C14.8268 6.86518 14.1471 6.20914 14.1556 6.1308L14.1556 6.1308Z" fill="#005B00" stroke="black" stroke-width="0.3807"/>
<path fill-rule="evenodd" clip-rule="evenodd" d="M15.0048 5.13699C15.0048 5.13699 15.5077 7.0815 15.6317 8.26993C15.7558 9.45833 15.7872 11.0848 15.7872 11.0848C15.7872 11.0848 15.9673 9.73594 15.794 8.2757C15.5468 6.40759 14.9776 5.19455 15.0048 5.13702L15.0048 5.13699Z" fill="#005B00" stroke="black" stroke-width="0.425947"/>
<path fill-rule="evenodd" clip-rule="evenodd" d="M14.3114 4.65048C14.3114 4.65048 15.0454 6.48172 15.3105 7.706C15.5756 8.93028 15.7998 10.6851 15.7998 10.6851C15.7998 10.6851 15.8202 9.11162 15.4736 7.61928C15.0047 5.7247 14.291 4.72881 14.3115 4.65049L14.3114 4.65048Z" fill="#005B00" stroke="black" stroke-width="0.437909"/>
<path fill-rule="evenodd" clip-rule="evenodd" d="M15.4788 5.71613C15.4788 5.71613 15.7948 7.53982 15.8399 8.62064C15.8849 9.70143 15.8348 11.1552 15.8348 11.1552C15.8348 11.1552 16.0429 9.98753 15.9707 8.65565C15.8577 6.94709 15.4542 5.76237 15.4788 5.71616L15.4788 5.71613Z" fill="#005B00" stroke="black" stroke-width="0.378625"/>
<path fill-rule="evenodd" clip-rule="evenodd" d="M14.2196 5.40824C14.2196 5.40824 14.9536 6.9865 15.2187 8.06825C15.4838 9.14999 15.7081 10.7189 15.7081 10.7189C15.7081 10.7189 15.7284 9.28601 15.3818 7.97018C14.9129 6.3031 14.1992 5.48185 14.2197 5.40824L14.2196 5.40824Z" fill="#005B00" stroke="black" stroke-width="0.413834"/>
<path fill-rule="evenodd" clip-rule="evenodd" d="M17.0891 6.62402C17.0891 6.62402 17.8598 15.3198 15.5478 15.3198C13.6211 15.3198 13.6211 13.9467 13.2357 13.9467L13.6211 10.7429L17.0892 6.62402H17.0891Z" fill="#FFDF00" stroke="black" stroke-width="0.799555"/>
<path fill-rule="evenodd" clip-rule="evenodd" d="M16.3185 7.53906C16.3185 7.99675 17.0891 13.0312 15.1625 14.4043C14.3918 14.8619 13.2358 13.9466 13.2358 14.4043L13.621 10.7427L16.3184 7.53906H16.3185Z" fill="#0000C4" stroke="black" stroke-width="0.799555"/>
<path fill-rule="evenodd" clip-rule="evenodd" d="M15.5477 8.4541C15.5477 8.91179 15.933 12.5732 14.7771 13.4885C14.0064 14.4039 12.0796 14.1556 12.0796 14.1556L13.621 10.7425L15.5477 8.45415L15.5477 8.4541Z" fill="#E10000" stroke="black" stroke-width="0.799555"/>
<path fill-rule="evenodd" clip-rule="evenodd" d="M17.1066 6.58605L13.5525 10.749L13.4902 10.6834L17.0443 6.52051L17.1066 6.58609V6.58605Z" fill="black"/>
<path fill-rule="evenodd" clip-rule="evenodd" d="M17.6532 6.08605L17.4274 6.13034L17.3609 6.20417C17.3704 6.20377 17.2945 6.27798 17.3875 6.38133C17.4805 6.48467 17.6134 6.33704 17.6134 6.33704C17.6134 6.33704 17.5735 6.58802 17.4406 6.73566C17.3078 6.88329 17.1483 6.85377 17.1483 6.85377C17.1483 6.85377 17.2997 6.71606 17.1882 6.60278C17.0767 6.48949 17.0287 6.57325 17.0287 6.57325L16.8959 6.72089L16.8029 6.61754L17.3343 6.027L17.3742 5.77601L17.716 5.71285L17.6532 6.08605L17.6532 6.08605Z" fill="#CECECC" stroke="black" stroke-width="0.223109"/>
<path fill-rule="evenodd" clip-rule="evenodd" d="M17.1322 4.33922L16.8589 4.80998L16.5134 4.91332L16.7393 5.07572L16.3274 5.06095L16.1414 5.20859L16.0749 5.09048L16.2609 4.94285L16.4071 4.48518L16.447 4.79522L16.6596 4.45565L17.1322 4.33922Z" fill="#CECECC" stroke="black" stroke-width="0.240228"/>
<path fill-rule="evenodd" clip-rule="evenodd" d="M16.0229 4.62028C16.0229 4.64613 16.0522 4.66711 16.0884 4.66711C16.1246 4.66711 16.154 4.64613 16.154 4.62028C16.154 4.59443 16.1246 4.57345 16.0885 4.57345C16.0522 4.57345 16.0229 4.59445 16.0229 4.62028ZM16.1165 4.71916C16.1165 5.16666 15.8028 7.06678 15.7778 7.11366C15.7757 7.16916 15.8486 7.19343 15.884 7.12406C15.9822 6.90728 16.1951 5.12518 16.2039 4.70881C16.2076 4.53713 16.1475 4.52381 16.0791 4.52668C16.0227 4.52931 15.9542 4.57325 15.9542 4.62556C15.9542 4.688 16.0416 4.73481 16.1165 4.71921V4.71916Z" fill="#E10000" stroke="black" stroke-width="0.46188"/>
<path fill-rule="evenodd" clip-rule="evenodd" d="M15.8979 5.06223C15.9096 5.08808 15.9469 5.1009 15.9813 5.09085C16.0156 5.08079 16.0341 5.05166 16.0225 5.02581C16.0109 4.99996 15.9735 4.98713 15.9391 4.99718C15.9047 5.00723 15.8863 5.03639 15.8979 5.06223ZM16.0314 5.13509C15.9281 6.03396 16.2752 7.42272 16.2725 7.47653C16.2955 7.53262 16.3757 7.53665 16.3781 7.45745C16.3948 7.40568 15.9951 6.15242 16.1098 5.10046C16.036 4.92776 15.973 4.93112 15.9092 4.95302C15.8568 4.97131 15.8115 5.03427 15.835 5.08658C15.8631 5.14902 15.9673 5.17154 16.0314 5.13513L16.0314 5.13509Z" fill="#0000C4" stroke="black" stroke-width="0.484048"/>
<path fill-rule="evenodd" clip-rule="evenodd" d="M17.0007 6.31375C17.0007 6.35684 17.0374 6.3918 17.0827 6.3918C17.1279 6.3918 17.1646 6.35684 17.1646 6.31375C17.1646 6.27067 17.1279 6.23571 17.0827 6.23571C17.0374 6.23571 17.0007 6.27071 17.0007 6.31375ZM17.1178 6.47855C17.1178 7.22438 16.7256 10.3913 16.6944 10.4694C16.6918 10.5619 16.7829 10.6023 16.8271 10.4867C16.9499 10.1254 17.216 7.15525 17.2271 6.4613C17.2317 6.17517 17.1566 6.15296 17.071 6.15776C17.0005 6.16213 16.9149 6.23538 16.9149 6.32255C16.9149 6.42663 17.0242 6.50463 17.1178 6.47863V6.47855Z" fill="#E10000" stroke="black" stroke-width="0.666667"/>
<path fill-rule="evenodd" clip-rule="evenodd" d="M16.7964 6.69551C16.8119 6.73687 16.8597 6.75819 16.9031 6.74312C16.9466 6.72804 16.9692 6.68223 16.9537 6.64087C16.9382 6.59951 16.8904 6.57818 16.847 6.59324C16.8035 6.60833 16.7809 6.65417 16.7964 6.69551ZM16.9681 6.81469C16.8619 8.23976 17.3419 10.4546 17.34 10.54C17.3708 10.6297 17.4728 10.6382 17.4737 10.5124C17.4934 10.4306 16.9503 8.42964 17.0668 6.7617C16.9682 6.4855 16.8881 6.4892 16.8077 6.52234C16.7415 6.55004 16.6857 6.64887 16.7171 6.73257C16.7546 6.83247 16.8876 6.87093 16.9681 6.81476L16.9681 6.81469Z" fill="#0000C4" stroke="black" stroke-width="0.681832"/>
<path fill-rule="evenodd" clip-rule="evenodd" d="M10.7656 17.6076C11.151 17.8828 11.5723 17.8212 11.9216 17.6076V13.9463H11.151C11.5363 15.3193 11.5363 16.6924 10.7656 17.6076Z" fill="#E10000" stroke="black" stroke-width="0.799555"/>
<path fill-rule="evenodd" clip-rule="evenodd" d="M11.3743 14.0279C11.3743 16.6116 10.8169 17.1858 10.8169 17.7024C11.0494 17.7024 11.2036 17.4618 11.3743 17.1282C11.6068 16.6115 11.6292 13.9876 11.6068 14.0278H11.3743V14.0279Z" fill="#0000C4" stroke="black" stroke-width="0.659966"/>
<path fill-rule="evenodd" clip-rule="evenodd" d="M10.9092 14.0287C10.8986 15.5386 10.3213 16.9349 10.4302 17.244C10.5545 17.5204 10.9092 16.6124 11.3743 17.1292C11.6068 16.6124 11.6292 13.9885 11.6068 14.0288H10.9092V14.0287Z" fill="#0000C4" stroke="black" stroke-width="0.659966"/>
<path fill-rule="evenodd" clip-rule="evenodd" d="M10.9628 13.806C10.9628 15.5038 10.4287 15.6166 10.4287 16.0694C10.6612 16.0694 10.9616 15.8219 10.9628 15.8434C11.1954 15.5038 11.2178 13.7795 11.1954 13.806H10.9628Z" fill="#FFDF00" stroke="black" stroke-width="0.534997"/>
<path fill-rule="evenodd" clip-rule="evenodd" d="M10.4981 13.806C10.4874 14.7982 9.92411 15.6403 10.033 15.8434C10.1574 16.025 10.4981 15.5038 10.9631 15.8434C11.1957 15.5038 11.2181 13.7795 11.1957 13.806H10.4981Z" fill="#FFDF00" stroke="black" stroke-width="0.534997"/>
<path fill-rule="evenodd" clip-rule="evenodd" d="M13.2358 17.6088C12.8505 17.8839 12.4291 17.8219 12.0798 17.6084V13.9473H12.8505C12.4652 15.3203 12.4652 16.6934 13.2358 17.6086V17.6088Z" fill="#E10000" stroke="black" stroke-width="0.799555"/>
<path fill-rule="evenodd" clip-rule="evenodd" d="M12.6267 14.0289C12.6267 16.6126 13.1841 17.1868 13.1841 17.7033C12.9516 17.7033 12.7974 17.4628 12.6267 17.1292C12.3942 16.6124 12.3717 13.9885 12.3942 14.0288H12.6267V14.0289Z" fill="#0000C4" stroke="black" stroke-width="0.659966"/>
<path fill-rule="evenodd" clip-rule="evenodd" d="M13.0918 14.0287C13.1024 15.5386 13.6797 16.9349 13.5708 17.244C13.4465 17.5204 13.0918 16.6124 12.6267 17.1292C12.3942 16.6124 12.3717 13.9885 12.3942 14.0288H13.0918V14.0287Z" fill="#0000C4" stroke="black" stroke-width="0.659966"/>
<path fill-rule="evenodd" clip-rule="evenodd" d="M13.0386 13.806C13.0386 15.5038 13.5728 15.6166 13.5728 16.0694C13.3402 16.0694 13.0398 15.8219 13.0386 15.8434C12.8061 15.5038 12.7837 13.7795 12.8061 13.806H13.0386Z" fill="#FFDF00" stroke="black" stroke-width="0.534997"/>
<path fill-rule="evenodd" clip-rule="evenodd" d="M13.5034 13.806C13.514 14.7982 14.0774 15.6403 13.9685 15.8434C13.8441 16.025 13.5034 15.5038 13.0383 15.8434C12.8058 15.5038 12.7834 13.7795 12.8058 13.806H13.5034Z" fill="#FFDF00" stroke="black" stroke-width="0.534997"/>
<path fill-rule="evenodd" clip-rule="evenodd" d="M9.06126 14.23L8.65771 14.5548L9.06126 14.8796L9.26302 14.7172L9.36391 14.8796L9.46479 15.2044L9.56568 14.8796L9.66657 14.7172L15.0751 14.7172V14.3924L9.66657 14.3924L9.56568 14.23C9.56568 14.0676 9.58684 13.9052 9.66657 13.9052C9.74629 13.9052 9.91065 13.9052 10.0701 13.9052C10.0701 13.7428 9.86833 13.418 9.46481 13.418C9.06127 13.418 8.85951 13.7428 8.85951 13.9052L9.26305 13.9052C9.34277 13.9052 9.36394 14.0676 9.36394 14.23L9.26296 14.3924L9.06118 14.23L9.06126 14.23Z" fill="#908F8A" stroke="black" stroke-width="0.725802"/>
<path fill-rule="evenodd" clip-rule="evenodd" d="M10.248 15.0186H13.7825V15.2179H10.248V15.0186Z" fill="#B74D00" stroke="black" stroke-width="0.505366"/>
<path fill-rule="evenodd" clip-rule="evenodd" d="M10.248 14.8194H13.7825V15.0188H10.248V14.8194ZM10.248 14.6201H13.7825V14.8194H10.248V14.6201Z" fill="#B74D00" stroke="black" stroke-width="0.505366"/>
<path fill-rule="evenodd" clip-rule="evenodd" d="M10.248 14.42H13.7825V14.6193H10.248V14.42ZM10.248 14.2207H13.7825V14.42H10.248V14.2207Z" fill="#B74D00" stroke="black" stroke-width="0.505366"/>
<path fill-rule="evenodd" clip-rule="evenodd" d="M10.248 14.0216H13.7825V14.2209H10.248V14.0216ZM10.248 13.8223H13.7825V14.0216H10.248V13.8223Z" fill="#B74D00" stroke="black" stroke-width="0.505366"/>
<path fill-rule="evenodd" clip-rule="evenodd" d="M10.4141 13.8105L11.7059 15.2058H11.8905L10.5986 13.8105H10.4141Z" fill="#908F8A" stroke="black" stroke-width="0.845674"/>
<path fill-rule="evenodd" clip-rule="evenodd" d="M10.4141 15.2471L11.7059 13.8518H11.8905L10.5986 15.2471H10.4141Z" fill="#908F8A" stroke="black" stroke-width="0.845674"/>
<path fill-rule="evenodd" clip-rule="evenodd" d="M10.4482 13.8105V15.2058H10.6343V13.8105H10.4482Z" fill="#908F8A" stroke="black" stroke-width="0.848785"/>
<path fill-rule="evenodd" clip-rule="evenodd" d="M12.0767 13.8105L13.3685 15.2058H13.5531L12.2612 13.8105H12.0767Z" fill="#908F8A" stroke="black" stroke-width="0.845674"/>
<path fill-rule="evenodd" clip-rule="evenodd" d="M12.0767 15.2471L13.3685 13.8518H13.5531L12.2612 15.2471H12.0767Z" fill="#908F8A" stroke="black" stroke-width="0.845674"/>
<path fill-rule="evenodd" clip-rule="evenodd" d="M13.4048 13.8105V15.2058H13.5908V13.8105H13.4048Z" fill="#908F8A" stroke="black" stroke-width="0.848785"/>
<path fill-rule="evenodd" clip-rule="evenodd" d="M12.1113 13.8105V15.2058H12.2973V13.8105H12.1113Z" fill="#908F8A" stroke="black" stroke-width="0.848785"/>
<path fill-rule="evenodd" clip-rule="evenodd" d="M11.7417 13.8105V15.2058H11.9277V13.8105H11.7417Z" fill="#908F8A" stroke="black" stroke-width="0.848785"/>
<path fill-rule="evenodd" clip-rule="evenodd" d="M14.6185 9.82811C14.6185 12.1019 13.4101 13.9472 11.9211 13.9472C10.4321 13.9472 9.22363 12.1019 9.22363 9.82811C9.22363 7.55439 10.4321 5.70898 11.9211 5.70898C13.41 5.70898 14.6185 7.55434 14.6185 9.82811ZM14.2332 9.82811C14.2332 11.8492 13.1974 13.4895 11.9211 13.4895C10.6449 13.4895 9.60911 11.8492 9.60911 9.82811C9.60911 7.80701 10.6449 6.16675 11.9211 6.16675C13.1974 6.16675 14.2332 7.80709 14.2332 9.82811Z" fill="#FFDF00" stroke="black" stroke-width="0.799555"/>
<path fill-rule="evenodd" clip-rule="evenodd" d="M12.9708 6.03286C12.6481 5.82433 12.2934 5.70898 11.9212 5.70898C11.5489 5.70898 11.1942 5.82433 10.8716 6.03286L11.0215 6.45453C11.2981 6.26918 11.6021 6.16665 11.9212 6.16665C12.2402 6.16665 12.5443 6.26915 12.8208 6.45451L12.9708 6.03283V6.03286Z" fill="#FFDF00" stroke="black" stroke-width="0.799555"/>
<path fill-rule="evenodd" clip-rule="evenodd" d="M12.9752 13.515C12.6525 13.7235 12.2978 13.8389 11.9256 13.8389C11.5533 13.8389 11.1986 13.7235 10.876 13.515L11.0259 13.0933C11.3025 13.2787 11.6065 13.3812 11.9256 13.3812C12.2446 13.3812 12.5487 13.2787 12.8252 13.0933L12.9752 13.515V13.515Z" fill="#FFDF00" stroke="black" stroke-width="0.799555"/>
<path fill-rule="evenodd" clip-rule="evenodd" d="M14.2334 9.82739C14.2334 11.8496 13.1983 13.4888 11.9214 13.4888C10.6445 13.4888 9.60938 11.8495 9.60938 9.82739C9.60938 7.80522 10.6445 6.16602 11.9214 6.16602C13.1983 6.16602 14.2334 7.80531 14.2334 9.82739Z" fill="#A7CFFF"/>
<path fill-rule="evenodd" clip-rule="evenodd" d="M14.2333 9.82827C14.258 10.5169 14.1325 10.8522 13.9747 11.5683C13.9331 11.6453 13.7362 11.3994 13.617 11.278C13.4978 11.1566 13.4471 11.3876 13.3008 11.1994C13.1546 11.0112 13.0605 11.2525 12.9532 11.0936C12.8459 10.9346 11.8374 10.9113 11.836 10.8976C11.9358 10.8388 12.4509 10.9015 12.3683 10.6084C12.2748 10.3057 11.692 10.5994 11.6138 10.2115C11.5607 9.82644 10.4487 9.81001 10.3693 9.71489C10.4007 9.86124 11.2333 9.92285 11.2135 10.2979C11.1953 10.4508 10.3936 10.4954 10.3163 10.6248C10.2501 10.7874 10.9455 10.5807 10.9713 10.7806C10.9696 10.8629 10.869 10.7824 10.5068 10.9095C10.3257 10.9731 10.8429 11.1764 10.6462 11.2876C10.4495 11.3989 10.0316 11.4475 10.0496 11.4943C10.1135 11.7244 11.0216 11.9989 10.9312 12.0384C10.6103 12.2079 10.4407 12.3193 10.2868 12.417C9.86833 11.7543 9.60938 10.8389 9.60938 9.82845C10.2992 9.53382 10.1524 9.47363 11.4287 9.47363C12.7049 9.47363 13.1247 9.53382 14.2333 9.82845L14.2333 9.82827Z" fill="#AFFF7B" stroke="black" stroke-width="0.799555"/>
<path fill-rule="evenodd" clip-rule="evenodd" d="M14.2334 9.82781C14.0578 9.82781 13.8755 9.91564 13.6881 9.91564C13.5007 9.91564 13.3082 9.82781 13.1125 9.82781C12.9167 9.82781 12.693 9.94489 12.4923 9.94489C12.2917 9.94489 12.1141 9.82786 11.9121 9.82786C11.7101 9.82786 11.5083 9.91562 11.3084 9.91562C11.1086 9.91562 10.9107 9.82778 10.7164 9.82778C10.5222 9.82778 10.3317 9.91562 10.1466 9.91562C9.96151 9.91562 9.78185 9.82778 9.60938 9.82778C9.60938 9.32248 9.6741 8.84103 9.79116 8.40307C10.38 8.45474 10.0313 7.99708 10.38 7.99708C10.5683 7.99708 10.7592 8.04513 10.929 8.24993C10.9822 8.24993 11.2439 7.95613 11.5361 7.99708C11.8282 8.03805 11.7208 8.7016 12.1096 8.73687C12.3067 8.91246 12.4226 9.0245 12.6921 9.09523C13.0774 9.13672 14.1787 9.03064 14.1864 9.09022C14.2178 9.33431 14.2335 9.58088 14.2334 9.82781Z" fill="white" stroke="black" stroke-width="0.799555"/>
<path fill-rule="evenodd" clip-rule="evenodd" d="M12.27 11.9575C12.27 11.8443 12.3714 11.7683 12.3714 11.5871C12.3714 11.4058 12.282 11.4001 12.2785 11.2299C12.277 11.1607 12.3559 11.0889 12.3904 11.0832C12.4248 11.0774 12.4541 11.2316 12.4541 11.2656C12.4541 11.2996 12.4191 11.1817 12.3897 11.178C12.3604 11.1743 12.2974 11.1906 12.2974 11.2246C12.2974 11.2926 12.4088 11.3766 12.4003 11.6031C12.3918 11.8296 12.3049 11.8962 12.3049 11.9642C12.3049 12.0322 12.3429 12.2214 12.3429 12.2214C12.3429 12.2214 12.27 12.0708 12.27 11.9576L12.27 11.9575Z" fill="black" stroke="black" stroke-width="0.413118"/>
<path fill-rule="evenodd" clip-rule="evenodd" d="M12.5947 11.9426C12.5947 11.8293 12.4934 11.7534 12.4934 11.5721C12.4934 11.3909 12.583 11.3852 12.5862 11.2149C12.5933 11.1357 12.4976 11.0841 12.4632 11.0783C12.4287 11.0725 12.3883 11.2367 12.3883 11.2707C12.3883 11.3047 12.4288 11.1668 12.4582 11.1631C12.4876 11.1594 12.5674 11.1757 12.5674 11.2097C12.5674 11.2776 12.456 11.3616 12.4645 11.5882C12.473 11.8147 12.5598 11.8813 12.5598 11.9493C12.5598 12.0172 12.5219 12.2065 12.5219 12.2065C12.5219 12.2065 12.5947 12.0559 12.5947 11.9426H12.5947Z" fill="black" stroke="black" stroke-width="0.413118"/>
<path fill-rule="evenodd" clip-rule="evenodd" d="M12.486 11.0352C12.486 11.0907 12.4616 11.1357 12.4315 11.1357C12.4014 11.1357 12.377 11.0907 12.377 11.0351C12.377 10.9795 12.4013 10.9346 12.4315 10.9346C12.4617 10.9346 12.4861 10.9796 12.4861 11.0351L12.486 11.0352ZM13.1217 11.4087H13.1391V12.226H13.1217L13.1217 11.4087ZM13.2785 11.3467H13.2959V12.164H13.2785V11.3467Z" fill="black"/>
<path fill-rule="evenodd" clip-rule="evenodd" d="M13.2222 11.7178L13.2223 11.6973L13.3715 11.7258L13.3713 11.7464L13.2222 11.7178Z" fill="black"/>
<path fill-rule="evenodd" clip-rule="evenodd" d="M11.0777 11.9555C11.0777 11.9555 11.6443 12.2482 11.7675 12.4237C11.8907 12.5993 11.8414 12.5993 11.8414 12.5993L13.0979 12.6578C13.0979 12.5701 13.3196 12.57 13.3689 12.3652C13.4181 12.1603 13.4181 12.1019 13.4181 12.1019L13.024 12.2482L13.0486 11.9848H12.7037L12.6544 12.2482L11.9153 12.2189L11.9646 11.5166L11.8168 11.5458L11.7921 12.2189C11.7675 12.2189 11.1023 12.014 11.0776 11.9555L11.0777 11.9555Z" fill="#B74D00" stroke="black" stroke-width="0.799555"/>
<path fill-rule="evenodd" clip-rule="evenodd" d="M9.94287 7.74684C9.94287 7.74684 10.7617 7.45714 11.9463 7.47783C13.1309 7.49853 13.9497 7.80889 13.9323 7.80889C13.9149 7.80889 13.7058 7.33299 13.7058 7.33299C13.7058 7.33299 12.8696 7.06401 11.9288 7.04332C10.9881 7.02265 10.1693 7.25024 10.1867 7.27091L9.94287 7.74684Z" fill="#FEDE00" stroke="#FEDE00" stroke-width="0.799555"/>
<path fill-rule="evenodd" clip-rule="evenodd" d="M11.4775 7.07767L11.9861 7.06676L11.9912 7.39592L11.4827 7.40692L11.4775 7.07767ZM10.3039 7.25684L10.1245 7.58117L10.7307 7.49817L10.6821 7.17388L10.3039 7.2568V7.25684ZM10.8205 7.13205L11.3275 7.08259L11.3507 7.41076L10.8439 7.46021L10.8205 7.13205ZM12.6519 7.09846L12.1443 7.06055L12.1264 7.38921L12.6341 7.42713L12.6519 7.09846ZM13.7463 7.30484L13.9307 7.70859L13.3816 7.55801L13.4427 7.23659L13.7463 7.3048V7.30484ZM13.3062 7.18746L12.8017 7.11121L12.7658 7.43775L13.2703 7.51409L13.3062 7.18746Z" fill="#38A9F9"/>
<path fill-rule="evenodd" clip-rule="evenodd" d="M11.9462 7.93293L11.89 7.58496L11.7261 7.88101L11.7863 7.53407L11.5397 7.73298L11.7071 7.43977L11.415 7.51159L11.6641 7.31681L11.3711 7.25016L11.6641 7.18351L11.415 6.98898L11.7071 7.06054L11.5397 6.76733L11.7863 6.96625L11.7261 6.61931L11.89 6.91536L11.9462 6.56738L12.0021 6.91536L12.1661 6.61931L12.1058 6.96625L12.3527 6.76733L12.185 7.06054L12.4773 6.98898L12.228 7.18351L12.521 7.25016L12.228 7.31681L12.4773 7.51159L12.185 7.43977L12.3527 7.73298L12.1058 7.53407L12.1661 7.88101L12.0021 7.58496L11.9462 7.93293Z" fill="#FFDF00" stroke="black" stroke-width="0.799555"/>
<path fill-rule="evenodd" clip-rule="evenodd" d="M12.3781 7.02815C12.3781 7.22169 12.2363 7.37857 12.0614 7.37857C11.8864 7.37857 11.7446 7.22169 11.7446 7.02815C11.7446 6.83461 11.8864 6.67773 12.0614 6.67773C12.2363 6.67773 12.3781 6.83461 12.3781 7.02815Z" fill="#FFDF00" stroke="black" stroke-width="0.711805"/>
<path fill-rule="evenodd" clip-rule="evenodd" d="M12.0255 7.10664C12.0255 7.12935 11.9783 7.1478 11.9202 7.1478C11.8621 7.1478 11.8149 7.12935 11.8149 7.10664C11.8149 7.08393 11.862 7.06547 11.9202 7.06547C11.9783 7.06547 12.0254 7.08389 12.0254 7.10664H12.0255ZM12.2534 7.10655C12.2534 7.12935 12.2181 7.1478 12.1745 7.1478C12.1309 7.1478 12.0956 7.12935 12.0956 7.10655C12.0956 7.08389 12.1309 7.06543 12.1745 7.06543C12.2181 7.06543 12.2534 7.08389 12.2534 7.1066V7.10655Z" fill="black"/>
<path d="M12.0154 7.25182L12.0373 7.26582C11.9853 7.23257 12.0092 7.24516 12.0914 7.3339C12.1385 7.30357 12.1474 7.27597 12.177 7.23778" stroke="black" stroke-width="0.807546"/>
<path d="M11.8065 7.43592L11.8239 7.45658C11.7826 7.4075 11.7995 7.4309 11.8937 7.49799C11.9812 7.51205 12.0697 7.4671 12.1201 7.39453" stroke="black" stroke-width="0.799555"/>
<path fill-rule="evenodd" clip-rule="evenodd" d="M10.5524 8.11914C10.5524 8.11914 10.5872 8.45018 10.3607 8.86402C10.1342 9.27789 10.1691 9.13306 10.1691 9.13306C10.1691 9.13306 10.2736 9.36064 10.2562 9.36064C10.2388 9.36064 10.082 9.15372 10.082 9.15372L9.89038 9.38131C9.89038 9.38131 10.0646 9.02956 10.0471 9.02956C10.0297 9.02956 9.9949 8.90539 9.9949 8.90539L10.1342 8.84331C10.1342 8.84331 10.3433 8.40881 10.3433 8.42956C10.3433 8.45031 9.71612 8.90539 9.71612 8.90539L10.5524 8.11914ZM10.6918 8.24339C10.6744 8.24339 10.7789 8.57447 10.866 8.73997C10.9531 8.90552 10.9531 9.11247 10.9531 9.11247L11.2493 9.27797L10.866 8.63656L11.1099 8.73997L10.6918 8.24339ZM10.6918 9.11243C10.6918 9.11243 10.9008 9.36077 10.9183 9.44347C10.9358 9.52618 10.9357 9.71247 10.9357 9.71247L10.8486 9.50556L10.7266 9.69181C10.7266 9.69181 10.8137 9.4021 10.7963 9.38139C10.7789 9.36068 10.6569 9.48489 10.6569 9.48489C10.6569 9.48489 10.7092 9.31935 10.7092 9.29864C10.7092 9.27793 10.7092 9.17447 10.6918 9.11239V9.11243ZM9.64648 9.6916C9.71616 9.62952 9.85551 9.58818 9.85551 9.58818C9.85551 9.58818 9.7684 9.75372 9.751 9.75372C9.7336 9.75372 9.68132 9.75372 9.64648 9.69164V9.6916ZM12.0505 8.78127C12.0505 8.78127 12.5034 9.09168 12.5034 9.11235C12.5034 9.13302 12.2073 8.96752 12.2073 8.96752L12.0505 8.78127H12.0505ZM11.2318 8.13981C11.2667 8.16052 11.8938 8.73981 11.8764 8.73981C11.8589 8.73981 11.5977 8.57431 11.5977 8.59502V8.73985L11.4583 8.40881L11.4234 8.53297L11.2318 8.13985L11.2318 8.13981ZM11.3884 9.07085L11.5627 9.46397L11.7368 9.4226C11.7368 9.4226 11.4059 9.07085 11.3885 9.07085H11.3884ZM11.9287 8.8226C11.9287 8.88468 11.9461 9.19502 11.9461 9.19502C11.9461 9.19502 12.0506 9.29847 12.0506 9.27781C12.0506 9.25714 11.9461 8.84322 11.9287 8.8226H11.9287Z" fill="#B7E1FF"/>
<path fill-rule="evenodd" clip-rule="evenodd" d="M6.84814 3.72985C6.84814 3.72985 7.63489 3.2461 8.53077 2.88594C9.42649 2.52577 10.4313 2.28906 10.5641 2.28906C10.8295 2.28906 11.2845 3.03002 11.3603 3.03002C11.4362 3.03002 11.7395 2.82419 12.1187 2.82419C12.4979 2.82419 12.7254 3.15352 12.8012 3.15352H13.4837C13.5596 3.15352 13.2562 2.33019 13.4837 2.37144C13.5975 2.39198 14.5643 2.55665 15.4649 2.88081C16.3655 3.20498 17.6438 3.77727 17.6438 3.77727C17.6438 3.77727 15.5545 4.08727 15.0005 3.9956C14.9247 4.03677 14.9967 4.54019 14.8905 4.31869C14.7159 4.2744 14.0751 4.1634 13.9613 4.1634C13.8476 4.1634 13.6355 4.30619 13.3321 4.38848C13.0288 4.47081 12.6496 4.59431 12.6496 4.59431L13.1426 5.45877L12.5359 5.78806C12.5359 5.78806 12.1568 4.80015 12.005 4.80015C11.8533 4.80015 11.7775 5.49994 11.5879 5.45877C11.3983 5.4176 11.3225 4.8001 11.1708 4.63544C11.0192 4.47085 10.2195 4.41085 9.91613 4.32852C9.61276 4.24623 9.12323 4.18269 8.85781 4.10035C8.59238 4.01802 8.32699 4.30619 8.21318 4.30619C8.09948 4.30619 8.36491 4.05919 8.25113 4.01802C8.13736 3.97685 8.06157 4.14152 7.98571 4.14152C7.90988 4.14152 7.11361 3.97685 7.03778 3.93569C6.96196 3.89452 7.22738 3.72985 7.15156 3.72985H6.84818H6.84814Z" fill="#984000"/>
<path fill-rule="evenodd" clip-rule="evenodd" d="M12.5056 3.31822C12.5056 3.54734 12.3364 3.73311 12.1278 3.73311C11.9191 3.73311 11.75 3.54734 11.75 3.31822C11.75 3.08909 11.9191 2.90332 12.1278 2.90332C12.3364 2.90332 12.5056 3.08909 12.5056 3.31822Z" fill="#808080" stroke="#772600" stroke-width="0.886346"/>
<path fill-rule="evenodd" clip-rule="evenodd" d="M10.5854 3.39403C10.6529 3.30523 10.7372 3.17203 10.9564 3.17203C11.0069 3.14981 11.0069 3.0166 11.1249 3.0166C11.243 3.0166 11.2093 3.1498 11.2936 3.1942C11.3778 3.2386 12.0691 3.1498 12.0691 3.1498C12.0691 3.1498 12.1365 3.21641 12.1365 3.30523C12.1365 3.39403 12.0859 3.46064 12.0691 3.46064C12.0522 3.46064 11.3779 3.39404 11.3273 3.41624C11.2767 3.43845 11.243 3.46064 11.1249 3.46064C11.0069 3.46064 10.9732 3.30524 10.8889 3.30524C10.8046 3.30524 10.7203 3.28304 10.5854 3.39404V3.39403Z" fill="#984000" stroke="#772600" stroke-width="1.54318"/>
<path d="M12.6421 3.34937H12.9119C13.0088 3.35089 13.0422 3.38943 13.1311 3.39377H13.3671C13.4529 3.38958 13.4982 3.36317 13.5863 3.34937C13.7331 3.34703 13.683 3.33195 13.6537 3.21617C13.6271 3.12863 13.6238 3.08803 13.5863 3.03854C13.5721 2.93262 13.5391 2.89494 13.5357 2.77214C13.5202 2.67845 13.4917 2.61543 13.5188 2.5057C13.5577 2.58099 13.5734 2.61197 13.6706 2.61671C13.7723 2.61671 13.8117 2.61397 13.8729 2.66111C13.9201 2.72631 13.9831 2.70551 14.0752 2.70551C14.1529 2.72426 14.1659 2.77635 14.2269 2.81653C14.2989 2.86899 14.3453 2.88313 14.4461 2.88313C14.5268 2.90209 14.5968 2.9175 14.6484 2.94973C14.6914 3.01746 14.7593 3.03423 14.8507 3.03853C14.9019 3.03853 14.9413 3.03154 14.9856 3.01633C15.0633 3.02126 15.1423 3.01633 15.2385 3.01633C15.3009 3.11246 15.3153 3.14782 15.424 3.14953C15.4982 3.21826 15.5609 3.23002 15.6263 3.26055H15.8792C15.9695 3.26971 15.9985 3.31855 16.0814 3.34935C16.1636 3.39959 16.2406 3.43402 16.3006 3.46037C16.3603 3.47743 16.4381 3.48257 16.5198 3.48257C16.5824 3.5249 16.6576 3.5287 16.7053 3.57137C16.775 3.59106 16.8703 3.61423 16.9244 3.63798C17.0137 3.65355 17.0478 3.69051 17.1267 3.70458C17.1946 3.73011 17.1042 3.75205 17.0593 3.77118C16.9598 3.76633 16.9526 3.71857 16.857 3.70458C16.8061 3.66538 16.729 3.67061 16.6547 3.63797H16.6378C16.7046 3.69001 16.7689 3.72359 16.739 3.81557C16.653 3.81557 16.5834 3.80094 16.503 3.79337C16.4181 3.77182 16.3792 3.74897 16.2838 3.74897C16.3789 3.71878 16.4038 3.75257 16.4692 3.79337C16.4935 3.90083 16.4416 3.85998 16.3512 3.85998C16.2741 3.82358 16.2279 3.78021 16.132 3.77118H15.9297C16.0299 3.77606 16.051 3.82585 16.1152 3.88219C16.1204 3.91673 16.1138 3.91515 16.0646 3.92659C16.0123 3.86689 15.9442 3.84642 15.8623 3.81558C15.7825 3.81185 15.6981 3.80271 15.6263 3.77118C15.577 3.76713 15.5846 3.68882 15.6937 3.81558C15.7598 3.86682 15.7831 3.90819 15.778 3.94878C15.6911 3.92021 15.6481 3.87438 15.5925 3.83779C15.5142 3.79973 15.4495 3.79339 15.3565 3.79339C15.2693 3.76318 15.3655 3.74574 15.4239 3.85999C15.5493 3.97693 15.4074 3.92675 15.3565 3.90439C15.2805 3.87581 15.2017 3.83527 15.1373 3.81559C15.0862 3.79639 15.0417 3.77753 14.9856 3.77119C15.073 3.78166 15.1027 3.82217 15.1373 3.90439C15.226 3.98482 15.1334 3.94573 15.053 3.92661C15.0017 3.86791 14.9367 3.83783 14.9013 3.77119C14.8167 3.71551 14.8146 3.65143 14.8676 3.79339C14.8814 3.83882 14.8788 3.93733 14.8844 3.94881C14.8223 3.86047 14.8356 3.83781 14.7664 3.83781C14.7195 3.79455 14.65 3.76094 14.6147 3.70461C14.5495 3.69655 14.5454 3.66594 14.4798 3.63799C14.5339 3.72163 14.6053 3.80437 14.6484 3.88219C14.7253 3.93875 14.7466 3.98966 14.8001 4.03761C14.8218 4.08614 14.8802 4.12637 14.817 4.05982C14.7447 3.96591 14.6908 3.94422 14.581 3.88222C14.5187 3.81609 14.4962 3.78829 14.4292 3.72679C14.3381 3.68806 14.3735 3.66622 14.4292 3.79339C14.4932 3.87033 14.5423 3.95646 14.5978 4.01539C14.636 4.08083 14.7005 4.15033 14.7496 4.19302C14.7647 4.22302 14.8102 4.22854 14.7496 4.23742C14.698 4.17611 14.624 4.13702 14.5641 4.08201C14.48 4.05081 14.4407 3.99331 14.3786 3.92661C14.3392 3.84861 14.2735 3.78821 14.2269 3.72679C14.1294 3.67653 14.2461 3.77527 14.2775 3.83779C14.2993 3.9187 14.326 3.98493 14.3449 4.05979C14.3731 4.13393 14.2592 4.0421 14.2269 4.01539C14.1528 3.95997 14.0986 3.9229 14.0077 3.90439C13.9472 3.88706 13.87 3.87149 13.8054 3.85999C13.7283 3.83266 13.8463 3.92399 13.8897 4.01541C13.9749 4.12085 13.8053 4.03441 13.7548 4.01541C13.6716 3.99347 13.5899 3.99319 13.5019 3.99319C13.3939 4.00157 13.4711 4.01915 13.5019 4.08199C13.5352 4.11573 13.559 4.18673 13.5525 4.21522C13.4813 4.20255 13.4206 4.17491 13.3334 4.17082C13.2629 4.20175 13.178 4.19302 13.0973 4.19302C13.0935 4.24889 13.1119 4.20174 13.1479 4.25962C13.2063 4.29082 13.245 4.32865 13.2322 4.37063H12.7433C12.6897 4.38993 12.7548 4.38002 12.7939 4.45947C12.7721 4.53151 12.7438 4.5039 12.6759 4.5039C12.6299 4.47966 12.5382 4.46875 12.4905 4.43729C12.443 4.43729 12.4466 4.42102 12.4062 4.41509C12.5483 4.54749 12.4778 4.51442 12.5579 4.61491C12.5717 4.62099 12.6037 4.63711 12.5747 4.63711M11.462 5.34753C11.4519 5.34753 11.4296 5.27586 11.3945 5.21433C11.371 5.13366 11.34 5.17979 11.3102 5.0589C11.3138 4.93354 11.3172 4.91098 11.3102 4.79247C11.2408 4.7287 11.2119 4.70887 11.1585 4.59266C11.0729 4.49829 11.171 4.33849 11.1873 4.22133C11.1126 4.19949 11.0759 4.37435 10.9611 4.43725C10.8785 4.51047 10.9519 4.28586 10.9116 4.15474C10.8835 3.96978 10.802 4.24749 10.7708 4.32623C10.7154 4.37581 10.6986 4.44013 10.619 4.34843C10.619 4.27985 10.669 4.08857 10.6478 4.05137C10.5687 4.10223 10.4647 4.2579 10.383 4.28182C10.3007 4.25826 10.4009 4.08411 10.4009 3.95491C10.3712 3.94185 10.2521 4.29831 10.2033 4.30161C10.1544 4.30491 10.1758 3.95503 10.1529 3.96257C10.1171 4.0287 10.0451 4.1683 9.99521 4.21521C9.89949 4.19894 10.0094 3.98274 10.024 3.90285C10.0405 3.80727 9.93385 4.08618 9.87718 4.10421C9.83567 4.15159 9.75328 4.18517 9.72545 4.19301C9.75826 4.11127 9.9186 3.94351 9.90704 3.89597C9.81379 3.9005 9.67103 4.06338 9.59058 4.08199C9.53803 4.08199 9.46516 4.10543 9.45571 4.10419C9.46025 3.99851 9.65232 3.90886 9.68297 3.84466C9.58874 3.86458 9.40771 3.97407 9.35455 4.05979C9.29232 4.07761 9.21337 4.10006 9.15222 4.05979C9.16131 3.96013 9.30264 3.76649 9.33383 3.70302C9.24882 3.75231 9.20583 3.79089 9.11465 3.81402C9.09792 3.83605 9.04859 3.88375 9.06408 3.83622C9.09097 3.74362 9.13167 3.70142 9.16522 3.63641C9.08979 3.65459 9.06114 3.71153 8.97979 3.76961C8.92821 3.77257 8.78087 3.96767 8.73075 3.97098C8.61482 4.08274 8.56865 4.10174 8.44413 4.14858C8.36731 4.16666 8.33012 4.1877 8.2924 4.23738C8.33083 4.14822 8.38957 4.06282 8.44413 4.01538C8.48136 3.94115 8.51622 3.87945 8.59587 3.83778C8.61507 3.80685 8.66864 3.79903 8.61272 3.79338C8.56467 3.84986 8.48418 3.91291 8.44414 3.94878C8.39248 3.99154 8.33267 4.03518 8.30926 4.01538C8.33578 3.91942 8.38457 3.89669 8.42728 3.81557C8.51649 3.74085 8.42771 3.79005 8.35985 3.81557C8.31593 3.86714 8.23712 3.90526 8.1744 3.94879C8.10238 3.97354 8.05591 4.03055 7.9721 4.05981C7.9721 4.09147 7.99604 4.00314 8.00582 3.97101C8.07497 3.87221 8.09346 3.84466 8.1744 3.81558C8.19376 3.77737 8.21915 3.79339 8.15754 3.79339C8.11184 3.84705 8.04809 3.87622 7.98896 3.92659C7.92931 3.94369 7.85152 3.94881 7.76978 3.94881C7.66493 3.96538 7.67399 3.97581 7.76978 3.90441C7.82402 3.83718 7.8687 3.85407 7.87093 3.77121C7.8076 3.83159 7.73051 3.87599 7.65176 3.92661C7.58662 3.92914 7.56941 3.94881 7.50004 3.94881C7.53343 3.90327 7.55347 3.84703 7.60119 3.81561C7.67101 3.71343 7.55687 3.7959 7.53375 3.81561H7.28086C7.23565 3.89001 7.27853 3.81627 7.31458 3.77121C7.35818 3.74134 7.40323 3.70247 7.39888 3.68241C7.34854 3.73993 7.29028 3.76637 7.24714 3.81561C7.20016 3.83414 7.146 3.84339 7.146 3.86001C7.18271 3.78873 7.24243 3.74566 7.28086 3.68241C7.33768 3.66614 7.38612 3.64326 7.39888 3.61579H7.16284H7.33143C7.41648 3.61579 7.48968 3.60579 7.56747 3.59359C7.70176 3.56413 7.55572 3.54919 7.48317 3.54919C7.46909 3.51522 7.52478 3.49603 7.58432 3.48259C7.63519 3.45086 7.69805 3.42269 7.7529 3.39379C7.80613 3.37467 7.88156 3.31633 7.88778 3.30499C7.83701 3.3085 7.83741 3.32366 7.78664 3.32718C7.86203 3.31953 7.91624 3.30497 8.0058 3.30497C8.08708 3.27057 8.15672 3.23283 8.22498 3.19395C8.2547 3.14611 8.26791 3.14955 8.19126 3.14955C8.25923 3.12078 8.35567 3.10698 8.41044 3.08295C8.49014 3.06046 8.5613 3.02625 8.61275 2.99415C8.66212 2.94994 8.69062 2.89847 8.74762 2.86095C8.81372 2.92011 8.81446 2.92754 8.93309 2.92754C9.02837 2.92605 9.08669 2.8959 9.13539 2.83874C9.20837 2.81253 9.22128 2.76634 9.30399 2.74994C9.37936 2.76765 9.45617 2.77213 9.54002 2.77213C9.62199 2.74386 9.69875 2.69199 9.7592 2.63893C9.81076 2.60557 9.87199 2.55733 9.92778 2.52791C9.98924 2.56969 10.0376 2.60325 10.1132 2.61671C10.1915 2.60141 10.2322 2.55181 10.2987 2.52791C10.3349 2.47018 10.3876 2.43949 10.4504 2.41691C10.5484 2.35358 10.5407 2.43789 10.5853 2.50571C10.6349 2.57414 10.7005 2.54145 10.7708 2.57231C10.8096 2.65089 10.8381 2.7045 10.8888 2.74991C10.9282 2.81271 10.9749 2.83038 11.0574 2.83871C11.0874 2.89149 11.0635 2.92954 11.1248 2.94974C11.149 2.98347 11.1908 2.99782 11.226 3.01634" stroke="#772600" stroke-width="1.02879"/>
<path d="M12.4481 4.78146V4.79256C12.4481 4.76154 12.447 4.77803 12.465 4.83696C12.471 4.8855 12.4567 4.8799 12.4397 4.91467C12.4368 4.96431 12.4312 5 12.4312 5.05898C12.4258 5.10714 12.4052 5.15284 12.3891 5.19218C12.3728 5.23395 12.3025 5.25711 12.3048 5.31431C12.2644 5.32951 12.2634 5.29504 12.2626 5.23658C12.2385 5.20023 12.2301 5.15036 12.2121 5.10338C12.2008 5.05703 12.1769 5.02295 12.1615 4.97018C12.1366 4.91968 12.1155 4.90516 12.0941 4.84804C12.0857 4.82051 12.0871 4.78648 12.0688 4.77035C12.0412 4.72451 12.0233 4.71715 11.976 4.71484C11.9397 4.72611 11.9257 4.74706 11.8917 4.75924C11.8657 4.77067 11.8151 4.76698 11.7822 4.78146C11.774 4.79898 11.7984 4.80732 11.8074 4.84806C11.7858 4.87158 11.7778 4.91316 11.7653 4.94796C11.7454 4.98112 11.7321 4.99738 11.7231 5.04788C11.7369 5.07876 11.7252 5.11971 11.7063 5.14779C11.7005 5.19931 11.6816 5.22611 11.6726 5.26992C11.6454 5.29426 11.6356 5.31708 11.6135 5.35872C11.5942 5.39443 11.5767 5.39202 11.5292 5.39202C11.4921 5.37868 11.4869 5.35218 11.4534 5.33651C11.4498 5.32243 11.4472 5.31902 11.4365 5.31432" stroke="#782600" stroke-width="0.918559"/>
<path fill-rule="evenodd" clip-rule="evenodd" d="M11.5371 5.23031C11.5371 5.23031 11.52 5.43677 11.4005 5.57439C11.2809 5.71202 11.0332 5.8726 11.0332 5.8726C11.0332 5.8726 11.3663 5.69669 11.4004 5.73494C11.4346 5.77314 11.1869 6.07902 11.1869 6.07902C11.1869 6.07902 11.5115 5.75785 11.5542 5.75785C11.5969 5.75785 11.6908 6.07135 11.725 6.06368C11.7592 6.05606 11.6481 5.6661 11.6653 5.60493C11.6823 5.54377 11.6653 5.21493 11.6653 5.21493L11.5372 5.23027L11.5371 5.23031ZM12.3057 5.20231C12.3057 5.20231 12.2886 5.42302 12.169 5.57014C12.0495 5.71727 11.8018 5.88889 11.8018 5.88889C11.8018 5.88889 12.1348 5.70089 12.169 5.74181C12.2032 5.78264 11.9556 6.1096 11.9556 6.1096C11.9556 6.1096 12.2801 5.76627 12.3228 5.76627C12.3655 5.76627 12.4595 6.10139 12.4936 6.09323C12.5278 6.08506 12.4168 5.66823 12.4339 5.60281C12.4509 5.53739 12.4339 5.18598 12.4339 5.18598L12.3058 5.20231H12.3057ZM11.2297 3.20043C11.2297 3.24156 11.1934 3.27494 11.1487 3.27494C11.104 3.27494 11.0678 3.2416 11.0678 3.20043C11.0678 3.15927 11.104 3.12598 11.1488 3.12598C11.1936 3.12598 11.2297 3.15931 11.2297 3.20043Z" fill="#812E00"/>
</g>
<defs>
<clipPath id="clip0_275_23308">
<rect width="24" height="20" rx="4" fill="white"/>
</clipPath>
</defs>
</svg>
