<svg width="24" height="20" viewBox="0 0 24 20" fill="none" xmlns="http://www.w3.org/2000/svg">
<g clip-path="url(#clip0_275_23314)">
<path d="M0 13.333H24V19.9997H0V13.333Z" fill="black"/>
<path d="M0 6.66699H24V13.3337H0V6.66699Z" fill="white"/>
<path d="M0 0H24V6.66667H0V0Z" fill="#CE1126"/>
<path d="M12.0243 10.0799L14.0789 12.1992L13.9327 8.3502C13.9112 7.76687 13.4549 7.90067 13.1236 8.1111C12.7878 8.35017 12.4048 8.35017 12.0001 8.19234C11.5956 8.35017 11.2126 8.35017 10.8768 8.1111C10.5455 7.90067 10.0893 7.76684 10.0677 8.35017L9.92139 12.1992L12.0243 10.0798L12.0243 10.0799Z" fill="white" stroke="#C09300" stroke-width="1.016" stroke-linejoin="round"/>
<path d="M10.304 8.2168L10.1619 11.9608L9.9209 12.1997L10.0673 8.35073C10.1361 8.29813 10.2567 8.21683 10.304 8.21683L10.304 8.2168ZM10.5926 8.4848L10.4721 11.6166L10.2311 11.8906L10.3774 8.2743C10.4248 8.32686 10.5669 8.45596 10.5926 8.48463L10.5926 8.4848ZM10.8551 8.7238L10.7604 11.3359L10.5668 11.5462L10.6873 8.566C10.7345 8.6186 10.8292 8.69513 10.8551 8.7238ZM11.1392 8.8578L11.0445 11.084L10.8551 11.2547L10.9498 8.77653C10.9972 8.80043 11.0919 8.8578 11.1392 8.8578H11.1392ZM11.4017 8.8578L11.3328 10.713L11.1391 10.9235L11.2123 8.88173C11.2596 8.88173 11.3801 8.88173 11.4017 8.8578Z" fill="#C09300"/>
<path d="M13.6955 8.2168L13.8376 11.9608L14.0786 12.1997L13.9322 8.35073C13.8634 8.29813 13.7428 8.21683 13.6955 8.21683L13.6955 8.2168ZM13.4069 8.4848L13.5275 11.6166L13.7684 11.8906L13.6221 8.2743C13.5747 8.32686 13.4327 8.45596 13.4069 8.48463L13.4069 8.4848ZM13.1444 8.7238L13.2391 11.3359L13.4327 11.5462L13.3122 8.566C13.265 8.6186 13.1703 8.69513 13.1444 8.7238ZM12.8603 8.8578L12.955 11.084L13.1444 11.2547L13.0497 8.77653C13.0023 8.80043 12.9077 8.8578 12.8603 8.8578H12.8603ZM12.5978 8.8578L12.6668 10.713L12.8604 10.9235L12.7872 8.88173C12.74 8.88173 12.6194 8.88173 12.5978 8.8578Z" fill="#C09300"/>
<path d="M12.0945 10.502L12.3829 11.9605L12.2882 12.0656L12.1892 11.9843L12.0257 10.6837L12.0945 11.9843L11.9998 12.1182L11.9051 11.9844L11.9739 10.6838L11.8104 11.9844L11.7113 12.0657L11.6167 11.9606L11.905 10.5021H12.0944L12.0945 10.502Z" fill="#C09300" stroke="#C09300" stroke-width="0.8592"/>
<path d="M11.3541 9.86136L10.7817 12.1182L11.5694 12.2521L11.905 10.5547L11.3541 9.86133V9.86136Z" fill="white" stroke="#C09300" stroke-width="0.9512" stroke-linejoin="round"/>
<path d="M11.165 10.6314L11.2339 10.8178L11.6061 10.4229" stroke="#C09300" stroke-width="1.016" stroke-linejoin="round"/>
<path d="M11.4224 10.1641L11.5003 10.9756L11.737 10.6313M11.6423 10.7651L11.7716 11.2609M11.8223 11.0787L11.5608 11.5201M11.6424 11.9606L11.5587 11.5207L11.4856 11.0732L11.3104 11.3369L11.2335 11.0329L10.9883 11.3124L11.113 11.8208L11.2851 11.5063L11.3798 11.8267L11.5565 11.5213" stroke="#C09300" stroke-width="1.016" stroke-linejoin="round"/>
<path d="M10.9492 12.0655L11.1082 11.8174L11.2118 12.1993L11.3538 11.9315L11.4485 12.252" stroke="#C09300" stroke-width="1.016" stroke-linejoin="round"/>
<path d="M12.6454 9.86136L13.2178 12.1182L12.4301 12.2521L12.0945 10.5547L12.6454 9.86133V9.86136Z" fill="white" stroke="#C09300" stroke-width="0.9512" stroke-linejoin="round"/>
<path d="M12.8345 10.6314L12.7656 10.8178L12.3934 10.4229" stroke="#C09300" stroke-width="1.016" stroke-linejoin="round"/>
<path d="M12.5771 10.1641L12.4992 10.9756L12.2625 10.6313M12.3572 10.7651L12.2279 11.2609M12.1772 11.0787L12.4387 11.5201M12.3571 11.9606L12.4408 11.5207L12.514 11.0732L12.6892 11.3369L12.766 11.0329L13.0112 11.3124L12.8866 11.8208L12.7144 11.5063L12.6198 11.8267L12.4431 11.5213" stroke="#C09300" stroke-width="1.016" stroke-linejoin="round"/>
<path d="M13.0503 12.0655L12.8913 11.8174L12.7877 12.1993L12.6457 11.9315L12.551 12.252" stroke="#C09300" stroke-width="1.016" stroke-linejoin="round"/>
<path d="M11.9998 13.1267C12.5981 13.1267 13.1705 13.0741 13.5062 12.9689C13.6482 12.9403 13.6482 12.859 13.6482 12.7538C13.7903 12.7012 13.7171 12.5148 13.8161 12.5148C13.7171 12.5435 13.6956 12.3283 13.5751 12.3571C13.5751 12.1705 13.4072 12.1466 13.2652 12.1991C12.9811 12.3044 12.4775 12.3283 11.9998 12.3283C11.5221 12.3044 11.0228 12.3044 10.7344 12.1991C10.5924 12.1467 10.4246 12.1705 10.4246 12.3571C10.3041 12.3283 10.2825 12.5436 10.1836 12.5148C10.2826 12.5148 10.2094 12.7012 10.3514 12.7538C10.3514 12.8591 10.3514 12.9404 10.4978 12.969C10.8291 13.0742 11.4016 13.1268 11.9998 13.1268V13.1267Z" fill="white" stroke="#C09300" stroke-width="1.9024" stroke-linecap="round" stroke-linejoin="round"/>
<path d="M11.1865 12.1177C11.3802 12.1464 11.5954 12.1703 11.7633 12.1464C11.8579 12.1464 11.9268 12.3281 11.7374 12.3569C11.5696 12.3807 11.307 12.3569 11.165 12.3281C11.0445 12.3042 10.782 12.2516 10.6141 12.1989C10.4463 12.1177 10.5668 11.96 10.6614 11.9839C10.8078 12.0364 10.9972 12.0891 11.1866 12.1177H11.1865ZM12.8134 12.1177C12.6197 12.1464 12.4046 12.1703 12.241 12.1464C12.142 12.1464 12.0731 12.3281 12.2625 12.3569C12.4304 12.3807 12.6929 12.3569 12.8349 12.3281C12.9555 12.3042 13.218 12.2516 13.3858 12.1989C13.5537 12.1177 13.4332 11.96 13.3385 11.9839C13.1922 12.0364 13.0028 12.0891 12.8135 12.1177H12.8134Z" fill="white" stroke="#C09300" stroke-width="1.016" stroke-linecap="round" stroke-linejoin="round"/>
<path d="M10.5923 12.0127C10.446 11.9841 10.3771 12.1705 10.4245 12.2756C10.446 12.223 10.545 12.223 10.5665 12.1705C10.5923 12.0892 10.545 12.0892 10.5923 12.0127ZM11.1647 12.5017C11.1647 12.3966 11.2593 12.4096 11.2593 12.3044C11.2593 12.2518 11.2335 12.1704 11.1862 12.1704C11.1388 12.1704 11.0915 12.223 11.0915 12.2756C11.0699 12.3808 11.1647 12.3966 11.1647 12.5017V12.5017ZM11.846 12.1991C11.9879 12.1991 11.9738 12.4095 11.905 12.5147C11.905 12.4382 11.7845 12.4095 11.7845 12.357C11.7845 12.2756 11.8932 12.2756 11.846 12.1991H11.846ZM13.4069 12.0127C13.5532 11.9841 13.6221 12.1705 13.5747 12.2756C13.5532 12.223 13.4542 12.223 13.4327 12.1705C13.4069 12.0892 13.4543 12.0892 13.4069 12.0127H13.4069ZM12.8345 12.5017C12.8345 12.3966 12.7399 12.4096 12.7399 12.3044C12.7399 12.2518 12.7657 12.1704 12.813 12.1704C12.8603 12.1704 12.9077 12.223 12.9077 12.2756C12.9293 12.3808 12.8345 12.3966 12.8345 12.5017L12.8345 12.5017ZM12.1532 12.1991C12.0112 12.1991 12.0253 12.4095 12.0942 12.5147C12.0942 12.4382 12.2146 12.4095 12.2146 12.357C12.2146 12.2756 12.1058 12.2756 12.1532 12.1991Z" fill="white" stroke="#C09300" stroke-width="1.016" stroke-linecap="round" stroke-linejoin="round"/>
<path d="M10.6398 12.0655C10.6872 12.0655 10.7603 12.0895 10.7818 12.1181L10.6396 12.0654L10.6398 12.0655ZM10.8762 12.1469C10.9021 12.1469 10.9967 12.1707 11.0441 12.1994L10.8761 12.1467L10.8762 12.1469ZM11.7372 12.2519C11.6899 12.2519 11.5952 12.2519 11.5694 12.2757L11.7371 12.2517L11.7372 12.2519ZM11.4747 12.2519C11.4489 12.2231 11.3542 12.2231 11.3069 12.2519H11.4746H11.4747ZM13.3599 12.0655C13.3126 12.0655 13.2436 12.0895 13.2178 12.1181L13.3599 12.0655ZM13.1232 12.1469C13.0974 12.1469 13.0027 12.1707 12.9553 12.1994L13.1233 12.1467L13.1232 12.1469ZM12.2622 12.2519C12.3096 12.2519 12.4042 12.2519 12.43 12.2757L12.262 12.2517L12.2622 12.2519ZM12.5247 12.2519C12.5505 12.2231 12.6452 12.2231 12.6925 12.2519H12.5245H12.5247Z" fill="white" stroke="#C09300" stroke-width="0.7128" stroke-linecap="round" stroke-linejoin="round"/>
<path d="M10.6 12.4858C10.584 12.4824 10.5756 12.4683 10.5796 12.4516C10.5845 12.4313 10.5991 12.4197 10.613 12.4252C10.6218 12.4287 10.6379 12.4467 10.6379 12.4532C10.638 12.4606 10.6295 12.4782 10.6259 12.4783C10.6243 12.4783 10.6218 12.4798 10.6204 12.4817C10.6174 12.4856 10.608 12.4875 10.6 12.4858V12.4858ZM12.2479 12.6165C12.2419 12.614 12.2325 12.5992 12.2325 12.5923C12.2325 12.5794 12.2497 12.5584 12.2604 12.5583C12.2656 12.5583 12.28 12.5666 12.2854 12.5728C12.2951 12.584 12.293 12.6025 12.2807 12.613C12.2747 12.6182 12.2567 12.6201 12.2479 12.6164V12.6165ZM12.2587 12.6991C12.2461 12.6944 12.2415 12.6875 12.2405 12.672C12.2394 12.6558 12.2408 12.6533 12.2562 12.644L12.2672 12.6373L12.2776 12.6425C12.2919 12.6497 12.2984 12.6574 12.2989 12.6681C12.2994 12.6797 12.2917 12.6916 12.2797 12.6975C12.2691 12.7029 12.2685 12.7029 12.2587 12.6992L12.2587 12.6991Z" fill="#C09300"/>
<path d="M10.7321 12.3361C10.7217 12.3357 10.7075 12.3463 10.6993 12.3517C10.6798 12.3567 10.6572 12.3701 10.6384 12.3559C10.6198 12.3495 10.5952 12.3545 10.5924 12.3798C10.5972 12.4015 10.6245 12.414 10.6412 12.3996C10.6535 12.3817 10.6871 12.3712 10.6908 12.4017C10.6771 12.4247 10.6787 12.4553 10.6674 12.4798C10.6656 12.495 10.6598 12.5095 10.6524 12.5225C10.6385 12.524 10.6238 12.5222 10.6121 12.5319C10.5933 12.533 10.5741 12.5434 10.5633 12.561C10.5512 12.5803 10.5396 12.5999 10.5361 12.6235C10.5393 12.6477 10.5642 12.6546 10.5829 12.6559C10.603 12.6619 10.623 12.67 10.6429 12.6767C10.6755 12.6847 10.706 12.6978 10.7386 12.7058C10.7861 12.7217 10.836 12.729 10.8839 12.7433C10.8889 12.7451 10.8936 12.7467 10.8989 12.7474C10.9188 12.752 10.9291 12.728 10.9308 12.7099C10.9407 12.6713 10.9482 12.6319 10.958 12.5933C10.9647 12.5777 10.9729 12.5427 10.9458 12.5505C10.9304 12.5608 10.9173 12.5763 10.898 12.5776C10.8718 12.5793 10.8868 12.6091 10.8971 12.6214C10.8994 12.6409 10.8938 12.6643 10.8821 12.6797C10.8665 12.6907 10.8469 12.6778 10.8305 12.6734C10.8133 12.6738 10.7788 12.664 10.7949 12.638C10.8006 12.6188 10.8011 12.5977 10.808 12.5786C10.8169 12.5582 10.8181 12.5358 10.8221 12.5141C10.8113 12.4882 10.7927 12.5226 10.778 12.5256C10.7679 12.5334 10.7299 12.5367 10.7499 12.5568C10.7672 12.5714 10.754 12.5967 10.7508 12.6151C10.7498 12.6408 10.7257 12.6469 10.7068 12.6411C10.688 12.6401 10.6618 12.6246 10.6777 12.6016C10.6814 12.5824 10.6874 12.5636 10.6909 12.5443C10.698 12.521 10.704 12.4988 10.7115 12.4755C10.7148 12.4549 10.7214 12.4353 10.7302 12.4172C10.7308 12.3943 10.7446 12.3747 10.7443 12.3515C10.7429 12.3403 10.7383 12.3362 10.7321 12.3359L10.7321 12.3361ZM10.6243 12.5777C10.6265 12.5773 10.6288 12.5776 10.6309 12.5787C10.6384 12.5823 10.6386 12.5891 10.6309 12.5965C10.6275 12.5997 10.6237 12.6028 10.6224 12.6027C10.6084 12.6014 10.6042 12.5991 10.6037 12.5934C10.6031 12.5883 10.6046 12.5869 10.6139 12.5819C10.6172 12.58 10.6207 12.5786 10.6242 12.5777H10.6243ZM10.5932 12.7451C10.5783 12.7295 10.5807 12.7182 10.6027 12.7C10.6121 12.6922 10.6179 12.693 10.6286 12.704C10.6452 12.7208 10.6458 12.7314 10.6312 12.7458C10.624 12.7529 10.6208 12.7544 10.6124 12.7545C10.6036 12.7546 10.6011 12.7533 10.5932 12.7451ZM10.6847 12.7757C10.6813 12.7748 10.678 12.7732 10.6752 12.7708C10.6724 12.7685 10.67 12.7655 10.6683 12.7621C10.6665 12.7587 10.6654 12.7549 10.665 12.751C10.6646 12.7472 10.665 12.7432 10.666 12.7395C10.6699 12.725 10.6721 12.7236 10.6912 12.7234C10.7127 12.7231 10.7168 12.727 10.717 12.748C10.7172 12.7599 10.7163 12.7626 10.711 12.768C10.7074 12.7714 10.7032 12.7738 10.6986 12.7751C10.6941 12.7764 10.6893 12.7766 10.6847 12.7757V12.7757ZM13.358 12.7784C13.3512 12.7721 13.3498 12.7693 13.3497 12.7612C13.3497 12.7476 13.3567 12.7375 13.3721 12.7298C13.3926 12.7195 13.4009 12.7209 13.4086 12.736C13.4189 12.756 13.4184 12.7642 13.4061 12.7777C13.3994 12.7852 13.3981 12.7856 13.3826 12.7857C13.3674 12.7859 13.3656 12.7854 13.358 12.7784H13.358ZM10.8062 12.8167C10.7953 12.8135 10.7896 12.8044 10.7895 12.7898C10.7894 12.7787 10.7901 12.7769 10.7971 12.7708C10.8016 12.7669 10.8088 12.7635 10.8145 12.7627C10.8225 12.7614 10.8254 12.7622 10.8318 12.7673C10.8483 12.7802 10.8519 12.7929 10.8423 12.8053C10.8321 12.8185 10.8224 12.8215 10.8062 12.8167ZM11.4638 12.8494C11.4614 12.8461 11.456 12.8441 11.4555 12.8398C11.4564 12.8213 11.4573 12.8026 11.4625 12.7849C11.4654 12.7675 11.4629 12.7492 11.4684 12.7322C11.474 12.7014 11.474 12.6696 11.4804 12.6388C11.4807 12.623 11.4821 12.6072 11.4862 12.592C11.4909 12.5679 11.4866 12.5428 11.493 12.519C11.4923 12.5101 11.5015 12.4862 11.5097 12.5003C11.5215 12.5196 11.537 12.5352 11.5523 12.5509C11.5654 12.5593 11.5533 12.5717 11.5443 12.5759C11.5318 12.5813 11.5288 12.5965 11.5297 12.6099C11.5279 12.6237 11.5229 12.6368 11.5224 12.6509C11.5198 12.6717 11.5203 12.6927 11.5179 12.7135C11.5124 12.7338 11.5145 12.7555 11.5127 12.7764C11.513 12.7897 11.5073 12.8017 11.508 12.8151C11.5066 12.8286 11.5061 12.8449 11.4958 12.8541C11.4859 12.8597 11.4717 12.8587 11.4638 12.8494ZM12.3548 12.5227C12.3403 12.5349 12.3274 12.5492 12.3145 12.5634C12.2967 12.5783 12.3291 12.5871 12.3332 12.5998C12.338 12.6194 12.3377 12.6402 12.3389 12.6602C12.3443 12.6786 12.3466 12.6982 12.3454 12.7176C12.3439 12.7382 12.3195 12.7339 12.3089 12.7457C12.2941 12.7526 12.2882 12.7687 12.277 12.78C12.2696 12.7961 12.2676 12.8159 12.2667 12.8342C12.2677 12.8491 12.2576 12.8659 12.2667 12.879C12.2679 12.8808 12.2692 12.8834 12.2704 12.8852C12.2735 12.8901 12.2807 12.8862 12.2854 12.8873C12.3005 12.8863 12.3163 12.8889 12.3304 12.8821C12.3667 12.8752 12.4034 12.8746 12.4401 12.8728C12.4626 12.8736 12.4842 12.8649 12.5067 12.8654C12.5243 12.8698 12.5322 12.8486 12.532 12.8332C12.522 12.8114 12.5306 12.7855 12.5226 12.7634C12.5156 12.7409 12.5183 12.7157 12.5151 12.6925C12.5147 12.6742 12.4938 12.6675 12.4832 12.6811C12.473 12.6926 12.4565 12.6949 12.4486 12.7092C12.4397 12.7293 12.4674 12.7293 12.472 12.7446C12.4773 12.7601 12.4756 12.7773 12.4767 12.7936C12.4801 12.8133 12.4608 12.8144 12.4486 12.8165C12.4325 12.8232 12.4099 12.8277 12.4008 12.8061C12.3951 12.7901 12.3958 12.773 12.3942 12.7561C12.3938 12.7263 12.3874 12.6971 12.3858 12.6675C12.3843 12.631 12.3786 12.5946 12.3764 12.5582C12.3761 12.543 12.3743 12.5182 12.3548 12.5227H12.3548ZM12.336 12.7977L12.3454 12.7987L12.3463 12.8113L12.3473 12.8238L12.3351 12.828C12.3311 12.8293 12.327 12.8303 12.3229 12.8311C12.321 12.8298 12.3191 12.8284 12.3173 12.8269C12.3107 12.8216 12.3124 12.8141 12.321 12.804C12.3259 12.7983 12.3282 12.7972 12.336 12.7978V12.7977ZM11.4371 12.4884C11.4257 12.4929 11.4112 12.5115 11.3996 12.5113C11.3732 12.5134 11.3769 12.542 11.3958 12.5519C11.3983 12.5606 11.396 12.5715 11.3967 12.5811C11.4005 12.6074 11.3855 12.6286 11.3883 12.6551C11.387 12.6841 11.3791 12.7124 11.378 12.7416C11.3706 12.7717 11.3705 12.8026 11.3659 12.8332C11.3628 12.8607 11.3449 12.851 11.3293 12.8436C11.3292 12.8318 11.3285 12.8201 11.3284 12.8082C11.3349 12.781 11.3152 12.773 11.2956 12.7697C11.275 12.7719 11.2649 12.7523 11.2693 12.7322C11.2782 12.7205 11.3004 12.7237 11.3143 12.7218C11.3437 12.7286 11.3426 12.6847 11.3275 12.6697C11.3171 12.6485 11.2915 12.6394 11.2843 12.6176C11.2872 12.5887 11.2699 12.5599 11.2487 12.5457C11.216 12.5432 11.1914 12.5745 11.1793 12.6051C11.1657 12.6094 11.1522 12.614 11.139 12.6197C11.1177 12.6256 11.0874 12.6666 11.1165 12.6822C11.1328 12.6872 11.1825 12.6998 11.1606 12.7248C11.1482 12.7484 11.1245 12.7488 11.1034 12.7426C11.0817 12.7426 11.0575 12.7308 11.0584 12.703C11.0539 12.678 11.0547 12.6511 11.0443 12.628C11.0399 12.6 11.0113 12.6066 11.0096 12.6322C10.9876 12.65 10.9905 12.6787 11.0059 12.6998C11.0155 12.7242 11.006 12.7524 10.9965 12.7748C10.9908 12.804 10.9618 12.805 10.9412 12.8144C10.931 12.8188 10.8923 12.8119 10.9065 12.8364C10.9291 12.8452 10.956 12.8532 10.9796 12.8468C11.0043 12.8434 11.0257 12.8246 11.0377 12.8009C11.0543 12.7823 11.0828 12.792 11.1043 12.7916C11.1275 12.7915 11.1512 12.8096 11.1737 12.7978C11.1801 12.779 11.2103 12.748 11.2196 12.7801C11.218 12.8089 11.2409 12.8243 11.2646 12.8208C11.2905 12.8191 11.2809 12.8411 11.2805 12.8583C11.2822 12.8894 11.3003 12.9058 11.3237 12.9187C11.3316 12.9211 11.34 12.9203 11.348 12.9187C11.3705 12.9108 11.3946 12.8997 11.4014 12.8718C11.4105 12.8491 11.4107 12.8235 11.4174 12.7999C11.4227 12.7623 11.4296 12.7246 11.4305 12.6864C11.4388 12.6517 11.4364 12.6152 11.4427 12.5801C11.4467 12.5541 11.4496 12.528 11.4521 12.502C11.4493 12.4881 11.4439 12.4858 11.4371 12.4885V12.4884ZM11.2337 12.6269C11.2382 12.6276 11.2407 12.6337 11.2412 12.6446C11.2416 12.6568 11.2473 12.6667 11.2543 12.6686C11.2598 12.6701 11.2593 12.6766 11.2534 12.6811C11.2499 12.6838 11.2437 12.6854 11.2327 12.6853C11.2154 12.6852 11.2046 12.6802 11.1952 12.6696L11.1896 12.6634L11.198 12.6572C11.2023 12.6536 11.21 12.6461 11.2149 12.6405C11.2235 12.6308 11.2291 12.6264 11.2337 12.627L11.2337 12.6269ZM13.2146 12.3644C13.1978 12.3653 13.1812 12.3681 13.1649 12.3727C13.1337 12.3706 13.118 12.407 13.148 12.4248C13.1661 12.476 13.1943 12.4143 13.223 12.4186C13.2662 12.4279 13.2698 12.4796 13.2765 12.5186C13.2789 12.5571 13.2889 12.5946 13.299 12.6311C13.3279 12.6667 13.2774 12.6891 13.2559 12.6613C13.2376 12.6391 13.1983 12.6119 13.1762 12.6425C13.149 12.6553 13.1479 12.6955 13.1255 12.7071C13.0893 12.7194 13.0847 12.6698 13.0655 12.6488C13.0479 12.6213 13.0142 12.6189 12.9868 12.6092C12.9739 12.5802 12.9806 12.531 12.954 12.5113C12.9316 12.5214 12.8906 12.568 12.9249 12.5894C12.9584 12.6214 12.9103 12.6361 12.8949 12.6582C12.873 12.6853 12.8694 12.7227 12.8658 12.7571C12.8281 12.7804 12.8207 12.7309 12.8162 12.6999C12.8132 12.6628 12.7851 12.6737 12.7655 12.6874C12.737 12.7002 12.7227 12.7304 12.7027 12.7541C12.7003 12.7756 12.7038 12.7993 12.7036 12.8217C12.7101 12.8488 12.7397 12.8361 12.758 12.8343C12.7874 12.8206 12.7994 12.8552 12.7758 12.8749C12.7599 12.8974 12.7092 12.8856 12.714 12.9218C12.7303 12.9238 12.7473 12.9232 12.7637 12.9218C12.7964 12.9118 12.8315 12.8861 12.8349 12.8457C12.8392 12.8104 12.8849 12.8168 12.9099 12.8092C12.9411 12.7992 12.9787 12.7967 12.9858 12.8405C13.0071 12.8653 13.0533 12.8933 13.0767 12.8593C13.1006 12.8431 13.112 12.8147 13.1105 12.7843C13.1057 12.7581 13.1486 12.7572 13.1593 12.7718C13.1749 12.8003 13.2238 12.7919 13.2474 12.7759C13.2725 12.7553 13.2779 12.7191 13.314 12.7186C13.3674 12.7008 13.423 12.6906 13.4752 12.6686C13.5175 12.6584 13.4689 12.6287 13.4583 12.6113C13.4261 12.5936 13.3981 12.666 13.3617 12.6301C13.3337 12.6062 13.3356 12.5608 13.3252 12.5259C13.3181 12.4806 13.3199 12.4284 13.2905 12.3925C13.2704 12.3687 13.243 12.363 13.2146 12.3644H13.2146ZM13.0102 12.6801C13.014 12.6799 13.0182 12.682 13.0252 12.6863C13.0384 12.6943 13.0477 12.7077 13.0477 12.7186C13.0477 12.7257 13.0461 12.7261 13.0365 12.7311C13.0305 12.7341 13.0239 12.7374 13.0215 12.7373C13.0161 12.7373 13.0027 12.7254 13.0027 12.7207C13.0027 12.7187 13.001 12.7111 12.999 12.705C12.9954 12.6943 12.996 12.6945 13.0008 12.6873C13.0039 12.6827 13.0065 12.6801 13.0102 12.68L13.0102 12.6801ZM13.2062 12.6915C13.2173 12.6907 13.2239 12.6945 13.2287 12.704C13.2341 12.715 13.2304 12.7233 13.2164 12.73C13.2103 12.733 13.2042 12.7353 13.2033 12.7352C13.2024 12.7351 13.1974 12.7318 13.1921 12.7279C13.184 12.722 13.1828 12.7191 13.1827 12.7123C13.1826 12.7018 13.1932 12.6924 13.2061 12.6915H13.2062ZM12.938 12.6946C12.9413 12.694 12.9443 12.6959 12.9483 12.6998C12.9537 12.705 12.9554 12.7091 12.9567 12.7196C12.9577 12.7269 12.9576 12.7363 12.9567 12.7404C12.9553 12.748 12.9552 12.7477 12.9399 12.7478C12.9207 12.748 12.9189 12.7456 12.9192 12.7259C12.9195 12.7133 12.9196 12.71 12.9258 12.703C12.9306 12.6976 12.9347 12.6952 12.938 12.6946L12.938 12.6946ZM12.773 12.7425C12.7762 12.7433 12.7792 12.7451 12.7815 12.7477C12.7838 12.7502 12.7855 12.7535 12.7862 12.7571C12.7881 12.7678 12.7864 12.7725 12.7787 12.7769C12.772 12.7807 12.7566 12.7819 12.7524 12.779C12.7501 12.7774 12.7482 12.7753 12.7467 12.7728C12.7447 12.7688 12.7451 12.7668 12.7476 12.7644C12.7495 12.7628 12.7515 12.7604 12.7514 12.7592C12.7514 12.758 12.7535 12.7538 12.7561 12.7499C12.758 12.747 12.7605 12.7447 12.7635 12.7434C12.7665 12.7421 12.7698 12.7418 12.7729 12.7426L12.773 12.7425ZM13.0505 12.7821C13.0559 12.7821 13.0604 12.7842 13.0637 12.7873C13.0692 12.7928 13.069 12.8007 13.0627 12.8061C13.0586 12.8096 13.0366 12.8093 13.0289 12.8061C13.0256 12.8047 13.0243 12.8028 13.0242 12.7988C13.0242 12.7941 13.0254 12.7912 13.0326 12.7873C13.0388 12.7841 13.0452 12.7822 13.0505 12.7821L13.0505 12.7821ZM12.5354 12.9427C12.5325 12.9406 12.5283 12.9388 12.5325 12.9353C12.5377 12.9253 12.5481 12.9218 12.5573 12.918C12.5737 12.9098 12.5879 12.8969 12.5985 12.8807C12.6 12.8696 12.6112 12.8636 12.6111 12.8521C12.6112 12.8362 12.6121 12.82 12.6086 12.8045C12.6048 12.7903 12.5951 12.7794 12.5838 12.772C12.5762 12.7653 12.5636 12.7634 12.5608 12.7515C12.5592 12.7401 12.5684 12.7314 12.5716 12.7212C12.5783 12.7072 12.5839 12.6924 12.5911 12.6787C12.5989 12.6691 12.6109 12.6782 12.6149 12.6875C12.6206 12.6967 12.6256 12.7067 12.6284 12.7174C12.6375 12.7284 12.6455 12.7414 12.6488 12.7561C12.6533 12.7664 12.6603 12.7762 12.6599 12.7883C12.6599 12.8022 12.6669 12.8145 12.6665 12.8285C12.6669 12.8472 12.6669 12.8667 12.6608 12.8843C12.6566 12.8941 12.6482 12.9 12.6426 12.9087C12.633 12.9186 12.6225 12.9281 12.6102 12.9333C12.6015 12.9364 12.5965 12.9475 12.5856 12.9448C12.5702 12.9451 12.5545 12.9475 12.5392 12.9447C12.5402 12.9465 12.5345 12.9416 12.5355 12.9427H12.5354ZM12.3299 12.9577C12.3226 12.9494 12.321 12.9459 12.321 12.9377C12.3209 12.9295 12.3223 12.9262 12.3294 12.9182C12.3426 12.9034 12.349 12.9031 12.3717 12.9159C12.3934 12.928 12.4007 12.9292 12.4027 12.9205C12.4045 12.9122 12.417 12.9045 12.4289 12.9045C12.4354 12.9041 12.4418 12.9065 12.4467 12.9113C12.4542 12.9178 12.4545 12.9188 12.4548 12.9339C12.4549 12.9494 12.4547 12.9499 12.4461 12.9585C12.4377 12.9666 12.4364 12.9671 12.4261 12.9659C12.413 12.9645 12.4051 12.9578 12.403 12.9463C12.4014 12.938 12.3988 12.936 12.3968 12.9417C12.3962 12.9435 12.3929 12.9457 12.3896 12.9467C12.3835 12.9483 12.3732 12.9556 12.3658 12.9633C12.363 12.9662 12.3582 12.9676 12.3502 12.9677C12.3396 12.9678 12.3381 12.9671 12.3299 12.9577ZM11.7353 12.6611C11.7153 12.6613 11.6939 12.6799 11.6912 12.7017C11.6958 12.7267 11.7145 12.7513 11.7025 12.7777C11.7108 12.8115 11.6797 12.8243 11.6584 12.8048C11.6456 12.7724 11.6391 12.737 11.62 12.7079C11.5959 12.7004 11.5854 12.7432 11.5684 12.7579C11.5768 12.7831 11.6013 12.8057 11.6041 12.8371C11.6099 12.8676 11.5932 12.9015 11.5694 12.9173C11.5488 12.9392 11.5206 12.9313 11.4953 12.9361C11.4645 12.9561 11.5178 12.9634 11.5319 12.9642C11.5632 12.9678 11.5959 12.9632 11.619 12.9371C11.6421 12.9249 11.6403 12.8806 11.6678 12.8757C11.7154 12.8734 11.7627 12.8838 11.8103 12.8851C11.8358 12.8918 11.8752 12.8817 11.8928 12.9028C11.8928 12.9397 11.921 12.9624 11.9481 12.9768C11.963 12.9813 11.9788 12.9608 11.994 12.9569C12.023 12.9467 12.0142 12.9069 12.0315 12.8913C12.081 12.8883 12.131 12.8889 12.1806 12.8882C12.19 12.8884 12.1928 12.8735 12.1993 12.8673C12.1982 12.8461 12.1975 12.8249 12.1946 12.8038C12.1851 12.777 12.1962 12.7424 12.1787 12.7195C12.1538 12.7119 12.1326 12.7373 12.1074 12.7393C12.0796 12.753 12.0562 12.7815 12.0549 12.8163C12.0385 12.8462 12.0121 12.811 12.0212 12.7861C12.0202 12.7753 12.0233 12.7627 12.0203 12.7528C12.0051 12.7325 11.9784 12.7391 11.9574 12.7361C11.9269 12.7375 11.8971 12.7301 11.8665 12.7309C11.8397 12.7287 11.8119 12.7335 11.7859 12.7257C11.7549 12.7247 11.7592 12.6911 11.754 12.6674C11.7486 12.6631 11.742 12.6609 11.7353 12.6611L11.7353 12.6611ZM11.7953 12.784C11.8056 12.7842 11.8153 12.7857 11.8253 12.7871C11.8382 12.7895 11.852 12.7822 11.8647 12.7871C11.894 12.7927 11.9233 12.7914 11.9528 12.7944C11.9606 12.7943 11.9662 12.8006 11.9715 12.8059C11.9716 12.8287 11.9715 12.8519 11.9715 12.8746C11.9706 12.8832 11.9738 12.8946 11.9669 12.9006C11.9646 12.9026 11.9621 12.904 11.9594 12.9048C11.9512 12.9025 11.9426 12.8966 11.9387 12.8882C11.9375 12.8763 11.9393 12.8647 11.9396 12.8528C11.9394 12.8497 11.9408 12.8449 11.9396 12.8423C11.9334 12.8371 11.9259 12.8342 11.9181 12.834C11.8926 12.833 11.8676 12.831 11.8422 12.8298C11.8209 12.8284 11.7991 12.8318 11.7784 12.8257C11.7703 12.8224 11.7599 12.8235 11.755 12.8142C11.7479 12.8051 11.7581 12.7943 11.7653 12.7902C11.7747 12.7857 11.785 12.7835 11.7953 12.784H11.7953ZM12.1337 12.7923C12.1385 12.7922 12.14 12.794 12.1422 12.8038C12.1435 12.8101 12.1452 12.8177 12.1459 12.8204C12.147 12.8244 12.1452 12.8257 12.1403 12.8278C12.1255 12.834 12.1107 12.8334 12.1056 12.8257C12.1033 12.8222 12.106 12.8112 12.1103 12.8069C12.119 12.7983 12.1286 12.7924 12.1337 12.7923Z" fill="#C09300"/>
<path d="M11.9994 10.9082C12.9787 10.0713 12.8947 8.84542 12.8947 8.84542C12.8689 8.85115 12.8443 8.85402 12.8185 8.85402C12.613 8.85402 12.1231 8.72345 12.0088 8.55762C11.8864 8.70772 11.3857 8.85402 11.1816 8.85402C11.1558 8.85402 11.1299 8.85115 11.1054 8.84542C11.1054 8.84542 11.0201 10.0713 11.9994 10.9082Z" fill="white" stroke="#C09300" stroke-width="0.92"/>
<path d="M12.8166 8.93429C12.8082 8.93489 12.7997 8.93516 12.7911 8.93516C12.605 8.93516 12.1725 8.82906 12.0059 8.66992C11.8313 8.81692 11.3918 8.93512 11.2086 8.93512C11.2001 8.93502 11.1915 8.93406 11.1832 8.93226C11.1827 8.97859 11.1849 9.02665 11.1875 9.07039C11.1972 9.23372 11.223 9.39772 11.2621 9.55545C11.3854 10.052 11.6376 10.4739 11.9993 10.794C12.3613 10.4736 12.6138 10.0513 12.7373 9.55445C12.7765 9.39672 12.8024 9.23279 12.8122 9.06945C12.8147 9.02662 12.8169 8.97972 12.8166 8.93429H12.8166Z" fill="white" stroke="#C09300" stroke-width="0.7328"/>
<path d="M11.6815 8.83405C11.5053 8.89555 11.3146 8.93505 11.209 8.93505C11.2004 8.93505 11.1921 8.93372 11.1836 8.93195C11.1832 8.97829 11.1857 9.02682 11.1883 9.07052C11.1982 9.23434 11.223 9.39661 11.2624 9.55485C11.3453 9.88905 11.4876 10.1893 11.6815 10.4476V8.83405ZM12.3001 8.83105V10.4727C12.5039 10.2087 12.652 9.89919 12.7379 9.55399C12.7772 9.39574 12.8021 9.23346 12.812 9.06965C12.8145 9.02682 12.8169 8.97965 12.8166 8.93419C12.8082 8.93479 12.7998 8.93525 12.7913 8.93525C12.6794 8.93525 12.4787 8.89625 12.3 8.83109L12.3001 8.83105Z" fill="#C09300"/>
<path d="M12.3694 8.4364C12.3894 8.43773 12.3423 8.31746 12.3423 8.31746C12.3953 8.3776 12.5952 8.39196 12.5952 8.39196C12.4752 8.3331 12.3553 7.88876 12.3694 7.53463C12.3823 7.17913 12.3235 7.0393 12.2765 6.98696C12.2165 6.9203 12.0236 6.86153 11.8965 6.8537C11.8248 6.8497 11.8365 6.91376 11.8365 6.91376C11.7036 6.87586 11.5707 6.8615 11.5107 6.90593C11.4542 6.94776 11.4425 7.15686 11.4837 7.12026C11.5836 7.0314 11.6707 7.11243 11.7306 7.20913C11.7836 7.29413 11.7801 7.53456 11.7036 7.81553C11.6236 8.11086 11.4048 8.40626 11.4048 8.40626C11.5236 8.40626 11.6907 8.28866 11.6907 8.28866L11.6507 8.4729C11.7765 8.40623 11.8765 8.303 11.8765 8.303L11.9965 8.44283C12.0365 8.38403 12.1164 8.303 12.1164 8.303C12.1164 8.303 12.2164 8.42066 12.3693 8.43633L12.3694 8.4364Z" fill="white" stroke="#C09300" stroke-width="0.9744"/>
<path d="M11.8838 7.58562C11.8838 7.58562 11.8168 8.13322 11.6909 8.28876M11.9897 7.57129C11.9897 7.57129 11.9638 8.12539 11.8768 8.30316M12.0836 7.59362C12.0836 7.59362 12.0836 8.20002 12.1166 8.30329M12.2024 7.62362C12.2024 7.62362 12.2295 8.13329 12.3424 8.31762" stroke="#C09300" stroke-width="1.016"/>
<path d="M11.7626 7.3207C11.7568 7.27236 11.7461 7.23443 11.7308 7.2096C11.6709 7.11293 11.5838 7.03186 11.4839 7.12073C11.4839 7.12073 11.518 7.00313 11.5909 6.99923C11.6474 6.9953 11.7756 7.04623 11.8885 7.26056C11.8885 7.26056 11.805 7.2397 11.785 7.2593C11.7473 7.2959 11.7626 7.32073 11.7626 7.32073V7.3207Z" fill="#C09300" stroke="#C09300" stroke-width="0.2832"/>
<path d="M11.4731 6.97522C11.4813 6.94515 11.4943 6.91772 11.5107 6.90595C11.5707 6.86152 11.7036 6.87589 11.8365 6.91379C11.8365 6.91379 11.8248 6.84979 11.8965 6.85369C12.0235 6.86152 12.2164 6.92035 12.2764 6.98702C12.2905 7.00402 12.307 7.02882 12.3211 7.06669H12.3188C12.2894 7.02095 12.2059 7.02359 12.1859 7.02619C12.1541 7.03009 12.1341 7.02875 12.0917 7.04052C12.0718 7.04575 12.0412 7.05229 12.0247 7.06665C12.0118 7.07842 12.0012 7.12155 11.9812 7.12155C11.9494 7.12155 11.9518 7.11245 11.9435 7.10199C11.9329 7.08765 11.927 7.06665 11.9165 7.06799C11.8836 7.07455 11.8306 7.04579 11.7636 6.98699C11.6965 6.92815 11.6707 6.91379 11.5836 6.92032C11.4978 6.92815 11.4707 6.98175 11.4707 6.98175L11.4731 6.97522H11.4731Z" fill="#C09300" stroke="#C09300" stroke-width="0.2832"/>
<path d="M11.965 7.0618C11.9845 7.0618 12.0002 7.04425 12.0002 7.0226C12.0002 7.00095 11.9845 6.9834 11.965 6.9834C11.9455 6.9834 11.9297 7.00095 11.9297 7.0226C11.9297 7.04425 11.9455 7.0618 11.965 7.0618Z" fill="white"/>
</g>
<defs>
<clipPath id="clip0_275_23314">
<rect width="24" height="20" rx="4" fill="white"/>
</clipPath>
</defs>
</svg>
