<svg width="24" height="20" viewBox="0 0 24 20" fill="none" xmlns="http://www.w3.org/2000/svg">
<g clip-path="url(#clip0_275_23265)">
<path d="M0 0V20H24V0.00329167H15.0916V0H0Z" fill="#68BFE5"/>
<path d="M15.7832 8.05176V13.7333C15.7832 15.5916 18.805 16.695 18.805 16.695C18.805 16.695 21.8268 15.5915 21.8268 13.7333V8.05176H15.7832Z" fill="white"/>
<path d="M18.3862 10.0479V12.606H15.7832V13.5369H18.3862V16.5176L18.8051 16.6948L19.2239 16.5176V13.5368H21.8268V12.606H19.2239V10.0479H18.3862Z" fill="#D21034"/>
<path d="M15.7832 8.05176H21.8268V10.2458H15.7832V8.05176Z" fill="#D21034"/>
<path d="M16.2674 9.69231C16.455 9.69231 16.607 9.55635 16.607 9.38864C16.607 9.22092 16.455 9.08496 16.2674 9.08496C16.0798 9.08496 15.9277 9.22092 15.9277 9.38864C15.9277 9.55635 16.0798 9.69231 16.2674 9.69231Z" fill="white" stroke="black" stroke-width="0.533883" stroke-miterlimit="3"/>
<path d="M16.2674 9.40077C16.4342 9.40077 16.5694 9.32483 16.5694 9.23115C16.5694 9.13747 16.4342 9.06152 16.2674 9.06152C16.1006 9.06152 15.9653 9.13747 15.9653 9.23115C15.9653 9.32483 16.1006 9.40077 16.2674 9.40077Z" fill="white" stroke="black" stroke-width="0.535212" stroke-miterlimit="3"/>
<path d="M16.2674 9.73964C16.4342 9.73964 16.5694 9.66369 16.5694 9.57001C16.5694 9.47633 16.4342 9.40039 16.2674 9.40039C16.1006 9.40039 15.9653 9.47633 15.9653 9.57001C15.9653 9.66369 16.1006 9.73964 16.2674 9.73964Z" fill="white" stroke="black" stroke-width="0.535212" stroke-miterlimit="3"/>
<path d="M16.2674 9.55799C16.4342 9.55799 16.5694 9.48205 16.5694 9.38837C16.5694 9.29469 16.4342 9.21875 16.2674 9.21875C16.1006 9.21875 15.9653 9.29469 15.9653 9.38837C15.9653 9.48205 16.1006 9.55799 16.2674 9.55799Z" fill="white" stroke="black" stroke-width="0.535212" stroke-miterlimit="3"/>
<path d="M21.6769 9.81055L21.6274 9.65889C21.6274 9.65889 21.4919 9.59747 21.4816 9.51751C21.4575 9.30439 21.389 9.22451 21.2864 9.19401C21.1836 9.1636 21.1152 9.2131 21.1152 9.2131C21.0842 9.2626 20.93 9.2626 20.8444 9.26635C20.7588 9.27022 20.7573 9.22501 20.7573 9.22501C20.6908 9.22555 20.6628 9.17122 20.6628 9.17122C20.6193 9.0746 20.5869 9.03847 20.5654 9.02622C20.6765 9.02805 20.7602 8.9711 20.8857 8.82485C21.0226 8.66497 21.1204 8.7268 21.1204 8.7268C21.0539 8.8761 21.1425 8.86289 21.1425 8.86289C21.324 8.76022 21.1664 8.50135 21.1116 8.5128C21.0569 8.52414 21.0412 8.48318 21.0412 8.48318C21.0429 8.52964 20.9804 8.54814 20.9804 8.54814C21.0273 8.25243 20.8684 8.17401 20.8684 8.17401C20.8444 8.20068 20.8307 8.25393 20.8307 8.25393C20.7862 8.4328 20.6389 8.40618 20.4744 8.3186C20.31 8.2311 19.8715 8.41001 19.7346 8.47089C19.5975 8.5318 19.3474 8.62697 19.1214 8.4861C18.8953 8.34518 18.8404 8.37185 18.7514 8.39855C18.6623 8.42514 18.5049 8.46714 18.4467 8.4328C18.3883 8.39855 18.3219 8.39643 18.3219 8.39643C18.3378 8.3866 18.313 8.34526 18.313 8.34526C18.2445 8.24255 18.3219 8.1796 18.3219 8.1796C18.3219 8.1796 18.1944 8.21947 18.2451 8.46126L18.2685 8.49755C18.2685 8.49755 18.2855 8.5736 18.3233 8.59647L18.3219 8.61314C18.3219 8.61314 18.3542 8.59647 18.3643 8.64593C18.3747 8.69539 18.4227 8.64972 18.4432 8.60793C18.4432 8.60793 18.4089 8.82868 18.6556 8.88193C18.6556 8.88193 18.628 8.84768 18.6384 8.82485C18.6486 8.80201 18.6076 8.7828 18.6111 8.74868C18.6144 8.71451 18.5495 8.69926 18.6007 8.67251C18.652 8.64585 18.6762 8.59255 18.7857 8.66489C18.8953 8.73722 18.981 8.7221 18.981 8.7221C18.981 8.7221 18.9142 8.56964 18.951 8.56976C18.9879 8.5698 19.1535 8.79772 19.2351 8.78643C19.3167 8.7753 19.4743 8.67251 19.5531 8.7106C19.5531 8.7106 19.5599 8.66489 19.8613 8.6078C20.1628 8.55068 20.5346 8.38376 20.674 8.53001C20.674 8.53001 20.6904 8.64585 20.7485 8.67639C20.7485 8.67639 20.7381 8.9161 20.3649 8.7828L20.2295 8.74322C20.2295 8.74322 20.2087 8.67043 19.4989 8.87326C19.4989 8.87326 19.4572 8.88947 19.4298 8.91235C19.4023 8.9351 19.3645 8.90089 19.2241 8.95793C19.0838 9.01514 18.5596 9.20543 18.2377 9.13689L18.2373 9.13785C18.1664 9.1143 18.0999 9.12647 18.0973 9.11405C18.0938 9.0988 18.135 9.11789 18.135 9.11789C18.111 9.08739 18.1007 9.08493 18.1007 9.08493C17.8301 9.05193 17.8779 8.9161 17.8779 8.9161L17.8917 8.95801C17.9363 8.89335 17.8745 8.7411 17.8745 8.7411L17.8719 8.7416C17.8712 8.73693 17.8704 8.7323 17.8693 8.72772L17.8917 8.71055C18.0219 8.58872 18.1727 8.56589 18.1727 8.56589C18.0835 8.44418 17.8951 8.50889 17.8951 8.50889C17.8986 8.36047 17.8438 8.18914 17.8438 8.18914C17.6587 8.21197 17.5526 8.38322 17.5526 8.38322C17.5458 8.23101 17.371 8.14355 17.371 8.14355C17.436 8.23105 17.395 8.44035 17.395 8.44035L17.4019 8.44418C17.3911 8.44385 17.3847 8.44418 17.3847 8.44418L17.3808 8.48905L17.3744 8.48605C17.3744 8.48605 17.3094 8.51264 17.2341 8.70297C17.2341 8.70297 17.2264 8.74797 17.1973 8.78851C17.197 8.78326 17.1976 8.77851 17.197 8.77301C17.197 8.77301 17.1128 8.89551 16.9183 8.77301C16.9183 8.77301 16.6541 8.59885 16.5612 8.60526C16.4683 8.61168 16.4073 8.6601 16.4132 8.6891C16.4132 8.6891 16.2012 8.66972 16.1287 8.80514C16.1287 8.80514 15.969 8.86968 16.1055 9.01485C16.1055 9.01485 16.1238 9.07793 16.1635 9.11176C16.1635 9.11176 16.1578 8.97922 16.1867 9.01818C16.1867 9.01818 16.1942 9.03122 16.2085 9.04039C16.2123 9.05897 16.2251 9.1106 16.2535 9.13689L16.2739 9.12968C16.277 9.09664 16.2835 9.05489 16.2901 9.0373L16.2968 9.0383C16.2959 9.03926 16.2951 9.0398 16.2942 9.04068L16.3319 9.10522L16.3754 9.07939C16.3958 9.0761 16.4219 9.0988 16.4219 9.0988L16.4713 9.0536C16.471 9.0531 16.4707 9.05301 16.4704 9.05247C16.519 9.06151 16.5322 8.9568 16.5322 8.9568C16.5759 8.96955 16.6168 8.95526 16.6515 8.93189C16.6727 9.01872 16.8458 9.1118 16.8458 9.1118L16.8533 9.11114C16.8386 9.12155 16.8299 9.12935 16.8299 9.12935C16.9086 9.19035 17.056 9.1751 17.056 9.1751C16.9944 9.20176 17.003 9.32843 17.003 9.32843C16.967 9.34489 16.9635 9.38439 16.9635 9.38439C17.0834 9.43755 17.1653 9.39355 17.1653 9.39355C17.1719 9.43689 17.1622 9.44147 17.1622 9.44147C17.1142 9.55564 17.0937 9.66601 17.0937 9.66601C17.0947 9.66651 17.0959 9.66676 17.097 9.66718C17.0955 9.67018 17.0937 9.67305 17.0926 9.67614C17.0926 9.67614 16.8835 9.75676 16.7907 9.86968C16.7907 9.86968 16.7819 9.83739 16.7558 9.83739C16.7296 9.83739 16.6483 9.76326 16.6106 9.7503C16.5729 9.73747 16.5177 9.76326 16.5032 9.74397C16.4901 9.72635 16.4959 9.59422 16.4708 9.57289L16.4713 9.57301L16.4451 9.49239C16.4277 9.53426 16.3552 9.5246 16.3552 9.5246C16.3523 9.52651 16.3411 9.53555 16.3254 9.54864C16.3109 9.54947 16.2942 9.54397 16.2942 9.54397C16.2867 9.54564 16.2794 9.56889 16.274 9.59147L16.2652 9.59885V9.57622C16.2507 9.58914 16.2217 9.56976 16.21 9.56976C16.2043 9.56976 16.1973 9.58822 16.1916 9.60722C16.162 9.6133 16.1229 9.61493 16.1229 9.61493C16.1113 9.62139 16.1199 9.72139 16.1199 9.72139C16.0358 9.77305 16.0764 9.85039 16.0764 9.85039C16.1229 10.102 16.509 9.9891 16.5381 10.0214C16.567 10.0537 16.6338 10.0601 16.6687 10.0601C16.7035 10.0601 16.747 10.1536 16.7964 10.1633C16.8458 10.173 16.7964 10.0891 17.0253 10.0284C17.2542 9.9676 17.3305 9.8633 17.3305 9.8633C17.4022 9.84797 17.4221 9.75118 17.4275 9.71205C17.4282 9.7301 17.4301 9.75001 17.4327 9.77272C17.443 9.8603 17.3886 9.89218 17.3886 9.89218L17.5869 9.82601C17.6656 9.80318 17.6554 9.72701 17.6554 9.72701C17.7307 9.9668 17.8678 9.98201 17.8678 9.98201C17.8951 9.89064 17.8918 9.86397 17.8918 9.86397L17.9534 9.86026C17.9559 9.80864 17.9149 9.77089 17.8912 9.75335L17.9877 9.81835L18.0253 9.81076C18.0253 9.84885 18.0766 9.88301 18.0766 9.88301L18.0836 9.83364C18.1281 9.89835 18.2103 9.87547 18.2103 9.87547C18.2085 9.86347 18.2061 9.85161 18.2031 9.83993C18.3786 9.9603 18.659 9.80701 18.659 9.80701C18.7343 9.82597 18.7446 9.77647 18.7446 9.77647C18.8302 9.78785 18.8501 9.72285 18.8501 9.72285C19.0516 9.70347 19.1935 9.54426 19.1935 9.54426C19.2927 9.53664 19.2959 9.4578 19.2959 9.4578C19.2959 9.4578 19.3954 9.4796 19.4914 9.34635C19.714 8.99247 20.0469 9.17672 20.0469 9.17672L19.8544 9.19026C19.3509 9.18651 19.5597 9.56693 19.5597 9.56693L19.5907 9.5633C19.6387 9.57468 19.803 9.71935 19.7424 9.82705C19.7415 9.82897 19.7401 9.83068 19.739 9.83243C19.6364 9.98855 19.4463 9.83964 19.3921 9.70789C19.3372 9.57472 19.2276 9.60522 19.2276 9.60522C19.2276 9.60522 18.9433 9.65851 19.0597 9.90968L19.064 9.90985C19.0662 9.9711 19.1008 10.041 19.2022 10.1104C19.2592 10.1999 19.4464 10.2093 19.5839 10.1761C19.6479 10.1606 19.9856 9.9993 19.9856 9.9993C20.0104 9.91755 20.0943 9.93639 20.1696 9.81843C20.245 9.70043 20.0634 9.65851 20.0223 9.59389C19.9812 9.5291 20.0326 9.54055 20.0326 9.54055C20.197 9.63951 20.2107 9.3236 20.2107 9.3236C20.2279 9.50622 20.3717 9.55572 20.3717 9.55572C20.4608 9.45689 20.3958 9.2551 20.3958 9.2551C20.6082 9.6776 20.7368 9.6103 20.7368 9.6103C20.6225 9.53164 20.68 9.42635 20.68 9.42635C20.7827 9.87547 21.2042 9.48347 21.2042 9.48347C21.1836 9.5481 21.2043 9.58614 21.2419 9.62805C21.2796 9.66989 21.3241 9.68897 21.3036 9.7651C21.283 9.84118 21.0879 9.82601 21.0879 9.82601C21.0879 9.82601 20.896 9.81464 20.9132 9.99351C20.9232 10.0353 21.0501 10.0506 21.0981 10.0392C21.0981 10.0392 21.0783 10.044 21.1492 10.0545C21.1729 10.0578 21.2016 10.0584 21.2308 10.0574C21.3126 10.0546 21.3996 10.0392 21.3996 10.0392C21.5091 10.0126 21.492 9.9706 21.492 9.9706C21.6597 9.93626 21.6769 9.8106 21.6769 9.8106L21.6769 9.81055Z" fill="#FFD100" stroke="black" stroke-width="0.798" stroke-miterlimit="3"/>
<path d="M16.111 9.03081C16.1111 9.0306 16.12 9.00727 16.1369 9.00448C16.1499 9.00235 16.1657 9.01306 16.1825 9.03564L16.1916 9.02802C16.1913 9.02723 16.1464 8.95469 16.1643 8.90344C16.1723 8.88064 16.1921 8.86498 16.2231 8.85723L16.2206 8.84473C16.1856 8.8536 16.1631 8.87185 16.1536 8.89889C16.1502 8.90896 16.1485 8.91964 16.1486 8.93039C16.1486 8.95539 16.1565 8.98081 16.1646 9.00027C16.1545 8.99318 16.1446 8.99027 16.1351 8.99185C16.1179 8.99477 16.1096 9.00852 16.105 9.01748L16.111 9.03081ZM21.3978 10.0277C21.2833 10.0479 21.1153 10.059 21.102 10.0206C21.0996 10.0137 21.0992 9.98623 21.1929 9.91848L21.182 9.89981C21.1038 9.95639 21.0723 9.99731 21.0833 10.0286C21.1073 10.0978 21.3525 10.0582 21.4015 10.0496L21.3978 10.0277ZM19.2087 10.1011C19.1826 10.0567 19.1943 9.99598 19.2436 9.92035L19.2273 9.90735C19.1727 9.99098 19.1607 10.0604 19.1919 10.1133L19.2087 10.1011Z" fill="black"/>
<path d="M19.0542 9.90958C19.0567 9.98625 19.1054 10.0575 19.1988 10.121L19.2093 10.102C19.1219 10.0426 19.0765 9.97762 19.0742 9.90883C19.0707 9.80321 19.1712 9.72175 19.1721 9.72092L19.1604 9.70279C19.1559 9.70633 19.0503 9.79188 19.0542 9.90958ZM21.0061 9.93813C20.9747 9.98962 20.9852 10.052 20.9856 10.0546L21.0053 10.0503C21.0051 10.0497 20.996 9.99421 21.0228 9.9505C21.039 9.92421 21.0649 9.90717 21.1001 9.89975L21.0964 9.87788C21.0557 9.88642 21.0254 9.90667 21.0061 9.93813H21.0061ZM16.534 8.96412L16.5278 8.96238L16.527 8.96946C16.5268 8.97017 16.5181 9.03771 16.4905 9.05613C16.4827 9.06121 16.4744 9.06179 16.4648 9.05787L16.418 9.02621C16.4086 9.01708 16.4007 9.01037 16.3872 9.01475C16.3765 8.99897 16.3719 8.97916 16.3743 8.95962C16.3776 8.92912 16.3968 8.89975 16.4314 8.87233L16.4248 8.86192C16.3873 8.89171 16.3665 8.92404 16.3629 8.95833C16.3587 8.998 16.3794 9.025 16.3803 9.02612L16.383 9.02971L16.3868 9.02775C16.3972 9.02267 16.4003 9.02567 16.4104 9.03567L16.461 9.06979C16.4738 9.07504 16.4857 9.07408 16.4964 9.06696C16.5249 9.04796 16.5349 8.99271 16.5373 8.97738C16.6588 9.00638 16.7567 8.84217 16.761 8.83508L16.7512 8.82812C16.7504 8.82983 16.6505 8.99804 16.534 8.96412Z" fill="black"/>
<path d="M16.2424 8.93896C16.2363 8.9663 16.2405 8.99313 16.2545 9.0188C16.268 9.04309 16.2812 9.05601 16.295 9.05805C16.3118 9.06063 16.3252 9.0468 16.3371 9.03463C16.3457 9.02567 16.3539 9.01734 16.3606 9.01788L16.3711 9.02592L16.3801 9.01796L16.3614 9.00521C16.3497 9.00421 16.3398 9.01438 16.3293 9.0253C16.3188 9.036 16.308 9.0473 16.2965 9.0455C16.2865 9.044 16.2758 9.03271 16.2643 9.01213C16.252 8.98955 16.2482 8.96588 16.2535 8.94201C16.2666 8.88171 16.3315 8.83742 16.3321 8.837L16.3262 8.82617C16.3234 8.82801 16.2566 8.87351 16.2424 8.93896H16.2424ZM16.0751 9.79942C16.0809 9.77609 16.097 9.75626 16.1229 9.74026C16.1178 9.7408 16.1483 9.76838 16.1745 9.76525L16.1915 9.75509C16.1984 9.76176 16.2438 9.80759 16.2438 9.86563C16.2438 9.87788 16.2418 9.89042 16.2368 9.90313L16.2475 9.90809C16.2806 9.82084 16.1972 9.74342 16.1965 9.74259L16.1934 9.73996L16.1882 9.74363L16.1734 9.75263C16.152 9.75513 16.124 9.72992 16.1239 9.72971C16.0886 9.7468 16.0706 9.7693 16.064 9.79617L16.0751 9.79942ZM16.4623 9.57667C16.4372 9.579 16.3675 9.5938 16.3447 9.63405C16.3365 9.64863 16.3353 9.66467 16.3413 9.68205L16.3504 9.70913C16.3721 9.774 16.3947 9.84109 16.4193 9.85626L16.4249 9.84517C16.404 9.8323 16.3812 9.76446 16.3611 9.70467L16.352 9.67759C16.3474 9.66392 16.3481 9.65188 16.3544 9.6408C16.3731 9.60784 16.4358 9.59192 16.4632 9.58938C16.4792 9.58796 16.4844 9.65346 16.4876 9.69263L16.499 9.69146C16.4944 9.63376 16.4896 9.57413 16.4623 9.57667H16.4623Z" fill="black"/>
<path d="M16.2712 9.64062C16.2565 9.6552 16.2594 9.67712 16.2596 9.67808C16.2597 9.68408 16.2663 9.84616 16.3355 9.87966L16.3401 9.868C16.2774 9.83766 16.2711 9.67841 16.271 9.67683C16.271 9.67587 16.2689 9.65975 16.2789 9.65004C16.2894 9.63966 16.3103 9.63887 16.3393 9.64775L16.3423 9.6355C16.3089 9.62525 16.285 9.62695 16.2712 9.64062Z" fill="black"/>
<path d="M16.2164 9.65359C16.1858 9.6773 16.187 9.74492 16.187 9.74776L16.1985 9.74755C16.1985 9.74684 16.1973 9.68376 16.2229 9.66405C16.2325 9.65671 16.245 9.65642 16.2603 9.66326L16.2646 9.65151C16.2455 9.64284 16.2293 9.64359 16.2164 9.65359Z" fill="black"/>
<path d="M17.8656 8.76023C17.8662 8.76128 17.8983 8.84181 17.8983 8.90719C17.8983 8.9188 17.8933 8.92705 17.891 8.93714C17.8897 8.9334 17.8786 8.8993 17.8786 8.8993L17.8688 8.92664C17.8684 8.92816 17.8557 8.96498 17.8784 9.0065C17.9083 9.06127 17.9827 9.09634 18.0999 9.11061H18.0998C18.0998 9.11072 18.1013 9.11213 18.1015 9.11241C18.0966 9.11313 18.0929 9.11463 18.0919 9.11579L18.0871 9.12022L18.0878 9.1313C18.0908 9.14482 18.1047 9.14549 18.1322 9.14665C18.1369 9.14693 18.1445 9.14818 18.1498 9.14848C18.1567 9.15061 18.1637 9.15272 18.1637 9.15272L18.1614 9.14973C18.188 9.15178 18.2181 9.15909 18.2506 9.17261C18.2434 9.17471 18.2258 9.17959 18.2258 9.17959L18.2548 9.19228C18.257 9.19325 18.4704 9.28852 18.5588 9.36689C18.5337 9.39104 18.4266 9.47991 18.2412 9.42913L18.2102 9.42066L18.2312 9.44739C18.2325 9.449 18.3533 9.60291 18.3783 9.69624C18.3363 9.69671 18.1743 9.69508 18.1177 9.64164L18.103 9.65646C18.1037 9.65785 18.1807 9.78323 18.1978 9.88099C18.1758 9.8842 18.123 9.88661 18.0918 9.84129L18.0774 9.82049L18.0696 9.87692C18.0546 9.86428 18.0356 9.84542 18.0356 9.8252V9.8119L17.9899 9.82112L17.896 9.75788C17.8911 9.75426 17.8861 9.75089 17.8809 9.74777C17.8808 9.74766 17.88 9.74716 17.88 9.74716L17.8794 9.74672L17.8696 9.76627C17.8696 9.76627 17.8808 9.77367 17.884 9.77591C17.9041 9.79046 17.9385 9.82218 17.942 9.86423C17.9272 9.8652 17.881 9.868 17.881 9.868L17.8821 9.8798V9.88165C17.8821 9.88863 17.8801 9.91778 17.861 9.98357C17.8321 9.97593 17.7271 9.93526 17.665 9.73774L17.6457 9.74306C17.6458 9.74361 17.646 9.74622 17.646 9.7504C17.646 9.76841 17.6403 9.81353 17.5846 9.82963C17.5843 9.82974 17.4811 9.8642 17.4237 9.88329C17.4344 9.86622 17.4443 9.84284 17.4443 9.80891C17.4443 9.8017 17.4438 9.79395 17.443 9.78572C17.4395 9.75702 17.4374 9.73311 17.4374 9.71317C17.4374 9.67159 17.4466 9.64682 17.4725 9.6292L17.4634 9.60937C17.461 9.61042 17.2236 9.71519 17.1059 9.6717C17.1113 9.64615 17.1313 9.5564 17.1715 9.46071L17.1663 9.4662C17.174 9.46254 17.1818 9.44916 17.1753 9.4062L17.1732 9.39157L17.1611 9.39802C17.1604 9.39844 17.085 9.43578 16.9762 9.39149C16.9784 9.38157 16.9842 9.36376 17.007 9.35326L17.0137 9.35026L17.013 9.34218C17.013 9.3419 17.0128 9.33627 17.0128 9.32747C17.0128 9.2948 17.0174 9.21832 17.0597 9.19998L17.0552 9.17845C17.0538 9.17865 16.9265 9.18995 16.8493 9.14225C16.8695 9.12673 16.9121 9.09814 16.9616 9.09022L16.9696 9.08897L16.9701 9.08017C16.9702 9.07972 16.9704 9.07712 16.9704 9.07296C16.9704 9.0618 16.9665 9.03919 16.9576 9.01645C16.987 9.02554 17.0222 9.03376 17.0347 9.02335L17.0389 9.0198L17.0353 8.93395L17.0153 8.93503L17.0183 9.00601C17.0058 9.00675 16.9738 8.99963 16.9427 8.98866L16.9119 8.9778L16.9317 9.00617C16.9478 9.02914 16.9499 9.05764 16.9501 9.07075C16.8805 9.08512 16.826 9.1331 16.8237 9.13529L16.8135 9.14463L16.8243 9.15302C16.8842 9.19934 16.9777 9.20336 17.0258 9.20219C16.9975 9.23765 16.9927 9.29697 16.9927 9.32663C16.9927 9.33273 16.9928 9.33434 16.9929 9.33733C16.959 9.35772 16.9538 9.396 16.9536 9.39777L16.9529 9.40609L16.9599 9.4093C17.0627 9.45484 17.133 9.43285 17.1568 9.42307C17.157 9.42661 17.1577 9.43143 17.1577 9.43395C17.1577 9.44443 17.1559 9.44764 17.1559 9.44764C17.1054 9.56532 17.0842 9.67718 17.084 9.67823L17.0823 9.68749L17.0901 9.69092C17.1856 9.73331 17.357 9.67544 17.433 9.64566C17.423 9.66474 17.4172 9.68621 17.4172 9.71295C17.4172 9.73536 17.4197 9.76054 17.423 9.7886C17.4239 9.79572 17.4243 9.80229 17.4243 9.80866C17.4243 9.87182 17.3858 9.8957 17.384 9.89675L17.3916 9.91728L17.59 9.8511C17.6358 9.83786 17.6531 9.80774 17.6604 9.78215C17.7386 9.98836 17.8615 10.007 17.8669 10.0076L17.8749 10.0084L17.8774 10C17.8965 9.93667 17.9009 9.90448 17.9018 9.88894C17.9223 9.88779 17.9427 9.88658 17.9632 9.88531L17.9637 9.87531C17.9638 9.87356 17.9638 9.8719 17.9638 9.87027C17.9638 9.85204 17.9587 9.83592 17.9516 9.8214C17.964 9.82971 17.9859 9.84451 17.9859 9.84451L18.0188 9.83786C18.0273 9.8747 18.0667 9.90362 18.0718 9.90709L18.0845 9.91559C18.0845 9.91559 18.0892 9.88201 18.0912 9.86739C18.1402 9.91609 18.2097 9.9016 18.213 9.90069L18.2218 9.89819L18.2205 9.8883C18.2105 9.81384 18.1655 9.72525 18.1391 9.67787C18.2261 9.72184 18.3847 9.71862 18.3925 9.71835L18.4043 9.7179L18.402 9.70502C18.3879 9.62676 18.2999 9.50357 18.2631 9.45459C18.4676 9.49728 18.5774 9.37941 18.5821 9.37406L18.5893 9.36558L18.5814 9.35788C18.5126 9.29134 18.3542 9.21411 18.2905 9.18455L18.3128 9.17829L18.2908 9.1646C18.2376 9.13136 18.1812 9.12723 18.143 9.1254L18.1428 9.12507C18.1187 9.09429 18.1063 9.08936 18.1032 9.08861C17.9649 9.07166 17.9143 9.02861 17.8959 8.99537C17.8943 8.99263 17.8951 8.99077 17.8939 8.98811C17.8969 8.98368 17.9 8.9793 17.9 8.9793C17.9134 8.95999 17.9181 8.93415 17.9181 8.9068C17.9181 8.83624 17.8859 8.75563 17.884 8.75098L17.8656 8.76023H17.8656Z" fill="black"/>
<path d="M17.2291 8.71438C17.2287 8.71659 17.2139 8.80078 17.1494 8.84023C17.1009 8.86987 17.0367 8.86743 16.9589 8.83286L16.9502 8.82898L16.9511 8.8394C16.9513 8.84156 16.9564 8.89103 16.9984 8.92727C17.0334 8.95752 17.0834 8.96813 17.1461 8.96051C17.1251 8.98816 17.0577 9.08384 17.0577 9.17665C17.0577 9.18155 17.058 9.18645 17.0584 9.19127C17.067 9.19812 17.1726 9.22992 17.2216 9.16036C17.2233 9.19019 17.231 9.28563 17.2645 9.32297C17.2829 9.34328 17.2872 9.37295 17.2872 9.39666C17.2872 9.41802 17.2836 9.43453 17.2836 9.43486L17.2798 9.45184L17.2925 9.44154C17.2966 9.43824 17.3937 9.35923 17.4247 9.25574C17.4246 9.25601 17.4403 9.22978 17.4702 9.21903C17.4696 9.22355 17.4691 9.22817 17.4691 9.23463C17.4691 9.27463 17.4849 9.34721 17.5897 9.39173L17.5983 9.39539L17.5975 9.38522C17.5969 9.37853 17.5967 9.37182 17.5968 9.36511C17.5968 9.33588 17.6004 9.28219 17.6255 9.25438C17.642 9.2361 17.6469 9.21549 17.6469 9.19762C17.6469 9.18357 17.6441 9.17219 17.6413 9.16382C17.6624 9.16978 17.7124 9.1877 17.7328 9.23003C17.7624 9.29161 17.8659 9.24261 17.8703 9.24056L17.8668 9.22845C17.8664 9.22856 17.8232 9.23928 17.796 9.21853C17.7841 9.20939 17.7769 9.19535 17.7744 9.1767L17.7696 9.11271C17.7685 9.08371 17.7649 9.06528 17.7518 9.0498C17.7655 9.04841 17.793 9.04894 17.8046 9.0775C17.8229 9.12229 17.8857 9.12664 17.8883 9.12689L17.9098 9.12814L17.8917 9.11518C17.8911 9.11479 17.8369 9.07484 17.8463 9.02276L17.8541 8.98464C17.8689 8.91594 17.8936 8.80092 17.8735 8.7303L17.8626 8.73418C17.8676 8.7518 17.8696 8.77269 17.8696 8.79502C17.8696 8.85762 17.8537 8.93198 17.8429 8.98168L17.835 9.02032C17.8341 9.02523 17.8337 9.03022 17.8337 9.03523C17.8337 9.06894 17.8534 9.09468 17.8688 9.11016C17.8503 9.10573 17.8247 9.09598 17.8151 9.07221C17.8001 9.03547 17.7596 9.03379 17.7402 9.03813L17.7267 9.04115L17.7383 9.04966C17.7565 9.06315 17.757 9.07886 17.7582 9.11318L17.7631 9.1785C17.766 9.20078 17.7749 9.21781 17.7895 9.22903C17.8024 9.23873 17.8174 9.24011 17.8311 9.24122C17.8003 9.25011 17.7582 9.25568 17.743 9.22405C17.7145 9.16498 17.636 9.14919 17.6327 9.1485L17.6208 9.1462L17.6268 9.15786C17.6274 9.15914 17.6357 9.17593 17.6357 9.19726C17.6357 9.21238 17.6315 9.2297 17.6174 9.24532C17.5896 9.27651 17.5853 9.33306 17.5853 9.36433C17.5853 9.37045 17.5856 9.37131 17.5857 9.37505C17.4961 9.33319 17.4802 9.2712 17.4802 9.2361C17.4802 9.22116 17.4828 9.21122 17.4831 9.20992L17.4858 9.20011L17.4767 9.20183C17.4331 9.20981 17.415 9.2492 17.4143 9.25086C17.3894 9.33372 17.3218 9.39932 17.2973 9.42118C17.2983 9.41296 17.2989 9.40468 17.2989 9.39638C17.2989 9.37048 17.2939 9.33749 17.2728 9.31394C17.2371 9.27435 17.2323 9.14847 17.2323 9.1472L17.2315 9.12448L17.2216 9.14421C17.1821 9.22269 17.067 9.18499 17.0659 9.18465C17.061 9.08548 17.1622 8.9586 17.1633 8.95733L17.1739 8.94425L17.1583 8.9468C17.0922 8.95744 17.0408 8.94763 17.0056 8.91743C16.9854 8.90003 16.971 8.87569 16.9646 8.84821C17.0413 8.87995 17.1056 8.88173 17.1552 8.85134C17.2243 8.80884 17.2395 8.72183 17.2401 8.71817C17.3127 8.53517 17.3762 8.50627 17.3769 8.50608L17.3729 8.49414C17.37 8.49525 17.3046 8.52387 17.2291 8.71438Z" fill="black"/>
<path d="M17.3948 8.44341L17.39 8.4436L17.3311 8.53336L17.3486 8.5353C17.6684 8.56987 17.8376 8.78429 17.8392 8.7865L17.8466 8.79603L17.9046 8.72603L17.9003 8.71882C17.7381 8.43504 17.3983 8.44327 17.3948 8.44341ZM17.4003 8.46568C17.4398 8.46579 17.7312 8.47579 17.8787 8.72417C17.8715 8.73284 17.8554 8.7524 17.8468 8.76287C17.8122 8.72304 17.6483 8.55283 17.3672 8.51615C17.3782 8.49931 17.3893 8.48248 17.4003 8.46568Z" fill="black"/>
<path d="M17.3489 8.6311C17.3216 8.67251 17.2962 8.73379 17.2962 8.76246C17.2962 8.76795 17.2971 8.77227 17.2992 8.77501C17.2994 8.77529 17.3004 8.77537 17.3007 8.77582C17.2674 8.80897 17.2476 8.86435 17.2476 8.92696C17.2476 8.96139 17.253 8.99727 17.2645 9.03148L17.2709 9.05073C17.3023 9.14559 17.3294 9.22759 17.4651 9.1793C17.5959 9.1329 17.601 9.12359 17.6339 9.06326L17.6425 9.04763C17.6605 9.01522 17.6801 9.00874 17.7009 9.00187C17.7258 8.99356 17.7516 8.98502 17.7743 8.93538L17.7963 8.8987C17.8201 8.86233 17.8497 8.81726 17.8533 8.75955L17.8418 8.7587C17.8385 8.81271 17.8099 8.85615 17.787 8.89111L17.764 8.92956C17.7436 8.97433 17.7213 8.98176 17.6976 8.9896C17.6756 8.99688 17.653 9.00439 17.6327 9.04093L17.624 9.05661C17.5923 9.11467 17.5883 9.12215 17.4617 9.16725C17.3363 9.21174 17.3134 9.14232 17.2817 9.04636L17.2753 9.02691C17.2396 8.92114 17.2675 8.81446 17.3139 8.77623L17.3299 8.76307L17.3078 8.76584C17.3075 8.76479 17.3073 8.76388 17.3073 8.76221C17.3073 8.74493 17.3243 8.68988 17.3581 8.63855C17.3869 8.59483 17.455 8.55151 17.4558 8.55109L17.4501 8.54004C17.4472 8.54195 17.3791 8.58519 17.3489 8.6311Z" fill="black"/>
<path d="M17.288 9.01348C17.3105 9.03077 17.342 9.02955 17.3801 9.01348C17.3802 9.02855 17.3833 9.06057 17.4069 9.08379C17.4348 9.11116 17.4809 9.11642 17.5441 9.09969L17.5414 9.08733C17.4822 9.10304 17.4394 9.09861 17.4145 9.07434C17.3878 9.04816 17.3916 9.00647 17.3917 9.00611L17.3927 8.9952L17.3836 8.99949C17.3453 9.01783 17.3153 9.01894 17.2945 9.00295C17.2572 8.97414 17.26 8.89893 17.2601 8.89807L17.2486 8.89746C17.2486 8.9009 17.2454 8.98062 17.288 9.01348Z" fill="black"/>
<path d="M17.3603 8.91195C17.3439 8.91627 17.3396 8.93151 17.3396 8.94325C17.3396 8.94608 17.3399 8.94871 17.3402 8.95098C17.3431 8.98373 17.3751 9.00553 17.4041 9.01487C17.4324 9.02395 17.4672 9.02456 17.4808 9.005C17.4863 8.99719 17.4903 8.98312 17.4784 8.9604C17.4347 8.87793 17.3641 8.91023 17.3603 8.91195ZM17.4073 9.00257C17.3819 8.9945 17.3539 8.97616 17.3517 8.94902C17.3511 8.94641 17.3484 8.92818 17.3628 8.92436L17.364 8.92395C17.3666 8.92264 17.4291 8.89248 17.4685 8.96688C17.4755 8.98018 17.4766 8.99029 17.4717 8.99716C17.4633 9.00935 17.4355 9.01173 17.4073 9.00257ZM17.3591 8.91242C17.3592 8.91231 17.3603 8.91192 17.3603 8.91192L17.3591 8.91242ZM17.3996 9.07789C17.3923 9.14753 17.3968 9.14919 17.4013 9.15075L17.4053 9.15213L17.4098 9.14626L17.4461 9.09307L17.4005 9.06908L17.3996 9.07789ZM17.4101 9.0883L17.4285 9.09794C17.4236 9.10495 17.4144 9.11856 17.4075 9.12869C17.4076 9.11822 17.4088 9.10343 17.4101 9.0883ZM17.3052 9.02193L17.3027 9.08775L17.3525 9.0209L17.3054 9.01511L17.3052 9.02193ZM17.3163 9.0293L17.3301 9.03096C17.3252 9.03741 17.322 9.04182 17.3155 9.05052C17.316 9.04027 17.3162 9.03459 17.3163 9.0293Z" fill="black"/>
<path d="M17.2723 9.00091C17.2727 9.00177 17.3093 9.08125 17.3158 9.11025C17.3199 9.12867 17.3411 9.14964 17.3663 9.16003C17.3914 9.17056 17.415 9.16884 17.4326 9.15521L17.4656 9.12471C17.4766 9.11294 17.4803 9.10964 17.4892 9.11133L17.4911 9.09878C17.4761 9.09598 17.4688 9.10374 17.4577 9.11549L17.4261 9.1448C17.4066 9.15992 17.3827 9.15347 17.3702 9.14812C17.3467 9.13843 17.3296 9.11964 17.3268 9.10712C17.32 9.07681 17.2839 8.99853 17.2824 8.9952L17.2723 9.00091ZM17.3199 8.76267C17.2795 8.78339 17.2624 8.83783 17.2617 8.84012L17.2726 8.84431C17.2727 8.84378 17.2889 8.7925 17.3247 8.77422C17.3422 8.7653 17.3618 8.76561 17.3832 8.77491L17.3874 8.76314C17.3631 8.75225 17.3404 8.75217 17.3199 8.76267ZM17.5914 8.90561C17.5946 8.90827 17.6709 8.97249 17.6271 9.05086L17.6368 9.05759C17.6862 8.96927 17.599 8.89608 17.5983 8.89531L17.5914 8.90561ZM17.362 8.91808C17.362 8.91808 17.3502 8.966 17.4108 8.9829C17.4108 8.9829 17.3538 8.98235 17.3502 8.966C17.3463 8.94963 17.3505 8.91337 17.362 8.91808ZM17.5475 8.97542C17.5475 8.97958 17.5445 8.98301 17.5408 8.98301C17.539 8.98299 17.5372 8.98217 17.536 8.98075C17.5347 8.97933 17.534 8.97742 17.534 8.97542C17.534 8.97132 17.5371 8.96792 17.5407 8.96792C17.5445 8.96792 17.5475 8.97132 17.5475 8.97542ZM17.5542 9.00534C17.5542 9.0095 17.5512 9.01296 17.5475 9.01296C17.5457 9.01293 17.544 9.01211 17.5427 9.01069C17.5415 9.00926 17.5408 9.00734 17.5408 9.00534C17.5408 9.00337 17.5415 9.00147 17.5428 9.00007C17.544 8.99867 17.5457 8.99788 17.5475 8.99786C17.5512 8.99786 17.5542 9.00133 17.5542 9.00534Z" fill="black"/>
<path d="M17.5087 8.99836C17.5124 8.99836 17.5154 8.99501 17.5154 8.99088C17.5154 8.98675 17.5124 8.9834 17.5087 8.9834C17.505 8.9834 17.502 8.98675 17.502 8.99088C17.502 8.99501 17.505 8.99836 17.5087 8.99836Z" fill="black"/>
<path d="M17.5271 9.03549C17.5271 9.0365 17.527 9.03752 17.5267 9.03848C17.5264 9.03944 17.5259 9.04032 17.5252 9.04107C17.5246 9.04181 17.5239 9.0424 17.523 9.04281C17.5222 9.04321 17.5213 9.04342 17.5203 9.04342C17.5194 9.04342 17.5185 9.04321 17.5177 9.04281C17.5168 9.0424 17.5161 9.04181 17.5154 9.04107C17.5148 9.04032 17.5143 9.03944 17.514 9.03848C17.5137 9.03752 17.5136 9.0365 17.5136 9.03549C17.5136 9.0313 17.5167 9.02787 17.5203 9.02787C17.524 9.02787 17.5271 9.03127 17.5271 9.03549ZM17.35 8.8327C17.35 8.83471 17.3493 8.83663 17.348 8.83805C17.3468 8.83947 17.345 8.84027 17.3432 8.84027C17.3414 8.84027 17.3397 8.83947 17.3384 8.83805C17.3371 8.83663 17.3364 8.83471 17.3364 8.8327C17.3364 8.82866 17.3395 8.8252 17.3432 8.8252C17.347 8.8252 17.35 8.82866 17.35 8.8327Z" fill="black"/>
<path d="M17.35 8.87043C17.3537 8.87043 17.3567 8.86708 17.3567 8.86295C17.3567 8.85882 17.3537 8.85547 17.35 8.85547C17.3463 8.85547 17.3433 8.85882 17.3433 8.86295C17.3433 8.86708 17.3463 8.87043 17.35 8.87043Z" fill="black"/>
<path d="M17.3109 8.85578C17.3146 8.85578 17.3177 8.85243 17.3177 8.8483C17.3177 8.84417 17.3146 8.84082 17.3109 8.84082C17.3072 8.84082 17.3042 8.84417 17.3042 8.8483C17.3042 8.85243 17.3072 8.85578 17.3109 8.85578Z" fill="black"/>
<path d="M17.3296 8.89315C17.3295 8.89515 17.3288 8.89705 17.3275 8.89846C17.3262 8.89986 17.3245 8.90065 17.3227 8.90066C17.3209 8.90066 17.3192 8.89986 17.3179 8.89844C17.3166 8.89702 17.3159 8.8951 17.3159 8.8931C17.3159 8.89109 17.3166 8.88917 17.3179 8.88775C17.3192 8.88633 17.3209 8.88553 17.3227 8.88553C17.3245 8.88555 17.3263 8.88636 17.3276 8.88779C17.3288 8.88921 17.3296 8.89114 17.3296 8.89315ZM17.4478 8.62859C17.4478 8.62859 17.5355 8.68857 17.4511 8.80112C17.4511 8.80112 17.4926 8.76685 17.4968 8.70799C17.5013 8.64917 17.4667 8.60227 17.4478 8.62859ZM17.7843 8.79037C17.7561 8.8065 17.7154 8.77663 17.6951 8.74843C17.6748 8.72018 17.6328 8.71297 17.6066 8.7645C17.5804 8.81614 17.5428 8.83547 17.5428 8.83547C17.5428 8.83547 17.5796 8.81132 17.6175 8.76613C17.6552 8.72106 17.677 8.75727 17.714 8.77904C17.751 8.80082 17.7568 8.80561 17.7829 8.79434L17.7843 8.79037Z" fill="black"/>
<path d="M17.7772 8.79756C17.7656 8.8072 17.7445 8.81529 17.722 8.79506C17.6996 8.77492 17.6807 8.74755 17.6524 8.76365C17.624 8.77983 17.5703 8.82493 17.5703 8.82493C17.5703 8.82493 17.6575 8.75797 17.6742 8.77251C17.6908 8.78708 17.7301 8.82252 17.754 8.81213C17.7779 8.80152 17.7772 8.79756 17.7772 8.79756Z" fill="black"/>
<path d="M17.7103 8.83878C17.6828 8.81539 17.6552 8.86617 17.632 8.85983C17.6088 8.85326 17.5898 8.81055 17.5898 8.81055C17.5898 8.81055 17.6117 8.85573 17.6421 8.84523C17.6726 8.83479 17.6937 8.81379 17.7125 8.82986C17.7314 8.84606 17.7103 8.83878 17.7103 8.83878Z" fill="black"/>
<path d="M17.6672 8.84475C17.6128 8.85101 17.6074 8.79453 17.6074 8.79395C17.6074 8.79395 17.6246 8.84326 17.6727 8.83431L17.6672 8.84475Z" fill="black"/>
<path d="M17.6654 8.80691C17.6689 8.8222 17.6682 8.82915 17.6536 8.82915C17.6389 8.82915 17.629 8.82372 17.629 8.80793C17.629 8.79211 17.6632 8.79707 17.6654 8.80691ZM17.4699 8.72297C17.4699 8.73349 17.4621 8.74194 17.4524 8.74194C17.4428 8.74194 17.4409 8.73474 17.4409 8.72432C17.4409 8.71394 17.4428 8.7041 17.4524 8.7041C17.4621 8.7041 17.4699 8.71261 17.4699 8.72297Z" fill="black"/>
<path d="M17.4097 8.65489C17.4097 8.65489 17.5029 8.656 17.4568 8.78564C17.4568 8.78564 17.4923 8.7211 17.47 8.67467C17.4476 8.62829 17.4125 8.63999 17.4125 8.63999C17.4125 8.63999 17.404 8.64877 17.4097 8.65489Z" fill="black"/>
<path d="M17.4072 8.70699C17.407 8.73297 17.4226 8.75982 17.4535 8.78666L17.4606 8.77669C17.4326 8.75242 17.4185 8.72904 17.4187 8.70726C17.4189 8.68549 17.434 8.67255 17.4341 8.67236L17.4273 8.66211C17.4265 8.66283 17.4076 8.67884 17.4072 8.70699Z" fill="black"/>
<path d="M17.428 8.72879C17.432 8.74372 17.4424 8.755 17.459 8.76237L17.4633 8.75059C17.4501 8.74477 17.442 8.73624 17.4391 8.7253C17.4331 8.70325 17.4491 8.67754 17.4493 8.67732L17.44 8.66992C17.4391 8.67125 17.4206 8.70095 17.428 8.72879ZM17.5559 8.80082C17.5559 8.80082 17.5733 8.8427 17.548 8.88789C17.5225 8.93304 17.5232 8.93066 17.5232 8.93066C17.5232 8.93066 17.5537 8.86858 17.5421 8.8427C17.5306 8.81691 17.5559 8.80082 17.5559 8.80082ZM17.9187 9.23824C18.0145 9.2583 18.2306 9.44656 18.2328 9.4485L18.2453 9.43088C18.2362 9.42307 18.023 9.23738 17.9224 9.21635L17.9187 9.23824ZM18.0037 9.50391C18.0101 9.59837 18.1026 9.65705 18.1066 9.65943L18.1164 9.64004C18.1154 9.63954 18.0294 9.58474 18.0236 9.50222L18.0037 9.50391ZM17.7741 9.52357C17.7741 9.62951 17.8635 9.75766 17.8673 9.76312L17.883 9.74935C17.8822 9.74816 17.7941 9.62186 17.7941 9.52357H17.7741ZM17.4712 9.53549C17.4869 9.57045 17.4853 9.58818 17.4812 9.59685C17.4765 9.60663 17.4668 9.60812 17.4664 9.60821L17.4687 9.6304C17.4761 9.62943 17.4909 9.62375 17.4987 9.60779C17.5082 9.5884 17.505 9.5607 17.4891 9.52568L17.4712 9.53549Z" fill="black"/>
<path d="M16.1084 9.01305C16.1084 9.01305 16.1142 9.08396 16.1635 9.12605C16.1635 9.12605 16.1577 9.0485 16.1723 9.01634C16.1723 9.01634 16.1462 8.98409 16.1084 9.01305ZM16.2069 9.05821C16.2069 9.05821 16.2185 9.12263 16.2534 9.15171L16.2738 9.1453C16.2738 9.1453 16.2825 9.06459 16.2941 9.05492C16.3057 9.04534 16.2448 9.08396 16.2069 9.05825V9.05821Z" fill="white" stroke="black" stroke-width="0.239" stroke-miterlimit="3"/>
<path d="M16.2939 9.05458L16.3317 9.11912L16.3752 9.09329L16.3665 9.01596C16.3665 9.01596 16.3404 9.00941 16.2939 9.05458Z" fill="white" stroke="black" stroke-width="0.239" stroke-miterlimit="3"/>
<path d="M16.4711 9.06834L16.4217 9.11351C16.4217 9.11351 16.3956 9.09088 16.3752 9.09413L16.384 9.02318C16.384 9.02318 16.4189 8.99413 16.4711 9.06834ZM16.1198 9.73597C16.1198 9.73597 16.1111 9.63597 16.1228 9.62951C16.1228 9.62951 16.1575 9.64243 16.1721 9.62622C16.1721 9.62622 16.1924 9.70693 16.1866 9.73918C16.1808 9.77138 16.146 9.75859 16.1198 9.73597H16.1198ZM16.3434 9.63263C16.3434 9.63263 16.3406 9.54876 16.3551 9.53901C16.3551 9.53901 16.4276 9.54872 16.445 9.50684L16.4712 9.58747C16.4712 9.58747 16.3899 9.57776 16.3434 9.63263Z" fill="white" stroke="black" stroke-width="0.239" stroke-miterlimit="3"/>
<path d="M16.2654 9.64831C16.2654 9.64831 16.2799 9.56123 16.2945 9.55802C16.2945 9.55802 16.3322 9.5709 16.3438 9.55469L16.3409 9.66123C16.3409 9.66123 16.3438 9.61602 16.2654 9.64831ZM16.1812 9.66131C16.1812 9.66131 16.1986 9.5839 16.2102 9.5839C16.2219 9.5839 16.2509 9.60323 16.2654 9.59035V9.64844C16.2654 9.64844 16.2014 9.63231 16.1928 9.72902L16.1812 9.66131Z" fill="white" stroke="black" stroke-width="0.233" stroke-miterlimit="3"/>
<path d="M17.3131 11.2673C17.3131 11.2673 17.5104 11.4709 17.4588 11.6484C17.4588 11.6484 17.5856 11.3456 17.4494 11.2568C17.3131 11.1681 17.3084 11.2361 17.3131 11.2673Z" fill="#00A651" stroke="black" stroke-width="0.519" stroke-miterlimit="4.8"/>
<path d="M17.0638 11.4655C17.0638 11.4655 17.0122 11.544 17.0684 11.6014C17.0684 11.6014 17.0074 11.7004 17.0545 11.7841C17.0545 11.7841 17.0168 11.8728 17.0263 11.9668C17.0263 11.9668 16.9933 12.1129 17.0638 12.1809C17.0638 12.1809 17.139 12.2227 17.1719 12.1862C17.1719 12.1862 17.2377 12.0766 17.1953 11.9616C17.1953 11.9616 17.2423 11.8676 17.1907 11.7475C17.1907 11.7475 17.2048 11.6796 17.1625 11.6014C17.1625 11.6014 17.1907 11.5491 17.1671 11.5074C17.1671 11.5074 17.0732 11.3977 17.0638 11.4655Z" fill="#964B36" stroke="black" stroke-width="0.519" stroke-miterlimit="4.8"/>
<path d="M17.1201 11.2097C17.1201 11.2097 16.8852 10.7086 16.7207 10.6876C16.5562 10.6667 16.5469 10.4893 16.5469 10.4893C16.5469 10.4893 16.5656 10.5728 16.6973 10.5728C16.8289 10.5728 17.0826 10.7763 17.1108 10.933C17.1389 11.0896 17.1672 11.0688 17.1672 11.0688L17.1201 11.2097Z" fill="#00A651" stroke="black" stroke-width="0.519" stroke-miterlimit="4.8"/>
<path d="M17.1201 11.173C17.1201 11.173 17.2047 10.5412 17.576 10.5307C17.9471 10.5202 17.8251 10.5621 17.9142 10.4941C17.9142 10.4941 17.6653 10.6404 17.5102 10.6612C17.3552 10.6821 17.2282 11.0162 17.2329 11.079C17.2376 11.1416 17.1484 11.2617 17.1061 11.22C17.0638 11.1782 17.1201 11.173 17.1201 11.173V11.173Z" fill="#00A651" stroke="black" stroke-width="0.519" stroke-miterlimit="4.8"/>
<path d="M17.2047 11.4088C17.2047 11.4088 17.2893 11.1581 17.435 11.2418C17.435 11.2418 17.3221 11.0015 17.1201 11.2103C17.1201 11.2103 17.2094 11.3461 17.2047 11.4088ZM16.9227 11.1578C16.9227 11.1578 17.045 11.7165 16.857 11.8888C16.857 11.8888 16.8616 11.6018 16.7488 11.4294C16.6362 11.257 16.8616 11.0692 16.9227 11.1578Z" fill="#00A651" stroke="black" stroke-width="0.519" stroke-miterlimit="4.8"/>
<path d="M16.9372 11.2564C16.9372 11.2564 17.1581 11.4914 17.1722 11.5698C17.1863 11.6481 17.238 11.3348 17.1346 11.2461C17.0312 11.1572 16.9185 11.1416 16.9185 11.1416L16.9372 11.2564H16.9372Z" fill="#00A651" stroke="black" stroke-width="0.519" stroke-miterlimit="4.8"/>
<path d="M16.5298 11.873C16.5298 11.873 16.5498 11.9717 16.6043 11.9907C16.6043 11.9907 16.6071 12.064 16.6559 12.0862C16.6559 12.0862 16.63 12.1468 16.6731 12.1849C16.6731 12.1849 16.6644 12.3059 16.7045 12.3314C16.7045 12.3314 16.802 12.325 16.8363 12.2932C16.8363 12.2932 16.8564 12.2137 16.8021 12.134C16.8021 12.134 16.8105 12.0576 16.7561 12.0162C16.7561 12.0162 16.7733 11.9142 16.7045 11.8761C16.7045 11.8761 16.6931 11.7933 16.6501 11.752C16.6501 11.752 16.5671 11.8825 16.5298 11.873Z" fill="#964B36" stroke="black" stroke-width="0.519" stroke-miterlimit="4.8"/>
<path d="M16.6383 11.7519C16.6383 11.7519 16.3489 11.6341 16.1885 11.8029C16.1885 11.8029 16.4348 11.8411 16.4664 11.8952C16.4979 11.9492 16.6497 11.8061 16.6383 11.7519V11.7519Z" fill="#00A651" stroke="black" stroke-width="0.519" stroke-miterlimit="4.8"/>
<path d="M16.5495 11.952C16.5495 11.952 16.5267 11.9298 16.498 11.9074C16.4694 11.8852 16.2259 11.812 16.1914 12.073C16.1914 12.073 16.1025 11.8152 16.2315 11.7801C16.3605 11.745 16.4636 11.8279 16.5495 11.952M16.3591 11.4184C16.3591 11.4184 16.4483 11.6325 16.4812 11.6431C16.5141 11.6534 16.5375 11.617 16.5375 11.617C16.5375 11.617 16.4201 11.4238 16.359 11.4184H16.3591ZM16.2932 11.0896C16.2932 11.0896 16.218 10.813 16.1288 10.886C16.0395 10.9591 16.063 11.1574 16.063 11.1574C16.063 11.1574 15.8844 10.9539 15.9878 10.792C16.0913 10.6302 16.2932 10.8077 16.2932 11.0896Z" fill="#00A651"/>
<path d="M16.5495 11.952C16.5495 11.952 16.5267 11.9298 16.498 11.9074C16.4694 11.8852 16.2259 11.812 16.1914 12.073C16.1914 12.073 16.1025 11.8152 16.2315 11.7801C16.3605 11.745 16.4636 11.8279 16.5495 11.952M16.3591 11.4184C16.3591 11.4184 16.4483 11.6325 16.4812 11.6431C16.5141 11.6534 16.5375 11.617 16.5375 11.617C16.5375 11.617 16.4201 11.4238 16.359 11.4184H16.3591ZM16.2932 11.0896C16.2932 11.0896 16.218 10.813 16.1288 10.886C16.0395 10.9591 16.063 11.1574 16.063 11.1574C16.063 11.1574 15.8844 10.9539 15.9878 10.792C16.0913 10.6302 16.2932 10.8077 16.2932 11.0896V11.0896Z" stroke="black" stroke-width="0.519" stroke-miterlimit="4.8"/>
<path d="M16.4956 11.6584C16.4956 11.6584 16.4956 11.7106 16.5285 11.7262C16.5615 11.7419 16.6225 11.7679 16.6225 11.7367C16.6225 11.7054 16.5756 11.5853 16.5567 11.601C16.5378 11.6167 16.5051 11.6165 16.4956 11.6584Z" fill="#964B36" stroke="black" stroke-width="0.519" stroke-miterlimit="4.8"/>
<path d="M16.4391 11.3355C16.4391 11.3355 16.4297 11.0953 16.5706 11.0064C16.5706 11.0064 16.5988 11.0118 16.6129 10.9648C16.6129 10.9648 16.5001 11.2676 16.533 11.419L16.5283 11.4399" fill="#00A651"/>
<path d="M16.4391 11.3355C16.4391 11.3355 16.4297 11.0953 16.5706 11.0064C16.5706 11.0064 16.5988 11.0118 16.6129 10.9648C16.6129 10.9648 16.5001 11.2676 16.533 11.419L16.5283 11.4399" stroke="black" stroke-width="0.519" stroke-miterlimit="4.8"/>
<path d="M16.4673 11.0424C16.4673 11.0424 16.721 10.4576 17.0312 10.6612C17.0312 10.6612 16.707 10.7344 16.5896 10.9902L16.472 11.1832L16.4673 11.0424H16.4673Z" fill="#00A651" stroke="black" stroke-width="0.519" stroke-miterlimit="4.8"/>
<path d="M16.3309 11.2569C16.3309 11.2569 16.2557 10.8654 16.2087 10.8132C16.1617 10.761 16.0818 10.7036 15.9878 10.7923C15.9878 10.7923 16.1523 10.6304 16.3262 10.7662C16.5 10.902 16.4624 11.116 16.4624 11.116L16.4436 11.3876L16.3262 11.2674" fill="#00A651"/>
<path d="M16.3309 11.2569C16.3309 11.2569 16.2557 10.8654 16.2087 10.8132C16.1617 10.761 16.0818 10.7036 15.9878 10.7923C15.9878 10.7923 16.1523 10.6304 16.3262 10.7662C16.5 10.902 16.4624 11.116 16.4624 11.116L16.4436 11.3876L16.3262 11.2674" stroke="black" stroke-width="0.519" stroke-miterlimit="4.8"/>
<path d="M16.6032 11.7209C16.6032 11.7209 16.2931 11.0685 16.0911 11.5331C16.0911 11.5331 16.0534 11.6531 16.0957 11.7C16.0957 11.7 15.9828 11.6062 16.0346 11.3764C16.0862 11.1468 16.4292 11.2511 16.528 11.4391C16.6266 11.627 16.6549 11.7211 16.6408 11.7314C16.6266 11.7419 16.6032 11.7209 16.6032 11.7209ZM17.4773 11.9091C17.4773 11.9091 17.703 11.3921 17.8345 11.627C17.8345 11.627 17.872 11.7419 17.8156 11.789C17.8156 11.789 17.7264 11.6689 17.6466 11.8151C17.5667 11.9612 17.5995 11.9509 17.5995 11.9509C17.5995 11.9509 17.515 11.9769 17.4773 11.909V11.9091Z" fill="#00A651" stroke="black" stroke-width="0.519" stroke-miterlimit="4.8"/>
<path d="M17.8154 11.7895C17.8154 11.7895 17.9376 11.8625 17.8954 12.0087C17.8954 12.0087 18.0598 11.6589 17.8343 11.6275C17.8343 11.6275 17.8767 11.7372 17.8154 11.7895ZM17.8296 11.4346C17.8296 11.4346 18.1257 11.5285 18.1351 11.6696C18.1351 11.6696 18.1869 11.398 18.0176 11.3145C18.0177 11.3145 17.8155 11.3511 17.8296 11.4346V11.4346Z" fill="#00A651" stroke="black" stroke-width="0.519" stroke-miterlimit="4.8"/>
<path d="M17.9612 11.0006C18.0882 10.7239 18.2479 11.0894 18.2479 11.0894C18.2479 11.0894 18.3042 10.8023 18.1446 10.75C17.9847 10.6978 17.8814 11.3608 17.8814 11.3608L17.6934 11.4078C17.6934 11.4078 17.7451 10.8284 18.027 10.7761L18.0598 10.7814" fill="#00A651"/>
<path d="M17.9612 11.0006C18.0882 10.7239 18.2479 11.0894 18.2479 11.0894C18.2479 11.0894 18.3042 10.8023 18.1446 10.75C17.9847 10.6978 17.8814 11.3608 17.8814 11.3608L17.6934 11.4078C17.6934 11.4078 17.7451 10.8284 18.027 10.7761L18.0598 10.7814" stroke="black" stroke-width="0.519" stroke-miterlimit="4.8"/>
<path d="M17.736 11.1677C17.736 11.1677 17.5575 10.7605 17.4353 10.7188C17.313 10.677 17.5011 10.6143 17.5763 10.6926C17.6514 10.7709 17.7923 10.8701 17.7783 11.079L17.736 11.1677L17.736 11.1677ZM17.5527 11.7265C17.5527 11.7265 17.6044 11.4498 17.7453 11.3662C17.8863 11.2827 18.0179 11.3141 18.0179 11.3141C18.0179 11.3141 17.8487 11.3557 17.8206 11.4499C17.7923 11.5438 17.7453 11.549 17.7453 11.549L17.5527 11.7265V11.7265Z" fill="#00A651" stroke="black" stroke-width="0.519" stroke-miterlimit="4.8"/>
<path d="M17.4773 11.9092C17.4773 11.9092 17.3974 12.0763 17.4162 12.1023C17.4162 12.1023 17.3317 12.2381 17.3645 12.3059C17.3645 12.3059 17.4492 12.379 17.4868 12.3476C17.4868 12.3476 17.5853 12.1963 17.5572 12.1127C17.5572 12.1127 17.6229 12.0136 17.5995 11.951C17.5995 11.951 17.5009 11.9562 17.4773 11.9092Z" fill="#964B36" stroke="black" stroke-width="0.519" stroke-miterlimit="4.8"/>
<path d="M17.0643 11.6107C17.0696 11.6137 17.117 11.6392 17.149 11.6274L17.1718 11.6057L17.1539 11.5958C17.1422 11.6217 17.0905 11.6004 17.0732 11.5908L17.0643 11.6107ZM17.0566 11.7727L17.0527 11.7946C17.0567 11.7954 17.1521 11.8159 17.1976 11.7711L17.1842 11.7545C17.1462 11.792 17.0575 11.773 17.0566 11.7727V11.7727ZM17.0324 11.9572L17.0206 11.9752C17.0218 11.9762 17.1326 12.0639 17.2035 11.9682L17.188 11.954C17.1291 12.0334 17.0363 11.9604 17.0324 11.9572ZM16.6021 11.9838L16.6062 11.9957C16.6102 11.9939 16.7041 11.952 16.7101 11.8757L16.6987 11.8746C16.6933 11.9431 16.603 11.9834 16.6021 11.9838ZM16.6552 12.0791L16.656 12.0918C16.6596 12.0915 16.7463 12.0843 16.7614 12.017L16.7503 12.0138C16.7372 12.0722 16.656 12.079 16.6552 12.0791ZM16.6731 12.1777L16.6725 12.1905C16.6766 12.1907 16.7737 12.1963 16.8067 12.1366L16.7969 12.1298C16.7675 12.1832 16.6741 12.1778 16.6732 12.1777L16.6731 12.1777ZM17.4094 12.1102C17.4111 12.1122 17.453 12.1581 17.5019 12.1561C17.5258 12.1551 17.547 12.1429 17.5649 12.12L17.5498 12.1054C17.5357 12.1234 17.5193 12.1331 17.5012 12.1338C17.4612 12.1355 17.4238 12.0949 17.4235 12.0944L17.4094 12.1102Z" fill="black"/>
<path d="M20.3272 12.4919C20.3215 12.4943 20.3163 12.4981 20.312 12.5031L20.3272 12.4919ZM20.6728 12.3958C20.6694 12.3862 20.6672 12.3903 20.6628 12.386C20.6565 12.3803 20.6529 12.3618 20.6473 12.3549C20.644 12.3507 20.6402 12.3547 20.6366 12.3537C20.6286 12.3339 20.6191 12.3132 20.6105 12.2941C20.6121 12.2915 20.6129 12.2884 20.6129 12.2852C20.6116 12.2796 20.6102 12.2741 20.6086 12.2686C20.6062 12.2644 20.6024 12.2668 20.6001 12.2603C20.5974 12.2537 20.5994 12.2409 20.5985 12.2331C20.5978 12.2267 20.5955 12.2231 20.5959 12.214C20.5963 12.2062 20.6 12.197 20.5996 12.1901C20.5994 12.1858 20.5949 12.176 20.5935 12.1724C20.5879 12.1574 20.5833 12.1434 20.5826 12.1249C20.5819 12.1083 20.5849 12.0981 20.586 12.0837C20.5874 12.0663 20.5792 12.0579 20.5792 12.0419C20.5792 12.0297 20.5839 12.0159 20.5852 12.0049C20.587 11.9899 20.5872 11.9682 20.5861 11.9528C20.585 11.938 20.5813 11.9292 20.5834 11.9126C20.5839 11.9085 20.5856 11.9053 20.5861 11.8996C20.5859 11.8955 20.5859 11.8916 20.5859 11.8877V11.8639C20.5859 11.8562 20.5867 11.8475 20.5861 11.84C20.5855 11.8337 20.5822 11.8273 20.5822 11.8224C20.5822 11.8139 20.587 11.8099 20.586 11.7984C20.5853 11.7901 20.5842 11.7882 20.5825 11.7809C20.5792 11.7673 20.5815 11.7535 20.5795 11.7389C20.5785 11.7319 20.5765 11.7296 20.5759 11.7216C20.5751 11.7122 20.5777 11.7089 20.5785 11.7022C20.5794 11.6956 20.5803 11.6868 20.5795 11.6798C20.5785 11.6713 20.5749 11.6653 20.5759 11.6561L20.5731 11.7609C20.5708 11.6694 20.5675 11.5848 20.5675 11.5848L20.4424 11.5195C20.4424 11.5195 20.4318 11.7748 20.4345 11.8103C20.437 11.8459 20.4478 12.0894 20.4424 12.1191C20.437 12.1488 20.4238 12.2972 20.4238 12.2972C20.4238 12.2972 20.3627 12.3447 20.3387 12.398C20.3147 12.4515 20.3201 12.4693 20.312 12.4693L20.3715 12.459L20.3272 12.4919C20.3317 12.4898 20.3367 12.4891 20.3416 12.49C20.3464 12.4908 20.351 12.4931 20.3548 12.4966C20.3558 12.4975 20.3624 12.5038 20.3632 12.5038C20.3656 12.5038 20.3688 12.4972 20.3716 12.496C20.3809 12.4926 20.3886 12.5118 20.3974 12.5103C20.402 12.5095 20.4085 12.5041 20.4123 12.4985C20.4155 12.4937 20.4167 12.4855 20.42 12.4823C20.423 12.4794 20.4305 12.4828 20.4337 12.4828C20.4424 12.4828 20.4513 12.4831 20.46 12.4828C20.4717 12.4824 20.4811 12.4642 20.4919 12.4539C20.5018 12.4446 20.5092 12.4413 20.5199 12.4419C20.5316 12.4429 20.5421 12.4551 20.554 12.4558C20.563 12.4563 20.5693 12.4575 20.5766 12.4471C20.5816 12.4397 20.5852 12.4289 20.5899 12.4212L20.6195 12.4162C20.6253 12.4189 20.6313 12.4219 20.6363 12.4217C20.6439 12.4212 20.6517 12.4202 20.6592 12.4215C20.662 12.4219 20.6677 12.4294 20.67 12.4275C20.6716 12.4262 20.6743 12.4162 20.6759 12.4132C20.6752 12.4092 20.6741 12.3991 20.6728 12.3958Z" fill="#964B36" stroke="black" stroke-width="0.279" stroke-miterlimit="4.8"/>
<path d="M20.4199 12.4868C20.4274 12.4868 20.4343 12.4849 20.4406 12.4911L20.4436 12.4975C20.4445 12.4982 20.4455 12.4987 20.4466 12.4989C20.4477 12.4991 20.4488 12.4989 20.4499 12.4985C20.4541 12.5016 20.455 12.5035 20.4596 12.5046C20.464 12.5057 20.4687 12.5044 20.4731 12.5045C20.4785 12.5047 20.4812 12.5068 20.4863 12.5091C20.4952 12.5132 20.5011 12.5093 20.5088 12.5032C20.5178 12.4958 20.5211 12.5014 20.5297 12.5106C20.5361 12.5174 20.5348 12.5168 20.5405 12.5121C20.5414 12.5099 20.5424 12.5078 20.5434 12.506C20.5463 12.5046 20.5492 12.5038 20.5522 12.5032C20.557 12.5007 20.5617 12.501 20.5662 12.499C20.571 12.497 20.5745 12.4911 20.5795 12.4922C20.5838 12.4931 20.5888 12.4971 20.5929 12.4986C20.5962 12.4996 20.5992 12.5014 20.6019 12.5036C20.6079 12.49 20.6211 12.4859 20.6295 12.4793C20.6383 12.4726 20.6464 12.4807 20.656 12.4808C20.6612 12.4808 20.6632 12.4775 20.6669 12.4762C20.671 12.4746 20.6756 12.4769 20.6795 12.4751C20.6837 12.4734 20.6845 12.469 20.689 12.4684C20.6975 12.4672 20.707 12.4826 20.7155 12.4855C20.7203 12.4873 20.7423 12.4928 20.7391 12.4747C20.7359 12.4576 20.7221 12.4695 20.7192 12.4574C20.7176 12.4506 20.7208 12.4408 20.7189 12.4331C20.7172 12.4261 20.7103 12.418 20.7061 12.4165C20.7009 12.4147 20.6979 12.4207 20.6935 12.416C20.6898 12.4123 20.6884 12.3982 20.6852 12.3926C20.681 12.3961 20.6783 12.3993 20.6727 12.398C20.6662 12.3963 20.6669 12.3938 20.6621 12.3871C20.6517 12.3726 20.6457 12.3958 20.6361 12.3921C20.6288 12.3895 20.622 12.3691 20.6163 12.3608C20.6133 12.3563 20.6047 12.342 20.6003 12.3452C20.5928 12.3506 20.5996 12.3662 20.5957 12.3731C20.5929 12.3779 20.5831 12.373 20.5795 12.3738C20.5739 12.3751 20.5728 12.3768 20.5687 12.3843C20.5605 12.3994 20.5557 12.4114 20.5429 12.4097C20.5369 12.4089 20.5323 12.4021 20.5264 12.4046C20.52 12.4073 20.5165 12.4148 20.5095 12.4157C20.5042 12.4165 20.4989 12.416 20.4938 12.4142C20.4889 12.4118 20.4835 12.4017 20.479 12.3989C20.4782 12.3981 20.4773 12.3976 20.4762 12.3973C20.4751 12.3971 20.474 12.3972 20.473 12.3977C20.4706 12.3961 20.4682 12.3945 20.4658 12.393C20.458 12.3905 20.4587 12.3908 20.4555 12.4022C20.4537 12.4092 20.453 12.4164 20.4507 12.4231C20.4484 12.4287 20.4435 12.4356 20.4406 12.4393C20.4352 12.4458 20.4326 12.4441 20.4256 12.4464C20.42 12.4484 20.4125 12.4581 20.4095 12.4456C20.405 12.4267 20.422 12.3985 20.4031 12.4034C20.3981 12.4047 20.3952 12.4057 20.3922 12.4138C20.3888 12.4232 20.3915 12.4293 20.39 12.4395C20.388 12.4524 20.3659 12.4741 20.3703 12.4857C20.3732 12.4939 20.3831 12.4813 20.3858 12.4833C20.3903 12.4868 20.389 12.495 20.3922 12.5005C20.3989 12.5118 20.4187 12.4828 20.4199 12.4986M20.3395 12.3857C20.3395 12.3841 20.3392 12.3825 20.3392 12.3808C20.3338 12.3798 20.3279 12.3735 20.323 12.3734C20.3184 12.3731 20.3095 12.3856 20.3063 12.3915C20.2967 12.4093 20.2993 12.4336 20.2831 12.4332C20.279 12.4331 20.2697 12.4301 20.2662 12.4328C20.2601 12.4376 20.2639 12.4519 20.2639 12.4616C20.2639 12.4708 20.2677 12.4616 20.2633 12.4735C20.262 12.4767 20.258 12.4778 20.2569 12.4821C20.2537 12.4976 20.2653 12.4927 20.2704 12.4926C20.2835 12.4924 20.2967 12.4924 20.3097 12.4926C20.3176 12.4927 20.3223 12.4896 20.3297 12.4865C20.3345 12.4846 20.3449 12.4847 20.3489 12.4799C20.3517 12.4746 20.3541 12.4689 20.3558 12.463C20.3569 12.457 20.3548 12.4498 20.3561 12.4448C20.3582 12.436 20.3653 12.4393 20.3665 12.4275C20.3699 12.3985 20.342 12.4202 20.3464 12.3917" fill="#964B36"/>
<path d="M20.4199 12.4868C20.4274 12.4868 20.4343 12.4849 20.4406 12.4911L20.4436 12.4975C20.4445 12.4982 20.4455 12.4987 20.4466 12.4989C20.4477 12.4991 20.4488 12.4989 20.4499 12.4985C20.4541 12.5016 20.455 12.5035 20.4596 12.5046C20.464 12.5057 20.4687 12.5044 20.4731 12.5045C20.4785 12.5047 20.4812 12.5068 20.4863 12.5091C20.4952 12.5132 20.5011 12.5093 20.5088 12.5032C20.5178 12.4958 20.5211 12.5014 20.5297 12.5106C20.5361 12.5174 20.5348 12.5168 20.5405 12.5121C20.5414 12.5099 20.5424 12.5078 20.5434 12.506C20.5463 12.5046 20.5492 12.5038 20.5522 12.5032C20.557 12.5007 20.5617 12.501 20.5662 12.499C20.571 12.497 20.5745 12.4911 20.5795 12.4922C20.5838 12.4931 20.5888 12.4971 20.5929 12.4986C20.5962 12.4996 20.5992 12.5014 20.6019 12.5036C20.6079 12.49 20.6211 12.4859 20.6295 12.4793C20.6383 12.4726 20.6464 12.4807 20.656 12.4808C20.6612 12.4808 20.6632 12.4775 20.6669 12.4762C20.671 12.4746 20.6756 12.4769 20.6795 12.4751C20.6837 12.4734 20.6845 12.469 20.689 12.4684C20.6975 12.4672 20.707 12.4826 20.7155 12.4855C20.7203 12.4873 20.7423 12.4928 20.7391 12.4747C20.7359 12.4576 20.7221 12.4695 20.7192 12.4574C20.7176 12.4506 20.7208 12.4408 20.7189 12.4331C20.7172 12.4261 20.7103 12.418 20.7061 12.4165C20.7009 12.4147 20.6979 12.4207 20.6935 12.416C20.6898 12.4123 20.6884 12.3982 20.6852 12.3926C20.681 12.3961 20.6783 12.3993 20.6727 12.398C20.6662 12.3963 20.6669 12.3938 20.6621 12.3871C20.6517 12.3726 20.6457 12.3958 20.6361 12.3921C20.6288 12.3895 20.622 12.3691 20.6163 12.3608C20.6133 12.3563 20.6047 12.342 20.6003 12.3452C20.5928 12.3506 20.5996 12.3662 20.5957 12.3731C20.5929 12.3779 20.5831 12.373 20.5795 12.3738C20.5739 12.3751 20.5728 12.3768 20.5687 12.3843C20.5605 12.3994 20.5557 12.4114 20.5429 12.4097C20.5369 12.4089 20.5323 12.4021 20.5264 12.4046C20.52 12.4073 20.5165 12.4148 20.5095 12.4157C20.5042 12.4165 20.4989 12.416 20.4938 12.4142C20.4889 12.4118 20.4835 12.4017 20.479 12.3989C20.4782 12.3981 20.4773 12.3976 20.4762 12.3973C20.4751 12.3971 20.474 12.3972 20.473 12.3977C20.4706 12.3961 20.4682 12.3945 20.4658 12.393C20.458 12.3905 20.4587 12.3908 20.4555 12.4022C20.4537 12.4092 20.453 12.4164 20.4507 12.4231C20.4484 12.4287 20.4435 12.4356 20.4406 12.4393C20.4352 12.4458 20.4326 12.4441 20.4256 12.4464C20.42 12.4484 20.4125 12.4581 20.4095 12.4456C20.405 12.4267 20.422 12.3985 20.4031 12.4034C20.3981 12.4047 20.3952 12.4057 20.3922 12.4138C20.3888 12.4232 20.3915 12.4293 20.39 12.4395C20.388 12.4524 20.3659 12.4741 20.3703 12.4857C20.3732 12.4939 20.3831 12.4813 20.3858 12.4833C20.3903 12.4868 20.389 12.495 20.3922 12.5005C20.3989 12.5118 20.4187 12.4828 20.4199 12.4986M20.3395 12.3857C20.3395 12.3841 20.3392 12.3825 20.3392 12.3808C20.3338 12.3798 20.3279 12.3735 20.323 12.3734C20.3184 12.3731 20.3095 12.3856 20.3063 12.3915C20.2967 12.4093 20.2993 12.4336 20.2831 12.4332C20.279 12.4331 20.2697 12.4301 20.2662 12.4328C20.2601 12.4376 20.2639 12.4519 20.2639 12.4616C20.2639 12.4708 20.2677 12.4616 20.2633 12.4735C20.262 12.4767 20.258 12.4778 20.2569 12.4821C20.2537 12.4976 20.2653 12.4927 20.2704 12.4926C20.2835 12.4924 20.2967 12.4924 20.3097 12.4926C20.3176 12.4927 20.3223 12.4896 20.3297 12.4865C20.3345 12.4846 20.3449 12.4847 20.3489 12.4799C20.3517 12.4746 20.3541 12.4689 20.3558 12.463C20.3569 12.457 20.3548 12.4498 20.3561 12.4448C20.3582 12.436 20.3653 12.4393 20.3665 12.4275C20.3699 12.3985 20.342 12.4202 20.3464 12.3917" stroke="black" stroke-width="0.279" stroke-miterlimit="4.8"/>
<path d="M20.6554 11.5793C20.6554 11.6169 20.6322 11.6471 20.6035 11.6471C20.5752 11.6471 20.5519 11.6169 20.5519 11.5793C20.5519 11.5418 20.5752 11.5114 20.6035 11.5114C20.6322 11.5114 20.6554 11.5418 20.6554 11.5793ZM20.4863 11.4957C20.4863 11.5332 20.4632 11.5634 20.4346 11.5634C20.406 11.5634 20.3828 11.5331 20.3828 11.4957C20.3828 11.4582 20.406 11.4277 20.4346 11.4277C20.4632 11.4277 20.4864 11.4582 20.4864 11.4957H20.4863Z" fill="black" stroke="black" stroke-width="0.519" stroke-miterlimit="4.8"/>
<path d="M20.5755 11.522C20.5755 11.5596 20.5524 11.5898 20.5238 11.5898C20.4953 11.5898 20.4722 11.5596 20.4722 11.522C20.4722 11.4844 20.4953 11.4541 20.5238 11.4541C20.5523 11.4541 20.5755 11.4845 20.5755 11.522Z" fill="black" stroke="black" stroke-width="0.519" stroke-miterlimit="4.8"/>
<path d="M20.4892 11.5834C20.4892 11.621 20.4659 11.6514 20.4374 11.6514C20.4089 11.6514 20.3857 11.621 20.3857 11.5834C20.3857 11.546 20.4089 11.5156 20.4374 11.5156C20.466 11.5156 20.4892 11.5459 20.4892 11.5834Z" fill="black" stroke="black" stroke-width="0.519" stroke-miterlimit="4.8"/>
<path d="M20.5693 11.6352C20.5693 11.6727 20.546 11.7032 20.5176 11.7032C20.4891 11.7032 20.4658 11.6727 20.4658 11.6352C20.4658 11.5977 20.4891 11.5674 20.5176 11.5674C20.546 11.5674 20.5693 11.5977 20.5693 11.6352V11.6352Z" fill="black" stroke="black" stroke-width="0.519" stroke-miterlimit="4.8"/>
<path d="M20.5942 10.8956C20.5942 10.8956 21.1157 10.0864 21.6749 10.927C21.6749 10.927 21.6796 11.0106 21.6279 11.0993L21.6138 11.0314L21.5809 11.0419L21.5716 11.0001L21.5103 10.9949L21.5293 10.9061L21.4634 10.9635L21.4728 10.9009L21.3976 10.9845L21.4071 10.8069L21.3271 10.9583L21.3365 10.854L21.3084 10.9009L21.2914 10.84L21.2661 10.9009L21.2284 10.8696V10.9114L21.1627 10.8487L21.1393 10.9322L21.1064 10.8435L21.097 10.9061L21.064 10.833L21.0594 10.9114L20.9512 10.8591L20.9747 10.9322L20.9231 10.8906L20.9325 10.9322L20.8621 10.9167L20.8667 10.9636L20.7915 10.9479L20.8057 10.9896L20.7022 10.974L20.7397 11.021L20.7293 11.0401C20.7293 11.0401 21.2943 10.8331 21.3319 11.6162L21.2284 11.6737L21.2567 11.6112L21.2284 11.5902L21.1439 11.5172L21.1674 11.4179L21.1393 11.4284L21.1345 11.371L21.1204 11.3814L21.0874 11.3239L21.0781 11.3449L21.0546 11.2769L21.0312 11.324L21.017 11.2091L20.9795 11.2823L20.9747 11.2405L20.9605 11.2666L20.9136 11.2039L20.8996 11.2457L20.8807 11.2144L20.8667 11.2509L20.815 11.1986V11.2405L20.7821 11.2091L20.7679 11.23L20.6881 11.183L20.6833 11.2247L20.6411 11.183L20.6269 11.2247C20.6269 11.2247 21.1393 11.5485 20.9794 12.0758L20.9511 12.1437L20.9419 11.9662L20.8949 12.0602L20.9275 11.8565L20.8949 11.893L20.89 11.8148L20.8479 11.893L20.8336 11.8043L20.8149 11.8304L20.7866 11.6946L20.7631 11.7521L20.7256 11.6007L20.6974 11.6633L20.6786 11.5329L20.6598 11.6112L20.6034 11.4963L20.5941 11.5432L20.5612 11.4493L20.5423 11.4807C20.5423 11.4807 20.4483 11.4754 20.4202 11.4493C20.392 11.4233 20.3121 11.6059 20.3121 11.6059L20.3215 11.4963L20.2887 11.5693V11.4963L20.2275 11.7155L20.2134 11.5589L20.1805 11.6946L20.1664 11.6529L20.157 11.7104L20.1382 11.6894L20.1218 11.7511L20.0911 11.726V11.8095L20.063 11.7678L20.0395 11.8931L20.0254 11.841V11.8983L20.0019 11.8671L19.9783 11.9924L19.9455 11.9403L19.9409 12.0289L19.9549 12.0969L19.9173 12.0759L19.9315 12.1854C19.9315 12.1854 19.7858 11.8827 19.9597 11.5903C20.1334 11.2981 20.3685 11.2197 20.3685 11.2197L20.3448 11.1937L20.3402 11.1675L20.1992 11.2458L20.204 11.1987L20.1664 11.2352L20.157 11.1831L20.1334 11.2301L20.1288 11.2092L20.0959 11.2667L20.077 11.1831L20.0536 11.2824L20.0314 11.2129L19.9831 11.3606V11.251L19.9455 11.3659L19.9314 11.2405L19.9033 11.3867V11.2562L19.8609 11.3867L19.8327 11.2614L19.8139 11.3814L19.7858 11.2875L19.7575 11.4284L19.7153 11.3031L19.6918 11.4911L19.6636 11.4179L19.6589 11.5537L19.6261 11.4702L19.6589 11.6477L19.6166 11.5798L19.6307 11.6894L19.5697 11.5693L19.5744 11.7104L19.5414 11.6634L19.5273 11.7156C19.5273 11.7156 19.5133 11.1726 19.8468 11.0681C20.1805 10.9637 20.3967 11.0995 20.3967 11.0995L20.2698 10.9847L20.2839 10.948H20.2369L20.2557 10.9063L20.1571 10.9115L20.1852 10.8698L20.11 10.8802V10.8541L20.063 10.8958L20.0818 10.8489L20.016 10.8957L20.0121 10.8263L19.9784 10.8855L19.9598 10.8227L19.8093 10.9897L19.8516 10.8175L19.8234 10.8541L19.8188 10.8175L19.7764 10.8907L19.7671 10.8384L19.7482 10.901L19.7341 10.828L19.7013 10.901L19.6683 10.8333L19.6543 10.922L19.6307 10.8749L19.6026 10.9429L19.5651 10.901L19.5603 10.9428L19.4851 10.9063L19.5039 10.9689L19.4475 10.9168L19.4333 11.0003L19.4005 10.9585L19.377 11.063L19.3536 10.9637L19.3301 11.0421C19.3301 11.0421 19.6239 10.2031 20.3674 10.7504C20.3674 10.7504 20.4484 10.8384 20.4672 10.9011C20.486 10.9637 20.4719 10.9116 20.4719 10.9116L20.4578 10.332L20.4859 10.5827L20.5047 10.4939L20.5001 10.6244L20.5752 10.4416C20.5752 10.4416 20.486 10.7445 20.5188 10.8541C20.5188 10.8541 20.5518 10.5044 20.6646 10.4625L20.5612 10.7131L20.5941 10.7079L20.5705 10.7602H20.5987L20.5647 10.843L20.547 10.8855L20.5658 10.9272L20.5942 10.8956Z" fill="#00A651" stroke="black" stroke-width="0.519" stroke-miterlimit="4.8"/>
<path d="M20.5166 11.2354L20.5314 11.2503C20.5334 11.248 20.5799 11.1929 20.6579 11.2661L20.6709 11.2491C20.5776 11.1614 20.517 11.2346 20.5166 11.2354ZM20.4939 10.9512L20.4909 10.9713L20.5271 10.9541C20.5213 10.9656 20.5022 11.0025 20.5022 11.0025L20.5562 10.9825L20.4893 11.08L20.5052 11.0937L20.6118 10.9385L20.5456 10.9631L20.574 10.9075L20.5167 10.9349C20.5205 10.9091 20.5286 10.8553 20.5286 10.8553L20.5087 10.8516L20.4939 10.9512Z" fill="black"/>
<path d="M20.3945 10.9574C20.3945 10.9574 20.4077 10.9898 20.4176 11.0139C20.4133 11.012 20.3808 10.9975 20.3808 10.9975L20.4892 11.2106C20.4892 11.2106 20.5023 11.192 20.5031 11.1909C20.4922 11.222 20.4813 11.2534 20.4813 11.2534L20.5 11.2615L20.5467 11.1279L20.5295 11.117L20.4918 11.1706C20.4817 11.1505 20.4442 11.0768 20.4264 11.0419C20.4287 11.0428 20.4565 11.0553 20.4565 11.0553L20.4265 10.9818L20.4671 11.01V10.9306H20.4471V10.9699L20.3807 10.9238L20.3945 10.9574ZM20.3262 11.225L20.3342 11.2455C20.3635 11.2315 20.3877 11.2292 20.4061 11.2389C20.4276 11.2504 20.4341 11.275 20.4342 11.2752L20.4535 11.2694C20.4532 11.268 20.4447 11.2348 20.415 11.219C20.3913 11.2062 20.3614 11.2083 20.3262 11.225ZM20.4104 11.4508L20.3939 11.334L20.4137 11.3306L20.4302 11.4473L20.4104 11.4508ZM20.5547 11.4316L20.5279 11.3424L20.547 11.3353L20.5737 11.4245L20.5547 11.4316ZM20.6076 11.4975L20.5875 11.4084L20.607 11.403L20.6271 11.4921L20.6076 11.4975Z" fill="black"/>
<path d="M16.5965 14.1772C16.5965 14.1772 16.5083 14.1328 16.4682 14.1653C16.4282 14.1981 16.4336 14.2454 16.3988 14.2425C16.3988 14.2425 16.5323 14.2751 16.5617 14.2365C16.5911 14.1981 16.5965 14.1861 16.5965 14.1861M16.6127 14.2182C16.6127 14.2182 16.5547 14.3043 16.5748 14.3548C16.5947 14.4053 16.6376 14.4096 16.6275 14.4466C16.6275 14.4466 16.6849 14.3088 16.6573 14.2686C16.6298 14.2286 16.6206 14.2203 16.6206 14.2203M16.5149 13.9797C16.5149 13.9797 16.4224 14.0116 16.4121 14.0654C16.4015 14.1193 16.434 14.1509 16.4063 14.1743C16.4063 14.1743 16.5255 14.1001 16.5244 14.0495C16.5233 13.999 16.5203 13.9863 16.5203 13.9863M16.5693 14.0152C16.5693 14.0152 16.6132 13.9191 16.5856 13.8734C16.558 13.8273 16.5149 13.8313 16.5192 13.793C16.5192 13.793 16.4839 13.9396 16.5174 13.974C16.5508 14.0081 16.5613 14.0147 16.5613 14.0147M16.4786 13.9803C16.4786 13.9803 16.4807 13.8729 16.4379 13.8448C16.3951 13.8167 16.3579 13.8409 16.3467 13.8042C16.3467 13.8042 16.3723 13.9535 16.4158 13.9684C16.4593 13.983 16.4713 13.9838 16.4713 13.9838M16.6366 14.1592C16.6366 14.1592 16.738 14.1205 16.7461 14.2423C16.7541 14.3639 16.7407 14.3224 16.7407 14.3224C16.7407 14.3224 16.6873 14.1918 16.6286 14.1711L16.6366 14.1592Z" fill="#00A651"/>
<path d="M16.5965 14.1772C16.5965 14.1772 16.5083 14.1328 16.4682 14.1653C16.4282 14.1981 16.4336 14.2454 16.3988 14.2425C16.3988 14.2425 16.5323 14.2751 16.5617 14.2365C16.5911 14.1981 16.5965 14.1861 16.5965 14.1861M16.6127 14.2182C16.6127 14.2182 16.5547 14.3043 16.5748 14.3548C16.5947 14.4053 16.6376 14.4096 16.6275 14.4466C16.6275 14.4466 16.6849 14.3088 16.6573 14.2686C16.6298 14.2286 16.6206 14.2203 16.6206 14.2203M16.5149 13.9797C16.5149 13.9797 16.4224 14.0116 16.4121 14.0654C16.4015 14.1193 16.434 14.1509 16.4063 14.1743C16.4063 14.1743 16.5255 14.1001 16.5244 14.0495C16.5233 13.999 16.5203 13.9863 16.5203 13.9863M16.5693 14.0152C16.5693 14.0152 16.6132 13.9191 16.5856 13.8734C16.558 13.8273 16.5149 13.8313 16.5192 13.793C16.5192 13.793 16.4839 13.9396 16.5174 13.974C16.5508 14.0081 16.5613 14.0147 16.5613 14.0147M16.4786 13.9803C16.4786 13.9803 16.4807 13.8729 16.4379 13.8448C16.3951 13.8167 16.3579 13.8409 16.3467 13.8042C16.3467 13.8042 16.3723 13.9535 16.4158 13.9684C16.4593 13.983 16.4713 13.9838 16.4713 13.9838M16.6366 14.1592C16.6366 14.1592 16.738 14.1205 16.7461 14.2423C16.7541 14.3639 16.7407 14.3224 16.7407 14.3224C16.7407 14.3224 16.6873 14.1918 16.6286 14.1711L16.6366 14.1592Z" stroke="black" stroke-width="0.519" stroke-miterlimit="4.8"/>
<path d="M16.6108 14.2193C16.6108 14.2219 16.6215 14.3139 16.6215 14.3139L16.6357 14.3118L16.625 14.2198C16.6254 14.2199 16.6597 14.0175 16.6597 14.0175L16.6455 14.0146L16.6108 14.2192V14.2193Z" fill="black"/>
<path d="M16.5183 14.19L16.5136 14.205C16.562 14.224 16.6298 14.1647 16.6326 14.1622L16.6236 14.1498C16.623 14.1503 16.5593 14.2062 16.5183 14.19ZM16.6454 14.0712L16.4185 13.9437L16.4275 13.9238L16.6544 14.0514L16.6454 14.0712Z" fill="black"/>
<path d="M16.4809 14.0422L16.4668 14.0265L16.5122 13.976L16.5263 13.9918L16.4809 14.0422ZM16.5604 14.0177L16.5123 13.9019L16.5305 13.8926L16.5785 14.0084L16.5604 14.0177ZM16.6276 14.1594L16.6288 14.1816C16.6906 14.177 16.7056 14.2214 16.7057 14.2219L16.7254 14.2173C16.7231 14.2047 16.6984 14.1541 16.6276 14.1594Z" fill="black"/>
<path d="M17.6689 14.2106C17.7446 14.1635 17.7598 13.9984 17.7598 13.9984C17.7417 14.0592 17.6024 14.1197 17.6024 14.1197C17.7053 14.0488 17.8294 13.7295 17.8294 13.7295C17.7961 13.8439 17.5268 13.938 17.3542 14.0456C17.1815 14.1532 17.2724 14.4627 17.2724 14.4627C17.224 14.4257 17.1301 14.261 17.1121 14.1162C17.0938 13.9716 17.0423 13.9145 16.9243 13.8977C16.8062 13.8808 16.7366 14.0287 16.7366 14.0287L16.561 14.1298L16.7395 14.1365C16.7395 14.1365 16.8668 14.1836 16.8668 14.2946C16.8668 14.4057 16.7548 14.8496 16.9394 15.0986C17.0678 15.2716 17.5419 15.371 17.5419 15.371" fill="white"/>
<path d="M17.6689 14.2106C17.7446 14.1635 17.7598 13.9984 17.7598 13.9984C17.7417 14.0592 17.6024 14.1197 17.6024 14.1197C17.7053 14.0488 17.8294 13.7295 17.8294 13.7295C17.7961 13.8439 17.5268 13.938 17.3542 14.0456C17.1815 14.1532 17.2724 14.4627 17.2724 14.4627C17.224 14.4257 17.1301 14.261 17.1121 14.1162C17.0938 13.9716 17.0423 13.9145 16.9243 13.8977C16.8062 13.8808 16.7366 14.0287 16.7366 14.0287L16.561 14.1298L16.7395 14.1365C16.7395 14.1365 16.8668 14.1836 16.8668 14.2946C16.8668 14.4057 16.7548 14.8496 16.9394 15.0986C17.0678 15.2716 17.5419 15.371 17.5419 15.371" stroke="black" stroke-width="0.665" stroke-miterlimit="4.8"/>
<path d="M17.3208 14.5534C17.3208 14.5534 17.3571 14.3549 17.4752 14.3616C17.5932 14.3684 17.6265 14.2137 17.6961 14.1901C17.7657 14.1666 18.126 14.059 18.1654 13.8672C18.1654 13.8672 18.1321 14.1834 17.8022 14.3415C17.8022 14.3415 18.0684 14.2439 18.0988 14.18C18.0988 14.18 17.9807 14.4626 17.6931 14.5063C17.6931 14.5063 17.9625 14.4828 18.0019 14.4021C18.0019 14.4021 17.8808 14.5803 17.6811 14.6039C17.6811 14.6039 17.8657 14.688 17.9142 14.6173C17.9142 14.6173 17.8142 14.7485 17.6901 14.7585L17.7234 14.7686C17.7234 14.7686 17.6054 14.9234 17.4752 14.8191C17.3451 14.7148 17.342 14.8461 17.342 14.8461" fill="white"/>
<path d="M17.3208 14.5534C17.3208 14.5534 17.3571 14.3549 17.4752 14.3616C17.5932 14.3684 17.6265 14.2137 17.6961 14.1901C17.7657 14.1666 18.126 14.059 18.1654 13.8672C18.1654 13.8672 18.1321 14.1834 17.8022 14.3415C17.8022 14.3415 18.0684 14.2439 18.0988 14.18C18.0988 14.18 17.9807 14.4626 17.6931 14.5063C17.6931 14.5063 17.9625 14.4828 18.0019 14.4021C18.0019 14.4021 17.8808 14.5803 17.6811 14.6039C17.6811 14.6039 17.8657 14.688 17.9142 14.6173C17.9142 14.6173 17.8142 14.7485 17.6901 14.7585L17.7234 14.7686C17.7234 14.7686 17.6054 14.9234 17.4752 14.8191C17.3451 14.7148 17.342 14.8461 17.342 14.8461" stroke="black" stroke-width="0.665" stroke-miterlimit="4.8"/>
<path d="M17.5898 14.8525C17.5898 14.8525 17.7418 15.1352 17.757 15.2865C17.757 15.2865 18.0476 15.6431 18.1566 15.6632C18.1566 15.6632 18.1051 15.6866 18.0112 15.5993C18.0112 15.5993 18.09 15.6901 18.1051 15.6935C18.1202 15.697 18.0415 15.6867 18.0294 15.6631C18.0294 15.6631 18.0628 15.7171 18.0839 15.7238C18.1051 15.7305 18.0627 15.7171 18.0627 15.7171C18.0627 15.7171 18.0233 15.7103 18.0052 15.6935C17.987 15.6767 17.9991 15.7371 17.9991 15.7371C17.9991 15.7371 17.9537 15.7237 17.9386 15.7069C17.9234 15.6901 17.9447 15.744 17.9447 15.744L17.9053 15.7338L17.8781 15.754C17.8781 15.754 17.8751 15.7742 17.8568 15.7573C17.8387 15.7407 17.8054 15.7573 17.8054 15.7573C17.8054 15.7573 17.7811 15.781 17.769 15.7641C17.757 15.7473 17.7111 15.8288 17.7111 15.8288L17.5205 15.3175" fill="white"/>
<path d="M17.5898 14.8525C17.5898 14.8525 17.7418 15.1352 17.757 15.2865C17.757 15.2865 18.0476 15.6431 18.1566 15.6632C18.1566 15.6632 18.1051 15.6866 18.0112 15.5993C18.0112 15.5993 18.09 15.6901 18.1051 15.6935C18.1202 15.697 18.0415 15.6867 18.0294 15.6631C18.0294 15.6631 18.0628 15.7171 18.0839 15.7238C18.1051 15.7305 18.0627 15.7171 18.0627 15.7171C18.0627 15.7171 18.0233 15.7103 18.0052 15.6935C17.987 15.6767 17.9991 15.7371 17.9991 15.7371C17.9991 15.7371 17.9537 15.7237 17.9386 15.7069C17.9234 15.6901 17.9447 15.744 17.9447 15.744L17.9053 15.7338L17.8781 15.754C17.8781 15.754 17.8751 15.7742 17.8568 15.7573C17.8387 15.7407 17.8054 15.7573 17.8054 15.7573C17.8054 15.7573 17.7811 15.781 17.769 15.7641C17.757 15.7473 17.7111 15.8288 17.7111 15.8288L17.5205 15.3175" stroke="black" stroke-width="0.665" stroke-miterlimit="4.8"/>
<path d="M17.7702 15.7803L17.5293 15.2708L17.5546 15.2561L17.7955 15.7656L17.7702 15.7803ZM17.9807 15.746L17.5685 15.2332L17.5899 15.212L18.0021 15.7247L17.9807 15.746ZM18.0747 15.7008L17.6044 15.2138L17.6239 15.1904L18.0942 15.6775L18.0747 15.7008Z" fill="black"/>
<path d="M16.896 14.0609C16.896 14.0609 16.8653 13.9998 16.8386 14.0227C16.8119 14.0456 16.7966 14.0498 16.792 14.0482C16.792 14.0482 16.8188 14.0498 16.834 14.0337C16.8493 14.0175 16.8753 14.0277 16.896 14.0609ZM16.73 14.0329C16.73 14.0329 16.7468 14.0716 16.7471 14.0723C16.7454 14.0724 16.728 14.1348 16.728 14.1348L16.7418 14.1395L16.7605 14.0715C16.7602 14.0656 16.743 14.0261 16.743 14.0261L16.73 14.0329Z" fill="black"/>
<path d="M16.8892 14.0518C16.8892 14.0518 16.8663 14.0815 16.8349 14.073L16.8037 14.0645C16.8037 14.0645 16.8303 14.0662 16.848 14.0671C16.8654 14.0679 16.8883 14.0577 16.8892 14.0518Z" fill="black"/>
<path d="M16.8814 14.0572C16.8814 14.0572 16.8531 14.0241 16.834 14.0334C16.834 14.0334 16.8676 14.0215 16.8867 14.0536L16.8814 14.0572Z" fill="black"/>
<path d="M16.8771 14.0519C16.8771 14.0519 16.845 14.0764 16.8098 14.0494L16.8076 14.0475L16.8122 14.0459C16.8122 14.0459 16.8565 14.0663 16.8771 14.0519Z" fill="black"/>
<path d="M16.8494 14.0564C16.8547 14.0564 16.8589 14.0516 16.8589 14.0458C16.8589 14.0399 16.8547 14.0352 16.8494 14.0352C16.8441 14.0352 16.8398 14.0399 16.8398 14.0458C16.8398 14.0516 16.8441 14.0564 16.8494 14.0564Z" fill="black"/>
<path d="M16.8755 14.9844C16.8755 14.9844 16.8506 15.0352 16.8636 15.0658C16.8768 15.0963 16.9357 15.1122 16.9435 15.1529C16.9514 15.1938 16.9711 15.1937 16.9986 15.188C17.0261 15.1821 17.0314 15.1807 17.0314 15.1807C17.0314 15.1807 16.916 15.1122 16.8859 15.0017L16.8755 14.9844Z" fill="black"/>
<path d="M20.6023 13.9502C20.6023 13.9502 20.8122 13.6427 20.9983 13.7235C21.1844 13.8043 21.3053 13.8432 21.3053 13.8432C21.3053 13.8432 21.3089 14.0503 21.2099 14.0503C21.1112 14.0503 21.0165 13.8434 20.9265 13.9049C20.8364 13.9663 20.7623 14.0503 20.7565 14.0794C20.7507 14.1084 20.5181 14.1149 20.6023 13.9502H20.6023Z" fill="#964B36" stroke="black" stroke-width="0.319" stroke-miterlimit="4.8"/>
<path d="M19.8057 15.4333C19.8057 15.4333 19.7477 15.501 19.7739 15.5173C19.8001 15.5334 19.8523 15.5139 19.8523 15.4914C19.8523 15.4686 19.8175 15.4269 19.8057 15.4333Z" fill="#964B36" stroke="black" stroke-width="0.519" stroke-miterlimit="4.8"/>
<path d="M19.7595 15.4976C19.7595 15.4976 19.652 15.4296 19.5676 15.5911C19.4832 15.7526 19.4135 16.0144 19.3641 16.0499C19.3147 16.0854 19.8438 15.7915 19.8496 15.6688C19.8496 15.6688 19.8845 15.5104 19.8293 15.5136C19.774 15.517 19.7711 15.5234 19.7595 15.4976H19.7595Z" fill="#964B36" stroke="black" stroke-width="0.519" stroke-miterlimit="4.8"/>
<path d="M19.7738 15.5173C19.7738 15.5173 19.6634 15.5461 19.6401 15.7205C19.6169 15.8951 19.4628 15.9855 19.4541 15.9919M21.3057 13.8438C21.3057 13.8438 21.1377 13.9087 21.1667 14.0379L21.3057 13.8438Z" fill="#964B36"/>
<path d="M19.7738 15.5173C19.7738 15.5173 19.6634 15.5461 19.6401 15.7205C19.6169 15.8951 19.4628 15.9855 19.4541 15.9919M21.3057 13.8438C21.3057 13.8438 21.1377 13.9087 21.1667 14.0379" stroke="black" stroke-width="0.319" stroke-miterlimit="4.8"/>
<path d="M20.0151 14.2216C20.0151 14.2216 20.0209 13.7791 20.3464 13.7985C20.408 13.8048 20.3786 13.8856 20.3786 13.8856C20.3786 13.8856 20.449 13.8308 20.4812 13.9179C20.4812 13.9179 20.5838 13.8663 20.5955 13.9794C20.5955 13.9794 20.7069 13.9633 20.6922 14.0633C20.6922 14.0633 20.7684 14.044 20.7656 14.1151C20.7656 14.1151 20.8535 14.0763 20.8446 14.1764C20.8446 14.1764 20.9414 14.1053 20.9268 14.2345C20.9268 14.2345 21.0265 14.1571 21.0615 14.2863C21.0967 14.4154 20.9619 14.69 20.83 14.761" fill="#FFF200"/>
<path d="M20.0151 14.2216C20.0151 14.2216 20.0209 13.7791 20.3464 13.7985C20.408 13.8048 20.3786 13.8856 20.3786 13.8856C20.3786 13.8856 20.449 13.8308 20.4812 13.9179C20.4812 13.9179 20.5838 13.8663 20.5955 13.9794C20.5955 13.9794 20.7069 13.9633 20.6922 14.0633C20.6922 14.0633 20.7684 14.044 20.7656 14.1151C20.7656 14.1151 20.8535 14.0763 20.8446 14.1764C20.8446 14.1764 20.9414 14.1053 20.9268 14.2345C20.9268 14.2345 21.0265 14.1571 21.0615 14.2863C21.0967 14.4154 20.9619 14.69 20.83 14.7611" stroke="black" stroke-width="0.319" stroke-miterlimit="4.8"/>
<path d="M20.9195 14.2488C20.9199 14.2522 20.9634 14.595 20.7884 14.7204L20.7946 14.7313C20.9759 14.6013 20.9313 14.2504 20.9309 14.2469L20.9195 14.2488ZM20.7088 14.6241L20.7169 14.6333C20.8277 14.5135 20.8515 14.1907 20.8524 14.1771L20.841 14.176C20.8408 14.1793 20.8167 14.5077 20.7088 14.6241V14.6241ZM20.6054 14.5474L20.6168 14.5484C20.631 14.3491 20.7713 14.1211 20.7728 14.1188L20.7633 14.1116C20.7618 14.1139 20.6199 14.3447 20.6054 14.5474ZM20.5241 14.4892L20.5355 14.4905C20.5555 14.2501 20.6984 14.0695 20.6998 14.0678L20.6913 14.0593C20.6898 14.0611 20.5444 14.2445 20.5241 14.4893V14.4892ZM20.4107 14.4089L20.4221 14.4093C20.4334 14.1254 20.6011 13.9861 20.6027 13.9847L20.596 13.9744C20.5943 13.9758 20.4222 14.1185 20.4107 14.4089ZM20.3059 14.3382L20.3174 14.3378C20.3091 14.0795 20.4879 13.9247 20.4897 13.9231L20.4828 13.9131C20.4809 13.9147 20.2974 14.0732 20.3059 14.3382ZM20.1172 14.2438L20.1285 14.2453C20.1597 13.9656 20.3837 13.8928 20.386 13.8921L20.3829 13.8799C20.3806 13.8805 20.1492 13.9555 20.1172 14.2438Z" fill="black"/>
<path d="M19.8235 14.7578C19.8235 14.7578 19.7684 14.3475 19.9892 14.2184C19.9892 14.2184 20.0301 14.2087 20.0532 14.2668C20.0532 14.2668 20.1696 14.212 20.1725 14.3216C20.1725 14.3216 20.2306 14.27 20.2451 14.341C20.2451 14.341 20.3702 14.312 20.3469 14.4153C20.3469 14.4153 20.4515 14.383 20.4428 14.4831C20.4428 14.4831 20.5475 14.4411 20.53 14.5283C20.53 14.5283 20.6404 14.4994 20.6143 14.5995C20.6143 14.5995 20.751 14.5834 20.7103 14.6899C20.7103 14.6899 20.8121 14.6609 20.7887 14.7481C20.7887 14.7481 20.9225 14.774 20.8614 14.8677C20.8004 14.9612 20.6462 15.1034 20.4952 15.1648" fill="#00A651"/>
<path d="M19.8235 14.7578C19.8235 14.7578 19.7684 14.3475 19.9892 14.2184C19.9892 14.2184 20.0301 14.2087 20.0532 14.2668C20.0532 14.2668 20.1696 14.212 20.1725 14.3216C20.1725 14.3216 20.2306 14.27 20.2451 14.341C20.2451 14.341 20.3702 14.312 20.3469 14.4153C20.3469 14.4153 20.4515 14.383 20.4428 14.4831C20.4428 14.4831 20.5475 14.4411 20.53 14.5283C20.53 14.5283 20.6404 14.4994 20.6143 14.5995C20.6143 14.5995 20.751 14.5834 20.7103 14.6899C20.7103 14.6899 20.8121 14.6609 20.7887 14.7481C20.7887 14.7481 20.9225 14.774 20.8614 14.8677C20.8004 14.9612 20.6462 15.1034 20.4952 15.1648" stroke="black" stroke-width="0.319" stroke-miterlimit="4.8"/>
<path d="M19.7043 15.1711C19.7043 15.1711 19.6142 14.8288 19.7858 14.7415C19.7858 14.7415 19.8176 14.7317 19.8235 14.7674C19.8235 14.7674 19.8613 14.7124 19.8905 14.7609C19.8905 14.7609 19.9776 14.7157 19.9981 14.7867C19.9981 14.7867 20.0561 14.7317 20.0852 14.8124C20.0852 14.8124 20.1405 14.7867 20.1405 14.8512C20.1405 14.8512 20.216 14.8157 20.216 14.8932C20.216 14.8932 20.2886 14.861 20.2742 14.9481C20.2742 14.9481 20.3846 14.9675 20.3527 15.0256C20.3527 15.0256 20.4517 15.0546 20.4137 15.1C20.4137 15.1 20.5212 15.087 20.4631 15.1677C20.4631 15.1677 20.5445 15.1388 20.498 15.239C20.4515 15.339 20.3062 15.4488 20.2044 15.4617" fill="#00A651"/>
<path d="M19.7043 15.1711C19.7043 15.1711 19.6142 14.8288 19.7858 14.7415C19.7858 14.7415 19.8176 14.7317 19.8235 14.7674C19.8235 14.7674 19.8613 14.7124 19.8905 14.7609C19.8905 14.7609 19.9776 14.7157 19.9981 14.7867C19.9981 14.7867 20.0561 14.7317 20.0852 14.8124C20.0852 14.8124 20.1405 14.7867 20.1405 14.8512C20.1405 14.8512 20.216 14.8157 20.216 14.8932C20.216 14.8932 20.2886 14.861 20.2742 14.9481C20.2742 14.9481 20.3846 14.9675 20.3527 15.0256C20.3527 15.0256 20.4517 15.0546 20.4137 15.1C20.4137 15.1 20.5212 15.087 20.4631 15.1677C20.4631 15.1677 20.5445 15.1388 20.498 15.239C20.4515 15.339 20.3062 15.4488 20.2044 15.4617" stroke="black" stroke-width="0.319" stroke-miterlimit="4.8"/>
<path d="M19.8118 15.4419C19.8118 15.4419 19.6199 15.2352 19.7102 15.1738C19.7102 15.1738 19.7507 15.1867 19.7653 15.2319C19.7653 15.2319 19.8118 15.1577 19.838 15.2351C19.838 15.2351 19.9079 15.2093 19.9079 15.2611L19.963 15.3064C19.963 15.3064 20.027 15.2998 20.0155 15.3451C20.0155 15.3451 20.0852 15.3353 20.0822 15.3774C20.0822 15.3774 20.1434 15.3805 20.1376 15.4257C20.1376 15.4257 20.2421 15.4451 20.1956 15.5034C20.1956 15.5034 20.0125 15.5452 19.8846 15.4872C19.8846 15.4872 19.8176 15.4612 19.8118 15.4419Z" fill="#00A651" stroke="black" stroke-width="0.319" stroke-miterlimit="4.8"/>
<path d="M20.4693 15.1006L20.4734 15.1124C20.5871 15.0637 20.7845 14.7643 20.7929 14.7516L20.7837 14.744C20.7816 14.7472 20.5799 15.0532 20.4693 15.1005V15.1006ZM20.4048 15.046L20.4103 15.0571C20.5093 14.9957 20.7062 14.7059 20.7145 14.6936L20.7054 14.6859C20.7034 14.689 20.5016 14.986 20.4047 15.0459L20.4048 15.046ZM20.3487 15.0205L20.3561 15.0302C20.4605 14.9339 20.6126 14.6157 20.6191 14.6022L20.609 14.5962C20.6075 14.5994 20.4514 14.9258 20.3487 15.0205V15.0205ZM20.2973 14.9471L20.3087 14.9489C20.3285 14.788 20.5319 14.5348 20.5339 14.5323L20.5254 14.5238C20.517 14.5343 20.3176 14.7824 20.2973 14.9471V14.9471ZM19.8902 14.7515L19.9016 14.7504C19.8845 14.5232 20.0557 14.2729 20.0574 14.2704L20.0484 14.2627C20.0465 14.2652 19.8728 14.5193 19.8901 14.7515H19.8902ZM19.9979 14.7714L20.0092 14.7692C19.9809 14.5871 20.1745 14.328 20.1766 14.3255L20.1678 14.3172C20.1596 14.328 19.9687 14.5833 19.9979 14.7714H19.9979ZM20.1634 14.8385L20.1749 14.8381C20.1692 14.6302 20.3488 14.4217 20.3507 14.4196L20.3425 14.4107C20.3406 14.4128 20.1576 14.6252 20.1634 14.8385ZM19.7685 15.2152L19.7792 15.2108C19.714 15.0187 19.8272 14.7726 19.8284 14.7702L19.8181 14.7643C19.8169 14.7668 19.7014 15.0177 19.7685 15.2152ZM19.8438 15.2277L19.8547 15.2238C19.7978 15.0281 19.8942 14.7657 19.8953 14.7632L19.8846 14.7583C19.8837 14.7608 19.7857 15.0276 19.8438 15.2277ZM20.1554 15.4233L20.1594 15.4353C20.3449 15.3612 20.4661 15.1732 20.4674 15.1714L20.458 15.164C20.4569 15.1659 20.3377 15.3507 20.1554 15.4233V15.4233ZM20.1173 15.3784L20.122 15.3901C20.2699 15.3159 20.4079 15.109 20.4092 15.1069L20.4 15.0994C20.3986 15.1015 20.2625 15.3056 20.1173 15.3784ZM20.0814 15.3629L20.0881 15.3732C20.2038 15.2801 20.3525 15.0413 20.354 15.0389L20.3446 15.0318C20.3431 15.0342 20.1956 15.271 20.0814 15.3629L20.0814 15.3629ZM19.8959 15.2429L19.9073 15.2411C19.8817 15.0357 20.0013 14.7921 20.0026 14.7897L19.9926 14.7835C19.9913 14.786 19.8698 15.0334 19.8959 15.2429ZM19.9764 15.2986L19.9841 15.3081C20.1035 15.1883 20.1442 14.8656 20.1458 14.8519L20.1344 14.8502C20.1341 14.8535 20.0927 15.1821 19.9764 15.2987V15.2986Z" fill="black"/>
<path d="M20.0584 15.337L20.0651 15.3473C20.2336 15.2119 20.2793 14.9519 20.2797 14.9494L20.2685 14.947C20.268 14.9495 20.2232 15.2045 20.0584 15.337ZM20.0779 14.7766C20.0779 14.7887 20.0784 14.8008 20.0794 14.8131C20.0792 14.812 19.9517 15.2725 19.9517 15.2725L19.9625 15.2762L20.0907 14.8143C20.0709 14.591 20.2476 14.3473 20.2494 14.3449L20.2406 14.3369C20.2388 14.3391 20.0779 14.5611 20.0779 14.7766Z" fill="black"/>
<path d="M20.2113 14.8887C20.2097 14.8951 20.1707 15.2105 20.0177 15.3269L20.0241 15.3374C20.1816 15.2177 20.2198 14.9067 20.2214 14.8936C20.2893 14.8038 20.4459 14.4888 20.4475 14.4856L20.4374 14.4795C20.4358 14.4826 20.2799 14.7967 20.2113 14.8887ZM19.7593 15.2333C19.7604 15.2399 19.786 15.3966 19.8153 15.4519L19.8252 15.4455C19.7969 15.3921 19.7709 15.2327 19.7707 15.2311L19.7593 15.2333H19.7593ZM19.8318 15.2352C19.8331 15.3132 19.8334 15.4412 19.8295 15.4526L19.8402 15.4572C19.8461 15.4409 19.8438 15.2693 19.8434 15.2352L19.8318 15.2352Z" fill="black"/>
<path d="M19.8384 15.4587L19.8488 15.4638C19.8979 15.345 19.9131 15.263 19.9133 15.2623L19.902 15.2598C19.9018 15.2604 19.887 15.3413 19.8384 15.4587Z" fill="black"/>
<path d="M19.8496 15.463L19.8554 15.474C19.9466 15.4152 19.9678 15.3128 19.9685 15.3085L19.9573 15.3057C19.9571 15.3067 19.9364 15.4071 19.8496 15.463H19.8496Z" fill="black"/>
<path d="M19.8662 15.4719L19.8673 15.4846C19.9567 15.4746 20.0176 15.354 20.0201 15.3489L20.0101 15.3428C20.0095 15.344 19.9495 15.4627 19.8662 15.4719Z" fill="black"/>
<path d="M19.8755 15.4779L19.8762 15.4906C20.0196 15.4808 20.0842 15.3856 20.0868 15.3815L20.0775 15.374C20.0769 15.3749 20.0133 15.4686 19.8755 15.4779Z" fill="black"/>
<path d="M19.8857 15.4812L19.8833 15.4936C19.891 15.4955 20.0738 15.5386 20.1364 15.4327L20.1268 15.4258C20.0686 15.5243 19.8874 15.4815 19.8857 15.4812Z" fill="black"/>
<path d="M15.7832 8.05176V13.7333C15.7832 15.5916 18.805 16.695 18.805 16.695C18.805 16.695 21.8268 15.5915 21.8268 13.7333V8.05176H15.7832Z" stroke="black" stroke-width="2.792" stroke-miterlimit="4.8"/>
<path d="M0 0V10.0141H13.4264V0H0Z" fill="#002868"/>
<path d="M0 0V1.11967L5.21213 5.007L0 8.8945V10.0141H1.50112L6.71325 6.12675L11.9253 10.0141H13.4264V8.89446L8.2143 5.007L13.4264 1.11962V0H11.9254L6.71325 3.8875L1.50112 0H0Z" fill="white"/>
<path d="M0 0V0.746416L5.71243 5.00707L0 9.26767V10.0141H1.00069L6.71312 5.75344L12.4256 10.0141H13.4263V9.26757L7.71388 5.00702L13.4263 0.746416V0H12.4256L6.71312 4.26055L1.00069 0H0Z" fill="#CE1126"/>
<path d="M5.59433 0V3.33804H0V6.67608H5.59433V10.0141H7.83206V6.67608H13.4264V3.33804H7.83206V0H5.59433Z" fill="white"/>
<path d="M6.04185 0V4.00562H0V6.0085H6.04185V10.0141H7.3845V6.0085H13.4264V4.00562H7.3845V0H6.04185Z" fill="#CE1126"/>
</g>
<defs>
<clipPath id="clip0_275_23265">
<rect width="24" height="20" rx="4" fill="white"/>
</clipPath>
</defs>
</svg>
