<svg width="24" height="20" viewBox="0 0 24 20" fill="none" xmlns="http://www.w3.org/2000/svg">
<g clip-path="url(#clip0_275_23311)">
<path d="M0 0H24V20H0V0Z" fill="white"/>
<path d="M10.2002 0H13.8002V20H10.2002V0Z" fill="#FF0000"/>
<path d="M0 8H24V12H0V8Z" fill="#FF0000"/>
<g style="mix-blend-mode:multiply">
<path fill-rule="evenodd" clip-rule="evenodd" d="M5.5067 15.5481C5.54507 14.8471 5.65554 14.25 5.65554 14.25C5.65554 14.25 5.28654 14.292 5.0999 14.292C4.91608 14.292 4.54438 14.25 4.54438 14.25C4.54438 14.25 4.65485 14.8471 4.69321 15.5481C4.06228 15.5054 3.5249 15.3828 3.5249 15.3828C3.5249 15.3828 3.5627 15.6914 3.5627 16C3.5627 16.3088 3.5249 16.6173 3.5249 16.6173C3.5249 16.6173 4.06231 16.4946 4.69321 16.4519C4.65485 17.1529 4.54434 17.75 4.54434 17.75C4.54434 17.75 4.82221 17.708 5.0999 17.708C5.37778 17.708 5.65554 17.75 5.65554 17.75C5.65554 17.75 5.54506 17.1529 5.50666 16.4519C6.13749 16.4946 6.6749 16.6173 6.6749 16.6173C6.6749 16.6173 6.63721 16.2073 6.63721 16C6.63721 15.7958 6.6749 15.3828 6.6749 15.3828C6.6749 15.3828 6.13749 15.5054 5.5067 15.5481ZM19.3066 3.54813C19.3451 2.84712 19.4555 2.25 19.4555 2.25C19.4555 2.25 19.0865 2.292 18.8999 2.292C18.7161 2.292 18.3444 2.25 18.3444 2.25C18.3444 2.25 18.4547 2.84712 18.4933 3.54813C17.8623 3.50538 17.3249 3.38275 17.3249 3.38275C17.3249 3.38275 17.3627 3.69138 17.3627 4C17.3627 4.30875 17.3249 4.61725 17.3249 4.61725C17.3249 4.61725 17.8623 4.49463 18.4932 4.45188C18.4548 5.15288 18.3444 5.75 18.3444 5.75C18.3444 5.75 18.6221 5.708 18.8999 5.708C19.1778 5.708 19.4554 5.75 19.4554 5.75C19.4554 5.75 19.3451 5.15288 19.3066 4.45188C19.9375 4.49463 20.4749 4.61725 20.4749 4.61725C20.4749 4.61725 20.4371 4.20725 20.4371 4C20.4371 3.79575 20.4749 3.38275 20.4749 3.38275C20.4749 3.38275 19.9375 3.50538 19.3066 3.54813ZM5.5067 3.54813C5.54503 2.84712 5.65554 2.25 5.65554 2.25C5.65554 2.25 5.28654 2.292 5.0999 2.292C4.91608 2.292 4.54438 2.25 4.54438 2.25C4.54438 2.25 4.65485 2.84712 4.69321 3.54813C4.06228 3.50538 3.5249 3.38275 3.5249 3.38275C3.5249 3.38275 3.5627 3.69138 3.5627 4C3.5627 4.30875 3.5249 4.61725 3.5249 4.61725C3.5249 4.61725 4.06231 4.49463 4.69321 4.45188C4.65485 5.15288 4.54434 5.75 4.54434 5.75C4.54434 5.75 4.82221 5.708 5.0999 5.708C5.37778 5.708 5.65554 5.75 5.65554 5.75C5.65554 5.75 5.54506 5.15288 5.50666 4.45188C6.13749 4.49463 6.6749 4.61725 6.6749 4.61725C6.6749 4.61725 6.63721 4.20725 6.63721 4C6.63721 3.79575 6.6749 3.38275 6.6749 3.38275C6.6749 3.38275 6.13749 3.50538 5.5067 3.54813ZM19.3066 15.5481C19.3451 14.8471 19.4555 14.25 19.4555 14.25C19.4555 14.25 19.0865 14.292 18.8999 14.292C18.7161 14.292 18.3444 14.25 18.3444 14.25C18.3444 14.25 18.4547 14.8471 18.4933 15.5481C17.8623 15.5054 17.3249 15.3828 17.3249 15.3828C17.3249 15.3828 17.3627 15.6914 17.3627 16C17.3627 16.3088 17.3249 16.6173 17.3249 16.6173C17.3249 16.6173 17.8623 16.4946 18.4932 16.4519C18.4548 17.1529 18.3444 17.75 18.3444 17.75C18.3444 17.75 18.6221 17.708 18.8999 17.708C19.1778 17.708 19.4554 17.75 19.4554 17.75C19.4554 17.75 19.3451 17.1529 19.3066 16.4519C19.9375 16.4946 20.4749 16.6173 20.4749 16.6173C20.4749 16.6173 20.4371 16.2073 20.4371 16C20.4371 15.7958 20.4749 15.3828 20.4749 15.3828C20.4749 15.3828 19.9375 15.5054 19.3066 15.5481Z" fill="#FF0000"/>
</g>
</g>
<defs>
<clipPath id="clip0_275_23311">
<rect width="24" height="20" rx="4" fill="white"/>
</clipPath>
</defs>
</svg>
