<svg width="24" height="20" viewBox="0 0 24 20" fill="none" xmlns="http://www.w3.org/2000/svg">
<g clip-path="url(#clip0_275_23295)">
<path d="M0 0H24V6.66667H0V0Z" fill="#FF9933"/>
<path d="M0 6.66699H24V13.3337H0V6.66699Z" fill="white"/>
<path d="M0 13.333H24V19.9997H0V13.333Z" fill="#128807"/>
<path d="M12.0001 12.6663C13.3256 12.6663 14.4001 11.4724 14.4001 9.99967C14.4001 8.52692 13.3256 7.33301 12.0001 7.33301C10.6746 7.33301 9.6001 8.52692 9.6001 9.99967C9.6001 11.4724 10.6746 12.6663 12.0001 12.6663Z" fill="#000088"/>
<path d="M11.9999 12.3327C13.1597 12.3327 14.0999 11.288 14.0999 9.99935C14.0999 8.71068 13.1597 7.66602 11.9999 7.66602C10.8401 7.66602 9.8999 8.71068 9.8999 9.99935C9.8999 11.288 10.8401 12.3327 11.9999 12.3327Z" fill="white"/>
<path d="M12.0001 10.4665C12.232 10.4665 12.4201 10.2576 12.4201 9.99987C12.4201 9.74214 12.232 9.5332 12.0001 9.5332C11.7681 9.5332 11.5801 9.74214 11.5801 9.99987C11.5801 10.2576 11.7681 10.4665 12.0001 10.4665Z" fill="#000088"/>
<path d="M14.0684 10.4214C14.1259 10.4298 14.1786 10.3848 14.1862 10.3209C14.1938 10.257 14.1533 10.1984 14.0958 10.19C14.0383 10.1816 13.9856 10.2266 13.978 10.2905C13.9704 10.3544 14.0109 10.413 14.0684 10.4214Z" fill="#000088"/>
<path d="M12.0002 12.3342L12.0722 10.9342L12.0002 10.2676L11.9282 10.9342L12.0002 12.3342Z" fill="#000088"/>
<path d="M13.8825 10.9749C13.9263 11.0142 13.9877 11.0097 14.0197 10.9648C14.0517 10.92 14.0421 10.8517 13.9983 10.8124C13.9545 10.7731 13.893 10.7776 13.8611 10.8224C13.8291 10.8673 13.8387 10.9356 13.8825 10.9749Z" fill="#000088"/>
<path d="M11.442 12.2362L11.8428 10.9495L11.9521 10.2781L11.7324 10.8699L11.442 12.2362Z" fill="#000088"/>
<path d="M13.6001 11.5073C13.6449 11.5502 13.7108 11.5465 13.7473 11.499C13.7837 11.4516 13.7769 11.3783 13.7321 11.3354C13.6872 11.2926 13.6213 11.2963 13.5849 11.3438C13.5484 11.3912 13.5552 11.4645 13.6001 11.5073Z" fill="#000088"/>
<path d="M10.9518 12.0179L11.6435 10.8532L11.8781 10.2347L11.5151 10.7666L10.9518 12.0179Z" fill="#000088"/>
<path d="M13.1908 11.9154C13.2239 11.9708 13.2898 11.9873 13.338 11.9523C13.3863 11.9173 13.3986 11.844 13.3655 11.7887C13.3325 11.7333 13.2666 11.7169 13.2183 11.7519C13.1701 11.7869 13.1577 11.8601 13.1908 11.9154Z" fill="#000088"/>
<path d="M10.5101 11.6402L11.4537 10.7316L11.8354 10.1999L11.362 10.5974L10.5101 11.6402Z" fill="#000088"/>
<path d="M12.7059 12.2042C12.7275 12.2614 12.7889 12.2859 12.843 12.2589C12.8972 12.232 12.9236 12.1637 12.9019 12.1065C12.8803 12.0493 12.8189 12.0248 12.7648 12.0518C12.7106 12.0788 12.6842 12.147 12.7059 12.2042Z" fill="#000088"/>
<path d="M10.1794 11.1707L11.3072 10.5292L11.7939 10.1282L11.2389 10.3998L10.1794 11.1707Z" fill="#000088"/>
<path d="M12.1671 12.3308C12.1731 12.3935 12.2258 12.4367 12.2849 12.4272C12.3439 12.4176 12.387 12.359 12.381 12.2963C12.375 12.2335 12.3222 12.1903 12.2632 12.1999C12.2041 12.2094 12.1611 12.268 12.1671 12.3308Z" fill="#000088"/>
<path d="M9.96571 10.5876L11.2034 10.342L11.7737 10.0863L11.1775 10.1539L9.96571 10.5876Z" fill="#000088"/>
<path d="M11.6082 12.3209C11.6086 12.3891 11.6613 12.4411 11.726 12.437C11.7907 12.4329 11.8428 12.3743 11.8425 12.3061C11.8421 12.2379 11.7894 12.1859 11.7247 12.19C11.66 12.1941 11.6078 12.2527 11.6082 12.3209Z" fill="#000088"/>
<path d="M9.90574 9.9242L11.1517 10.0311L11.7538 10.0756L11.1636 10.0225L9.90574 9.9242Z" fill="#000088"/>
<path d="M11.0743 12.1393C11.0659 12.214 11.1138 12.2823 11.1812 12.2917C11.2486 12.3011 11.31 12.2482 11.3183 12.1734C11.3267 12.0987 11.2789 12.0304 11.2115 12.021C11.1441 12.0116 11.0826 12.0645 11.0743 12.1393Z" fill="#000088"/>
<path d="M9.95768 9.75799L11.1983 9.88151L11.7818 9.57012L11.1884 9.37994L9.95768 9.75799Z" fill="#000088"/>
<path d="M10.6399 11.7728C10.6036 11.82 10.6107 11.8932 10.6558 11.9364C10.7008 11.9796 10.7667 11.9763 10.803 11.9292C10.8392 11.882 10.8321 11.8088 10.7871 11.7656C10.7421 11.7224 10.6762 11.7256 10.6399 11.7728Z" fill="#000088"/>
<path d="M10.1794 8.82842L11.2391 9.59937L11.7941 9.8712L11.3073 9.47026L10.1794 8.82842Z" fill="#000088"/>
<path d="M10.2747 11.3176C10.226 11.3514 10.2129 11.4247 10.2455 11.4812C10.2781 11.5377 10.344 11.556 10.3927 11.5222C10.4415 11.4884 10.4545 11.4151 10.422 11.3586C10.3894 11.3021 10.3235 11.2837 10.2747 11.3176Z" fill="#000088"/>
<path d="M10.5176 8.3414L11.3509 9.39102L11.8271 9.82027L11.4584 9.29541L10.5176 8.3414Z" fill="#000088"/>
<path d="M10.0304 10.771C9.97075 10.7884 9.93547 10.8567 9.95158 10.9235C9.9677 10.9903 10.0291 11.0303 10.0888 11.0129C10.1484 10.9955 10.1837 10.9273 10.1676 10.8605C10.1515 10.7937 10.0901 10.7536 10.0304 10.771Z" fill="#000088"/>
<path d="M10.9656 7.96743L11.4966 9.22363L11.8645 9.77842L11.6524 9.16483L10.9656 7.96743Z" fill="#000088"/>
<path d="M9.91966 10.1743C9.85557 10.1735 9.80282 10.2307 9.80186 10.3021C9.80089 10.3736 9.85207 10.4322 9.91617 10.433C9.98027 10.4339 10.033 10.3767 10.034 10.3052C10.0349 10.2338 9.98376 10.1752 9.91966 10.1743Z" fill="#000088"/>
<path d="M11.5193 7.73321L11.6277 9.11039L11.8748 9.75305L11.8926 9.09258L11.5193 7.73321Z" fill="#000088"/>
<path d="M9.93649 9.58641C9.88152 9.57424 9.82877 9.61312 9.81869 9.67324C9.8086 9.73336 9.84499 9.79197 9.89997 9.80414C9.95494 9.81631 10.0077 9.77743 10.0178 9.71731C10.0279 9.65719 9.99147 9.59859 9.93649 9.58641Z" fill="#000088"/>
<path d="M12.0657 7.69109L11.9704 9.03372L11.9342 9.70904L11.9829 9.08245L12.0657 7.69109Z" fill="#000088"/>
<path d="M10.1049 9.00771C10.054 8.97801 9.99263 8.99809 9.96774 9.05257C9.94285 9.10704 9.96392 9.17529 10.0148 9.205C10.0657 9.23471 10.1271 9.21463 10.152 9.16015C10.1769 9.10567 10.1558 9.03742 10.1049 9.00771Z" fill="#000088"/>
<path d="M12.5454 7.74739L12.1491 9.07511L12.0606 9.74034L12.2848 9.11981L12.5454 7.74739Z" fill="#000088"/>
<path d="M10.403 8.49694C10.3599 8.45224 10.2939 8.453 10.2558 8.49865C10.2176 8.54429 10.2216 8.61753 10.2647 8.66223C10.3078 8.70693 10.3737 8.70616 10.4119 8.66052C10.4501 8.61488 10.4461 8.54164 10.403 8.49694Z" fill="#000088"/>
<path d="M13.0561 7.98853L12.3616 9.13807L12.1138 9.75887L12.4739 9.23751L13.0561 7.98853Z" fill="#000088"/>
<path d="M10.8136 8.08978C10.7829 8.03156 10.717 8.0104 10.6663 8.04253C10.6157 8.07465 10.5994 8.14789 10.6301 8.20611C10.6607 8.26433 10.7266 8.28548 10.7773 8.25336C10.828 8.22123 10.8442 8.148 10.8136 8.08978Z" fill="#000088"/>
<path d="M13.4977 8.37049L12.5514 9.25389L12.1574 9.78939L12.6281 9.40948L13.4977 8.37049Z" fill="#000088"/>
<path d="M11.2942 7.79479C11.2726 7.73759 11.2111 7.71311 11.157 7.7401C11.1028 7.76709 11.0765 7.83534 11.0981 7.89253C11.1197 7.94973 11.1811 7.97421 11.2353 7.94722C11.2894 7.92023 11.3158 7.85198 11.2942 7.79479Z" fill="#000088"/>
<path d="M13.8202 8.82832L12.6923 9.4699L12.2056 9.87088L12.7606 9.59924L13.8202 8.82832Z" fill="#000088"/>
<path d="M11.8325 7.66849C11.8266 7.6056 11.7738 7.56223 11.7147 7.57163C11.6555 7.58103 11.6123 7.63964 11.6182 7.70253C11.6241 7.76542 11.6769 7.80879 11.736 7.79939C11.7952 7.78999 11.8384 7.73138 11.8325 7.66849Z" fill="#000088"/>
<path d="M14.0336 9.41286L12.7959 9.6574L12.2254 9.91333L12.8216 9.84637L14.0336 9.41286Z" fill="#000088"/>
<path d="M12.3904 7.68183C12.3909 7.61157 12.3391 7.55626 12.2746 7.55829C12.21 7.56032 12.1573 7.61893 12.1567 7.68919C12.1562 7.75945 12.2081 7.81476 12.2726 7.81273C12.3371 7.8107 12.3898 7.75209 12.3904 7.68183Z" fill="#000088"/>
<path d="M14.091 10.0755L12.8517 9.96858L12.2485 9.92366L12.8341 9.97672L14.091 10.0755Z" fill="#000088"/>
<path d="M12.9255 7.86321C12.9337 7.79018 12.8856 7.72193 12.8181 7.71078C12.7506 7.69963 12.6892 7.7498 12.6809 7.82284C12.6727 7.89587 12.7208 7.96412 12.7883 7.97527C12.8558 7.98642 12.9173 7.93625 12.9255 7.86321Z" fill="#000088"/>
<path d="M14.0394 10.2957L12.7997 10.0458L12.2202 10.3762L12.8144 10.6547L14.0394 10.2957Z" fill="#000088"/>
<path d="M13.3678 8.20973C13.3996 8.15341 13.3851 8.08017 13.3355 8.04615C13.286 8.01212 13.2201 8.03019 13.1883 8.08651C13.1566 8.14282 13.171 8.21606 13.2206 8.25009C13.2702 8.28411 13.3361 8.26604 13.3678 8.20973Z" fill="#000088"/>
<path d="M13.8277 11.1445L12.7512 10.3828L12.1988 10.1536L12.6973 10.5638L13.8277 11.1445Z" fill="#000088"/>
<path d="M13.7356 8.66266C13.7783 8.61871 13.7817 8.54547 13.7432 8.49908C13.7046 8.45268 13.6387 8.4507 13.596 8.49464C13.5532 8.53859 13.5498 8.61183 13.5884 8.65822C13.6269 8.70462 13.6928 8.7066 13.7356 8.66266Z" fill="#000088"/>
<path d="M13.4935 11.6356L12.6329 10.5938L12.1608 10.2007L12.5486 10.7334L13.4935 11.6356Z" fill="#000088"/>
<path d="M13.9855 9.20741C14.0361 9.17868 14.0567 9.11043 14.0315 9.05498C14.0064 8.99952 13.9449 8.97785 13.8943 9.00658C13.8437 9.03531 13.8231 9.10355 13.8483 9.15901C13.8735 9.21447 13.9349 9.23614 13.9855 9.20741Z" fill="#000088"/>
<path d="M13.0587 12.012L12.4693 10.7627L12.1102 10.2395L12.3631 10.8599L13.0587 12.012Z" fill="#000088"/>
<path d="M14.1006 9.8037C14.1552 9.79128 14.191 9.73268 14.1805 9.6728C14.1701 9.61293 14.1174 9.57447 14.0627 9.58689C14.0081 9.59931 13.9723 9.65791 13.9828 9.71778C13.9933 9.77765 14.046 9.81612 14.1006 9.8037Z" fill="#000088"/>
<path d="M12.5543 12.2479L12.2714 10.8771L12.0506 10.2641L12.1547 10.931L12.5543 12.2479Z" fill="#000088"/>
</g>
<defs>
<clipPath id="clip0_275_23295">
<rect width="24" height="20" rx="4" fill="white"/>
</clipPath>
</defs>
</svg>
