<svg width="24" height="20" viewBox="0 0 24 20" fill="none" xmlns="http://www.w3.org/2000/svg">
<g clip-path="url(#clip0_275_23166)">
<path fill-rule="evenodd" clip-rule="evenodd" d="M-1.5 14.9997H25.4991V19.9997H-1.5V14.9997ZM-1.5 0H25.4991V5.00004H-1.5V0Z" fill="#FF0000"/>
<path fill-rule="evenodd" clip-rule="evenodd" d="M-1.5 5H25.4991V14.9997H-1.5V5Z" fill="white"/>
<path d="M11.8629 5.07617C11.5884 5.68527 11.4053 5.68527 10.9477 6.09141C10.7647 6.29445 10.4901 6.39598 10.8562 6.59906C10.4901 6.80207 10.307 6.90363 10.124 7.30969L10.2155 7.41121C10.2155 7.41121 10.5634 7.22176 10.5816 7.30969C10.6424 7.39086 10.1237 7.70231 10.0568 7.74965C9.98982 7.79699 9.66631 8.02035 9.66631 8.02035C9.20871 8.42648 8.93411 8.32488 8.65954 8.93402L9.5748 8.83258C9.75786 9.5432 9.11717 9.64469 8.65954 9.9493L7.92734 10.457C8.11043 11.1676 8.65954 10.7615 9.11717 10.5584L9.20871 10.66V10.863L8.29346 11.3707C8.29346 11.3707 7.213 12.0575 7.19518 12.0813C7.18779 12.1181 7.19518 12.2843 7.19518 12.2843C7.56126 12.3859 8.11043 12.4874 8.47655 12.2843C8.93414 12.0813 9.02566 11.8782 9.57483 11.8782C8.93414 12.3858 8.47655 12.5889 7.74432 12.6904V13.0965C8.29346 13.0965 8.65954 13.0965 9.1172 12.995L10.307 12.5889C10.5816 12.5889 10.8562 12.8935 10.7647 13.198C10.4901 14.3147 9.39174 14.1117 9.02562 15.0254L10.4901 14.4163C10.8562 14.2132 11.2223 14.0102 11.6799 14.1118C12.229 14.3147 12.229 14.7209 12.9613 14.9239L12.7782 14.4163C12.9613 14.5178 13.1443 14.5178 13.3273 14.6193C13.785 14.8225 13.8765 15.0254 14.4256 14.9239C13.968 14.3148 13.8765 14.4163 13.5104 14.0102C13.1443 13.4011 12.9613 12.4874 13.5104 12.3859L14.1511 12.5889C14.7917 12.6904 14.7917 12.4874 15.707 12.8935C16.2562 13.0965 16.4392 13.4011 17.0799 13.198C16.8053 12.4874 15.7985 11.9798 15.1579 11.7767C15.8901 11.2691 15.707 11.9798 16.7138 11.6752V11.4722C15.9816 10.863 15.707 10.3554 14.7002 10.3554L16.2562 10.1523V9.9493C16.2562 9.9493 14.7217 9.50199 14.686 9.48609C14.6967 9.43453 14.7342 9.35461 14.8361 9.31043C15.1275 9.52004 16.0088 9.49559 16.0588 9.49168C16.0331 9.24184 15.6155 9.03559 15.2494 8.83258C15.2494 8.83258 13.6818 7.75902 13.6741 7.66398C13.7051 7.39191 14.3179 7.70723 14.9748 7.91883C14.7918 7.51273 14.4257 7.30973 14.0596 7.2082L14.6088 7.10672C14.2427 6.19301 13.3274 6.29453 12.7783 5.88844C12.4121 5.58387 12.4121 5.38078 11.863 5.07625L11.8629 5.07617Z" fill="#007900"/>
<path fill-rule="evenodd" clip-rule="evenodd" d="M10.8738 11.8385C10.9418 11.5965 11.0312 11.3825 10.6236 11.1762C10.2161 10.9701 10.8274 12.001 10.8738 11.8385ZM11.3565 11.3545C11.2744 11.3664 11.2314 11.6996 11.3958 11.7908C11.5782 11.8224 11.428 11.3585 11.3565 11.3545ZM11.8322 11.319C11.7463 11.3468 11.7428 11.8147 12.0431 11.7315C12.3435 11.6483 12.0395 11.2794 11.8322 11.319ZM12.3863 10.1174C12.4506 10.0024 12.3827 9.53049 12.1252 9.72873C11.8678 9.92705 12.304 10.1491 12.3863 10.1174ZM11.8248 9.72483C11.9035 9.69311 11.9107 9.40362 11.6854 9.47897C11.4603 9.55436 11.7641 9.78432 11.8248 9.72483ZM11.3175 9.83967C11.3175 9.83967 11.1602 9.59776 11.0386 9.64928C10.8849 9.8119 11.3282 9.84362 11.3175 9.83967ZM9.57411 10.6127C9.64108 10.6195 10.1376 10.5217 10.3092 10.3076C10.4807 10.0935 9.42578 10.3993 9.42578 10.4032C9.42578 10.4072 9.52545 10.5924 9.57414 10.6127H9.57411ZM14.535 9.24709C14.5606 9.19651 14.2707 8.96694 14.0985 9.0574C14.0542 9.2269 14.5336 9.28194 14.535 9.24709ZM13.5591 8.70139C13.6127 8.61416 13.434 8.25725 13.0765 8.45553C12.7189 8.65381 13.4518 8.84022 13.5591 8.70139ZM12.4291 8.49123C12.4291 8.49123 12.5185 8.17002 12.733 8.23342C12.9762 8.43971 12.4398 8.50315 12.4291 8.49123ZM12.2182 8.24944C12.186 8.15823 11.9608 8.21377 11.7034 8.40014C11.4459 8.58655 12.2968 8.45569 12.2182 8.24944ZM12.876 7.38498C12.876 7.38498 13.1053 7.27092 13.1727 7.38498C13.2693 7.55553 12.8724 7.38897 12.876 7.38498ZM12.6837 7.27326C12.6372 7.17014 12.3834 7.16037 12.3899 7.3094C12.3474 7.42615 12.7197 7.4044 12.6837 7.27326ZM12.079 7.27366C12.054 7.21416 11.693 7.27479 11.5857 7.51557C11.7579 7.60862 12.1577 7.42436 12.079 7.27366ZM11.3066 7.51975C11.3066 7.51975 10.8316 7.8424 10.8025 8.07893C10.8169 8.28319 11.3924 7.7101 11.3924 7.7101C11.3924 7.7101 11.4424 7.48405 11.3066 7.51975ZM10.781 7.22639C10.7943 7.16076 11.0157 7.00873 11.0348 7.02014C11.0528 7.08631 10.854 7.26545 10.781 7.22639ZM10.9311 8.45959C10.9418 8.3644 10.3662 8.37229 10.5844 8.66576C10.766 8.9119 10.9705 8.50323 10.9311 8.45959ZM10.4073 8.88069C10.3773 8.81635 10.3341 8.64483 10.2553 8.62905C10.1911 8.62502 9.84495 8.70436 9.81848 8.76944C9.8042 8.821 9.96174 9.13799 10.0154 9.14592C10.0762 9.17366 10.3966 8.91241 10.4073 8.88069ZM13.5127 11.0334C13.5305 10.966 14.1187 10.7402 14.3218 10.9562C14.5613 11.3211 13.4984 11.1485 13.5127 11.0334ZM15.1291 11.4604C15.258 11.218 14.7334 10.9307 14.5107 11.2076C14.5868 11.5403 15.0249 11.6608 15.1291 11.4604Z" fill="white" stroke="white" stroke-width="3.01781" stroke-linecap="round" stroke-linejoin="round"/>
</g>
<defs>
<clipPath id="clip0_275_23166">
<rect width="24" height="20" rx="4" fill="white"/>
</clipPath>
</defs>
</svg>
