<svg width="24" height="20" viewBox="0 0 24 20" fill="none" xmlns="http://www.w3.org/2000/svg">
<g clip-path="url(#clip0_275_23301)">
<path d="M0 0H24V20H0V0Z" fill="white"/>
<path d="M0 14H24V20H0V14Z" fill="#009543"/>
<path d="M0 0H24V6H0V0Z" fill="#00209F"/>
<path d="M11.9858 6.37113C11.8832 6.37363 11.7831 6.4998 11.7831 6.4998L11.792 7.84876L11.4087 8.29488H11.7189L11.7163 9.06834L9.88087 11.8145L9.60955 11.7104L9.13525 12.8344C9.13525 12.8344 10.3083 13.6505 12.0108 13.6282C13.8794 13.6035 14.8947 12.7968 14.8947 12.7968L14.4046 11.6872L14.1646 11.8031L12.3056 9.07113L12.303 8.27463H12.6132L12.191 7.83396L12.1935 6.49001C12.1935 6.49001 12.0884 6.36867 11.9858 6.37113Z" fill="black" stroke="black" stroke-width="1.601"/>
<path d="M12.6258 9.60073H11.3566C11.3566 9.60073 10.8959 8.52228 10.9706 7.76832C11.0466 7.00061 11.4415 6.63748 11.9665 6.63098C12.5872 6.62332 12.9125 6.96898 13.0108 7.73761C13.1082 8.49919 12.6257 9.60065 12.6257 9.60065L12.6258 9.60073Z" stroke="black" stroke-width="8"/>
<path d="M9.76736 12.171C9.74662 12.2017 9.59448 12.5398 9.59448 12.5398L9.85728 12.4783L9.76739 12.171H9.76736ZM9.91953 12.609L9.64293 12.7089L9.97488 12.8549L9.91953 12.609ZM10.044 12.1787L10.1824 12.632L10.5212 12.5245L10.4313 12.3092L10.044 12.1786V12.1787ZM10.2584 12.7934L10.3068 12.9778L10.7564 13.1008L10.5765 12.6781L10.2584 12.7934ZM10.7563 12.4092L10.9154 12.8319L11.2543 12.6859L11.1436 12.5014L10.7564 12.4092H10.7563ZM10.9776 12.9855L11.033 13.1469L11.5586 13.2314L11.3373 12.8472L10.9777 12.9855H10.9776ZM11.4825 12.5321L11.6762 12.9087L12.1671 12.7089L12.1118 12.5629L11.4825 12.5322V12.5321ZM11.766 13.047L11.8698 13.2468L12.4784 13.2237L12.2501 12.8472L11.766 13.047ZM12.4092 12.5475L12.5752 12.8625L12.9625 12.655L12.8587 12.486L12.4092 12.5475ZM13.0455 12.7857L12.6582 13.0009L12.7619 13.1852L13.2806 13.0931L13.0454 12.7857L13.0455 12.7857ZM13.17 12.4552L13.3705 12.7319L13.6956 12.4476L13.5849 12.3169L13.17 12.4552ZM13.7647 12.6012L13.4535 12.8626L13.5365 13.0239L13.9653 12.901L13.7647 12.6012ZM14.1935 12.0557L14.2695 12.1787L14.0552 12.5321L13.8339 12.2171L14.1935 12.0557V12.0557ZM14.3387 12.3631L14.4701 12.6551L14.2073 12.755L14.1866 12.6167L14.3387 12.3631Z" fill="white"/>
</g>
<defs>
<clipPath id="clip0_275_23301">
<rect width="24" height="20" rx="4" fill="white"/>
</clipPath>
</defs>
</svg>
