<svg width="24" height="20" viewBox="0 0 24 20" fill="none" xmlns="http://www.w3.org/2000/svg">
<g clip-path="url(#clip0_275_23256)">
<path d="M0 0H24V20H0V0Z" fill="#00785E"/>
<path d="M11.0591 4.52997L12.581 5.75842L11.9998 3.77051L11.4185 5.75842L12.9405 4.52997H11.0591Z" fill="#FBD116"/>
<path d="M12.0001 13.8181H8.15722C8.10871 13.7635 8.06114 13.708 8.01453 13.6514H12.0001C12.015 13.6573 12.028 13.6679 12.0376 13.6819C12.0471 13.696 12.0526 13.7128 12.0535 13.7303C12.0553 13.7687 12.0336 13.8046 12.0001 13.8181V13.8181ZM12.0001 12.5124C12.0224 12.4618 12.0658 12.3445 12.0461 12.1978C12.0386 12.1425 12.0231 12.0889 12.0001 12.0391C11.7845 12.2658 11.3793 12.6291 10.7816 12.83C10.4958 12.926 10.1987 12.9746 9.9001 12.9743H7.53262C7.60231 13.0882 7.6755 13.1994 7.75207 13.3076H10.0407C10.7869 13.3076 11.4706 13.0085 12.0001 12.5124H12.0001ZM7.89033 11.4834C7.77392 11.5332 7.65129 11.5627 7.52677 11.5709C8.08439 12.2717 8.89912 12.7138 9.80639 12.7138C10.6681 12.7138 11.4465 12.315 12.0001 11.6745C12.1063 10.8615 12.1632 10.0415 12.1706 9.21997C12.179 8.27664 12.122 7.33399 12.0001 6.40039C11.7528 6.64664 11.2895 7.17889 11.0711 7.99485C10.9875 8.30767 10.9452 8.63229 10.9455 8.9586C10.9455 9.6536 11.1345 10.2998 11.4587 10.8372C11.0606 10.2658 10.8235 9.5491 10.8235 8.7711C10.8235 8.25431 10.9282 7.76456 11.1151 7.32639C10.9842 7.17302 10.8875 6.98774 10.8327 6.78539C10.5822 7.27647 10.4392 7.84372 10.4392 8.44818C10.4392 9.19993 10.6604 9.89443 11.0345 10.456C10.3831 9.69722 9.46447 9.22422 8.44698 9.22422C8.3923 9.22422 8.33785 9.22577 8.28374 9.22839C8.38666 9.33492 8.47229 9.46037 8.53687 9.59922C9.54907 9.60089 10.4629 10.0709 11.1127 10.8242C10.4921 10.2482 9.69325 9.90131 8.82202 9.90131C8.33515 9.90131 7.8709 10.0096 7.44775 10.2057C7.88257 11.4823 8.99328 12.3909 10.2939 12.3909C10.3782 12.3909 10.4617 12.3867 10.5442 12.3792C10.3687 12.4142 10.1879 12.4326 10.0034 12.4326C9.18269 12.4326 8.43779 12.0709 7.8904 11.4834L7.89033 11.4834ZM12.0001 15.1826H10.0085C10.6249 15.4548 11.2968 15.6045 12.0001 15.6045C12.0302 15.5408 12.0463 15.47 12.047 15.398C12.0476 15.323 12.0315 15.249 12.0001 15.1826V15.1826ZM12.0001 14.1618H8.48887C8.58387 14.2524 8.68168 14.3392 8.78212 14.4222H12.0001C12.0082 14.4131 12.0478 14.3661 12.0478 14.292C12.0478 14.2179 12.0082 14.1709 12.0001 14.1618ZM12.0001 14.6826H9.12404C9.29871 14.8052 9.47959 14.9165 9.66577 15.016H12.0001C12.0297 14.9637 12.0448 14.903 12.0436 14.8413C12.0422 14.785 12.0271 14.7303 12.0001 14.6827V14.6826Z" fill="white"/>
<path d="M7.51807 7.28227L8.46997 8.26852L8.22153 6.84893L7.67163 8.15985L8.80975 7.45835L7.51807 7.28227ZM8.90148 5.94856L10.2031 5.97368L9.16342 5.10352L9.54397 6.48668L9.96787 5.11885L8.90148 5.94856Z" fill="#FBD116"/>
<path d="M11.9999 13.8181H15.8428C15.8913 13.7635 15.9389 13.708 15.9855 13.6514H11.9999C11.985 13.6573 11.972 13.6679 11.9624 13.6819C11.9529 13.696 11.9474 13.7128 11.9465 13.7303C11.9447 13.7687 11.9664 13.8046 11.9999 13.8181V13.8181ZM11.9999 12.5124C11.9776 12.4618 11.9342 12.3445 11.9539 12.1978C11.9614 12.1425 11.9769 12.0889 11.9999 12.0391C12.2155 12.2658 12.6207 12.6291 13.2184 12.83C13.5042 12.926 13.8013 12.9746 14.0999 12.9743H16.4674C16.3977 13.0882 16.3245 13.1994 16.2479 13.3076H13.9593C13.2131 13.3076 12.5294 13.0085 11.9999 12.5124H11.9999ZM16.1097 11.4834C16.2261 11.5332 16.3487 11.5627 16.4732 11.5709C15.9156 12.2717 15.1009 12.7138 14.1936 12.7138C13.3319 12.7138 12.5535 12.315 11.9999 11.6745C11.8937 10.8615 11.8368 10.0415 11.8294 9.21997C11.821 8.27664 11.878 7.33399 11.9999 6.40039C12.2472 6.64664 12.7105 7.17889 12.9289 7.99485C13.0125 8.30767 13.0548 8.63229 13.0545 8.9586C13.0545 9.6536 12.8655 10.2998 12.5413 10.8372C12.9394 10.2658 13.1765 9.5491 13.1765 8.7711C13.1765 8.25431 13.0718 7.76456 12.8849 7.32639C13.0158 7.17302 13.1125 6.98774 13.1673 6.78539C13.4178 7.27647 13.5608 7.84372 13.5608 8.44818C13.5608 9.19993 13.3396 9.89443 12.9655 10.456C13.6169 9.69722 14.5355 9.22422 15.553 9.22422C15.6077 9.22422 15.6621 9.22577 15.7163 9.22839C15.6133 9.33492 15.5277 9.46037 15.4631 9.59922C14.4509 9.60089 13.5371 10.0709 12.8873 10.8242C13.5079 10.2482 14.3067 9.90131 15.178 9.90131C15.6648 9.90131 16.1291 10.0096 16.5522 10.2057C16.1174 11.4823 15.0067 12.3909 13.7061 12.3909C13.6218 12.3909 13.5383 12.3867 13.4558 12.3792C13.6313 12.4142 13.8121 12.4326 13.9966 12.4326C14.8173 12.4326 15.5622 12.0709 16.1096 11.4834L16.1097 11.4834ZM11.9999 15.1826H13.9915C13.3751 15.4548 12.7032 15.6045 11.9999 15.6045C11.9698 15.5408 11.9537 15.47 11.953 15.398C11.9524 15.323 11.9685 15.249 11.9999 15.1826V15.1826ZM11.9999 14.1618H15.5111C15.4161 14.2524 15.3183 14.3392 15.2179 14.4222H11.9999C11.9918 14.4131 11.9522 14.3661 11.9522 14.292C11.9522 14.2179 11.9918 14.1709 11.9999 14.1618ZM11.9999 14.6826H14.876C14.7013 14.8052 14.5204 14.9165 14.3342 15.016H11.9999C11.9703 14.9637 11.9552 14.903 11.9564 14.8413C11.9578 14.785 11.9729 14.7303 11.9999 14.6827V14.6826Z" fill="white"/>
<path d="M16.4819 7.28227L15.53 8.26852L15.7785 6.84893L16.3284 8.15985L15.1902 7.45835L16.4819 7.28227ZM15.0985 5.94856L13.7969 5.97368L14.8366 5.10352L14.456 6.48668L14.0321 5.11885L15.0985 5.94856Z" fill="#FBD116"/>
</g>
<defs>
<clipPath id="clip0_275_23256">
<rect width="24" height="20" rx="4" fill="white"/>
</clipPath>
</defs>
</svg>
