<svg width="24" height="20" viewBox="0 0 24 20" fill="none" xmlns="http://www.w3.org/2000/svg">
<g clip-path="url(#clip0_275_23118)">
<path d="M0 -0.00195312H24V20.0022H0V-0.00195312Z" fill="#CC0001"/>
<path d="M0 18.5732H24V20.0021H0V18.5732Z" fill="white"/>
<path d="M0 15.7158H24V17.1447H0V15.7158Z" fill="white"/>
<path d="M0 12.8574H24V14.2863H0V12.8574Z" fill="white"/>
<path d="M0 10H24V11.4289H0V10Z" fill="white"/>
<path d="M0 7.14258H24V8.57145H0V7.14258Z" fill="white"/>
<path d="M0 4.28418H24V5.71305H0V4.28418Z" fill="white"/>
<path d="M0 1.42676H24V2.85563H0V1.42676Z" fill="white"/>
<path d="M0 -0.00195312H18.0037V11.429H0V-0.00195312Z" fill="#010066"/>
<path d="M7.40745 1.42676C5.27085 1.42676 3.53662 3.34717 3.53662 5.71334C3.53662 8.07951 5.27081 9.99997 7.40745 9.99997C8.17938 9.99997 8.8986 9.74901 9.50265 9.31722C9.14157 9.45563 8.76224 9.52614 8.38027 9.52584C6.48577 9.52584 4.94808 7.82309 4.94808 5.72501C4.94808 3.62684 6.48573 1.92405 8.38031 1.92405C8.79907 1.92405 9.20013 2.00713 9.5712 2.15934C8.95342 1.69701 8.20867 1.42684 7.40745 1.42684V1.42676Z" fill="#FFCC00"/>
<path d="M13.8262 7.94527L12.1957 7.00002L12.6778 8.9346L11.5873 7.31618L11.247 9.28585L10.9124 7.3151L9.81723 8.92969L10.3048 6.99677L8.67161 7.93656L9.88485 6.42439L8.03711 6.50323L9.73571 5.71114L8.0394 4.91343L9.88691 4.99844L8.67798 3.48219L10.3085 4.42743L9.82638 2.49293L10.9169 4.11119L11.2572 2.1416L11.5918 4.11231L12.687 2.49773L12.1994 4.43064L13.8326 3.49085L12.6193 5.00306L14.4671 4.92423L12.7685 5.71631L14.4648 6.51402L12.6173 6.42902L13.8262 7.94527Z" fill="#FFCC00"/>
</g>
<defs>
<clipPath id="clip0_275_23118">
<rect width="24" height="20" rx="4" fill="white"/>
</clipPath>
</defs>
</svg>
