<svg width="24" height="20" viewBox="0 0 24 20" fill="none" xmlns="http://www.w3.org/2000/svg">
<g clip-path="url(#clip0_275_23213)">
<path d="M0 0H24V20H0V0Z" fill="#D21034"/>
<path d="M4.5 5H19.5V15H4.5V5Z" fill="#007E3A"/>
<path d="M13.125 13.3337C14.7819 13.3337 16.125 11.8413 16.125 10.0003C16.125 8.15938 14.7819 6.66699 13.125 6.66699C11.4681 6.66699 10.125 8.15938 10.125 10.0003C10.125 11.8413 11.4681 13.3337 13.125 13.3337Z" fill="white"/>
<path d="M14.25 13.3337C15.9069 13.3337 17.25 11.8413 17.25 10.0003C17.25 8.15938 15.9069 6.66699 14.25 6.66699C12.5931 6.66699 11.25 8.15938 11.25 10.0003C11.25 11.8413 12.5931 13.3337 14.25 13.3337Z" fill="#007E3A"/>
</g>
<defs>
<clipPath id="clip0_275_23213">
<rect width="24" height="20" rx="4" fill="white"/>
</clipPath>
</defs>
</svg>
