<svg width="24" height="20" viewBox="0 0 24 20" fill="none" xmlns="http://www.w3.org/2000/svg">
<g clip-path="url(#clip0_275_23120)">
<path fill-rule="evenodd" clip-rule="evenodd" d="M-6.02344 0H30.0726V20.0533H-6.02344V0Z" fill="#6797D6"/>
<path fill-rule="evenodd" clip-rule="evenodd" d="M12.0171 4.81685L10.8736 5.6869L11.3118 4.28081L10.1671 3.41221L11.5814 3.4137L12.0173 2.00684L12.4532 3.4137L13.8674 3.41268L12.7226 4.28085L13.1607 5.68713M12.0171 15.277L10.8736 14.4069L11.3118 15.813L10.1671 16.6816L11.5814 16.6801L12.0173 18.0869L12.4532 16.6801L13.8674 16.6811L12.7225 15.813L13.1607 14.4067M6.52014 10.7851L5.65546 11.9887L5.70463 10.5017L4.38135 10.0429L5.73424 9.58488L5.78091 8.09788L6.56798 9.30167L7.92017 8.84126L7.05372 10.0434L7.84272 11.2459M17.5111 10.7851L18.3758 11.9887L18.3266 10.5017L19.6499 10.0429L18.297 9.58488L18.2503 8.09788L17.4633 9.30167L16.1111 8.84126L16.9775 10.0434L16.1885 11.2459" fill="white"/>
</g>
<defs>
<clipPath id="clip0_275_23120">
<rect width="24" height="20" rx="4" fill="white"/>
</clipPath>
</defs>
</svg>
