<svg width="24" height="20" viewBox="0 0 24 20" fill="none" xmlns="http://www.w3.org/2000/svg">
<g clip-path="url(#clip0_275_23233)">
<path fill-rule="evenodd" clip-rule="evenodd" d="M0 0H8.00014V20H0V0Z" fill="#00319C"/>
<path fill-rule="evenodd" clip-rule="evenodd" d="M8.00024 0H16.0004V20H8.00024V0Z" fill="#FFDE00"/>
<path fill-rule="evenodd" clip-rule="evenodd" d="M15.9998 0H23.9999V20H15.9998V0Z" fill="#DE2110"/>
<path fill-rule="evenodd" clip-rule="evenodd" d="M13.5142 13.3494L14.4242 14.8082C14.4747 14.8893 14.5253 14.9703 14.4489 15.024C14.3726 15.0777 14.3974 15.2934 14.4479 15.3745C14.549 15.5365 14.6759 15.5639 14.7523 15.5103L15.4393 15.0272C15.5156 14.9735 15.5414 14.8388 15.4403 14.6767C15.3822 14.595 15.2123 14.4872 15.1359 14.5409C15.0596 14.5946 15.009 14.5135 14.9585 14.4325L14.0485 12.9736" fill="#FF1900"/>
<path d="M13.5142 13.3494L14.4242 14.8082C14.4747 14.8893 14.5253 14.9703 14.4489 15.024C14.3726 15.0777 14.3974 15.2934 14.4479 15.3745C14.549 15.5365 14.6759 15.5639 14.7523 15.5103L15.4393 15.0272C15.5156 14.9735 15.5414 14.8388 15.4403 14.6767C15.3822 14.595 15.2123 14.4872 15.1359 14.5409C15.0596 14.5946 15.009 14.5135 14.9585 14.4325L14.0485 12.9736" stroke="black" stroke-width="0.729568"/>
<path fill-rule="evenodd" clip-rule="evenodd" d="M13.8692 12.3186C14.2761 12.8321 14.4178 13.4165 14.1856 13.6239C13.9535 13.8312 13.4354 13.583 13.0285 13.0695C12.6216 12.556 12.4799 11.9716 12.7121 11.7642C12.9443 11.5568 13.4624 11.805 13.8692 12.3186Z" fill="#A77B3B" stroke="black" stroke-width="1.71172"/>
<path fill-rule="evenodd" clip-rule="evenodd" d="M9.82321 12.7559L9.01989 14.2837C8.97526 14.3686 8.93064 14.4534 8.85069 14.4061C8.77074 14.3587 8.6015 14.4811 8.55688 14.5659C8.46763 14.7357 8.50291 14.8679 8.58286 14.9153L9.30234 15.3418C9.38229 15.3892 9.50686 15.3517 9.59611 15.1819C9.63789 15.0897 9.65011 14.8799 9.57013 14.8325C9.49018 14.7852 9.53484 14.7003 9.57946 14.6154L10.3828 13.0876" fill="#FF1900"/>
<path d="M9.82321 12.7559L9.01989 14.2837C8.97526 14.3686 8.93064 14.4534 8.85069 14.4061C8.77074 14.3587 8.6015 14.4811 8.55688 14.5659C8.46763 14.7357 8.50291 14.8679 8.58286 14.9153L9.30234 15.3418C9.38229 15.3892 9.50686 15.3517 9.59611 15.1819C9.63789 15.0897 9.65011 14.8799 9.57013 14.8325C9.49018 14.7852 9.53484 14.7003 9.57946 14.6154L10.3828 13.0876" stroke="black" stroke-width="0.729568"/>
<path fill-rule="evenodd" clip-rule="evenodd" d="M12.4189 11.6906H11.6864C11.6622 11.7163 11.4539 13.1738 11.2286 13.732C10.954 14.4124 10.1314 15.0128 10.1314 15.0128C10.1314 15.0128 10.6242 15.1787 10.7709 15.2873C10.8073 15.2759 11.5935 15.0929 11.685 14.0236C11.7766 15.0929 11.1371 15.5789 11.1371 15.5789C11.1371 15.5789 12.0527 15.8706 12.0527 16.551C12.0527 15.8706 12.9683 15.5789 12.9683 15.5789C12.9683 15.5789 12.509 15.0929 12.4175 14.0236C12.6006 15.0929 13.298 15.2759 13.3345 15.2873C13.4811 15.1787 13.974 15.0128 13.974 15.0128C13.974 15.0128 13.1514 14.4124 12.8767 13.732C12.6515 13.1738 12.4431 11.7163 12.419 11.6906H12.4189ZM9.30469 6.82935L10.6781 7.31539C11.1358 7.31539 11.5936 6.82989 11.5936 6.3438C11.6088 5.26255 11.2274 4.88518 11.1358 4.88518L11.319 4.69076L11.0443 4.3991C11.0443 4.3991 11.1361 3.89485 12.0514 3.9136C12.9666 3.93235 12.967 4.39964 12.967 4.88568C12.967 5.37172 12.5092 5.37172 12.5092 6.34385C12.5092 6.82989 12.967 7.31593 13.4248 7.31593L14.7981 6.82989V11.6903H9.30469V6.82939V6.82935Z" fill="#A77B3B" stroke="black" stroke-width="1.71135"/>
<path d="M11.4104 7.02441L11.502 7.31604L11.5935 7.02441L11.6851 7.31604L11.8682 7.02441L11.9574 7.33251L12.0513 7.02441L12.1864 7.33251L12.326 7.02441L12.4175 7.31604L12.5091 7.02441" stroke="black" stroke-width="0.136832"/>
<path d="M11.7766 5.95508L11.5935 7.02437M11.8683 5.95508V7.02437M12.0513 5.95508V7.02437M12.2345 5.95508L12.326 7.02437M12.4177 5.95508L12.5092 7.02437" stroke="black" stroke-width="0.136734"/>
<path fill-rule="evenodd" clip-rule="evenodd" d="M8.38888 3.91406C7.47331 4.40012 7.47331 5.37218 7.47331 5.85824C7.50564 6.30041 7.47331 15.5791 7.47331 15.5791C7.47331 15.5791 7.5329 15.0298 7.93111 14.607L8.38888 14.121L8.84667 13.635C9.18132 13.3119 9.30444 12.6629 9.30444 12.1768V5.37221C9.30444 5.37221 9.30444 4.88615 8.38888 3.91406Z" fill="#A77B3B" stroke="black" stroke-width="1.71086"/>
<path d="M9.30469 5.85813C9.29391 5.85813 8.84692 5.37207 8.84692 5.37207L8.38912 5.85813L7.93135 5.37207L7.47355 5.85813" stroke="black" stroke-width="1.71086"/>
<path d="M9.30469 6.34402C9.29391 6.34402 8.84692 6.83008 8.84692 6.83008L8.38912 6.34402L7.93135 6.83008L7.47355 6.34402" stroke="black" stroke-width="1.71086"/>
<path d="M9.30469 7.80247C9.29391 7.80247 8.84692 7.31641 8.84692 7.31641L8.38912 7.80247L7.93135 7.31641L7.47355 7.80247" stroke="black" stroke-width="1.71086"/>
<path d="M8.8413 5.37305L8.84668 13.6359" stroke="black" stroke-width="2.35646"/>
<path d="M8.38891 5.85742L8.39429 14.1013" stroke="black" stroke-width="2.23246"/>
<path d="M7.93115 5.37207L7.93652 14.6071" stroke="black" stroke-width="2.36285"/>
<path fill-rule="evenodd" clip-rule="evenodd" d="M15.7137 3.91406C16.6292 4.40012 16.6292 5.37218 16.6292 5.85824C16.5969 6.30041 16.6292 15.5791 16.6292 15.5791C16.6292 15.5791 16.5696 15.0298 16.1714 14.607L15.7137 14.121L15.2559 13.635C14.9212 13.3119 14.7981 12.6629 14.7981 12.1768V5.37221C14.7981 5.37221 14.7981 4.88615 15.7137 3.91406Z" fill="#A77B3B" stroke="black" stroke-width="1.71086"/>
<path d="M14.7979 5.85813C14.8086 5.85813 15.2556 5.37207 15.2556 5.37207L15.7134 5.85813L16.1712 5.37207L16.629 5.85813" stroke="black" stroke-width="1.71086"/>
<path d="M14.7979 6.34402C14.8086 6.34402 15.2556 6.83008 15.2556 6.83008L15.7134 6.34402L16.1712 6.83008L16.629 6.34402" stroke="black" stroke-width="1.71086"/>
<path d="M14.7979 7.80247C14.8086 7.80247 15.2556 7.31641 15.2556 7.31641L15.7134 7.80247L16.1712 7.31641L16.629 7.80247" stroke="black" stroke-width="1.71086"/>
<path d="M15.2612 5.37305L15.2559 13.6359" stroke="black" stroke-width="2.35646"/>
<path d="M15.7136 5.85742L15.7083 14.1013" stroke="black" stroke-width="2.23246"/>
<path d="M16.1711 5.37207L16.1658 14.6071" stroke="black" stroke-width="2.36285"/>
<path fill-rule="evenodd" clip-rule="evenodd" d="M10.8494 12.6181C10.6063 13.2376 10.1822 13.6393 9.90213 13.5154C9.62209 13.3916 9.59212 12.7889 9.83522 12.1695C10.0783 11.55 10.5024 11.1483 10.7825 11.2722C11.0625 11.3961 11.0925 11.9987 10.8494 12.6181Z" fill="#A77B3B" stroke="black" stroke-width="1.7113"/>
<path fill-rule="evenodd" clip-rule="evenodd" d="M9.30444 7.31641H14.7979V10.2327H9.30444V7.31641Z" fill="#FF0000"/>
<path fill-rule="evenodd" clip-rule="evenodd" d="M9.30448 10.2324H14.7979V11.6906C14.7979 12.6627 13.4246 12.6627 12.0512 13.6348C10.6778 12.6627 9.30444 12.6627 9.30444 11.6906V10.2324H9.30448Z" fill="#564DFF"/>
<path d="M9.30444 7.31641H14.7979V11.6909C14.7979 12.6629 13.4245 12.6629 12.0512 13.635C10.6778 12.6629 9.30444 12.6629 9.30444 11.6909V7.31641Z" stroke="#FFFF00" stroke-width="1.36869"/>
<path fill-rule="evenodd" clip-rule="evenodd" d="M11.044 7.51074C11.044 7.51074 10.1284 8.22502 10.1284 8.90974C10.1284 9.59441 11.0898 9.82264 11.0898 9.82264C11.0898 9.82264 10.7693 9.82264 10.7693 10.7355C10.7693 11.192 11.7307 10.9638 11.7307 11.192C11.7307 11.4202 11.7171 11.9724 11.7307 12.3331C11.7307 12.5613 11.0898 12.3331 11.0898 12.5613C11.0898 12.6755 11.5704 13.246 12.0511 13.246C12.5318 13.246 13.0125 12.6755 13.0125 12.5613C13.0125 12.3331 12.3716 12.5613 12.3716 12.3331V11.192C12.3716 10.9638 13.3329 11.192 13.3329 10.7355C13.3329 9.82264 13.0125 9.82264 13.0125 9.82264C13.0125 9.82264 13.9738 9.59441 13.9738 8.90974C13.9738 8.22507 13.0583 7.51074 13.0583 7.51074C13.0583 7.51073 13.5733 8.45323 13.5733 8.90974C13.5733 9.13797 13.3329 9.59441 12.692 9.59441C12.692 9.59441 12.5299 9.36619 12.3716 9.59441C12.3716 9.59441 12.1873 9.36619 12.0511 9.59441C12.0041 9.67318 11.9208 9.36619 11.7307 9.59441C11.6499 9.65491 11.5863 9.36619 11.4102 9.59441C11.0898 9.59441 10.4489 9.36619 10.4489 8.90974C10.4489 8.45329 11.044 7.51074 11.044 7.51074Z" fill="#FFFF00" stroke="black" stroke-width="0.945337"/>
<path fill-rule="evenodd" clip-rule="evenodd" d="M11.0604 11.5951C10.9963 11.6407 11.1432 12.3844 11.1886 12.4167C11.2526 12.4623 11.6372 12.4623 11.7013 12.4167C11.7469 12.3842 11.7013 11.6864 11.6372 11.6407C11.5731 11.5951 11.1057 11.5628 11.0604 11.5951Z" fill="#FFFF00" stroke="black" stroke-width="0.945337"/>
<path fill-rule="evenodd" clip-rule="evenodd" d="M13.0422 11.5951C13.1063 11.6407 12.9593 12.3844 12.914 12.4167C12.8499 12.4623 12.4654 12.4623 12.4013 12.4167C12.3556 12.3842 12.4013 11.6864 12.4654 11.6407C12.5294 11.5951 12.9968 11.5628 13.0422 11.5951Z" fill="#FFFF00" stroke="black" stroke-width="0.945337"/>
<path fill-rule="evenodd" clip-rule="evenodd" d="M11.7199 11.3254C11.7199 11.4668 11.5715 11.5815 11.3884 11.5815C11.2053 11.5815 11.0569 11.4668 11.0569 11.3254C11.0569 11.184 11.2053 11.0693 11.3884 11.0693C11.5715 11.0693 11.7199 11.184 11.7199 11.3254Z" fill="#FFFF00" stroke="black" stroke-width="1.13159"/>
<path fill-rule="evenodd" clip-rule="evenodd" d="M13.0458 11.3254C13.0458 11.4668 12.8974 11.5815 12.7143 11.5815C12.5312 11.5815 12.3828 11.4668 12.3828 11.3254C12.3828 11.184 12.5312 11.0693 12.7143 11.0693C12.8974 11.0693 13.0458 11.184 13.0458 11.3254Z" fill="#FFFF00" stroke="black" stroke-width="1.13162"/>
<path fill-rule="evenodd" clip-rule="evenodd" d="M12.6281 12.8124C12.6281 12.8754 12.5564 12.9265 12.4679 12.9265C12.3794 12.9265 12.3077 12.8754 12.3077 12.8124C12.3077 12.7493 12.3794 12.6982 12.4679 12.6982C12.5564 12.6982 12.6281 12.7493 12.6281 12.8124ZM11.7948 12.8124C11.7948 12.8754 11.7231 12.9265 11.6346 12.9265C11.5461 12.9265 11.4744 12.8754 11.4744 12.8124C11.4744 12.7493 11.5461 12.6982 11.6346 12.6982C11.7231 12.6982 11.7948 12.7493 11.7948 12.8124Z" fill="black"/>
<path fill-rule="evenodd" clip-rule="evenodd" d="M12.0514 9.16276L11.8553 8.88815L11.5334 8.93499L11.5777 8.59346L11.3191 8.38522L11.5777 8.17672L11.5334 7.8352L11.8553 7.8823L12.0514 7.60742L12.2476 7.8823L12.5695 7.8352L12.5251 8.17672L12.7838 8.38522L12.5251 8.59346L12.5695 8.93499L12.2476 8.88815L12.0514 9.16276Z" fill="#FFFF00" stroke="black" stroke-width="0.71234"/>
<path fill-rule="evenodd" clip-rule="evenodd" d="M13.4246 10.2321L13.9739 10.5237L14.5233 10.2321L13.9739 9.94043L13.4246 10.2321Z" fill="#FFFF00" stroke="black" stroke-width="0.730146"/>
<path fill-rule="evenodd" clip-rule="evenodd" d="M9.48755 10.2321L10.0369 10.5237L10.5862 10.2321L10.0369 9.94043L9.48755 10.2321Z" fill="#FFFF00" stroke="black" stroke-width="0.730146"/>
<path fill-rule="evenodd" clip-rule="evenodd" d="M14.2769 11.9727C14.1063 11.8525 13.8225 11.9135 13.6637 12.0103C13.5049 12.1071 13.3461 12.2039 13.3241 12.5536C13.1417 12.2165 13.2859 11.9044 13.5269 11.7574C13.7679 11.6104 14.1384 11.7168 14.2769 11.9727Z" fill="#FFFF00" stroke="black" stroke-width="0.730429"/>
<path fill-rule="evenodd" clip-rule="evenodd" d="M10.4947 11.3992C10.4949 11.4249 10.4904 11.4504 10.4813 11.4743C10.4723 11.4981 10.4588 11.5198 10.4418 11.5381C10.4248 11.5564 10.4045 11.571 10.3821 11.5809C10.3598 11.5908 10.3358 11.5959 10.3115 11.5959C10.2873 11.5959 10.2633 11.5908 10.241 11.5809C10.2186 11.571 10.1983 11.5564 10.1813 11.5381C10.1643 11.5198 10.1508 11.4981 10.1417 11.4743C10.1327 11.4504 10.1281 11.4249 10.1284 11.3992C10.129 11.348 10.1485 11.2991 10.1828 11.2632C10.2171 11.2272 10.2634 11.207 10.3115 11.207C10.3597 11.207 10.406 11.2272 10.4403 11.2632C10.4745 11.2991 10.4941 11.348 10.4947 11.3992Z" fill="#FFFF00" stroke="black" stroke-width="0.730146"/>
<path fill-rule="evenodd" clip-rule="evenodd" d="M10.3115 12.0798C10.3118 12.1055 10.3073 12.1311 10.2982 12.1549C10.2892 12.1788 10.2757 12.2005 10.2587 12.2188C10.2417 12.2371 10.2214 12.2516 10.199 12.2615C10.1767 12.2714 10.1527 12.2766 10.1284 12.2766C10.1042 12.2766 10.0802 12.2714 10.0579 12.2615C10.0355 12.2516 10.0152 12.2371 9.99818 12.2188C9.98115 12.2005 9.96771 12.1788 9.95863 12.1549C9.94956 12.1311 9.94504 12.1055 9.94533 12.0798C9.9459 12.0287 9.96544 11.9798 9.99972 11.9438C10.034 11.9079 10.0802 11.8877 10.1284 11.8877C10.1766 11.8877 10.2229 11.9079 10.2572 11.9438C10.2914 11.9798 10.311 12.0287 10.3115 12.0798Z" fill="#FFFF00" stroke="black" stroke-width="0.730146"/>
<path fill-rule="evenodd" clip-rule="evenodd" d="M10.22 11.6911C10.2203 11.7169 10.2158 11.7424 10.2067 11.7663C10.1976 11.7901 10.1842 11.8118 10.1671 11.8301C10.1501 11.8484 10.1298 11.8629 10.1075 11.8729C10.0851 11.8828 10.0611 11.8879 10.0369 11.8879C10.0127 11.8879 9.98866 11.8828 9.9663 11.8729C9.94394 11.8629 9.92366 11.8484 9.90663 11.8301C9.8896 11.8118 9.87615 11.7901 9.86708 11.7663C9.85801 11.7424 9.85348 11.7169 9.85377 11.6911C9.85435 11.64 9.87389 11.5911 9.90817 11.5552C9.94244 11.5192 9.98869 11.499 10.0369 11.499C10.0851 11.499 10.1313 11.5192 10.1656 11.5552C10.1999 11.5911 10.2194 11.64 10.22 11.6911Z" fill="#FFFF00" stroke="black" stroke-width="0.730146"/>
<path fill-rule="evenodd" clip-rule="evenodd" d="M10.6778 12.0798C10.678 12.1055 10.6735 12.1311 10.6644 12.1549C10.6554 12.1788 10.6419 12.2005 10.6249 12.2188C10.6079 12.2371 10.5876 12.2516 10.5652 12.2615C10.5429 12.2714 10.5189 12.2766 10.4946 12.2766C10.4704 12.2766 10.4464 12.2714 10.4241 12.2615C10.4017 12.2516 10.3814 12.2371 10.3644 12.2188C10.3474 12.2005 10.3339 12.1788 10.3248 12.1549C10.3158 12.1311 10.3112 12.1055 10.3115 12.0798C10.3121 12.0287 10.3317 11.9798 10.3659 11.9438C10.4002 11.9079 10.4465 11.8877 10.4946 11.8877C10.5428 11.8877 10.5891 11.9079 10.6234 11.9438C10.6576 11.9798 10.6772 12.0287 10.6778 12.0798Z" fill="#FFFF00" stroke="black" stroke-width="0.730146"/>
<path fill-rule="evenodd" clip-rule="evenodd" d="M10.7696 11.6911C10.7698 11.7169 10.7653 11.7424 10.7562 11.7663C10.7472 11.7901 10.7337 11.8118 10.7167 11.8301C10.6997 11.8484 10.6794 11.8629 10.657 11.8729C10.6347 11.8828 10.6107 11.8879 10.5864 11.8879C10.5622 11.8879 10.5382 11.8828 10.5159 11.8729C10.4935 11.8629 10.4732 11.8484 10.4562 11.8301C10.4392 11.8118 10.4257 11.7901 10.4166 11.7663C10.4076 11.7424 10.403 11.7169 10.4033 11.6911C10.4039 11.64 10.4235 11.5911 10.4577 11.5552C10.492 11.5192 10.5383 11.499 10.5864 11.499C10.6346 11.499 10.6809 11.5192 10.7152 11.5552C10.7494 11.5911 10.769 11.64 10.7696 11.6911Z" fill="#FFFF00" stroke="black" stroke-width="0.730146"/>
<path fill-rule="evenodd" clip-rule="evenodd" d="M10.4947 11.7878C10.4949 11.8135 10.4904 11.8391 10.4813 11.8629C10.4723 11.8868 10.4588 11.9085 10.4418 11.9268C10.4248 11.9451 10.4045 11.9596 10.3821 11.9695C10.3598 11.9795 10.3358 11.9846 10.3115 11.9846C10.2873 11.9846 10.2633 11.9795 10.241 11.9695C10.2186 11.9596 10.1983 11.9451 10.1813 11.9268C10.1643 11.9085 10.1508 11.8868 10.1417 11.8629C10.1327 11.8391 10.1281 11.8135 10.1284 11.7878C10.129 11.7367 10.1485 11.6878 10.1828 11.6518C10.2171 11.6159 10.2634 11.5957 10.3115 11.5957C10.3597 11.5957 10.406 11.6159 10.4403 11.6518C10.4745 11.6878 10.4941 11.7367 10.4947 11.7878Z" fill="#FFFF00" stroke="black" stroke-width="0.730146"/>
<path fill-rule="evenodd" clip-rule="evenodd" d="M11.1666 5.01541C10.7045 5.01541 10.6434 5.09645 10.4341 5.17749C10.4341 4.95391 10.9487 4.69141 11.4107 4.69141C11.4107 4.85345 11.2886 5.01549 11.1666 5.01545V5.01541Z" fill="#DA4500"/>
<path fill-rule="evenodd" clip-rule="evenodd" d="M11.8682 4.49715C11.8682 4.60453 11.7862 4.69157 11.6851 4.69157C11.5839 4.69157 11.502 4.60453 11.502 4.49715C11.502 4.38978 11.5839 4.30273 11.6851 4.30273C11.7862 4.30273 11.8682 4.38982 11.8682 4.49715Z" fill="#CAC9C7"/>
<path fill-rule="evenodd" clip-rule="evenodd" d="M9.94556 3.81656V4.10819H10.4034V5.56634H10.678V4.10819H11.1358V3.81656H10.678V3.42773H10.4034V3.81656H9.94556Z" fill="#FFFF00" stroke="black" stroke-width="0.730146"/>
<path fill-rule="evenodd" clip-rule="evenodd" d="M11.41 4.69214C10.8709 4.69214 10.5554 4.74605 10.3113 4.8541C10.3113 4.55597 10.6267 4.20605 11.1658 4.20605C11.2879 4.20605 11.4099 4.53005 11.4099 4.69214H11.41Z" fill="#DA4500"/>
<path fill-rule="evenodd" clip-rule="evenodd" d="M6.64957 9.8532C6.51802 9.5382 6.52014 9.43682 6.75445 9.79727L9.57909 15.7464L9.49332 15.7736L6.64953 9.85314L6.64957 9.8532Z" fill="#008500" stroke="black" stroke-width="0.260865"/>
<path fill-rule="evenodd" clip-rule="evenodd" d="M8.56504 13.7669C8.59391 13.3258 7.86716 12.8487 7.8384 12.8797C7.80964 12.9107 7.88258 13.1675 8.02043 13.3013C7.7565 13.1502 7.48005 13.0572 7.47428 13.1228C7.45275 13.2112 7.88441 13.4224 7.92026 13.5039C7.92611 13.5622 7.60324 13.5546 7.60913 13.6129C7.61498 13.6712 8.5185 14.1784 8.565 13.7668L8.56504 13.7669ZM7.83893 12.4821C7.86776 12.0411 7.14101 11.5639 7.11225 11.595C7.08349 11.6259 7.15643 11.8827 7.29428 12.0165C7.03035 11.8655 6.7539 11.7724 6.74813 11.838C6.7266 11.9264 7.1583 12.1376 7.19411 12.2191C7.19996 12.2775 6.87713 12.2699 6.88298 12.3281C6.88883 12.3864 7.79235 12.8937 7.83889 12.4821H7.83893ZM7.28325 11.3156C7.31212 10.8745 6.58534 10.3974 6.55661 10.4284C6.52785 10.4594 6.60079 10.7162 6.7386 10.85C6.47467 10.6989 6.19826 10.6059 6.19249 10.6715C6.17096 10.7599 6.60262 10.9711 6.63848 11.0526C6.64433 11.1109 6.32145 11.1033 6.3273 11.1616C6.33319 11.2199 7.23668 11.7271 7.28325 11.3156ZM6.73391 10.0516C6.76275 9.6106 6.036 9.13352 6.00724 9.16452C5.97848 9.19548 6.05145 9.45227 6.18926 9.5861C5.92534 9.43502 5.64889 9.34198 5.64311 9.40756C5.62159 9.49602 6.05329 9.70714 6.08914 9.78873C6.09499 9.84702 5.77211 9.8394 5.77796 9.89769C5.78381 9.95602 6.68734 10.4632 6.73388 10.0516H6.73391Z" fill="#008F00"/>
<path fill-rule="evenodd" clip-rule="evenodd" d="M6.92269 9.99395C7.27433 9.7572 7.20544 8.85291 7.16494 8.84674C7.12437 8.84049 6.97279 9.05508 6.95299 9.25229C6.91114 8.93708 6.81788 8.64554 6.76467 8.67945C6.68483 8.71345 6.78053 9.20779 6.73992 9.28675C6.69916 9.32633 6.51357 9.04574 6.47281 9.08529C6.43208 9.12487 6.58287 10.1982 6.92269 9.99395ZM7.43202 11.1036C7.83796 11.005 8.05737 10.1282 8.02111 10.108C7.98484 10.0878 7.77451 10.2364 7.69381 10.4152C7.75351 10.1032 7.75726 9.79537 7.69643 9.80849C7.61052 9.81224 7.54531 10.3121 7.48216 10.3722C7.43131 10.395 7.34457 10.0647 7.29372 10.0876C7.24287 10.1105 7.04753 11.1756 7.43206 11.1036H7.43202ZM8.04046 12.2387C8.41066 12.0363 8.41838 11.1291 8.37852 11.1191C8.33866 11.109 8.16964 11.3083 8.13327 11.5028C8.11816 11.1849 8.04987 10.8857 7.99403 10.9144C7.91164 10.9407 7.96527 11.4421 7.91813 11.5169C7.87422 11.5525 7.71301 11.2553 7.66913 11.2908C7.62518 11.3264 7.68481 12.4097 8.04046 12.2386V12.2387ZM8.69903 13.7207C9.08663 13.5591 9.18072 12.6574 9.14202 12.6431C9.10332 12.6288 8.91616 12.809 8.86144 12.9985C8.87674 12.6806 8.83729 12.3756 8.77902 12.3982C8.69453 12.4155 8.70008 12.9201 8.64608 12.9895C8.59902 13.0201 8.46698 12.7072 8.41988 12.7378C8.37282 12.7685 8.32891 13.8526 8.69903 13.7206V13.7207Z" fill="#008F00"/>
<path fill-rule="evenodd" clip-rule="evenodd" d="M9.55162 15.267C9.45302 15.4546 9.14044 15.4686 8.85348 15.2985C8.5665 15.1284 8.4138 14.8385 8.51239 14.651C8.611 14.4635 8.92357 14.4494 9.21053 14.6195C9.49751 14.7896 9.65021 15.0796 9.55162 15.267Z" fill="#FF1900" stroke="black" stroke-width="0.730423"/>
<path fill-rule="evenodd" clip-rule="evenodd" d="M17.0072 9.00684L17.0557 8.86767L17.1883 8.91405L17.2368 8.7749L17.3694 8.82129L17.3209 8.96044L17.4534 9.00682L17.4049 9.146L17.2723 9.09961L17.151 9.44751L17.0185 9.40112L17.1398 9.05322L17.0072 9.00684Z" fill="#FFFF00" stroke="black" stroke-width="0.26119"/>
<path fill-rule="evenodd" clip-rule="evenodd" d="M16.7271 10.2363L16.8596 10.2827L15.4524 14.3184L15.3198 14.272L16.7271 10.2363Z" fill="#FFFF00" stroke="black" stroke-width="0.263247"/>
<path fill-rule="evenodd" clip-rule="evenodd" d="M15.2781 14.1791L15.5432 14.2719L15.155 15.3852L14.8899 15.2924L15.2781 14.1791ZM16.8374 9.49398L17.2351 9.63314C17.5003 9.72592 16.902 10.3753 16.902 10.3753L16.6368 10.2826C16.6368 10.2826 16.5723 9.4012 16.8374 9.49398Z" fill="#FFFF00" stroke="black" stroke-width="0.26119"/>
<path fill-rule="evenodd" clip-rule="evenodd" d="M17.2051 9.50574C17.185 9.56338 17.1093 9.58934 17.0361 9.56372C16.9629 9.5381 16.9198 9.4706 16.9399 9.41297C16.96 9.35533 17.0357 9.32936 17.1089 9.35498C17.1821 9.38059 17.2252 9.44811 17.2051 9.50574Z" fill="#FFFF00" stroke="black" stroke-width="0.26119"/>
<path fill-rule="evenodd" clip-rule="evenodd" d="M15.4909 14.7573C15.6026 14.9363 15.471 15.2376 15.197 15.4303C14.923 15.623 14.6103 15.6341 14.4986 15.455C14.3869 15.276 14.5185 14.9746 14.7926 14.782C15.0666 14.5893 15.3793 14.5782 15.4909 14.7573Z" fill="#FF1900" stroke="black" stroke-width="0.73047"/>
</g>
<defs>
<clipPath id="clip0_275_23233">
<rect width="24" height="20" rx="4" fill="white"/>
</clipPath>
</defs>
</svg>
