<svg width="24" height="20" viewBox="0 0 24 20" fill="none" xmlns="http://www.w3.org/2000/svg">
<g clip-path="url(#clip0_275_23199)">
<path d="M-0.00195312 0H24.0018V20H-0.00195312V0Z" fill="#C4272F"/>
<path d="M7.99951 0H16.0008V20H7.99951V0Z" fill="#015197"/>
<path d="M4.0127 9.33561C4.73757 9.33561 5.3252 8.68269 5.3252 7.87728C5.3252 7.07186 4.73757 6.41895 4.0127 6.41895C3.28782 6.41895 2.7002 7.07186 2.7002 7.87728C2.7002 8.68269 3.28782 9.33561 4.0127 9.33561Z" fill="#F9CF02"/>
<path d="M4.01239 8.80586C4.80317 8.80586 5.44422 8.09358 5.44422 7.21494C5.44422 6.3363 4.80317 5.62402 4.01239 5.62402C3.22162 5.62402 2.58057 6.3363 2.58057 7.21494C2.58057 8.09358 3.22162 8.80586 4.01239 8.80586Z" fill="#C4272F"/>
<path fill-rule="evenodd" clip-rule="evenodd" d="M3.4165 5.49149C3.4165 5.85707 3.68324 6.15345 4.01227 6.15345C4.34129 6.15345 4.60803 5.85707 4.60803 5.49149C4.60803 5.2267 4.45908 5.19357 4.45908 5.09432C4.45908 4.99503 4.54844 4.86266 4.36972 4.69711C4.45908 4.86261 4.31017 4.89574 4.31017 5.0612C4.31017 5.2267 4.36972 5.2267 4.36972 5.35912C4.36972 5.39423 4.35716 5.4279 4.33482 5.45273C4.31247 5.47756 4.28216 5.49151 4.25056 5.49151C4.21896 5.49151 4.18865 5.47756 4.1663 5.45273C4.14396 5.4279 4.1314 5.39423 4.1314 5.35912C4.1314 5.2267 4.25058 5.09432 4.25058 4.89574C4.25058 4.69711 4.22077 4.63095 4.1314 4.46545C4.04204 4.29995 3.89313 4.16753 4.01227 4.03516C3.83354 4.10141 3.9229 4.36616 3.9229 4.53166C3.9229 4.69711 3.80377 4.79645 3.80377 4.99499C3.80377 5.19361 3.89313 5.2267 3.89313 5.35912C3.89313 5.39423 3.88058 5.4279 3.85823 5.45273C3.83588 5.47756 3.80557 5.49151 3.77397 5.49151C3.74237 5.49151 3.71206 5.47756 3.68972 5.45273C3.66737 5.4279 3.65482 5.39423 3.65482 5.35912C3.65482 5.2267 3.71437 5.2267 3.71437 5.0612C3.71437 4.89574 3.56545 4.86261 3.65482 4.69711C3.47609 4.86261 3.56545 4.99503 3.56545 5.09432C3.56545 5.19361 3.4165 5.2267 3.4165 5.49149Z" fill="#F9CF02"/>
<path d="M4.01267 8.5402C4.53986 8.5402 4.96723 8.06534 4.96723 7.47957C4.96723 6.8938 4.53986 6.41895 4.01267 6.41895C3.48548 6.41895 3.05811 6.8938 3.05811 7.47957C3.05811 8.06534 3.48548 8.5402 4.01267 8.5402Z" fill="#F9CF02"/>
<path d="M1.3877 9.60063V15.9643H2.58087V9.60059L1.3877 9.60063ZM5.44452 9.60063V15.9643H6.6377V9.60059L5.44452 9.60063ZM2.81952 10.6612V11.1915H5.20587V10.6612L2.81952 10.6612ZM2.81952 14.3733V14.9036H5.20587V14.3733L2.81952 14.3733ZM2.81952 9.60059H5.20587L4.0127 10.396L2.81952 9.60059ZM2.81952 15.1688H5.20587L4.0127 15.9642L2.81952 15.1688Z" fill="#F9CF02"/>
<path d="M4.01232 14.1875C4.71083 14.1875 5.27708 13.5584 5.27708 12.7822C5.27708 12.0061 4.71083 11.377 4.01232 11.377C3.31381 11.377 2.74756 12.0061 2.74756 12.7822C2.74756 13.5584 3.31381 14.1875 4.01232 14.1875Z" fill="#F9CF02" stroke="#C4272F" stroke-width="3.818"/>
<path d="M4.01227 11.377C4.17914 11.3784 4.33875 11.453 4.45629 11.5847C4.57384 11.7163 4.6398 11.8942 4.6398 12.0796C4.6398 12.265 4.57384 12.4429 4.45629 12.5745C4.33875 12.7062 4.17914 12.7808 4.01227 12.7822C3.92881 12.7815 3.84606 12.7992 3.76877 12.8342C3.69148 12.8692 3.62119 12.9208 3.56195 12.9861C3.50271 13.0514 3.45569 13.1291 3.42361 13.2147C3.39152 13.3003 3.375 13.3922 3.375 13.4849C3.375 13.5776 3.39152 13.6694 3.42361 13.755C3.45569 13.8406 3.50271 13.9183 3.56195 13.9837C3.62119 14.049 3.69148 14.1006 3.76877 14.1356C3.84606 14.1706 3.92881 14.1883 4.01227 14.1875" stroke="#C4272F" stroke-width="3.818"/>
<path d="M4.01258 12.3448C4.14438 12.3448 4.25123 12.2261 4.25123 12.0796C4.25123 11.9332 4.14438 11.8145 4.01258 11.8145C3.88077 11.8145 3.77393 11.9332 3.77393 12.0796C3.77393 12.2261 3.88077 12.3448 4.01258 12.3448Z" fill="#C4272F"/>
<path d="M4.01258 13.7501C4.14438 13.7501 4.25123 13.6313 4.25123 13.4849C4.25123 13.3384 4.14438 13.2197 4.01258 13.2197C3.88077 13.2197 3.77393 13.3384 3.77393 13.4849C3.77393 13.6313 3.88077 13.7501 4.01258 13.7501Z" fill="#C4272F"/>
</g>
<defs>
<clipPath id="clip0_275_23199">
<rect width="24" height="20" rx="4" fill="white"/>
</clipPath>
</defs>
</svg>
