<svg width="24" height="20" viewBox="0 0 24 20" fill="none" xmlns="http://www.w3.org/2000/svg">
<g clip-path="url(#clip0_275_23305)">
<path fill-rule="evenodd" clip-rule="evenodd" d="M-3 0H33V20H-3V0Z" fill="#002170"/>
<path fill-rule="evenodd" clip-rule="evenodd" d="M-3 9.14453H33V10.8548H-3V9.14453Z" fill="#FFB20D"/>
<path fill-rule="evenodd" clip-rule="evenodd" d="M7.61039 17.109L6.45319 15.8211L6.08039 17.593L5.65824 15.8346L4.53763 17.1619L4.96327 15.4045L3.39565 15.9318L4.55482 14.6464L2.95996 14.2318L4.54255 13.7627L3.3477 12.5176L4.92934 12.9906L4.45509 11.2488L5.61197 12.5367L5.98512 10.7646L6.40728 12.523L7.52757 11.1958L7.10225 12.9532L8.66986 12.4259L7.51041 13.7114L9.1052 14.1259L7.52264 14.595L8.7175 15.8401L7.13586 15.3671L7.61039 17.109Z" fill="white"/>
</g>
<defs>
<clipPath id="clip0_275_23305">
<rect width="24" height="20" rx="4" fill="white"/>
</clipPath>
</defs>
</svg>
