<svg width="24" height="20" viewBox="0 0 24 20" fill="none" xmlns="http://www.w3.org/2000/svg">
<g clip-path="url(#clip0_275_23268)">
<path d="M0 0H24V20H0V0Z" fill="white"/>
<path fill-rule="evenodd" clip-rule="evenodd" d="M0.22998 19.7457L13.5467 19.7453L4.83049 9.92418L13.8749 9.93598L0.230719 0.25293L0.22998 19.7457Z" fill="#CE0000" stroke="#000063" stroke-width="12.9683"/>
<path fill-rule="evenodd" clip-rule="evenodd" d="M6.35422 14.5216L5.4055 14.8707L6.14764 15.6465L5.14787 15.5752L5.55976 16.5998L4.66155 16.1198L4.68005 17.2368L4.0196 16.4204L3.64199 17.4607L3.32031 16.4326L2.60435 17.2368L2.66978 16.1535L1.72464 16.5998L2.16768 15.6265L1.13637 15.6465L1.88977 14.9308L0.930176 14.5216L1.87894 14.173L1.13637 13.3972L2.13607 13.4681L1.72464 12.4439L2.62288 12.9239L2.60435 11.8064L3.26483 12.6228L3.64199 11.583L3.96409 12.6111L4.68005 11.8064L4.6142 12.8898L5.55976 12.4439L5.11676 13.4172L6.14761 13.3972L5.39421 14.1129L6.35422 14.5216ZM5.21456 7.30762L4.81624 7.63523L5.01255 7.81547C5.48931 7.40602 5.82857 7.0318 6.09371 6.41078C6.15591 7.23969 5.47205 9.10043 3.67743 9.12098C1.75673 9.11918 1.09028 7.14492 1.16439 6.37582C1.51725 7.08711 1.73255 7.43395 2.28643 7.80426L2.45589 7.63144L2.08073 7.28414L2.56368 7.14461L2.30387 6.65867L2.8098 6.69969L2.74624 6.13383L3.18977 6.42223L3.32857 5.89551L3.64726 6.31973L3.94577 5.91754L4.10834 6.46402L4.52283 6.14359L4.46967 6.69937L4.96654 6.63457L4.73359 7.14836L5.2146 7.30762H5.21456Z" fill="white"/>
</g>
<defs>
<clipPath id="clip0_275_23268">
<rect width="24" height="20" rx="4" fill="white"/>
</clipPath>
</defs>
</svg>
