<svg width="24" height="20" viewBox="0 0 24 20" fill="none" xmlns="http://www.w3.org/2000/svg">
<g clip-path="url(#clip0_275_23188)">
<path fill-rule="evenodd" clip-rule="evenodd" d="M-6 0H30V20H-6V0Z" fill="#0071BC"/>
<path fill-rule="evenodd" clip-rule="evenodd" d="M13.8721 15.2361C13.8721 15.2361 14.4429 14.5653 14.9918 14.6933C15.1565 13.9858 15.7768 13.931 15.7768 13.931C15.7768 13.931 15.7164 13.1503 16.5123 12.9795C16.5343 12.4489 17.0173 12.0098 17.0173 12.0098C17.0173 12.0098 16.9185 11.1865 17.4235 10.9974C17.1161 10.3448 17.5278 9.86905 17.5223 9.85688C17.5168 9.84467 17.0009 8.82613 17.4619 8.53338C16.9734 8.07596 17.1326 7.55755 17.1326 7.55755C17.1326 7.55755 16.6001 7.40505 16.7923 6.69755C16.3531 6.61217 16.2653 5.82542 16.2653 5.82542C16.2653 5.82542 15.5902 5.97788 15.5078 5.32525C15.0632 5.40455 15.0138 4.91667 15.0083 4.91667C15.0028 4.91667 14.1245 5.17892 13.9489 4.44092C13.6086 4.63609 13.4604 4.28842 13.4604 4.28842C13.4604 4.28842 12.9719 4.5568 12.6809 4.03842C12.0991 4.44092 11.7752 4.02009 11.7752 4.02009C11.7752 4.02009 11.0123 4.58121 10.7597 4.14817C10.3096 4.65442 9.90894 4.43484 9.90894 4.43484C9.90894 4.43484 9.56863 5.10567 9.0197 4.93492C8.89348 5.557 8.2622 5.56921 8.2622 5.56921C8.2622 5.56921 8.32809 6.11813 7.57059 6.2645C7.47182 6.911 7.0766 7.02075 7.0766 7.02075C7.0766 7.02075 7.115 7.649 6.75823 7.85021C6.88445 8.20396 6.55513 8.637 6.55513 8.637C6.55513 8.637 6.90643 9.12492 6.42887 9.67384C6.88997 9.808 6.55513 10.6924 6.55513 10.6924C6.55513 10.6924 7.19188 11.0095 6.79115 11.595C7.24678 11.7597 7.10402 12.1622 7.10953 12.4001C7.40045 12.5465 7.65842 12.4733 7.53219 13.1259C8.42694 13.2357 8.00424 13.7846 8.00424 13.7846C8.00424 13.7846 8.42139 13.8029 8.25677 14.1688C9.01974 14.1505 9.1295 14.8031 9.1295 14.8031C9.1295 14.8031 9.83762 14.5958 9.93095 14.9007C10.0243 15.2057 9.62357 17.261 9.62357 17.261C9.62357 17.261 9.02525 17.261 8.58062 16.7304C7.53774 16.6999 7.76825 15.9375 7.75175 15.9375C7.73529 15.9375 7.40593 16.0778 7.23575 15.4435C6.53863 15.6021 6.5606 14.9495 6.55513 14.9435C6.54965 14.9373 6.24227 14.7849 6.3575 14.4616C5.63848 14.5348 5.69338 13.7541 5.69338 13.7541C5.53599 13.683 5.47745 13.5204 5.50123 13.3577C5.40793 13.3211 4.77118 13.309 5.10054 12.3758C4.49124 11.9672 4.86999 11.4975 4.86999 11.4975C4.86999 11.4975 4.03014 11.0158 4.67788 10.4608C4.1948 9.66788 4.71628 9.27146 4.71628 9.27146C4.71628 9.27146 4.0466 8.51517 4.72727 7.97846C4.6175 6.83184 5.23228 6.55738 5.23228 6.55738C5.23228 6.55738 4.90843 5.62425 5.78668 5.23388C5.84154 4.28855 6.45635 4.26417 6.45635 4.26417C6.45635 4.26417 6.47282 3.51396 7.43889 3.58717C7.62553 2.91634 8.28422 3.05046 8.28422 3.05046C8.28422 3.05046 8.48732 2.2393 9.38203 2.62963C9.83765 1.64159 10.5128 2.1478 10.5128 2.1478C10.5128 2.1478 10.9409 1.83675 11.155 1.93434C11.4269 1.4153 12.0055 1.91421 12.3798 2.01467C12.5153 1.95609 12.9994 1.55009 13.3726 2.06242C13.8667 1.70259 14.2893 2.34909 14.2893 2.34909C14.2893 2.34909 14.9699 1.96488 15.2883 2.84309C16.732 2.69671 16.5234 3.74575 16.5234 3.74575C16.5234 3.74575 17.6596 3.45909 17.4126 4.71546C18.4446 4.79475 18.3403 5.55105 18.3403 5.55105C18.3403 5.55105 18.9935 6.09996 18.708 6.59396C19.2899 6.62446 19.0758 7.24655 19.0758 7.24655C19.0758 7.24655 19.5204 7.43563 19.1527 8.20413C20.0034 8.96038 19.3173 9.71059 19.3118 9.7045C19.3063 9.69838 19.7674 10.3144 19.3502 11.0219C19.4765 12.1441 18.966 12.4308 18.966 12.4308C18.966 12.4308 19.0978 13.1565 18.5269 13.3639C18.5159 14.2178 17.7913 14.3215 17.7913 14.3215C17.7913 14.3215 17.9835 14.6924 17.2644 15.0827C17.236 15.654 16.4849 15.6999 16.4849 15.6999C16.4849 15.6999 16.4136 16.7489 15.4585 16.4683C15.2267 17.31 14.1082 17.0599 14.0862 17.0477C14.0642 17.0355 13.8721 15.2424 13.8721 15.2363L13.8721 15.2361Z" fill="white" stroke="black" stroke-width="1.85709"/>
<path fill-rule="evenodd" clip-rule="evenodd" d="M6.93515 5.17009C6.93792 5.17009 7.17721 5.40068 7.13254 5.74822C7.08784 6.09572 6.90721 6.57884 6.94355 6.93876C6.96571 7.08305 6.95731 7.34163 6.95731 7.34163C6.95731 7.34163 6.74041 6.99913 6.73759 6.63297C6.73478 6.2668 6.9725 5.91918 6.9725 5.64922C6.9725 5.37926 6.92956 5.16388 6.93515 5.17005V5.17009ZM6.81635 5.2738C6.81635 5.2738 6.50236 5.60684 6.46193 5.93051C6.43204 6.09734 6.42046 6.87476 6.41693 7.2198C6.40988 7.32563 6.37043 7.74355 6.36203 7.89555C6.35363 8.04763 6.59299 7.63601 6.60668 7.30088C6.59918 6.95401 6.59918 6.22338 6.63091 6.11355C6.65914 5.97243 6.65303 5.81647 6.69668 5.67488C6.75443 5.47843 6.81916 5.27688 6.81635 5.2738Z" fill="#217900" stroke="black" stroke-width="1.85709" stroke-linejoin="round"/>
<path fill-rule="evenodd" clip-rule="evenodd" d="M13.7235 4.18509C13.7235 4.18509 14.1306 3.97642 14.247 3.5878C14.3634 3.19917 13.8947 3.19546 13.8328 3.31901C13.7708 3.44251 13.8856 3.75005 13.856 3.83134C13.8265 3.91267 13.6609 4.10892 13.7235 4.18509Z" fill="#FFD200" stroke="#EF8A10" stroke-width="1.85761"/>
<path fill-rule="evenodd" clip-rule="evenodd" d="M10.1151 4.32692C10.1151 4.32692 10.3794 3.92455 10.3109 3.52209C10.2423 3.11971 9.83124 3.36984 9.83124 3.51126C9.83124 3.65263 10.0662 3.85926 10.076 3.94626C10.0857 4.03326 10.027 4.2943 10.1151 4.32692ZM9.40059 4.56626C9.40059 4.56626 9.66489 4.16384 9.59634 3.76142C9.52782 3.359 9.11671 3.60913 9.11671 3.75055C9.11671 3.89192 9.35165 4.09855 9.36144 4.18555C9.37122 4.27259 9.3125 4.53359 9.40059 4.56621V4.56626ZM8.6078 4.83813C8.6078 4.83813 8.87206 4.43571 8.80355 4.0333C8.735 3.63088 8.32392 3.881 8.32392 4.02242C8.32392 4.1638 8.55882 4.37042 8.56861 4.45742C8.5784 4.54446 8.51967 4.80546 8.60776 4.83809L8.6078 4.83813ZM8.04987 5.45801C8.04987 5.45801 8.31414 5.05563 8.24562 4.65317C8.17711 4.2508 7.766 4.50092 7.766 4.64234C7.766 4.78367 8.0009 4.99034 8.01072 5.07734C8.02047 5.16434 7.96175 5.42538 8.04987 5.45801ZM7.46255 6.05621C7.46255 6.05621 7.72685 5.6538 7.6583 5.25138C7.58982 4.84896 7.17871 5.09909 7.17871 5.24051C7.17871 5.38188 7.41361 5.5885 7.4234 5.6755C7.43319 5.76255 7.37446 6.02355 7.46259 6.05617L7.46255 6.05621Z" fill="#FFD200" stroke="#EF8A10" stroke-width="2.47737"/>
<path fill-rule="evenodd" clip-rule="evenodd" d="M8.81308 2.57182C8.81308 2.57182 8.46114 2.8804 8.42975 3.28848C8.39836 3.69653 8.85485 3.57844 8.88905 3.44223C8.92329 3.30607 8.74704 3.03682 8.75866 2.95015C8.77029 2.8634 8.89006 2.62953 8.81308 2.57182ZM9.98765 2.16936C9.98765 2.16936 9.63571 2.47798 9.60433 2.88603C9.57294 3.29407 10.0294 3.17598 10.0637 3.03978C10.0979 2.90361 9.92161 2.63436 9.93324 2.54769C9.94486 2.46094 10.0646 2.22711 9.98765 2.16936ZM5.61054 5.69248C5.61054 5.69248 5.68486 6.18373 5.9918 6.41053C6.29874 6.63728 6.425 6.13573 6.33399 6.03694C6.24298 5.93815 5.94579 5.9804 5.88294 5.92736C5.82009 5.87436 5.69311 5.64528 5.61054 5.69248ZM5.02393 7.36053C5.02393 7.36053 5.02756 7.85869 5.29843 8.13644C5.56933 8.41415 5.76526 7.94107 5.6894 7.82753C5.61354 7.71398 5.31406 7.70365 5.25954 7.64028C5.20501 7.57686 5.11216 7.3284 5.02393 7.36053ZM6.3773 9.22407C6.3773 9.22407 6.21729 8.75869 5.87615 8.60361C5.53501 8.44848 5.50018 8.96782 5.6069 9.04478C5.7137 9.12173 5.99754 9.01519 6.06856 9.0534C6.13959 9.09165 6.30474 9.2884 6.3773 9.22407ZM6.09616 8.41873C6.09616 8.41873 6.36744 8.02211 6.30598 7.61832C6.24451 7.21448 5.82913 7.45569 5.82665 7.59707C5.82418 7.7384 6.0554 7.95007 6.06365 8.03728C6.0719 8.12448 6.00864 8.38419 6.09616 8.41869V8.41873ZM14.5555 4.58778C14.5555 4.58778 14.9626 4.37911 15.079 3.99053C15.1954 3.60194 14.7267 3.59815 14.6647 3.72169C14.6029 3.84519 14.7176 4.15273 14.688 4.23407C14.6584 4.31532 14.4928 4.51161 14.5555 4.58778H14.5555ZM15.7865 5.27003C15.7865 5.27003 16.0259 4.8489 15.9334 4.45244C15.8407 4.05603 15.4456 4.33619 15.4541 4.47723C15.4627 4.61832 15.7095 4.80703 15.7245 4.89311C15.7395 4.97919 15.6966 5.24398 15.7865 5.27003ZM19.1467 9.14611C19.1467 9.14611 18.9861 8.68103 18.6448 8.5264C18.3035 8.37182 18.2693 8.89119 18.3761 8.96798C18.483 9.04478 18.7667 8.93782 18.8378 8.9759C18.9088 9.01407 19.0742 9.21061 19.1467 9.14611ZM17.5036 9.43498C17.5036 9.43498 17.5129 8.93694 17.7869 8.66298C18.0609 8.38907 18.2514 8.86486 18.1743 8.97736C18.0971 9.08978 17.7976 9.09594 17.7423 9.15857C17.6871 9.22115 17.5914 9.46832 17.5036 9.43494V9.43498ZM17.2392 4.15336C17.2392 4.15336 16.8201 3.97648 16.4889 4.15623C16.1577 4.33598 16.4834 4.7104 16.6062 4.67307C16.7289 4.63569 16.8462 4.3294 16.9191 4.2959C16.9921 4.26244 17.2342 4.2564 17.2392 4.1534L17.2392 4.15336ZM16.2801 3.26153C16.2801 3.26153 15.861 3.08461 15.5298 3.26436C15.1986 3.44415 15.5243 3.81857 15.6471 3.78123C15.7698 3.74386 15.8871 3.43753 15.9601 3.40407C16.033 3.37057 16.2751 3.36457 16.2801 3.26153ZM14.8499 2.41111C14.8499 2.41111 14.4946 2.71486 14.4587 3.12244C14.4228 3.53007 14.8806 3.41819 14.9163 3.28248C14.952 3.14678 14.7788 2.87519 14.7913 2.78861C14.8039 2.70207 14.9263 2.46986 14.8499 2.41107L14.8499 2.41111ZM13.9184 2.16211C13.9184 2.16211 13.7564 2.62661 13.9159 2.99578C14.0755 3.36494 14.4146 3.00561 14.3819 2.86898C14.3491 2.73232 14.0742 2.59994 14.0445 2.51869C14.0149 2.43744 14.0111 2.1684 13.9184 2.16211ZM11.2767 3.95198C11.2767 3.95198 11.5665 3.57194 11.5244 3.16507C11.4823 2.75819 11.056 2.97457 11.0468 3.11561C11.0375 3.25661 11.2584 3.48161 11.2625 3.56919C11.2666 3.65673 11.191 3.91236 11.2767 3.95198Z" fill="#FFD200" stroke="#EF8A10" stroke-width="1.85761"/>
<path fill-rule="evenodd" clip-rule="evenodd" d="M12.8542 4.76832C12.8542 4.76832 13.549 4.8169 13.583 5.25953C13.617 5.70215 13.4178 5.97203 13.4178 5.97203C13.4178 5.97203 13.5052 6.92753 12.8251 7.20819C12.0964 7.30536 10.9547 7.22982 10.9547 7.22982C10.9547 7.22982 10.6195 7.32157 10.4835 6.54965C10.3474 5.77778 10.3086 5.23257 10.3086 5.23257C10.3086 5.23257 10.3766 4.80069 10.8673 4.77373C11.358 4.74673 12.8494 4.77915 12.8543 4.76832H12.8542Z" fill="#8C8A8C" stroke="black" stroke-width="1.85709"/>
<path d="M13.4128 5.9668C13.4128 5.9668 13.0387 6.48501 13.0775 6.69555" stroke="black" stroke-width="1.85709" stroke-linecap="round"/>
<path fill-rule="evenodd" clip-rule="evenodd" d="M12.9126 7.18066C13.0049 7.26704 13.0923 7.36421 13.1118 7.68271L13.1506 8.31966L13.6364 13.1778L14.0639 16.6919L14.0931 17.2371C14.0931 17.2371 13.9911 17.6365 13.7044 17.6689C13.4956 18.1547 12.3636 18.2951 12.2518 18.2897C12.1498 18.2843 11.7903 18.117 11.5717 18.1385C11.353 18.1601 10.9741 18.3221 10.8041 18.2951C10.6341 18.2681 10.2503 18.1224 10.1823 17.8147C9.70615 17.6473 9.62842 17.2425 9.62842 17.2425L10.1434 13.1777L10.6438 8.039C10.6438 8.039 10.7021 7.35346 10.9498 7.25087C11.2073 7.22387 12.5385 7.27787 12.9125 7.18071L12.9126 7.18066Z" fill="#8C8A8C" stroke="black" stroke-width="1.85709"/>
<path d="M10.289 14.2148L10.187 17.8099M13.4323 14.6898L13.719 17.6533" stroke="black" stroke-width="1.85709"/>
<path d="M5.12149 12.346L5.11084 12.3874M18.5615 12.2158L18.5721 12.2573" stroke="black" stroke-width="0.967707"/>
<path d="M4.76106 7.49321C4.76106 7.49321 4.97387 7.82071 5.01208 8.00862C5.05029 8.19662 5.12121 8.56654 5.21402 8.71812C5.30679 8.86971 5.83618 9.71262 5.86348 10.0643C5.86892 10.2947 5.64515 10.6889 5.31223 10.695C5.10485 10.6889 4.57003 10.5373 4.54817 10.0279C4.52634 9.5185 4.71189 9.50641 4.73376 9.19716C4.75558 8.88787 4.76102 7.49925 4.76102 7.49316L4.76106 7.49321Z" stroke="#6B18B5" stroke-width="1.85709" stroke-linejoin="round"/>
<path d="M8.41754 3.03436C8.41754 3.03436 8.19719 3.05186 8.02754 3.15402C7.8961 3.24407 7.67343 3.37365 7.51784 3.61336C7.12207 3.95615 6.52672 4.11611 6.33892 4.40086C6.22653 4.59461 6.23343 5.06061 6.51505 5.25794C6.69509 5.37248 7.22298 5.55169 7.47978 5.12902C7.73662 4.70636 7.58373 4.5889 7.70965 4.31202C7.91748 3.67744 8.41473 3.03952 8.41758 3.03436H8.41754ZM13.763 2.41577C13.763 2.41577 13.5984 2.25202 13.4143 2.18769C13.2647 2.1454 13.0154 2.16382 12.7575 2.13569C12.2606 2.05823 11.7483 1.65894 11.4335 1.70715C11.2301 1.75219 10.9336 2.08186 11.0019 2.44394C11.0531 2.66727 11.2779 3.11907 11.7298 3.03011C12.1818 2.94111 12.1779 2.83157 12.4444 2.73952C13.0947 2.33436 13.7577 2.41711 13.763 2.41577V2.41577ZM19.0641 8.14061C19.1012 8.0464 19.0329 7.86927 18.9843 7.66177C18.9372 7.49836 18.8668 7.24473 18.6948 7.01927C18.4903 6.51011 18.5254 5.8119 18.3217 5.54094C18.1794 5.37319 17.7707 5.26873 17.5306 5.52511C17.3873 5.69177 17.104 6.21811 17.4116 6.59661C17.7192 6.97511 17.8532 6.83257 18.0648 7.03486C18.5694 7.41144 18.8164 8.07153 19.0641 8.14057V8.14061ZM18.8833 12.5886C18.9522 12.4826 19.0755 12.2784 19.0609 12.1082C19.0492 11.9735 19.1164 11.565 19.1238 11.3867C19.1694 10.8315 19.4822 10.3808 19.3971 9.8984C19.3468 9.67482 19.052 9.35582 18.7299 9.44911C18.5315 9.51673 18.0899 9.78673 18.1917 10.2839C18.2936 10.7812 18.4382 10.7729 18.5338 11.0644C18.8084 11.6669 18.6327 12.3826 18.8833 12.5886V12.5886Z" stroke="#6B18B5" stroke-width="0.967707" stroke-linejoin="round"/>
<path d="M15.2055 16.1178C15.2055 16.1178 15.1208 16.2988 15.4596 16.4581M15.8833 15.6907C15.8833 15.6907 16.2612 15.5893 16.5153 15.6907M17.0105 14.6333C17.0105 14.6406 16.9583 14.8216 17.2581 15.0822M17.2255 14.163C17.2255 14.163 17.4471 14.344 17.8185 14.3368M14.9904 14.6913C14.9904 14.6913 15.0035 15.1692 14.7819 15.3936M15.7332 13.9527C15.7332 13.9527 16.098 14.0541 16.3978 13.8875M18.0727 13.2507C18.0727 13.2507 18.1509 13.3738 18.5549 13.3521M16.4958 12.9682C16.5089 12.9755 16.9715 13.142 17.2647 12.99M17.421 10.999C17.421 10.999 17.4405 10.97 17.5839 11.5275M17.7793 9.42783C17.7793 9.42783 17.7598 9.72466 17.5447 9.85499M19.1542 8.21128C19.1542 8.21128 18.8414 8.49366 18.9 8.60949M17.5969 8.00862C17.5969 8.00862 17.7598 8.3127 17.4926 8.52266M16.8084 6.70541C16.8084 6.70541 17.0886 6.69095 17.2125 6.95883M16.2808 5.82212H16.4958M17.3949 4.73616C17.3949 4.74337 17.4535 4.80128 17.3428 4.92437M15.3944 4.76512C15.3944 4.76512 15.5443 5.02578 15.5182 5.34437M16.2612 3.88178C16.3263 3.87453 16.5479 3.76595 16.5479 3.76595M15.2969 2.84641C15.2903 2.84641 15.2121 3.17224 15.3555 3.28808M14.9382 4.3307C14.9382 4.6782 15.1858 4.59133 15.0164 4.92437M14.3322 4.04103C14.3257 4.04103 13.9412 4.37408 13.9412 4.43199M13.3287 3.86008C13.3287 3.86008 13.4916 4.04108 13.4525 4.28724M12.8532 3.71524C12.8532 3.71524 12.7685 3.99037 12.6577 4.06274M11.9864 3.64283C11.9799 3.65733 11.8496 3.96866 11.7584 4.02658M10.8005 3.65012C10.8071 3.65012 10.9308 3.9397 10.7679 4.1497M10.5267 2.15137C10.5332 2.15858 10.5528 2.37578 10.429 2.56403M9.35386 2.6437C9.35386 2.65091 9.40598 2.88987 9.06061 2.96953M8.68943 4.85178C8.69596 4.86628 9.02176 4.9242 9.02176 4.9242M7.8749 5.69195C7.88142 5.6847 8.2724 5.55441 8.2724 5.55441M7.24276 6.23478C7.25581 6.23478 7.51643 6.28545 7.58161 6.24924M7.06036 6.50274C7.06036 6.50274 7.14507 6.55341 7.07337 7.03849M5.7896 5.22853L5.94597 5.4892M5.25537 6.56803C5.25537 6.56074 5.41175 6.82862 5.62025 6.87928M6.48698 7.9292C6.49347 7.9292 6.74108 7.87128 6.78023 7.84233M6.37602 8.91366C6.38255 8.91366 6.3695 8.73266 6.57151 8.60958M6.10876 9.36258C6.10876 9.36978 6.29772 9.63045 6.42803 9.66666M5.9981 9.8622C6.01767 9.85499 6.21965 9.65949 6.45425 9.67395M5.93285 10.5355C5.93285 10.5355 5.93937 10.76 6.53885 10.7021M5.99157 11.3246C5.99157 11.3173 6.16752 10.8757 6.52591 10.7092M6.47393 11.8895C6.47393 11.8895 6.52606 11.7013 6.82576 11.571M6.80615 12.635C6.80615 12.635 7.02117 12.4395 7.09936 12.4106M7.07341 13.2144C7.07341 13.2144 7.20372 13.3665 7.52952 13.1059M5.50272 13.3374C5.54183 13.3301 6.01748 13.2071 6.18042 13.4822M5.69202 13.7718C5.69202 13.7718 6.19377 13.6994 6.25891 13.7573M7.48392 13.8878C7.48392 13.8878 7.41878 14.0399 8.0378 13.7865M8.25278 14.163C8.14201 14.373 8.27885 14.5395 8.13548 14.6336M6.3695 14.4524C6.38903 14.4379 6.59757 14.3582 6.56498 14.0252M6.55842 14.952C6.58452 14.9448 6.92986 14.7783 7.00156 14.8652M7.23623 15.4372C7.23623 15.4372 7.28187 15.0969 7.3796 15.0607M7.75741 15.951C7.75741 15.951 8.04413 15.9437 8.16796 15.8424M8.31121 14.8001C8.31773 14.8073 8.57836 14.9594 9.13223 14.8073M8.51975 16.1827C8.51975 16.1827 8.59793 16.6244 8.59141 16.7257" stroke="black" stroke-width="1.85709"/>
<path fill-rule="evenodd" clip-rule="evenodd" d="M18.527 9.39156C18.5107 9.24588 18.4476 9.11794 18.3614 9.05584C18.2751 8.99382 18.1789 9.00717 18.1092 9.09086C18.0394 9.17456 18.0064 9.31593 18.0229 9.46157C18.0392 9.60725 18.1024 9.73519 18.1886 9.7973C18.2748 9.85933 18.371 9.84597 18.4408 9.76227C18.5106 9.67857 18.5435 9.53721 18.527 9.39156Z" fill="#DE2010" stroke="black" stroke-width="2.44066"/>
<path fill-rule="evenodd" clip-rule="evenodd" d="M18.4733 8.65621C18.457 8.51053 18.3939 8.38259 18.3076 8.32049C18.2214 8.25846 18.1252 8.27182 18.0555 8.35551C17.9857 8.43921 17.9527 8.58057 17.9692 8.72622C17.9855 8.8719 18.0487 8.99984 18.1349 9.06194C18.2211 9.12398 18.3172 9.11062 18.3871 9.02692C18.4569 8.94322 18.4898 8.80186 18.4733 8.65621Z" fill="#DE2010" stroke="black" stroke-width="2.44066"/>
<path fill-rule="evenodd" clip-rule="evenodd" d="M18.3387 7.87074C18.311 7.72721 18.2379 7.60593 18.1472 7.55249C18.0563 7.49913 17.9616 7.52182 17.8987 7.612C17.8358 7.70218 17.8142 7.84622 17.8421 7.98969C17.8698 8.13322 17.9429 8.2545 18.0337 8.30794C18.1245 8.36132 18.2192 8.33863 18.2821 8.24843C18.345 8.15824 18.3667 8.01421 18.3387 7.87074Z" fill="#DE2010" stroke="black" stroke-width="2.44068"/>
<path fill-rule="evenodd" clip-rule="evenodd" d="M18.0936 7.04924C18.0339 6.9183 17.9354 6.82172 17.8354 6.79576C17.7353 6.76989 17.6489 6.81867 17.6088 6.92368C17.5687 7.02868 17.5808 7.17411 17.6407 7.30492C17.7005 7.43586 17.7989 7.53244 17.899 7.5584C17.999 7.5843 18.0854 7.53552 18.1255 7.43048C18.1657 7.32544 18.1536 7.18005 18.0936 7.04924Z" fill="#DE2010" stroke="black" stroke-width="2.44067"/>
<path fill-rule="evenodd" clip-rule="evenodd" d="M17.8319 6.39103C17.7722 6.2601 17.6737 6.16352 17.5736 6.13756C17.4736 6.11169 17.3872 6.16047 17.3471 6.26548C17.307 6.37048 17.319 6.51591 17.379 6.64672C17.4387 6.77765 17.5372 6.87424 17.6372 6.9002C17.7373 6.92609 17.8237 6.87731 17.8638 6.77228C17.904 6.66724 17.8918 6.52185 17.8319 6.39103Z" fill="#DE2010" stroke="black" stroke-width="2.44067"/>
<path fill-rule="evenodd" clip-rule="evenodd" d="M17.4597 5.72874C17.3902 5.6039 17.2847 5.51693 17.183 5.50047C17.0814 5.48411 16.999 5.54085 16.967 5.64925C16.9351 5.75765 16.9582 5.90142 17.0279 6.02612C17.0974 6.15096 17.2029 6.23793 17.3045 6.25439C17.4062 6.27078 17.4886 6.21405 17.5206 6.10561C17.5526 5.99717 17.5294 5.85344 17.4597 5.72874Z" fill="#DE2010" stroke="black" stroke-width="2.44067"/>
<path fill-rule="evenodd" clip-rule="evenodd" d="M17.0453 5.09086C16.9652 4.97407 16.8527 4.89884 16.7501 4.89338C16.6474 4.88803 16.5704 4.95335 16.548 5.06467C16.5256 5.176 16.5611 5.31661 16.6414 5.43323C16.7214 5.55002 16.834 5.62526 16.9366 5.63071C17.0392 5.63611 17.1162 5.57079 17.1386 5.45943C17.1611 5.34806 17.1255 5.20749 17.0453 5.09086Z" fill="#DE2010" stroke="black" stroke-width="2.44067"/>
<path fill-rule="evenodd" clip-rule="evenodd" d="M16.5517 4.4957C16.4573 4.39303 16.3361 4.33671 16.2339 4.34785C16.1316 4.35908 16.0639 4.43612 16.0563 4.54987C16.0487 4.66362 16.1022 4.79703 16.1968 4.8995C16.2912 5.00217 16.4124 5.05848 16.5146 5.04735C16.6168 5.03617 16.6846 4.95913 16.6922 4.84533C16.6999 4.73153 16.6463 4.59817 16.5517 4.4957Z" fill="#DE2010" stroke="black" stroke-width="2.44068"/>
<path fill-rule="evenodd" clip-rule="evenodd" d="M15.995 3.94849C15.8925 3.85591 15.7672 3.81222 15.6663 3.83376C15.5654 3.85539 15.5043 3.93902 15.5062 4.05307C15.508 4.16712 15.5723 4.29449 15.675 4.38686C15.7775 4.47944 15.9028 4.52313 16.0037 4.5016C16.1046 4.48001 16.1656 4.39638 16.1638 4.28228C16.162 4.16818 16.0977 4.04086 15.995 3.94849Z" fill="#DE2010" stroke="black" stroke-width="2.44067"/>
<path fill-rule="evenodd" clip-rule="evenodd" d="M15.4061 3.51083C15.2911 3.43845 15.161 3.41848 15.0647 3.45833C14.9685 3.49827 14.9208 3.59201 14.9396 3.70413C14.9585 3.81626 15.0409 3.93 15.156 4.00215C15.2709 4.07453 15.401 4.0945 15.4973 4.05465C15.5935 4.01477 15.6412 3.92103 15.6224 3.80885C15.6036 3.69666 15.5211 3.58298 15.4061 3.51083Z" fill="#DE2010" stroke="black" stroke-width="2.44068"/>
<path fill-rule="evenodd" clip-rule="evenodd" d="M14.7467 3.12313C14.6263 3.06267 14.4951 3.05593 14.4025 3.10536C14.3099 3.15487 14.2701 3.25304 14.2981 3.36279C14.326 3.47254 14.4174 3.57748 14.5379 3.63769C14.6583 3.69815 14.7895 3.70488 14.8821 3.65546C14.9747 3.60601 15.0145 3.50784 14.9866 3.39802C14.9587 3.28821 14.8672 3.18334 14.7467 3.12313Z" fill="#DE2010" stroke="black" stroke-width="2.44067"/>
<path fill-rule="evenodd" clip-rule="evenodd" d="M14.0996 2.83323C13.9759 2.78188 13.8446 2.78493 13.7551 2.84114C13.6657 2.89744 13.6319 2.99835 13.6664 3.10578C13.701 3.2132 13.7985 3.31109 13.9224 3.36219C14.0461 3.41354 14.1774 3.41049 14.2669 3.35428C14.3562 3.29804 14.3901 3.19713 14.3556 3.08964C14.3211 2.98215 14.2235 2.88433 14.0996 2.83323Z" fill="#DE2010" stroke="black" stroke-width="2.44067"/>
<path fill-rule="evenodd" clip-rule="evenodd" d="M13.4422 2.60438C13.3153 2.56367 13.1846 2.57785 13.0993 2.64148C13.014 2.70519 12.9872 2.80868 13.029 2.91286C13.0708 3.01705 13.1748 3.10638 13.3018 3.14682C13.4287 3.18753 13.5595 3.17335 13.6448 3.10972C13.73 3.04607 13.7568 2.94258 13.715 2.83834C13.6732 2.73409 13.5692 2.64483 13.4422 2.60438Z" fill="#DE2010" stroke="black" stroke-width="2.44067"/>
<path fill-rule="evenodd" clip-rule="evenodd" d="M12.7187 2.46701C12.5876 2.44851 12.4604 2.48489 12.385 2.56235C12.3095 2.6399 12.2974 2.74674 12.3531 2.84253C12.4089 2.93831 12.524 3.00878 12.6551 3.02702C12.7862 3.04552 12.9134 3.00914 12.9888 2.93167C13.0642 2.8542 13.0764 2.74736 13.0206 2.6515C12.9649 2.55565 12.8498 2.48524 12.7187 2.46701Z" fill="#DE2010" stroke="black" stroke-width="2.44067"/>
<path fill-rule="evenodd" clip-rule="evenodd" d="M12.0048 2.42321C11.8728 2.41718 11.7488 2.46547 11.6796 2.5498C11.6104 2.6342 11.6065 2.74181 11.6694 2.83197C11.7323 2.92213 11.8524 2.98144 11.9844 2.9872C12.1164 2.99322 12.2403 2.94493 12.3096 2.8606C12.3788 2.77626 12.3827 2.66866 12.3198 2.57844C12.2569 2.48821 12.1368 2.42896 12.0048 2.42321Z" fill="#DE2010" stroke="black" stroke-width="2.44068"/>
<path fill-rule="evenodd" clip-rule="evenodd" d="M11.3505 2.4486C11.2185 2.44257 11.0945 2.49086 11.0253 2.57519C10.9561 2.65959 10.9522 2.7672 11.0151 2.85736C11.078 2.94752 11.1981 3.00683 11.3301 3.01259C11.4621 3.01861 11.586 2.97032 11.6553 2.88599C11.7245 2.80165 11.7284 2.69405 11.6655 2.60383C11.6026 2.5136 11.4825 2.45435 11.3505 2.4486Z" fill="#DE2010" stroke="black" stroke-width="2.44068"/>
<path fill-rule="evenodd" clip-rule="evenodd" d="M10.5829 2.54956C10.4541 2.58215 10.3458 2.6648 10.2988 2.76633C10.2519 2.86792 10.2735 2.9729 10.3555 3.04162C10.4374 3.11035 10.5673 3.13265 10.6961 3.09981C10.8249 3.06723 10.9331 2.98458 10.9801 2.88304C11.027 2.78152 11.0054 2.67655 10.9235 2.60775C10.8415 2.53896 10.7116 2.51672 10.5829 2.54956Z" fill="#DE2010" stroke="black" stroke-width="2.44067"/>
<path fill-rule="evenodd" clip-rule="evenodd" d="M9.88546 2.74294C9.7595 2.78722 9.65776 2.87951 9.61849 2.985C9.57929 3.09054 9.60861 3.19318 9.69537 3.25416C9.78212 3.31514 9.91323 3.32547 10.0391 3.28094C10.1651 3.23667 10.2668 3.14437 10.3061 3.03888C10.3453 2.93341 10.316 2.83077 10.2292 2.76972C10.1424 2.70867 10.0114 2.69841 9.88546 2.74294Z" fill="#DE2010" stroke="black" stroke-width="2.44068"/>
<path fill-rule="evenodd" clip-rule="evenodd" d="M9.24908 3.04652C9.12876 3.10715 9.03764 3.21225 9.00996 3.32219C8.98235 3.43217 9.02246 3.5302 9.11514 3.57926C9.20782 3.62833 9.3391 3.62123 9.45932 3.56035C9.57964 3.49972 9.67076 3.39462 9.69844 3.28468C9.72607 3.17477 9.68596 3.07674 9.59326 3.02761C9.50056 2.97848 9.3693 2.98564 9.24908 3.04652Z" fill="#DE2010" stroke="black" stroke-width="2.44067"/>
<path fill-rule="evenodd" clip-rule="evenodd" d="M8.61407 3.40812C8.49884 3.47993 8.41613 3.59329 8.39699 3.70545C8.37793 3.81764 8.42542 3.91151 8.52153 3.95161C8.61763 3.99171 8.74789 3.9722 8.863 3.90015C8.97822 3.82833 9.06094 3.71498 9.08008 3.60282C9.09917 3.49069 9.05168 3.39682 8.95554 3.35666C8.85941 3.3165 8.72918 3.33607 8.61407 3.40812Z" fill="#DE2010" stroke="black" stroke-width="2.44066"/>
<path fill-rule="evenodd" clip-rule="evenodd" d="M8.01359 3.86038C7.90607 3.94568 7.83493 4.06835 7.82687 4.18216C7.8189 4.29598 7.87529 4.38356 7.97475 4.41182C8.0742 4.44009 8.20179 4.40496 8.30916 4.31944C8.41669 4.23414 8.48782 4.11147 8.49588 3.99766C8.50389 3.88389 8.4475 3.79631 8.34801 3.76799C8.24851 3.73967 8.12097 3.77485 8.01359 3.86038Z" fill="#DE2010" stroke="black" stroke-width="2.44066"/>
<path fill-rule="evenodd" clip-rule="evenodd" d="M7.45747 4.32919C7.35683 4.42429 7.29529 4.55321 7.29592 4.66736C7.29665 4.78153 7.35951 4.86349 7.46076 4.8823C7.56201 4.90111 7.68646 4.85412 7.78694 4.75881C7.88758 4.6637 7.94912 4.53479 7.94849 4.42063C7.9478 4.30652 7.88494 4.22455 7.78365 4.20569C7.68236 4.18683 7.55795 4.23388 7.45747 4.32919Z" fill="#DE2010" stroke="black" stroke-width="2.44065"/>
<path fill-rule="evenodd" clip-rule="evenodd" d="M6.96686 4.89827C6.87262 5.00115 6.81956 5.13463 6.82756 5.24845C6.83565 5.36226 6.90363 5.43901 7.00584 5.4497C7.10805 5.4604 7.22914 5.40361 7.32322 5.30054C7.41746 5.19766 7.47052 5.06417 7.46252 4.95036C7.45448 4.83659 7.38649 4.75984 7.28424 4.7491C7.18199 4.73836 7.06094 4.7952 6.96686 4.89827Z" fill="#DE2010" stroke="black" stroke-width="2.44066"/>
<path fill-rule="evenodd" clip-rule="evenodd" d="M6.54456 5.53138C6.4584 5.64266 6.41557 5.78062 6.43212 5.89329C6.44876 6.00595 6.52229 6.07611 6.62494 6.07726C6.72759 6.07841 6.84399 6.01055 6.92996 5.8991C7.01613 5.78781 7.05895 5.64986 7.0424 5.53719C7.02581 5.42457 6.95228 5.35441 6.84958 5.35322C6.74688 5.35202 6.63054 5.41992 6.54456 5.53138Z" fill="#DE2010" stroke="black" stroke-width="2.44067"/>
<path fill-rule="evenodd" clip-rule="evenodd" d="M6.15838 6.17932C6.08339 6.30018 6.05405 6.44242 6.08132 6.55249C6.10867 6.66253 6.18852 6.72358 6.2907 6.71256C6.39288 6.70154 6.50209 6.62028 6.57688 6.49927C6.65187 6.37842 6.68121 6.23617 6.65394 6.12611C6.62664 6.0161 6.5468 5.95505 6.44457 5.96603C6.34234 5.97701 6.23317 6.05831 6.15838 6.17932Z" fill="#DE2010" stroke="black" stroke-width="2.44067"/>
<path fill-rule="evenodd" clip-rule="evenodd" d="M5.83653 6.91451C5.78134 7.04788 5.77443 7.19361 5.8183 7.29684C5.86226 7.40003 5.95036 7.44493 6.04931 7.41457C6.14827 7.38421 6.2433 7.28332 6.29827 7.14983C6.35346 7.01646 6.36037 6.87073 6.31649 6.7675C6.27259 6.66434 6.1845 6.61944 6.08548 6.64977C5.98647 6.6801 5.8915 6.78102 5.83653 6.91451Z" fill="#DE2010" stroke="black" stroke-width="2.44066"/>
<path fill-rule="evenodd" clip-rule="evenodd" d="M5.58206 7.68237C5.53798 7.82075 5.54298 7.96657 5.5951 8.06496C5.6473 8.1633 5.7387 8.19913 5.83477 8.15893C5.93084 8.11873 6.01724 8.00868 6.0611 7.87021C6.10518 7.73182 6.10017 7.586 6.04805 7.48762C5.99591 7.3893 5.90452 7.35346 5.80839 7.39364C5.71226 7.43382 5.62591 7.54389 5.58206 7.68237Z" fill="#DE2010" stroke="black" stroke-width="2.44066"/>
<path fill-rule="evenodd" clip-rule="evenodd" d="M5.36037 9.13695C5.34805 9.25411 5.38496 9.36638 5.45713 9.43152C5.52937 9.49661 5.62587 9.50458 5.7102 9.45243C5.79452 9.40028 5.85412 9.29593 5.8662 9.17874C5.87852 9.06157 5.84161 8.94931 5.76944 8.88417C5.69726 8.81908 5.60076 8.81111 5.51637 8.86326C5.43199 8.91541 5.37245 9.01976 5.36037 9.13695Z" fill="#DE2010" stroke="black" stroke-width="2.18616"/>
<path fill-rule="evenodd" clip-rule="evenodd" d="M5.41944 8.45818C5.38996 8.60127 5.41001 8.74549 5.47196 8.83657C5.53398 8.92759 5.62848 8.95152 5.71976 8.89933C5.81104 8.84713 5.88549 8.72678 5.91473 8.58362C5.94421 8.44053 5.92416 8.29631 5.86221 8.20523C5.80025 8.11422 5.70575 8.09029 5.61442 8.14247C5.52308 8.19465 5.44868 8.31502 5.41944 8.45818Z" fill="#DE2010" stroke="black" stroke-width="2.44065"/>
<path fill-rule="evenodd" clip-rule="evenodd" d="M18.0005 8.11034C18.0809 8.01463 18.1558 7.98759 18.2506 8.02246C18.2171 7.76996 18.1452 7.6843 18.0576 7.71471C17.97 7.74513 17.9304 7.87492 18.0005 8.11038V8.11034ZM18.1235 8.87217C18.2102 8.78346 18.2867 8.76276 18.3788 8.80551C18.3626 8.55092 18.2967 8.45946 18.2073 8.48242C18.1179 8.50542 18.0696 8.63155 18.1235 8.87217ZM17.8324 7.41451C17.8884 7.29926 17.9546 7.25192 18.0542 7.25896C17.9642 7.02417 17.875 6.96159 17.7973 7.01571C17.7195 7.06988 17.7108 7.20655 17.8324 7.41455L17.8324 7.41451ZM17.5273 6.72126C17.5832 6.60596 17.6495 6.55863 17.7491 6.56567C17.6591 6.33088 17.5699 6.2683 17.4921 6.32242C17.4143 6.37659 17.4057 6.5133 17.5273 6.72126ZM16.7953 5.45067C16.8338 5.32692 16.8924 5.26838 16.9917 5.25755C16.8689 5.04188 16.7719 4.99601 16.7029 5.06334C16.634 5.13067 16.6452 5.26717 16.7953 5.45067ZM16.3169 4.89701C16.3512 4.77167 16.4077 4.71076 16.5066 4.69576C16.3765 4.48534 16.278 4.44367 16.2114 4.5138C16.1448 4.58396 16.1606 4.71992 16.3169 4.89701ZM15.3108 3.95388C15.3087 3.82292 15.3455 3.74559 15.4355 3.69746C15.2534 3.54184 15.1481 3.53588 15.1042 3.62538C15.0603 3.71496 15.113 3.83888 15.3108 3.95388ZM15.8342 4.38992C15.8526 4.26055 15.901 4.19151 15.997 4.16142C15.8419 3.97309 15.7392 3.94696 15.682 4.02667C15.6248 4.10642 15.6574 4.23863 15.8342 4.38992ZM14.7136 3.58767C14.6993 3.45767 14.7288 3.37655 14.8138 3.31838C14.6183 3.18442 14.513 3.19055 14.4776 3.28463C14.4422 3.37876 14.5062 3.49596 14.7136 3.58767ZM14.1033 3.29167C14.0725 3.16521 14.0912 3.08026 14.1678 3.00917C13.9571 2.90771 13.8536 2.93051 13.8307 3.02926C13.8079 3.12801 13.8863 3.23384 14.1033 3.29167ZM13.4458 3.0653C13.4054 2.94221 13.4176 2.8558 13.4885 2.77776C13.2707 2.69651 13.1694 2.72892 13.1542 2.82946C13.1389 2.93005 13.2251 3.02809 13.4458 3.0653ZM12.7999 2.92634C12.7517 2.80684 12.7582 2.71967 12.8238 2.63613C12.6014 2.57255 12.5024 2.61305 12.4937 2.71459C12.485 2.81609 12.5774 2.90696 12.7999 2.92634H12.7999ZM12.1159 2.86809C12.0568 2.7548 12.0551 2.66734 12.1126 2.57671C11.8854 2.53913 11.7908 2.5908 11.7916 2.69276C11.7925 2.79471 11.8928 2.87451 12.1159 2.86809H12.1159ZM10.7766 2.98017C10.6946 2.88609 10.6741 2.80163 10.7102 2.69826C10.4815 2.72263 10.4009 2.79813 10.4239 2.89688C10.4468 2.99563 10.5615 3.04613 10.7766 2.98021V2.98017ZM11.4358 2.88376C11.3661 2.77817 11.356 2.69142 11.4043 2.59446C11.1748 2.58421 11.0858 2.64692 11.0965 2.74821C11.1071 2.84946 11.2146 2.91676 11.4358 2.88376ZM10.1298 3.13546C10.0365 3.05538 10.0053 2.97505 10.0277 2.86701C9.80458 2.92759 9.73449 3.01513 9.76993 3.10921C9.80537 3.20326 9.92541 3.23501 10.1298 3.13546ZM8.89134 3.76813C8.78604 3.70926 8.74164 3.63701 8.74513 3.52621C8.53644 3.63284 8.48267 3.73359 8.53356 3.81842C8.58444 3.9033 8.70771 3.90909 8.89138 3.76813H8.89134ZM9.48857 3.42917C9.39047 3.35651 9.35428 3.27884 9.36988 3.1693C9.15107 3.24696 9.08668 3.33971 9.12793 3.43084C9.16918 3.52192 9.29087 3.5443 9.48857 3.42917ZM7.78052 4.62746C7.66648 4.59426 7.60948 4.53388 7.59212 4.42471C7.40799 4.5773 7.37432 4.6883 7.43998 4.75951C7.50568 4.83076 7.62733 4.80784 7.78048 4.62746H7.78052ZM8.31047 4.14555C8.19909 4.10251 8.14659 4.03738 8.13696 3.92701C7.94263 4.06313 7.90123 4.17084 7.96172 4.24755C8.02217 4.32426 8.14509 4.31205 8.31047 4.14555ZM7.30959 5.14284C7.19331 5.12126 7.13162 5.06692 7.10541 4.95992C6.93452 5.13051 6.91003 5.24446 6.98128 5.30871C7.05253 5.37301 7.17178 5.33792 7.30959 5.14284ZM6.88764 5.7513C6.77008 5.74155 6.70419 5.69363 6.66932 5.58971C6.51309 5.7768 6.49806 5.89276 6.57426 5.94959C6.65046 6.00642 6.76637 5.95946 6.88761 5.75126L6.88764 5.7513ZM6.53451 6.37351C6.41702 6.38388 6.34532 6.34776 6.29653 6.25101C6.16791 6.46246 6.16903 6.57959 6.25217 6.6228C6.33531 6.66601 6.44338 6.59988 6.53454 6.37351H6.53451ZM6.22449 7.03813C6.10918 7.06538 6.03388 7.03988 5.97422 6.95101C5.87139 7.17921 5.88617 7.29517 5.97366 7.32601C6.06114 7.35688 6.16056 7.27571 6.22453 7.03813H6.22449ZM5.97647 7.72021C5.86652 7.76738 5.78852 7.75547 5.71697 7.67822C5.64797 7.92163 5.67909 8.03355 5.76984 8.04863C5.86059 8.06371 5.94722 7.96605 5.97647 7.72021ZM5.81038 8.47984C5.70351 8.53509 5.62494 8.52901 5.54889 8.45726C5.49474 8.70526 5.53251 8.81463 5.62401 8.82288C5.71551 8.83117 5.79598 8.7273 5.81038 8.47984ZM5.74281 9.11259C5.64219 9.1718 5.56378 9.1788 5.48154 9.13405C5.45162 9.33613 5.49954 9.41605 5.59097 9.40884C5.68239 9.40163 5.75222 9.30834 5.74284 9.11259H5.74281ZM17.2548 6.10338C17.295 5.98026 17.3543 5.92271 17.4538 5.91355C17.3339 5.69584 17.2376 5.64838 17.1677 5.71451C17.0978 5.78063 17.1072 5.91734 17.2548 6.10334V6.10338ZM18.1986 9.64451C18.2853 9.5558 18.3618 9.53509 18.4539 9.57784C18.4377 9.32326 18.3718 9.2318 18.2824 9.2548C18.193 9.27776 18.1447 9.40388 18.1986 9.64451Z" fill="#FFE300"/>
<path fill-rule="evenodd" clip-rule="evenodd" d="M17.2994 5.50008C17.2966 5.50008 17.0397 5.78558 17.0843 6.13308C17.129 6.48062 17.3273 6.90883 17.291 7.26878C17.2547 7.62874 17.196 7.86766 17.196 7.86766C17.196 7.86766 17.4976 7.48599 17.5005 7.11983C17.5032 6.75366 17.2938 6.27274 17.2938 6.00274C17.2938 5.73274 17.305 5.49391 17.2994 5.50012V5.50008ZM17.7768 6.66658C17.7768 6.66658 17.5757 6.83104 17.5953 7.20962C17.6148 7.58816 17.9667 8.28324 17.9667 8.28324C17.9667 8.28324 18.2236 8.8697 18.2152 9.02174C18.2068 9.17378 18.2627 8.87591 18.2376 8.54078C18.2125 8.20566 17.8243 7.46716 17.8243 7.46716C17.8243 7.46716 17.7405 7.31512 17.7489 7.06378C17.7573 6.81245 17.7796 6.6697 17.7768 6.66658Z" fill="#217900" stroke="black" stroke-width="1.85709" stroke-linejoin="round"/>
<path fill-rule="evenodd" clip-rule="evenodd" d="M11.7349 1.97586C11.7349 1.89753 11.6556 1.83398 11.5577 1.83398C11.4598 1.83398 11.3806 1.89753 11.3806 1.97586C11.3806 2.05419 11.4599 2.11773 11.5577 2.11773C11.6556 2.11773 11.7349 2.05423 11.7349 1.97586ZM11.8106 2.30586C11.8106 2.23069 11.7289 2.16978 11.6282 2.16978C11.5275 2.16978 11.4459 2.23069 11.4459 2.30582C11.4459 2.38094 11.5275 2.44186 11.6282 2.44186C11.7289 2.44186 11.8106 2.38098 11.8106 2.30582V2.30586ZM12.0371 1.91511C12.0371 1.91511 11.8287 2.08878 11.9146 2.15823C12.0006 2.22769 12.2377 2.00773 12.2377 2.00773L12.037 1.91511H12.0371ZM18.1621 5.89128C18.1622 5.84194 18.1414 5.79628 18.1075 5.77157C18.0913 5.75949 18.0723 5.75304 18.0528 5.75304C18.0333 5.75304 18.0143 5.75949 17.9981 5.77157C17.9643 5.79628 17.9434 5.84194 17.9435 5.89128C17.9434 5.94065 17.9643 5.98628 17.9981 6.01103C18.0143 6.0231 18.0333 6.02955 18.0528 6.02955C18.0723 6.02955 18.0913 6.0231 18.1075 6.01103C18.1414 5.98632 18.1622 5.94065 18.1621 5.89128ZM18.0825 5.56023C18.0825 5.4779 18.0313 5.41115 17.9682 5.41115C17.9051 5.41115 17.8539 5.4779 17.8539 5.56023C17.8539 5.64257 17.9051 5.70932 17.9682 5.70932C18.0314 5.70932 18.0825 5.64257 18.0825 5.56023ZM18.1374 6.23361C18.1374 6.1909 18.1173 6.15628 18.0926 6.15628C18.0679 6.15628 18.0479 6.19086 18.0479 6.23361C18.0479 6.27636 18.0679 6.3109 18.0926 6.3109C18.1173 6.3109 18.1374 6.27632 18.1374 6.23361ZM18.3211 5.63169C18.3211 5.58286 18.301 5.54336 18.2763 5.54336C18.2517 5.54336 18.2316 5.58286 18.2316 5.63169C18.2316 5.68053 18.2517 5.72003 18.2763 5.72003C18.301 5.72003 18.3211 5.68044 18.3211 5.63169ZM17.8192 5.69261C17.8192 5.65294 17.7991 5.62082 17.7744 5.62082C17.7497 5.62082 17.7297 5.65294 17.7297 5.69261C17.7297 5.73223 17.7497 5.76436 17.7744 5.76436C17.7991 5.76436 17.8192 5.73223 17.8192 5.69261ZM17.8988 6.16761C17.8988 6.10353 17.8565 6.05161 17.8044 6.05161C17.7522 6.05161 17.7099 6.10353 17.7099 6.16761C17.7099 6.23165 17.7522 6.28361 17.8044 6.28361C17.8565 6.28361 17.8988 6.23165 17.8988 6.16761ZM17.6501 5.95765C17.6501 5.90278 17.6145 5.85828 17.5706 5.85828C17.5267 5.85828 17.4911 5.90278 17.4911 5.95765C17.4911 6.01253 17.5267 6.05703 17.5706 6.05703C17.6145 6.05703 17.6501 6.01253 17.6501 5.95765ZM17.6106 5.6759C17.6106 5.64632 17.5974 5.6189 17.5759 5.60407C17.5654 5.5968 17.5534 5.59295 17.541 5.59295C17.5287 5.59295 17.5167 5.5968 17.5062 5.60407C17.4847 5.6189 17.4714 5.64628 17.4715 5.6759C17.4715 5.70553 17.4847 5.7329 17.5062 5.74773C17.5167 5.755 17.5287 5.75885 17.541 5.75885C17.5534 5.75885 17.5654 5.755 17.5759 5.74773C17.5974 5.7329 17.6107 5.70553 17.6106 5.6759ZM18.7434 7.10782C18.6407 6.95728 18.4764 6.89386 18.3763 6.96615C18.2762 7.03844 18.2783 7.21907 18.381 7.36957C18.4836 7.52011 18.648 7.58353 18.748 7.51123C18.8481 7.43894 18.846 7.25832 18.7434 7.10782ZM19.0351 9.88498C19.055 9.70028 18.9739 9.53761 18.854 9.52165C18.7341 9.50569 18.6207 9.64249 18.6009 9.82724C18.581 10.0119 18.6621 10.1746 18.782 10.1906C18.9019 10.2065 19.0152 10.0697 19.0351 9.88498ZM19.0968 11.5014C19.1309 11.3194 19.0628 11.1495 18.9446 11.1221C18.8264 11.0947 18.7028 11.2202 18.6687 11.4023C18.6345 11.5844 18.7026 11.7542 18.8208 11.7816C18.9391 11.809 19.0626 11.6836 19.0968 11.5014ZM19.3771 9.98832C19.3771 9.91511 19.3326 9.85582 19.2777 9.85582C19.2229 9.85582 19.1783 9.91511 19.1783 9.98832C19.1783 10.0615 19.2228 10.1208 19.2777 10.1208C19.3326 10.1208 19.3771 10.0615 19.3771 9.98832ZM19.1337 10.2922L18.9299 10.5489C18.9299 10.5489 18.7386 10.5544 18.7485 10.6235C18.7585 10.6925 19.0119 10.8996 19.0094 10.9824C19.0069 11.0652 19.1784 10.9631 19.1784 10.9631C19.1784 10.9631 19.315 10.502 19.315 10.4992C19.315 10.4965 19.3076 10.1789 19.2331 10.1845C19.1585 10.19 19.1383 10.2863 19.1337 10.2922L19.1337 10.2922ZM5.73153 10.1907C5.73153 10.1621 5.72131 10.1347 5.70313 10.1145C5.68494 10.0943 5.66027 10.0829 5.63455 10.0829C5.60884 10.0829 5.58417 10.0943 5.56598 10.1145C5.5478 10.1347 5.53758 10.1621 5.53758 10.1907C5.53758 10.2192 5.5478 10.2466 5.56598 10.2668C5.58417 10.287 5.60884 10.2984 5.63455 10.2984C5.66027 10.2984 5.68494 10.287 5.70313 10.2668C5.72131 10.2466 5.73153 10.2192 5.73153 10.1907ZM5.82292 9.8614C5.82292 9.79857 5.77949 9.74765 5.72594 9.74765C5.67239 9.74765 5.62897 9.79857 5.62897 9.8614C5.62897 9.92423 5.67235 9.97515 5.72594 9.97515C5.77949 9.97515 5.82292 9.92423 5.82292 9.8614ZM5.02664 8.29569C4.99027 8.20511 4.91452 8.15461 4.85744 8.1829C4.8004 8.21123 4.78364 8.30757 4.81998 8.39815C4.85635 8.48869 4.9321 8.53919 4.98918 8.5109C5.04622 8.48261 5.06298 8.38628 5.02664 8.29569ZM5.26713 9.27111C5.21718 9.15369 5.11315 9.08823 5.03474 9.1249C4.95633 9.16157 4.9333 9.28648 4.98329 9.40386C5.03328 9.52123 5.1373 9.58669 5.21568 9.55003C5.29405 9.51336 5.31712 9.38848 5.26713 9.27111ZM5.52464 9.98648C5.5408 9.83986 5.48613 9.70519 5.4025 9.68565C5.31888 9.66615 5.23792 9.76915 5.22175 9.91578C5.20555 10.0624 5.26023 10.1971 5.34385 10.2166C5.42748 10.2362 5.50844 10.1331 5.5246 9.98648H5.52464ZM5.11147 10.0909C5.16322 9.95486 5.14383 9.80865 5.06823 9.7644C4.99263 9.72015 4.88935 9.79461 4.8376 9.93069C4.78585 10.0668 4.80528 10.213 4.88088 10.2572C4.95648 10.3014 5.05975 10.227 5.1115 10.0909H5.11147Z" fill="#6B18B5"/>
<path fill-rule="evenodd" clip-rule="evenodd" d="M4.92315 9.78429C4.92315 9.71487 4.87493 9.65858 4.81542 9.65858C4.7559 9.65858 4.70764 9.71483 4.70764 9.78429C4.70764 9.85375 4.7559 9.91 4.81542 9.91C4.87493 9.91 4.92315 9.85375 4.92315 9.78429ZM4.83702 9.47316C4.83702 9.41037 4.79359 9.35941 4.74004 9.35941C4.68645 9.35941 4.64307 9.41037 4.64307 9.47316C4.64307 9.536 4.68645 9.58691 4.74004 9.58691C4.79363 9.58691 4.83702 9.536 4.83702 9.47316ZM4.9287 8.87454C4.9287 8.7687 4.88648 8.68295 4.83443 8.68295C4.78234 8.68295 4.74015 8.76875 4.74015 8.87454C4.74015 8.98033 4.78234 9.06608 4.83443 9.06608C4.88652 9.06608 4.9287 8.98033 4.9287 8.87454ZM5.2188 8.82845C5.23137 8.72362 5.19972 8.63241 5.14812 8.62479C5.09648 8.61712 5.04447 8.69595 5.0319 8.80083C5.01934 8.9057 5.05103 8.99691 5.10263 9.00454C5.15423 9.01216 5.20624 8.93333 5.2188 8.82845ZM7.28584 4.24604C7.32428 4.09754 7.28464 3.94825 7.19734 3.91266C7.11004 3.87704 7.00808 3.96858 6.96968 4.11708C6.93124 4.26562 6.97088 4.41487 7.05818 4.4505C7.14552 4.48608 7.24744 4.39454 7.28584 4.24604ZM6.89325 4.90695C7.00842 4.79808 7.05762 4.6475 7.00313 4.57066C6.94868 4.49379 6.81117 4.51979 6.696 4.62866C6.58084 4.73754 6.53168 4.88812 6.58613 4.965C6.64062 5.04183 6.77813 5.01583 6.89325 4.90695ZM6.66417 4.54012C6.77805 4.44662 6.82669 4.31737 6.77284 4.25137C6.71899 4.18537 6.58298 4.20775 6.46909 4.3012C6.35524 4.3947 6.3066 4.52395 6.36045 4.58995C6.4143 4.65595 6.55032 4.63358 6.6642 4.54012H6.66417ZM7.54725 3.89491C7.62405 3.82966 7.65687 3.7395 7.62053 3.69345C7.58419 3.64741 7.4925 3.663 7.4157 3.7282C7.3389 3.79341 7.30613 3.88362 7.34243 3.92966C7.37877 3.9757 7.47045 3.96012 7.54725 3.89491Z" fill="#6B18B5"/>
<path fill-rule="evenodd" clip-rule="evenodd" d="M7.08679 4.51979C7.13929 4.42966 7.14282 4.33245 7.09467 4.3027C7.04652 4.273 6.96492 4.32195 6.91242 4.41212C6.85992 4.50229 6.85635 4.5995 6.9045 4.6292C6.95265 4.65895 7.03425 4.61 7.08675 4.51983L7.08679 4.51979ZM7.75122 4.13345C7.83379 4.05612 7.86597 3.9537 7.82307 3.9047C7.7802 3.85562 7.67847 3.87858 7.59589 3.95591C7.51332 4.03325 7.48114 4.13566 7.52404 4.18466C7.5669 4.23375 7.66864 4.21079 7.75122 4.13345ZM6.55062 5.0347C6.62783 5.03041 6.68607 4.9877 6.68074 4.93929C6.67545 4.89083 6.60855 4.85504 6.53138 4.85933C6.45417 4.86362 6.39589 4.90633 6.40122 4.95475C6.40654 5.0032 6.4734 5.039 6.55062 5.0347ZM8.00412 3.6545C8.05662 3.56433 8.06018 3.46712 8.01199 3.43741C7.96384 3.40766 7.88224 3.45666 7.82974 3.54683C7.77724 3.637 7.77368 3.7342 7.82187 3.76391C7.87002 3.79366 7.95162 3.74466 8.00412 3.6545Z" fill="#6B18B5"/>
<path fill-rule="evenodd" clip-rule="evenodd" d="M16.7563 6.39029C16.7563 6.39029 16.9958 5.96912 16.9032 5.57275C16.8106 5.17629 16.4155 5.45646 16.424 5.59754C16.4325 5.73858 16.6793 5.92733 16.6943 6.01342C16.7093 6.0995 16.6664 6.36433 16.7563 6.39029Z" fill="#FFD200" stroke="#EF8A10" stroke-width="0.967707"/>
<path fill-rule="evenodd" clip-rule="evenodd" d="M12.1831 2.88767C12.1831 2.88767 13.0461 2.92492 13.0516 3.5455C13.0488 3.64167 13.0516 3.7565 13.0209 4.03263C13.1913 3.93025 13.3058 3.64475 13.2834 3.46171C13.2862 2.83179 12.5127 2.40046 12.1831 2.88763V2.88767Z" fill="#217900" stroke="black" stroke-width="2.3218" stroke-linejoin="round"/>
<path fill-rule="evenodd" clip-rule="evenodd" d="M11.6358 2.86C11.6358 2.86 12.3311 2.69862 12.3367 3.31921C12.3423 3.93979 12.1161 4.03908 12.1161 4.03908C12.1161 4.03908 12.6495 3.91187 12.6523 3.282C12.6551 2.65208 11.9653 2.37283 11.6357 2.86H11.6358Z" fill="#217900" stroke="black" stroke-width="2.3218" stroke-linejoin="round"/>
<path fill-rule="evenodd" clip-rule="evenodd" d="M13.998 16.2481C13.998 16.2481 17.2529 15.2265 18.2357 10.7881C17.6651 15.344 14.1037 16.7883 14.1037 16.7883L13.998 16.2481Z" fill="#F7DF73" stroke="black" stroke-width="2.47737" stroke-linejoin="round"/>
<path fill-rule="evenodd" clip-rule="evenodd" d="M14.3318 16.5248C14.4324 16.5248 14.6813 16.2188 14.8243 16.1835C14.9672 16.1482 14.9831 15.9894 14.819 15.9835C14.6548 15.9776 14.5118 16.1894 14.5118 16.1894C14.5118 16.1894 14.3689 16.3247 14.2206 16.3424C14.0724 16.3601 14.1677 16.566 14.3318 16.5248Z" fill="#8C1800"/>
<path fill-rule="evenodd" clip-rule="evenodd" d="M16.2065 14.9704C16.2065 14.9704 15.8676 15.1881 15.9152 15.2411C15.9629 15.294 16.2647 15.0352 16.27 15.0292C16.2753 15.0234 16.3971 14.8587 16.2065 14.9704Z" fill="#8C1800" stroke="#8C1800" stroke-width="2.47737"/>
<path fill-rule="evenodd" clip-rule="evenodd" d="M15.0255 15.9601C15.0255 15.9601 14.9249 15.9189 15.1844 15.8072C15.4439 15.6954 15.428 15.5659 15.5127 15.513C15.5975 15.4601 15.7775 15.3188 15.8145 15.4012C15.8516 15.4836 15.6239 15.6483 15.5709 15.6659C15.518 15.6836 15.2585 15.9484 15.1844 15.9719C15.1103 15.9954 15.0573 15.9837 15.0255 15.9601Z" fill="#8C1800"/>
<path d="M16.7092 14.418C16.4868 14.6945 16.4868 14.6886 16.4868 14.6886" stroke="#8C1800" stroke-width="3.01861" stroke-linecap="round"/>
<path d="M17.0433 13.9648L16.8315 14.2531" stroke="#8C1800" stroke-width="2.78641" stroke-linecap="round"/>
<path d="M17.3765 13.377L17.1382 13.8005" stroke="#8C1800" stroke-width="2.55421" stroke-linecap="round"/>
<path d="M17.6573 12.7771L17.4614 13.2124M17.7845 12.459L17.721 12.6119" stroke="#8C1800" stroke-width="2.32201" stroke-linecap="round"/>
<path d="M17.927 12.041L17.874 12.2234" stroke="#8C1800" stroke-width="1.39321" stroke-linecap="round"/>
<path fill-rule="evenodd" clip-rule="evenodd" d="M9.73193 16.1522C9.73193 16.1522 6.50674 15.1122 5.53288 10.5938C6.09837 15.2318 9.62722 16.7021 9.62722 16.7021L9.73193 16.1522Z" fill="#F7DF73" stroke="black" stroke-width="2.48817" stroke-linejoin="round"/>
<path fill-rule="evenodd" clip-rule="evenodd" d="M9.40075 16.434C9.30107 16.434 9.05447 16.1225 8.9128 16.0866C8.77112 16.0507 8.75541 15.8889 8.91805 15.8829C9.08068 15.877 9.22236 16.0926 9.22236 16.0926C9.22236 16.0926 9.36403 16.2303 9.51092 16.2483C9.65785 16.2663 9.56342 16.4759 9.40075 16.434Z" fill="#8C1800"/>
<path fill-rule="evenodd" clip-rule="evenodd" d="M7.54378 14.852C7.54378 14.852 7.8796 15.0736 7.83236 15.1275C7.78518 15.1814 7.48605 14.9179 7.48084 14.9119C7.47556 14.9059 7.35489 14.7382 7.54378 14.852Z" fill="#8C1800" stroke="#8C1800" stroke-width="2.48817"/>
<path fill-rule="evenodd" clip-rule="evenodd" d="M8.714 15.8593C8.714 15.8593 8.81372 15.8174 8.55662 15.7036C8.29952 15.5898 8.31527 15.458 8.2313 15.4041C8.14734 15.3502 7.96895 15.2065 7.93224 15.2903C7.89553 15.3742 8.12113 15.5419 8.17359 15.5598C8.22609 15.5778 8.48315 15.8473 8.55662 15.8713C8.63008 15.8953 8.68254 15.8833 8.714 15.8593Z" fill="#8C1800"/>
<path d="M7.04527 14.2891C7.26563 14.5706 7.26562 14.5646 7.26562 14.5646" stroke="#8C1800" stroke-width="3.03178" stroke-linecap="round"/>
<path d="M6.71445 13.8281L6.92432 14.1216" stroke="#8C1800" stroke-width="2.79857" stroke-linecap="round"/>
<path d="M6.38399 13.2295L6.62012 13.6607" stroke="#8C1800" stroke-width="2.56535" stroke-linecap="round"/>
<path d="M6.10619 12.6187L6.30029 13.062M5.98018 12.2949L6.04312 12.4507" stroke="#8C1800" stroke-width="2.33214" stroke-linecap="round"/>
<path d="M5.83866 11.8691L5.89111 12.0548" stroke="#8C1800" stroke-width="1.39928" stroke-linecap="round"/>
<path fill-rule="evenodd" clip-rule="evenodd" d="M18.3905 9.9707C18.4066 10.2491 18.6518 10.5157 18.5558 11.0015C18.4332 11.5523 18.0014 12.8615 18.076 13.0925C17.9481 12.897 17.9694 12.7134 17.9587 12.4409C17.948 12.1684 18.3159 11.1555 18.3479 10.8119C18.3479 10.5039 18.3746 10.0833 18.3905 9.9707Z" fill="#217900" stroke="black" stroke-width="2.3218" stroke-linejoin="round"/>
<path fill-rule="evenodd" clip-rule="evenodd" d="M18.3908 9.97656C18.3908 9.97656 18.7906 10.5393 18.7693 10.9836C18.748 11.4279 18.524 11.9491 18.5987 12.1802C18.4707 11.9847 18.4388 11.8603 18.4281 11.5878C18.4174 11.3153 18.6253 11.0132 18.5827 10.717C18.54 10.4208 18.3854 9.97656 18.3908 9.97656ZM5.29212 10.1009C5.27614 10.3794 5.08954 10.6281 5.1855 11.1139C5.30813 11.6648 5.7453 12.3638 5.676 13.1635C5.80395 12.968 5.84127 12.7489 5.85192 12.4764C5.8626 12.2039 5.36674 11.2857 5.33479 10.9421C5.33479 10.6341 5.30813 10.2135 5.29212 10.1009Z" fill="#217900" stroke="black" stroke-width="2.3218" stroke-linejoin="round"/>
<path fill-rule="evenodd" clip-rule="evenodd" d="M5.29206 10.1074C5.29206 10.1074 4.90288 10.6524 4.92418 11.0967C4.92951 11.3929 5.42001 12.6309 5.34538 12.862C5.47333 12.6665 5.51065 12.6902 5.50528 12.394C5.36136 11.6358 5.10542 11.15 5.1481 10.8538C5.19073 10.5576 5.29735 10.1074 5.29206 10.1074Z" fill="#217900" stroke="black" stroke-width="2.3218" stroke-linejoin="round"/>
<path d="M11.9414 5.12305L12.9101 8.43606L16.0448 8.43621L13.5089 10.4839L14.4774 13.797L11.9414 11.7504L9.40526 13.7975L10.3739 10.4845L7.83789 8.43693H10.9726L11.9414 5.12305Z" fill="white" stroke="black" stroke-width="1.93548" stroke-linecap="square" stroke-linejoin="round"/>
</g>
<defs>
<clipPath id="clip0_275_23188">
<rect width="24" height="20" rx="4" fill="white"/>
</clipPath>
</defs>
</svg>
