<svg width="24" height="20" viewBox="0 0 24 20" fill="none" xmlns="http://www.w3.org/2000/svg">
<g clip-path="url(#clip0_275_23288)">
<path d="M0 0H24V10H0V0Z" fill="#0038A8"/>
<path d="M0 10H24V20H0V10Z" fill="#CE1126"/>
<path d="M15.5885 10L0 20V0" fill="white"/>
<path d="M5.60029 12C6.5944 12 7.40029 11.1046 7.40029 10C7.40029 8.89543 6.5944 8 5.60029 8C4.60618 8 3.80029 8.89543 3.80029 10C3.80029 11.1046 4.60618 12 5.60029 12Z" fill="#FCD116"/>
<path d="M1.80029 9.99908L2.03589 10.2609L5.60029 9.99908L2.03589 9.7373L1.80029 9.99908Z" fill="#FCD116"/>
<path d="M2.19922 10.4949L2.3916 10.7087L5.60051 9.99902L2.19922 10.4949Z" fill="#FCD116"/>
<path d="M2.19922 9.50311L2.3916 9.28935L5.60051 9.99902L2.19922 9.50311Z" fill="#FCD116"/>
<path d="M2.913 7.01323L2.913 7.38344L5.6 9.99879L3.24618 7.01323L2.913 7.01323Z" fill="#FCD116"/>
<path d="M2.87923 7.67781L2.87923 7.98011L5.5999 9.99946L2.87923 7.67781Z" fill="#FCD116"/>
<path d="M3.51042 6.97648L3.78249 6.97648L5.5999 9.99946L3.51042 6.97648Z" fill="#FCD116"/>
<path d="M5.59985 5.77734L5.36425 6.03912L5.59985 9.99956L5.83545 6.03912L5.59985 5.77734Z" fill="#FCD116"/>
<path d="M5.15377 6.2207L4.96139 6.43446L5.6001 9.99992L5.15377 6.2207Z" fill="#FCD116"/>
<path d="M6.04642 6.2207L6.2388 6.43446L5.6001 9.99992L6.04642 6.2207Z" fill="#FCD116"/>
<path d="M8.28702 7.01411L7.95383 7.01411L5.60001 9.99967L8.28702 7.38432L8.28702 7.01411Z" fill="#FCD116"/>
<path d="M7.68977 6.97648L7.4177 6.97648L5.60029 9.99946L7.68977 6.97648Z" fill="#FCD116"/>
<path d="M8.32097 7.67781L8.32097 7.98011L5.60029 9.99946L8.32097 7.67781Z" fill="#FCD116"/>
<path d="M9.3999 9.99994L9.1643 9.73816L5.5999 9.99994L9.1643 10.2617L9.3999 9.99994Z" fill="#FCD116"/>
<path d="M9.00098 9.50408L8.8086 9.29033L5.59968 10L9.00098 9.50408Z" fill="#FCD116"/>
<path d="M9.00098 10.4959L8.8086 10.7097L5.59968 10L9.00098 10.4959Z" fill="#FCD116"/>
<path d="M8.2872 12.9858L8.2872 12.6156L5.6002 10.0002L7.95401 12.9858L8.2872 12.9858Z" fill="#FCD116"/>
<path d="M8.32097 12.3212L8.32097 12.0189L5.60029 9.99957L8.32097 12.3212Z" fill="#FCD116"/>
<path d="M7.68977 13.0225L7.4177 13.0225L5.60029 9.99957L7.68977 13.0225Z" fill="#FCD116"/>
<path d="M5.60035 14.2217L5.83595 13.9599L5.60035 9.99946L5.36475 13.9599L5.60035 14.2217Z" fill="#FCD116"/>
<path d="M6.04642 13.7783L6.2388 13.5646L5.6001 9.9991L6.04642 13.7783Z" fill="#FCD116"/>
<path d="M5.15377 13.7783L4.96139 13.5646L5.6001 9.9991L5.15377 13.7783Z" fill="#FCD116"/>
<path d="M2.91318 12.9849L3.24636 12.9849L5.60018 9.99935L2.91318 12.6147L2.91318 12.9849Z" fill="#FCD116"/>
<path d="M3.51042 13.0225L3.78249 13.0225L5.5999 9.99957L3.51042 13.0225Z" fill="#FCD116"/>
<path d="M2.87923 12.3212L2.87923 12.0189L5.5999 9.99957L2.87923 12.3212Z" fill="#FCD116"/>
<path d="M13.7885 9.99902L13.1121 10.2604L13.0975 11.0559L12.6649 10.4217L11.9795 10.6521L12.3885 9.99902H13.7885Z" fill="#FCD116"/>
<path d="M13.7885 9.99902L13.1121 9.73769L13.0975 8.94214L12.6649 9.57636L11.9795 9.34591L12.3885 9.99902H13.7885Z" fill="#FCD116"/>
<path d="M0.892983 18.2676L1.03167 17.4928L0.424002 17.0414L1.1322 16.9869L1.2993 16.2207L1.59818 16.9616L0.892983 18.2676Z" fill="#FCD116"/>
<path d="M0.899819 18.2149L1.44256 17.7277L2.06493 18.1519L1.79254 17.3993L2.31593 16.8868L1.60502 16.9089L0.899819 18.2149Z" fill="#FCD116"/>
<path d="M0.899819 1.78511L1.44256 2.27229L2.06493 1.84811L1.79254 2.60068L2.31593 3.11325L1.60502 3.09112L0.899819 1.78511Z" fill="#FCD116"/>
<path d="M0.892983 1.73238L1.03167 2.50718L0.424002 2.9586L1.1322 3.01314L1.2993 3.77933L1.59818 3.03838L0.892983 1.73238Z" fill="#FCD116"/>
</g>
<defs>
<clipPath id="clip0_275_23288">
<rect width="24" height="20" rx="4" fill="white"/>
</clipPath>
</defs>
</svg>
