<svg width="24" height="20" viewBox="0 0 24 20" fill="none" xmlns="http://www.w3.org/2000/svg">
<g clip-path="url(#clip0_275_23200)">
<path d="M0 0H24V20H0V0Z" fill="#20603D"/>
<path d="M0 0H24V15H0V0Z" fill="#FAD201"/>
<path d="M0 0H24V10H0V0Z" fill="#00A1DE"/>
<path d="M22.0647 5.22504L20.0545 5.3556L21.9658 6.05977L19.9937 5.60771L21.6759 6.83752L19.8762 5.8338L21.2146 7.50547L19.7101 6.01841L20.6135 8.01803L19.5066 6.14894L19.9134 8.34017L19.2797 6.21649L19.1622 8.45006L19.1372 5.19727L22.0647 5.22504Z" fill="#E5BE01"/>
<path d="M22.0647 5.22515L20.0545 5.0946L21.9658 4.39043L19.9937 4.84248L21.6759 3.61267L19.8762 4.6164L21.2146 2.94472L19.7101 4.43179L20.6135 2.43217L19.5066 4.30126L19.9134 2.11002L19.2797 4.2337L19.1622 2.00014L19.1372 5.25293L22.0647 5.22515Z" fill="#E5BE01"/>
<path d="M16.26 5.22504L18.2702 5.3556L16.3589 6.05977L18.331 5.60771L16.6488 6.83752L18.4485 5.8338L17.1101 7.50547L18.6146 6.01841L17.7112 8.01803L18.8181 6.14894L18.4113 8.34017L19.045 6.21649L19.1625 8.45006L19.1875 5.19727L16.26 5.22504Z" fill="#E5BE01"/>
<path d="M16.26 5.22515L18.2702 5.0946L16.3589 4.39043L18.331 4.84248L16.6488 3.61267L18.4485 4.6164L17.1101 2.94472L18.6146 4.43179L17.7112 2.43217L18.8181 4.30126L18.4113 2.11002L19.045 4.2337L19.1625 2.00014L19.1875 5.25293L16.26 5.22515Z" fill="#E5BE01"/>
<path d="M19.1622 6.17803C19.6358 6.17803 20.0197 5.75145 20.0197 5.22524C20.0197 4.69904 19.6358 4.27246 19.1622 4.27246C18.6886 4.27246 18.3047 4.69904 18.3047 5.22524C18.3047 5.75145 18.6886 6.17803 19.1622 6.17803Z" fill="#E5BE01" stroke="#00A1DE" stroke-width="2.26668"/>
</g>
<defs>
<clipPath id="clip0_275_23200">
<rect width="24" height="20" rx="4" fill="white"/>
</clipPath>
</defs>
</svg>
