<svg width="24" height="20" viewBox="0 0 24 20" fill="none" xmlns="http://www.w3.org/2000/svg">
<g clip-path="url(#clip0_275_23290)">
<path fill-rule="evenodd" clip-rule="evenodd" d="M-1.5 0H25.5V20H-1.5V0Z" fill="#199D00"/>
<path fill-rule="evenodd" clip-rule="evenodd" d="M5.30408 5.66958C5.27289 6.13681 5.23552 6.95908 5.59282 7.04341C6.02499 7.08958 5.78667 6.23068 5.94311 6.07494C5.97268 5.99798 6.02721 5.99759 6.03171 6.09466V6.82318C6.02777 7.06013 6.16794 7.1299 6.27682 7.17884C6.39016 7.16912 6.46582 7.17333 6.51022 7.29583L6.56338 8.55603C6.56338 8.55603 6.8262 8.63962 6.83872 7.8472C6.85127 7.38197 6.75505 6.99251 6.81147 6.90197C6.81344 6.81302 6.91568 6.80771 6.98655 6.85107C7.09954 6.93958 7.14985 7.04892 7.32542 7.00521C7.59254 6.92341 7.75313 6.77904 7.75707 6.55115C7.74146 6.33454 7.71959 6.11794 7.63515 5.90134C7.64693 5.86193 7.58357 5.7599 7.59532 5.72048C7.64334 5.80404 7.71639 5.79708 7.73299 5.72048C7.68753 5.55404 7.61697 5.39454 7.50261 5.32548C7.40811 5.23298 7.26977 5.25189 7.21911 5.44486C7.19566 5.6672 7.29125 5.93138 7.43697 6.14673C7.46791 6.23087 7.5114 6.37068 7.49227 6.49658C7.41475 6.54576 7.3372 6.52525 7.27223 6.44904C7.27223 6.44904 7.05961 6.27185 7.05961 6.23247C7.11603 5.83107 7.07212 5.78556 7.04087 5.67415C7.019 5.52037 6.95333 5.47107 6.90014 5.36603C6.84695 5.30337 6.77498 5.30337 6.7406 5.36603C6.64659 5.54708 6.69043 5.93568 6.75832 6.10978C6.80739 6.26986 6.88235 6.37033 6.84691 6.37033C6.81777 6.46079 6.75747 6.4399 6.7136 6.33548C6.65095 6.11966 6.6384 5.79763 6.6384 5.65267C6.61963 5.47287 6.59895 5.08939 6.49247 4.99197C6.4275 4.89369 6.3312 4.94162 6.29756 5.03134C6.29056 5.20978 6.28982 5.38818 6.30793 5.55263C6.38095 5.84103 6.40391 6.09466 6.43934 6.39001C6.44919 6.78564 6.23347 6.56165 6.24331 6.36552C6.29306 6.11076 6.28016 5.70974 6.23593 5.6081C6.20091 5.50646 6.15954 5.48138 6.07432 5.4981C6.00664 5.49353 5.83251 5.70478 5.78361 6.05521C5.78361 6.05521 5.74191 6.2356 5.72416 6.39576C5.70025 6.57673 5.59303 6.70447 5.51779 6.37029C5.45282 6.12744 5.41289 5.52951 5.30404 5.66954L5.30408 5.66958Z" fill="white"/>
<path fill-rule="evenodd" clip-rule="evenodd" d="M6.47838 7.58645C6.097 7.79359 5.72818 7.98684 5.35303 8.18703C5.36674 7.90359 5.88807 7.39195 6.24357 7.38477C6.47497 7.39195 6.41682 7.48438 6.47838 7.58648V7.58645Z" fill="white"/>
<path fill-rule="evenodd" clip-rule="evenodd" d="M6.28178 7.97853C5.68869 9.67724 7.67062 9.91392 7.89211 8.0481C7.91296 7.97153 7.99652 7.89497 8.01115 8.02025C7.9652 9.70962 6.47812 9.82571 6.22542 9.29423C6.16281 9.16896 6.14396 8.89048 6.13771 8.72337C6.10009 8.39157 5.9435 8.51919 5.91844 8.84868C5.89333 9.032 5.89963 9.08314 5.89963 9.25946C5.97898 10.5938 7.89425 10.0206 8.20542 8.91833C8.37041 8.30798 8.17824 7.85782 8.26803 7.86013C8.45812 8.08755 8.72331 7.89029 8.78181 7.81138C8.80691 7.77193 8.86959 7.74646 8.91343 7.79747C9.06169 7.91591 9.32283 7.86009 9.37711 7.65126C9.40847 7.44704 9.43353 7.23587 9.43979 7.01779C9.31861 7.05958 9.22885 7.08736 9.22049 7.1431L9.19542 7.32407C9.18501 7.38212 9.08049 7.38439 9.07638 7.31013C9.03043 7.07806 8.84038 7.0479 8.72549 7.40763C8.64818 7.47724 8.50829 7.49118 8.49363 7.38677C8.5124 7.1454 8.42469 7.1129 8.2493 7.22661C8.19287 6.74857 8.13651 6.29146 8.08009 5.81337C8.15321 5.81103 8.22008 5.87134 8.28695 5.77853C8.21375 5.52564 8.05924 5.0081 7.97356 4.97095C7.9318 4.91529 7.89622 4.95009 7.84201 4.964C7.75011 4.9965 7.66447 5.0847 7.69158 5.25642C7.80021 5.9897 7.87122 6.549 7.97986 7.28232C7.99652 7.36818 7.9318 7.48181 7.84827 7.47021C7.70624 7.36349 7.67083 7.14771 7.4285 7.15693C7.25304 7.15927 7.05247 7.37044 7.02748 7.57474C6.99823 7.73708 6.98775 7.91341 7.0274 8.05505C7.1507 8.21978 7.29899 8.20361 7.42847 8.16646C7.53499 8.11775 7.62267 7.99939 7.66029 8.0272C7.68539 8.06204 7.66651 8.45181 7.15899 8.75122C6.85201 8.90435 6.6076 8.93923 6.47608 8.66071C6.39463 8.48665 6.48234 7.82529 6.28178 7.97849V7.97853Z" fill="white"/>
<path fill-rule="evenodd" clip-rule="evenodd" d="M8.79745 6.2515C8.91649 6.20275 9.4805 5.48572 9.4805 5.48572C9.45122 5.45787 9.42509 5.43697 9.39584 5.40912C9.36449 5.37896 9.36765 5.34881 9.39584 5.31861C9.53577 5.22814 9.49087 5.02971 9.41778 4.93924C9.29663 4.87885 9.19116 4.89861 9.11386 4.94268C9.0157 5.04713 8.99278 5.21416 9.07009 5.31861C9.14532 5.35807 9.22045 5.44279 9.17028 5.4892C8.93955 5.76303 8.30772 6.23529 8.38085 6.2515C8.39646 6.27471 8.78497 6.27353 8.79745 6.2515ZM5.39172 8.78939C5.18022 9.16377 5.1618 9.7231 5.27852 9.88986C5.34054 9.96865 5.44242 10.0031 5.51779 9.9785C5.65068 9.91443 5.70883 9.61529 5.6773 9.50584C5.63293 9.42873 5.59802 9.4165 5.55372 9.48213C5.46021 9.69307 5.4214 9.54834 5.4132 9.43045C5.39886 9.20689 5.41781 9.001 5.43964 8.83795C5.46291 8.67084 5.43929 8.72193 5.39172 8.78939ZM14.4298 8.18978C14.2253 7.70068 13.9422 7.21736 13.8521 7.0317C13.7621 6.84596 13.082 5.74939 12.982 5.62607C12.761 5.33439 13.3407 5.74756 12.9086 5.16842C12.7439 5.01139 12.7343 5.00182 12.5976 4.87369C12.5286 4.81932 12.3602 4.71998 12.3304 4.88463C12.3154 5.02982 12.3235 5.10853 12.3454 5.22943C12.3623 5.31002 12.4679 5.44498 12.5199 5.52318C13.2098 6.55365 13.8216 7.59428 14.4116 8.90268C14.5048 8.85346 14.4844 8.27162 14.4299 8.18978H14.4298Z" fill="white"/>
<path fill-rule="evenodd" clip-rule="evenodd" d="M13.5323 9.82605C13.4921 9.8762 13.6316 10.0907 13.8129 10.0905C14.1161 10.0514 14.383 9.86222 14.6301 9.36413C14.6962 9.24796 14.8123 8.99953 14.8157 8.80683C14.8388 7.67695 14.7648 6.79773 14.6125 5.98105C14.6027 5.90152 14.6086 5.808 14.6208 5.78417C14.6404 5.75812 14.707 5.78429 14.7423 5.71995C14.7941 5.66117 14.6047 5.17425 14.4967 4.98671C14.4584 4.90296 14.445 4.84702 14.3815 4.99656C14.3147 5.11804 14.2699 5.33007 14.2752 5.5282C14.4198 6.64081 14.4642 7.6141 14.5587 8.72671C14.5665 8.83429 14.5522 8.99066 14.4878 9.053C14.2497 9.32925 13.9061 9.66929 13.5323 9.82605ZM17.6277 9.82019C17.4101 9.95992 17.4099 10.1207 17.5858 10.1265C17.8889 10.0874 18.2472 10.0594 18.4942 9.64488C18.5604 9.5287 18.6389 9.2146 18.6423 9.02191C18.6654 7.89202 18.629 7.04867 18.4767 6.23206C18.4669 6.15249 18.4352 5.96941 18.4473 5.94554C18.467 5.8896 18.5658 5.95163 18.6011 5.88726C18.6529 5.82851 18.3453 5.38933 18.2373 5.20179C18.199 5.11808 18.1856 5.06214 18.1221 5.21163C18.0553 5.33316 18.032 5.55117 18.0588 5.74331C18.2195 6.95144 18.3392 7.85906 18.3639 8.92984C18.35 9.03148 18.3466 9.08628 18.3037 9.21433C18.2088 9.34949 18.1037 9.51843 18.0051 9.60011C17.9066 9.68175 17.6963 9.75972 17.6277 9.82023V9.82019Z" fill="white"/>
<path fill-rule="evenodd" clip-rule="evenodd" d="M17.7912 8.73655C17.7887 8.45401 17.7947 8.21002 17.7864 7.99932C17.778 7.78858 17.7445 7.61697 17.6789 7.4674C17.6168 7.30701 17.6553 7.17815 17.6261 7.00729C17.597 6.83651 17.6042 6.58072 17.5601 6.37807C17.5481 6.29893 17.511 6.04545 17.5225 6.02115C17.5404 5.96459 17.6088 6.02291 17.6422 5.95736C17.6923 5.89674 17.4687 5.25393 17.3553 5.07037C17.3145 4.98807 17.2404 5.01627 17.1491 5.15006C17.0644 5.23815 17.0958 5.43897 17.1281 5.62998C17.3457 6.89135 17.5079 8.03303 17.4725 9.23377C17.4617 9.33588 17.7934 8.92928 17.7912 8.73655ZM16.1838 7.17209C16.047 7.16932 15.7604 6.87623 15.6768 6.70451C15.6452 6.60604 15.6654 6.50994 15.6933 6.45365C15.7439 6.41705 15.8219 6.37592 15.8802 6.41537C15.8802 6.41537 15.9406 6.50928 15.9289 6.52123C16.0036 6.561 16.0353 6.53811 16.0429 6.50436C16.048 6.44522 16.0208 6.40998 16.0205 6.34486C16.0522 6.1683 16.2338 6.14084 16.3023 6.25346C16.3523 6.32209 16.3707 6.46799 16.3783 6.56647C16.3775 6.61678 16.3041 6.55776 16.2625 6.56986C16.2208 6.58197 16.2108 6.63541 16.2075 6.68373C16.2 6.81178 16.1863 7.01725 16.1838 7.17205V7.17209ZM13.6585 9.04983C13.6962 8.66592 13.6446 7.98221 13.6412 7.75569C13.6273 7.22053 13.5487 6.18686 13.5112 6.01416C13.4691 5.68865 13.6317 6.04986 13.6092 5.86065C13.5565 5.53561 13.3942 5.31526 13.2034 5.01752C13.1419 4.92065 13.144 4.90092 13.049 5.04127C12.9439 5.30611 13.0346 5.48834 13.0618 5.69463C13.1994 6.36674 13.2796 6.98514 13.317 7.59647C13.3544 8.20779 13.3659 8.86881 13.3317 9.51268C13.4348 9.51717 13.6006 9.32737 13.6585 9.04979V9.04983Z" fill="white"/>
<path fill-rule="evenodd" clip-rule="evenodd" d="M18.2567 8.43514C18.0154 7.98534 17.6513 7.49815 17.5541 7.31702C17.4568 7.13584 16.6342 5.95647 16.5293 5.83811C16.2284 5.48682 16.6674 5.78092 16.4717 5.5096C16.3062 5.30772 16.258 5.24436 16.1164 5.12295C16.0453 5.07198 16.0023 4.9746 15.979 5.14053C15.9697 5.28631 15.96 5.45499 15.9688 5.57784C15.9683 5.64616 16.0323 5.77448 16.0873 5.8501C16.8169 6.8462 17.6128 7.86327 18.2535 9.1419C18.3447 9.08819 18.3144 8.51428 18.2567 8.43514Z" fill="white"/>
<path fill-rule="evenodd" clip-rule="evenodd" d="M7.30984 7.60482C7.29247 7.63865 7.2538 7.68248 7.26677 7.72783C7.29384 7.76861 7.3155 7.77689 7.36064 7.77912C7.3998 7.77912 7.45451 7.78939 7.46628 7.76373C7.48738 7.73794 7.50337 7.68525 7.48583 7.63556C7.44505 7.52228 7.33114 7.56447 7.30984 7.60482Z" fill="#1BA400"/>
<path fill-rule="evenodd" clip-rule="evenodd" d="M15.4511 14.1621C15.7738 14.1753 15.9849 14.1785 16.2719 14.2164C16.2719 14.2164 16.5194 14.1893 16.6078 14.1744C16.9813 14.1348 16.9979 14.7672 16.9979 14.7672C16.9938 15.1381 16.8649 15.1575 16.7004 15.1967C16.6065 15.21 16.5571 15.1342 16.5077 15.0534C16.4457 15.0823 16.3614 15.0864 16.2593 15.0707C16.1249 15.0613 15.9904 15.0619 15.856 15.0526C15.7131 15.0386 15.6371 15.0691 15.4943 15.0551C15.4648 15.1065 15.4266 15.1776 15.3392 15.1547C15.2665 15.1458 15.1804 14.9191 15.2058 14.7467C15.2583 14.6231 15.2439 14.6629 15.2384 14.6085C13.9191 14.5712 12.5872 14.5058 11.2931 14.5245C10.2806 14.5292 9.28065 14.5759 8.2807 14.6226C7.74713 14.6132 7.3396 14.5198 7.05811 14.0623C7.08331 14.0623 8.41936 14.1464 8.81012 14.1184C9.53275 14.109 10.1924 14.0437 10.9276 14.0203C12.3771 14.0483 13.814 14.0484 15.2634 14.1604C15.1248 14.055 15.1198 13.806 15.3332 13.7452C15.3514 13.7313 15.3607 13.8689 15.3926 13.8664C15.5634 13.8522 15.4885 14.1091 15.451 14.1621L15.4511 14.1621ZM9.63168 5.28477C9.41203 5.98239 9.75754 6.74547 9.9971 6.67117C10.1699 6.75067 10.28 6.38535 10.3507 5.98512C10.3991 5.87278 10.4357 5.86082 10.4606 5.91856C10.4542 6.45078 10.495 6.56867 10.6181 6.73024C10.8928 6.96574 11.1201 6.76032 11.1379 6.74047L11.3518 6.50282C11.3994 6.44715 11.4628 6.44391 11.5301 6.49293C11.5954 6.55895 11.5862 6.67293 11.7261 6.75199C11.8439 6.80434 12.0956 6.7641 12.154 6.65137C12.2324 6.50192 12.2513 6.45059 12.2876 6.39391C12.3436 6.31106 12.4392 6.34789 12.4392 6.37407C12.4302 6.42028 12.3742 6.46653 12.4124 6.54973C12.479 6.60524 12.4944 6.56953 12.5338 6.55719C12.6732 6.48317 12.7778 6.14633 12.7778 6.14633C12.784 6.02102 12.7208 6.03137 12.6798 6.05719C12.6263 6.09352 12.6228 6.10512 12.5693 6.14145C12.5012 6.1527 12.369 6.20289 12.3037 6.09047C12.2369 5.95528 12.236 5.76664 12.185 5.63032C12.185 5.62039 12.0965 5.41555 12.1789 5.40242C12.2204 5.41102 12.3092 5.43711 12.3233 5.3541C12.3669 5.27317 12.2299 5.04403 12.1361 4.92828C12.0548 4.82899 11.942 4.81703 11.8331 4.9184C11.7569 4.99633 11.7678 5.0834 11.7529 5.16594C11.7335 5.26071 11.7376 5.37731 11.8242 5.50266C11.9003 5.66934 12.0391 5.88403 11.9935 6.1859C11.9935 6.1859 11.9124 6.3286 11.7712 6.30992C11.7122 6.29567 11.6167 6.26789 11.5657 5.84922C11.5271 5.53235 11.5748 5.08895 11.4538 4.8811C11.4101 4.75559 11.3781 4.63438 11.2716 4.84907C11.243 4.93336 11.1201 5.06129 11.2092 5.32442C11.2821 5.49121 11.3118 5.7627 11.2787 6.06481C11.2282 6.15063 11.217 6.17969 11.1508 6.26555C11.0577 6.37668 10.9568 6.34832 10.8794 6.3068C10.8072 6.2527 10.7506 6.22473 10.7177 6.05285C10.7236 5.77891 10.7373 5.33043 10.6923 5.23532C10.6258 5.08797 10.5163 5.14125 10.4695 5.18578C10.2446 5.41426 10.1335 5.79977 10.0655 6.10676C10.0032 6.33047 9.9368 6.26637 9.89012 6.1761C9.77656 6.05782 9.76883 5.13274 9.63168 5.28485V5.28477Z" fill="white"/>
<path fill-rule="evenodd" clip-rule="evenodd" d="M10.2933 6.80067C10.3931 6.72216 10.3465 6.66732 10.4956 6.83302C10.6824 7.18778 10.8024 7.64728 10.8204 8.05435C10.8126 8.15466 10.8762 8.21814 10.9053 8.19634C10.9226 7.96083 11.438 7.63271 11.9106 7.58474C11.9829 7.56728 11.9478 7.41337 11.9595 7.33489C11.9312 7.04337 12.107 6.77794 12.3534 6.75677C12.6887 6.81185 12.8003 7.01075 12.806 7.31439C12.7697 7.89728 12.2232 7.9961 11.9162 8.04259C11.8691 8.06239 11.8495 8.08653 11.9162 8.11509L13.2027 8.12157L13.2684 8.16368C13.2762 8.19778 13.2496 8.16935 13.1988 8.26228C13.1481 8.35521 13.0731 8.5695 13.0693 8.71259C12.686 8.84954 12.2895 8.90954 11.8866 8.96368C11.7466 9.04235 11.6772 9.14716 11.7059 9.26513C11.753 9.39599 12.0631 9.52669 12.0631 9.5329C12.122 9.57392 12.1917 9.6697 12.0464 9.86591C11.4189 9.83525 10.9326 9.53849 10.7642 9.11966C10.7135 9.07595 10.6589 9.11942 10.6238 9.17603C10.3788 9.52696 10.1378 9.84298 9.72005 10.0108C9.47093 10.0799 9.21594 9.96829 9.0955 9.78704C9.01488 9.68388 9.01794 9.56997 8.98834 9.54528C8.85369 9.61146 7.69512 10.1584 7.84197 9.90364C8.12392 9.56829 8.6121 9.322 9.04322 8.99103C9.07433 8.88013 9.1309 8.50501 9.30116 8.38282C9.311 8.38372 9.2742 8.60314 9.27789 8.69564C9.27982 8.77157 9.27286 8.80134 9.28784 8.78181C9.31691 8.76118 9.84004 8.30446 9.88047 8.16442C9.93144 8.08411 9.89576 7.88071 9.89576 7.87454C9.79767 7.5936 9.66004 7.56974 9.60902 7.43017C9.56311 7.24474 9.58389 7.0331 9.67927 6.97411C9.76399 6.88868 9.86429 6.89923 9.95683 6.99259C10.0625 7.09774 10.1563 7.30325 10.1835 7.45634C10.1653 7.51689 10.0452 7.4161 10.0035 7.44618C10.0773 7.53103 10.1117 7.62892 10.1384 7.74868C10.2065 8.06935 10.1857 8.19399 10.1171 8.40134C9.8849 8.94392 9.58807 9.10583 9.32837 9.30685C9.32145 9.30958 9.31684 9.44454 9.4145 9.51751C9.44818 9.55681 9.58364 9.57696 9.74293 9.52024C10.0507 9.33376 10.3702 8.99021 10.5289 8.60747C10.5749 8.31798 10.5111 8.01099 10.4433 7.74325C10.3412 7.48161 10.221 7.10802 10.221 7.10185C10.2171 6.93868 10.229 6.88208 10.2934 6.80067H10.2933ZM6.92502 5.29169C7.0731 5.37017 7.3515 5.33677 7.33972 5.07146C7.33972 5.04802 7.33434 4.96864 7.33224 4.94712C7.302 4.86892 7.21956 4.88825 7.20086 4.96899C7.19499 4.99544 7.21133 5.03853 7.18978 5.05181C7.17741 5.06567 7.13009 5.05751 7.13206 4.98423C7.13206 4.96087 7.11659 4.93579 7.10724 4.92095C7.09788 4.91415 7.09194 4.91228 7.075 4.91228C7.05432 4.91317 7.05468 4.91915 7.04336 4.93845C7.03854 4.95806 7.03193 4.97724 7.03193 4.9995C7.02933 5.0256 7.02047 5.03489 7.00321 5.03876C6.98391 5.03876 6.98827 5.0411 6.97262 5.03005C6.96334 5.01872 6.95174 5.01442 6.95174 4.99517C6.95174 4.97521 6.94766 4.9429 6.94225 4.92974C6.93406 4.91771 6.92087 4.91216 6.90604 4.9079C6.82518 4.90821 6.81955 5.01071 6.82423 5.04962C6.81815 5.05696 6.81474 5.24083 6.92502 5.29169Z" fill="white"/>
<path fill-rule="evenodd" clip-rule="evenodd" d="M11.2654 7.33312C11.4134 7.4116 11.7659 7.36644 11.6801 7.11289C11.6801 7.08945 11.6747 7.01004 11.6726 6.98855C11.6423 6.91035 11.5599 6.92968 11.5412 7.01043C11.5353 7.03687 11.5517 7.07996 11.5301 7.09324C11.5177 7.10711 11.4704 7.09894 11.4724 7.02566C11.4724 7.0023 11.4569 6.97722 11.4476 6.96238C11.4382 6.95558 11.4323 6.95371 11.4153 6.95371C11.3947 6.95461 11.395 6.96058 11.3837 6.97988C11.3789 6.99949 11.3723 7.01867 11.3723 7.04093C11.3697 7.06703 11.3608 7.07632 11.3435 7.08019C11.3242 7.08019 11.3286 7.08254 11.313 7.07148C11.3037 7.06015 11.2921 7.05586 11.2921 7.0366C11.2921 7.01664 11.288 6.98433 11.2826 6.97117C11.2744 6.95914 11.2612 6.95359 11.2464 6.94933C11.1655 6.94964 11.1599 7.05215 11.1646 7.09105C11.1585 7.0984 11.1551 7.28226 11.2654 7.33312ZM13.7966 6.4882C13.9447 6.56668 14.2231 6.53328 14.2113 6.26797C14.2113 6.24453 14.2059 6.16515 14.2038 6.14363C14.1736 6.06543 14.0911 6.08476 14.0724 6.1655C14.0666 6.19195 14.0829 6.23504 14.0614 6.24832C14.049 6.26218 14.0017 6.25402 14.0036 6.18074C14.0036 6.15738 13.9882 6.1323 13.9788 6.11746C13.9695 6.11066 13.9635 6.10879 13.9466 6.10879C13.9259 6.10968 13.9263 6.11566 13.9149 6.13496C13.9101 6.15457 13.9035 6.17375 13.9035 6.19601C13.9009 6.22211 13.8921 6.2314 13.8748 6.23527C13.8555 6.23527 13.8598 6.23761 13.8442 6.22656C13.8349 6.21523 13.8233 6.21093 13.8233 6.19168C13.8233 6.17172 13.8192 6.13941 13.8138 6.12625C13.8056 6.11422 13.7925 6.10867 13.7776 6.10441C13.6968 6.10472 13.6911 6.20722 13.6958 6.24613C13.6897 6.25347 13.6863 6.43734 13.7966 6.4882ZM15.1076 8.61046C14.8495 8.93363 14.9633 9.46808 15.0216 9.58324C15.1067 9.77238 15.1752 9.89367 15.3407 9.98722C15.4916 10.1105 15.609 10.0335 15.6738 9.94711C15.8256 9.77238 15.8274 9.32625 15.8986 9.23785C15.9486 9.07547 16.0744 9.1032 16.1354 9.17515C16.1946 9.26968 16.2643 9.33062 16.3513 9.38211C16.4928 9.52086 16.6618 9.54617 16.8284 9.41976C16.9421 9.34882 17.0161 9.25718 17.0827 9.07527C17.1568 8.85535 17.1155 7.83902 17.1007 7.23668C17.095 7.18941 16.9536 6.40836 16.9536 6.39964C16.9536 6.39089 16.9349 6.00101 16.9194 5.90812C16.9166 5.87043 16.9082 5.85961 16.9438 5.86437C16.9815 5.89965 16.9866 5.90187 17.0102 5.91347C17.0482 5.92121 17.0823 5.84922 17.0593 5.783L16.7061 5.05906C16.6777 5.02804 16.6411 4.99398 16.5962 5.06781C16.5532 5.10965 16.5075 5.18539 16.5089 5.28277C16.5193 5.45433 16.5465 5.62886 16.5569 5.80047L16.6982 6.6814C16.7427 7.30937 16.7539 7.82332 16.7983 8.45129C16.7921 8.71718 16.7177 8.94902 16.648 8.98246C16.648 8.98246 16.5418 9.05082 16.4706 8.97531C16.4188 8.95222 16.2116 8.59152 16.2116 8.59152C16.1056 8.48359 16.0357 8.51445 15.9603 8.59152C15.7524 8.81461 15.6583 9.23191 15.517 9.51976C15.4806 9.58402 15.3776 9.63898 15.2636 9.51507C14.9738 9.07531 15.1436 8.44957 15.1076 8.61046ZM13.863 4.94797C13.9957 5.00968 14.0893 5.30824 14.0588 5.45402C14.0324 5.63437 13.962 5.82914 13.9114 5.80379C13.8564 5.78113 13.9489 5.62449 13.8961 5.46019C13.8667 5.35324 13.6857 5.15781 13.7047 5.10019C13.6674 4.97949 13.7817 4.92668 13.863 4.94797Z" fill="white"/>
<path fill-rule="evenodd" clip-rule="evenodd" d="M15.5351 8.78701C15.563 8.42846 15.5159 8.20983 15.5075 7.99908C15.4992 7.78834 15.293 6.18037 15.2512 6.02092C15.2007 5.71944 15.4516 5.98049 15.4242 5.80514C15.3374 5.58404 15.1214 5.26217 15.0536 5.07014C15.0128 4.98787 15.03 4.91467 14.9386 5.0485C14.8539 5.35615 14.8245 5.60764 14.8569 5.79869C15.0744 7.06002 15.2975 8.10885 15.2621 9.30959C15.3652 9.31037 15.4841 9.04733 15.5351 8.78705V8.78701ZM17.8016 5.45576C17.9225 5.52256 17.9934 5.89674 17.98 6.00365C17.956 6.19893 17.8918 6.40979 17.8457 6.38233C17.7956 6.3578 17.8557 6.09276 17.8317 6.01033C17.8049 5.89455 17.6399 5.68299 17.6573 5.62061C17.6232 5.48994 17.7274 5.43276 17.8016 5.45576ZM8.81321 8.10889C8.92887 8.15795 8.99672 8.43291 8.98393 8.51151C8.96087 8.65494 8.89945 8.8099 8.8554 8.78975C8.80744 8.7717 8.86503 8.57694 8.842 8.51639C8.83223 8.36951 8.67167 8.29346 8.67501 8.23002C8.64506 8.11338 8.74219 8.09194 8.81321 8.10893V8.10889Z" fill="white"/>
<path fill-rule="evenodd" clip-rule="evenodd" d="M11.6082 8.52246C11.7575 8.53301 11.8322 8.66317 11.6923 8.71778C11.5543 8.77024 11.4218 8.81125 11.4211 9.03278C11.4722 9.34145 11.3512 9.23551 11.279 9.1936C11.1939 9.12574 10.9552 8.96235 10.9212 8.60961C10.9161 8.52543 10.9752 8.45457 11.0703 8.45508C11.2135 8.49832 11.4249 8.50149 11.6082 8.52246H11.6082Z" fill="#1B9D00"/>
<path fill-rule="evenodd" clip-rule="evenodd" d="M5.72103 4.85927C5.89172 4.91646 5.90181 5.19521 5.88922 5.27669C5.86648 5.42544 5.80601 5.58607 5.76259 5.56513C5.71534 5.54646 5.76073 5.34455 5.73805 5.28173C5.71274 5.19353 5.56853 5.03236 5.58487 4.98486C5.55278 4.88529 5.65107 4.84169 5.72103 4.85927ZM9.09185 6.17333C8.96089 6.25205 8.91009 6.48662 8.99166 6.62326C9.0678 6.74357 9.18807 6.69896 9.20411 6.69896C9.33243 6.71681 9.40854 6.43169 9.40854 6.43169C9.40854 6.43169 9.41258 6.35154 9.26021 6.50302C9.19609 6.51638 9.18807 6.48962 9.17204 6.44951C9.15868 6.37529 9.16135 6.30107 9.19208 6.22681C9.21479 6.15556 9.16533 6.12435 9.09185 6.17333ZM10.0741 4.75146C10.0083 4.80048 9.87731 4.95126 9.8733 5.12501C9.86933 5.22302 9.85291 5.22271 9.91064 5.28509C9.95237 5.35197 9.99445 5.34595 10.0787 5.29693C10.1271 5.25732 10.1434 5.23103 10.1597 5.16462C10.1798 5.0533 10.0538 5.21744 10.0377 5.09353C10.0097 4.97845 10.0906 4.93134 10.1668 4.82001C10.1693 4.74373 10.1678 4.6897 10.0741 4.75146ZM10.8655 4.90771C10.8371 4.97732 10.8031 5.34103 10.8088 5.34103C10.7861 5.44939 10.9108 5.49576 10.9675 5.35646C11.0526 5.10111 11.0526 4.99279 11.0582 4.88443C11.0318 4.71943 10.9316 4.72458 10.8655 4.90771ZM15.8549 7.7288C15.8719 7.7099 16.5579 7.16814 16.5579 7.16814C16.6278 7.14083 16.6127 7.44744 16.5806 7.44533C16.5938 7.50619 15.904 8.02697 15.8548 8.00599C15.8208 8.0333 15.7868 7.79603 15.8548 7.7288H15.8549ZM16.4803 7.72412C16.6012 7.79091 16.6494 8.184 16.636 8.29091C16.6403 8.4988 16.5195 8.66552 16.4734 8.6381C16.4232 8.61357 16.4778 8.38001 16.4537 8.29759C16.427 8.18181 16.3243 7.96392 16.3416 7.90154C16.3075 7.77087 16.4061 7.70111 16.4803 7.72412ZM12.3997 9.41708C12.4474 9.33958 12.5948 9.22806 12.5982 9.22806C12.6662 9.19025 12.7326 9.25771 12.7286 9.25326C12.7399 9.32888 12.6855 9.39923 12.7026 9.50005C12.7174 9.54068 12.7283 9.5858 12.7953 9.56861C12.9043 9.47337 13.0052 9.46724 13.1141 9.46119C13.1976 9.46677 13.2009 9.6238 13.1481 9.62498C12.947 9.67353 12.8568 9.73337 12.7132 9.79427C12.6452 9.83837 12.5868 9.78244 12.5868 9.77615C12.5868 9.76986 12.547 9.73326 12.5748 9.6331C12.5797 9.55279 12.5506 9.50876 12.4904 9.51787C12.4451 9.54513 12.4051 9.56318 12.3824 9.50525C12.3735 9.46247 12.3706 9.44166 12.3997 9.41708ZM17.202 9.6288C17.2314 9.67037 17.2505 9.70884 17.1997 9.77712C17.1516 9.82611 17.1177 9.8531 17.0696 9.90208C17.0469 9.94513 17.0323 10.0104 17.1018 10.0313C17.2301 10.0713 17.5268 9.85751 17.5268 9.85306C17.5749 9.81298 17.5589 9.73724 17.5548 9.73724C17.5268 9.70162 17.4636 9.72279 17.4211 9.71701C17.4008 9.71701 17.3344 9.70583 17.366 9.64052C17.3924 9.5999 17.4018 9.57501 17.4197 9.52494C17.4398 9.47595 17.4225 9.4433 17.3504 9.41654C17.2769 9.40169 17.2475 9.40912 17.166 9.41654C17.1219 9.42693 17.1068 9.44884 17.0988 9.50822C17.102 9.5983 17.1513 9.59318 17.202 9.6288Z" fill="white"/>
<path fill-rule="evenodd" clip-rule="evenodd" d="M12.4258 7.41195C12.407 7.44809 12.3434 7.44633 12.2838 7.40805C12.2242 7.36977 12.1911 7.30934 12.2099 7.27316C12.2287 7.23699 12.2923 7.23879 12.3519 7.27715C12.4115 7.31551 12.4446 7.37582 12.4258 7.41195ZM9.2944 5.31844C9.25875 5.32812 9.21217 5.29281 9.19034 5.23957C9.16851 5.18633 9.17976 5.13531 9.21537 5.12562C9.25098 5.11594 9.2976 5.15121 9.31943 5.20445C9.34127 5.25769 9.33005 5.30875 9.2944 5.31844Z" fill="#259F00"/>
<path fill-rule="evenodd" clip-rule="evenodd" d="M15.4891 14.6475C15.8178 14.6653 16.1267 14.6516 16.4554 14.6695C16.515 14.7257 16.4725 14.8638 16.4328 14.8539C16.3259 14.8509 16.2643 14.848 16.1574 14.845C16.1537 14.7286 15.8865 14.7477 15.8942 14.8487C15.7498 14.868 15.6197 14.8431 15.4754 14.8371C15.4327 14.7782 15.4382 14.6718 15.4891 14.6475H15.4891Z" fill="#209000"/>
</g>
<defs>
<clipPath id="clip0_275_23290">
<rect width="24" height="20" rx="4" fill="white"/>
</clipPath>
</defs>
</svg>
