<svg width="24" height="20" viewBox="0 0 24 20" fill="none" xmlns="http://www.w3.org/2000/svg">
<g clip-path="url(#clip0_113_10617)">
<path fill-rule="evenodd" clip-rule="evenodd" d="M-0.75 0H26.25V20H-0.75V0Z" fill="white"/>
<path fill-rule="evenodd" clip-rule="evenodd" d="M-0.75 0H26.25V10H-0.75V0Z" fill="#DF0000"/>
<path fill-rule="evenodd" clip-rule="evenodd" d="M5.47661 1.67603C4.23 1.99361 3.30371 3.01924 3.04185 4.41357C2.68605 6.30811 3.79649 8.16315 5.50511 8.5589C3.77894 9.10578 1.99548 8.0034 1.50783 6.1034C1.02048 4.2034 2.01258 2.22174 3.72269 1.67999C4.32296 1.48978 4.87563 1.48857 5.47668 1.67603H5.47661Z" fill="white"/>
<path fill-rule="evenodd" clip-rule="evenodd" d="M4.98632 4.58146L5.16984 5.21141L4.68489 4.82683L4.20227 5.21504L4.38163 4.58404L3.90039 4.19429L4.49574 4.18858L4.68069 3.55916L4.86935 4.18704L5.46519 4.18808L4.98632 4.58146ZM5.64478 6.75058L5.8283 7.38054L5.34335 6.99596L4.86073 7.38416L5.04009 6.75321L4.55885 6.36341L5.15424 6.35771L5.33915 5.72829L5.52785 6.35621L6.12365 6.35721L5.64478 6.75058ZM7.83572 6.73496L8.01924 7.36491L7.53429 6.98033L7.05167 7.36854L7.23103 6.73758L6.74979 6.34779L7.34518 6.34208L7.53009 5.71266L7.71879 6.34058L8.31459 6.34158L7.83572 6.73496ZM8.48927 4.58341L8.67279 5.21333L8.18784 4.82875L7.70522 5.21696L7.88458 4.586L7.40334 4.19625L7.99873 4.19054L8.18368 3.56112L8.3723 4.189L8.96818 4.19004L8.48927 4.58341ZM6.75467 3.15608L6.93819 3.786L6.45324 3.40141L5.97062 3.78962L6.14998 3.15866L5.66874 2.76887L6.26409 2.76321L6.44904 2.13379L6.63774 2.76162L7.23354 2.76266L6.75467 3.15608Z" fill="white"/>
</g>
<defs>
<clipPath id="clip0_113_10617">
<rect width="24" height="20" rx="4" fill="white"/>
</clipPath>
</defs>
</svg>
