<svg width="24" height="20" viewBox="0 0 24 20" fill="none" xmlns="http://www.w3.org/2000/svg">
<g clip-path="url(#clip0_275_23302)">
<path fill-rule="evenodd" clip-rule="evenodd" d="M-1.6499 0H34.3501V20H-1.6499V0Z" fill="white"/>
<path fill-rule="evenodd" clip-rule="evenodd" d="M-1.6499 13.333H34.3501V19.9998H-1.6499V13.333Z" fill="#DE2918"/>
<path fill-rule="evenodd" clip-rule="evenodd" d="M-1.6499 6.66699H34.3501V13.3338H-1.6499V6.66699Z" fill="#08399C"/>
<path fill-rule="evenodd" clip-rule="evenodd" d="M8.55861 3.63215C8.41728 6.04039 8.33635 7.36012 8.00634 7.97082C7.6495 8.62664 7.30234 9.1068 5.90997 9.68496C4.51743 9.10645 4.17044 8.62637 3.8135 7.97051C3.48349 7.35996 3.40252 6.04043 3.26123 3.63223L3.467 3.55523C3.88125 3.41484 4.1903 3.30195 4.41893 3.25184C4.74634 3.17484 5.0246 3.08777 5.90452 3.06738C6.78445 3.08418 7.06408 3.17664 7.39149 3.25363C7.61825 3.30734 7.94053 3.41305 8.35168 3.55613L8.55854 3.63223L8.55861 3.63215Z" fill="#DE2918"/>
<path fill-rule="evenodd" clip-rule="evenodd" d="M8.35563 3.55262C8.22196 5.95566 8.11013 7.05613 7.93575 7.58543C7.59734 8.49141 7.06156 8.98812 5.90847 9.46191C4.75534 8.9877 4.21956 8.49082 3.88122 7.58496C3.70681 7.05605 3.59663 5.9584 3.4668 3.5498C3.87229 3.4091 4.19021 3.2991 4.41883 3.24902C4.74624 3.17199 5.0245 3.08129 5.90443 3.06445C6.78435 3.08129 7.06588 3.17199 7.39329 3.24898C7.62191 3.2991 7.94637 3.40906 8.35563 3.55223V3.55262Z" fill="#08399C"/>
<path fill-rule="evenodd" clip-rule="evenodd" d="M5.90713 4.28906L5.96243 4.43449L6.20536 4.47148L6.04793 4.57695L6.20016 4.69L5.97874 4.73121L5.91138 4.86301L5.83559 4.7273L5.62482 4.6941L5.76826 4.57855L5.62061 4.47344L5.85387 4.43371L5.90713 4.28906Z" fill="#FFCC00"/>
<path fill-rule="evenodd" clip-rule="evenodd" d="M7.85193 7.01621L7.71728 6.89793L7.61993 6.72004L7.42931 6.53629L7.32996 6.35062L7.13931 6.16109L7.04604 5.97543L6.94468 5.88453L6.87778 5.81297L6.70555 5.98074L6.61168 6.16297L6.49475 6.28078L6.36626 6.1693L6.26912 5.97918L5.90849 5.26758L5.54779 5.97918L5.45065 6.1693L5.32219 6.28078L5.20522 6.16297L5.11136 5.98074L4.93916 5.81297L4.87222 5.88453L4.77087 5.97547L4.6776 6.16109L4.48695 6.35062L4.38763 6.53629L4.19698 6.72004L4.09966 6.89793L3.96533 7.01898C4.03508 7.67859 4.4135 8.19539 4.6197 8.4318C4.84979 8.68004 5.32419 9.01219 5.9043 9.23203C6.48607 9.01688 6.96704 8.68004 7.19714 8.4318C7.40333 8.19539 7.78175 7.67859 7.85193 7.01621Z" fill="white"/>
<path fill-rule="evenodd" clip-rule="evenodd" d="M6.48699 3.2766L6.54229 3.42203L6.78522 3.45902L6.62779 3.56449L6.78002 3.67754L6.55861 3.71875L6.49125 3.85055L6.41545 3.71484L6.20469 3.68164L6.34812 3.56609L6.20047 3.46098L6.43373 3.42125L6.48699 3.2766ZM5.32754 3.27441L5.38284 3.41984L5.62577 3.45684L5.46834 3.5623L5.62057 3.67535L5.39915 3.71656L5.33179 3.84836L5.256 3.71266L5.04523 3.67945L5.18867 3.56391L5.04102 3.45879L5.27428 3.41906L5.32754 3.27441Z" fill="#FFCC00"/>
<path fill-rule="evenodd" clip-rule="evenodd" d="M7.55103 7.93043L7.28848 7.93133L7.04618 7.91129L6.7527 7.75137L6.42191 7.75355L6.13543 7.90906L5.90948 7.93129L5.68349 7.90906L5.39704 7.75359L5.06622 7.75137L4.77277 7.91129L4.53047 7.93133L4.26462 7.92727L4.13623 7.68559L4.14101 7.68004L4.53378 7.75223L4.77604 7.73223L5.06952 7.57227L5.40034 7.57449L5.6868 7.73L5.91275 7.75219L6.13873 7.73L6.42518 7.57449L6.756 7.57227L7.04945 7.73223L7.29175 7.75223L7.67404 7.67777L7.6791 7.68895L7.55103 7.93043ZM4.51107 8.30191L4.77098 8.28187L5.06446 8.12195L5.39525 8.12418L5.6817 8.27965L5.90768 8.30188L6.13363 8.27969L6.42012 8.12418L6.75094 8.12195L7.04439 8.28187L7.30782 8.30191L7.4778 8.0691L7.47207 8.06383L7.28996 8.12281L7.04766 8.10281L6.75421 7.94289L6.42339 7.94508L6.13694 8.10059L5.91095 8.12281L5.685 8.10059L5.39852 7.94512L5.06773 7.94289L4.77428 8.10281L4.53198 8.12285L4.3535 8.07285L4.35135 8.08262L4.51107 8.30191Z" fill="#08399C"/>
</g>
<defs>
<clipPath id="clip0_275_23302">
<rect width="24" height="20" rx="4" fill="white"/>
</clipPath>
</defs>
</svg>
