<svg width="24" height="20" viewBox="0 0 24 20" fill="none" xmlns="http://www.w3.org/2000/svg">
<g clip-path="url(#clip0_275_23104)">
<path fill-rule="evenodd" clip-rule="evenodd" d="M0 19.8113L34.7143 0H0V19.8113Z" fill="#0000D6"/>
<path fill-rule="evenodd" clip-rule="evenodd" d="M35.9999 0L0.955078 20H35.9999V0Z" fill="#006000"/>
<path fill-rule="evenodd" clip-rule="evenodd" d="M35.9999 0H34.0713L0 18.9594V20H1.92857L35.9999 1.07812V0.00015625L35.9999 0Z" fill="#FFCC00"/>
<path fill-rule="evenodd" clip-rule="evenodd" d="M2.51003 0.356445L2.92688 1.70184L4.27934 1.70082L3.18447 2.53105L3.60339 3.87582L2.50986 3.04359L1.41629 3.87563L1.83542 2.53105L0.740723 1.70043L2.09318 1.70184L2.51003 0.356445ZM9.2299 0.356445L9.64672 1.70184L10.9992 1.70082L9.90431 2.53105L10.3232 3.87582L9.22969 3.04359L8.13612 3.87563L8.55525 2.53105L7.46056 1.70043L8.81302 1.70184L9.2299 0.356445ZM9.2299 6.00016L9.64672 7.34555L10.9992 7.34453L9.90431 8.17477L10.3232 9.51953L9.22969 8.68731L8.13612 9.51934L8.55525 8.17477L7.46056 7.34414L8.81302 7.34555L9.2299 6.00016ZM5.8896 3.21121L6.30645 4.5566L7.65891 4.55559L6.56404 5.38582L6.98296 6.73059L5.88943 5.89836L4.79586 6.73039L5.21499 5.38582L4.12029 4.5552L5.47275 4.5566L5.8896 3.21121ZM2.51003 6.00016L2.92688 7.34555L4.27934 7.34453L3.18447 8.17477L3.60339 9.51953L2.50986 8.68731L1.41629 9.51934L1.83542 8.17477L0.740723 7.34414L2.09318 7.34555L2.51003 6.00016Z" fill="white"/>
</g>
<defs>
<clipPath id="clip0_275_23104">
<rect width="24" height="20" rx="4" fill="white"/>
</clipPath>
</defs>
</svg>
