<svg width="24" height="20" viewBox="0 0 24 20" fill="none" xmlns="http://www.w3.org/2000/svg">
<g clip-path="url(#clip0_275_23160)">
<path fill-rule="evenodd" clip-rule="evenodd" d="M12.2397 0.211914H24.0002V19.9996H12.2397V0.211914Z" fill="#009FCA"/>
<path d="M12.6635 0H0V20.0002H12.6635V0Z" fill="#009FCA"/>
<path fill-rule="evenodd" clip-rule="evenodd" d="M0.000488281 0H14.8451V8.19154H0.000488281V0Z" fill="white"/>
<path d="M0.0006 0L0 0.614875L3.54244 2.63733L4.8753 2.68021L0.0006375 0H0.0006Z" fill="#CC0000"/>
<path d="M1.51709 0L5.8117 2.49258V0H1.51709Z" fill="#000066"/>
<path d="M6.38456 0V3.182H0.000488281V5.00029H6.38456V8.18225H8.349V5.00029H14.7332V3.182H8.34904V4.16667e-05H6.38456V0Z" fill="#CC0000"/>
<path d="M8.92188 0V2.34867L13.1236 0.01825L8.92188 0Z" fill="#000066"/>
<path d="M9.05469 2.60505L10.2365 2.59451L14.8271 0.0185547L13.6088 0.040638L9.05469 2.60505Z" fill="#CC0000"/>
<path d="M0.000488281 5.53048V7.27298L2.94709 5.5484L0.000488281 5.53027V5.53048Z" fill="#000066"/>
<path d="M11.3468 5.60242L10.1185 5.5918L14.7488 8.15334L14.7183 7.5673L11.3469 5.60242H11.3468ZM1.15114 8.19617L5.49266 5.6638L4.3524 5.67213L0.000488281 8.19276" fill="#CC0000"/>
<path d="M14.7955 0.719333L11.2892 2.65133L14.7489 2.66571V5.54458H11.8023L14.7216 7.30212L14.7645 8.19621L13.2052 8.1755L8.93768 5.84763V8.19621H5.82743V5.84763L1.8243 8.18992L0.0163125 8.19625V16.3783H29.4819V0.0141667L14.8262 0M0.0155625 0.9235L0 2.62279L3.10208 2.666L0.0155625 0.9235Z" fill="#000066"/>
<path fill-rule="evenodd" clip-rule="evenodd" d="M14.7407 0H29.4813V16.5306H14.7407V0Z" fill="#009FCA"/>
<path d="M15.5557 8.15137H-0.0683594V16.5306H15.5557V8.15137Z" fill="#009FCA"/>
<path fill-rule="evenodd" clip-rule="evenodd" d="M22.2499 5.11248L23.2838 5.11173L22.4468 5.7464L22.7671 6.77448L21.9311 6.13823L21.0951 6.77432L21.4155 5.7464L20.5786 5.1114L21.6126 5.11248L21.9312 4.08398L22.2499 5.11248ZM19.6549 13.3117L20.6888 13.3109L19.8518 13.9456L20.172 14.9736L19.336 14.3374L18.5001 14.9735L18.8205 13.9456L17.9836 13.3106L19.0175 13.3117L19.3362 12.2831L19.6549 13.3117ZM22.2499 11.4556L23.2838 11.4549L22.4468 12.0895L22.7671 13.1176L21.9311 12.4814L21.0951 13.1174L21.4155 12.0895L20.5786 11.4545L21.6126 11.4556L21.9312 10.4271L22.2499 11.4556ZM11.0917 17.4022L12.1256 17.4014L11.2886 18.0362L11.6089 19.0642L10.7729 18.428L9.9369 19.0641L10.2573 18.0362L9.42041 17.4012L10.4544 17.4022L10.773 16.3737L11.0917 17.4022ZM13.4382 14.2153L12.4042 14.2161L13.2412 13.5814L12.921 12.5533L13.757 13.1896L14.593 12.5535L14.2726 13.5814L15.1094 14.2164L14.0755 14.2153L13.7568 15.2438L13.4382 14.2153ZM16.4872 9.53015L15.4533 9.5309L16.2903 8.89619L15.97 7.86815L16.806 8.5044L17.642 7.86832L17.3216 8.89623L18.1584 9.53123L17.1245 9.53015L16.8058 10.5587L16.4872 9.53015ZM19.0498 8.55678L18.0158 8.55753L18.8528 7.92286L18.5326 6.89478L19.3686 7.53103L20.2045 6.89494L19.8841 7.92286L20.721 8.55786L19.6871 8.55678L19.3684 9.58528L19.0498 8.55678ZM16.4872 16.6658L15.4533 16.6666L16.2903 16.0319L15.97 15.0038L16.806 15.6401L17.642 15.004L17.3216 16.0319L18.1584 16.6669L17.1245 16.6658L16.8058 17.6943L16.4872 16.6658ZM13.4382 17.4949L12.4042 17.4957L13.2412 16.8609L12.921 15.8329L13.757 16.4691L14.593 15.833L14.2726 16.8609L15.1094 17.4959L14.0755 17.4949L13.7568 18.5234L13.4382 17.4949Z" fill="#FFF40D"/>
</g>
<defs>
<clipPath id="clip0_275_23160">
<rect width="24" height="20" rx="4" fill="white"/>
</clipPath>
</defs>
</svg>
