<svg width="24" height="20" viewBox="0 0 24 20" fill="none" xmlns="http://www.w3.org/2000/svg">
<g clip-path="url(#clip0_275_23281)">
<path fill-rule="evenodd" clip-rule="evenodd" d="M-1.5 13.334H25.5V16.6668H-1.5V13.334Z" fill="#FFE700"/>
<path fill-rule="evenodd" clip-rule="evenodd" d="M-1.5 10H25.5V13.3329H-1.5V10Z" fill="black"/>
<path fill-rule="evenodd" clip-rule="evenodd" d="M-1.5 6.66699H25.5V9.99984H-1.5V6.66699Z" fill="#DE3908"/>
<path fill-rule="evenodd" clip-rule="evenodd" d="M-1.5 3.33398H25.5V6.66684H-1.5V3.33398Z" fill="#FFE700"/>
<path fill-rule="evenodd" clip-rule="evenodd" d="M-1.5 0H25.5V3.33285H-1.5V0Z" fill="black"/>
<path fill-rule="evenodd" clip-rule="evenodd" d="M14.8024 9.99941C14.8024 11.7191 13.5477 13.1131 12.0001 13.1131C10.4524 13.1131 9.19775 11.7191 9.19775 9.99941C9.19775 8.27977 10.4524 6.88574 12.0001 6.88574C13.5477 6.88574 14.8024 8.27977 14.8024 9.99941Z" fill="#FFFDFF" stroke="black" stroke-width="0.924029"/>
<path fill-rule="evenodd" clip-rule="evenodd" d="M11.5057 7.61312L11.3237 7.24082C11.3939 7.16281 11.512 7.10254 11.7003 7.10254C11.7003 7.11672 11.6812 7.51035 11.6812 7.51035L11.5057 7.61316V7.61312Z" fill="#DE3108" stroke="black" stroke-width="0.924029"/>
<path fill-rule="evenodd" clip-rule="evenodd" d="M11.6812 7.51348L11.7067 7.10215C11.7067 7.10215 12.0833 7.07731 12.2876 7.35035C12.2907 7.34684 12.0865 7.6695 12.0865 7.6695L11.6812 7.51348Z" fill="#FFE700" stroke="black" stroke-width="0.924029"/>
<path fill-rule="evenodd" clip-rule="evenodd" d="M12.0928 7.66582L12.2779 7.34668C12.4023 7.49211 12.4534 7.59492 12.4726 7.75098C12.4757 7.75449 12.1789 7.8325 12.1789 7.82895C12.1789 7.82539 12.096 7.66937 12.0928 7.66582H12.0928Z" fill="#DE3108" stroke="black" stroke-width="0.924029"/>
<path fill-rule="evenodd" clip-rule="evenodd" d="M11.5982 12.9357C11.5982 12.9357 11.9461 12.4924 12.6227 12.5882C12.5205 12.4038 12.1918 12.4251 12.1918 12.4251C12.1918 12.4251 12.0897 11.5634 12.1695 11.5208C12.2492 11.4782 12.5875 11.5244 12.5875 11.5244C12.6322 11.5244 12.7088 11.3896 12.6482 11.3045C12.5875 11.2194 12.4088 10.8932 12.4822 10.8293C12.5557 10.7655 12.9546 10.8648 12.9546 10.8648L11.828 9.26196C11.828 9.26196 11.7131 8.65911 11.9429 8.36833C12.2205 8.11302 12.1918 7.83641 12.1823 7.83993C12.1439 7.55981 11.761 7.35766 11.5024 7.61653C11.3493 7.82219 11.4514 7.97825 11.4514 7.97825C11.4514 7.97825 11.0492 8.0988 11.0333 8.1768C11.0173 8.25485 11.4865 8.16266 11.4865 8.16266L11.4418 8.52083C11.4418 8.52083 10.529 9.44278 11.228 10.2407C11.2344 10.2371 11.2503 10.2052 11.2503 10.2052C11.2503 10.2052 11.4961 10.5421 11.7545 10.6165C11.9971 10.8932 11.9748 10.8506 11.9748 10.8506C11.9748 10.8506 12.0226 11.2868 11.978 11.3719C11.9174 11.3506 11.2982 11.3258 11.2056 11.3648C11.1226 11.3932 10.8035 11.3754 10.8833 11.9534C10.9439 11.7974 10.9982 11.6591 10.9982 11.6591C10.9982 11.6591 10.9886 11.8683 11.0652 11.9428C11.0524 11.7229 11.1386 11.574 11.1386 11.574C11.1386 11.574 11.1546 11.8152 11.2025 11.8506C11.2503 11.8861 11.2503 11.4605 11.5152 11.496C11.7801 11.5315 11.9716 11.5208 11.9716 11.5208C11.9716 11.5208 12.061 12.3541 12.0322 12.4322C11.8407 12.3825 11.3844 12.4534 11.3556 12.5811C11.6237 12.5634 11.7482 12.5988 11.7482 12.5988C11.7482 12.5988 11.5312 12.8116 11.5982 12.9357Z" fill="black" stroke="black" stroke-width="0.866196" stroke-linecap="round" stroke-linejoin="round"/>
<path fill-rule="evenodd" clip-rule="evenodd" d="M11.7057 8.38867C11.7057 8.38867 11.0416 9.20207 11.3281 9.82449C11.3434 9.7377 11.3367 9.68316 11.3463 9.68672C11.3303 9.67609 11.4287 9.7616 11.4212 9.74496C11.4233 9.69996 11.3912 9.60356 11.3912 9.60356L11.4811 9.62848L11.4287 9.52031L11.556 9.53695C11.556 9.53695 11.511 9.40383 11.526 9.40383C11.541 9.40383 11.6308 9.41211 11.6308 9.41211C11.442 9.03551 11.6202 8.72273 11.7057 8.38867Z" fill="#9CA69C" stroke="#9CA69C" stroke-width="0.866196" stroke-linecap="round" stroke-linejoin="round"/>
<path fill-rule="evenodd" clip-rule="evenodd" d="M11.9364 7.69043C11.9364 7.69043 11.9716 7.97059 11.8343 8.05215C11.812 8.06988 11.7258 8.10176 11.7386 8.15856C11.7545 8.23656 11.7928 8.22234 11.8471 8.20816C11.9907 8.17981 12.1567 7.83938 11.9364 7.69043Z" fill="#9CA69C" stroke="#9CA69C" stroke-width="0.924029"/>
<path fill-rule="evenodd" clip-rule="evenodd" d="M11.6906 7.93236C11.6906 7.94835 11.6848 7.96369 11.6747 7.975C11.6645 7.9863 11.6507 7.99266 11.6363 7.99266C11.6219 7.99266 11.6081 7.9863 11.5979 7.975C11.5877 7.96369 11.582 7.94835 11.582 7.93236C11.582 7.91637 11.5877 7.90104 11.5979 7.88973C11.6081 7.87842 11.6219 7.87207 11.6363 7.87207C11.6507 7.87207 11.6645 7.87842 11.6747 7.88973C11.6848 7.90104 11.6906 7.91637 11.6906 7.93236Z" fill="white"/>
<path fill-rule="evenodd" clip-rule="evenodd" d="M11.477 8.16602C11.4419 8.19793 11.2568 8.4107 11.4387 8.48867C11.627 8.43195 11.5759 8.39297 11.6174 8.34688C11.6185 8.25113 11.5238 8.22629 11.477 8.16602Z" fill="#DE3108" stroke="black" stroke-width="0.924029"/>
<path fill-rule="evenodd" clip-rule="evenodd" d="M11.8789 10.1768C11.8693 10.2229 11.8279 10.3931 11.8853 10.5243C12.0449 10.4498 12.1183 10.4711 12.1725 10.5101C12.0417 10.3931 11.9906 10.3434 11.8789 10.1768Z" fill="#9CA69C" stroke="#9CA69C" stroke-width="0.866196" stroke-linecap="round" stroke-linejoin="round"/>
<path fill-rule="evenodd" clip-rule="evenodd" d="M12.1533 10.9814L12.1629 11.3786C12.1629 11.3786 12.2874 11.4034 12.3448 11.3786C12.4023 11.3538 12.3416 11.102 12.1533 10.9814Z" fill="white" stroke="white" stroke-width="0.866196" stroke-linecap="round" stroke-linejoin="round"/>
<path fill-rule="evenodd" clip-rule="evenodd" d="M13.0566 11.0318C13.0566 11.0318 12.8268 10.4148 12.2396 10.2588C11.6523 10.1027 11.7289 9.40774 11.7768 9.36516C11.8024 9.30489 11.8215 9.2127 11.9906 9.30137C12.1598 9.39004 12.9385 9.82617 13.0502 9.84746C13.1619 9.86875 13.0662 11.0461 13.0566 11.0318Z" fill="#9CA69C" stroke="black" stroke-width="0.924029"/>
<path fill-rule="evenodd" clip-rule="evenodd" d="M12.4981 10.2552C12.4886 10.2623 13.2832 10.7764 13.0439 11.2197C13.2705 11.053 13.1971 10.7623 13.1971 10.7623C13.1971 10.7623 13.3822 11.2977 12.9322 11.5602C12.9801 11.6062 13.012 11.5956 13.012 11.5956L12.9353 11.6807C12.9353 11.6807 12.9003 11.7445 13.2035 11.5814C13.1205 11.6559 13.1141 11.7091 13.1141 11.7091C13.1141 11.7091 13.1364 11.78 13.3343 11.5885C13.1747 11.78 13.1396 11.8793 13.1396 11.8757C13.5705 11.8332 14.5088 10.2764 12.8428 9.81543C12.9322 9.91832 12.9194 9.9041 12.9194 9.9041L12.4981 10.2552Z" fill="#DE3108" stroke="black" stroke-width="0.866196" stroke-linejoin="round"/>
<path fill-rule="evenodd" clip-rule="evenodd" d="M12.5332 10.1029C12.6418 10.188 12.68 10.2164 12.6928 10.259C12.5939 10.2342 12.5045 10.2412 12.5045 10.2412C12.5045 10.2412 12.2907 10.0143 12.2524 9.99655C12.2236 9.99655 12.0577 9.87952 12.0577 9.87952C11.9747 9.83342 11.8981 9.51428 12.2045 9.60647C12.5204 9.77311 12.5651 9.78733 12.5651 9.78733L12.9418 9.91854L13.1588 10.1881C13.1588 10.1881 12.7726 9.97526 12.7247 9.9717C12.83 10.0674 12.8907 10.1987 12.8907 10.1987C12.7683 10.1596 12.662 10.1242 12.5332 10.103V10.1029Z" fill="white" stroke="black" stroke-width="0.866196" stroke-linecap="round" stroke-linejoin="round"/>
<path d="M11.0303 8.19786C11.0303 8.19786 11.4005 8.09857 11.4452 8.11271" stroke="white" stroke-width="0.866196" stroke-linecap="round"/>
<path fill-rule="evenodd" clip-rule="evenodd" d="M-1.5 16.667H25.5V19.9998H-1.5V16.667Z" fill="#DE3908"/>
</g>
<defs>
<clipPath id="clip0_275_23281">
<rect width="24" height="20" rx="4" fill="white"/>
</clipPath>
</defs>
</svg>
