<svg width="24" height="20" viewBox="0 0 24 20" fill="none" xmlns="http://www.w3.org/2000/svg">
<g clip-path="url(#clip0_275_23269)">
<path d="M-6.02393 0H30.0728V20.0537H-6.02393V0Z" fill="#000066"/>
<path d="M-6.02393 0V2.24206L26.0372 20.0538H30.0728V17.8118L-1.98833 0H-6.02393ZM30.0728 0V2.24202L-1.98833 20.0537H-6.02393V17.8117L26.0372 0H30.0728Z" fill="white"/>
<path d="M9.01637 0V20.0537H15.0325V0H9.01637ZM-6.02393 6.68457V13.3691H30.0728V6.68457H-6.02393Z" fill="white"/>
<path d="M-6.02393 8.02149V12.0322H30.0728V8.02149H-6.02393ZM10.2196 0V20.0537H13.8292V0H10.2196ZM-6.02393 20.0537L6.00831 13.3691H8.69873L-3.3335 20.0537H-6.02393ZM-6.02393 0L6.00831 6.68457H3.31789L-6.02393 1.49476V0ZM15.3501 6.68457L27.3824 0H30.0728L18.0405 6.68457H15.3501ZM30.0728 20.0537L18.0405 13.3691H20.731L30.0728 18.559V20.0537Z" fill="#CC0000"/>
</g>
<defs>
<clipPath id="clip0_275_23269">
<rect width="24" height="20" rx="4" fill="white"/>
</clipPath>
</defs>
</svg>
