<svg width="24" height="20" viewBox="0 0 24 20" fill="none" xmlns="http://www.w3.org/2000/svg">
<g clip-path="url(#clip0_275_23248)">
<path fill-rule="evenodd" clip-rule="evenodd" d="M0 0H34.2004V1.53848H0V0ZM0 3.07695H34.2004V4.61543H0V3.07695ZM0 6.15391H34.2004V7.69238H0V6.15391ZM0 9.23086H34.2004V10.7693H0V9.23086ZM0 12.3078H34.2004V13.8463H0V12.3078ZM0 15.3848H34.2004V16.9232H0V15.3848ZM0 18.4617H34.2004V20.0002H0V18.4617Z" fill="#BD3D44"/>
<path fill-rule="evenodd" clip-rule="evenodd" d="M0 1.53809H34.2004V3.07656H0V1.53809ZM0 4.61504H34.2004V6.15352H0V4.61504ZM0 7.69199H34.2004V9.23047H0V7.69199ZM0 10.7689H34.2004V12.3074H0V10.7689ZM0 13.8459H34.2004V15.3844H0V13.8459ZM0 16.9229H34.2004V18.4613H0V16.9229Z" fill="white"/>
<path fill-rule="evenodd" clip-rule="evenodd" d="M0 0H13.68V10.7691H0V0Z" fill="#192F5D"/>
<path fill-rule="evenodd" clip-rule="evenodd" d="M1.14007 0.460938L1.26452 0.886562H1.66734L1.34144 1.14965L1.46593 1.57527L1.14003 1.31223L0.814203 1.57527L0.938656 1.14965L0.612793 0.886562H1.01558L1.14007 0.460938ZM3.42005 0.460938L3.54454 0.886562H3.94736L3.62146 1.14965L3.74595 1.57527L3.42005 1.31223L3.09423 1.57527L3.21868 1.14965L2.89282 0.886562H3.2956L3.42005 0.460938ZM5.70015 0.460938L5.8246 0.886562H6.22742L5.90152 1.14965L6.02601 1.57527L5.70015 1.31223L5.37429 1.57527L5.49874 1.14965L5.17287 0.886562H5.5757L5.70015 0.460938ZM7.9801 0.460938L8.10455 0.886562H8.50734L8.18148 1.14965L8.30593 1.57527L7.9801 1.31223L7.6542 1.57527L7.77869 1.14965L7.45279 0.886562H7.85561L7.9801 0.460938ZM10.2602 0.460938L10.3846 0.886562H10.7874L10.4615 1.14965L10.586 1.57527L10.2601 1.31223L9.9343 1.57527L10.0588 1.14965L9.73289 0.886562H10.1357L10.2602 0.460938ZM12.5402 0.460938L12.6647 0.886562H13.0675L12.7416 1.14965L12.8661 1.57527L12.5402 1.31223L12.2143 1.57527L12.3388 1.14965L12.0129 0.886562H12.4158L12.5402 0.460938ZM2.28011 1.53789L2.40457 1.96352H2.80739L2.48149 2.22656L2.60601 2.65223L2.28011 2.38918L1.95425 2.65223L2.0787 2.22656L1.75284 1.96352H2.15566L2.28011 1.53789ZM4.56007 1.53789L4.68452 1.96352H5.0873L4.76144 2.22656L4.88589 2.65223L4.56007 2.38918L4.23417 2.65223L4.35866 2.22656L4.03276 1.96352H4.43558L4.56007 1.53789ZM6.84013 1.53789L6.96458 1.96352H7.3674L7.0415 2.22656L7.16599 2.65223L6.84009 2.38918L6.51426 2.65223L6.63871 2.22656L6.31285 1.96352H6.71564L6.84013 1.53789ZM9.12018 1.53789L9.24464 1.96352H9.64746L9.32156 2.22656L9.44605 2.65223L9.12018 2.38918L8.79428 2.65223L8.91884 2.22656L8.59295 1.96352H8.99577L9.12018 1.53789ZM11.4001 1.53789L11.5246 1.96352H11.9274L11.6015 2.22656L11.726 2.65223L11.4001 2.38918L11.0742 2.65223L11.1987 2.22656L10.8728 1.96352H11.2756L11.4001 1.53789ZM1.14007 2.6148L1.26452 3.04043H1.66734L1.34144 3.30352L1.46593 3.72914L1.14003 3.46609L0.814203 3.72914L0.938656 3.30352L0.612793 3.04043H1.01558L1.14007 2.6148ZM3.42005 2.6148L3.54454 3.04043H3.94736L3.62146 3.30352L3.74595 3.72914L3.42005 3.46609L3.09423 3.72914L3.21868 3.30352L2.89282 3.04043H3.2956L3.42005 2.6148ZM5.70015 2.6148L5.8246 3.04043H6.22742L5.90152 3.30352L6.02601 3.72914L5.70015 3.46609L5.37429 3.72914L5.49874 3.30352L5.17287 3.04043H5.5757L5.70015 2.6148ZM7.9801 2.6148L8.10455 3.04043H8.50734L8.18148 3.30352L8.30593 3.72914L7.9801 3.46609L7.6542 3.72914L7.77869 3.30352L7.45279 3.04043H7.85561L7.9801 2.6148ZM10.2602 2.6148L10.3846 3.04043H10.7874L10.4615 3.30352L10.586 3.72914L10.2601 3.46609L9.9343 3.72914L10.0588 3.30352L9.73289 3.04043H10.1357L10.2602 2.6148ZM12.5402 2.6148L12.6647 3.04043H13.0675L12.7416 3.30352L12.8661 3.72914L12.5402 3.46609L12.2143 3.72914L12.3388 3.30352L12.0129 3.04043H12.4158L12.5402 2.6148ZM2.28011 3.69172L2.40457 4.11738H2.80739L2.48149 4.38043L2.60601 4.80609L2.28011 4.54305L1.95425 4.80609L2.0787 4.38043L1.75284 4.11738H2.15566L2.28011 3.69172ZM4.56007 3.69172L4.68452 4.11738H5.0873L4.76144 4.38043L4.88589 4.80609L4.56007 4.54305L4.23417 4.80609L4.35866 4.38043L4.03276 4.11738H4.43558L4.56007 3.69172ZM6.84013 3.69172L6.96458 4.11738H7.3674L7.0415 4.38043L7.16599 4.80609L6.84009 4.54305L6.51426 4.80609L6.63871 4.38043L6.31285 4.11738H6.71564L6.84013 3.69172ZM9.12018 3.69172L9.24464 4.11738H9.64746L9.32156 4.38043L9.44605 4.80609L9.12018 4.54305L8.79428 4.80609L8.91881 4.38043L8.59291 4.11738H8.99573L9.12018 3.69172ZM11.4001 3.69172L11.5246 4.11738H11.9274L11.6015 4.38043L11.726 4.80609L11.4001 4.54305L11.0742 4.80609L11.1987 4.38043L10.8728 4.11738H11.2756L11.4001 3.69172ZM1.14007 4.76867L1.26452 5.1943H1.66734L1.34144 5.45738L1.46593 5.88301L1.14003 5.61996L0.814203 5.88301L0.938656 5.45738L0.612793 5.1943H1.01558L1.14007 4.76867ZM3.42005 4.76867L3.54454 5.1943H3.94736L3.62146 5.45738L3.74595 5.88301L3.42005 5.61996L3.09423 5.88301L3.21868 5.45738L2.89282 5.1943H3.2956L3.42005 4.76867ZM5.70015 4.76867L5.8246 5.1943H6.22742L5.90152 5.45738L6.02601 5.88301L5.70015 5.61996L5.37429 5.88301L5.49874 5.45738L5.17287 5.1943H5.5757L5.70015 4.76867ZM7.9801 4.76867L8.10455 5.1943H8.50734L8.18148 5.45738L8.30593 5.88301L7.9801 5.61996L7.6542 5.88301L7.77869 5.45738L7.45279 5.1943H7.85561L7.9801 4.76867ZM10.2602 4.76867L10.3846 5.1943H10.7874L10.4615 5.45738L10.586 5.88301L10.2601 5.61996L9.9343 5.88301L10.0588 5.45738L9.73289 5.1943H10.1357L10.2602 4.76867ZM12.5402 4.76867L12.6647 5.1943H13.0675L12.7416 5.45738L12.8661 5.88301L12.5402 5.61996L12.2143 5.88301L12.3388 5.45738L12.0129 5.1943H12.4158L12.5402 4.76867ZM2.28011 5.84559L2.40457 6.27125H2.80739L2.48149 6.5343L2.60601 6.95996L2.28011 6.69691L1.95425 6.95996L2.0787 6.5343L1.75284 6.27125H2.15566L2.28011 5.84559ZM4.56007 5.84559L4.68452 6.27125H5.0873L4.76144 6.5343L4.88589 6.95996L4.56007 6.69691L4.23417 6.95996L4.35866 6.5343L4.03276 6.27125H4.43558L4.56007 5.84559ZM6.84013 5.84559L6.96458 6.27125H7.3674L7.0415 6.5343L7.16599 6.95996L6.84009 6.69691L6.51426 6.95996L6.63871 6.5343L6.31285 6.27125H6.71564L6.84013 5.84559ZM9.12018 5.84559L9.24464 6.27125H9.64746L9.32156 6.5343L9.44605 6.95996L9.12018 6.69691L8.79428 6.95996L8.91881 6.5343L8.59291 6.27125H8.99573L9.12018 5.84559ZM11.4001 5.84559L11.5246 6.27125H11.9274L11.6015 6.5343L11.726 6.95996L11.4001 6.69691L11.0742 6.95996L11.1987 6.5343L10.8728 6.27125H11.2756L11.4001 5.84559Z" fill="white"/>
<path fill-rule="evenodd" clip-rule="evenodd" d="M1.14007 6.92285L1.26452 7.34848H1.66734L1.34144 7.61156L1.46593 8.03719L1.14003 7.77414L0.814203 8.03719L0.938656 7.61156L0.612793 7.34848H1.01558L1.14007 6.92285ZM3.42005 6.92285L3.54454 7.34848H3.94736L3.62146 7.61156L3.74595 8.03719L3.42005 7.77414L3.09423 8.03719L3.21868 7.61156L2.89282 7.34848H3.2956L3.42005 6.92285ZM5.70015 6.92285L5.8246 7.34848H6.22742L5.90152 7.61156L6.02601 8.03719L5.70015 7.77414L5.37429 8.03719L5.49874 7.61156L5.17287 7.34848H5.5757L5.70015 6.92285ZM7.9801 6.92285L8.10455 7.34848H8.50734L8.18148 7.61156L8.30593 8.03719L7.9801 7.77414L7.6542 8.03719L7.77869 7.61156L7.45279 7.34848H7.85561L7.9801 6.92285ZM10.2602 6.92285L10.3846 7.34848H10.7874L10.4615 7.61156L10.586 8.03719L10.2601 7.77414L9.9343 8.03719L10.0588 7.61156L9.73289 7.34848H10.1357L10.2602 6.92285ZM12.5402 6.92285L12.6647 7.34848H13.0675L12.7416 7.61156L12.8661 8.03719L12.5402 7.77414L12.2143 8.03719L12.3388 7.61156L12.0129 7.34848H12.4158L12.5402 6.92285ZM2.28011 7.99977L2.40457 8.42543H2.80739L2.48149 8.68848L2.60601 9.11414L2.28011 8.85109L1.95425 9.11414L2.0787 8.68848L1.75284 8.42543H2.15566L2.28011 7.99977ZM4.56007 7.99977L4.68452 8.42543H5.0873L4.76144 8.68848L4.88589 9.11414L4.56007 8.85109L4.23417 9.11414L4.35866 8.68848L4.03276 8.42543H4.43558L4.56007 7.99977ZM6.84013 7.99977L6.96458 8.42543H7.3674L7.0415 8.68848L7.16599 9.11414L6.84009 8.85109L6.51426 9.11414L6.63871 8.68848L6.31285 8.42543H6.71564L6.84013 7.99977ZM9.12018 7.99977L9.24464 8.42543H9.64746L9.32156 8.68848L9.44605 9.11414L9.12018 8.85109L8.79428 9.11414L8.91881 8.68848L8.59291 8.42543H8.99573L9.12018 7.99977ZM11.4001 7.99977L11.5246 8.42543H11.9274L11.6015 8.68848L11.726 9.11414L11.4001 8.85109L11.0742 9.11414L11.1987 8.68848L10.8728 8.42543H11.2756L11.4001 7.99977Z" fill="white"/>
<path fill-rule="evenodd" clip-rule="evenodd" d="M1.14007 9.07617L1.26452 9.5018H1.66734L1.34144 9.76488L1.46593 10.1905L1.14003 9.92746L0.814203 10.1905L0.938656 9.76488L0.612793 9.5018H1.01558L1.14007 9.07617ZM3.42005 9.07617L3.54454 9.5018H3.94736L3.62146 9.76488L3.74595 10.1905L3.42005 9.92746L3.09423 10.1905L3.21868 9.76488L2.89282 9.5018H3.2956L3.42005 9.07617ZM5.70015 9.07617L5.8246 9.5018H6.22742L5.90152 9.76488L6.02601 10.1905L5.70015 9.92746L5.37429 10.1905L5.49874 9.76488L5.17287 9.5018H5.5757L5.70015 9.07617ZM7.9801 9.07617L8.10455 9.5018H8.50734L8.18148 9.76488L8.30593 10.1905L7.9801 9.92746L7.6542 10.1905L7.77869 9.76488L7.45279 9.5018H7.85561L7.9801 9.07617ZM10.2602 9.07617L10.3846 9.5018H10.7874L10.4615 9.76488L10.586 10.1905L10.2601 9.92746L9.9343 10.1905L10.0588 9.76488L9.73289 9.5018H10.1357L10.2602 9.07617ZM12.5402 9.07617L12.6647 9.5018H13.0675L12.7416 9.76488L12.8661 10.1905L12.5402 9.92746L12.2143 10.1905L12.3388 9.76488L12.0129 9.5018H12.4158L12.5402 9.07617Z" fill="white"/>
</g>
<defs>
<clipPath id="clip0_275_23248">
<rect width="24" height="20" rx="4" fill="white"/>
</clipPath>
</defs>
</svg>
