<svg width="24" height="20" viewBox="0 0 24 20" fill="none" xmlns="http://www.w3.org/2000/svg">
<g clip-path="url(#clip0_275_23296)">
<path d="M0 0H24V20H0V0Z" fill="white"/>
<path d="M7.66311 13.122C7.66311 13.122 7.64369 12.9759 7.89351 12.8687C8.14326 12.7615 8.16276 12.362 8.11277 12.0956C8.11277 12.0956 7.98227 12.349 7.82402 12.4334C7.82402 12.4334 7.56591 12.5828 7.5541 12.8682C7.5541 12.8682 7.55204 12.9727 7.53261 13.0538C7.52196 13.0983 7.40766 12.6966 7.62419 12.3977C7.84761 12.0894 7.91009 11.8391 7.73241 11.3519C7.73241 11.3519 7.71576 11.6475 7.5409 11.8163C7.36607 11.9852 7.34384 11.9982 7.34665 12.401C7.34665 12.401 7.34942 12.5407 7.28279 12.5861C7.28279 12.5861 7.14677 12.3652 7.11066 12.219C7.07466 12.0729 7.05797 12.0111 7.21341 11.8423C7.21341 11.8423 7.71141 11.4848 7.35216 10.7022C7.35216 10.7022 7.3411 10.9718 7.16901 11.131C6.99689 11.2901 7.01076 11.3973 7.00244 11.6734C6.99419 11.9495 6.9775 11.93 6.95807 11.969C6.95807 11.969 6.64165 11.3226 6.88592 10.9783C7.13016 10.634 7.26617 10.5625 6.99692 9.92266C6.99692 9.92266 7.00892 10.2507 6.7933 10.4131C6.57779 10.5756 6.62777 10.9556 6.62777 10.9556C6.62777 10.9556 6.64165 11.0985 6.59721 11.2024C6.59721 11.2024 6.29234 10.5417 6.58334 10.1858C6.83035 9.88374 6.84704 9.67262 6.71384 9.24387C6.71384 9.24387 6.69711 9.44199 6.56114 9.5492C6.42512 9.65637 6.31686 9.76358 6.34184 10.1761C6.34184 10.1761 6.35294 10.4651 6.31964 10.5463C6.31964 10.5463 6.19195 10.2832 6.15587 10.1111C6.1198 9.93891 6.10589 9.8382 6.20027 9.66612C6.29466 9.49395 6.6694 9.00028 6.22247 8.28891C6.22247 8.28891 6.2086 8.51953 6.09479 8.72741C5.98097 8.93533 6.03374 9.18216 6.05871 9.37053C6.08369 9.55895 6.00044 9.74083 6.00044 9.74083C6.00044 9.74083 5.80619 9.34458 5.84781 8.88983C5.88944 8.43512 5.72294 8.06158 5.34539 7.79199C5.34539 7.79199 5.07059 8.50008 5.44532 8.86062C5.44532 8.86062 5.76452 9.21145 5.84507 9.63687C5.84507 9.63687 5.60357 9.61091 5.3842 9.1367C5.16497 8.66253 4.70976 8.73712 4.6792 8.73391C4.6792 8.73391 4.7542 9.46799 5.45365 9.67587C5.45365 9.67587 5.9005 9.76033 5.98375 10.1241C5.98375 10.1241 6.05875 10.3742 6.08924 10.5074C6.08924 10.5074 5.94764 10.4457 5.81717 10.2313C5.68667 10.0169 5.70336 9.99087 5.26202 9.9422C5.26202 9.9422 5.08442 9.91945 4.99004 9.77978C4.99004 9.77978 5.17604 10.556 5.65341 10.5496C5.65341 10.5496 6.08924 10.4976 6.33351 11.1342C6.33351 11.1342 6.28626 11.1017 6.22251 11.053C6.15861 11.0043 5.99762 10.9134 5.67839 10.9556C5.35926 10.9978 5.27039 10.9393 5.18991 10.9102C5.18991 10.9102 5.51189 11.5662 5.9671 11.3714C6.42235 11.1764 6.64221 11.8871 6.64716 11.9008C6.64716 11.9008 6.58611 11.8489 6.5056 11.7612C6.42509 11.6735 6.25799 11.5654 5.94212 11.6767C5.94212 11.6767 5.7145 11.7742 5.48414 11.6962C5.48414 11.6962 5.70614 12.1737 6.22525 12.0925C6.74432 12.0112 6.87475 12.518 6.87475 12.518C6.87475 12.518 6.80537 12.4725 6.7582 12.4302C6.71095 12.388 6.53612 12.2776 6.16142 12.4011C5.78669 12.5244 5.65067 12.3815 5.65067 12.3815C5.65067 12.3815 5.8588 12.8038 6.25855 12.8525C6.25855 12.8525 6.48062 12.8493 6.57497 12.8103C6.66936 12.7713 6.91922 12.7096 7.09127 12.9857C7.09127 12.9857 7.0441 12.9955 6.97191 12.9597C6.97191 12.9597 6.70544 12.8525 6.50279 13.0409C6.50279 13.0409 6.32241 13.2455 6.06704 13.2066C6.06704 13.2066 6.39734 13.5639 6.92196 13.2618C6.92196 13.2618 7.0996 13.1189 7.23006 13.2293C7.36056 13.3398 7.66311 13.1222 7.66311 13.1222V13.122Z" fill="#369443" stroke="#010002" stroke-width="1.506" stroke-miterlimit="10"/>
<path d="M10.5825 4.31997C10.5825 4.31997 10.5216 3.71551 10.9563 3.65738C11.4097 3.59676 11.6336 3.70284 11.6336 3.70284L11.8371 4.14676L11.7668 4.44555L11.4856 4.58847C11.4856 4.58847 11.5337 4.12943 11.1549 4.11988C11.059 4.11747 11.0026 4.15976 10.8508 4.13301C10.6982 4.10605 10.6166 4.29243 10.5825 4.31997H10.5825Z" fill="#F4C53D" stroke="#010002" stroke-width="1.5055" stroke-miterlimit="10"/>
<path d="M13.6414 5.81635C13.5767 5.90943 13.3176 5.94193 13.3176 5.94193C13.3176 5.94193 13.5841 6.16931 13.6988 6.4941C13.8136 6.81889 10.6104 6.49627 10.6104 6.49627C10.6104 6.49627 10.7492 6.38585 10.8437 6.17793C10.8437 6.17793 10.7021 6.23643 10.5605 6.08052C10.5605 6.08052 10.6659 6.11947 10.8047 5.88564C10.8047 5.88564 11.0102 5.59327 11.1545 5.51531C11.1545 5.51531 11.0878 5.56081 10.9269 5.46335C10.9269 5.46335 11.2044 5.42439 11.3044 4.89818C11.3044 4.89818 11.321 4.78131 11.4265 4.61243C11.5319 4.44352 11.5097 4.64493 11.704 4.38506C11.704 4.38506 11.7929 4.20102 11.7151 4.08839C11.6374 3.97581 11.5541 4.01697 11.3913 3.90868C11.2285 3.80043 11.1563 3.73981 11.2118 3.57306C11.2673 3.40639 11.4117 3.43231 11.432 3.43231C11.4524 3.43231 11.4635 3.28718 11.6411 3.1876C11.8188 3.08802 12.2906 3.13135 12.361 3.1746C12.4313 3.21793 12.7162 3.31102 12.8828 3.77877C13.0493 4.24643 12.8384 4.42185 13.2917 5.12772C13.2917 5.12772 13.1104 5.17106 12.9938 5.13206C12.9938 5.13206 13.2288 5.59539 13.6414 5.81631V5.81635Z" fill="#F4C53D" stroke="#010002" stroke-width="1.505" stroke-miterlimit="10"/>
<path d="M11.6596 3.84295C11.2904 3.82345 11.4319 3.43262 11.4319 3.43262" stroke="#010002" stroke-width="1.505" stroke-miterlimit="10"/>
<path d="M12.3009 3.89574C12.3009 3.89574 12.2357 3.86166 12.1805 3.78045C12.1031 3.66649 11.9303 3.61157 11.8374 3.71878C11.8374 3.71878 11.743 3.83566 11.6597 3.84212C11.6597 3.84212 11.7541 3.87462 11.8193 3.94128C11.8846 4.00782 11.9525 4.05653 12.0497 4.04191C12.1468 4.02732 12.1621 3.97049 12.2079 3.93641C12.2536 3.90224 12.3009 3.89578 12.3009 3.89578L12.3009 3.89574Z" fill="#F4C53D" stroke="#010002" stroke-width="1.505" stroke-miterlimit="10"/>
<path d="M7.60549 14.0189C7.60549 14.0189 7.59717 13.7558 7.89694 13.7363L8.77958 15.1005C8.77958 15.1005 8.74628 15.1881 8.34657 15.1784C8.34657 15.1784 8.30427 15.1781 8.28207 15.2301C8.24794 15.3098 7.60549 14.0189 7.60549 14.0189Z" fill="#369443" stroke="#010002" stroke-width="1.506" stroke-miterlimit="10"/>
<path d="M8.57486 12.4314C8.57486 12.4314 8.2936 12.9684 7.95311 12.977C7.95311 12.977 7.36743 12.8978 7.20183 13.068C7.08636 13.1866 6.96867 13.2845 6.92057 13.5877C6.87245 13.8908 7.01308 13.9558 7.04639 13.9688C7.04639 13.9688 7.0723 14.1853 7.26474 14.129C7.26474 14.129 7.27585 14.3542 7.61633 14.2459C7.95682 14.1377 8.09745 14.1723 8.16407 13.7955C8.23069 13.4188 8.29218 13.4249 8.3528 13.3798C8.43423 13.3192 8.58719 13.2619 8.70068 13.1892C8.80265 13.124 9.19291 12.9034 9.32614 12.8861C9.45938 12.8688 9.42976 12.3708 9.42976 12.3708H9.08558L8.91905 12.0979L8.57487 12.4314L8.57486 12.4314ZM9.65888 9.73773C9.65888 9.73773 9.3147 10.0495 9.02603 9.73773C9.02603 9.73773 8.90945 9.89363 8.67629 9.84816C8.44313 9.80269 8.40428 9.66627 8.38207 9.58833C8.38207 9.58833 8.18037 9.71906 8.01013 9.61581C7.83988 9.51254 7.83988 9.35663 7.83988 9.35663C7.83988 9.35663 7.54381 9.42148 7.39207 9.19851C7.24034 8.97554 7.33286 8.75468 7.41428 8.72869C7.41428 8.72869 7.09417 8.82187 7.00718 8.51649C6.93316 8.25665 7.09971 8.1224 7.09971 8.1224C7.09971 8.1224 6.42522 8.1188 6.14857 7.88422C6.14857 7.88422 5.91912 7.72398 6.05605 7.55509C6.05605 7.55509 5.44911 7.44682 5.29737 7.17833C5.29737 7.17833 5.23075 7.10471 5.25296 6.97478C5.25296 6.97478 5.25667 6.90116 5.32328 6.89683C5.32328 6.89683 4.63112 6.77804 4.43137 6.52439C4.43137 6.52439 4.33515 6.40747 4.38326 6.25157C4.38326 6.25157 4.39344 6.21042 4.41009 6.18282C4.41009 6.18282 3.78001 6.03503 3.46914 5.72323C3.46914 5.72323 3.28968 5.54558 3.38219 5.3074C3.38219 5.3074 2.32926 4.98702 2.57351 4.47167C2.57351 4.47167 2.0813 4.29411 2.23674 3.80042C2.23674 3.80042 1.82963 3.57089 2.00728 3.20712C2.17729 2.85898 2.69935 3.26775 3.31752 3.45779C3.31752 3.45779 4.9902 4.04293 5.81394 4.19866L8.15447 8.07044L9.5201 8.65508L9.65887 9.73774L9.65888 9.73773Z" fill="#F4C53D" stroke="#010002" stroke-width="1.5055"/>
<path d="M9.6753 6.88599C9.6753 6.88599 9.45593 6.70301 9.06465 6.91847C9.06465 6.91847 8.93292 7.01926 8.8293 6.90884C8.74272 6.81656 8.7346 6.64644 8.8537 6.54821C9.14515 6.30785 9.2534 5.5868 8.8093 5.28799C8.8093 5.28799 8.16534 4.86359 5.80402 4.19591C5.80402 4.19591 5.60617 4.13495 5.50069 4.16418C5.38455 4.19636 5.30455 4.30709 5.28814 4.40184C5.28814 4.40184 5.18248 4.73548 5.53771 4.92638C5.53771 4.92638 5.69809 5.00793 5.86339 5.06063C5.86339 5.06063 5.68182 5.01702 5.60433 5.21653C5.53031 5.40707 5.63764 5.60196 5.97072 5.72755C5.97072 5.72755 6.06081 5.7665 6.18907 5.80116C6.18907 5.80116 5.9041 5.8921 6.04104 6.14762C6.04104 6.14762 6.16317 6.41611 6.59431 6.46375C6.59431 6.46375 6.27234 6.50272 6.49995 6.84268C6.49995 6.84268 6.59988 7.0289 6.91445 7.09819C6.91445 7.09819 6.67574 7.10685 6.79602 7.34503C6.9163 7.58322 7.19934 7.71747 7.47787 7.73913C7.47787 7.73913 7.62872 7.74779 7.7342 7.72181C7.7342 7.72181 7.46959 7.86906 7.62502 8.1159C7.62502 8.1159 7.73974 8.29129 8.02657 8.28264C8.02657 8.28264 7.95212 8.55829 8.16257 8.66265C8.32634 8.74384 8.46236 8.61392 8.46236 8.61392C8.46236 8.61392 8.40684 8.90949 8.64555 9.01342C8.64555 9.01342 8.76489 9.08163 8.94254 9.01342C8.94254 9.01342 9.07854 9.35122 9.56151 9.11411C10.0445 8.877 9.67531 6.88598 9.67531 6.88598L9.6753 6.88599ZM9.70395 9.95589C9.70395 9.95589 9.63308 10.3786 9.07113 10.9108C9.07113 10.9108 8.63754 11.3357 8.64864 11.8251C8.65995 12.3234 8.57093 12.3794 8.40069 12.5483C8.40069 12.5483 8.75227 12.5786 8.92251 12.3188C8.92251 12.3188 8.91511 12.7518 8.86329 12.7908C8.86329 12.7908 8.97356 12.7986 9.13346 12.6046C9.13346 12.6046 9.22968 12.492 9.3185 12.4487C9.3185 12.4487 9.21487 12.7475 9.29629 13.0247C9.29629 13.0247 9.32221 12.9164 9.45913 12.8688C9.45913 12.8688 9.70709 12.8125 9.80331 12.414C9.80331 12.414 9.86622 12.1499 10.2548 11.916C10.2548 11.916 10.6952 11.7315 10.6841 11.4903C10.673 11.2491 9.70393 9.9559 9.70393 9.9559L9.70395 9.95589Z" fill="#F4C53D" stroke="#010002" stroke-width="1.5055"/>
<path d="M11.7454 15.4067C11.7454 15.4067 11.6445 15.9013 11.2939 15.8614C11.2939 15.8614 11.0459 15.8354 11.0644 15.3763C11.0644 15.3763 10.698 15.5929 10.6388 15.0559C10.6388 15.0559 10.3057 15.1425 10.3094 14.6401C10.3094 14.6401 9.99854 14.7008 10.0355 14.2547C10.0355 14.2547 9.69877 14.3543 9.69877 13.9342C9.69877 13.9342 8.91048 13.789 10.5537 12.124L12.0192 13.0941L11.7454 15.4067L11.7454 15.4067Z" fill="#F4C53D" stroke="#010002" stroke-width="1.5055" stroke-miterlimit="10"/>
<path d="M11.9083 13.1865C11.9083 13.1865 11.664 13.4272 11.4901 13.0678C11.4901 13.0678 11.2532 13.0548 11.2162 12.8556C11.2162 12.8556 11.0238 12.8339 10.9868 12.6304C10.9868 12.6304 10.724 12.6001 10.7314 12.3532C10.7314 12.3532 10.2537 12.3123 10.7313 11.7113C11.2088 11.1104 12.0193 12.7084 12.0193 12.7084L11.9083 13.1865L11.9083 13.1865ZM12.1808 13.0375C12.4176 13.0375 12.6859 14.681 12.6163 15.6711C12.591 16.0307 12.4176 16.3244 12.1808 16.3244C11.9441 16.3244 11.7707 16.0307 11.7454 15.6711C11.6758 14.681 11.9441 13.0375 12.1808 13.0375" fill="#F4C53D"/>
<path d="M12.1808 13.0375C12.4176 13.0375 12.6859 14.681 12.6163 15.6711C12.591 16.0307 12.4176 16.3244 12.1808 16.3244C11.9441 16.3244 11.7707 16.0307 11.7454 15.6711C11.6758 14.681 11.9441 13.0375 12.1808 13.0375M11.9083 13.1865C11.9083 13.1865 11.664 13.4272 11.4901 13.0678C11.4901 13.0678 11.2532 13.0548 11.2162 12.8556C11.2162 12.8556 11.0238 12.8339 10.9868 12.6304C10.9868 12.6304 10.724 12.6001 10.7314 12.3532C10.7314 12.3532 10.2537 12.3123 10.7313 11.7113C11.2088 11.1104 12.0193 12.7084 12.0193 12.7084L11.9083 13.1865L11.9083 13.1865Z" stroke="#010002" stroke-width="1.5055"/>
<path d="M12.1807 13.5637C12.3616 13.5637 12.5083 13.3223 12.5083 13.0245C12.5083 12.7267 12.3616 12.4854 12.1807 12.4854C11.9997 12.4854 11.853 12.7267 11.853 13.0245C11.853 13.3223 11.9997 13.5637 12.1807 13.5637Z" fill="#F4C53D" stroke="#010002" stroke-width="1.5055"/>
<path d="M11.0644 15.3763C11.0644 15.3763 11.1014 14.5058 11.7804 13.2586M10.6388 15.0558C10.6388 15.0558 10.5333 14.5535 11.49 13.0681C11.49 13.0681 11.3789 12.7129 11.7194 12.4856M10.3094 14.6401C10.3094 14.6401 10.2798 14.0966 11.2161 12.8558C11.2161 12.8558 11.1334 12.5354 11.4727 12.2799M10.0355 14.2546C10.0355 14.2546 10.0707 13.7047 10.9867 12.6307C10.9867 12.6307 10.9408 12.3015 11.2691 12.098M9.69873 13.9342C9.69873 13.9342 9.76535 13.3062 10.7313 12.3535C10.7313 12.3535 10.698 12.1067 11.02 11.8555" stroke="#010002" stroke-width="1.5055" stroke-miterlimit="10"/>
<path d="M2.23682 3.80078C2.23682 3.80078 2.9955 4.28885 5.35825 4.77692M2.57359 4.47203C2.57359 4.47203 4.627 5.21629 5.58328 5.30775M3.38227 5.30775C3.38227 5.30775 4.58688 5.72791 5.99754 5.99305M4.41016 6.18318C4.41016 6.18318 5.77116 6.54641 6.42093 6.60669M5.32336 6.89719C5.32336 6.89719 6.47455 7.16396 6.76623 7.19603M6.05614 7.55545C6.05614 7.55545 6.89624 7.69728 7.2306 7.68969M7.09979 8.12276C7.09979 8.12276 7.43946 8.10504 7.6027 8.07493M7.41436 8.72905C7.41436 8.72905 7.70304 8.64244 7.87327 8.52118M7.83996 9.357C7.83996 9.357 8.06202 9.26173 8.16935 9.00189M8.38215 9.58869C8.38215 9.58869 8.55423 9.41763 8.56534 9.22707M9.0261 9.73809C9.0261 9.73809 8.96166 9.67633 9.00575 9.40788M8.94283 9.01379C8.94283 9.01379 8.90952 8.93692 8.92062 8.81566M7.72893 5.16926C7.72893 5.16926 8.11752 5.34248 8.24706 5.58066C8.37659 5.81885 8.29128 6.05034 8.24706 6.18316C8.22484 6.2499 7.95099 6.83655 8.27297 7.26095M7.73448 7.72216C7.73448 7.72216 7.73634 7.72 7.87327 7.67236M6.91474 7.09855C6.91474 7.09855 7.14635 7.15037 7.37365 7.15269M6.59461 6.46411C6.59461 6.46411 6.86663 6.49443 7.12199 6.49009M6.18936 5.80152C6.18936 5.80152 6.58166 5.88813 6.79261 5.89247M5.86368 5.06098C5.86368 5.06098 6.34751 5.21441 6.70749 5.26885M7.50689 5.58499C7.50689 5.58499 7.15901 5.94443 7.57721 6.27789C7.57721 6.27789 7.40326 6.58103 7.75115 6.89717M7.65863 7.04659C7.65863 7.04659 7.60682 7.62466 8.24337 7.6247C8.24337 7.6247 8.12123 8.14006 8.73559 8.12275C8.73559 8.12275 8.8059 8.53415 9.25002 8.45187M8.27148 12.9774C8.27148 12.9774 8.17076 13.0023 7.95227 12.9774M7.33793 13.2806C7.33793 13.2806 7.03075 13.2286 7.04556 13.9691M7.52298 13.4494C7.52298 13.4494 7.24541 13.4105 7.26392 14.1294M10.2033 11.7172C10.2033 11.7172 10.0701 11.7475 9.97758 11.8644C9.88505 11.9814 9.70741 11.9597 9.70741 11.9597C9.70741 11.9597 9.80364 11.8731 9.83695 11.6566C9.87025 11.44 9.97758 11.3751 9.97758 11.3751M9.65973 11.17C9.65973 11.17 9.5265 11.2003 9.43398 11.3173C9.34146 11.4342 9.16382 11.4125 9.16382 11.4125C9.16382 11.4125 9.26004 11.3259 9.29335 11.1094C9.32666 10.8928 9.43398 10.8279 9.43398 10.8279M9.56812 12.0106C9.56812 12.0106 9.4518 12.037 9.37102 12.1391C9.29023 12.2412 9.13513 12.2223 9.13513 12.2223C9.13513 12.2223 9.21914 12.1467 9.24823 11.9576C9.2773 11.7686 9.37102 11.7119 9.37102 11.7119" stroke="#010002" stroke-width="1.5055"/>
<path d="M15.6952 12.4314C15.6952 12.4314 15.9764 12.9684 16.3169 12.977C16.3169 12.977 16.9026 12.8978 17.0682 13.068C17.1837 13.1866 17.3014 13.2845 17.3495 13.5877C17.3976 13.8908 17.2569 13.9558 17.2236 13.9688C17.2236 13.9688 17.1977 14.1853 17.0053 14.129C17.0053 14.129 16.9942 14.3542 16.6537 14.2459C16.3132 14.1377 16.1726 14.1723 16.106 13.7955C16.0393 13.4188 15.9778 13.4249 15.9172 13.3798C15.8358 13.3192 15.6828 13.2619 15.5693 13.1892C15.4674 13.124 15.0771 12.9034 14.9439 12.8861C14.8106 12.8688 14.8403 12.3708 14.8403 12.3708H15.1844L15.351 12.0979L15.6951 12.4314L15.6952 12.4314ZM14.6111 9.73773C14.6111 9.73773 14.9553 10.0495 15.244 9.73773C15.244 9.73773 15.3606 9.89363 15.5937 9.84816C15.8269 9.80269 15.8657 9.66627 15.8879 9.58833C15.8879 9.58833 16.0897 9.71906 16.2599 9.61581C16.4301 9.51254 16.4301 9.35663 16.4301 9.35663C16.4301 9.35663 16.7262 9.42148 16.8779 9.19851C17.0297 8.97554 16.9372 8.75468 16.8557 8.72869C16.8557 8.72869 17.1758 8.82187 17.2628 8.51649C17.3369 8.25665 17.1703 8.1224 17.1703 8.1224C17.1703 8.1224 17.8448 8.1188 18.1214 7.88422C18.1214 7.88422 18.3509 7.72398 18.214 7.55509C18.214 7.55509 18.8209 7.44682 18.9726 7.17833C18.9726 7.17833 19.0393 7.10471 19.0171 6.97478C19.0171 6.97478 19.0134 6.90116 18.9467 6.89683C18.9467 6.89683 19.6389 6.77804 19.8386 6.52439C19.8386 6.52439 19.9349 6.40747 19.8868 6.25157C19.8868 6.25157 19.8766 6.21042 19.8599 6.18282C19.8599 6.18282 20.49 6.03503 20.8009 5.72323C20.8009 5.72323 20.9803 5.54558 20.8878 5.3074C20.8878 5.3074 21.9408 4.98702 21.6965 4.47167C21.6965 4.47167 22.1887 4.29411 22.0333 3.80042C22.0333 3.80042 22.4404 3.57089 22.2627 3.20712C22.0927 2.85898 21.5707 3.26775 20.9525 3.45779C20.9525 3.45779 19.2798 4.04293 18.4561 4.19866L16.1156 8.07044L14.7499 8.65508L14.6111 9.73774L14.6111 9.73773Z" fill="#F4C53D" stroke="#010002" stroke-width="1.5055"/>
<path d="M14.5947 6.88599C14.5947 6.88599 14.8141 6.70301 15.2054 6.91847C15.2054 6.91847 15.3371 7.01926 15.4407 6.90884C15.5273 6.81656 15.5354 6.64644 15.4163 6.54821C15.1249 6.30785 15.0166 5.5868 15.4607 5.28799C15.4607 5.28799 16.1047 4.86359 18.466 4.19591C18.466 4.19591 18.6638 4.13495 18.7693 4.16418C18.8855 4.19636 18.9655 4.30709 18.9819 4.40184C18.9819 4.40184 19.0875 4.73548 18.7323 4.92638C18.7323 4.92638 18.5719 5.00793 18.4066 5.06063C18.4066 5.06063 18.5882 5.01702 18.6657 5.21653C18.7397 5.40707 18.6324 5.60196 18.2993 5.72755C18.2993 5.72755 18.2092 5.7665 18.0809 5.80116C18.0809 5.80116 18.3659 5.8921 18.229 6.14762C18.229 6.14762 18.1069 6.41611 17.6757 6.46375C17.6757 6.46375 17.9977 6.50272 17.7701 6.84268C17.7701 6.84268 17.6701 7.0289 17.3556 7.09819C17.3556 7.09819 17.5943 7.10685 17.474 7.34503C17.3537 7.58322 17.0707 7.71747 16.7921 7.73913C16.7921 7.73913 16.6413 7.74779 16.5358 7.72181C16.5358 7.72181 16.8004 7.86906 16.645 8.1159C16.645 8.1159 16.5303 8.29129 16.2435 8.28264C16.2435 8.28264 16.3179 8.55829 16.1074 8.66265C15.9437 8.74384 15.8077 8.61392 15.8077 8.61392C15.8077 8.61392 15.8632 8.90949 15.6245 9.01342C15.6245 9.01342 15.5051 9.08163 15.3275 9.01342C15.3275 9.01342 15.1915 9.35122 14.7085 9.11411C14.2256 8.877 14.5947 6.88598 14.5947 6.88598L14.5947 6.88599ZM14.5661 9.95589C14.5661 9.95589 14.6369 10.3786 15.1989 10.9108C15.1989 10.9108 15.6325 11.3357 15.6214 11.8251C15.6101 12.3234 15.6991 12.3794 15.8693 12.5483C15.8693 12.5483 15.5177 12.5786 15.3475 12.3188C15.3475 12.3188 15.3549 12.7518 15.4067 12.7908C15.4067 12.7908 15.2965 12.7986 15.1366 12.6046C15.1366 12.6046 15.0403 12.492 14.9515 12.4487C14.9515 12.4487 15.0551 12.7475 14.9737 13.0247C14.9737 13.0247 14.9478 12.9164 14.8109 12.8688C14.8109 12.8688 14.5629 12.8125 14.4667 12.414C14.4667 12.414 14.4038 12.1499 14.0152 11.916C14.0152 11.916 13.5748 11.7315 13.5859 11.4903C13.597 11.2491 14.5661 9.9559 14.5661 9.9559L14.5661 9.95589Z" fill="#F4C53D" stroke="#010002" stroke-width="1.5055"/>
<path d="M12.5247 15.4067C12.5247 15.4067 12.6255 15.9013 12.9762 15.8614C12.9762 15.8614 13.2241 15.8354 13.2056 15.3763C13.2056 15.3763 13.572 15.5929 13.6312 15.0559C13.6312 15.0559 13.9643 15.1425 13.9606 14.6401C13.9606 14.6401 14.2715 14.7008 14.2345 14.2547C14.2345 14.2547 14.5713 14.3543 14.5713 13.9342C14.5713 13.9342 15.3595 13.789 13.7163 12.124L12.2508 13.0941L12.5247 15.4067L12.5247 15.4067Z" fill="#F4C53D" stroke="#010002" stroke-width="1.5055" stroke-miterlimit="10"/>
<path d="M12.3617 13.1865C12.3617 13.1865 12.606 13.4272 12.7799 13.0678C12.7799 13.0678 13.0168 13.0548 13.0538 12.8556C13.0538 12.8556 13.2462 12.8339 13.2833 12.6304C13.2833 12.6304 13.546 12.6001 13.5386 12.3532C13.5386 12.3532 14.0163 12.3123 13.5388 11.7113C13.0612 11.1104 12.2507 12.7084 12.2507 12.7084L12.3617 13.1865L12.3617 13.1865ZM12.0892 13.0375C11.8524 13.0375 11.5841 14.681 11.6537 15.6711C11.679 16.0307 11.8524 16.3244 12.0892 16.3244C12.326 16.3244 12.4993 16.0307 12.5246 15.6711C12.5943 14.681 12.326 13.0375 12.0892 13.0375" fill="#F4C53D"/>
<path d="M12.0892 13.0375C11.8524 13.0375 11.5841 14.681 11.6537 15.6711C11.679 16.0307 11.8524 16.3244 12.0892 16.3244C12.326 16.3244 12.4993 16.0307 12.5246 15.6711C12.5943 14.681 12.326 13.0375 12.0892 13.0375M12.3617 13.1865C12.3617 13.1865 12.606 13.4272 12.7799 13.0678C12.7799 13.0678 13.0168 13.0548 13.0538 12.8556C13.0538 12.8556 13.2462 12.8339 13.2833 12.6304C13.2833 12.6304 13.546 12.6001 13.5386 12.3532C13.5386 12.3532 14.0163 12.3123 13.5388 11.7113C13.0612 11.1104 12.2507 12.7084 12.2507 12.7084L12.3617 13.1865L12.3617 13.1865Z" stroke="#010002" stroke-width="1.5055"/>
<path d="M12.0894 13.5637C11.9084 13.5637 11.7617 13.3223 11.7617 13.0245C11.7617 12.7267 11.9084 12.4854 12.0894 12.4854C12.2703 12.4854 12.417 12.7267 12.417 13.0245C12.417 13.3223 12.2703 13.5637 12.0894 13.5637Z" fill="#F4C53D" stroke="#010002" stroke-width="1.5055"/>
<path d="M13.2057 15.3763C13.2057 15.3763 13.1686 14.5058 12.4897 13.2586M13.6313 15.0558C13.6313 15.0558 13.7367 14.5535 12.78 13.0681C12.78 13.0681 12.8911 12.7129 12.5506 12.4856M13.9606 14.6401C13.9606 14.6401 13.9902 14.0966 13.0539 12.8558C13.0539 12.8558 13.1366 12.5354 12.7973 12.2799M14.2345 14.2546C14.2345 14.2546 14.1993 13.7047 13.2834 12.6307C13.2834 12.6307 13.3292 12.3015 13.001 12.098M14.5713 13.9342C14.5713 13.9342 14.5047 13.3062 13.5387 12.3535C13.5387 12.3535 13.572 12.1067 13.2501 11.8555" stroke="#010002" stroke-width="1.5055" stroke-miterlimit="10"/>
<path d="M22.0332 3.80078C22.0332 3.80078 21.2745 4.28885 18.9118 4.77692M21.6964 4.47203C21.6964 4.47203 19.643 5.21629 18.6867 5.30775M20.8877 5.30775C20.8877 5.30775 19.6831 5.72791 18.2725 5.99305M19.8599 6.18318C19.8599 6.18318 18.4989 6.54641 17.8491 6.60669M18.9467 6.89719C18.9467 6.89719 17.7955 7.16396 17.5038 7.19603M18.2139 7.55545C18.2139 7.55545 17.3738 7.69728 17.0394 7.68969M17.1702 8.12276C17.1702 8.12276 16.8306 8.10504 16.6673 8.07493M16.8557 8.72905C16.8557 8.72905 16.567 8.64244 16.3967 8.52118M16.4301 9.357C16.4301 9.357 16.208 9.26173 16.1007 9.00189M15.8879 9.58869C15.8879 9.58869 15.7158 9.41763 15.7047 9.22707M15.2439 9.73809C15.2439 9.73809 15.3084 9.67633 15.2643 9.40788M15.3272 9.01379C15.3272 9.01379 15.3605 8.93692 15.3494 8.81566M16.5411 5.16926C16.5411 5.16926 16.1525 5.34248 16.023 5.58066C15.8934 5.81885 15.9787 6.05034 16.023 6.18316C16.0452 6.2499 16.319 6.83655 15.997 7.26095M16.5355 7.72216C16.5355 7.72216 16.5337 7.72 16.3967 7.67236M17.3553 7.09855C17.3553 7.09855 17.1237 7.15037 16.8964 7.15269M17.6754 6.46411C17.6754 6.46411 17.4034 6.49443 17.148 6.49009M18.0807 5.80152C18.0807 5.80152 17.6884 5.88813 17.4774 5.89247M18.4063 5.06098C18.4063 5.06098 17.9225 5.21441 17.5625 5.26885M16.7631 5.58499C16.7631 5.58499 17.111 5.94443 16.6928 6.27789C16.6928 6.27789 16.8668 6.58103 16.5189 6.89717M16.6114 7.04659C16.6114 7.04659 16.6632 7.62466 16.0267 7.6247C16.0267 7.6247 16.1488 8.14006 15.5344 8.12275C15.5344 8.12275 15.4641 8.53415 15.02 8.45187M15.9985 12.9774C15.9985 12.9774 16.0993 13.0023 16.3177 12.9774M16.9321 13.2806C16.9321 13.2806 17.2393 13.2286 17.2245 13.9691M16.747 13.4494C16.747 13.4494 17.0246 13.4105 17.0061 14.1294M14.0667 11.7172C14.0667 11.7172 14.1999 11.7475 14.2924 11.8644C14.385 11.9814 14.5626 11.9597 14.5626 11.9597C14.5626 11.9597 14.4664 11.8731 14.4331 11.6566C14.3998 11.44 14.2924 11.3751 14.2924 11.3751M14.6103 11.17C14.6103 11.17 14.7435 11.2003 14.836 11.3173C14.9286 11.4342 15.1062 11.4125 15.1062 11.4125C15.1062 11.4125 15.01 11.3259 14.9767 11.1094C14.9434 10.8928 14.836 10.8279 14.836 10.8279M14.7019 12.0106C14.7019 12.0106 14.8182 12.037 14.899 12.1391C14.9798 12.2412 15.1349 12.2223 15.1349 12.2223C15.1349 12.2223 15.0509 12.1467 15.0218 11.9576C14.9927 11.7686 14.899 11.7119 14.899 11.7119" stroke="#010002" stroke-width="1.5055"/>
<path d="M17.4768 10.6635L16.9398 13.2391L16.7183 13.0623L17.241 10.5947L16.8765 10.6021L17.7417 8.8418L17.7993 10.8714L17.4768 10.6635ZM18.8632 11.2073L17.2515 13.3233L17.0769 13.1062L18.6825 11.017L18.3578 10.8233L19.828 9.7443L19.0646 11.568L18.8632 11.2073Z" fill="#0081C6" stroke="#010002" stroke-width="1.5055" stroke-miterlimit="10"/>
<path d="M18.4729 10.0856L17.0304 13.1675L16.8081 13.0233L18.2603 9.94779L17.9066 9.84458L19.1317 8.40625L18.7385 10.3842L18.4729 10.0856Z" fill="#0081C6" stroke="#010002" stroke-width="1.5055" stroke-miterlimit="10"/>
<path d="M16.6732 14.1067L16.5652 14.5976L16.861 14.9251L16.4429 16.8872L16.071 16.3322L15.52 16.618L15.9381 14.6558L16.3257 14.5358L16.4263 14.0458C16.4263 14.0458 16.5436 13.9947 16.6732 14.1068L16.6732 14.1067Z" fill="#0081C6" stroke="#010002" stroke-width="1.506" stroke-miterlimit="10"/>
<path d="M16.7724 13.7831L16.5595 14.2245L16.7728 14.6303L15.9349 16.3991L15.6985 15.7503L15.103 15.8595L15.9409 14.0907L16.3418 14.0922L16.5475 13.6494C16.5475 13.6494 16.697 13.6491 16.7724 13.7832V13.7831Z" fill="#0081C6" stroke="#010002" stroke-width="1.506" stroke-miterlimit="10"/>
<path d="M16.8085 13.9114L16.2421 14.7109L16.372 15.1626L15.2156 16.6654L15.1099 15.9711L14.5088 15.9206L15.6652 14.4178L16.0555 14.5247L16.6563 13.676C16.6563 13.676 16.8175 13.7649 16.8085 13.9114V13.9114ZM2.45726 12.0371C2.59226 11.9758 2.6895 11.9167 2.68909 11.7566C2.68901 11.7185 2.66996 11.634 2.6316 11.5033L1.72496 8.42457C1.67126 8.24165 1.63069 8.1329 1.61183 8.09281C1.57106 8.00615 1.49108 7.97081 1.3833 7.92094H2.53564C2.41046 7.98669 2.29631 8.03886 2.2974 8.18636C2.29778 8.24261 2.31203 8.32202 2.34146 8.42457L3.03596 10.8405L3.72986 8.42457C3.7593 8.32206 3.77449 8.24265 3.774 8.18631C3.77265 8.03473 3.65381 7.98007 3.537 7.9209H4.65386C4.55171 7.9664 4.4685 8.00202 4.42575 8.09281C4.40689 8.13281 4.36631 8.24157 4.31265 8.42448L3.40605 11.5034C3.36769 11.6341 3.35381 11.72 3.34853 11.7597C3.34853 11.7597 3.30683 11.9544 3.58039 12.0371H2.45726V12.0371ZM21.7784 11.7205V8.23452C21.7784 8.17423 21.7695 8.12802 21.7516 8.09577C21.7337 8.06369 21.6558 7.97102 21.5447 7.92094H22.583C22.4719 7.96186 22.394 8.06119 22.3761 8.09436C22.3582 8.12752 22.3493 8.17427 22.3493 8.23461V11.7204C22.3493 11.7828 22.3586 11.8306 22.3771 11.8638C22.3956 11.8969 22.4719 11.9779 22.5831 12.0371H21.5447C21.6559 11.9809 21.7337 11.8944 21.7516 11.8622C21.7695 11.8301 21.7785 11.7829 21.7785 11.7206L21.7784 11.7205Z" fill="#0081C6" stroke="#010002" stroke-width="1.506" stroke-miterlimit="10"/>
<path d="M12.1808 12.9065C12.1808 12.9065 14.9596 11.5383 14.9665 8.37305H9.39502C9.40196 11.5383 12.1808 12.9065 12.1808 12.9065Z" fill="white" stroke="#010002" stroke-width="1.506"/>
<path d="M9.82373 8.37305V10.3954C9.82373 10.3954 10.0365 10.8645 10.2523 11.1586V8.37305H9.82373Z" fill="#A60032" stroke="#010002" stroke-width="1.5055"/>
<path d="M10.6807 8.37305V11.7068C10.6807 11.7068 10.9487 11.9988 11.1092 12.1395V8.37305H10.6807ZM11.5378 8.37305V12.4939C11.5378 12.4939 11.8436 12.7133 11.9664 12.7853V8.37305H11.5378ZM14.5378 8.37305V10.3954C14.5378 10.3954 14.325 10.8645 14.1092 11.1586V8.37305H14.5378ZM13.6807 8.37305V11.7068C13.6807 11.7068 13.4127 11.9988 13.252 12.1395V8.37305H13.6807ZM12.8235 8.37305V12.4939C12.8235 12.4939 12.5178 12.7133 12.3949 12.7853V8.37305H12.8235Z" fill="#A60032" stroke="#010002" stroke-width="1.505"/>
<path d="M14.9665 6.07379C14.9665 6.07379 13.603 6.86629 12.1808 6.00879C10.7586 6.86629 9.39502 6.07379 9.39502 6.07379V8.37337H14.9665V6.07379Z" fill="#162667" stroke="#010002" stroke-width="1.506" stroke-miterlimit="10"/>
</g>
<defs>
<clipPath id="clip0_275_23296">
<rect width="24" height="20" rx="4" fill="white"/>
</clipPath>
</defs>
</svg>
