<svg width="24" height="20" viewBox="0 0 24 20" fill="none" xmlns="http://www.w3.org/2000/svg">
<g clip-path="url(#clip0_275_23257)">
<path d="M0 10H24V20H0V10Z" fill="#00AB39"/>
<path d="M0 0H24V10H0V0Z" fill="white"/>
<path d="M15.7093 2.94922C15.709 2.94984 15.7088 2.95059 15.7084 2.95122C15.7094 2.95064 15.7102 2.9498 15.7112 2.94922H15.7093H15.7093ZM15.7084 2.95122C14.1978 3.87934 12.8457 4.84505 11.5166 6.07572C10.8787 6.69489 11.0587 7.18839 11.034 7.74439C11.0546 8.11764 10.9614 8.46488 10.7548 8.67413C10.282 8.78039 9.80881 8.88718 9.33616 8.99343C9.29078 8.84801 9.24586 8.70293 9.2006 8.55759C9.24383 8.33468 9.40973 8.22509 9.75905 8.36488C9.78657 8.07822 9.57897 7.96155 9.33616 7.86188C9.25272 7.78972 9.14911 7.7343 9.16265 7.48634C9.12177 6.92518 9.93226 7.52651 9.93976 7.52651C9.94733 7.52651 9.91276 6.96018 9.54038 6.8468C9.33736 6.76697 9.25145 6.52901 9.32896 6.35284C9.49141 5.99268 9.79722 6.38101 10.0311 6.39493C10.0223 6.15993 9.96207 5.99234 9.77982 5.80259C9.6818 5.73551 9.4409 5.68509 9.43467 5.57268C9.42961 5.42001 9.6605 5.35476 9.97778 5.39697C9.91163 5.18297 9.69826 5.04455 9.4049 4.94414L9.23138 4.60872C9.14926 4.4398 9.11236 4.43522 9.30275 4.1148C9.47375 3.99189 9.701 3.81805 9.872 3.69514C9.80911 3.68672 9.74607 3.67839 9.68318 3.67001C9.70831 3.44084 9.7112 3.36376 9.75908 2.98326C9.57556 3.26193 9.34632 3.21209 9.14011 3.32668C9.14011 3.32668 8.55226 3.44264 8.363 3.72026C8.3555 3.72026 6.88467 3.63693 6.88467 3.63693C6.57128 3.68543 6.30353 3.78414 6.2513 4.12289C5.53441 4.2033 4.7837 4.13218 4.23717 4.89401C4.60925 4.87443 4.93505 4.77597 5.3531 4.83576C5.3531 4.83576 5.70935 4.84326 5.78322 5.26243C5.79072 5.27918 5.90435 5.27951 5.90435 5.27951C5.94957 5.31859 5.99453 5.35784 6.03983 5.39701C6.05746 5.34388 6.07471 5.29034 6.09233 5.23734L6.21338 5.32968C6.22591 5.27101 6.23877 5.21268 6.25133 5.15401C6.29157 5.18472 6.33121 5.21568 6.37152 5.24634C6.37403 5.17651 6.37715 5.10634 6.37962 5.03651L6.5378 5.16201V4.88593C6.5378 4.88593 7.12167 4.88443 7.29957 5.29655C7.30715 5.30489 5.66105 5.63268 4.07093 5.48126C4.22431 5.39743 4.3775 5.31309 4.53087 5.22926C3.95112 5.0983 3.40602 4.97989 2.89445 4.53343C3.0875 5.34109 4.08522 6.28968 4.28963 6.28551C4.28963 6.29384 4.09351 5.89189 4.09351 5.89189C4.66943 5.9198 5.2454 5.9473 5.82125 5.97522C5.88413 6.18759 5.85631 6.42564 6.0101 6.6128C6.0101 6.6128 5.9147 6.9638 6.12665 7.10676C6.13422 7.12351 6.37966 6.39489 6.37966 6.39489C6.37966 6.39489 6.45488 6.59093 6.53063 6.72122C6.64036 6.09447 7.25438 5.9923 7.25438 5.9923C7.25438 5.9923 7.38275 6.31926 7.38275 6.32772C7.19082 6.35855 6.95213 6.79314 7.08087 7.03147C6.95225 7.03418 6.72372 7.45509 6.79445 7.68509C6.68626 7.80468 6.41682 7.96418 6.48537 8.46522C6.27331 8.51572 6.14776 8.94689 6.21342 9.40397C5.88522 9.74338 5.96581 10.3665 6.25861 10.6188C6.13711 10.739 6.06222 10.8314 6.06248 10.9792C5.94698 10.9316 5.84048 10.9714 5.7905 11.0556C5.6489 10.8943 5.4455 10.753 5.30075 10.904C5.26325 10.7131 5.0396 10.5031 4.79476 10.5275C4.80908 10.3262 4.71507 10.0771 4.45587 9.9903C4.45587 9.9903 4.40337 9.04709 4.14593 8.7413C4.1207 8.57018 4.16067 8.4538 4.37273 8.31359C4.5845 8.18805 4.6295 8.09068 4.61401 7.73526C4.69748 7.49759 4.7609 7.25534 4.50106 7.09068C4.50893 7.37326 4.43082 7.50934 4.32758 7.63484C4.20421 7.61484 4.16108 7.77484 4.07813 7.84468C3.962 7.67076 4.32308 7.40134 4.05552 7.01438C4.04052 6.99751 3.86877 6.50918 3.44465 6.52034C3.64625 6.65151 3.73152 6.87218 3.73115 7.09868C3.59742 7.51776 3.52951 7.84168 3.66338 8.32255C3.48721 8.02922 3.38727 7.47172 3.2414 7.37476C3.11352 7.34701 3.05105 7.01101 2.55462 7.10664C2.76882 7.17064 2.83681 7.35234 2.89445 7.5173C2.76312 7.59255 2.82837 7.79105 2.92426 7.92797C2.90603 8.24972 3.07951 8.43772 3.33901 8.55747C3.29626 8.99613 3.25343 9.43405 3.21068 9.87272C3.10763 9.85814 2.94901 10.3041 2.88631 10.3175C2.78543 10.3873 2.60926 10.5749 2.81131 10.6278C2.75131 10.8685 2.69562 11.0136 2.37305 11.0636C2.37305 11.0636 2.71392 11.2882 2.99652 10.9039C3.29941 10.8955 3.19977 10.4942 3.34625 10.3176C3.34625 10.3092 3.42935 10.2512 3.55043 9.89788C3.60342 10.2134 3.89476 11.1794 4.55348 11.6589C5.12761 12.3418 5.59951 12.9868 5.59448 13.8968C5.81855 13.6653 5.95235 13.2985 6.05528 12.9491C6.36691 12.8287 6.81267 12.7827 7.21013 12.8025C7.14196 12.9619 7.06565 13.1148 7.16401 13.2182C6.88666 13.324 6.82587 13.5478 6.93725 13.7714C6.64482 13.992 6.62562 14.1338 6.62093 14.5003C6.08 15.271 5.74628 15.2453 5.21041 15.0455C5.03446 14.9308 4.7621 14.7655 4.63666 14.8527C4.40521 14.6813 4.07243 14.6559 4.01768 15.0455C4.19131 14.8855 4.29503 14.9164 4.43333 15.0706C4.40551 15.1489 4.38226 15.2269 4.48572 15.2715C4.44046 15.3273 4.3955 15.3833 4.3502 15.4391C4.1012 15.3966 3.76632 15.399 3.67883 15.7995C3.80678 15.6818 4.09058 15.6542 4.31948 15.7665C4.36231 15.7832 4.4051 15.7998 4.44788 15.8166C4.45291 15.8809 4.45823 15.9452 4.46326 16.0094C4.46326 16.0094 4.124 15.9513 4.03313 16.5627C4.35113 16.1867 4.57613 16.2856 4.57613 16.2856C4.69876 16.4849 5.14988 16.4549 5.47437 16.1269C5.93015 15.8438 6.06301 16.2507 6.3572 15.9843C6.6011 15.7823 6.8897 15.9166 7.08818 16.1521C7.31705 16.2475 7.55656 16.3259 7.74511 16.1521C7.74511 16.1521 7.97536 15.9888 8.20508 16.2525C8.2076 15.9551 8.01796 15.7972 7.76052 15.7916L7.68462 15.7073C7.44323 15.6513 7.172 15.674 6.96087 15.5396C7.06036 15.1198 7.20537 14.7395 7.48857 14.4161C7.83807 13.9998 8.0954 13.8105 8.53677 13.1731C8.51971 13.5333 8.76815 13.9338 8.8991 14.2997C8.8991 14.2997 9.16272 13.8321 9.20097 13.4523C9.20847 13.4523 9.53123 13.2656 9.66897 13.1069C9.95975 13.3073 10.4337 12.9465 10.7398 12.6481C10.9284 12.7274 11.0717 12.7217 11.291 12.6481C11.1149 13.0461 11.3928 13.4154 11.834 13.5698C11.8748 13.9212 12.1943 13.9948 12.6789 13.9975C12.6993 14.2042 12.988 14.2323 12.988 14.2323C12.8055 14.3268 12.7105 14.4215 12.7169 14.635C12.5299 14.6364 12.3884 14.6886 12.3391 14.9281C12.0825 14.933 11.8209 14.9549 11.6 15.0958C11.3636 15.0551 11.076 14.9462 10.8906 14.7354C10.795 14.6459 10.7712 14.5171 10.6042 14.4673C10.4984 14.3283 10.3717 14.3593 10.3322 14.4924C10.2228 14.3975 9.81245 14.3533 9.7439 14.7856C9.93545 14.6298 10.1072 14.5704 10.2273 14.7605C10.1619 14.8924 10.3868 14.9679 10.5816 15.0205C10.7197 15.0301 10.9646 15.1698 11.0415 15.4061C10.8634 15.4661 10.5934 15.4463 10.4153 15.2966C10.257 15.1493 10.0431 15.1669 9.92551 15.2634C9.76246 15.1479 9.37407 15.366 9.359 15.7152C9.52257 15.5487 9.67148 15.4681 9.8198 15.5737C9.746 15.5931 9.77405 15.6012 9.78185 15.649C9.90758 15.73 10.0329 15.8109 10.1587 15.8919C9.97377 15.9461 9.79996 16.0281 9.88036 16.4111C9.88036 16.4111 10.031 16.0802 10.3701 16.2022C10.3777 16.1938 10.4169 16.3203 10.5138 16.2353C10.6606 16.0498 10.9962 15.9667 11.2909 15.9341C11.5275 15.9027 11.7636 15.8253 11.9696 15.9753C12.1529 15.8705 12.357 15.8 12.5659 15.9673C12.8124 16.0539 12.9923 16.3731 13.305 16.2273C13.4607 16.1077 13.6518 16.1016 13.8482 16.3448C13.8506 16.0382 13.6438 15.9354 13.3503 15.8668C13.2824 15.8221 13.2149 15.7771 13.147 15.7323C12.9584 15.7015 12.769 15.7387 12.5804 15.6399C13.5674 15.3564 14.2593 14.7448 14.7464 13.8718C14.9023 13.9333 15.0576 13.9941 15.2136 14.0556C15.3242 14.0635 15.3326 14.1062 15.5606 14.1821C15.5692 13.809 15.425 13.4246 14.8214 13.3859L14.029 13.0506C13.8608 12.8535 13.7847 12.4353 13.9991 12.1871C14.209 11.9795 14.2456 12.0043 14.3841 11.7514C14.5524 11.7343 14.7111 11.9271 14.8666 11.9271C14.9405 12.1708 15.3661 12.3863 15.6365 12.3126C15.8059 12.4793 16.1283 12.5719 16.4814 12.4381C16.6818 12.6331 16.9428 12.7144 17.2503 12.5636C17.332 12.6543 17.5044 12.7264 17.7031 12.6811C17.7182 12.6811 17.8035 12.9233 18.0203 13.0084C17.9258 13.1105 17.9839 13.5535 18.0808 13.7121C18.0147 13.8826 17.9938 14.0642 18.0501 14.2403C17.8316 14.3964 17.787 14.5126 17.8847 14.7765C17.5985 15.2875 17.2561 15.3459 16.9341 15.1881C16.8184 15.1071 16.7029 15.0252 16.5872 14.9441C16.4639 14.81 16.3408 14.6767 16.2176 14.5426C16.1548 14.4771 16.025 14.4566 15.998 14.6008C15.998 14.6008 15.5238 14.4833 15.4856 14.9281C15.6822 14.7154 15.9609 14.9027 15.9609 14.9111C15.9609 14.9195 15.8945 14.9696 15.9455 15.0546C15.957 15.044 16.2918 15.1934 16.5899 15.3358C16.7518 15.4039 16.7874 15.4253 16.8582 15.4673C16.7692 15.4223 16.6798 15.3784 16.5899 15.3357C16.4084 15.2593 16.2316 15.1982 16.1796 15.2132C16.0107 15.1957 15.8316 15.1724 15.7495 15.3136C15.568 15.3989 15.2844 15.4673 15.2967 15.8417C15.4194 15.6188 15.5875 15.6282 15.8019 15.6489C15.7968 15.6657 15.7925 15.6823 15.7874 15.6991C16.0202 15.8169 15.9761 15.6671 16.1931 15.645C16.3746 15.6264 16.6319 15.6986 16.7678 15.7493C16.5968 15.8052 16.3643 15.7818 16.2546 15.917C16.2344 15.9618 16.164 15.9435 16.1949 16.0506C16.1949 16.0506 15.8614 16.041 15.772 16.5536C16.1111 16.3123 16.3681 16.3197 16.3756 16.3197C16.3831 16.3197 16.4814 16.3448 16.4814 16.3448C16.4814 16.3448 16.8886 16.0426 16.8961 16.0426C16.9036 16.0426 17.2904 15.8523 17.469 16.0676C17.6248 16.1528 17.7915 16.1582 17.9524 16.0506C18.2695 15.8973 18.5663 15.8866 18.8579 16.1018L19.1216 16.2775C19.1594 16.2496 19.1969 16.2211 19.2346 16.1932C19.2346 16.1932 19.5333 16.0994 19.7524 16.395C19.6618 15.8837 19.3331 15.8669 19.3331 15.8669C19.3079 15.8417 19.2823 15.8167 19.2572 15.7916C19.1012 15.7245 18.9459 15.6568 18.7899 15.5898C18.7219 15.4026 18.5509 15.2535 18.7213 15.0285C18.8954 14.067 19.1035 13.3449 18.7665 12.3708C19.0808 12.5217 19.316 12.9883 19.7099 12.8237C19.7099 12.4324 18.4139 11.6897 17.4238 11.0928C19.0458 11.0006 20.9951 9.67018 20.2458 7.9793C20.364 7.57139 20.4818 7.16334 20.6 6.75538C20.7669 7.12888 21.1047 7.41351 21.4078 7.53455C21.158 7.00455 21.0146 5.38414 21.1584 4.26547C20.5049 5.16255 19.7831 5.95872 19.016 6.76747C19.3933 6.86547 19.723 6.79651 20.0877 6.74639C19.9846 6.98109 19.8845 7.21651 19.7813 7.45122C18.7845 6.80264 17.6142 7.28939 17.6054 8.15505C17.6396 9.16451 18.7629 9.30797 19.4109 8.95622C19.2824 9.87664 17.3786 9.53755 17.3786 9.53755C16.7022 9.27847 16.0598 9.32284 15.3491 9.32872C15.4968 8.82401 16.3166 8.37605 16.9413 8.57372C16.0668 7.48426 17.0649 6.13163 18.2687 5.71526C16.9566 5.23443 18.0864 4.12305 19.0684 3.32672C19.0684 3.32672 16.2444 4.64722 15.987 4.64297C15.1838 4.57589 15.4028 3.51955 15.7088 2.95122H15.7084ZM6.84492 4.2193C6.91062 4.21972 6.98787 4.2268 7.04907 4.24339C7.17642 4.27789 7.33145 4.29764 7.3292 4.3398C7.27032 4.44939 7.12546 4.58168 6.98315 4.57372C6.84083 4.5658 6.75852 4.47097 6.71116 4.2333C6.72571 4.22455 6.77915 4.21893 6.84488 4.2193H6.84492ZM18.7319 7.94222C18.917 7.93938 19.1388 8.02638 19.3554 8.28155C19.2513 8.61476 18.3479 8.78584 18.2874 8.29259C18.269 8.14343 18.4613 7.94626 18.7319 7.94218L18.7319 7.94222Z" fill="#D21034" stroke="black" stroke-width="1.388"/>
<path d="M7.77793 7.13149L7.91492 7.35287M7.90865 7.35987C7.90865 7.35987 7.90865 7.65737 7.96468 7.66437M7.84018 7.82345C7.84637 7.83041 7.98343 8.08637 7.98343 8.08637M7.59107 8.15553C7.59725 8.15553 7.76544 8.37012 7.76544 8.37012M7.9115 8.20366C7.9115 8.21062 8.0705 8.54312 8.08299 8.54312M7.70312 8.43241C7.70312 8.43241 7.75918 8.83366 7.80898 8.81991M7.46773 9.16783L7.62842 9.43574M7.76544 8.88216C7.76544 8.88216 7.85263 9.2627 7.92107 9.22808M7.98947 8.65366C7.99569 8.66058 8.15154 8.90991 8.19508 8.87524M8.1578 8.97208L8.30724 9.30424M7.90873 9.22808C7.91495 9.24195 8.03323 9.62253 8.03323 9.62253M7.62223 9.42878C7.62223 9.42878 7.73435 9.85087 7.83403 9.78162M7.57873 9.98928C7.57873 9.98928 7.58496 10.2107 7.68459 10.2245M7.7531 9.87853C7.7531 9.88545 7.85274 10.0377 7.85274 10.0377M8.03769 9.6152L8.12045 9.76091M8.30102 9.34578L8.42559 9.5187M7.72314 7.36174C7.72937 7.54858 7.99603 7.29591 8.10189 7.13674M7.60978 8.01037C7.60978 8.01037 7.90247 7.78203 8.12668 7.43608M7.51633 8.55691C7.72183 8.49462 8.09998 7.98649 8.17468 7.71666M7.47275 9.06195C7.52885 9.08966 8.23513 8.52445 8.25388 8.10928M7.45412 9.49791C7.45412 9.49103 8.09987 9.31499 8.36762 8.52624M7.41947 10.095C7.41947 10.095 8.45053 9.40799 8.50659 8.90291M15.4686 11.2485C15.4686 11.2485 15.4021 11.8413 14.8665 11.9313M15.6367 12.3071C15.6429 12.3002 16.1473 11.6844 16.0166 11.4975M16.8074 11.7121C16.8074 11.7121 16.8012 12.1411 16.4836 12.4386M17.4364 11.8366C17.4364 11.8366 17.4489 12.3555 17.2496 12.5631M18.0155 12.1479C18.0155 12.1479 17.7921 12.6339 17.7111 12.6823M18.0059 13.0092C18.0059 13.0092 18.2999 13.0906 18.3932 12.8761M18.0821 13.7142C18.0821 13.7142 18.3539 13.7687 18.4784 13.4781M18.0529 14.2583C18.0529 14.2583 18.2729 14.4637 18.4223 14.1939M14.8961 10.26C14.8961 10.26 14.8712 11.3118 16.2038 11.5263C17.6922 11.983 18.3958 11.7407 18.4831 13.5951C18.427 14.3009 18.3481 15.098 17.8873 14.7935M13.4828 11.2289C13.4828 11.2289 13.6946 11.6509 13.9499 11.6232C14.2861 11.5126 14.4107 11.7409 14.4107 11.7409M12.5737 11.6509C12.5737 11.6509 13.1342 11.9554 13.6136 11.4641M12.636 11.2151C12.6857 11.9416 11.8824 12.3567 11.5648 12.2876M12.674 13.9991C12.6803 13.9991 13.1092 13.7129 13.022 13.5122M11.8202 13.5746C11.8325 13.5607 12.5425 13.4846 12.6733 13.2008M11.4901 12.4121C11.4901 12.4052 12.4976 12.4152 12.5661 12.6227M12.829 11.7478C12.829 11.7478 11.845 13.616 13.6634 13.616M11.789 11.7201C11.789 11.7201 11.5772 12.419 11.2783 12.6543M10.7428 11.478C10.7428 11.478 11.1082 12.2635 10.7407 12.651M9.78995 11.6994C9.79618 11.7132 9.90827 12.8134 9.65915 13.1247M9.3167 11.734C9.3167 11.734 9.35405 12.4328 9.16727 12.6819C8.9804 12.9311 9.21099 13.4484 9.21099 13.4484M6.94112 13.7844C6.94112 13.7844 7.07488 14.045 7.26174 13.9551M7.16829 13.2147C7.16829 13.2147 7.46717 13.36 7.56684 13.3047M7.4921 12.0384C7.4921 12.0384 7.04998 12.1768 7.21813 12.758C7.47339 12.9864 7.7225 12.9517 7.7225 12.9517M6.62023 14.5086C6.61404 14.5086 6.6701 14.9652 6.95653 14.6192C7.1558 14.1557 7.78475 12.8479 7.928 12.3982M8.22065 12.1837C8.22065 12.1837 7.91552 11.9208 7.928 12.2875C7.92174 12.5158 8.02138 12.5711 8.02138 12.5711C8.03383 12.7372 8.16463 12.9725 8.27045 12.758C8.31407 12.5504 8.23933 12.4605 8.23933 12.4605M8.4137 12.0868C8.13969 12.066 7.99025 12.7372 8.5196 12.3152M8.7002 11.8584C8.7002 11.8584 8.63169 11.9622 8.52583 11.8515C8.46973 11.7409 8.27053 12.3498 8.6192 12.3705C8.68145 12.1906 8.87458 12.1422 8.87458 12.1422M9.0365 11.5679C9.0365 11.5679 8.88077 11.6509 8.82474 11.637C8.63799 11.6855 8.6753 12.1699 8.91193 12.1422C8.99285 12.0384 9.08008 11.8931 9.08008 11.8931M7.56808 10.9347C7.56178 10.9347 6.95008 12.0035 7.90907 12.2872M15.332 9.32578C15.332 9.32578 14.9584 9.6787 15.3071 10.246C14.1487 10.2252 13.5261 10.8203 13.4763 11.2216C12.0004 11.104 12.2682 11.5883 11.7887 11.7474C11.1472 11.1524 10.2069 11.4845 10.2692 12.0796C9.83942 11.4084 9.17942 11.7336 9.09842 11.8997C9.01749 12.0657 9.04862 11.0763 9.04862 11.0763C9.04862 11.0763 8.61894 11.2908 8.31999 11.6852C8.32625 11.4223 8.31999 10.9932 8.31999 10.8549C7.96089 10.9356 7.61424 10.9402 7.24262 10.931M6.27122 10.6265C6.27122 10.6265 6.80672 10.9586 7.46687 10.5089M6.2276 9.42945C6.2276 9.42945 6.64487 9.84453 7.42948 9.71312M6.4892 8.47458C6.4892 8.47458 6.58258 8.81362 7.47939 8.83437M6.79292 7.69045C6.79292 7.69045 7.1306 8.14937 7.58518 8.0802M7.0808 7.03537C7.0808 7.03537 7.21157 7.28445 7.70975 7.32595M7.37338 6.30887C7.37338 6.30887 7.63498 6.62712 7.93389 6.57178M8.92952 3.72203C8.92952 3.72203 9.04532 3.59337 9.23837 3.6577M8.84589 4.40124C8.84589 4.40124 8.48552 4.38691 8.51124 4.22966C8.53704 4.05091 8.89093 3.92216 8.89093 3.92216C8.89093 3.92216 9.36058 3.5862 9.43138 3.47174M7.30805 5.30199L7.76492 6.27433L7.98369 5.90974L8.09957 6.15991L8.28613 5.79533L8.6078 6.02408L8.48555 5.58083L8.75578 5.55937C8.75578 5.55937 8.68498 5.34491 8.44048 5.30199C8.50483 5.24483 8.72998 5.08033 8.72998 5.08033C8.72998 5.08033 8.60135 4.91595 8.40185 4.90878C8.46624 4.83012 8.55635 4.63712 8.54987 4.63712C8.54349 4.63712 8.35037 4.58703 8.35037 4.58703C8.35037 4.58703 8.80727 4.75145 9.16112 4.5227M8.28643 3.73658C8.2928 3.74374 8.26067 3.93678 8.16418 4.05116M6.5234 4.27283C6.5234 4.27283 6.80604 4.18637 7.01754 4.23533C7.22705 4.28324 7.50793 4.36574 7.50793 4.36574C7.50793 4.36574 7.84243 4.31574 7.95193 4.22991M5.82208 4.48012C5.82208 4.48012 5.78353 4.63024 5.7707 4.73037C5.7707 4.80183 5.56472 4.89478 5.56472 4.89478M5.95085 4.1727C5.95085 4.1727 6.131 4.42291 6.13742 4.56587C6.14379 4.70887 6.00227 4.81612 6.00227 4.81612M4.09127 5.88137L3.90467 5.54537L4.07192 5.48103M7.46087 10.5162C7.31143 10.3017 7.57299 7.00808 8.12724 6.15024C7.93412 7.70016 8.57555 9.28466 8.73748 9.27774M5.77648 5.22983C5.77648 5.22983 6.0287 5.33712 6.55179 4.87691M7.25859 5.99108L7.63374 5.99624M18.8961 3.40958C18.8961 3.40958 12.6449 6.65516 12.5537 6.82708C13.6094 6.47312 18.0862 5.64408 18.1955 5.71483C17.9316 5.78566 12.4991 7.17074 12.2443 7.50441C13.6001 7.45387 16.4395 7.98974 16.885 8.50537C15.9205 8.2627 13.0357 7.78745 12.1532 7.99978C12.7993 8.1717 15.2744 9.95116 15.2744 10.2342C14.9013 9.83995 11.9257 8.47499 11.8074 8.60645C12.4898 9.06145 13.4545 10.7499 13.4544 11.1645C13.2542 10.8106 11.5344 8.75808 11.4343 8.88945C11.6164 9.17266 11.977 11.5954 11.7926 11.7078C11.7926 11.4145 11.125 9.29395 11.0704 9.23328C10.9339 9.2737 10.0828 11.8205 10.2514 12.0574C10.1423 11.2081 10.2696 9.43553 10.4789 9.50628C10.1059 9.56695 8.91519 11.3113 9.04254 11.5842C9.07892 11.1495 9.13217 10.8612 9.80552 9.41528C9.05934 9.46578 7.51247 10.5477 7.2485 10.9319C7.45775 10.2444 8.76815 9.08162 9.34138 9.0007M12.0397 6.4707C12.7005 6.06333 14.7422 5.23195 16.1041 4.62195M10.7573 8.66308C10.7573 8.66308 11.2076 8.65599 11.6581 7.29758C12.1019 5.43895 15.6215 3.3657 15.6923 2.97949M4.80088 10.5322C4.80088 10.5322 4.69633 10.7797 4.56763 10.8512M5.3057 10.9072C5.3057 10.9072 5.16605 11.2086 5.13388 11.3516M5.78882 11.0546C5.78882 11.0546 5.90597 11.466 5.80944 11.659M4.4435 9.98666C4.08962 10.2083 4.64488 11.6089 6.3242 11.7448M6.05394 10.987C6.05394 10.987 6.00894 11.2372 6.3242 11.7377C6.23413 12.2953 6.70573 12.7335 6.89233 12.805M5.91883 5.96128C5.91883 5.9542 5.9702 5.8112 5.9702 5.8112L6.02758 5.97649L6.11994 5.97387L6.18088 5.80816L6.2309 5.97449H6.32263L6.37925 5.78978L6.46475 5.96462L6.53735 5.9687L6.59454 5.7557L6.7124 5.90828L6.75523 5.88987L6.79198 5.67683L6.90838 5.82578L6.94175 5.80399L6.99575 5.59399L7.0925 5.75016L7.14125 5.73253L7.18644 5.55603L7.27637 5.71828M5.81518 5.98008L6.51707 5.96849C6.74042 5.96474 7.10818 5.62083 7.52 5.72808M4.3358 7.64849C4.3358 7.64849 4.4516 7.92737 4.61248 7.77008M4.06558 7.83445C4.06558 7.83445 3.84035 8.50645 4.11058 8.6637M3.74383 7.09087C3.74383 7.09087 3.74383 7.24816 4.03982 7.00512M2.82324 10.6224C2.82324 10.6224 3.06137 10.7011 3.02274 10.9012M2.91324 7.53387C2.91324 7.53387 3.06118 7.61249 3.20274 7.36945M4.48318 15.2695C4.71482 15.2552 4.76469 15.3714 4.9754 15.3714C5.21818 15.3797 5.45477 15.2695 5.76365 15.1766M7.75183 15.7987C7.74538 15.7987 7.64244 16.0417 7.73252 16.1632M4.45089 15.82C4.45089 15.82 4.81764 15.484 5.01069 15.6914C5.19733 15.7629 5.30019 15.7485 5.30019 15.7485M4.64413 14.8621C4.64413 14.8621 4.7342 15.1194 4.43177 15.0838M4.34169 15.4554C4.34169 15.4554 4.5347 15.5914 4.31597 15.77M4.45749 16.0132C4.45749 16.0132 4.72127 16.0561 4.56684 16.2919M12.7234 14.63C12.991 14.8679 12.8813 15.0104 13.7213 14.3838M12.3404 14.9274C12.3404 14.9274 12.7357 15.3987 13.0239 14.8268M11.5869 15.0967L11.0517 15.4078M10.0883 15.847C10.0883 15.847 10.4135 15.5359 10.5659 15.7006C10.7182 15.8653 11.3646 15.5588 11.3646 15.5588M10.3311 14.4974C10.3311 14.4974 10.4424 14.7444 10.2282 14.7764M9.9071 15.2706C9.9071 15.2706 10.0199 15.5028 9.80165 15.5668M10.1583 15.9018C10.1583 15.9018 10.4959 15.9202 10.3765 16.2038M13.3163 15.8515C13.3163 15.8515 13.1311 16.0253 13.267 16.2221M16.005 14.6025C16.005 14.6025 16.2191 14.7169 15.9638 14.9137M15.7497 15.3254C15.7497 15.3254 15.9103 15.5129 15.8033 15.6684M16.1985 16.0436C16.1985 16.0436 16.4209 16.1122 16.3961 16.3181M19.3112 15.8606C19.3112 15.8606 19.1259 16.0115 19.2247 16.2083M16.0112 9.84799C16.4559 9.78853 17.094 10.8865 17.4193 11.1015M19.3645 8.2927C19.3645 8.2927 19.5898 8.51116 19.3916 9.03824M19.7821 7.4522C19.8447 7.50637 20.0868 7.64991 20.2467 7.9822M20.4003 5.80845C20.4003 5.81295 20.0874 6.74624 20.0874 6.74624M20.7503 5.76266C20.7503 5.76266 20.6885 6.59516 20.5979 6.76449M12.9787 14.232C12.9787 14.232 13.6951 14.3144 13.7281 14.3739C13.8104 14.2778 14.4501 13.7021 13.6637 13.6197C13.532 14.2191 12.991 14.2412 12.9787 14.2321L12.9787 14.232ZM19.3558 8.2817C19.2517 8.61491 18.3484 8.78545 18.2878 8.29212C18.257 8.04103 18.8228 7.6537 19.3558 8.2817Z" stroke="black" stroke-width="1.388" stroke-linejoin="round"/>
<path d="M6.83789 4.22172L7.18544 4.29318C7.18544 4.29318 6.94083 4.65776 6.83789 4.22168V4.22172Z" fill="black" stroke="black" stroke-width="1.388" stroke-linejoin="round"/>
</g>
<defs>
<clipPath id="clip0_275_23257">
<rect width="24" height="20" rx="4" fill="white"/>
</clipPath>
</defs>
</svg>
