<svg width="192" height="192" viewBox="0 0 192 192" fill="none" xmlns="http://www.w3.org/2000/svg">
<rect width="192" height="192" rx="40" fill="#1B1B1B"/>
<path d="M21.5501 139.456H24.7685L30.3186 151.999H27.6585L26.6076 149.643H21.0246L22.0755 147.248H25.5567L23.1593 141.851L18.6601 151.999H16L21.5501 139.456Z" fill="white"/>
<path d="M40.4014 139.454H42.6674V149.641H52.0599V151.997H40.4014V139.454Z" fill="white"/>
<path d="M58.5942 139.454H61.2215L65.7207 149.641L70.2199 139.454H72.88L67.3299 151.997H64.1115L58.5942 139.454Z" fill="white"/>
<path d="M85.2289 139.454H82.9629V151.997H85.2289V139.454Z" fill="white"/>
<path d="M96.132 151.428C95.7051 151.048 95.4752 150.478 95.4424 149.718V148.273H97.7084V148.615C97.7412 148.996 97.8069 149.224 97.9383 149.376C98.0368 149.49 98.2339 149.566 98.4637 149.604H104.802C104.999 149.604 105.163 149.566 105.262 149.528C105.36 149.49 105.459 149.376 105.525 149.224C105.59 149.072 105.623 148.805 105.623 148.425V148.007C105.623 147.665 105.59 147.399 105.525 147.209C105.459 147.057 105.393 146.943 105.262 146.905C105.163 146.867 104.999 146.829 104.802 146.829H97.7084C97.3143 146.829 96.9531 146.715 96.6247 146.525C96.2962 146.335 96.0007 146.031 95.8036 145.651C95.6066 145.271 95.4752 144.815 95.4752 144.32V141.888C95.4752 141.356 95.6066 140.938 95.8036 140.558C96.0007 140.178 96.2962 139.873 96.6247 139.683C96.9531 139.493 97.3143 139.379 97.7084 139.379H105.623C106.214 139.379 106.74 139.569 107.167 139.911C107.593 140.254 107.791 140.862 107.791 141.736V143.104H105.623V142.99C105.623 142.61 105.59 142.344 105.525 142.154C105.459 141.964 105.393 141.85 105.295 141.812C105.196 141.774 105.032 141.736 104.802 141.736H98.4637C98.1353 141.774 97.9383 141.888 97.8726 142.116C97.7741 142.344 97.7412 142.648 97.7412 143.066C97.7412 143.484 97.7741 143.826 97.8726 144.016C97.9383 144.244 98.1353 144.358 98.4309 144.396H105.623C106.214 144.396 106.74 144.587 107.167 144.929C107.593 145.271 107.791 145.879 107.791 146.753V149.49C107.791 150.364 107.593 150.972 107.167 151.314C106.74 151.656 106.247 151.846 105.623 151.846H97.7412C97.1173 151.998 96.5918 151.808 96.132 151.428Z" fill="white"/>
<path d="M118.693 151.427C118.266 151.047 118.036 150.477 118.003 149.717V139.454H120.269V148.652C120.302 149.032 120.368 149.261 120.466 149.413C120.565 149.527 120.762 149.603 120.992 149.641H127.33C127.527 149.641 127.691 149.603 127.79 149.565C127.888 149.527 127.987 149.413 128.053 149.261C128.118 149.108 128.151 148.842 128.151 148.462V139.454H130.319V149.641C130.319 150.515 130.122 151.123 129.695 151.465C129.268 151.807 128.775 151.997 128.151 151.997H120.269C119.645 151.997 119.12 151.807 118.693 151.427Z" fill="white"/>
<path d="M145.491 139.454H148.677L154.227 151.997H151.599L150.548 149.641H144.933L145.984 147.246H149.465L147.067 141.849L142.568 151.997H139.941L145.491 139.454Z" fill="white"/>
<path d="M164.309 139.454H166.575V149.641H176V151.997H164.309V139.454Z" fill="white"/>
<path d="M94.4571 102.056L96.8544 92.0599L93.5375 77.5786L94.1287 65.91L89.6951 50.9347L97.971 41.8507C96.9201 41.5086 95.3109 41.3186 93.3405 41.3186C83.6524 41.3186 65.2616 45.8796 61.879 57.7763C59.0219 67.8865 60.8281 69.7109 59.416 71.6113C58.0366 73.5117 52.2895 79.4791 52.2567 81.0754C52.1581 84.5342 56.1647 82.5958 56.4274 85.2943C56.6245 87.2708 55.2452 87.4228 55.6393 88.6771C55.8035 89.2092 57.4784 90.1214 57.4127 90.3115C57.347 90.5015 55.3765 91.5658 55.6393 93.0481C55.9348 94.5304 56.3618 94.3404 56.3618 95.6707C56.3618 98.4073 54.2928 102.284 55.5079 104.223C57.7411 107.719 63.0284 107.149 67.7575 106.541C71.0416 106.123 74.0301 105.705 75.5079 106.655C91.6984 117.221 78.168 122.163 86.5424 123.379L104.835 120.946L94.4571 102.056Z" fill="url(#paint0_linear_210_3883)"/>
<path fill-rule="evenodd" clip-rule="evenodd" d="M87.2951 43.9282C87.4513 43.964 87.5824 44.0844 87.6468 44.251L90.1427 50.7124C90.2015 50.8647 90.198 51.039 90.1332 51.1881C90.0683 51.3371 89.9489 51.4455 89.8072 51.4837L78.5428 54.5244C78.3273 54.5825 78.1045 54.4682 77.9993 54.2455C77.8941 54.0228 77.9326 53.747 78.0933 53.5729L86.8618 44.0708C86.9774 43.9455 87.139 43.8924 87.2951 43.9282ZM80.0856 52.9571L89.0085 50.5485L87.0314 45.4302L80.0856 52.9571Z" fill="white"/>
<path fill-rule="evenodd" clip-rule="evenodd" d="M89.5373 50.4041C89.7936 50.3052 90.0716 50.4625 90.1581 50.7555L94.5916 65.7689C94.6781 66.0619 94.5405 66.3796 94.2842 66.4786C94.0279 66.5775 93.75 66.4202 93.6635 66.1271L89.23 51.1138C89.1434 50.8208 89.2811 50.503 89.5373 50.4041Z" fill="white"/>
<path fill-rule="evenodd" clip-rule="evenodd" d="M97.9899 41.2927L99.6418 41.3693C100.635 41.415 101.963 41.4756 103.301 41.535C104.639 41.5943 105.987 41.6525 107.02 41.6935C107.537 41.7139 107.974 41.73 108.292 41.7399C108.451 41.7448 108.579 41.7481 108.671 41.7495C108.727 41.7504 108.761 41.7504 108.779 41.7504C108.796 41.7504 108.798 41.7504 108.791 41.7512C109.071 41.7187 109.228 41.9408 109.267 42.0022C109.319 42.0835 109.347 42.1675 109.362 42.2171C109.395 42.3253 109.419 42.456 109.438 42.5833C109.478 42.8472 109.513 43.2109 109.544 43.6286C109.606 44.4694 109.658 45.5873 109.699 46.6984C109.74 47.8114 109.771 48.9248 109.792 49.7595C109.802 50.1769 109.81 50.525 109.815 50.7687L109.82 51.0518L109.822 51.1508C109.826 51.3628 109.725 51.5609 109.561 51.6597C109.397 51.7586 109.198 51.743 109.047 51.6195L97.6845 42.3074C97.5085 42.1632 97.4362 41.9041 97.5067 41.67C97.5771 41.436 97.7736 41.2826 97.9899 41.2927ZM108.819 50.0541C108.817 49.9699 108.815 49.8821 108.812 49.791C108.792 48.9592 108.761 47.8515 108.72 46.7457C108.679 45.6381 108.628 44.5396 108.568 43.7235C108.541 43.3683 108.514 43.0772 108.486 42.8657C108.42 42.8641 108.346 42.862 108.266 42.8595C107.944 42.8495 107.504 42.8333 106.986 42.8128C105.951 42.7718 104.601 42.7135 103.263 42.6541C101.924 42.5947 100.596 42.5341 99.6024 42.4884L99.5859 42.4876L108.819 50.0541ZM108.437 42.586C108.437 42.5857 108.437 42.5864 108.437 42.586V42.586Z" fill="white"/>
<path fill-rule="evenodd" clip-rule="evenodd" d="M108.369 42.1557C108.442 41.8577 108.712 41.6835 108.972 41.7665L119.348 45.0726C119.358 45.0756 119.368 45.0791 119.377 45.0829C119.453 45.1125 119.519 45.1618 119.572 45.2243L126.199 52.8189C126.346 52.987 126.384 53.2425 126.294 53.4566C126.204 53.6707 126.006 53.7968 125.8 53.7712L109.248 51.7187C109.031 51.6918 108.856 51.5043 108.818 51.2587C108.781 51.013 108.89 50.7686 109.085 50.659L117.847 45.7569L108.71 42.8454C108.449 42.7624 108.297 42.4536 108.369 42.1557ZM119.119 46.2918L111.037 50.814L124.525 52.4866L119.119 46.2918Z" fill="white"/>
<path fill-rule="evenodd" clip-rule="evenodd" d="M78.2823 53.4431C78.4589 53.3789 78.652 53.4342 78.7814 53.5859L86.0392 62.0998C86.1796 62.2645 86.2176 62.5107 86.1351 62.7205C86.0525 62.9303 85.8661 63.061 85.6651 63.05L77.2907 62.5939C77.1516 62.5864 77.022 62.5115 76.9341 62.388C76.8462 62.2645 76.8085 62.1041 76.8303 61.9469L77.9468 53.8891C77.9758 53.6799 78.1057 53.5072 78.2823 53.4431ZM78.7615 55.1673L77.8833 61.5049L84.47 61.8636L78.7615 55.1673Z" fill="white"/>
<path fill-rule="evenodd" clip-rule="evenodd" d="M89.8748 50.4141C90.1262 50.5281 90.2493 50.8535 90.1496 51.1411L86.143 62.6956C86.0433 62.9831 85.7586 63.1238 85.5072 63.0098C85.2557 62.8958 85.1327 62.5703 85.2324 62.2828L89.2389 50.7283C89.3386 50.4408 89.6233 50.3001 89.8748 50.4141Z" fill="white"/>
<path fill-rule="evenodd" clip-rule="evenodd" d="M77.3792 61.479C77.6472 61.5206 77.835 61.8027 77.7987 62.1092L77.445 65.0916L85.564 61.9594C85.7487 61.8881 85.9528 61.9489 86.0837 62.1142C86.2145 62.2795 86.2472 62.5177 86.1668 62.7208L83.3139 69.9319C83.2784 70.0269 83.2213 70.1068 83.1507 70.1652C83.1416 70.1727 83.1323 70.1799 83.1228 70.1867C83.0231 70.2579 82.9008 70.2885 82.7762 70.2627C82.7752 70.2625 82.7742 70.2623 82.7732 70.262L82.5448 70.2134C82.3991 70.1824 82.1906 70.1382 81.9395 70.0854C81.4372 69.9798 80.7652 69.8399 80.0852 69.7025C79.4046 69.5648 78.7186 69.4302 78.1877 69.3348C77.9216 69.287 77.6986 69.2499 77.5363 69.2272C77.4544 69.2157 77.3937 69.2087 77.3531 69.2055L77.3361 69.2044C77.1355 69.2343 76.9798 69.1253 76.898 69.0379C76.8169 68.9513 76.7701 68.8518 76.7451 68.7921C76.6916 68.6646 76.6541 68.5109 76.626 68.3731C76.5673 68.0855 76.5196 67.7113 76.4822 67.3554C76.4443 66.9947 76.415 66.6335 76.3952 66.3638C76.3853 66.2286 76.3778 66.1156 76.3727 66.0362L76.3707 66.0045C76.3652 65.9676 76.3629 65.9298 76.3641 65.8917C76.3623 65.8341 76.3684 65.7774 76.3815 65.7234L76.828 61.9587C76.8643 61.6522 77.1111 61.4375 77.3792 61.479ZM77.4211 66.8768C77.4314 66.99 77.4427 67.1061 77.4548 67.2218C77.4906 67.5621 77.5322 67.8802 77.5772 68.105C77.6024 68.1082 77.6285 68.1117 77.6554 68.1155C77.8343 68.1405 78.0701 68.18 78.3397 68.2284C78.8271 68.3159 79.4389 68.4353 80.0548 68.559L77.4211 66.8768ZM78.0936 66.0234L82.6369 68.9255L84.8102 63.4323L78.0936 66.0234ZM77.3224 69.2037C77.3219 69.2037 77.3227 69.2037 77.3224 69.2037V69.2037Z" fill="white"/>
<path fill-rule="evenodd" clip-rule="evenodd" d="M93.9175 65.4454C94.079 65.3576 94.2694 65.3774 94.4144 65.497L114.546 82.1067C114.733 82.2615 114.801 82.5452 114.707 82.7872C114.614 83.0291 114.385 83.1632 114.158 83.1088L93.4359 78.1297C93.1987 78.0727 93.0336 77.8259 93.0477 77.5492L93.6388 65.9186C93.6492 65.7146 93.756 65.5332 93.9175 65.4454ZM94.565 67.0024L94.0501 77.1328L112.1 81.4697L94.565 67.0024Z" fill="white"/>
<path fill-rule="evenodd" clip-rule="evenodd" d="M108.903 50.8358C109.061 50.5849 109.367 50.5282 109.586 50.7091L126.489 64.6406L125.365 53.2787C125.335 52.9714 125.528 52.6941 125.797 52.6593C126.065 52.6246 126.308 52.8455 126.338 53.1529L127.586 65.7715C127.586 65.7716 127.586 65.7716 127.586 65.7717C127.587 65.7798 127.588 65.788 127.588 65.7962M126.376 65.9284L109.013 51.6176C108.794 51.4367 108.744 51.0867 108.903 50.8358M126.376 65.9284L113.891 82.1889C113.776 82.3386 113.739 82.5469 113.794 82.7359C113.85 82.9248 113.988 83.066 114.159 83.1066L127.263 86.2232C127.408 86.2579 127.56 86.215 127.674 86.1067C127.789 85.9985 127.854 85.8365 127.852 85.6665L127.589 65.8273M126.629 67.2962L126.863 84.9843L115.181 82.2057L126.629 67.2962Z" fill="white"/>
<path fill-rule="evenodd" clip-rule="evenodd" d="M76.3216 72.027C76.49 72.1253 76.5939 72.3256 76.5886 72.5417L76.293 84.4384C76.2883 84.626 76.2018 84.7985 76.0624 84.8978C75.9231 84.997 75.7495 85.0099 75.6001 84.932L67.2914 80.599C67.1351 80.5175 67.0276 80.3483 67.0081 80.1531C66.9885 79.9579 67.0599 79.7653 67.1961 79.6456L75.8004 72.0819C75.9503 71.9501 76.1532 71.9288 76.3216 72.027ZM68.4385 79.9662L75.3348 83.5626L75.5801 73.6883L68.4385 79.9662Z" fill="white"/>
<path fill-rule="evenodd" clip-rule="evenodd" d="M67.171 79.6685C67.3741 79.4641 67.6836 79.4866 67.8623 79.7188L71.9624 85.0436L75.6741 83.8816C75.8485 83.827 76.0352 83.8868 76.1594 84.0372C76.2837 84.1875 76.3253 84.4039 76.2677 84.6L74.005 92.3045C73.9877 92.3679 73.9603 92.4287 73.9226 92.4833C73.9086 92.5038 73.8934 92.523 73.8771 92.5409C73.8039 92.6215 73.7139 92.6712 73.62 92.6895C73.5911 92.6951 73.5614 92.6979 73.5312 92.6974C73.4104 92.6957 73.298 92.6434 73.212 92.556C73.208 92.552 73.2042 92.548 73.2003 92.5438L73.1982 92.5415C73.1395 92.4771 73.0944 92.3956 73.0693 92.3023L72.5197 90.2621L73.3174 91.1272L73.5575 90.3097L74.0026 91.9621M72.4137 86.0635L73.5575 90.3097L75.0466 85.2393L75.9328 84.9619L75.8034 84.4218L75.3391 84.2435L75.0466 85.2393L72.4137 86.0635ZM72.0694 86.1713L72.4137 86.0635L72.2649 85.5112C72.244 85.4334 72.2089 85.3633 72.1633 85.3045M72.0694 86.1713L71.5884 86.8048L71.3597 85.9558L71.1462 85.6786L69.5222 87.8175C69.3504 88.0438 69.3648 88.3847 69.555 88.5909L73.1982 92.5415C73.2027 92.5464 73.2073 92.5513 73.212 92.556M71.1462 85.6786L67.1271 80.4589C66.9483 80.2267 66.968 79.8729 67.171 79.6685M70.5692 88.1471L72.5197 90.2621L71.5884 86.8048L70.5692 88.1471ZM70.5692 88.1471L70.2291 87.7783L69.8921 88.1846L70.2619 88.5517L70.5692 88.1471Z" fill="white"/>
<path fill-rule="evenodd" clip-rule="evenodd" d="M69.941 87.6255C70.2102 87.6568 70.4061 87.9317 70.3786 88.2394L70.0176 92.2891L73.4501 91.5843C73.6432 91.5446 73.8383 91.6405 73.946 91.8279C74.0537 92.0152 74.0533 92.258 73.9449 92.4449L70.6608 98.1082C70.5506 98.2983 70.3506 98.3929 70.1551 98.3475C69.9596 98.3021 69.8077 98.1257 69.7711 97.9015L68.985 93.0872C68.9755 93.0354 68.9723 92.9813 68.9763 92.9261M68.9773 92.9138L69.4041 88.1258C69.4315 87.8181 69.6719 87.5941 69.941 87.6255M70.0364 93.4232L70.5123 96.3375L72.4951 92.9183L70.0364 93.4232Z" fill="white"/>
<path fill-rule="evenodd" clip-rule="evenodd" d="M70.1975 97.2431C70.4063 97.2159 70.607 97.344 70.6963 97.5615L73.849 105.239C73.9331 105.444 73.9012 105.687 73.768 105.854C73.6349 106.021 73.4268 106.081 73.2405 106.004L68.9712 104.256C68.74 104.161 68.6058 103.885 68.6575 103.611L69.7741 97.6817C69.8183 97.4468 69.9887 97.2703 70.1975 97.2431ZM70.4263 99.5394L69.7055 103.367L72.4615 104.496L70.4263 99.5394Z" fill="white"/>
<path fill-rule="evenodd" clip-rule="evenodd" d="M69.7817 97.6456C69.8561 97.3483 70.1273 97.1762 70.3873 97.2612L82.4633 101.211C82.5308 101.232 82.5936 101.268 82.6473 101.318C82.7173 101.383 82.7721 101.471 82.8024 101.574C82.8079 101.593 82.8126 101.612 82.8163 101.632L83.8332 106.643C83.8692 106.82 83.8276 107.006 83.7217 107.142C83.6159 107.278 83.4589 107.347 83.3008 107.326L73.3501 106.034C73.1243 106.004 72.9458 105.801 72.919 105.543C72.8921 105.285 73.024 105.04 73.2375 104.951L80.7541 101.817L70.1179 98.3381C69.8578 98.253 69.7073 97.943 69.7817 97.6456ZM81.986 102.495L75.526 105.189L82.7222 106.124L81.986 102.495Z" fill="white"/>
<path fill-rule="evenodd" clip-rule="evenodd" d="M81.9583 101.402C82.0537 101.268 82.198 101.192 82.3492 101.195L94.4674 101.5C94.4745 101.5 94.4816 101.5 94.4887 101.501C94.6034 101.509 94.7142 101.564 94.7994 101.659C94.891 101.762 94.942 101.899 94.9462 102.04C94.9465 102.051 94.9466 102.061 94.9464 102.072C94.9461 102.085 94.9454 102.098 94.9444 102.111C94.9408 102.156 94.9325 102.2 94.9193 102.243L94.9155 102.256C94.8644 102.412 94.7541 102.535 94.6165 102.589L93.6522 102.998L93.7728 102.602L91.8826 102.555L83.7078 106.026L82.9581 102.331L91.8826 102.555M82.8911 106.947L87.4871 123.589C87.5507 123.819 87.736 123.977 87.9471 123.98C88.1581 123.984 88.3474 123.832 88.4168 123.604L94.9155 102.256C94.9304 102.21 94.9403 102.162 94.9444 102.111C94.9463 102.088 94.9469 102.064 94.9462 102.04C94.9379 101.753 94.7399 101.519 94.4887 101.501M82.8839 106.919C82.8861 106.929 82.8885 106.938 82.8911 106.947L82.8839 106.919ZM82.8782 106.893C82.8799 106.902 82.8818 106.911 82.8839 106.919L82.8782 106.893ZM82.8782 106.893L81.8613 101.882C81.8271 101.713 81.8629 101.536 81.9583 101.402M83.9639 107.112L93.6522 102.998L87.9768 121.642L83.9639 107.112ZM87.9768 121.642L87.4916 123.236L87.9542 123.42L88.4213 123.252L87.9768 121.642Z" fill="white"/>
<path fill-rule="evenodd" clip-rule="evenodd" d="M77.4419 68.1205C77.6973 68.2223 77.8321 68.5416 77.7431 68.8336L76.9005 71.5968L82.6961 69.1872C82.8604 69.1189 83.044 69.1559 83.178 69.2841C83.3119 69.4124 83.376 69.6125 83.3461 69.8094L82.7221 73.9143C82.6997 74.0616 82.6268 74.1925 82.5195 74.278C82.4122 74.3634 82.2795 74.3962 82.1509 74.3692L76.0184 73.0787C75.9998 73.0752 75.9813 73.0704 75.9629 73.0643C75.8453 73.0257 75.7468 72.9389 75.6838 72.8244C75.6164 72.7018 75.591 72.5505 75.6207 72.4019C75.6251 72.3795 75.6308 72.3576 75.6376 72.3361L76.8181 68.4649C76.9072 68.1729 77.1864 68.0187 77.4419 68.1205ZM77.9593 72.3483L81.8417 73.1653L82.2362 70.5702L77.9593 72.3483Z" fill="white"/>
<path fill-rule="evenodd" clip-rule="evenodd" d="M82.4527 69.407C82.5993 69.1471 82.9024 69.0722 83.1298 69.2398L93.803 77.1076C94.0075 77.2583 94.0842 77.5577 93.9832 77.8107C93.8823 78.0637 93.6342 78.1936 93.4007 78.1159L82.1034 74.3534C81.8437 74.2669 81.6945 73.9561 81.7702 73.6591C81.8458 73.3622 82.1177 73.1916 82.3774 73.2781L90.4454 75.9651L82.599 70.1811C82.3716 70.0135 82.3062 69.6669 82.4527 69.407Z" fill="white"/>
<path fill-rule="evenodd" clip-rule="evenodd" d="M96.1334 91.7457C96.2303 91.4569 96.5135 91.3125 96.7661 91.4233L120.609 101.876C120.83 101.973 120.959 102.237 120.914 102.504C120.87 102.77 120.665 102.962 120.428 102.958L94.4505 102.616C94.18 102.613 93.9632 102.359 93.9663 102.05C93.9695 101.741 94.1913 101.493 94.4617 101.496L117.706 101.803L96.4154 92.469C96.1628 92.3583 96.0366 92.0344 96.1334 91.7457Z" fill="white"/>
<path fill-rule="evenodd" clip-rule="evenodd" d="M114.447 82.0426C114.575 82.1033 114.675 82.223 114.721 82.3721L120.895 102.212C120.957 102.412 120.916 102.635 120.787 102.788L105.221 121.374C105.034 121.597 104.724 121.605 104.528 121.391C104.333 121.177 104.326 120.822 104.513 120.599L119.871 102.262L113.98 83.331L111.699 84.5666C110.039 85.4662 107.83 86.6646 105.632 87.8594C103.434 89.0542 101.247 90.2452 99.6331 91.1302C98.8258 91.5729 98.1628 91.9384 97.7132 92.1895C97.4879 92.3154 97.3186 92.4111 97.2121 92.4731C97.1835 92.4898 97.1612 92.5029 97.1447 92.5128C97.0978 92.5524 97.0439 92.5829 96.9844 92.6017C96.975 92.6047 96.9528 92.6115 96.9243 92.6164C96.9095 92.6188 96.8732 92.6223 96.8515 92.6229C96.8167 92.6217 96.7234 92.6041 96.6663 92.5825C96.5718 92.5246 96.409 92.3095 96.3652 92.1529C96.3598 92.0269 96.4005 91.8361 96.4293 91.7729C96.4743 91.6874 96.5303 91.6358 96.5379 91.6289C96.5382 91.6286 96.5377 91.629 96.5379 91.6289C96.5788 91.5903 96.6253 91.5609 96.631 91.5573C96.6641 91.5359 96.7127 91.507 96.7678 91.4749C96.8819 91.4085 97.0573 91.3094 97.2832 91.1832C97.7362 90.9302 98.4019 90.5632 99.2095 90.1204C100.825 89.2345 103.013 88.0428 105.211 86.8479C107.41 85.6528 109.619 84.4543 111.279 83.5545L114.049 82.0541C114.049 82.054 114.05 82.0536 114.26 82.5598L114.049 82.0541C114.174 81.9864 114.32 81.9819 114.447 82.0426Z" fill="white"/>
<path fill-rule="evenodd" clip-rule="evenodd" d="M96.9826 91.5196C97.2435 91.6014 97.397 91.9095 97.3255 92.2077L94.9281 102.204C94.8566 102.502 94.5871 102.678 94.3262 102.596C94.0653 102.514 93.9118 102.206 93.9834 101.908L96.3808 91.9116C96.4523 91.6133 96.7218 91.4378 96.9826 91.5196Z" fill="white"/>
<path fill-rule="evenodd" clip-rule="evenodd" d="M127.573 85.1712C127.817 85.3036 127.922 85.6376 127.806 85.9171L120.876 102.641C120.761 102.92 120.469 103.04 120.224 102.907C119.98 102.775 119.875 102.441 119.991 102.161L126.921 85.4376C127.036 85.1581 127.328 85.0388 127.573 85.1712Z" fill="white"/>
<path d="M121.944 103.01C121.649 103.96 120.729 104.492 119.908 104.15C119.087 103.808 118.627 102.744 118.923 101.794C119.219 100.843 120.138 100.311 120.959 100.653C121.813 100.995 122.24 102.06 121.944 103.01Z" fill="white"/>
<path d="M115.835 82.9374C115.54 83.8876 114.62 84.4198 113.799 84.0777C112.978 83.7356 112.519 82.6714 112.814 81.7212C113.11 80.7709 114.029 80.2388 114.85 80.5809C115.704 80.923 116.131 81.9872 115.835 82.9374Z" fill="white"/>
<path d="M128.873 86.2836C128.577 87.2338 127.658 87.766 126.837 87.4239C126.016 87.0818 125.556 86.0176 125.852 85.0674C126.147 84.1171 127.067 83.585 127.888 83.9271C128.709 84.2692 129.169 85.3334 128.873 86.2836Z" fill="white"/>
<path d="M128.611 66.444C128.316 67.3942 127.396 67.9264 126.575 67.5843C125.754 67.2422 125.294 66.178 125.59 65.2278C125.886 64.2775 126.805 63.7454 127.626 64.0875C128.48 64.4296 128.907 65.4558 128.611 66.444Z" fill="white"/>
<path d="M120.729 60.1347C120.433 61.0849 119.514 61.617 118.693 61.275C117.872 60.9329 117.412 59.8686 117.708 58.9184C118.003 57.9682 118.923 57.4361 119.744 57.7782C120.598 58.1202 121.025 59.1465 120.729 60.1347Z" fill="white"/>
<path d="M110.811 51.7736C110.515 52.7238 109.596 53.2559 108.775 52.9139C107.954 52.5718 107.494 51.5076 107.79 50.5573C108.085 49.6071 109.005 49.075 109.826 49.4171C110.647 49.7592 111.074 50.8234 110.811 51.7736Z" fill="white"/>
<path d="M99.4804 42.4606C99.1849 43.4108 98.2653 43.943 97.4443 43.6009C96.6233 43.2588 96.1635 42.1946 96.4591 41.2444C96.7547 40.2941 97.6742 39.762 98.4952 40.1041C99.3162 40.4462 99.7432 41.4724 99.4804 42.4606Z" fill="white"/>
<path d="M110.318 42.9164C110.022 43.8666 109.103 44.3988 108.282 44.0567C107.461 43.7146 107.001 42.6504 107.296 41.7002C107.592 40.75 108.512 40.2178 109.333 40.5599C110.186 40.902 110.613 41.9662 110.318 42.9164Z" fill="white"/>
<path d="M120.729 46.2219C120.433 47.1721 119.514 47.7042 118.693 47.3621C117.872 47.02 117.412 45.9558 117.708 45.0056C118.003 44.0554 118.923 43.5233 119.744 43.8653C120.598 44.2074 121.025 45.2716 120.729 46.2219Z" fill="white"/>
<path d="M127.363 53.7465C127.068 54.6967 126.148 55.2288 125.327 54.8868C124.506 54.5447 124.046 53.4805 124.342 52.5302C124.637 51.58 125.557 51.0479 126.378 51.39C127.232 51.7321 127.659 52.7963 127.363 53.7465Z" fill="white"/>
<path d="M89.4648 124.026C89.1693 124.976 88.2497 125.508 87.4287 125.166C86.6077 124.824 86.1479 123.76 86.4435 122.81C86.739 121.86 87.6586 121.327 88.4796 121.67C89.3006 122.012 89.7604 123.076 89.4648 124.026Z" fill="white"/>
<path fill-rule="evenodd" clip-rule="evenodd" d="M85.2272 62.3009C85.3184 62.0097 85.5989 61.8583 85.8535 61.9627L94.2936 65.4214C94.4933 65.5033 94.6243 65.7229 94.6179 65.9654C94.6116 66.2079 94.4694 66.4181 94.2657 66.4861L83.0013 70.249C82.7417 70.3357 82.4697 70.1654 82.3938 69.8685C82.3179 69.5716 82.4669 69.2607 82.7266 69.1739L92.5443 65.8943L85.523 63.017C85.2683 62.9127 85.1359 62.592 85.2272 62.3009Z" fill="white"/>
<path fill-rule="evenodd" clip-rule="evenodd" d="M89.2046 50.9288C89.2074 50.6196 89.4289 50.3714 89.6994 50.3745L109.305 50.6026C109.506 50.6049 109.686 50.7473 109.758 50.9618C109.83 51.1762 109.78 51.4192 109.632 51.5747L96.9978 64.8614L119.104 58.7899C119.27 58.7443 119.444 58.8007 119.565 58.9387C119.685 59.0766 119.734 59.2764 119.694 59.4659L114.834 82.461C114.77 82.7617 114.506 82.9465 114.243 82.8738C113.98 82.8012 113.818 82.4986 113.882 82.1979L118.554 60.0927L95.3917 66.4543C95.1748 66.5139 94.95 66.3983 94.8451 66.1732C94.7401 65.9481 94.7815 65.6704 94.9457 65.4977L108.058 51.7081L89.6894 51.4945C89.4189 51.4913 89.2019 51.2381 89.2046 50.9288Z" fill="white"/>
<path fill-rule="evenodd" clip-rule="evenodd" d="M82.3112 73.2621C82.4952 73.293 82.6481 73.4404 82.7057 73.6426L87.4275 90.2135L93.0997 77.3272C93.2213 77.0509 93.5158 76.9397 93.7574 77.0787C93.999 77.2178 94.0963 77.5544 93.9747 77.8307L87.9077 91.614L94.842 101.711C95.009 101.954 94.972 102.306 94.7592 102.497C94.5465 102.688 94.2386 102.645 94.0715 102.402L87.3963 92.6829L82.7646 102.028C82.6902 102.179 82.5593 102.281 82.4099 102.306C82.2605 102.332 82.1093 102.276 82.0001 102.157L73.1988 92.541C73.056 92.385 73.0091 92.1461 73.08 91.9353C73.1508 91.7245 73.3255 91.5829 73.523 91.5764L85.5206 91.1797L75.5669 84.911C75.4454 84.8345 75.358 84.7027 75.3263 84.5483C75.2947 84.3939 75.3217 84.2314 75.4008 84.1012L81.8376 73.4968C81.9437 73.3221 82.1271 73.2312 82.3112 73.2621ZM86.4757 92.2686L74.723 92.6572L82.2223 100.851L86.4757 92.2686ZM87.7532 91.9627C87.7594 91.9506 87.7652 91.9381 87.7706 91.9254L87.7532 91.9627ZM86.4805 90.5055L82.0799 75.0621L76.5153 84.2296L86.4805 90.5055Z" fill="white"/>
<path fill-rule="evenodd" clip-rule="evenodd" d="M86.8406 91.6611C86.8501 91.352 87.0769 91.1102 87.3472 91.121L96.871 91.501C97.1414 91.5118 97.3529 91.7711 97.3435 92.0802C97.334 92.3893 97.1072 92.6312 96.8369 92.6204L87.313 92.2403C87.0427 92.2295 86.8312 91.9702 86.8406 91.6611Z" fill="white"/>
<path fill-rule="evenodd" clip-rule="evenodd" d="M94.1949 101.583C94.4239 101.418 94.7263 101.497 94.8703 101.759L105.281 120.687C105.425 120.949 105.356 121.295 105.127 121.459C104.898 121.624 104.596 121.545 104.452 121.283L94.0411 102.355C93.8971 102.093 93.966 101.748 94.1949 101.583Z" fill="white"/>
<path d="M106.443 121.365C106.148 122.315 105.228 122.847 104.407 122.505C103.586 122.163 103.126 121.099 103.422 120.148C103.718 119.198 104.637 118.666 105.458 119.008C106.312 119.35 106.739 120.414 106.443 121.365Z" fill="white"/>
<path d="M95.9673 66.444C95.6717 67.3942 94.7521 67.9264 93.9311 67.5843C93.1101 67.2422 92.6503 66.178 92.9459 65.2278C93.2415 64.2775 94.161 63.7454 94.982 64.0875C95.8031 64.4296 96.2628 65.4558 95.9673 66.444Z" fill="white"/>
<path d="M91.2055 51.5449C90.91 52.4951 89.9904 53.0272 89.1694 52.6851C88.3484 52.343 87.8886 51.2788 88.1842 50.3286C88.4798 49.3784 89.3993 48.8463 90.2203 49.1883C91.0413 49.5304 91.5011 50.5946 91.2055 51.5449Z" fill="white"/>
<path d="M95.9673 102.665C95.6717 103.616 94.7521 104.148 93.9311 103.806C93.1101 103.464 92.6503 102.399 92.9459 101.449C93.2415 100.499 94.161 99.9669 94.982 100.309C95.8031 100.651 96.2628 101.715 95.9673 102.665Z" fill="white"/>
<path d="M98.3642 92.6699C98.0687 93.6201 97.1491 94.1522 96.3281 93.8101C95.5071 93.468 95.0473 92.4038 95.3429 91.4536C95.6384 90.5034 96.558 89.9713 97.379 90.3133C98.2329 90.6554 98.6598 91.7196 98.3642 92.6699Z" fill="white"/>
<path d="M95.0468 78.2263C94.7513 79.1765 93.8317 79.7086 93.0107 79.3665C92.1897 79.0244 91.7299 77.9602 92.0255 77.01C92.3211 76.0598 93.2406 75.5276 94.0616 75.8697C94.8826 76.2118 95.3424 77.238 95.0468 78.2263Z" fill="white"/>
<path fill-rule="evenodd" clip-rule="evenodd" d="M93.4127 77.0399C93.6744 76.9615 93.9421 77.1406 94.0106 77.4398L97.3275 91.921C97.3493 92.0161 97.3488 92.1161 97.3261 92.2109L94.9287 102.207C94.8572 102.505 94.5877 102.681 94.3268 102.599C94.0659 102.517 93.9124 102.209 93.984 101.911L96.3466 92.0595L93.063 77.7235C92.9944 77.4243 93.151 77.1182 93.4127 77.0399Z" fill="white"/>
<path fill-rule="evenodd" clip-rule="evenodd" d="M93.4127 77.0399C93.6744 76.9615 93.9421 77.1406 94.0106 77.4398L97.3275 91.921C97.3493 92.0161 97.3488 92.1161 97.3261 92.2109L94.9287 102.207C94.8572 102.505 94.5877 102.681 94.3268 102.599C94.0659 102.517 93.9124 102.209 93.984 101.911L96.3466 92.0595L93.063 77.7235C92.9944 77.4243 93.151 77.1182 93.4127 77.0399Z" fill="white"/>
<path fill-rule="evenodd" clip-rule="evenodd" d="M98.3236 41.4644C98.5109 41.6875 98.5046 42.042 98.3095 42.2562L90.0336 51.3402C89.8385 51.5544 89.5284 51.5472 89.3411 51.3241C89.1537 51.101 89.16 50.7465 89.3552 50.5323L97.6311 41.4483C97.8262 41.2341 98.1362 41.2413 98.3236 41.4644Z" fill="white"/>
<path fill-rule="evenodd" clip-rule="evenodd" d="M105.451 120.68C105.487 120.987 105.3 121.269 105.032 121.311L88.0201 123.972C87.7521 124.014 87.5051 123.799 87.4684 123.493C87.4318 123.186 87.6193 122.904 87.8873 122.862L104.899 120.202C105.167 120.16 105.414 120.374 105.451 120.68Z" fill="white"/>
<defs>
<linearGradient id="paint0_linear_210_3883" x1="47.7621" y1="51.0149" x2="120.598" y2="92.6834" gradientUnits="userSpaceOnUse">
<stop offset="0.2577" stop-color="white"/>
<stop offset="0.7491" stop-color="#747474"/>
</linearGradient>
</defs>
</svg>
