<svg width="16" height="16" viewBox="0 0 16 16" fill="none" xmlns="http://www.w3.org/2000/svg">
<rect width="16" height="16" rx="4" fill="#1B1B1B"/>
<path d="M2.41626 11.104H2.65764L3.07389 11.9999H2.87438L2.79557 11.8316H2.37685L2.45567 11.6606H2.71675L2.53695 11.275L2.19951 11.9999H2L2.41626 11.104Z" fill="white"/>
<path d="M3.83008 11.104H4.00003V11.8316H4.70447V11.9999H3.83008V11.104Z" fill="white"/>
<path d="M5.19458 11.104H5.39162L5.72906 11.8316L6.0665 11.104H6.26601L5.84975 11.9999H5.60837L5.19458 11.104Z" fill="white"/>
<path d="M7.19217 11.104H7.02222V11.9999H7.19217V11.104Z" fill="white"/>
<path d="M8.00985 11.9592C7.97783 11.9321 7.96059 11.8914 7.95813 11.8371V11.7339H8.12808V11.7583C8.13054 11.7855 8.13547 11.8018 8.14532 11.8126C8.15271 11.8208 8.16749 11.8262 8.18473 11.8289H8.6601C8.67488 11.8289 8.68719 11.8262 8.69458 11.8235C8.70197 11.8208 8.70936 11.8126 8.71429 11.8018C8.71921 11.7909 8.72168 11.7719 8.72168 11.7448V11.7149C8.72168 11.6905 8.71921 11.6715 8.71429 11.6579C8.70936 11.647 8.70444 11.6389 8.69458 11.6362C8.68719 11.6335 8.67488 11.6307 8.6601 11.6307H8.12808C8.09852 11.6307 8.07143 11.6226 8.0468 11.609C8.02217 11.5955 8 11.5737 7.98522 11.5466C7.97045 11.5194 7.96059 11.4869 7.96059 11.4516V11.2778C7.96059 11.2398 7.97045 11.2099 7.98522 11.1828C8 11.1556 8.02217 11.1339 8.0468 11.1204C8.07143 11.1068 8.09852 11.0986 8.12808 11.0986H8.72168C8.76601 11.0986 8.80542 11.1122 8.83744 11.1366C8.86946 11.1611 8.88424 11.2045 8.88424 11.267V11.3647H8.72168V11.3565C8.72168 11.3294 8.71921 11.3104 8.71429 11.2968C8.70936 11.2832 8.70444 11.2751 8.69705 11.2724C8.68966 11.2697 8.67734 11.267 8.6601 11.267H8.18473C8.1601 11.2697 8.14532 11.2778 8.1404 11.2941C8.13301 11.3104 8.13054 11.3321 8.13054 11.362C8.13054 11.3918 8.13301 11.4163 8.1404 11.4298C8.14532 11.4461 8.1601 11.4543 8.18227 11.457H8.72168C8.76601 11.457 8.80542 11.4706 8.83744 11.495C8.86946 11.5194 8.88424 11.5629 8.88424 11.6253V11.8208C8.88424 11.8832 8.86946 11.9267 8.83744 11.9511C8.80542 11.9755 8.76848 11.9891 8.72168 11.9891H8.13054C8.08375 12 8.04434 11.9864 8.00985 11.9592Z" fill="white"/>
<path d="M9.70199 11.9592C9.66997 11.932 9.65273 11.8913 9.65027 11.837V11.104H9.82022V11.761C9.82268 11.7882 9.82761 11.8044 9.835 11.8153C9.84239 11.8234 9.85717 11.8289 9.87441 11.8316H10.3498C10.3646 11.8316 10.3769 11.8289 10.3843 11.8262C10.3916 11.8235 10.399 11.8153 10.404 11.8044C10.4089 11.7936 10.4114 11.7746 10.4114 11.7474V11.104H10.5739V11.8316C10.5739 11.894 10.5591 11.9375 10.5271 11.9619C10.4951 11.9864 10.4582 11.9999 10.4114 11.9999H9.82022C9.77342 11.9999 9.73401 11.9863 9.70199 11.9592Z" fill="white"/>
<path d="M11.7119 11.104H11.9508L12.3671 11.9999H12.17L12.0912 11.8316H11.67L11.7489 11.6606H12.0099L11.8301 11.275L11.4927 11.9999H11.2957L11.7119 11.104Z" fill="white"/>
<path d="M13.123 11.104H13.293V11.8316H13.9999V11.9999H13.123V11.104Z" fill="white"/>
<path d="M7.88415 8.43259L8.06396 7.71858L7.81519 6.68422L7.85952 5.85075L7.52701 4.7811L8.1477 4.13225C8.06888 4.10781 7.94819 4.09424 7.80041 4.09424C7.07381 4.09424 5.6945 4.42002 5.4408 5.26977C5.22652 5.99193 5.36199 6.12224 5.25607 6.25798C5.15263 6.39373 4.72159 6.81996 4.71913 6.93399C4.71174 7.18104 5.01223 7.04258 5.03194 7.23533C5.04671 7.37651 4.94327 7.38737 4.97282 7.47696C4.98514 7.51497 5.11075 7.58012 5.10583 7.5937C5.1009 7.60727 4.95312 7.68329 4.97282 7.78917C4.99499 7.89505 5.02701 7.88147 5.02701 7.97649C5.02701 8.17196 4.87184 8.44888 4.96297 8.58734C5.13046 8.83711 5.52701 8.79638 5.88169 8.75294C6.128 8.72308 6.35213 8.69322 6.46297 8.76109C7.67726 9.51582 6.66248 9.86875 7.29056 9.95563L8.66248 9.78188L7.88415 8.43259Z" fill="url(#paint0_linear_210_3594)"/>
<path fill-rule="evenodd" clip-rule="evenodd" d="M7.34711 4.28057C7.35882 4.28313 7.36866 4.29173 7.37348 4.30363L7.56067 4.76515C7.56509 4.77603 7.56483 4.78848 7.55996 4.79913C7.5551 4.80977 7.54614 4.81751 7.53551 4.82024L6.69068 5.03743C6.67452 5.04159 6.65781 5.03342 6.64992 5.01751C6.64203 5.0016 6.64492 4.98191 6.65697 4.96947L7.31461 4.29075C7.32328 4.28181 7.3354 4.27801 7.34711 4.28057ZM6.80639 4.92549L7.47561 4.75344L7.32733 4.38785L6.80639 4.92549Z" fill="white"/>
<path fill-rule="evenodd" clip-rule="evenodd" d="M7.51523 4.74332C7.53445 4.73626 7.55529 4.7475 7.56178 4.76843L7.8943 5.8408C7.90079 5.86173 7.89046 5.88442 7.87124 5.89149C7.85202 5.89856 7.83118 5.88732 7.82469 5.86639L7.49217 4.79402C7.48568 4.77309 7.49601 4.75039 7.51523 4.74332Z" fill="white"/>
<path fill-rule="evenodd" clip-rule="evenodd" d="M8.14933 4.09232L8.27322 4.09779C8.34772 4.10106 8.4473 4.10538 8.54765 4.10962C8.648 4.11386 8.74908 4.11802 8.82659 4.12094C8.86535 4.12241 8.89815 4.12356 8.92198 4.12426C8.93391 4.12461 8.94349 4.12484 8.95039 4.12495C8.95462 4.12501 8.95718 4.12501 8.95851 4.12501C8.95976 4.12501 8.95993 4.12501 8.95939 4.12507C8.98042 4.12275 8.99221 4.13861 8.99513 4.143C8.99899 4.1488 9.00112 4.1548 9.00225 4.15834C9.00473 4.16607 9.00653 4.17541 9.00796 4.18451C9.01093 4.20335 9.01353 4.22933 9.01586 4.25917C9.02055 4.31922 9.02442 4.39907 9.0275 4.47844C9.03059 4.55793 9.03291 4.63746 9.03445 4.69708C9.03522 4.7269 9.0358 4.75176 9.03619 4.76917L9.03662 4.78939L9.03676 4.79646C9.03706 4.8116 9.02947 4.82575 9.01716 4.83281C9.00486 4.83988 8.98994 4.83876 8.97864 4.82994L8.12642 4.1648C8.11322 4.1545 8.1078 4.13599 8.11309 4.11927C8.11837 4.10255 8.1331 4.09159 8.14933 4.09232ZM8.96149 4.71812C8.96134 4.71212 8.96118 4.70584 8.96101 4.69933C8.95947 4.63992 8.95717 4.5608 8.9541 4.48182C8.95103 4.4027 8.9472 4.32424 8.94265 4.26594C8.94067 4.24057 8.93861 4.21978 8.93652 4.20468C8.93159 4.20456 8.92606 4.20441 8.92 4.20423C8.89588 4.20352 8.86286 4.20236 8.82404 4.20089C8.74638 4.19796 8.64518 4.19381 8.5448 4.18956C8.4444 4.18532 8.34478 4.18099 8.27027 4.17772L8.26903 4.17767L8.96149 4.71812ZM8.93288 4.1847C8.93287 4.18467 8.93289 4.18472 8.93288 4.1847Z" fill="white"/>
<path fill-rule="evenodd" clip-rule="evenodd" d="M8.92763 4.15403C8.93307 4.13275 8.95333 4.1203 8.97288 4.12623L9.75103 4.36238C9.75177 4.3626 9.7525 4.36284 9.75323 4.36311C9.75893 4.36523 9.76387 4.36875 9.7678 4.37321L10.2649 4.91568C10.2759 4.92769 10.2787 4.94594 10.272 4.96123C10.2653 4.97652 10.2504 4.98553 10.2349 4.9837L8.99354 4.8371C8.97727 4.83518 8.96414 4.82178 8.96131 4.80424C8.95849 4.78669 8.96666 4.76923 8.98135 4.7614L9.63844 4.41126L8.95315 4.2033C8.93361 4.19737 8.92218 4.17531 8.92763 4.15403ZM9.73389 4.44946L9.12771 4.77247L10.1393 4.89194L9.73389 4.44946Z" fill="white"/>
<path fill-rule="evenodd" clip-rule="evenodd" d="M6.67112 4.96013C6.68437 4.95555 6.69885 4.9595 6.70855 4.97033L7.25289 5.57846C7.26342 5.59023 7.26627 5.60781 7.26008 5.6228C7.25389 5.63778 7.23991 5.64712 7.22483 5.64634L6.59675 5.61376C6.58632 5.61322 6.5766 5.60787 6.57001 5.59905C6.56342 5.59023 6.56059 5.57877 6.56222 5.56755L6.64596 4.99199C6.64814 4.97705 6.65787 4.96472 6.67112 4.96013ZM6.70707 5.08329L6.6412 5.53597L7.1352 5.5616L6.70707 5.08329Z" fill="white"/>
<path fill-rule="evenodd" clip-rule="evenodd" d="M7.54059 4.74404C7.55945 4.75218 7.56868 4.77543 7.56121 4.79596L7.26071 5.62128C7.25324 5.64182 7.23189 5.65186 7.21303 5.64372C7.19417 5.63558 7.18494 5.61233 7.19241 5.5918L7.49291 4.76648C7.50038 4.74594 7.52174 4.7359 7.54059 4.74404Z" fill="white"/>
<path fill-rule="evenodd" clip-rule="evenodd" d="M6.6035 5.5343C6.6236 5.53727 6.63769 5.55742 6.63496 5.57931L6.60844 5.79234L7.21736 5.56862C7.23121 5.56353 7.24652 5.56787 7.25634 5.57967C7.26615 5.59148 7.2686 5.6085 7.26257 5.623L7.0486 6.13807C7.04594 6.14486 7.04166 6.15057 7.03636 6.15474C7.03568 6.15528 7.03498 6.15579 7.03427 6.15627C7.02679 6.16136 7.01762 6.16355 7.00828 6.1617C7.0082 6.16169 7.00813 6.16167 7.00805 6.16166L6.99092 6.15818C6.97999 6.15597 6.96435 6.15281 6.94552 6.14904C6.90785 6.1415 6.85745 6.13151 6.80645 6.12169C6.75541 6.11186 6.70396 6.10224 6.66414 6.09543C6.64418 6.09201 6.62746 6.08936 6.61528 6.08774C6.60914 6.08692 6.60459 6.08642 6.60154 6.08619L6.60027 6.08611C6.58522 6.08825 6.57355 6.08046 6.56741 6.07422C6.56133 6.06803 6.55782 6.06093 6.55594 6.05666C6.55193 6.04755 6.54912 6.03658 6.54701 6.02674C6.54261 6.00619 6.53903 5.97946 6.53623 5.95404C6.53338 5.92828 6.53119 5.90248 6.5297 5.88321C6.52896 5.87355 6.52839 5.86548 6.52801 5.85981L6.52786 5.85755C6.52745 5.85491 6.52728 5.85221 6.52737 5.84949C6.52724 5.84538 6.52769 5.84133 6.52867 5.83747L6.56216 5.56857C6.56489 5.54667 6.58339 5.53133 6.6035 5.5343ZM6.60664 5.91985C6.60742 5.92794 6.60826 5.93624 6.60917 5.9445C6.61185 5.9688 6.61498 5.99153 6.61835 6.00758C6.62024 6.00781 6.6222 6.00806 6.62422 6.00833C6.63763 6.01012 6.65532 6.01294 6.67554 6.0164C6.71209 6.02265 6.75798 6.03117 6.80417 6.04001L6.60664 5.91985ZM6.65708 5.8589L6.99783 6.06619L7.16083 5.67382L6.65708 5.8589ZM6.59924 6.08606C6.5992 6.08606 6.59926 6.08606 6.59924 6.08606Z" fill="white"/>
<path fill-rule="evenodd" clip-rule="evenodd" d="M7.84386 5.81735C7.85597 5.81108 7.87026 5.8125 7.88113 5.82104L9.39098 7.00744C9.40505 7.01849 9.4101 7.03876 9.40309 7.05604C9.39607 7.07332 9.37891 7.0829 9.36193 7.07902L7.80774 6.72337C7.78995 6.7193 7.77757 6.70167 7.77863 6.6819L7.82296 5.85116C7.82374 5.83658 7.83175 5.82362 7.84386 5.81735ZM7.89242 5.92857L7.85381 6.65216L9.20753 6.96194L7.89242 5.92857Z" fill="white"/>
<path fill-rule="evenodd" clip-rule="evenodd" d="M8.96763 4.77394C8.9795 4.75602 9.00246 4.75196 9.01891 4.76488L10.2866 5.75998L10.2023 4.94842C10.2 4.92647 10.2145 4.90667 10.2347 4.90418C10.2548 4.9017 10.273 4.91748 10.2753 4.93944L10.3689 5.84076C10.3689 5.84076 10.3689 5.84077 10.3689 5.84077C10.369 5.84135 10.369 5.84194 10.3691 5.84252M10.2781 5.85197L8.97595 4.82977C8.95949 4.81686 8.95577 4.79186 8.96763 4.77394M10.2781 5.85197L9.34175 7.01342C9.33312 7.02411 9.33037 7.03899 9.33451 7.05249C9.33866 7.06599 9.34907 7.07607 9.36187 7.07897L10.3446 7.30159C10.3555 7.30406 10.3669 7.301 10.3755 7.29326C10.3841 7.28553 10.389 7.27396 10.3888 7.26182L10.3691 5.84474M10.2971 5.94967L10.3147 7.21309L9.43854 7.01462L10.2971 5.94967Z" fill="white"/>
<path fill-rule="evenodd" clip-rule="evenodd" d="M6.52407 6.28757C6.5367 6.29459 6.5445 6.3089 6.54409 6.32434L6.52193 7.17409C6.52158 7.18749 6.51508 7.19981 6.50463 7.2069C6.49418 7.21399 6.48116 7.21491 6.46996 7.20935L5.84681 6.89985C5.83508 6.89403 5.82702 6.88194 5.82556 6.868C5.82409 6.85406 5.82945 6.8403 5.83966 6.83175L6.48498 6.29149C6.49622 6.28208 6.51144 6.28056 6.52407 6.28757ZM5.93284 6.85465L6.45006 7.11154L6.46846 6.40624L5.93284 6.85465Z" fill="white"/>
<path fill-rule="evenodd" clip-rule="evenodd" d="M5.83778 6.83346C5.85301 6.81887 5.87622 6.82047 5.88962 6.83706L6.19713 7.2174L6.4755 7.1344C6.48859 7.1305 6.50259 7.13477 6.51191 7.14551C6.52123 7.15625 6.52435 7.17171 6.52003 7.18571L6.35033 7.73603C6.34903 7.74056 6.34697 7.7449 6.34415 7.7488C6.34309 7.75026 6.34195 7.75164 6.34073 7.75292C6.33525 7.75867 6.3285 7.76222 6.32145 7.76353C6.31928 7.76393 6.31705 7.76413 6.31479 7.76409C6.30573 7.76397 6.2973 7.76024 6.29085 7.75399C6.29055 7.75371 6.29026 7.75342 6.28998 7.75312L6.28982 7.75296C6.28541 7.74836 6.28203 7.74253 6.28015 7.73587L6.23893 7.59015L6.29876 7.65193L6.31676 7.59354L6.35015 7.71157M6.23098 7.29025L6.31676 7.59354L6.42845 7.23137L6.49491 7.21156L6.48521 7.17298L6.45038 7.16025L6.42845 7.23137L6.23098 7.29025ZM6.20515 7.29795L6.23098 7.29025L6.21982 7.2508C6.21825 7.24524 6.21562 7.24023 6.2122 7.23603M6.20515 7.29795L6.16908 7.34319L6.15193 7.28255L6.13592 7.26275L6.01412 7.41553C6.00123 7.4317 6.00231 7.45604 6.01658 7.47078L6.28982 7.75296C6.29016 7.75331 6.2905 7.75365 6.29085 7.75399M6.13592 7.26275L5.83448 6.88992C5.82107 6.87334 5.82255 6.84806 5.83778 6.83346M6.09264 7.43907L6.23893 7.59015L6.16908 7.34319L6.09264 7.43907ZM6.09264 7.43907L6.06713 7.41273L6.04186 7.44175L6.0696 7.46797L6.09264 7.43907Z" fill="white"/>
<path fill-rule="evenodd" clip-rule="evenodd" d="M6.04563 7.40182C6.06581 7.40406 6.0805 7.42369 6.07845 7.44567L6.05137 7.73493L6.30881 7.68459C6.32328 7.68176 6.33792 7.6886 6.346 7.70199C6.35408 7.71537 6.35405 7.73271 6.34592 7.74606L6.09961 8.15058C6.09134 8.16416 6.07634 8.17092 6.06168 8.16767C6.04702 8.16443 6.03563 8.15183 6.03288 8.13582L5.97393 7.79194C5.97321 7.78824 5.97297 7.78438 5.97327 7.78043M5.97334 7.77955L6.00536 7.43756C6.00741 7.41558 6.02544 7.39958 6.04563 7.40182M6.05278 7.81594L6.08847 8.0241L6.23718 7.77988L6.05278 7.81594Z" fill="white"/>
<path fill-rule="evenodd" clip-rule="evenodd" d="M6.06481 8.08888C6.08047 8.08694 6.09552 8.09609 6.10222 8.11162L6.33868 8.66003C6.34498 8.67466 6.34259 8.69198 6.3326 8.70394C6.32262 8.71589 6.30701 8.72013 6.29304 8.71468L5.97284 8.5898C5.9555 8.58304 5.94544 8.56333 5.94931 8.54372L6.03306 8.1202C6.03638 8.10343 6.04915 8.09082 6.06481 8.08888ZM6.08197 8.2529L6.02791 8.5263L6.23461 8.60692L6.08197 8.2529Z" fill="white"/>
<path fill-rule="evenodd" clip-rule="evenodd" d="M6.03365 8.11763C6.03923 8.09639 6.05957 8.0841 6.07907 8.09018L6.98477 8.3723C6.98983 8.37377 6.99454 8.37639 6.99857 8.37996C7.00382 8.38461 7.00793 8.39086 7.0102 8.39824C7.01062 8.39959 7.01097 8.40096 7.01125 8.40236L7.08751 8.7603C7.09021 8.77296 7.08709 8.78625 7.07915 8.79595C7.07121 8.80565 7.05944 8.81055 7.04758 8.80908L6.30128 8.71678C6.28434 8.71469 6.27096 8.70018 6.26895 8.68176C6.26693 8.66333 6.27683 8.64582 6.29284 8.63946L6.85658 8.41558L6.05887 8.16709C6.03936 8.16101 6.02807 8.13887 6.03365 8.11763ZM6.94897 8.46404L6.46447 8.65645L7.00419 8.7232L6.94897 8.46404Z" fill="white"/>
<path fill-rule="evenodd" clip-rule="evenodd" d="M6.94682 8.38587C6.95398 8.37628 6.9648 8.37083 6.97614 8.3711L7.88501 8.39282C7.88554 8.39283 7.88607 8.39286 7.8866 8.3929C7.8952 8.39351 7.90351 8.39742 7.90991 8.40424C7.91677 8.41156 7.9206 8.42136 7.92092 8.43146C7.92094 8.4322 7.92094 8.43294 7.92093 8.43369C7.92091 8.43464 7.92086 8.43558 7.92078 8.43651C7.92051 8.43969 7.91988 8.44286 7.91889 8.44596L7.91861 8.44684C7.91478 8.458 7.90651 8.46675 7.89619 8.47063L7.82387 8.49988L7.83291 8.4716L7.69115 8.46821L7.07804 8.71613L7.02181 8.45221L7.69115 8.46821M7.01678 8.78192L7.36149 9.97061C7.36625 9.98705 7.38015 9.99831 7.39598 9.99856C7.41181 9.99881 7.42601 9.98799 7.43121 9.97171L7.91861 8.44684C7.91973 8.44358 7.92048 8.44012 7.92078 8.43651C7.92092 8.43482 7.92097 8.43314 7.92092 8.43146C7.92029 8.41096 7.90545 8.39422 7.8866 8.3929M7.01624 8.77995C7.01641 8.78062 7.01659 8.78127 7.01678 8.78192ZM7.01582 8.77809C7.01595 8.77871 7.01609 8.77933 7.01624 8.77995ZM7.01582 8.77809L6.93955 8.42013C6.93699 8.4081 6.93967 8.39545 6.94682 8.38587M7.09724 8.7937L7.82387 8.49988L7.39821 9.83157L7.09724 8.7937ZM7.39821 9.83157L7.36182 9.94542L7.39652 9.95857L7.43155 9.94652L7.39821 9.83157Z" fill="white"/>
<path fill-rule="evenodd" clip-rule="evenodd" d="M6.60821 6.00859C6.62737 6.01586 6.63748 6.03867 6.6308 6.05953L6.56761 6.25689L7.00228 6.08478C7.0146 6.07991 7.02837 6.08254 7.03842 6.0917C7.04847 6.10087 7.05327 6.11516 7.05103 6.12922L7.00423 6.42243C7.00255 6.43295 6.99708 6.4423 6.98903 6.4484C6.98099 6.45451 6.97103 6.45685 6.96139 6.45492L6.50145 6.36274C6.50006 6.36249 6.49867 6.36215 6.49729 6.36172C6.48847 6.35896 6.48108 6.35276 6.47635 6.34458C6.4713 6.33582 6.4694 6.32502 6.47162 6.3144C6.47196 6.3128 6.47238 6.31124 6.47289 6.3097L6.56143 6.03319C6.56811 6.01233 6.58906 6.00132 6.60821 6.00859ZM6.64702 6.31057L6.9382 6.36893L6.96778 6.18357L6.64702 6.31057Z" fill="white"/>
<path fill-rule="evenodd" clip-rule="evenodd" d="M6.98382 6.10061C6.99481 6.08204 7.01755 6.07669 7.0346 6.08866L7.83509 6.65064C7.85043 6.6614 7.85618 6.68279 7.84861 6.70086C7.84104 6.71893 7.82243 6.72822 7.80491 6.72266L6.95762 6.45392C6.93814 6.44774 6.92695 6.42554 6.93263 6.40433C6.9383 6.38312 6.95869 6.37093 6.97817 6.37711L7.58327 6.56904L6.99479 6.1559C6.97774 6.14393 6.97283 6.11917 6.98382 6.10061Z" fill="white"/>
<path fill-rule="evenodd" clip-rule="evenodd" d="M8.00995 7.6961C8.01721 7.67547 8.03845 7.66516 8.0574 7.67307L9.84558 8.41966C9.86218 8.42659 9.87184 8.44549 9.86851 8.46452C9.86517 8.48354 9.84979 8.49723 9.832 8.49701L7.88372 8.47257C7.86344 8.47232 7.84718 8.4542 7.84741 8.43211C7.84765 8.41002 7.86428 8.39232 7.88457 8.39258L9.62786 8.41444L8.03109 7.74777C8.01215 7.73986 8.00268 7.71673 8.00995 7.6961Z" fill="white"/>
<path fill-rule="evenodd" clip-rule="evenodd" d="M9.38354 7.00304C9.39313 7.00738 9.40059 7.01593 9.40407 7.02658L9.86712 8.44374C9.87178 8.45799 9.86866 8.47388 9.85905 8.48481L8.69156 9.81238C8.67753 9.82833 8.65427 9.82888 8.63962 9.8136C8.62497 9.79832 8.62446 9.773 8.63849 9.75705L9.79031 8.4473L9.34847 7.09507L9.17741 7.18332C9.05292 7.24759 8.88722 7.33318 8.72236 7.41852C8.5575 7.50387 8.39352 7.58894 8.27247 7.65215C8.21193 7.68377 8.1622 7.70988 8.12848 7.72782C8.11158 7.73681 8.09888 7.74365 8.0909 7.74807C8.08875 7.74926 8.08708 7.7502 8.08584 7.75091C8.08232 7.75373 8.07828 7.75592 8.07382 7.75726C8.07311 7.75747 8.07144 7.75796 8.06931 7.75831C8.0682 7.75848 8.06548 7.75873 8.06385 7.75877C8.06124 7.75869 8.05424 7.75743 8.04996 7.75588C8.04287 7.75175 8.03066 7.73638 8.02738 7.7252C8.02697 7.7162 8.03003 7.70257 8.03218 7.69806C8.03556 7.69195 8.03976 7.68827 8.04033 7.68777C8.04035 7.68775 8.04032 7.68778 8.04033 7.68777C8.0434 7.68501 8.04688 7.68291 8.04731 7.68266C8.0498 7.68113 8.05344 7.67906 8.05758 7.67677C8.06613 7.67203 8.07929 7.66495 8.09623 7.65594C8.1302 7.63787 8.18013 7.61165 8.2407 7.58002C8.36187 7.51674 8.52594 7.43163 8.69082 7.34627C8.85571 7.26092 9.02144 7.17531 9.14594 7.11104L9.35368 7.00386C9.35369 7.00386 9.35374 7.00383 9.36946 7.03999L9.35368 7.00386C9.36307 6.99903 9.37395 6.99871 9.38354 7.00304Z" fill="white"/>
<path fill-rule="evenodd" clip-rule="evenodd" d="M8.07367 7.68014C8.09324 7.68599 8.10475 7.70799 8.09939 7.7293L7.91958 8.44331C7.91422 8.46461 7.89401 8.47715 7.87444 8.47131C7.85488 8.46546 7.84336 8.44346 7.84873 8.42215L8.02853 7.70814C8.0339 7.68684 8.05411 7.6743 8.07367 7.68014Z" fill="white"/>
<path fill-rule="evenodd" clip-rule="evenodd" d="M10.368 7.22652C10.3863 7.23597 10.3941 7.25983 10.3854 7.27979L9.86572 8.47433C9.85703 8.4943 9.83513 8.50281 9.81679 8.49335C9.79846 8.4839 9.79064 8.46005 9.79932 8.44008L10.319 7.24554C10.3277 7.22558 10.3496 7.21706 10.368 7.22652Z" fill="white"/>
<path d="M9.94575 8.50071C9.92358 8.56858 9.85462 8.60659 9.79304 8.58215C9.73146 8.55772 9.69698 8.4817 9.71915 8.41383C9.74132 8.34596 9.81028 8.30795 9.87186 8.33239C9.9359 8.35682 9.96792 8.43284 9.94575 8.50071Z" fill="white"/>
<path d="M9.48762 7.06711C9.46545 7.13499 9.39649 7.17299 9.33491 7.14856C9.27333 7.12413 9.23885 7.04811 9.26102 6.98024C9.28319 6.91237 9.35215 6.87436 9.41373 6.89879C9.47777 6.92323 9.50979 6.99924 9.48762 7.06711Z" fill="white"/>
<path d="M10.4655 7.30588C10.4434 7.37376 10.3744 7.41176 10.3128 7.38733C10.2512 7.3629 10.2168 7.28688 10.2389 7.21901C10.2611 7.15114 10.3301 7.11313 10.3916 7.13756C10.4532 7.162 10.4877 7.23801 10.4655 7.30588Z" fill="white"/>
<path d="M10.4457 5.88889C10.4236 5.95676 10.3546 5.99477 10.293 5.97034C10.2315 5.9459 10.197 5.86989 10.2191 5.80202C10.2413 5.73414 10.3103 5.69614 10.3719 5.72057C10.4359 5.745 10.4679 5.81831 10.4457 5.88889Z" fill="white"/>
<path d="M9.85468 5.43821C9.83252 5.50608 9.76355 5.54409 9.70198 5.51965C9.6404 5.49522 9.60592 5.4192 9.62808 5.35133C9.65025 5.28346 9.71922 5.24545 9.78079 5.26989C9.84483 5.29432 9.87685 5.36762 9.85468 5.43821Z" fill="white"/>
<path d="M9.11079 4.8408C9.08862 4.90867 9.01966 4.94668 8.95808 4.92224C8.8965 4.89781 8.86202 4.82179 8.88419 4.75392C8.90635 4.68605 8.97532 4.64804 9.0369 4.67247C9.09847 4.69691 9.13049 4.77292 9.11079 4.8408Z" fill="white"/>
<path d="M8.26106 4.17576C8.23889 4.24363 8.16992 4.28164 8.10835 4.2572C8.04677 4.23277 8.01229 4.15675 8.03446 4.08888C8.05662 4.02101 8.12559 3.983 8.18717 4.00744C8.24874 4.03187 8.28076 4.10517 8.26106 4.17576Z" fill="white"/>
<path d="M9.07392 4.20823C9.05176 4.2761 8.98279 4.31411 8.92121 4.28967C8.85964 4.26524 8.82515 4.18922 8.84732 4.12135C8.86949 4.05348 8.93846 4.01547 9.00003 4.03991C9.06407 4.06434 9.09609 4.14036 9.07392 4.20823Z" fill="white"/>
<path d="M9.85468 4.44431C9.83252 4.51218 9.76355 4.55019 9.70198 4.52576C9.6404 4.50132 9.60592 4.42531 9.62808 4.35744C9.65025 4.28956 9.71922 4.25156 9.78079 4.27599C9.84483 4.30042 9.87685 4.37644 9.85468 4.44431Z" fill="white"/>
<path d="M10.3522 4.98191C10.3301 5.04978 10.2611 5.08779 10.1995 5.06336C10.138 5.03892 10.1035 4.96291 10.1256 4.89503C10.1478 4.82716 10.2168 4.78915 10.2784 4.81359C10.3424 4.83802 10.3744 4.91404 10.3522 4.98191Z" fill="white"/>
<path d="M7.50984 10.0019C7.48767 10.0698 7.4187 10.1078 7.35713 10.0834C7.29555 10.0589 7.26107 9.98293 7.28324 9.91505C7.3054 9.84718 7.37437 9.80917 7.43594 9.83361C7.49752 9.85804 7.532 9.93406 7.50984 10.0019Z" fill="white"/>
<path fill-rule="evenodd" clip-rule="evenodd" d="M7.19201 5.59292C7.19886 5.57212 7.21989 5.56131 7.23899 5.56876L7.87199 5.81581C7.88697 5.82166 7.89679 5.83735 7.89632 5.85467C7.89584 5.87199 7.88518 5.887 7.8699 5.89186L7.02507 6.16064C7.0056 6.16683 6.9852 6.15466 6.97951 6.13346C6.97382 6.11225 6.985 6.09004 7.00447 6.08385L7.74079 5.84959L7.2142 5.64407C7.1951 5.63662 7.18517 5.61372 7.19201 5.59292Z" fill="white"/>
<path fill-rule="evenodd" clip-rule="evenodd" d="M7.49036 4.7808C7.49056 4.75871 7.50718 4.74099 7.52746 4.74121L8.99791 4.7575C9.01298 4.75767 9.02642 4.76784 9.03183 4.78316C9.03723 4.79847 9.03349 4.81583 9.0224 4.82694L8.07485 5.77598L9.7328 5.3423C9.74524 5.33905 9.75833 5.34307 9.76737 5.35293C9.77641 5.36279 9.78009 5.37705 9.77708 5.39059L9.41255 7.03308C9.40779 7.05456 9.38794 7.06776 9.36822 7.06257C9.3485 7.05738 9.33637 7.03577 9.34114 7.01429L9.69156 5.43536L7.95439 5.88976C7.93812 5.89402 7.92126 5.88576 7.91339 5.86968C7.90552 5.8536 7.90863 5.83376 7.92094 5.82143L8.90436 4.83647L7.52672 4.82121C7.50643 4.82098 7.49015 4.80289 7.49036 4.7808Z" fill="white"/>
<path fill-rule="evenodd" clip-rule="evenodd" d="M6.97335 6.37591C6.98715 6.37812 6.99862 6.38865 7.00294 6.4031L7.35708 7.58672L7.78249 6.66628C7.79161 6.64654 7.81369 6.6386 7.83182 6.64853C7.84994 6.65846 7.85724 6.68251 7.84811 6.70224L7.39309 7.68676L7.91316 8.40793C7.92569 8.4253 7.92291 8.45045 7.90695 8.46409C7.891 8.47774 7.8679 8.47471 7.85537 8.45734L7.35473 7.7631L7.00736 8.43063C7.00178 8.44136 6.99196 8.44869 6.98075 8.45049C6.96955 8.45228 6.95821 8.44835 6.95002 8.43983L6.28992 7.75297C6.27921 7.74183 6.2757 7.72476 6.28101 7.7097C6.28633 7.69464 6.29943 7.68454 6.31424 7.68407L7.21406 7.65573L6.46753 7.20797C6.45842 7.20251 6.45186 7.19309 6.44949 7.18207C6.44711 7.17104 6.44914 7.15943 6.45507 7.15013L6.93783 6.39268C6.94579 6.3802 6.95955 6.37371 6.97335 6.37591ZM7.28569 7.73351L6.40424 7.76127L6.96669 8.34652L7.28569 7.73351ZM7.3815 7.71166C7.38197 7.7108 7.3824 7.70991 7.38281 7.709ZM7.28605 7.60758L6.956 6.50449L6.53866 7.1593L7.28605 7.60758Z" fill="white"/>
<path fill-rule="evenodd" clip-rule="evenodd" d="M7.31301 7.68997C7.31372 7.66789 7.33073 7.65062 7.351 7.65139L8.06529 7.67854C8.08557 7.67931 8.10143 7.69783 8.10072 7.71991C8.10001 7.74199 8.083 7.75926 8.06273 7.75849L7.34844 7.73134C7.32817 7.73057 7.3123 7.71205 7.31301 7.68997Z" fill="white"/>
<path fill-rule="evenodd" clip-rule="evenodd" d="M7.8646 8.39872C7.88177 8.38696 7.90445 8.39259 7.91525 8.41129L8.69604 9.76329C8.70684 9.78199 8.70167 9.80669 8.68449 9.81845C8.66732 9.83021 8.64464 9.82458 8.63384 9.80588L7.85305 8.45388C7.84225 8.43518 7.84742 8.41048 7.8646 8.39872Z" fill="white"/>
<path d="M8.78315 9.81174C8.76098 9.87962 8.69202 9.91762 8.63044 9.89319C8.56887 9.86876 8.53438 9.79274 8.55655 9.72487C8.57872 9.657 8.64768 9.61899 8.70926 9.64342C8.7733 9.66786 8.80532 9.74387 8.78315 9.81174Z" fill="white"/>
<path d="M7.99751 5.88889C7.97534 5.95676 7.90637 5.99477 7.8448 5.97034C7.78322 5.9459 7.74874 5.86989 7.77091 5.80202C7.79307 5.73414 7.86204 5.69614 7.92362 5.72057C7.98519 5.745 8.01967 5.81831 7.99751 5.88889Z" fill="white"/>
<path d="M7.64033 4.82468C7.61816 4.89255 7.5492 4.93056 7.48762 4.90613C7.42604 4.8817 7.39156 4.80568 7.41373 4.73781C7.4359 4.66994 7.50486 4.63193 7.56644 4.65636C7.62801 4.6808 7.6625 4.75681 7.64033 4.82468Z" fill="white"/>
<path d="M7.99751 8.47605C7.97534 8.54392 7.90637 8.58193 7.8448 8.5575C7.78322 8.53306 7.74874 8.45705 7.77091 8.38917C7.79307 8.3213 7.86204 8.28329 7.92362 8.30773C7.98519 8.33216 8.01967 8.40818 7.99751 8.47605Z" fill="white"/>
<path d="M8.17744 7.76218C8.15527 7.83005 8.08631 7.86806 8.02473 7.84363C7.96315 7.8192 7.92867 7.74318 7.95084 7.67531C7.97301 7.60744 8.04197 7.56943 8.10355 7.59386C8.16759 7.6183 8.19961 7.69431 8.17744 7.76218Z" fill="white"/>
<path d="M7.92842 6.73045C7.90625 6.79832 7.83728 6.83632 7.77571 6.81189C7.71413 6.78746 7.67965 6.71144 7.70181 6.64357C7.72398 6.5757 7.79295 6.53769 7.85452 6.56212C7.9161 6.58656 7.95058 6.65986 7.92842 6.73045Z" fill="white"/>
<path fill-rule="evenodd" clip-rule="evenodd" d="M7.806 6.6456C7.82563 6.64001 7.8457 6.65279 7.85084 6.67416L8.09961 7.70853C8.10125 7.71532 8.10121 7.72247 8.0995 7.72924L7.9197 8.44325C7.91434 8.46455 7.89412 8.47709 7.87456 8.47125C7.85499 8.4654 7.84348 8.4434 7.84885 8.42209L8.02605 7.71842L7.77977 6.69443C7.77463 6.67306 7.78638 6.6512 7.806 6.6456Z" fill="white"/>
<path fill-rule="evenodd" clip-rule="evenodd" d="M7.806 6.6456C7.82563 6.64001 7.8457 6.65279 7.85084 6.67416L8.09961 7.70853C8.10125 7.71532 8.10121 7.72247 8.0995 7.72924L7.9197 8.44325C7.91434 8.46455 7.89412 8.47709 7.87456 8.47125C7.85499 8.4654 7.84348 8.4434 7.84885 8.42209L8.02605 7.71842L7.77977 6.69443C7.77463 6.67306 7.78638 6.6512 7.806 6.6456Z" fill="white"/>
<path fill-rule="evenodd" clip-rule="evenodd" d="M8.17428 4.10458C8.18833 4.12052 8.18786 4.14584 8.17322 4.16114L7.55253 4.80999C7.5379 4.82529 7.51464 4.82478 7.50059 4.80884C7.48654 4.7929 7.48702 4.76758 7.50165 4.75228L8.12234 4.10343C8.13698 4.08813 8.16023 4.08865 8.17428 4.10458Z" fill="white"/>
<path fill-rule="evenodd" clip-rule="evenodd" d="M8.70886 9.76285C8.71161 9.78474 8.69754 9.80491 8.67744 9.80791L7.40158 9.99795C7.38148 10.0009 7.36296 9.98563 7.36021 9.96374C7.35746 9.94185 7.37152 9.92168 7.39162 9.91869L8.66749 9.72865C8.68759 9.72565 8.70611 9.74097 8.70886 9.76285Z" fill="white"/>
<defs>
<linearGradient id="paint0_linear_210_3594" x1="4.38203" y1="4.78683" x2="9.71006" y2="7.98733" gradientUnits="userSpaceOnUse">
<stop offset="0.2577" stop-color="white"/>
<stop offset="0.7491" stop-color="#747474"/>
</linearGradient>
</defs>
</svg>
