<svg width="64" height="64" viewBox="0 0 64 64" fill="none" xmlns="http://www.w3.org/2000/svg">
<rect width="64" height="64" rx="8" fill="#1B1B1B"/>
<path d="M7.1834 46.4854H8.2562L10.1062 50.6663H9.21953L8.86923 49.8808H7.00825L7.35856 49.0826H8.51893L7.7198 47.2835L6.22008 50.6663H5.33337L7.1834 46.4854Z" fill="white"/>
<path d="M13.4672 46.4846H14.2225V49.88H17.3533V50.6655H13.4672V46.4846Z" fill="white"/>
<path d="M19.5315 46.4846H20.4072L21.907 49.88L23.4067 46.4846H24.2934L22.4434 50.6655H21.3706L19.5315 46.4846Z" fill="white"/>
<path d="M28.4096 46.4846H27.6543V50.6655H28.4096V46.4846Z" fill="white"/>
<path d="M32.0441 50.4759C31.9018 50.3492 31.8252 50.1592 31.8142 49.9058V49.4244H32.5695V49.5384C32.5805 49.6651 32.6024 49.7411 32.6462 49.7918C32.679 49.8298 32.7447 49.8551 32.8213 49.8678H34.9341C34.9998 49.8678 35.0545 49.8551 35.0873 49.8425C35.1202 49.8298 35.153 49.7918 35.1749 49.7411C35.1968 49.6904 35.2078 49.6017 35.2078 49.4751V49.3357C35.2078 49.2217 35.1968 49.133 35.1749 49.0696C35.153 49.0189 35.1311 48.9809 35.0873 48.9683C35.0545 48.9556 34.9998 48.9429 34.9341 48.9429H32.5695C32.4382 48.9429 32.3178 48.9049 32.2083 48.8416C32.0988 48.7782 32.0003 48.6769 31.9346 48.5502C31.8689 48.4235 31.8252 48.2715 31.8252 48.1067V47.2959C31.8252 47.1185 31.8689 46.9792 31.9346 46.8525C32.0003 46.7258 32.0988 46.6244 32.2083 46.5611C32.3178 46.4977 32.4382 46.4597 32.5695 46.4597H35.2078C35.4048 46.4597 35.58 46.5231 35.7223 46.6371C35.8646 46.7511 35.9303 46.9538 35.9303 47.2452V47.7013H35.2078V47.6633C35.2078 47.5366 35.1968 47.4479 35.1749 47.3846C35.153 47.3212 35.1311 47.2832 35.0983 47.2706C35.0654 47.2579 35.0107 47.2452 34.9341 47.2452H32.8213C32.7119 47.2579 32.6462 47.2959 32.6243 47.3719C32.5914 47.4479 32.5805 47.5493 32.5805 47.6887C32.5805 47.828 32.5914 47.942 32.6243 48.0054C32.6462 48.0814 32.7119 48.1194 32.8104 48.1321H35.2078C35.4048 48.1321 35.58 48.1954 35.7223 48.3095C35.8646 48.4235 35.9303 48.6262 35.9303 48.9176V49.8298C35.9303 50.1212 35.8646 50.3239 35.7223 50.4379C35.58 50.552 35.4157 50.6153 35.2078 50.6153H32.5805C32.3725 50.666 32.1974 50.6026 32.0441 50.4759Z" fill="white"/>
<path d="M39.5644 50.4755C39.422 50.3488 39.3454 50.1588 39.3345 49.9054V46.4846H40.0898V49.5506C40.1008 49.6773 40.1227 49.7533 40.1555 49.804C40.1883 49.842 40.254 49.8674 40.3306 49.88H42.4434C42.5091 49.88 42.5638 49.8675 42.5967 49.8548C42.6295 49.8422 42.6623 49.804 42.6842 49.7533C42.7061 49.7027 42.7171 49.614 42.7171 49.4873V46.4846H43.4396V49.88C43.4396 50.1714 43.3739 50.3743 43.2316 50.4883C43.0893 50.6023 42.9251 50.6655 42.7171 50.6655H40.0898C39.8818 50.6655 39.7067 50.6022 39.5644 50.4755Z" fill="white"/>
<path d="M48.497 46.4846H49.5589L51.4089 50.6655H50.5331L50.1828 49.88H48.3109L48.6612 49.0819H49.8216L49.0225 47.2828L47.5227 50.6655H46.647L48.497 46.4846Z" fill="white"/>
<path d="M54.7698 46.4846H55.5251V49.88H58.6669V50.6655H54.7698V46.4846Z" fill="white"/>
<path d="M31.4857 34.0185L32.2849 30.6865L31.1792 25.8594L31.3763 21.9699L29.8984 16.9781L32.657 13.9501C32.3067 13.836 31.7703 13.7727 31.1135 13.7727C27.8842 13.7727 21.7539 15.293 20.6264 19.2586C19.674 22.6287 20.2761 23.2368 19.8054 23.8703C19.3456 24.5037 17.4299 26.4929 17.4189 27.025C17.3861 28.1779 18.7216 27.5318 18.8092 28.4313C18.8749 29.0901 18.4151 29.1408 18.5465 29.5589C18.6012 29.7362 19.1595 30.0403 19.1376 30.1037C19.1157 30.167 18.4589 30.5218 18.5465 31.0159C18.645 31.51 18.7873 31.4466 18.7873 31.8901C18.7873 32.8023 18.0976 34.0945 18.5027 34.7407C19.2471 35.9063 21.0095 35.7162 22.5859 35.5135C23.6806 35.3742 24.6767 35.2348 25.1694 35.5515C30.5662 39.0737 26.0561 40.7207 28.8475 41.1261L34.945 40.3153L31.4857 34.0185Z" fill="url(#paint0_linear_210_3825)"/>
<path fill-rule="evenodd" clip-rule="evenodd" d="M29.0985 14.6426C29.1505 14.6545 29.1942 14.6947 29.2157 14.7502L30.0476 16.904C30.0672 16.9547 30.0661 17.0128 30.0445 17.0625C30.0229 17.1122 29.983 17.1483 29.9358 17.1611L26.181 18.1746C26.1092 18.194 26.0349 18.1559 25.9998 18.0817C25.9648 18.0074 25.9776 17.9155 26.0312 17.8575L28.954 14.6901C28.9925 14.6484 29.0464 14.6306 29.0985 14.6426ZM26.6953 17.6522L29.6696 16.8493L29.0105 15.1432L26.6953 17.6522Z" fill="white"/>
<path fill-rule="evenodd" clip-rule="evenodd" d="M29.8458 16.8014C29.9313 16.7684 30.0239 16.8208 30.0527 16.9185L31.5306 21.923C31.5594 22.0206 31.5135 22.1265 31.4281 22.1595C31.3427 22.1925 31.25 22.1401 31.2212 22.0424L29.7434 17.0379C29.7145 16.9403 29.7604 16.8343 29.8458 16.8014Z" fill="white"/>
<path fill-rule="evenodd" clip-rule="evenodd" d="M32.6634 13.7641L33.214 13.7896C33.5451 13.8048 33.9877 13.825 34.4337 13.8448C34.8797 13.8646 35.3289 13.884 35.6734 13.8977C35.8457 13.9045 35.9915 13.9099 36.0974 13.9131C36.1504 13.9148 36.193 13.9159 36.2237 13.9164C36.2425 13.9167 36.2538 13.9166 36.2597 13.9166C36.2653 13.9166 36.2661 13.9166 36.2637 13.9169C36.3571 13.9061 36.4096 13.9801 36.4225 14.0006C36.4396 14.0277 36.4491 14.0557 36.4542 14.0722C36.4652 14.1083 36.4732 14.1518 36.4795 14.1943C36.4927 14.2822 36.5043 14.4035 36.5146 14.5427C36.5355 14.823 36.5527 15.1956 36.5664 15.566C36.5801 15.937 36.5904 16.3081 36.5973 16.5863C36.6007 16.7255 36.6033 16.8415 36.605 16.9227L36.6069 17.0171L36.6075 17.0501C36.6088 17.1208 36.5751 17.1868 36.5204 17.2197C36.4657 17.2527 36.3995 17.2475 36.3492 17.2063L32.5616 14.1023C32.5029 14.0542 32.4788 13.9679 32.5023 13.8898C32.5258 13.8118 32.5913 13.7607 32.6634 13.7641ZM36.273 16.6845C36.2723 16.6565 36.2716 16.6272 36.2709 16.5968C36.264 16.3196 36.2538 15.9503 36.2402 15.5818C36.2265 15.2125 36.2095 14.8464 36.1893 14.5743C36.1805 14.4559 36.1713 14.3589 36.162 14.2884C36.1401 14.2879 36.1155 14.2872 36.0886 14.2863C35.9814 14.283 35.8347 14.2776 35.6621 14.2708C35.3169 14.2571 34.8672 14.2377 34.421 14.2179C33.9748 14.1981 33.5321 14.1779 33.2009 14.1626L33.1954 14.1624L36.273 16.6845ZM36.1459 14.1952C36.1458 14.1951 36.1459 14.1953 36.1459 14.1952V14.1952Z" fill="white"/>
<path fill-rule="evenodd" clip-rule="evenodd" d="M36.1231 14.0519C36.1473 13.9526 36.2373 13.8945 36.3242 13.9222L39.7827 15.0242C39.786 15.0252 39.7892 15.0264 39.7925 15.0276C39.8178 15.0375 39.8397 15.0539 39.8572 15.0748L42.0665 17.6063C42.1153 17.6623 42.128 17.7475 42.0981 17.8189C42.0681 17.8902 42.0021 17.9323 41.9333 17.9237L36.416 17.2396C36.3438 17.2306 36.2854 17.1681 36.2728 17.0862C36.2603 17.0043 36.2966 16.9229 36.3619 16.8863L39.2823 15.2523L36.2365 14.2818C36.1497 14.2541 36.0989 14.1512 36.1231 14.0519ZM39.7065 15.4306L37.0124 16.938L41.5085 17.4955L39.7065 15.4306Z" fill="white"/>
<path fill-rule="evenodd" clip-rule="evenodd" d="M26.0942 17.8142C26.153 17.7928 26.2174 17.8112 26.2605 17.8618L28.6798 20.6998C28.7266 20.7547 28.7393 20.8367 28.7118 20.9067C28.6842 20.9766 28.6221 21.0202 28.5551 21.0165L25.7637 20.8645C25.7173 20.862 25.6741 20.837 25.6448 20.7958C25.6155 20.7547 25.6029 20.7012 25.6102 20.6488L25.9824 17.9629C25.992 17.8931 26.0353 17.8356 26.0942 17.8142ZM26.2539 18.3889L25.9612 20.5015L28.1567 20.6211L26.2539 18.3889Z" fill="white"/>
<path fill-rule="evenodd" clip-rule="evenodd" d="M29.9583 16.8047C30.0421 16.8427 30.0831 16.9512 30.0499 17.047L28.7144 20.8985C28.6811 20.9944 28.5863 21.0413 28.5024 21.0033C28.4186 20.9653 28.3776 20.8568 28.4108 20.7609L29.7464 16.9094C29.7796 16.8136 29.8745 16.7667 29.9583 16.8047Z" fill="white"/>
<path fill-rule="evenodd" clip-rule="evenodd" d="M25.7931 20.4929C25.8824 20.5068 25.945 20.6008 25.9329 20.703L25.815 21.6971L28.5213 20.6531C28.5829 20.6293 28.6509 20.6496 28.6946 20.7047C28.7382 20.7597 28.7491 20.8392 28.7223 20.9069L27.7713 23.3105C27.7595 23.3422 27.7404 23.3688 27.7169 23.3883C27.7139 23.3908 27.7108 23.3932 27.7076 23.3955C27.6744 23.4192 27.6336 23.4294 27.5921 23.4208C27.5917 23.4207 27.5914 23.4207 27.5911 23.4206L27.5149 23.4044C27.4664 23.394 27.3969 23.3793 27.3132 23.3617C27.1457 23.3265 26.9217 23.2799 26.6951 23.2341C26.4682 23.1882 26.2395 23.1433 26.0626 23.1115C25.9739 23.0956 25.8995 23.0832 25.8454 23.0756C25.8181 23.0718 25.7979 23.0695 25.7844 23.0684L25.7787 23.0681C25.7118 23.078 25.6599 23.0417 25.6327 23.0126C25.6056 22.9837 25.59 22.9505 25.5817 22.9306C25.5639 22.8881 25.5514 22.8369 25.542 22.791C25.5224 22.6951 25.5065 22.5703 25.4941 22.4517C25.4814 22.3315 25.4717 22.2111 25.4651 22.1212C25.4618 22.0761 25.4593 22.0384 25.4576 22.012L25.4569 22.0014C25.4551 21.9891 25.4543 21.9765 25.4547 21.9638C25.4541 21.9446 25.4561 21.9257 25.4605 21.9077L25.6093 20.6528C25.6214 20.5507 25.7037 20.4791 25.7931 20.4929ZM25.807 22.2922C25.8105 22.3299 25.8142 22.3686 25.8183 22.4072C25.8302 22.5206 25.8441 22.6266 25.8591 22.7016C25.8675 22.7026 25.8762 22.7038 25.8851 22.7051C25.9448 22.7134 26.0234 22.7266 26.1132 22.7427C26.2757 22.7719 26.4796 22.8117 26.6849 22.8529L25.807 22.2922ZM26.0312 22.0077L27.5456 22.9751L28.2701 21.144L26.0312 22.0077ZM25.7741 23.0678C25.774 23.0678 25.7742 23.0678 25.7741 23.0678V23.0678Z" fill="white"/>
<path fill-rule="evenodd" clip-rule="evenodd" d="M31.3058 21.815C31.3597 21.7857 31.4231 21.7923 31.4715 21.8322L38.1819 27.3687C38.2445 27.4203 38.2669 27.5149 38.2357 27.5956C38.2046 27.6762 38.1283 27.7209 38.0528 27.7028L31.1453 26.0431C31.0662 26.0241 31.0112 25.9418 31.0159 25.8496L31.2129 21.9727C31.2164 21.9047 31.252 21.8442 31.3058 21.815ZM31.5217 22.334L31.35 25.7108L37.3666 27.1564L31.5217 22.334Z" fill="white"/>
<path fill-rule="evenodd" clip-rule="evenodd" d="M36.3009 16.9452C36.3536 16.8616 36.4556 16.8426 36.5288 16.9029L42.1629 21.5468L41.7883 17.7595C41.7782 17.657 41.8426 17.5646 41.9322 17.553C42.0218 17.5414 42.1026 17.6151 42.1128 17.7175L42.5288 21.9238C42.5288 21.9238 42.5288 21.9238 42.5288 21.9238C42.529 21.9265 42.5292 21.9293 42.5294 21.932M42.1253 21.976L36.3378 17.2058C36.2647 17.1455 36.2481 17.0288 36.3009 16.9452M42.1253 21.976L37.9636 27.3962C37.9253 27.4461 37.913 27.5155 37.9314 27.5785C37.9499 27.6415 37.9962 27.6886 38.053 27.7021L42.4209 28.741C42.4694 28.7525 42.5199 28.7383 42.5581 28.7022C42.5963 28.6661 42.6181 28.6121 42.6174 28.5554L42.5298 21.9423M42.2097 22.432L42.2878 28.328L38.3938 27.4018L42.2097 22.432Z" fill="white"/>
<path fill-rule="evenodd" clip-rule="evenodd" d="M25.4405 24.0089C25.4967 24.0417 25.5313 24.1085 25.5295 24.1805L25.431 28.146C25.4294 28.2086 25.4006 28.2661 25.3541 28.2992C25.3077 28.3323 25.2498 28.3365 25.2 28.3106L22.4305 26.8663C22.3784 26.8391 22.3425 26.7827 22.336 26.7176C22.3295 26.6526 22.3533 26.5884 22.3987 26.5484L25.2668 24.0272C25.3168 23.9833 25.3844 23.9762 25.4405 24.0089ZM22.8128 26.6553L25.1116 27.8541L25.1934 24.5627L22.8128 26.6553Z" fill="white"/>
<path fill-rule="evenodd" clip-rule="evenodd" d="M22.3903 26.5561C22.458 26.488 22.5612 26.4955 22.6208 26.5728L23.9875 28.3478L25.2247 27.9605C25.2828 27.9423 25.3451 27.9622 25.3865 28.0123C25.4279 28.0624 25.4418 28.1346 25.4226 28.1999L24.6683 30.7681C24.6626 30.7892 24.6534 30.8095 24.6409 30.8277C24.6362 30.8345 24.6311 30.8409 24.6257 30.8469C24.6013 30.8738 24.5713 30.8903 24.54 30.8964C24.5304 30.8983 24.5205 30.8992 24.5104 30.8991C24.4701 30.8985 24.4327 30.8811 24.404 30.8519C24.4027 30.8506 24.4014 30.8492 24.4001 30.8479L24.3994 30.8471C24.3798 30.8256 24.3648 30.7984 24.3564 30.7674L24.1732 30.0873L24.4391 30.3756L24.5192 30.1031L24.6675 30.654M24.1379 28.6878L24.5192 30.1031L25.0155 28.413L25.3109 28.3205L25.2678 28.1405L25.113 28.0811L25.0155 28.413L24.1379 28.6878ZM24.0231 28.7237L24.1379 28.6878L24.0883 28.5037C24.0813 28.4777 24.0696 28.4544 24.0544 28.4347M24.0231 28.7237L23.8628 28.9348L23.7866 28.6519L23.7154 28.5595L23.1741 29.2724C23.1168 29.3479 23.1216 29.4615 23.185 29.5302L24.3994 30.8471C24.4009 30.8487 24.4024 30.8503 24.404 30.8519M23.7154 28.5595L22.3757 26.8195C22.3161 26.7422 22.3227 26.6242 22.3903 26.5561M23.5231 29.3823L24.1732 30.0873L23.8628 28.9348L23.5231 29.3823ZM23.5231 29.3823L23.4097 29.2593L23.2974 29.3948L23.4206 29.5172L23.5231 29.3823Z" fill="white"/>
<path fill-rule="evenodd" clip-rule="evenodd" d="M23.3137 29.2085C23.4034 29.2189 23.4687 29.3106 23.4596 29.4131L23.3392 30.763L24.4834 30.5281C24.5478 30.5149 24.6128 30.5468 24.6487 30.6093C24.6846 30.6717 24.6845 30.7527 24.6483 30.815L23.5537 32.7027C23.5169 32.7661 23.4502 32.7976 23.3851 32.7825C23.3199 32.7674 23.2693 32.7086 23.2571 32.6338L22.9951 31.0291C22.9919 31.0118 22.9908 30.9938 22.9921 30.9754M22.9925 30.9713L23.1347 29.3753C23.1439 29.2727 23.224 29.198 23.3137 29.2085M23.3455 31.1411L23.5041 32.1125L24.1651 30.9728L23.3455 31.1411Z" fill="white"/>
<path fill-rule="evenodd" clip-rule="evenodd" d="M23.3992 32.4143C23.4688 32.4052 23.5357 32.4479 23.5655 32.5204L24.6164 35.0797C24.6444 35.1479 24.6338 35.2288 24.5894 35.2846C24.545 35.3404 24.4756 35.3602 24.4135 35.3347L22.9904 34.7519C22.9134 34.7204 22.8686 34.6284 22.8859 34.5369L23.2581 32.5605C23.2728 32.4822 23.3296 32.4234 23.3992 32.4143ZM23.4755 33.1797L23.2352 34.4556L24.1539 34.8318L23.4755 33.1797Z" fill="white"/>
<path fill-rule="evenodd" clip-rule="evenodd" d="M23.2606 32.5485C23.2854 32.4493 23.3758 32.392 23.4625 32.4203L27.4878 33.7369C27.5103 33.7438 27.5312 33.756 27.5492 33.7727C27.5725 33.7944 27.5908 33.8236 27.6008 33.858C27.6027 33.8643 27.6042 33.8707 27.6055 33.8772L27.9444 35.5476C27.9564 35.6067 27.9426 35.6687 27.9073 35.714C27.872 35.7593 27.8197 35.7821 27.767 35.7753L24.4501 35.3445C24.3748 35.3347 24.3153 35.2671 24.3064 35.1811C24.2974 35.0951 24.3414 35.0133 24.4125 34.9837L26.9181 33.9389L23.3727 32.7793C23.286 32.7509 23.2358 32.6476 23.2606 32.5485ZM27.3287 34.1651L25.1754 35.063L27.5741 35.3745L27.3287 34.1651Z" fill="white"/>
<path fill-rule="evenodd" clip-rule="evenodd" d="M27.3195 33.8006C27.3513 33.7559 27.3994 33.7305 27.4498 33.7317L31.4892 33.8331C31.4916 33.8331 31.494 33.8333 31.4963 33.8334C31.5345 33.8363 31.5715 33.8545 31.5999 33.8864C31.6304 33.9205 31.6474 33.9663 31.6488 34.0134C31.6489 34.0168 31.6489 34.0203 31.6489 34.0238C31.6488 34.0282 31.6486 34.0326 31.6482 34.037C31.647 34.0518 31.6442 34.0666 31.6398 34.0811L31.6386 34.0852C31.6215 34.1372 31.5848 34.1781 31.5389 34.1962L31.2175 34.3327L31.2577 34.2007L30.6276 34.1849L27.9027 35.3419L27.6528 34.1103L30.6276 34.1849M27.6304 35.6489L29.1625 41.1962C29.1836 41.2729 29.2454 41.3254 29.3158 41.3266C29.3861 41.3278 29.4492 41.2773 29.4723 41.2013L31.6386 34.0852C31.6436 34.07 31.6469 34.0538 31.6482 34.037C31.6489 34.0291 31.6491 34.0212 31.6488 34.0134C31.6461 33.9177 31.5801 33.8396 31.4963 33.8334M27.628 35.6397C27.6288 35.6428 27.6296 35.6459 27.6304 35.6489L27.628 35.6397ZM27.6262 35.631C27.6267 35.6339 27.6273 35.6368 27.628 35.6397L27.6262 35.631ZM27.6262 35.631L27.2872 33.9605C27.2758 33.9044 27.2877 33.8454 27.3195 33.8006M27.988 35.7039L31.2175 34.3327L29.3257 40.5473L27.988 35.7039ZM29.3257 40.5473L29.164 41.0786L29.3182 41.14L29.4738 41.0838L29.3257 40.5473Z" fill="white"/>
<path fill-rule="evenodd" clip-rule="evenodd" d="M25.814 22.7067C25.8992 22.7407 25.9441 22.8471 25.9144 22.9445L25.6336 23.8655L27.5655 23.0623C27.6202 23.0396 27.6814 23.0519 27.7261 23.0946C27.7707 23.1374 27.7921 23.2041 27.7821 23.2697L27.5741 24.638C27.5667 24.6871 27.5423 24.7308 27.5066 24.7592C27.4708 24.7877 27.4266 24.7987 27.3837 24.7896L25.3395 24.3595C25.3334 24.3583 25.3272 24.3567 25.321 24.3547C25.2818 24.3418 25.249 24.3129 25.228 24.2747C25.2055 24.2339 25.1971 24.1834 25.207 24.1339C25.2085 24.1264 25.2103 24.1191 25.2126 24.112L25.6061 22.8216C25.6358 22.7242 25.7289 22.6728 25.814 22.7067ZM25.9865 24.116L27.2806 24.3884L27.4121 23.5233L25.9865 24.116Z" fill="white"/>
<path fill-rule="evenodd" clip-rule="evenodd" d="M27.4843 23.1356C27.5332 23.0489 27.6342 23.024 27.71 23.0799L31.2678 25.7024C31.3359 25.7527 31.3615 25.8525 31.3278 25.9368C31.2942 26.0211 31.2115 26.0645 31.1336 26.0385L27.3679 24.7844C27.2813 24.7556 27.2316 24.6519 27.2568 24.553C27.282 24.454 27.3726 24.3971 27.4592 24.426L30.1486 25.3216L27.5331 23.3936C27.4573 23.3378 27.4355 23.2222 27.4843 23.1356Z" fill="white"/>
<path fill-rule="evenodd" clip-rule="evenodd" d="M32.0445 30.5818C32.0768 30.4855 32.1712 30.4374 32.2554 30.4743L40.2029 33.9584C40.2767 33.9908 40.3196 34.079 40.3048 34.1678C40.29 34.2566 40.2216 34.3204 40.1425 34.3194L31.4835 34.2054C31.3934 34.2042 31.3211 34.1196 31.3222 34.0166C31.3232 33.9135 31.3971 33.8309 31.4873 33.8321L39.2353 33.9341L32.1385 30.8229C32.0543 30.786 32.0122 30.6781 32.0445 30.5818Z" fill="white"/>
<path fill-rule="evenodd" clip-rule="evenodd" d="M38.1491 27.3474C38.1918 27.3677 38.2249 27.4076 38.2404 27.4573L40.2984 34.0707C40.3191 34.1373 40.3052 34.2114 40.2625 34.2624L35.0737 40.4578C35.0113 40.5323 34.9079 40.5348 34.8428 40.4635C34.7777 40.3922 34.7754 40.2741 34.8378 40.1996L39.957 34.0874L37.9933 27.7769L37.233 28.1888C36.6797 28.4887 35.9432 28.8881 35.2106 29.2864C34.4778 29.6847 33.749 30.0817 33.211 30.3767C32.9419 30.5242 32.7209 30.6461 32.5711 30.7298C32.496 30.7717 32.4395 30.8036 32.404 30.8243C32.3945 30.8298 32.3871 30.8342 32.3816 30.8375C32.3659 30.8507 32.348 30.8609 32.3281 30.8672C32.325 30.8681 32.3176 30.8704 32.3081 30.8721C32.3032 30.8728 32.2911 30.874 32.2838 30.8742C32.2722 30.8738 32.2411 30.868 32.2221 30.8607C32.1906 30.8415 32.1363 30.7697 32.1217 30.7175C32.1199 30.6755 32.1335 30.6119 32.1431 30.5909C32.1581 30.5624 32.1768 30.5452 32.1793 30.5429C32.1794 30.5428 32.1792 30.5429 32.1793 30.5429C32.1929 30.53 32.2084 30.5202 32.2103 30.519C32.2214 30.5119 32.2376 30.5022 32.2559 30.4916C32.294 30.4694 32.3524 30.4364 32.4277 30.3943C32.5787 30.31 32.8006 30.1877 33.0698 30.04C33.6084 29.7447 34.3376 29.3475 35.0704 28.9492C35.8032 28.5509 36.5398 28.1514 37.0931 27.8514L38.0164 27.3513C38.0165 27.3513 38.0167 27.3511 38.0866 27.5199L38.0164 27.3513C38.0581 27.3287 38.1065 27.3272 38.1491 27.3474Z" fill="white"/>
<path fill-rule="evenodd" clip-rule="evenodd" d="M32.3276 30.5064C32.4146 30.5337 32.4658 30.6364 32.4419 30.7358L31.6428 34.0679C31.6189 34.1673 31.5291 34.2258 31.4422 34.1986C31.3552 34.1713 31.304 34.0686 31.3279 33.9692L32.127 30.6371C32.1508 30.5377 32.2407 30.4792 32.3276 30.5064Z" fill="white"/>
<path fill-rule="evenodd" clip-rule="evenodd" d="M42.5243 28.3903C42.6058 28.4345 42.6406 28.5458 42.602 28.6389L40.2922 34.2135C40.2536 34.3067 40.1562 34.3464 40.0747 34.3023C39.9932 34.2582 39.9585 34.1468 39.9971 34.0537L42.3069 28.4791C42.3455 28.3859 42.4428 28.3462 42.5243 28.3903Z" fill="white"/>
<path d="M40.6482 34.3366C40.5497 34.6533 40.2431 34.8307 39.9695 34.7167C39.6958 34.6026 39.5425 34.2479 39.6411 33.9311C39.7396 33.6144 40.0461 33.437 40.3198 33.5511C40.6044 33.6651 40.7467 34.0198 40.6482 34.3366Z" fill="white"/>
<path d="M38.6118 27.6456C38.5133 27.9624 38.2068 28.1398 37.9331 28.0257C37.6594 27.9117 37.5062 27.557 37.6047 27.2402C37.7032 26.9235 38.0097 26.7461 38.2834 26.8601C38.568 26.9742 38.7103 27.3289 38.6118 27.6456Z" fill="white"/>
<path d="M42.9578 28.7611C42.8592 29.0779 42.5527 29.2552 42.279 29.1412C42.0054 29.0272 41.8521 28.6724 41.9506 28.3557C42.0492 28.039 42.3557 27.8616 42.6293 27.9756C42.903 28.0896 43.0563 28.4444 42.9578 28.7611Z" fill="white"/>
<path d="M42.8705 22.1478C42.7719 22.4646 42.4654 22.642 42.1918 22.5279C41.9181 22.4139 41.7648 22.0592 41.8634 21.7424C41.9619 21.4257 42.2684 21.2483 42.5421 21.3623C42.8267 21.4764 42.969 21.8184 42.8705 22.1478Z" fill="white"/>
<path d="M40.243 20.0448C40.1445 20.3616 39.838 20.5389 39.5643 20.4249C39.2906 20.3109 39.1374 19.9561 39.2359 19.6394C39.3344 19.3227 39.6409 19.1453 39.9146 19.2593C40.1992 19.3733 40.3416 19.7154 40.243 20.0448Z" fill="white"/>
<path d="M36.937 17.2577C36.8385 17.5744 36.532 17.7518 36.2583 17.6378C35.9846 17.5238 35.8314 17.169 35.9299 16.8523C36.0284 16.5355 36.3349 16.3582 36.6086 16.4722C36.8823 16.5862 37.0246 16.941 36.937 17.2577Z" fill="white"/>
<path d="M33.1601 14.1535C33.0616 14.4702 32.7551 14.6476 32.4814 14.5335C32.2078 14.4195 32.0545 14.0648 32.153 13.748C32.2516 13.4313 32.5581 13.2539 32.8317 13.368C33.1054 13.482 33.2477 13.8241 33.1601 14.1535Z" fill="white"/>
<path d="M36.7727 14.3053C36.6742 14.6221 36.3677 14.7994 36.094 14.6854C35.8203 14.5714 35.6671 14.2166 35.7656 13.8999C35.8641 13.5832 36.1706 13.4058 36.4443 13.5198C36.7289 13.6338 36.8712 13.9886 36.7727 14.3053Z" fill="white"/>
<path d="M40.243 15.4071C40.1445 15.7239 39.838 15.9012 39.5643 15.7872C39.2906 15.6732 39.1374 15.3184 39.2359 15.0017C39.3344 14.685 39.6409 14.5076 39.9146 14.6216C40.1992 14.7356 40.3416 15.0904 40.243 15.4071Z" fill="white"/>
<path d="M42.4545 17.9154C42.3559 18.2322 42.0494 18.4095 41.7757 18.2955C41.5021 18.1815 41.3488 17.8267 41.4473 17.51C41.5459 17.1933 41.8524 17.0159 42.1261 17.1299C42.4107 17.2439 42.553 17.5987 42.4545 17.9154Z" fill="white"/>
<path d="M29.8216 41.3419C29.7231 41.6587 29.4166 41.836 29.1429 41.722C28.8693 41.608 28.716 41.2532 28.8145 40.9365C28.9131 40.6198 29.2196 40.4424 29.4932 40.5564C29.7669 40.6705 29.9202 41.0252 29.8216 41.3419Z" fill="white"/>
<path fill-rule="evenodd" clip-rule="evenodd" d="M28.4091 20.7668C28.4395 20.6698 28.533 20.6193 28.6178 20.6541L31.4312 21.807C31.4978 21.8343 31.5414 21.9075 31.5393 21.9883C31.5372 22.0691 31.4898 22.1392 31.4219 22.1619L27.6671 23.4162C27.5806 23.4451 27.4899 23.3883 27.4646 23.2893C27.4393 23.1904 27.489 23.0867 27.5755 23.0578L30.8481 21.9646L28.5077 21.0055C28.4228 20.9707 28.3786 20.8639 28.4091 20.7668Z" fill="white"/>
<path fill-rule="evenodd" clip-rule="evenodd" d="M29.7349 16.9763C29.7358 16.8732 29.8096 16.7905 29.8998 16.7915L36.4351 16.8675C36.5021 16.8683 36.5618 16.9158 36.5859 16.9873C36.6099 17.0587 36.5933 17.1397 36.544 17.1916L32.3326 21.6205L39.7013 19.5966C39.7566 19.5814 39.8148 19.6002 39.8549 19.6462C39.8951 19.6922 39.9115 19.7588 39.8981 19.822L38.278 27.487C38.2568 27.5872 38.1686 27.6488 38.0809 27.6246C37.9933 27.6004 37.9394 27.4995 37.9606 27.3993L39.518 20.0309L31.7972 22.1514C31.7249 22.1713 31.65 22.1328 31.615 22.0577C31.58 21.9827 31.5938 21.8901 31.6486 21.8326L36.0193 17.236L29.8965 17.1648C29.8063 17.1638 29.734 17.0794 29.7349 16.9763Z" fill="white"/>
<path fill-rule="evenodd" clip-rule="evenodd" d="M27.4371 24.4207C27.4984 24.431 27.5494 24.4801 27.5686 24.5475L29.1425 30.0712L31.0332 25.7757C31.0738 25.6836 31.1719 25.6466 31.2525 25.6929C31.333 25.7393 31.3654 25.8515 31.3249 25.9436L29.3026 30.538L31.614 33.9035C31.6697 33.9846 31.6573 34.1019 31.5864 34.1656C31.5155 34.2293 31.4129 34.2152 31.3572 34.1341L29.1321 30.8943L27.5882 34.0095C27.5634 34.0595 27.5198 34.0937 27.47 34.1021C27.4202 34.1105 27.3698 34.0922 27.3334 34.0524L24.3996 30.847C24.352 30.795 24.3364 30.7154 24.36 30.6451C24.3836 30.5748 24.4418 30.5276 24.5077 30.5255L28.5069 30.3932L25.189 28.3037C25.1485 28.2782 25.1193 28.2342 25.1088 28.1828C25.0982 28.1313 25.1072 28.0771 25.1336 28.0337L27.2792 24.4989C27.3146 24.4407 27.3757 24.4104 27.4371 24.4207ZM28.8252 30.7562L24.9077 30.8857L27.4074 33.6169L28.8252 30.7562ZM29.2511 30.6542C29.2531 30.6502 29.2551 30.646 29.2569 30.6418L29.2511 30.6542ZM28.8268 30.1685L27.36 25.0207L25.5051 28.0765L28.8268 30.1685Z" fill="white"/>
<path fill-rule="evenodd" clip-rule="evenodd" d="M28.9469 30.5537C28.95 30.4507 29.0256 30.3701 29.1157 30.3737L32.2904 30.5003C32.3805 30.5039 32.451 30.5904 32.4478 30.6934C32.4447 30.7964 32.3691 30.8771 32.279 30.8735L29.1043 30.7468C29.0142 30.7432 28.9437 30.6567 28.9469 30.5537Z" fill="white"/>
<path fill-rule="evenodd" clip-rule="evenodd" d="M31.3984 33.8609C31.4747 33.8061 31.5755 33.8323 31.6235 33.9196L35.0937 40.229C35.1417 40.3163 35.1187 40.4315 35.0424 40.4864C34.9661 40.5413 34.8653 40.515 34.8173 40.4277L31.3471 34.1183C31.2991 34.0311 31.3221 33.9158 31.3984 33.8609Z" fill="white"/>
<path d="M35.4812 40.4547C35.3827 40.7715 35.0762 40.9488 34.8025 40.8348C34.5288 40.7208 34.3756 40.366 34.4741 40.0493C34.5726 39.7326 34.8791 39.5552 35.1528 39.6692C35.4374 39.7832 35.5797 40.138 35.4812 40.4547Z" fill="white"/>
<path d="M31.9891 22.1478C31.8906 22.4646 31.5841 22.642 31.3104 22.5279C31.0367 22.4139 30.8835 22.0592 30.982 21.7424C31.0805 21.4257 31.387 21.2483 31.6607 21.3623C31.9344 21.4764 32.0876 21.8184 31.9891 22.1478Z" fill="white"/>
<path d="M30.4018 17.1815C30.3033 17.4983 29.9968 17.6756 29.7231 17.5616C29.4495 17.4476 29.2962 17.0928 29.3947 16.7761C29.4933 16.4594 29.7998 16.282 30.0734 16.396C30.3471 16.5101 30.5004 16.8648 30.4018 17.1815Z" fill="white"/>
<path d="M31.9891 34.2218C31.8906 34.5386 31.5841 34.7159 31.3104 34.6019C31.0367 34.4879 30.8835 34.1331 30.982 33.8164C31.0805 33.4997 31.387 33.3223 31.6607 33.4363C31.9344 33.5503 32.0876 33.9051 31.9891 34.2218Z" fill="white"/>
<path d="M32.7881 30.8898C32.6896 31.2065 32.383 31.3839 32.1094 31.2699C31.8357 31.1558 31.6824 30.8011 31.781 30.4844C31.8795 30.1676 32.186 29.9903 32.4597 30.1043C32.7443 30.2183 32.8866 30.5731 32.7881 30.8898Z" fill="white"/>
<path d="M31.6824 26.0753C31.5838 26.3921 31.2773 26.5694 31.0037 26.4554C30.73 26.3414 30.5767 25.9866 30.6752 25.6699C30.7738 25.3532 31.0803 25.1758 31.354 25.2898C31.6276 25.4039 31.7809 25.7459 31.6824 26.0753Z" fill="white"/>
<path fill-rule="evenodd" clip-rule="evenodd" d="M31.1376 25.68C31.2248 25.6538 31.314 25.7135 31.3369 25.8133L32.4425 30.6403C32.4498 30.672 32.4496 30.7054 32.442 30.737L31.6429 34.0691C31.6191 34.1685 31.5292 34.227 31.4423 34.1997C31.3553 34.1725 31.3041 34.0698 31.328 33.9703L32.1155 30.6865L31.021 25.9078C30.9981 25.8081 31.0503 25.7061 31.1376 25.68Z" fill="white"/>
<path fill-rule="evenodd" clip-rule="evenodd" d="M31.1376 25.68C31.2248 25.6538 31.314 25.7135 31.3369 25.8133L32.4425 30.6403C32.4498 30.672 32.4496 30.7054 32.442 30.737L31.6429 34.0691C31.6191 34.1685 31.5292 34.227 31.4423 34.1997C31.3553 34.1725 31.3041 34.0698 31.328 33.9703L32.1155 30.6865L31.021 25.9078C30.9981 25.8081 31.0503 25.7061 31.1376 25.68Z" fill="white"/>
<path fill-rule="evenodd" clip-rule="evenodd" d="M32.7745 13.8213C32.837 13.8957 32.8349 14.0138 32.7698 14.0852L30.0112 17.1133C29.9462 17.1846 29.8428 17.1822 29.7804 17.1079C29.7179 17.0335 29.72 16.9153 29.7851 16.8439L32.5437 13.8159C32.6087 13.7445 32.7121 13.7469 32.7745 13.8213Z" fill="white"/>
<path fill-rule="evenodd" clip-rule="evenodd" d="M35.1502 40.2268C35.1624 40.329 35.0999 40.4231 35.0106 40.4371L29.3401 41.3239C29.2507 41.3379 29.1684 41.2664 29.1562 41.1643C29.144 41.0621 29.2065 40.968 29.2958 40.954L34.9663 40.0672C35.0557 40.0532 35.138 40.1247 35.1502 40.2268Z" fill="white"/>
<defs>
<linearGradient id="paint0_linear_210_3825" x1="15.9207" y1="17.0048" x2="40.1995" y2="30.8943" gradientUnits="userSpaceOnUse">
<stop offset="0.2577" stop-color="white"/>
<stop offset="0.7491" stop-color="#747474"/>
</linearGradient>
</defs>
</svg>
