<svg width="24" height="24" viewBox="0 0 24 24" fill="none" xmlns="http://www.w3.org/2000/svg">
<rect width="24" height="24" rx="4" fill="#1B1B1B"/>
<path d="M2.69376 17.4321H3.09606L3.78982 19H3.45731L3.32595 18.7054H2.62808L2.75944 18.4061H3.19458L2.89491 17.7314L2.33251 19H2L2.69376 17.4321Z" fill="white"/>
<path d="M5.05017 17.4319H5.33342V18.7052H6.50749V18.9997H5.05017V17.4319Z" fill="white"/>
<path d="M7.32422 17.4319H7.65263L8.21502 18.7052L8.77742 17.4319H9.10994L8.41617 18.9997H8.01388L7.32422 17.4319Z" fill="white"/>
<path d="M10.6536 17.4319H10.3704V18.9997H10.6536V17.4319Z" fill="white"/>
<path d="M12.0165 18.9284C11.9631 18.8809 11.9344 18.8097 11.9303 18.7146V18.5341H12.2135V18.5769C12.2177 18.6244 12.2259 18.6529 12.2423 18.6719C12.2546 18.6861 12.2792 18.6956 12.308 18.7004H13.1003C13.1249 18.7004 13.1454 18.6956 13.1577 18.6909C13.17 18.6861 13.1824 18.6719 13.1906 18.6529C13.1988 18.6339 13.2029 18.6006 13.2029 18.5531V18.5009C13.2029 18.4581 13.1988 18.4248 13.1906 18.4011C13.1824 18.3821 13.1741 18.3678 13.1577 18.3631C13.1454 18.3583 13.1249 18.3536 13.1003 18.3536H12.2135C12.1643 18.3536 12.1191 18.3393 12.0781 18.3156C12.037 18.2918 12.0001 18.2538 11.9755 18.2063C11.9508 18.1588 11.9344 18.1018 11.9344 18.04V17.7359C11.9344 17.6694 11.9508 17.6172 11.9755 17.5696C12.0001 17.5221 12.037 17.4841 12.0781 17.4604C12.1191 17.4366 12.1643 17.4224 12.2135 17.4224H13.2029C13.2768 17.4224 13.3425 17.4461 13.3958 17.4889C13.4492 17.5316 13.4738 17.6077 13.4738 17.7169V17.888H13.2029V17.8737C13.2029 17.8262 13.1988 17.7929 13.1906 17.7692C13.1824 17.7454 13.1741 17.7312 13.1618 17.7264C13.1495 17.7217 13.129 17.7169 13.1003 17.7169H12.308C12.2669 17.7217 12.2423 17.7359 12.2341 17.7644C12.2218 17.7929 12.2177 17.831 12.2177 17.8832C12.2177 17.9355 12.2218 17.9782 12.2341 18.002C12.2423 18.0305 12.2669 18.0447 12.3039 18.0495H13.2029C13.2768 18.0495 13.3425 18.0733 13.3958 18.116C13.4492 18.1588 13.4738 18.2348 13.4738 18.3441V18.6861C13.4738 18.7954 13.4492 18.8714 13.3958 18.9142C13.3425 18.957 13.2809 18.9807 13.2029 18.9807H12.2177C12.1397 18.9997 12.074 18.976 12.0165 18.9284Z" fill="white"/>
<path d="M14.8367 18.9285C14.7833 18.881 14.7546 18.8097 14.7505 18.7147V17.4319H15.0337V18.5816C15.0378 18.6292 15.0461 18.6577 15.0584 18.6767C15.0707 18.6909 15.0953 18.7004 15.1241 18.7052H15.9163C15.941 18.7052 15.9615 18.7005 15.9738 18.6957C15.9861 18.691 15.9984 18.6767 16.0066 18.6577C16.0149 18.6387 16.019 18.6054 16.019 18.5579V17.4319H16.2899V18.7052C16.2899 18.8144 16.2653 18.8905 16.2119 18.9333C16.1585 18.976 16.097 18.9997 16.019 18.9997H15.0337C14.9557 18.9997 14.8901 18.976 14.8367 18.9285Z" fill="white"/>
<path d="M18.1864 17.4319H18.5846L19.2784 18.9997H18.95L18.8186 18.7052H18.1167L18.248 18.4059H18.6832L18.3835 17.7312L17.8211 18.9997H17.4927L18.1864 17.4319Z" fill="white"/>
<path d="M20.5386 17.4319H20.8218V18.7052H22V18.9997H20.5386V17.4319Z" fill="white"/>
<path d="M11.8071 12.757L12.1068 11.5075L11.6922 9.6973L11.7661 8.23873L11.2119 6.36681L12.2464 5.23131C12.115 5.18855 11.9139 5.16479 11.6676 5.16479C10.4566 5.16479 8.1577 5.73492 7.73488 7.222C7.37773 8.48578 7.60351 8.71383 7.42699 8.95138C7.25458 9.18894 6.53619 9.93485 6.53208 10.1344C6.51977 10.5667 7.02059 10.3244 7.05343 10.6618C7.07806 10.9088 6.90565 10.9278 6.95491 11.0846C6.97543 11.1511 7.18479 11.2651 7.17658 11.2889C7.16837 11.3127 6.92207 11.4457 6.95491 11.631C6.99185 11.8163 7.04522 11.7925 7.04522 11.9588C7.04522 12.3009 6.7866 12.7855 6.93849 13.0278C7.21763 13.4649 7.87856 13.3936 8.46969 13.3176C8.8802 13.2653 9.25376 13.2131 9.43849 13.3319C11.4623 14.6527 9.77101 15.2703 10.8178 15.4223L13.1043 15.1183L11.8071 12.757Z" fill="url(#paint0_linear_210_3767)"/>
<path fill-rule="evenodd" clip-rule="evenodd" d="M10.9119 5.49112C10.9314 5.4956 10.9478 5.51065 10.9558 5.53147L11.2678 6.33915C11.2752 6.35818 11.2748 6.37997 11.2666 6.3986C11.2585 6.41723 11.2436 6.43077 11.2259 6.43555L9.81785 6.81564C9.79091 6.82291 9.76306 6.80862 9.74991 6.78078C9.73676 6.75294 9.74158 6.71847 9.76166 6.69671L10.8577 5.50894C10.8722 5.49328 10.8924 5.48664 10.9119 5.49112ZM10.0107 6.61973L11.1261 6.31865L10.8789 5.67886L10.0107 6.61973Z" fill="white"/>
<path fill-rule="evenodd" clip-rule="evenodd" d="M11.1922 6.30057C11.2242 6.28821 11.2589 6.30787 11.2698 6.3445L11.8239 8.22117C11.8348 8.2578 11.8176 8.29752 11.7855 8.30988C11.7535 8.32225 11.7188 8.30258 11.7079 8.26595L11.1537 6.38929C11.1429 6.35266 11.1601 6.31294 11.1922 6.30057Z" fill="white"/>
<path fill-rule="evenodd" clip-rule="evenodd" d="M12.2488 5.16168L12.4553 5.17125C12.5795 5.17697 12.7454 5.18454 12.9127 5.19196C13.0799 5.19939 13.2484 5.20666 13.3776 5.21177C13.4422 5.21433 13.4968 5.21635 13.5366 5.21757C13.5564 5.21819 13.5724 5.2186 13.5839 5.21878C13.591 5.2189 13.5952 5.21889 13.5974 5.21889C13.5995 5.21889 13.5998 5.21889 13.5989 5.21899C13.634 5.21494 13.6536 5.24269 13.6585 5.25036C13.6649 5.26052 13.6684 5.27103 13.6703 5.27722C13.6745 5.29075 13.6775 5.30709 13.6799 5.32301C13.6848 5.35599 13.6891 5.40145 13.693 5.45367C13.7008 5.55877 13.7073 5.6985 13.7124 5.83739C13.7176 5.97651 13.7214 6.11569 13.724 6.22002C13.7253 6.27221 13.7263 6.31571 13.7269 6.34618L13.7276 6.38157L13.7279 6.39394C13.7283 6.42044 13.7157 6.4452 13.6952 6.45756C13.6747 6.46992 13.6498 6.46797 13.631 6.45253L12.2106 5.28852C12.1886 5.27049 12.1796 5.2381 12.1884 5.20884C12.1972 5.17959 12.2218 5.16041 12.2488 5.16168ZM13.6024 6.25685C13.6021 6.24633 13.6019 6.23536 13.6016 6.22397C13.599 6.12 13.5952 5.98153 13.5901 5.84331C13.585 5.70486 13.5786 5.56755 13.571 5.46553C13.5677 5.42112 13.5643 5.38474 13.5608 5.35831C13.5526 5.3581 13.5434 5.35784 13.5333 5.35752C13.4931 5.35628 13.438 5.35425 13.3733 5.35169C13.2439 5.34656 13.0752 5.33928 12.9079 5.33186C12.7406 5.32443 12.5746 5.31686 12.4504 5.31114L12.4483 5.31105L13.6024 6.25685ZM13.5547 5.32335C13.5547 5.3233 13.5547 5.32339 13.5547 5.32335Z" fill="white"/>
<path fill-rule="evenodd" clip-rule="evenodd" d="M13.5462 5.26949C13.5553 5.23225 13.589 5.21047 13.6216 5.22085L14.9185 5.6341C14.9198 5.63449 14.921 5.63492 14.9222 5.63539C14.9317 5.63909 14.9399 5.64525 14.9465 5.65306L15.775 6.60239C15.7933 6.6234 15.7981 6.65535 15.7868 6.68211C15.7756 6.70887 15.7508 6.72463 15.725 6.72143L13.6561 6.46487C13.629 6.46151 13.6071 6.43806 13.6024 6.40736C13.5976 6.37666 13.6113 6.3461 13.6357 6.3324L14.7309 5.71964L13.5887 5.35571C13.5562 5.34533 13.5371 5.30673 13.5462 5.26949ZM14.89 5.7865L13.8797 6.35178L15.5657 6.56085L14.89 5.7865Z" fill="white"/>
<path fill-rule="evenodd" clip-rule="evenodd" d="M9.78528 6.68029C9.80736 6.67227 9.8315 6.67918 9.84767 6.69815L10.7549 7.76238C10.7725 7.78297 10.7772 7.81375 10.7669 7.83997C10.7566 7.86619 10.7333 7.88253 10.7081 7.88116L9.66134 7.82415C9.64396 7.8232 9.62775 7.81384 9.61676 7.79841C9.60578 7.78298 9.60106 7.76293 9.60378 7.74327L9.74336 6.73605C9.74698 6.70989 9.76321 6.68831 9.78528 6.68029ZM9.84519 6.89582L9.73541 7.68802L10.5587 7.73286L9.84519 6.89582Z" fill="white"/>
<path fill-rule="evenodd" clip-rule="evenodd" d="M11.2343 6.30182C11.2657 6.31607 11.2811 6.35675 11.2686 6.39269L10.7678 7.83701C10.7554 7.87295 10.7198 7.89053 10.6883 7.87629C10.6569 7.86204 10.6415 7.82135 10.654 7.78541L11.1548 6.3411C11.1673 6.30516 11.2029 6.28757 11.2343 6.30182Z" fill="white"/>
<path fill-rule="evenodd" clip-rule="evenodd" d="M9.67233 7.68497C9.70584 7.69016 9.72932 7.72543 9.72478 7.76374L9.68056 8.13654L10.6954 7.74502C10.7185 7.73611 10.744 7.74371 10.7604 7.76437C10.7768 7.78503 10.7808 7.81481 10.7708 7.8402L10.4142 8.74158C10.4097 8.75345 10.4026 8.76344 10.3938 8.77074C10.3926 8.77168 10.3915 8.77258 10.3903 8.77342C10.3778 8.78233 10.3625 8.78615 10.347 8.78293C10.3468 8.7829 10.3467 8.78287 10.3466 8.78285L10.318 8.77676C10.2998 8.77289 10.2738 8.76737 10.2424 8.76077C10.1796 8.74757 10.0956 8.73008 10.0106 8.7129C9.92551 8.6957 9.83977 8.67887 9.7734 8.66695C9.74013 8.66097 9.71227 8.65633 9.69197 8.65349C9.68174 8.65205 9.67415 8.65118 9.66907 8.65078L9.66696 8.65065C9.64187 8.65438 9.62242 8.64076 9.61219 8.62983C9.60206 8.61901 9.5962 8.60657 9.59307 8.5991C9.58639 8.58316 9.5817 8.56396 9.57818 8.54673C9.57085 8.51078 9.56489 8.464 9.56022 8.41952C9.55548 8.37443 9.55182 8.32928 9.54935 8.29556C9.54811 8.27866 9.54716 8.26454 9.54652 8.25462L9.54627 8.25066C9.54559 8.24604 9.5453 8.24131 9.54545 8.23656C9.54523 8.22936 9.54599 8.22227 9.54763 8.21552L9.60344 7.74493C9.60798 7.70662 9.63883 7.67977 9.67233 7.68497ZM9.67757 8.35969C9.67886 8.37384 9.68027 8.38836 9.68179 8.40282C9.68626 8.44535 9.69147 8.48512 9.69709 8.51321C9.70024 8.51361 9.7035 8.51405 9.70686 8.51452C9.72922 8.51766 9.7587 8.52259 9.7924 8.52864C9.85333 8.53958 9.9298 8.5545 10.0068 8.56997L9.67757 8.35969ZM9.76164 8.25302L10.3296 8.61577L10.6012 7.92912L9.76164 8.25302ZM9.66523 8.65056C9.66517 8.65056 9.66527 8.65056 9.66523 8.65056Z" fill="white"/>
<path fill-rule="evenodd" clip-rule="evenodd" d="M11.7397 8.18061C11.7599 8.16964 11.7837 8.17211 11.8018 8.18706L14.3182 10.2633C14.3417 10.2826 14.3501 10.3181 14.3384 10.3483C14.3267 10.3786 14.2981 10.3953 14.2698 10.3885L11.6795 9.76615C11.6498 9.75903 11.6292 9.72818 11.631 9.69359L11.7049 8.23977C11.7062 8.21426 11.7195 8.19158 11.7397 8.18061ZM11.8206 8.37524L11.7563 9.64154L14.0125 10.1837L11.8206 8.37524Z" fill="white"/>
<path fill-rule="evenodd" clip-rule="evenodd" d="M13.6129 6.35451C13.6327 6.32315 13.6709 6.31605 13.6984 6.33866L15.8111 8.08011L15.6707 6.65987C15.6669 6.62145 15.691 6.58679 15.7246 6.58245C15.7582 6.5781 15.7886 6.60572 15.7924 6.64414L15.9483 8.22147C15.9483 8.22148 15.9483 8.22148 15.9483 8.22149C15.9484 8.22251 15.9485 8.22353 15.9486 8.22456M15.797 8.24108L13.6267 6.45223C13.5993 6.42962 13.5931 6.38587 13.6129 6.35451M15.797 8.24108L14.2364 10.2736C14.222 10.2924 14.2174 10.3184 14.2244 10.342C14.2313 10.3656 14.2486 10.3833 14.2699 10.3884L15.9079 10.7779C15.9261 10.7823 15.945 10.7769 15.9593 10.7634C15.9737 10.7498 15.9818 10.7296 15.9816 10.7083L15.9487 8.22844M15.8287 8.41206L15.858 10.6231L14.3977 10.2757L15.8287 8.41206Z" fill="white"/>
<path fill-rule="evenodd" clip-rule="evenodd" d="M9.5402 9.0035C9.56125 9.01578 9.57424 9.04083 9.57357 9.06784L9.53663 10.5549C9.53604 10.5784 9.52522 10.5999 9.5078 10.6123C9.49039 10.6247 9.46869 10.6264 9.45002 10.6166L8.41143 10.075C8.39189 10.0648 8.37845 10.0437 8.37601 10.0193C8.37357 9.99486 8.38249 9.97079 8.39952 9.95582L9.47505 9.01036C9.49379 8.99388 9.51915 8.99122 9.5402 9.0035ZM8.55482 9.9959L9.41685 10.4454L9.44751 9.21116L8.55482 9.9959Z" fill="white"/>
<path fill-rule="evenodd" clip-rule="evenodd" d="M8.39638 9.95862C8.42176 9.93308 8.46045 9.93589 8.48279 9.96491L8.9953 10.6305L9.45926 10.4853C9.48107 10.4784 9.5044 10.4859 9.51993 10.5047C9.53546 10.5235 9.54066 10.5506 9.53347 10.5751L9.25063 11.5381C9.24846 11.5461 9.24504 11.5536 9.24033 11.5605C9.23857 11.563 9.23667 11.5654 9.23463 11.5677C9.22549 11.5778 9.21424 11.584 9.2025 11.5862C9.19888 11.587 9.19517 11.5873 9.1914 11.5872C9.1763 11.587 9.16225 11.5805 9.1515 11.5696C9.15101 11.5691 9.15052 11.5686 9.15004 11.568L9.14978 11.5678C9.14244 11.5597 9.1368 11.5495 9.13366 11.5378L9.06496 11.2828L9.16468 11.391L9.19469 11.2888L9.25033 11.4953M9.05171 10.758L9.19469 11.2888L9.38083 10.655L9.49159 10.6203L9.47543 10.5528L9.41739 10.5305L9.38083 10.655L9.05171 10.758ZM9.00867 10.7715L9.05171 10.758L9.03312 10.689C9.0305 10.6792 9.02612 10.6705 9.02041 10.6631M9.00867 10.7715L8.94855 10.8507L8.91996 10.7445L8.89328 10.7099L8.69027 10.9772C8.66879 11.0055 8.6706 11.0481 8.69438 11.0739L9.14978 11.5678C9.15034 11.5684 9.15091 11.569 9.1515 11.5696M8.89328 10.7099L8.39088 10.0574C8.36854 10.0284 8.371 9.98417 8.39638 9.95862M8.82115 11.0184L9.06496 11.2828L8.94855 10.8507L8.82115 11.0184ZM8.82115 11.0184L8.77864 10.9723L8.73651 11.0231L8.78274 11.069L8.82115 11.0184Z" fill="white"/>
<path fill-rule="evenodd" clip-rule="evenodd" d="M8.74263 10.9532C8.77627 10.9572 8.80076 10.9915 8.79733 11.03L8.7522 11.5362L9.18126 11.4481C9.20539 11.4431 9.22978 11.4551 9.24325 11.4785C9.25671 11.502 9.25666 11.5323 9.24311 11.5557L8.83261 12.2636C8.81883 12.2873 8.79382 12.2992 8.76939 12.2935C8.74495 12.2878 8.72597 12.2658 8.72139 12.2377L8.62313 11.636C8.62194 11.6295 8.62154 11.6227 8.62203 11.6158M8.62216 11.6143L8.67551 11.0158C8.67894 10.9773 8.70899 10.9493 8.74263 10.9532M8.75455 11.678L8.81404 12.0423L9.06188 11.6149L8.75455 11.678Z" fill="white"/>
<path fill-rule="evenodd" clip-rule="evenodd" d="M8.77469 12.1555C8.80079 12.1521 8.82587 12.1681 8.83704 12.1953L9.23113 13.155C9.24164 13.1806 9.23765 13.2109 9.221 13.2318C9.20436 13.2528 9.17835 13.2602 9.15506 13.2506L8.6214 13.0321C8.59249 13.0203 8.57573 12.9858 8.58219 12.9515L8.72176 12.2103C8.72729 12.1809 8.74859 12.1589 8.77469 12.1555ZM8.80329 12.4425L8.71319 12.921L9.05769 13.0621L8.80329 12.4425Z" fill="white"/>
<path fill-rule="evenodd" clip-rule="evenodd" d="M8.72271 12.2058C8.73201 12.1686 8.76591 12.1471 8.79842 12.1577L10.3079 12.6515C10.3163 12.654 10.3242 12.6586 10.3309 12.6649C10.3397 12.673 10.3465 12.684 10.3503 12.6969C10.351 12.6992 10.3516 12.7016 10.352 12.7041L10.4792 13.3305C10.4836 13.3526 10.4785 13.3759 10.4652 13.3929C10.452 13.4098 10.4324 13.4184 10.4126 13.4158L9.16876 13.2543C9.14053 13.2506 9.11822 13.2253 9.11487 13.193C9.11152 13.1608 9.128 13.1301 9.15469 13.119L10.0943 12.7272L8.76474 12.2923C8.73223 12.2817 8.71341 12.243 8.72271 12.2058ZM10.2482 12.812L9.44075 13.1487L10.3403 13.2656L10.2482 12.812Z" fill="white"/>
<path fill-rule="evenodd" clip-rule="evenodd" d="M10.2448 12.6753C10.2567 12.6585 10.2747 12.649 10.2936 12.6494L11.8084 12.6874C11.8093 12.6875 11.8102 12.6875 11.8111 12.6876C11.8254 12.6886 11.8393 12.6955 11.8499 12.7074C11.8614 12.7202 11.8677 12.7374 11.8683 12.7551C11.8683 12.7563 11.8683 12.7576 11.8683 12.759C11.8683 12.7606 11.8682 12.7623 11.868 12.7639C11.8676 12.7695 11.8666 12.775 11.8649 12.7804L11.8644 12.782C11.858 12.8015 11.8443 12.8168 11.8271 12.8236L11.7065 12.8748L11.7216 12.8253L11.4853 12.8194L10.4635 13.2532L10.3698 12.7914L11.4853 12.8194M10.3614 13.3684L10.9359 15.4486C10.9438 15.4774 10.967 15.4971 10.9934 15.4975C11.0198 15.4979 11.0434 15.479 11.0521 15.4505L11.8644 12.782C11.8663 12.7763 11.8675 12.7702 11.868 12.7639C11.8683 12.7609 11.8684 12.758 11.8683 12.7551C11.8672 12.7192 11.8425 12.6899 11.8111 12.6876M10.3605 13.3649C10.3608 13.3661 10.3611 13.3672 10.3614 13.3684ZM10.3598 13.3617C10.36 13.3628 10.3602 13.3638 10.3605 13.3649ZM10.3598 13.3617L10.2327 12.7352C10.2284 12.7142 10.2329 12.692 10.2448 12.6753M10.4955 13.389L11.7065 12.8748L10.9971 15.2053L10.4955 13.389ZM10.9971 15.2053L10.9365 15.4045L10.9943 15.4275L11.0527 15.4064L10.9971 15.2053Z" fill="white"/>
<path fill-rule="evenodd" clip-rule="evenodd" d="M9.68023 8.51515C9.71216 8.52788 9.72902 8.56779 9.71789 8.6043L9.61256 8.94969L10.337 8.64849C10.3575 8.63996 10.3805 8.64457 10.3972 8.66061C10.414 8.67664 10.422 8.70166 10.4183 8.72626L10.3403 9.23938C10.3375 9.25779 10.3283 9.27416 10.3149 9.28484C10.3015 9.29552 10.2849 9.29962 10.2689 9.29624L9.5023 9.13493C9.49998 9.13449 9.49766 9.13389 9.49536 9.13313C9.48066 9.1283 9.46835 9.11745 9.46047 9.10314C9.45205 9.08782 9.44887 9.06891 9.45259 9.05033C9.45314 9.04754 9.45385 9.04479 9.45469 9.04211L9.60226 8.5582C9.6134 8.5217 9.6483 8.50242 9.68023 8.51515ZM9.74491 9.04363L10.2302 9.14575L10.2795 8.82137L9.74491 9.04363Z" fill="white"/>
<path fill-rule="evenodd" clip-rule="evenodd" d="M10.3065 8.67588C10.3249 8.64338 10.3627 8.63403 10.3912 8.65498L11.7253 9.63844C11.7509 9.65728 11.7605 9.69471 11.7478 9.72633C11.7352 9.75796 11.7042 9.77421 11.675 9.76448L10.2629 9.29418C10.2304 9.28337 10.2118 9.24451 10.2212 9.20739C10.2307 9.17028 10.2646 9.14895 10.2971 9.15976L11.3056 9.49564L10.3248 8.77264C10.2964 8.75169 10.2882 8.70837 10.3065 8.67588Z" fill="white"/>
<path fill-rule="evenodd" clip-rule="evenodd" d="M12.0167 11.4683C12.0288 11.4322 12.0643 11.4142 12.0958 11.428L15.0761 12.7345C15.1038 12.7467 15.1199 12.7797 15.1143 12.813C15.1088 12.8463 15.0831 12.8703 15.0535 12.8699L11.8064 12.8271C11.7726 12.8267 11.7455 12.795 11.7459 12.7563C11.7462 12.7177 11.774 12.6867 11.8078 12.6871L14.7133 12.7254L12.052 11.5587C12.0204 11.5449 12.0046 11.5044 12.0167 11.4683Z" fill="white"/>
<path fill-rule="evenodd" clip-rule="evenodd" d="M14.306 10.2553C14.322 10.2629 14.3344 10.2779 14.3402 10.2965L15.112 12.7766C15.1197 12.8015 15.1145 12.8293 15.0985 12.8484L13.1527 15.1717C13.1293 15.1996 13.0905 15.2006 13.0661 15.1738C13.0417 15.1471 13.0409 15.1028 13.0642 15.0749L14.9839 12.7828L14.2475 10.4164L13.9624 10.5708C13.755 10.6833 13.4788 10.8331 13.204 10.9824C12.9292 11.1318 12.656 11.2807 12.4542 11.3913C12.3533 11.4466 12.2704 11.4923 12.2142 11.5237C12.186 11.5394 12.1649 11.5514 12.1516 11.5591C12.148 11.5612 12.1452 11.5629 12.1432 11.5641C12.1373 11.569 12.1306 11.5729 12.1231 11.5752C12.1219 11.5756 12.1192 11.5764 12.1156 11.5771C12.1137 11.5773 12.1092 11.5778 12.1065 11.5779C12.1022 11.5777 12.0905 11.5755 12.0834 11.5728C12.0715 11.5656 12.0512 11.5387 12.0457 11.5191C12.045 11.5034 12.0501 11.4795 12.0537 11.4716C12.0594 11.4609 12.0663 11.4545 12.0673 11.4536C12.0673 11.4536 12.0673 11.4536 12.0673 11.4536C12.0724 11.4488 12.0782 11.4451 12.0789 11.4447C12.0831 11.442 12.0892 11.4384 12.096 11.4344C12.1103 11.4261 12.1322 11.4137 12.1605 11.3979C12.2171 11.3663 12.3003 11.3204 12.4012 11.265C12.6032 11.1543 12.8766 11.0054 13.1514 10.856C13.4263 10.7066 13.7025 10.5568 13.91 10.4443L14.2562 10.2568C14.2562 10.2568 14.2563 10.2567 14.2825 10.32L14.2562 10.2568C14.2719 10.2483 14.29 10.2477 14.306 10.2553Z" fill="white"/>
<path fill-rule="evenodd" clip-rule="evenodd" d="M12.1228 11.44C12.1554 11.4502 12.1746 11.4887 12.1657 11.526L11.866 12.7756C11.8571 12.8128 11.8234 12.8348 11.7908 12.8246C11.7582 12.8143 11.739 12.7758 11.7479 12.7385L12.0476 11.489C12.0565 11.4517 12.0902 11.4298 12.1228 11.44Z" fill="white"/>
<path fill-rule="evenodd" clip-rule="evenodd" d="M15.9465 10.6464C15.9771 10.663 15.9901 10.7047 15.9757 10.7396L15.1095 12.8301C15.095 12.865 15.0585 12.8799 15.0279 12.8634C14.9974 12.8468 14.9844 12.8051 14.9988 12.7702L15.865 10.6797C15.8795 10.6448 15.916 10.6299 15.9465 10.6464Z" fill="white"/>
<path d="M15.243 12.8762C15.2061 12.995 15.0911 13.0615 14.9885 13.0187C14.8859 12.976 14.8284 12.8429 14.8654 12.7241C14.9023 12.6054 15.0173 12.5389 15.1199 12.5816C15.2266 12.6244 15.28 12.7574 15.243 12.8762Z" fill="white"/>
<path d="M14.4795 10.3671C14.4425 10.4859 14.3276 10.5524 14.225 10.5097C14.1223 10.4669 14.0649 10.3339 14.1018 10.2151C14.1388 10.0963 14.2537 10.0298 14.3563 10.0726C14.4631 10.1153 14.5164 10.2484 14.4795 10.3671Z" fill="white"/>
<path d="M16.1091 10.7854C16.0722 10.9041 15.9572 10.9707 15.8546 10.9279C15.752 10.8851 15.6945 10.7521 15.7315 10.6333C15.7684 10.5146 15.8833 10.448 15.986 10.4908C16.0886 10.5336 16.1461 10.6666 16.1091 10.7854Z" fill="white"/>
<path d="M16.0764 8.30563C16.0395 8.4244 15.9245 8.49092 15.8219 8.44816C15.7193 8.4054 15.6618 8.27237 15.6987 8.15359C15.7357 8.03481 15.8506 7.9683 15.9533 8.01106C16.06 8.05382 16.1134 8.1821 16.0764 8.30563Z" fill="white"/>
<path d="M15.0911 7.51681C15.0541 7.63558 14.9392 7.7021 14.8365 7.65934C14.7339 7.61658 14.6764 7.48355 14.7134 7.36477C14.7503 7.246 14.8653 7.17948 14.9679 7.22224C15.0746 7.265 15.128 7.39328 15.0911 7.51681Z" fill="white"/>
<path d="M13.8513 6.47164C13.8144 6.59042 13.6994 6.65693 13.5968 6.61417C13.4942 6.57141 13.4367 6.43838 13.4736 6.31961C13.5106 6.20083 13.6255 6.13432 13.7282 6.17707C13.8308 6.21983 13.8842 6.35286 13.8513 6.47164Z" fill="white"/>
<path d="M12.4351 5.30758C12.3981 5.42635 12.2832 5.49287 12.1805 5.45011C12.0779 5.40735 12.0204 5.27432 12.0574 5.15554C12.0943 5.03677 12.2093 4.97025 12.3119 5.01301C12.4145 5.05577 12.4679 5.18405 12.4351 5.30758Z" fill="white"/>
<path d="M13.7898 5.36446C13.7528 5.48324 13.6379 5.54975 13.5353 5.50699C13.4326 5.46424 13.3752 5.33121 13.4121 5.21243C13.4491 5.09365 13.564 5.02714 13.6666 5.0699C13.7734 5.11266 13.8267 5.24569 13.7898 5.36446Z" fill="white"/>
<path d="M15.0911 5.77779C15.0541 5.89657 14.9392 5.96308 14.8365 5.92032C14.7339 5.87757 14.6764 5.74454 14.7134 5.62576C14.7503 5.50698 14.8653 5.44047 14.9679 5.48323C15.0746 5.52599 15.128 5.65902 15.0911 5.77779Z" fill="white"/>
<path d="M15.9204 6.71822C15.8835 6.837 15.7685 6.90351 15.6659 6.86075C15.5633 6.818 15.5058 6.68497 15.5427 6.56619C15.5797 6.44741 15.6946 6.3809 15.7973 6.42366C15.904 6.46642 15.9574 6.59945 15.9204 6.71822Z" fill="white"/>
<path d="M11.1831 15.5031C11.1462 15.6219 11.0312 15.6884 10.9286 15.6457C10.826 15.6029 10.7685 15.4699 10.8054 15.3511C10.8424 15.2323 10.9573 15.1658 11.0599 15.2086C11.1626 15.2513 11.22 15.3844 11.1831 15.5031Z" fill="white"/>
<path fill-rule="evenodd" clip-rule="evenodd" d="M10.6534 7.78761C10.6648 7.75122 10.6999 7.73229 10.7317 7.74533L11.7867 8.17768C11.8117 8.18791 11.828 8.21536 11.8272 8.24567C11.8264 8.27598 11.8087 8.30226 11.7832 8.31077L10.3752 8.78112C10.3427 8.79196 10.3087 8.77067 10.2992 8.73356C10.2897 8.69645 10.3084 8.65758 10.3408 8.64674L11.568 8.23679L10.6904 7.87713C10.6585 7.86408 10.642 7.824 10.6534 7.78761Z" fill="white"/>
<path fill-rule="evenodd" clip-rule="evenodd" d="M11.1506 6.36616C11.151 6.32751 11.1787 6.29649 11.2125 6.29688L13.6632 6.32538C13.6883 6.32568 13.7107 6.34347 13.7198 6.37028C13.7288 6.39709 13.7225 6.42746 13.7041 6.4469L12.1248 8.10773L14.888 7.34879C14.9088 7.3431 14.9306 7.35015 14.9457 7.36739C14.9607 7.38464 14.9669 7.40961 14.9619 7.4333L14.3543 10.3077C14.3464 10.3453 14.3133 10.3684 14.2804 10.3593C14.2475 10.3502 14.2273 10.3124 14.2353 10.2748L14.8193 7.51165L11.924 8.30685C11.8969 8.3143 11.8688 8.29985 11.8557 8.27172C11.8426 8.24358 11.8478 8.20886 11.8683 8.18727L13.5073 6.46358L11.2112 6.43687C11.1774 6.43648 11.1503 6.40482 11.1506 6.36616Z" fill="white"/>
<path fill-rule="evenodd" clip-rule="evenodd" d="M10.2888 9.15773C10.3118 9.16159 10.3309 9.18002 10.3381 9.2053L10.9284 11.2767L11.6374 9.66587C11.6526 9.63134 11.6894 9.61743 11.7196 9.63481C11.7498 9.65219 11.762 9.69427 11.7468 9.72881L10.9884 11.4517L11.8552 12.7138C11.8761 12.7442 11.8714 12.7882 11.8448 12.8121C11.8183 12.8359 11.7798 12.8307 11.7589 12.8002L10.9245 11.5853L10.3455 12.7535C10.3362 12.7723 10.3199 12.7851 10.3012 12.7883C10.2825 12.7914 10.2636 12.7845 10.25 12.7696L9.14979 11.5676C9.13193 11.5481 9.12608 11.5182 9.13494 11.4919C9.14379 11.4655 9.16563 11.4478 9.19032 11.447L10.69 11.3974L9.4458 10.6138C9.43061 10.6043 9.41969 10.5878 9.41573 10.5685C9.41177 10.5492 9.41516 10.5289 9.42504 10.5126L10.2296 9.18707C10.2429 9.16523 10.2658 9.15386 10.2888 9.15773ZM10.8094 11.5335L9.34031 11.5821L10.2777 12.6063L10.8094 11.5335ZM10.9691 11.4953C10.9699 11.4938 10.9706 11.4922 10.9713 11.4906ZM10.81 11.3132L10.2599 9.38273L9.56435 10.5287L10.81 11.3132Z" fill="white"/>
<path fill-rule="evenodd" clip-rule="evenodd" d="M10.855 11.4577C10.8562 11.4191 10.8845 11.3888 10.9183 11.3902L12.1088 11.4377C12.1426 11.439 12.1691 11.4715 12.1679 11.5101C12.1667 11.5487 12.1383 11.579 12.1045 11.5776L10.9141 11.5301C10.8803 11.5287 10.8538 11.4963 10.855 11.4577Z" fill="white"/>
<path fill-rule="evenodd" clip-rule="evenodd" d="M11.7744 12.698C11.803 12.6774 11.8408 12.6873 11.8588 12.72L13.1601 15.086C13.1781 15.1188 13.1695 15.162 13.1409 15.1825C13.1122 15.2031 13.0744 15.1933 13.0564 15.1606L11.7551 12.7945C11.7371 12.7618 11.7457 12.7186 11.7744 12.698Z" fill="white"/>
<path d="M13.3054 15.1706C13.2685 15.2894 13.1535 15.3559 13.0509 15.3131C12.9483 15.2704 12.8908 15.1374 12.9277 15.0186C12.9647 14.8998 13.0796 14.8333 13.1823 14.876C13.289 14.9188 13.3424 15.0518 13.3054 15.1706Z" fill="white"/>
<path d="M11.9958 8.30563C11.9589 8.4244 11.844 8.49092 11.7413 8.44816C11.6387 8.4054 11.5812 8.27237 11.6182 8.15359C11.6551 8.03481 11.7701 7.9683 11.8727 8.01106C11.9753 8.05382 12.0328 8.1821 11.9958 8.30563Z" fill="white"/>
<path d="M11.4006 6.44308C11.3637 6.56185 11.2487 6.62837 11.1461 6.58561C11.0435 6.54285 10.986 6.40982 11.023 6.29104C11.0599 6.17227 11.1749 6.10575 11.2775 6.14851C11.3801 6.19127 11.4376 6.3243 11.4006 6.44308Z" fill="white"/>
<path d="M11.9958 12.8332C11.9589 12.952 11.844 13.0185 11.7413 12.9757C11.6387 12.933 11.5812 12.8 11.6182 12.6812C11.6551 12.5624 11.7701 12.4959 11.8727 12.5386C11.9753 12.5814 12.0328 12.7144 11.9958 12.8332Z" fill="white"/>
<path d="M12.2955 11.5837C12.2586 11.7025 12.1436 11.769 12.041 11.7262C11.9384 11.6835 11.8809 11.5504 11.9179 11.4317C11.9548 11.3129 12.0697 11.2464 12.1724 11.2891C12.2791 11.3319 12.3325 11.4649 12.2955 11.5837Z" fill="white"/>
<path d="M11.8809 9.77828C11.8439 9.89706 11.729 9.96357 11.6263 9.92081C11.5237 9.87805 11.4662 9.74502 11.5032 9.62625C11.5401 9.50747 11.6551 9.44096 11.7577 9.48372C11.8603 9.52648 11.9178 9.65475 11.8809 9.77828Z" fill="white"/>
<path fill-rule="evenodd" clip-rule="evenodd" d="M11.6766 9.62999C11.7093 9.62019 11.7428 9.64257 11.7513 9.67997L12.1659 11.4901C12.1687 11.502 12.1686 11.5145 12.1658 11.5264L11.8661 12.7759C11.8571 12.8132 11.8235 12.8351 11.7909 12.8249C11.7582 12.8147 11.7391 12.7762 11.748 12.7389L12.0433 11.5074L11.6329 9.71544C11.6243 9.67804 11.6439 9.63978 11.6766 9.62999Z" fill="white"/>
<path fill-rule="evenodd" clip-rule="evenodd" d="M11.6766 9.62999C11.7093 9.62019 11.7428 9.64257 11.7513 9.67997L12.1659 11.4901C12.1687 11.502 12.1686 11.5145 12.1658 11.5264L11.8661 12.7759C11.8571 12.8132 11.8235 12.8351 11.7909 12.8249C11.7582 12.8147 11.7391 12.7762 11.748 12.7389L12.0433 11.5074L11.6329 9.71544C11.6243 9.67804 11.6439 9.63978 11.6766 9.62999Z" fill="white"/>
<path fill-rule="evenodd" clip-rule="evenodd" d="M12.2905 5.18314C12.3139 5.21103 12.3131 5.25534 12.2887 5.28212L11.2543 6.41762C11.2299 6.4444 11.1911 6.44349 11.1677 6.4156C11.1443 6.38772 11.1451 6.3434 11.1695 6.31663L12.2039 5.18113C12.2283 5.15435 12.2671 5.15525 12.2905 5.18314Z" fill="white"/>
<path fill-rule="evenodd" clip-rule="evenodd" d="M13.1813 15.0849C13.1859 15.1232 13.1625 15.1585 13.129 15.1638L11.0025 15.4964C10.969 15.5016 10.9381 15.4748 10.9336 15.4365C10.929 15.3982 10.9524 15.3629 10.9859 15.3576L13.1124 15.0251C13.1459 15.0198 13.1767 15.0466 13.1813 15.0849Z" fill="white"/>
<defs>
<linearGradient id="paint0_linear_210_3767" x1="5.97026" y1="6.37684" x2="15.0748" y2="11.5854" gradientUnits="userSpaceOnUse">
<stop offset="0.2577" stop-color="white"/>
<stop offset="0.7491" stop-color="#747474"/>
</linearGradient>
</defs>
</svg>
