<svg width="98" height="60" viewBox="0 0 98 60" fill="none" xmlns="http://www.w3.org/2000/svg">
<path d="M3.39943 53.2806H5.37069L8.77012 59.9999H7.14081L6.49713 58.7375H3.07759L3.72127 57.4547H5.85345L4.38506 54.5634L1.62931 59.9999H0L3.39943 53.2806Z" fill="white"/>
<path d="M14.9454 53.2806H16.3333V58.7375H22.0862V59.9999H14.9454V53.2806Z" fill="white"/>
<path d="M26.0891 53.2806H27.6983L30.4541 58.7375L33.2098 53.2806H34.8391L31.4397 59.9999H29.4684L26.0891 53.2806Z" fill="white"/>
<path d="M42.4024 53.2806H41.0145V59.9999H42.4024V53.2806Z" fill="white"/>
<path d="M49.0806 59.6945C48.8191 59.4909 48.6783 59.1854 48.6581 58.7782V58.0045H50.0461V58.1877C50.0662 58.3913 50.1064 58.5135 50.1869 58.595C50.2472 58.656 50.3679 58.6968 50.5087 58.7171H54.3909C54.5116 58.7171 54.6122 58.6968 54.6725 58.6764C54.7329 58.656 54.7932 58.595 54.8334 58.5135C54.8737 58.4321 54.8938 58.2895 54.8938 58.0859V57.8619C54.8938 57.6787 54.8737 57.5362 54.8334 57.4343C54.7932 57.3529 54.753 57.2918 54.6725 57.2715C54.6122 57.2511 54.5116 57.2307 54.3909 57.2307H50.0461C49.8047 57.2307 49.5834 57.1696 49.3823 57.0678C49.1811 56.966 49.0001 56.8031 48.8794 56.5995C48.7587 56.3959 48.6783 56.1516 48.6783 55.8869V54.5837C48.6783 54.2987 48.7587 54.0747 48.8794 53.8711C49.0001 53.6675 49.1811 53.5046 49.3823 53.4028C49.5834 53.301 49.8047 53.2399 50.0461 53.2399H54.8938C55.2558 53.2399 55.5777 53.3417 55.8392 53.5249C56.1007 53.7082 56.2214 54.034 56.2214 54.5023V55.2353H54.8938V55.1742C54.8938 54.9706 54.8737 54.8281 54.8334 54.7263C54.7932 54.6245 54.753 54.5634 54.6926 54.543C54.6323 54.5226 54.5317 54.5023 54.3909 54.5023H50.5087C50.3076 54.5226 50.1869 54.5837 50.1466 54.7059C50.0863 54.8281 50.0662 54.991 50.0662 55.2149C50.0662 55.4389 50.0863 55.6222 50.1466 55.724C50.1869 55.8461 50.3076 55.9072 50.4886 55.9276H54.8938C55.2558 55.9276 55.5777 56.0294 55.8392 56.2127C56.1007 56.3959 56.2214 56.7217 56.2214 57.19V58.656C56.2214 59.1244 56.1007 59.4501 55.8392 59.6334C55.5777 59.8166 55.276 59.9185 54.8938 59.9185H50.0662C49.684 59.9999 49.3622 59.8981 49.0806 59.6945Z" fill="white"/>
<path d="M62.8993 59.6945C62.6378 59.4909 62.497 59.1854 62.4769 58.7782V53.2806H63.8649V58.2081C63.885 58.4117 63.9252 58.5339 63.9856 58.6153C64.0459 58.6764 64.1666 58.7171 64.3074 58.7375H68.1896C68.3103 58.7375 68.4108 58.7173 68.4712 58.697C68.5315 58.6766 68.5919 58.6153 68.6321 58.5339C68.6723 58.4524 68.6924 58.3099 68.6924 58.1063V53.2806H70.02V58.7375C70.02 59.2058 69.8993 59.5318 69.6379 59.715C69.3764 59.8983 69.0746 59.9999 68.6924 59.9999H63.8649C63.4827 59.9999 63.1608 59.8981 62.8993 59.6945Z" fill="white"/>
<path d="M79.3134 53.2806H81.2645L84.6639 59.9999H83.0548L82.4111 58.7375H78.9714L79.6151 57.4547H81.7473L80.2789 54.5634L77.5231 59.9999H75.9139L79.3134 53.2806Z" fill="white"/>
<path d="M90.8391 53.2806H92.227V58.7375H98V59.9999H90.8391V53.2806Z" fill="white"/>
<path d="M48.0546 33.2449L49.523 27.8898L47.4914 20.132L47.8535 13.881L45.138 5.85856L50.2069 0.992147C49.5632 0.808893 48.5776 0.707092 47.3707 0.707092C41.4368 0.707092 30.1724 3.15048 28.1006 9.52365C26.3506 14.9398 27.4569 15.9172 26.592 16.9352C25.7471 17.9533 22.227 21.1501 22.2069 22.0053C22.1466 23.8582 24.6006 22.8197 24.7615 24.2654C24.8822 25.3242 24.0374 25.4057 24.2787 26.0776C24.3793 26.3627 25.4052 26.8513 25.365 26.9531C25.3247 27.0549 24.1178 27.6251 24.2787 28.4192C24.4598 29.2133 24.7213 29.1115 24.7213 29.8241C24.7213 31.2902 23.454 33.367 24.1983 34.4055C25.5661 36.2787 28.8046 35.9733 31.7012 35.6475C33.7127 35.4235 35.5431 35.1996 36.4483 35.7086C46.365 41.3691 38.0776 44.0161 43.2069 44.6677L54.4109 43.3646L48.0546 33.2449Z" fill="url(#paint0_linear_49_733)"/>
<path d="M38.2385 7.48778L43.6092 2.39738L45.1379 5.85885L38.2385 7.48778Z" stroke="white" stroke-width="0.6" stroke-miterlimit="10" stroke-linecap="round" stroke-linejoin="round"/>
<path d="M47.8532 13.9017L45.1376 5.85887" stroke="white" stroke-width="0.6" stroke-miterlimit="10" stroke-linecap="round" stroke-linejoin="round"/>
<path d="M50.2068 0.992126C50.2068 0.992126 56.6638 1.25683 56.8649 1.23647C57.0661 1.21611 57.1666 5.98071 57.1666 5.98071L50.2068 0.992126Z" stroke="white" stroke-width="0.6" stroke-miterlimit="10" stroke-linecap="round" stroke-linejoin="round"/>
<path d="M63.2213 3.00789L56.865 1.23643M63.2213 3.00789L67.2845 7.08021L57.1466 5.98068L63.2213 3.00789Z" stroke="white" stroke-width="0.6" stroke-miterlimit="10" stroke-linecap="round" stroke-linejoin="round"/>
<path d="M42.6839 12.0486L38.2385 7.48758L37.5546 11.8042L42.6839 12.0486Z" stroke="white" stroke-width="0.6" stroke-miterlimit="10" stroke-linecap="round" stroke-linejoin="round"/>
<path d="M42.684 12.0488L45.138 5.85887" stroke="white" stroke-width="0.6" stroke-miterlimit="10" stroke-linecap="round" stroke-linejoin="round"/>
<path d="M37.5546 11.8042L37.2729 13.881L42.704 12.0485L40.954 15.9172L37.2729 13.8607C37.2729 13.8607 37.3735 15.3878 37.5344 15.3471C37.6954 15.3063 40.954 15.9172 40.954 15.9172" stroke="white" stroke-width="0.6" stroke-miterlimit="10" stroke-linecap="round" stroke-linejoin="round"/>
<path d="M60.1839 22.7996L47.8534 13.9016L47.4913 20.1322L60.1839 22.7996Z" stroke="white" stroke-width="0.6" stroke-miterlimit="10" stroke-linecap="round" stroke-linejoin="round"/>
<path d="M67.2844 7.08056L68.0488 13.8406L68.2097 24.4693L60.1838 22.7997L68.0488 13.8406L57.1465 5.98103" stroke="white" stroke-width="0.6" stroke-miterlimit="10" stroke-linecap="round" stroke-linejoin="round"/>
<path d="M36.8103 17.4242L36.6293 23.7974L31.5402 21.4762L36.8103 17.4242Z" stroke="white" stroke-width="0.6" stroke-miterlimit="10" stroke-linecap="round" stroke-linejoin="round"/>
<path d="M31.5402 21.4761L34.1753 24.4692L36.6293 23.7973L35.2414 27.9307L34.1753 24.4692L33.0086 25.8131L35.2414 27.9307" stroke="white" stroke-width="0.6" stroke-miterlimit="10" stroke-linecap="round" stroke-linejoin="round"/>
<path d="M32.7471 28.3786L33.0086 25.813M32.7471 28.3786L33.2298 30.9645L35.2413 27.9306L32.7471 28.3786Z" stroke="white" stroke-width="0.6" stroke-miterlimit="10" stroke-linecap="round" stroke-linejoin="round"/>
<path d="M33.2299 30.9648L32.546 34.1412L35.1609 35.0779L33.2299 30.9648Z" stroke="white" stroke-width="0.6" stroke-miterlimit="10" stroke-linecap="round" stroke-linejoin="round"/>
<path d="M33.2299 30.9648L40.6322 33.0824L35.161 35.0779L41.2558 35.7701L40.6322 33.0824" stroke="white" stroke-width="0.6" stroke-miterlimit="10" stroke-linecap="round" stroke-linejoin="round"/>
<path d="M41.2558 35.7698L40.6322 33.0821L48.0546 33.245M41.2558 35.7698L48.0546 33.245L44.0719 44.6882L41.2558 35.7698Z" stroke="white" stroke-width="0.6" stroke-miterlimit="10" stroke-linecap="round" stroke-linejoin="round"/>
<path d="M36.8104 17.4245L37.5345 15.3476M36.8104 17.4245L40.5719 18.1168L40.954 15.9177L36.8104 17.4245Z" stroke="white" stroke-width="0.6" stroke-miterlimit="10" stroke-linecap="round" stroke-linejoin="round"/>
<path d="M40.9541 15.9171L47.4914 20.132L40.5719 18.1164" stroke="white" stroke-width="0.6" stroke-miterlimit="10" stroke-linecap="round" stroke-linejoin="round"/>
<path d="M48.0543 33.2447L63.9653 33.428L49.3618 27.8286" stroke="white" stroke-width="0.6" stroke-miterlimit="10" stroke-linecap="round" stroke-linejoin="round"/>
<path d="M49.523 27.8903C49.3018 27.9514 60.184 22.7999 60.184 22.7999L63.9656 33.4286L54.4311 43.3855" stroke="white" stroke-width="0.6" stroke-miterlimit="10" stroke-linecap="round" stroke-linejoin="round"/>
<path d="M49.5227 27.8901L48.0543 33.2452" stroke="white" stroke-width="0.6" stroke-miterlimit="10" stroke-linecap="round" stroke-linejoin="round"/>
<path d="M68.2098 24.4693L63.9656 33.4284" stroke="white" stroke-width="0.6" stroke-miterlimit="10" stroke-linecap="round" stroke-linejoin="round"/>
<path d="M64.8908 33.7543C64.7097 34.2633 64.1465 34.5484 63.6436 34.3651C63.1408 34.1819 62.8592 33.6118 63.0402 33.1027C63.2212 32.5937 63.7845 32.3086 64.2873 32.4919C64.8103 32.6751 65.0718 33.2453 64.8908 33.7543Z" fill="white"/>
<path d="M61.1493 23.0033C60.9683 23.5124 60.4051 23.7974 59.9022 23.6142C59.3993 23.4309 59.1177 22.8608 59.2987 22.3518C59.4798 21.8427 60.043 21.5577 60.5459 21.7409C61.0689 21.9242 61.3304 22.4943 61.1493 23.0033Z" fill="white"/>
<path d="M69.1348 24.7949C68.9538 25.304 68.3905 25.589 67.8877 25.4058C67.3848 25.2225 67.1032 24.6524 67.2842 24.1433C67.4653 23.6343 68.0285 23.3492 68.5313 23.5325C69.0342 23.7158 69.3158 24.2859 69.1348 24.7949Z" fill="white"/>
<path d="M68.9741 14.1661C68.7931 14.6751 68.2299 14.9602 67.727 14.7769C67.2241 14.5937 66.9425 14.0236 67.1236 13.5145C67.3046 13.0055 67.8678 12.7204 68.3707 12.9037C68.8937 13.0869 69.1552 13.6367 68.9741 14.1661Z" fill="white"/>
<path d="M64.1465 10.7865C63.9655 11.2956 63.4023 11.5806 62.8994 11.3974C62.3965 11.2141 62.1149 10.644 62.2959 10.135C62.477 9.62593 63.0402 9.34087 63.5431 9.52412C64.066 9.70737 64.3275 10.2571 64.1465 10.7865Z" fill="white"/>
<path d="M58.0716 6.30661C57.8905 6.81564 57.3273 7.10071 56.8244 6.91745C56.3216 6.7342 56.04 6.16407 56.221 5.65503C56.402 5.14599 56.9652 4.86093 57.4681 5.04419C57.971 5.22744 58.2325 5.79757 58.0716 6.30661Z" fill="white"/>
<path d="M51.1319 1.31819C50.9509 1.82723 50.3877 2.11229 49.8848 1.92903C49.3819 1.74578 49.1003 1.17565 49.2813 0.666614C49.4624 0.157575 50.0256 -0.127487 50.5285 0.0557674C51.0314 0.239021 51.2928 0.788786 51.1319 1.31819Z" fill="white"/>
<path d="M57.7699 1.5625C57.5888 2.07153 57.0256 2.3566 56.5227 2.17334C56.0199 1.99009 55.7383 1.41996 55.9193 0.910923C56.1003 0.401884 56.6635 0.116822 57.1664 0.300076C57.6894 0.48333 57.9509 1.05346 57.7699 1.5625Z" fill="white"/>
<path d="M64.1465 3.33371C63.9655 3.84274 63.4023 4.12781 62.8994 3.94455C62.3965 3.7613 62.1149 3.19117 62.2959 2.68213C62.477 2.17309 63.0402 1.88803 63.5431 2.07129C64.066 2.25454 64.3275 2.82467 64.1465 3.33371Z" fill="white"/>
<path d="M68.2097 7.36526C68.0287 7.8743 67.4655 8.15936 66.9626 7.97611C66.4597 7.79285 66.1781 7.22273 66.3592 6.71369C66.5402 6.20465 67.1034 5.91959 67.6063 6.10284C68.1293 6.28609 68.3908 6.85622 68.2097 7.36526Z" fill="white"/>
<path d="M44.9969 45.0142C44.8158 45.5233 44.2526 45.8083 43.7497 45.6251C43.2469 45.4418 42.9652 44.8717 43.1463 44.3627C43.3273 43.8536 43.8905 43.5686 44.3934 43.7518C44.8963 43.9351 45.1779 44.5052 44.9969 45.0142Z" fill="white"/>
<path d="M42.6839 12.0485L47.8534 13.9014L40.954 15.9172" stroke="white" stroke-width="0.6" stroke-miterlimit="10" stroke-linecap="round" stroke-linejoin="round"/>
<path d="M45.1376 5.85887L57.1463 5.98104L48.5572 13.8813L63.221 10.3588L60.244 22.6775" stroke="white" stroke-width="0.6" stroke-miterlimit="10" stroke-linecap="round" stroke-linejoin="round"/>
<path d="M47.4915 20.1322L43.6897 27.6863L40.5719 18.1164L36.6294 23.7973L43.6897 27.6863L35.2415 27.9307L40.6323 33.0821L43.6897 27.6863L48.0547 33.245" stroke="white" stroke-width="0.6" stroke-miterlimit="10" stroke-linecap="round" stroke-linejoin="round"/>
<path d="M43.6897 27.6865L49.523 27.8902" stroke="white" stroke-width="0.6" stroke-miterlimit="10" stroke-linecap="round" stroke-linejoin="round"/>
<path d="M48.0543 33.245L54.4308 43.3851" stroke="white" stroke-width="0.6" stroke-miterlimit="10" stroke-linecap="round" stroke-linejoin="round"/>
<path d="M55.3965 43.5886C55.2155 44.0976 54.6523 44.3827 54.1494 44.1995C53.6465 44.0162 53.3649 43.4461 53.5459 42.937C53.727 42.428 54.2902 42.1429 54.7931 42.3262C55.316 42.5094 55.5775 43.0796 55.3965 43.5886Z" fill="white"/>
<path d="M48.9799 14.1661C48.7989 14.6751 48.2357 14.9602 47.7328 14.7769C47.2299 14.5937 46.9483 14.0236 47.1294 13.5145C47.3104 13.0055 47.8736 12.7204 48.3765 12.9037C48.8794 13.0869 49.161 13.6367 48.9799 14.1661Z" fill="white"/>
<path d="M46.0633 6.18444C45.8822 6.69348 45.319 6.97854 44.8161 6.79529C44.3133 6.61204 44.0317 6.04191 44.2127 5.53287C44.3937 5.02383 44.9569 4.73877 45.4598 4.92202C45.9627 5.10528 46.2443 5.6754 46.0633 6.18444Z" fill="white"/>
<path d="M48.9799 33.5706C48.7989 34.0796 48.2357 34.3647 47.7328 34.1814C47.2299 33.9982 46.9483 33.428 47.1294 32.919C47.3104 32.41 47.8736 32.1249 48.3765 32.3081C48.8794 32.4914 49.161 33.0615 48.9799 33.5706Z" fill="white"/>
<path d="M50.4483 28.2157C50.2673 28.7247 49.7041 29.0098 49.2012 28.8265C48.6983 28.6433 48.4167 28.0732 48.5978 27.5641C48.7788 27.0551 49.342 26.77 49.8449 26.9533C50.3679 27.1365 50.6294 27.7067 50.4483 28.2157Z" fill="white"/>
<path d="M48.4164 20.4783C48.2354 20.9874 47.6722 21.2724 47.1693 21.0892C46.6664 20.9059 46.3848 20.3358 46.5658 19.8268C46.7469 19.3177 47.3101 19.0327 47.813 19.2159C48.3158 19.3992 48.5974 19.9489 48.4164 20.4783Z" fill="white"/>
<path d="M47.4913 20.1324L49.5229 27.8902L48.0545 33.2453" stroke="white" stroke-width="0.6" stroke-miterlimit="10" stroke-linecap="round" stroke-linejoin="round"/>
<path d="M47.4913 20.1324L49.5229 27.8902L48.0545 33.2453" stroke="white" stroke-width="0.6" stroke-miterlimit="10" stroke-linecap="round" stroke-linejoin="round"/>
<path d="M45.1376 5.85855L50.2066 0.992126" stroke="white" stroke-width="0.6" stroke-miterlimit="10" stroke-linecap="round" stroke-linejoin="round"/>
<path d="M44.0718 44.6884L54.4913 43.263" stroke="white" stroke-width="0.6" stroke-miterlimit="10" stroke-linecap="round" stroke-linejoin="round"/>
<defs>
<linearGradient id="paint0_linear_49_733" x1="19.454" y1="5.90153" x2="60.9245" y2="33.0268" gradientUnits="userSpaceOnUse">
<stop offset="0.2577" stop-color="white"/>
<stop offset="0.7491" stop-color="#747474"/>
</linearGradient>
</defs>
</svg>
