<svg width="32" height="32" viewBox="0 0 32 32" fill="none" xmlns="http://www.w3.org/2000/svg">
<rect width="32" height="32" rx="4" fill="#1B1B1B"/>
<path d="M3.59164 23.2427H4.12804L5.05306 25.3331H4.60971L4.43455 24.9404H3.50407L3.67922 24.5413H4.2594L3.85984 23.6418L3.10998 25.3331H2.66663L3.59164 23.2427Z" fill="white"/>
<path d="M6.73352 23.2424H7.11119V24.9401H8.67661V25.3329H6.73352V23.2424Z" fill="white"/>
<path d="M9.76562 23.2424H10.2035L10.9534 24.9401L11.7032 23.2424H12.1466L11.2216 25.3329H10.6852L9.76562 23.2424Z" fill="white"/>
<path d="M14.2048 23.2424H13.8271V25.3329H14.2048V23.2424Z" fill="white"/>
<path d="M16.0219 25.2381C15.9508 25.1747 15.9125 25.0797 15.907 24.953V24.7123H16.2847V24.7693C16.2901 24.8327 16.3011 24.8707 16.323 24.896C16.3394 24.915 16.3722 24.9277 16.4105 24.934H17.4669C17.4998 24.934 17.5271 24.9277 17.5435 24.9214C17.56 24.915 17.5764 24.896 17.5873 24.8707C17.5983 24.8453 17.6038 24.801 17.6038 24.7376V24.668C17.6038 24.611 17.5983 24.5666 17.5873 24.5349C17.5764 24.5096 17.5654 24.4906 17.5435 24.4843C17.5271 24.4779 17.4998 24.4716 17.4669 24.4716H16.2847C16.219 24.4716 16.1588 24.4526 16.104 24.4209C16.0493 24.3892 16 24.3386 15.9672 24.2752C15.9344 24.2119 15.9125 24.1358 15.9125 24.0535V23.6481C15.9125 23.5594 15.9344 23.4897 15.9672 23.4264C16 23.363 16.0493 23.3123 16.104 23.2807C16.1588 23.249 16.219 23.23 16.2847 23.23H17.6038C17.7023 23.23 17.7899 23.2617 17.861 23.3187C17.9322 23.3757 17.965 23.477 17.965 23.6227V23.8508H17.6038V23.8318C17.6038 23.7684 17.5983 23.7241 17.5873 23.6924C17.5764 23.6607 17.5654 23.6417 17.549 23.6354C17.5326 23.6291 17.5052 23.6227 17.4669 23.6227H16.4105C16.3558 23.6291 16.323 23.6481 16.312 23.6861C16.2956 23.7241 16.2901 23.7748 16.2901 23.8444C16.2901 23.9141 16.2956 23.9711 16.312 24.0028C16.323 24.0408 16.3558 24.0598 16.4051 24.0662H17.6038C17.7023 24.0662 17.7899 24.0978 17.861 24.1549C17.9322 24.2119 17.965 24.3132 17.965 24.4589V24.915C17.965 25.0607 17.9322 25.1621 17.861 25.2191C17.7899 25.2761 17.7078 25.3078 17.6038 25.3078H16.2901C16.1861 25.3331 16.0986 25.3014 16.0219 25.2381Z" fill="white"/>
<path d="M19.7822 25.2379C19.711 25.1745 19.6727 25.0795 19.6672 24.9528V23.2424H20.0449V24.7754C20.0504 24.8388 20.0613 24.8768 20.0777 24.9021C20.0942 24.9211 20.127 24.9338 20.1653 24.9401H21.2217C21.2545 24.9401 21.2819 24.9339 21.2983 24.9275C21.3147 24.9212 21.3312 24.9021 21.3421 24.8768C21.3531 24.8515 21.3585 24.8071 21.3585 24.7438V23.2424H21.7198V24.9401C21.7198 25.0858 21.6869 25.1873 21.6158 25.2443C21.5446 25.3013 21.4625 25.3329 21.3585 25.3329H20.0449C19.9409 25.3329 19.8533 25.3012 19.7822 25.2379Z" fill="white"/>
<path d="M24.2485 23.2424H24.7794L25.7044 25.3329H25.2666L25.0914 24.9401H24.1555L24.3306 24.5411H24.9108L24.5112 23.6415L23.7614 25.3329H23.3235L24.2485 23.2424Z" fill="white"/>
<path d="M27.3848 23.2424H27.7624V24.9401H29.3333V25.3329H27.3848V23.2424Z" fill="white"/>
<path d="M15.7428 17.0094L16.1424 15.3434L15.5895 12.9298L15.6881 10.985L14.9492 8.48916L16.3285 6.97516C16.1533 6.91815 15.8851 6.88647 15.5567 6.88647C13.942 6.88647 10.8769 7.64664 10.3131 9.62942C9.83694 11.3145 10.138 11.6185 9.90262 11.9353C9.67273 12.252 8.71488 13.2466 8.7094 13.5126C8.69298 14.0891 9.36075 13.766 9.40453 14.2158C9.43738 14.5452 9.20749 14.5705 9.27317 14.7796C9.30054 14.8682 9.57968 15.0203 9.56874 15.052C9.55779 15.0836 9.22938 15.261 9.27317 15.5081C9.32243 15.7551 9.39359 15.7234 9.39359 15.9452C9.39359 16.4013 9.04876 17.0474 9.25128 17.3705C9.62347 17.9533 10.5047 17.8582 11.2929 17.7569C11.8402 17.6872 12.3383 17.6175 12.5846 17.7759C15.283 19.5369 13.028 20.3605 14.4237 20.5632L17.4724 20.1578L15.7428 17.0094Z" fill="url(#paint0_linear_216_3578)"/>
<path fill-rule="evenodd" clip-rule="evenodd" d="M14.5491 7.32141C14.5751 7.32738 14.597 7.34745 14.6077 7.37521L15.0237 8.45211C15.0335 8.47749 15.0329 8.50654 15.0221 8.53138C15.0113 8.55623 14.9914 8.57428 14.9678 8.58066L13.0904 9.08744C13.0545 9.09713 13.0173 9.07808 12.9998 9.04096C12.9823 9.00384 12.9887 8.95788 13.0155 8.92886L14.4769 7.34517C14.4961 7.3243 14.5231 7.31543 14.5491 7.32141ZM13.3475 8.82623L14.8347 8.42479L14.5051 7.57174L13.3475 8.82623Z" fill="white"/>
<path fill-rule="evenodd" clip-rule="evenodd" d="M14.9229 8.40068C14.9656 8.38419 15.0119 8.41042 15.0263 8.45925L15.7652 10.9615C15.7796 11.0103 15.7567 11.0633 15.714 11.0798C15.6713 11.0963 15.625 11.07 15.6105 11.0212L14.8716 8.51897C14.8572 8.47013 14.8801 8.41717 14.9229 8.40068Z" fill="white"/>
<path fill-rule="evenodd" clip-rule="evenodd" d="M16.3316 6.88216L16.6069 6.89492C16.7724 6.90255 16.9937 6.91264 17.2167 6.92254C17.4397 6.93243 17.6644 6.94213 17.8366 6.94895C17.9227 6.95236 17.9956 6.95505 18.0486 6.95668C18.0751 6.9575 18.0964 6.95805 18.1117 6.9583C18.1211 6.95845 18.1268 6.95844 18.1297 6.95844C18.1325 6.95844 18.1329 6.95843 18.1317 6.95857C18.1784 6.95317 18.2047 6.99017 18.2111 7.0004C18.2197 7.01395 18.2244 7.02796 18.227 7.03622C18.2325 7.05425 18.2365 7.07603 18.2396 7.09726C18.2462 7.14124 18.252 7.20185 18.2572 7.27148C18.2676 7.41161 18.2762 7.59792 18.2831 7.78311C18.2899 7.9686 18.2951 8.15417 18.2985 8.29328C18.3002 8.36286 18.3015 8.42087 18.3024 8.46149L18.3033 8.50868L18.3036 8.52517C18.3043 8.56051 18.2874 8.59352 18.2601 8.61C18.2327 8.62647 18.1996 8.62388 18.1745 8.60329L16.2807 7.05127C16.2513 7.02724 16.2393 6.98405 16.251 6.94504C16.2628 6.90604 16.2955 6.88047 16.3316 6.88216ZM18.1364 8.34238C18.136 8.32836 18.1357 8.31373 18.1353 8.29854C18.1319 8.15992 18.1268 7.9753 18.12 7.791C18.1131 7.60639 18.1046 7.42331 18.0945 7.28729C18.0901 7.22808 18.0855 7.17957 18.0809 7.14433C18.0699 7.14405 18.0576 7.1437 18.0442 7.14328C17.9906 7.14163 17.9172 7.13892 17.8309 7.1355C17.6584 7.12867 17.4335 7.11896 17.2104 7.10906C16.9873 7.09916 16.7659 7.08906 16.6003 7.08144L16.5976 7.08131L18.1364 8.34238ZM18.0728 7.09771C18.0728 7.09765 18.0728 7.09777 18.0728 7.09771Z" fill="white"/>
<path fill-rule="evenodd" clip-rule="evenodd" d="M18.0615 7.02606C18.0736 6.97641 18.1186 6.94738 18.162 6.96121L19.8913 7.51222C19.8929 7.51273 19.8945 7.5133 19.8962 7.51393C19.9088 7.51887 19.9198 7.52708 19.9286 7.5375L21.0332 8.80327C21.0576 8.83128 21.064 8.87388 21.049 8.90956C21.034 8.94524 21.001 8.96625 20.9666 8.96198L18.208 8.6199C18.1718 8.61542 18.1426 8.58416 18.1363 8.54323C18.1301 8.5023 18.1482 8.46155 18.1809 8.44328L19.6411 7.62627L18.1182 7.14103C18.0748 7.12719 18.0494 7.07572 18.0615 7.02606ZM19.8532 7.71542L18.5061 8.46912L20.7542 8.74788L19.8532 7.71542Z" fill="white"/>
<path fill-rule="evenodd" clip-rule="evenodd" d="M13.047 8.90722C13.0764 8.89652 13.1086 8.90574 13.1301 8.93102L14.3398 10.35C14.3632 10.3775 14.3695 10.4185 14.3558 10.4535C14.342 10.4884 14.3109 10.5102 14.2774 10.5084L12.8817 10.4324C12.8585 10.4311 12.8369 10.4186 12.8223 10.398C12.8076 10.3775 12.8013 10.3507 12.805 10.3245L12.9911 8.98156C12.9959 8.94669 13.0175 8.91791 13.047 8.90722ZM13.1268 9.19459L12.9805 10.2509L14.0782 10.3106L13.1268 9.19459Z" fill="white"/>
<path fill-rule="evenodd" clip-rule="evenodd" d="M14.9791 8.40235C15.021 8.42134 15.0415 8.47559 15.0249 8.52351L14.3571 10.4493C14.3405 10.4972 14.2931 10.5206 14.2512 10.5016C14.2092 10.4826 14.1887 10.4284 14.2054 10.3805L14.8731 8.45471C14.8897 8.40679 14.9372 8.38335 14.9791 8.40235Z" fill="white"/>
<path fill-rule="evenodd" clip-rule="evenodd" d="M12.8965 10.2467C12.9412 10.2536 12.9725 10.3007 12.9664 10.3517L12.9075 10.8488L14.2607 10.3268C14.2915 10.3149 14.3255 10.325 14.3473 10.3526C14.3691 10.3801 14.3745 10.4198 14.3611 10.4537L13.8856 11.6555C13.8797 11.6713 13.8702 11.6847 13.8584 11.6944C13.8569 11.6957 13.8554 11.6968 13.8538 11.698C13.8372 11.7098 13.8168 11.715 13.796 11.7107C13.7959 11.7106 13.7957 11.7106 13.7955 11.7105L13.7575 11.7024C13.7332 11.6973 13.6984 11.6899 13.6566 11.6811C13.5729 11.6635 13.4609 11.6402 13.3475 11.6173C13.2341 11.5943 13.1198 11.5719 13.0313 11.556C12.9869 11.548 12.9498 11.5419 12.9227 11.5381C12.9091 11.5362 12.899 11.535 12.8922 11.5345L12.8894 11.5343C12.8559 11.5393 12.83 11.5211 12.8163 11.5065C12.8028 11.4921 12.795 11.4755 12.7908 11.4656C12.7819 11.4443 12.7757 11.4187 12.771 11.3957C12.7612 11.3478 12.7533 11.2854 12.747 11.2261C12.7407 11.166 12.7358 11.1058 12.7325 11.0608C12.7309 11.0383 12.7296 11.0195 12.7288 11.0062L12.7284 11.001C12.7275 10.9948 12.7272 10.9885 12.7273 10.9822C12.7271 10.9726 12.7281 10.9631 12.7303 10.9541L12.8047 10.3267C12.8107 10.2756 12.8518 10.2398 12.8965 10.2467ZM12.9035 11.1463C12.9052 11.1652 12.9071 11.1846 12.9091 11.2038C12.9151 11.2605 12.922 11.3136 12.9295 11.351C12.9337 11.3516 12.9381 11.3522 12.9426 11.3528C12.9724 11.357 13.0117 11.3635 13.0566 11.3716C13.1378 11.3862 13.2398 11.4061 13.3425 11.4267L12.9035 11.1463ZM13.0156 11.0041L13.7728 11.4878L14.135 10.5722L13.0156 11.0041ZM12.8871 11.5342C12.887 11.5342 12.8871 11.5342 12.8871 11.5342Z" fill="white"/>
<path fill-rule="evenodd" clip-rule="evenodd" d="M15.6529 10.9077C15.6798 10.8931 15.7116 10.8964 15.7357 10.9163L19.091 13.6846C19.1222 13.7104 19.1335 13.7577 19.1179 13.798C19.1023 13.8383 19.0641 13.8607 19.0264 13.8516L15.5727 13.0218C15.5331 13.0123 15.5056 12.9711 15.508 12.925L15.6065 10.9866C15.6082 10.9526 15.626 10.9224 15.6529 10.9077ZM15.7608 11.1672L15.675 12.8556L18.6833 13.5784L15.7608 11.1672Z" fill="white"/>
<path fill-rule="evenodd" clip-rule="evenodd" d="M18.1504 8.47284C18.1768 8.43103 18.2278 8.42157 18.2644 8.45171L21.0814 10.7736L20.8942 8.87999C20.8891 8.82877 20.9213 8.78255 20.9661 8.77676C21.0109 8.77097 21.0513 8.80779 21.0564 8.85901L21.2644 10.9621C21.2644 10.9621 21.2644 10.9621 21.2644 10.9621C21.2645 10.9635 21.2646 10.9649 21.2647 10.9662M21.0626 10.9883L18.1689 8.60313C18.1323 8.57299 18.1241 8.51466 18.1504 8.47284M21.0626 10.9883L18.9818 13.6983C18.9626 13.7233 18.9565 13.758 18.9657 13.7895C18.9749 13.821 18.9981 13.8445 19.0265 13.8513L21.2104 14.3707C21.2347 14.3765 21.2599 14.3694 21.279 14.3513C21.2981 14.3333 21.3091 14.3063 21.3087 14.278L21.2649 10.9714M21.1048 11.2162L21.1439 14.1643L19.1969 13.7012L21.1048 11.2162Z" fill="white"/>
<path fill-rule="evenodd" clip-rule="evenodd" d="M12.7203 12.0046C12.7483 12.021 12.7657 12.0544 12.7648 12.0904L12.7155 14.0731C12.7147 14.1044 12.7003 14.1332 12.6771 14.1497C12.6538 14.1663 12.6249 14.1684 12.6 14.1554L11.2152 13.4333C11.1892 13.4197 11.1713 13.3915 11.168 13.3589C11.1648 13.3264 11.1767 13.2943 11.1994 13.2743L12.6334 12.0137C12.6584 11.9918 12.6922 11.9882 12.7203 12.0046ZM11.4064 13.3278L12.5558 13.9272L12.5967 12.2815L11.4064 13.3278Z" fill="white"/>
<path fill-rule="evenodd" clip-rule="evenodd" d="M11.1952 13.2782C11.229 13.2441 11.2806 13.2479 11.3104 13.2865L11.9937 14.174L12.6123 13.9804C12.6414 13.9713 12.6725 13.9812 12.6932 14.0063C12.7139 14.0313 12.7209 14.0674 12.7113 14.1001L12.3342 15.3842C12.3313 15.3947 12.3267 15.4049 12.3204 15.414C12.3181 15.4174 12.3156 15.4206 12.3128 15.4236C12.3007 15.437 12.2857 15.4453 12.27 15.4483C12.2652 15.4493 12.2602 15.4497 12.2552 15.4497C12.2351 15.4494 12.2163 15.4407 12.202 15.4261C12.2013 15.4254 12.2007 15.4247 12.2001 15.424L12.1997 15.4237C12.1899 15.4129 12.1824 15.3993 12.1782 15.3838L12.0866 15.0438L12.2196 15.1879L12.2596 15.0517L12.3338 15.3271M12.069 14.344L12.2596 15.0517L12.5078 14.2066L12.6555 14.1604L12.6339 14.0704L12.5565 14.0407L12.5078 14.2066L12.069 14.344ZM12.0116 14.362L12.069 14.344L12.0442 14.2519C12.0407 14.239 12.0348 14.2273 12.0272 14.2175M12.0116 14.362L11.9314 14.4675L11.8933 14.3261L11.8577 14.2799L11.587 14.6363C11.5584 14.674 11.5608 14.7309 11.5925 14.7652L12.1997 15.4237C12.2005 15.4245 12.2012 15.4253 12.202 15.4261M11.8577 14.2799L11.1878 13.4099C11.1581 13.3712 11.1613 13.3122 11.1952 13.2782M11.7615 14.6913L12.0866 15.0438L11.9314 14.4675L11.7615 14.6913ZM11.7615 14.6913L11.7049 14.6298L11.6487 14.6975L11.7103 14.7587L11.7615 14.6913Z" fill="white"/>
<path fill-rule="evenodd" clip-rule="evenodd" d="M11.6568 14.6042C11.7017 14.6095 11.7343 14.6553 11.7297 14.7066L11.6696 15.3815L12.2416 15.264C12.2738 15.2574 12.3063 15.2734 12.3243 15.3046C12.3422 15.3359 12.3422 15.3763 12.3241 15.4075L11.7768 16.3514C11.7584 16.383 11.7251 16.3988 11.6925 16.3913C11.6599 16.3837 11.6346 16.3543 11.6285 16.3169L11.4975 15.5145C11.4959 15.5059 11.4953 15.4969 11.496 15.4877M11.4962 15.4856L11.5673 14.6876C11.5719 14.6364 11.6119 14.599 11.6568 14.6042M11.6727 15.5705L11.752 16.0563L12.0825 15.4864L11.6727 15.5705Z" fill="white"/>
<path fill-rule="evenodd" clip-rule="evenodd" d="M11.6995 16.2074C11.7343 16.2029 11.7678 16.2242 11.7827 16.2605L12.3081 17.5401C12.3221 17.5742 12.3168 17.6146 12.2946 17.6425C12.2724 17.6704 12.2378 17.6803 12.2067 17.6676L11.4952 17.3762C11.4566 17.3604 11.4343 17.3145 11.4429 17.2687L11.629 16.2805C11.6363 16.2413 11.6647 16.2119 11.6995 16.2074ZM11.7377 16.5901L11.6175 17.228L12.0769 17.4162L11.7377 16.5901Z" fill="white"/>
<path fill-rule="evenodd" clip-rule="evenodd" d="M11.6302 16.2745C11.6426 16.2249 11.6878 16.1962 11.7312 16.2104L13.7438 16.8687C13.7551 16.8721 13.7656 16.8783 13.7745 16.8866C13.7862 16.8974 13.7953 16.912 13.8004 16.9292C13.8013 16.9324 13.8021 16.9356 13.8027 16.9389L13.9722 17.774C13.9782 17.8036 13.9712 17.8346 13.9536 17.8572C13.9359 17.8799 13.9098 17.8913 13.8834 17.8879L12.225 17.6725C12.1873 17.6676 12.1576 17.6338 12.1531 17.5908C12.1486 17.5478 12.1706 17.5069 12.2062 17.4921L13.459 16.9697L11.6863 16.3899C11.6429 16.3757 11.6178 16.324 11.6302 16.2745ZM13.6643 17.0828L12.5876 17.5317L13.787 17.6875L13.6643 17.0828Z" fill="white"/>
<path fill-rule="evenodd" clip-rule="evenodd" d="M13.6596 16.9004C13.6755 16.8781 13.6996 16.8654 13.7248 16.866L15.7445 16.9167C15.7457 16.9167 15.7469 16.9168 15.748 16.9168C15.7671 16.9183 15.7856 16.9274 15.7998 16.9433C15.8151 16.9604 15.8236 16.9833 15.8243 17.0068C15.8243 17.0085 15.8243 17.0103 15.8243 17.012C15.8243 17.0142 15.8242 17.0164 15.824 17.0186C15.8234 17.026 15.822 17.0334 15.8198 17.0407L15.8192 17.0427C15.8106 17.0687 15.7923 17.0892 15.7693 17.0982L15.6086 17.1665L15.6287 17.1005L15.3137 17.0926L13.9512 17.6711L13.8263 17.0552L15.3137 17.0926M13.8151 17.8246L14.5811 20.5982C14.5917 20.6366 14.6226 20.6628 14.6578 20.6634C14.6929 20.664 14.7245 20.6388 14.7361 20.6008L15.8192 17.0427C15.8217 17.0351 15.8233 17.027 15.824 17.0186C15.8243 17.0147 15.8244 17.0107 15.8243 17.0068C15.8229 16.959 15.7899 16.9199 15.748 16.9168M13.8139 17.82C13.8143 17.8215 13.8147 17.8231 13.8151 17.8246ZM13.813 17.8156C13.8132 17.8171 13.8136 17.8185 13.8139 17.82ZM13.813 17.8156L13.6435 16.9804C13.6378 16.9523 13.6437 16.9228 13.6596 16.9004M13.9939 17.8521L15.6086 17.1665L14.6627 20.2738L13.9939 17.8521ZM14.6627 20.2738L14.5819 20.5394L14.659 20.5701L14.7368 20.542L14.6627 20.2738Z" fill="white"/>
<path fill-rule="evenodd" clip-rule="evenodd" d="M12.9069 11.3536C12.9495 11.3706 12.9719 11.4238 12.9571 11.4725L12.8167 11.933L13.7826 11.5314C13.81 11.52 13.8406 11.5262 13.8629 11.5476C13.8852 11.5689 13.8959 11.6023 13.8909 11.6351L13.7869 12.3193C13.7832 12.3438 13.771 12.3656 13.7532 12.3799C13.7353 12.3941 13.7132 12.3996 13.6917 12.3951L12.6696 12.18C12.6666 12.1794 12.6635 12.1786 12.6604 12.1776C12.6408 12.1712 12.6244 12.1567 12.6139 12.1376C12.6027 12.1172 12.5984 12.092 12.6034 12.0672C12.6041 12.0635 12.605 12.0598 12.6062 12.0562L12.8029 11.411C12.8178 11.3623 12.8643 11.3366 12.9069 11.3536ZM12.9931 12.0583L13.6402 12.1944L13.7059 11.7619L12.9931 12.0583Z" fill="white"/>
<path fill-rule="evenodd" clip-rule="evenodd" d="M13.742 11.5679C13.7665 11.5246 13.817 11.5121 13.8549 11.54L15.6338 12.8513C15.6678 12.8765 15.6806 12.9264 15.6638 12.9685C15.647 13.0107 15.6056 13.0324 15.5667 13.0194L13.6838 12.3923C13.6405 12.3779 13.6157 12.3261 13.6283 12.2766C13.6409 12.2271 13.6862 12.1987 13.7295 12.2131L15.0742 12.6609L13.7664 11.6969C13.7285 11.669 13.7176 11.6112 13.742 11.5679Z" fill="white"/>
<path fill-rule="evenodd" clip-rule="evenodd" d="M16.0222 15.2909C16.0383 15.2428 16.0855 15.2187 16.1276 15.2372L20.1014 16.9792C20.1383 16.9954 20.1598 17.0395 20.1523 17.0839C20.1449 17.1283 20.1107 17.1602 20.0712 17.1597L15.7417 17.1027C15.6966 17.1021 15.6605 17.0598 15.661 17.0083C15.6615 16.9567 15.6985 16.9154 15.7436 16.916L19.6176 16.967L16.0692 15.4115C16.0271 15.393 16.0061 15.339 16.0222 15.2909Z" fill="white"/>
<path fill-rule="evenodd" clip-rule="evenodd" d="M19.0746 13.6738C19.0959 13.684 19.1125 13.7039 19.1202 13.7288L20.1492 17.0355C20.1595 17.0688 20.1526 17.1058 20.1312 17.1313L17.5368 20.229C17.5056 20.2663 17.454 20.2675 17.4214 20.2319C17.3888 20.1962 17.3877 20.1371 17.4189 20.0999L19.9785 17.0438L18.9966 13.8886L18.6165 14.0945C18.3399 14.2445 17.9716 14.4442 17.6053 14.6433C17.2389 14.8424 16.8745 15.0409 16.6055 15.1885C16.471 15.2622 16.3605 15.3232 16.2855 15.365C16.248 15.386 16.2198 15.4019 16.202 15.4123C16.1972 15.415 16.1935 15.4172 16.1908 15.4189C16.183 15.4255 16.174 15.4306 16.1641 15.4337C16.1625 15.4342 16.1588 15.4353 16.1541 15.4362C16.1516 15.4365 16.1455 15.4371 16.1419 15.4372C16.1361 15.437 16.1206 15.4341 16.1111 15.4305C16.0953 15.4209 16.0682 15.385 16.0609 15.3589C16.06 15.3379 16.0668 15.3061 16.0715 15.2956C16.0791 15.2813 16.0884 15.2727 16.0896 15.2716C16.0897 15.2715 16.0896 15.2716 16.0896 15.2716C16.0965 15.2651 16.1042 15.2602 16.1052 15.2596C16.1107 15.2561 16.1188 15.2512 16.128 15.2459C16.147 15.2348 16.1762 15.2183 16.2139 15.1973C16.2894 15.1551 16.4003 15.094 16.5349 15.0201C16.8042 14.8725 17.1688 14.6739 17.5352 14.4747C17.9016 14.2756 18.2699 14.0758 18.5466 13.9258L19.0082 13.6758C19.0082 13.6758 19.0083 13.6757 19.0433 13.76L19.0082 13.6758C19.0291 13.6645 19.0533 13.6637 19.0746 13.6738Z" fill="white"/>
<path fill-rule="evenodd" clip-rule="evenodd" d="M16.1637 15.2533C16.2072 15.267 16.2328 15.3183 16.2208 15.368L15.8213 17.0341C15.8093 17.0838 15.7644 17.113 15.721 17.0994C15.6775 17.0858 15.6519 17.0344 15.6638 16.9847L16.0634 15.3187C16.0753 15.269 16.1202 15.2397 16.1637 15.2533Z" fill="white"/>
<path fill-rule="evenodd" clip-rule="evenodd" d="M21.2621 14.1953C21.3028 14.2174 21.3202 14.273 21.3009 14.3196L20.146 17.1069C20.1267 17.1535 20.078 17.1733 20.0373 17.1513C19.9966 17.1292 19.9792 17.0735 19.9985 17.027L21.1534 14.2397C21.1727 14.1931 21.2214 14.1732 21.2621 14.1953Z" fill="white"/>
<path d="M20.324 17.1684C20.2747 17.3268 20.1215 17.4155 19.9846 17.3584C19.8478 17.3014 19.7711 17.1241 19.8204 16.9657C19.8697 16.8073 20.0229 16.7186 20.1598 16.7757C20.3021 16.8327 20.3732 17.01 20.324 17.1684Z" fill="white"/>
<path d="M19.3059 13.8229C19.2566 13.9813 19.1034 14.07 18.9665 14.013C18.8297 13.956 18.7531 13.7786 18.8023 13.6202C18.8516 13.4619 19.0049 13.3732 19.1417 13.4302C19.284 13.4872 19.3552 13.6646 19.3059 13.8229Z" fill="white"/>
<path d="M21.4788 14.3806C21.4295 14.5389 21.2762 14.6276 21.1394 14.5706C21.0026 14.5136 20.9259 14.3362 20.9752 14.1779C21.0245 14.0195 21.1777 13.9308 21.3146 13.9878C21.4514 14.0448 21.528 14.2222 21.4788 14.3806Z" fill="white"/>
<path d="M21.4352 11.0742C21.3859 11.2325 21.2327 11.3212 21.0958 11.2642C20.959 11.2072 20.8824 11.0298 20.9316 10.8715C20.9809 10.7131 21.1341 10.6244 21.271 10.6814C21.4133 10.7384 21.4844 10.9095 21.4352 11.0742Z" fill="white"/>
<path d="M20.1215 10.0227C20.0722 10.181 19.9189 10.2697 19.7821 10.2127C19.6453 10.1557 19.5686 9.97831 19.6179 9.81994C19.6672 9.66157 19.8204 9.57289 19.9572 9.6299C20.0996 9.68691 20.1707 9.85795 20.1215 10.0227Z" fill="white"/>
<path d="M18.4685 8.6291C18.4192 8.78747 18.266 8.87615 18.1291 8.81914C17.9923 8.76213 17.9157 8.58475 17.9649 8.42639C18.0142 8.26802 18.1675 8.17933 18.3043 8.23634C18.4411 8.29336 18.5123 8.47073 18.4685 8.6291Z" fill="white"/>
<path d="M16.5801 7.07685C16.5308 7.23522 16.3776 7.32391 16.2407 7.26689C16.1039 7.20988 16.0273 7.03251 16.0765 6.87414C16.1258 6.71577 16.279 6.62709 16.4159 6.6841C16.5527 6.74111 16.6239 6.91215 16.5801 7.07685Z" fill="white"/>
<path d="M18.3862 7.15278C18.337 7.31115 18.1837 7.39984 18.0469 7.34282C17.91 7.28581 17.8334 7.10844 17.8827 6.95007C17.9319 6.7917 18.0852 6.70301 18.222 6.76003C18.3643 6.81704 18.4355 6.99441 18.3862 7.15278Z" fill="white"/>
<path d="M20.1215 7.70381C20.0722 7.86217 19.9189 7.95086 19.7821 7.89385C19.6453 7.83684 19.5686 7.65946 19.6179 7.50109C19.6672 7.34272 19.8204 7.25404 19.9572 7.31105C20.0996 7.36806 20.1707 7.54544 20.1215 7.70381Z" fill="white"/>
<path d="M21.2272 8.95771C21.1779 9.11608 21.0246 9.20477 20.8878 9.14775C20.751 9.09074 20.6743 8.91337 20.7236 8.755C20.7729 8.59663 20.9261 8.50794 21.063 8.56496C21.2053 8.62197 21.2764 8.79934 21.2272 8.95771Z" fill="white"/>
<path d="M14.9108 20.6711C14.8615 20.8295 14.7082 20.9181 14.5714 20.8611C14.4346 20.8041 14.3579 20.6267 14.4072 20.4684C14.4565 20.31 14.6097 20.2213 14.7466 20.2783C14.8834 20.3353 14.96 20.5127 14.9108 20.6711Z" fill="white"/>
<path fill-rule="evenodd" clip-rule="evenodd" d="M14.2045 10.3836C14.2197 10.3351 14.2665 10.3099 14.3089 10.3273L15.7156 10.9037C15.7489 10.9174 15.7707 10.954 15.7697 10.9944C15.7686 11.0348 15.7449 11.0698 15.7109 11.0812L13.8336 11.7083C13.7903 11.7228 13.7449 11.6944 13.7323 11.6449C13.7197 11.5954 13.7445 11.5436 13.7878 11.5291L15.424 10.9826L14.2538 10.503C14.2114 10.4856 14.1893 10.4322 14.2045 10.3836Z" fill="white"/>
<path fill-rule="evenodd" clip-rule="evenodd" d="M14.8674 8.48814C14.8679 8.43659 14.9048 8.39523 14.9499 8.39576L18.2176 8.43376C18.251 8.43415 18.2809 8.45788 18.2929 8.49363C18.3049 8.52937 18.2966 8.56987 18.272 8.59579L16.1663 10.8102L19.8506 9.79831C19.8783 9.79072 19.9074 9.80011 19.9275 9.82311C19.9476 9.84611 19.9557 9.8794 19.9491 9.91099L19.139 13.7435C19.1284 13.7936 19.0843 13.8244 19.0405 13.8123C18.9966 13.8002 18.9697 13.7498 18.9803 13.6997L19.759 10.0155L15.8986 11.0757C15.8625 11.0857 15.825 11.0664 15.8075 11.0289C15.79 10.9914 15.7969 10.9451 15.8243 10.9163L18.0097 8.61802L14.9482 8.58241C14.9032 8.58189 14.867 8.53968 14.8674 8.48814Z" fill="white"/>
<path fill-rule="evenodd" clip-rule="evenodd" d="M13.7185 12.2105C13.7492 12.2156 13.7747 12.2402 13.7843 12.2739L14.5713 15.0357L15.5166 12.888C15.5369 12.8419 15.586 12.8234 15.6262 12.8466C15.6665 12.8697 15.6827 12.9259 15.6625 12.9719L14.6513 15.2691L15.807 16.9519C15.8348 16.9924 15.8287 17.0511 15.7932 17.0829C15.7577 17.1148 15.7064 17.1077 15.6786 17.0672L14.566 15.4473L13.7941 17.0049C13.7817 17.0299 13.7599 17.047 13.735 17.0512C13.7101 17.0554 13.6849 17.0462 13.6667 17.0263L12.1998 15.4236C12.176 15.3976 12.1682 15.3578 12.18 15.3227C12.1918 15.2875 12.2209 15.2639 12.2538 15.2629L14.2534 15.1967L12.5945 14.152C12.5742 14.1392 12.5597 14.1172 12.5544 14.0915C12.5491 14.0658 12.5536 14.0387 12.5668 14.017L13.6396 12.2496C13.6573 12.2205 13.6879 12.2053 13.7185 12.2105ZM14.4126 15.3782L12.4538 15.443L13.7037 16.8086L14.4126 15.3782ZM14.6255 15.3272C14.6266 15.3252 14.6275 15.3231 14.6284 15.321ZM14.4134 15.0844L13.68 12.5105L12.7525 14.0384L14.4134 15.0844Z" fill="white"/>
<path fill-rule="evenodd" clip-rule="evenodd" d="M14.4734 15.2768C14.475 15.2253 14.5128 15.185 14.5579 15.1868L16.1452 15.2502C16.1902 15.252 16.2255 15.2952 16.2239 15.3467C16.2223 15.3982 16.1845 15.4385 16.1395 15.4367L14.5522 15.3734C14.5071 15.3716 14.4719 15.3284 14.4734 15.2768Z" fill="white"/>
<path fill-rule="evenodd" clip-rule="evenodd" d="M15.6991 16.9306C15.7372 16.9032 15.7876 16.9163 15.8116 16.9599L17.5467 20.1146C17.5707 20.1583 17.5592 20.2159 17.5211 20.2433C17.4829 20.2708 17.4325 20.2576 17.4085 20.214L15.6734 17.0593C15.6494 17.0157 15.6609 16.958 15.6991 16.9306Z" fill="white"/>
<path d="M17.7405 20.2275C17.6912 20.3859 17.538 20.4745 17.4011 20.4175C17.2643 20.3605 17.1877 20.1831 17.2369 20.0248C17.2862 19.8664 17.4394 19.7777 17.5763 19.8347C17.7186 19.8917 17.7897 20.0691 17.7405 20.2275Z" fill="white"/>
<path d="M15.9945 11.0742C15.9452 11.2325 15.792 11.3212 15.6551 11.2642C15.5183 11.2072 15.4417 11.0298 15.4909 10.8715C15.5402 10.7131 15.6935 10.6244 15.8303 10.6814C15.9671 10.7384 16.0438 10.9095 15.9945 11.0742Z" fill="white"/>
<path d="M15.2009 8.59077C15.1517 8.74914 14.9984 8.83782 14.8616 8.78081C14.7247 8.7238 14.6481 8.54642 14.6974 8.38806C14.7466 8.22969 14.8999 8.141 15.0367 8.19801C15.1736 8.25503 15.2502 8.4324 15.2009 8.59077Z" fill="white"/>
<path d="M15.9945 17.111C15.9452 17.2694 15.792 17.3581 15.6551 17.3011C15.5183 17.2441 15.4417 17.0667 15.4909 16.9083C15.5402 16.75 15.6935 16.6613 15.8303 16.7183C15.9671 16.7753 16.0438 16.9527 15.9945 17.111Z" fill="white"/>
<path d="M16.394 15.445C16.3448 15.6034 16.1915 15.6921 16.0547 15.6351C15.9178 15.578 15.8412 15.4007 15.8905 15.2423C15.9397 15.0839 16.093 14.9952 16.2298 15.0523C16.3721 15.1093 16.4433 15.2866 16.394 15.445Z" fill="white"/>
<path d="M15.8411 13.0378C15.7918 13.1962 15.6385 13.2848 15.5017 13.2278C15.3649 13.1708 15.2882 12.9934 15.3375 12.8351C15.3868 12.6767 15.54 12.588 15.6769 12.645C15.8137 12.702 15.8903 12.8731 15.8411 13.0378Z" fill="white"/>
<path fill-rule="evenodd" clip-rule="evenodd" d="M15.5688 12.84C15.6124 12.8269 15.657 12.8568 15.6684 12.9066L16.2213 15.3202C16.2249 15.336 16.2248 15.3527 16.221 15.3685L15.8214 17.0345C15.8095 17.0842 15.7646 17.1135 15.7211 17.0999C15.6777 17.0862 15.6521 17.0349 15.664 16.9852L16.0578 15.3433L15.5105 12.9539C15.4991 12.9041 15.5252 12.853 15.5688 12.84Z" fill="white"/>
<path fill-rule="evenodd" clip-rule="evenodd" d="M15.5688 12.84C15.6124 12.8269 15.657 12.8568 15.6684 12.9066L16.2213 15.3202C16.2249 15.336 16.2248 15.3527 16.221 15.3685L15.8214 17.0345C15.8095 17.0842 15.7646 17.1135 15.7211 17.0999C15.6777 17.0862 15.6521 17.0349 15.664 16.9852L16.0578 15.3433L15.5105 12.9539C15.4991 12.9041 15.5252 12.853 15.5688 12.84Z" fill="white"/>
<path fill-rule="evenodd" clip-rule="evenodd" d="M16.3873 6.91078C16.4185 6.94796 16.4174 7.00704 16.3849 7.04274L15.0056 8.55675C14.9731 8.59245 14.9214 8.59124 14.8902 8.55406C14.859 8.51687 14.86 8.45779 14.8925 8.42209L16.2718 6.90809C16.3044 6.87239 16.356 6.87359 16.3873 6.91078Z" fill="white"/>
<path fill-rule="evenodd" clip-rule="evenodd" d="M17.575 20.1134C17.5812 20.1645 17.5499 20.2115 17.5052 20.2185L14.67 20.662C14.6253 20.669 14.5841 20.6332 14.578 20.5821C14.5719 20.5311 14.6032 20.484 14.6478 20.477L17.4831 20.0336C17.5278 20.0266 17.5689 20.0623 17.575 20.1134Z" fill="white"/>
<defs>
<linearGradient id="paint0_linear_216_3578" x1="7.96031" y1="8.50253" x2="20.0997" y2="15.4473" gradientUnits="userSpaceOnUse">
<stop offset="0.2577" stop-color="white"/>
<stop offset="0.7491" stop-color="#747474"/>
</linearGradient>
</defs>
</svg>
