<svg width="16" height="16" viewBox="0 0 16 16" fill="none" xmlns="http://www.w3.org/2000/svg">
<path d="M0.555008 14.0056H0.876847L1.43185 15H1.16585L1.06075 14.8132H0.502463L0.607553 14.6233H0.955665L0.715927 14.1954L0.26601 15H0L0.555008 14.0056Z" fill="white"/>
<path d="M2.44031 14.0056H2.66691V14.8132H3.60616V15H2.44031V14.0056Z" fill="white"/>
<path d="M4.2594 14.0056H4.52213L4.97204 14.8132L5.42196 14.0056H5.68797L5.13296 15H4.81112L4.2594 14.0056Z" fill="white"/>
<path d="M6.92289 14.0056H6.69629V15H6.92289V14.0056Z" fill="white"/>
<path d="M8.0133 14.9552C7.97061 14.9251 7.94762 14.8799 7.94434 14.8196V14.7051H8.17094V14.7322C8.17422 14.7623 8.18079 14.7804 8.19393 14.7925C8.20378 14.8015 8.22348 14.8075 8.24647 14.8106H8.8803C8.9 14.8106 8.91642 14.8075 8.92627 14.8045C8.93613 14.8015 8.94598 14.7925 8.95255 14.7804C8.95911 14.7684 8.9624 14.7473 8.9624 14.7171V14.684C8.9624 14.6569 8.95911 14.6358 8.95255 14.6207C8.94598 14.6087 8.93941 14.5996 8.92627 14.5966C8.91642 14.5936 8.9 14.5906 8.8803 14.5906H8.17094C8.13153 14.5906 8.0954 14.5816 8.06256 14.5665C8.02972 14.5514 8.00017 14.5273 7.98046 14.4972C7.96076 14.4671 7.94762 14.4309 7.94762 14.3917V14.1989C7.94762 14.1567 7.96076 14.1235 7.98046 14.0934C8.00017 14.0633 8.02972 14.0392 8.06256 14.0241C8.0954 14.009 8.13153 14 8.17094 14H8.9624C9.02151 14 9.07406 14.0151 9.11675 14.0422C9.15944 14.0693 9.17915 14.1175 9.17915 14.1868V14.2953H8.9624V14.2863C8.9624 14.2561 8.95911 14.235 8.95255 14.22C8.94598 14.2049 8.93941 14.1959 8.92956 14.1928C8.91971 14.1898 8.90328 14.1868 8.8803 14.1868H8.24647C8.21363 14.1898 8.19393 14.1989 8.18736 14.217C8.1775 14.235 8.17422 14.2591 8.17422 14.2923C8.17422 14.3254 8.1775 14.3525 8.18736 14.3676C8.19393 14.3857 8.21363 14.3947 8.24319 14.3977H8.9624C9.02151 14.3977 9.07406 14.4128 9.11675 14.4399C9.15944 14.467 9.17915 14.5153 9.17915 14.5846V14.8015C9.17915 14.8708 9.15944 14.919 9.11675 14.9462C9.07406 14.9733 9.0248 14.9883 8.9624 14.9883H8.17422C8.11182 15.0004 8.05928 14.9853 8.0133 14.9552Z" fill="white"/>
<path d="M10.2692 14.9548C10.2265 14.9246 10.2035 14.8795 10.2002 14.8192V14.0056H10.4268V14.7348C10.4301 14.7649 10.4366 14.783 10.4465 14.7951C10.4564 14.8041 10.4761 14.8101 10.499 14.8132H11.1329C11.1526 14.8132 11.169 14.8102 11.1788 14.8072C11.1887 14.8042 11.1986 14.7951 11.2051 14.783C11.2117 14.771 11.215 14.7499 11.215 14.7198V14.0056H11.4317V14.8132C11.4317 14.8825 11.412 14.9307 11.3693 14.9578C11.3266 14.9849 11.2774 15 11.215 15H10.4268C10.3644 15 10.3119 14.9849 10.2692 14.9548Z" fill="white"/>
<path d="M12.9492 14.0056H13.2677L13.8227 15H13.56L13.4549 14.8132H12.8933L12.9984 14.6233H13.3465L13.1068 14.1954L12.6569 15H12.3942L12.9492 14.0056Z" fill="white"/>
<path d="M14.8308 14.0056H15.0574V14.8132H15.9999V15H14.8308V14.0056Z" fill="white"/>
<path d="M8.60166 9.73294L8.97668 8.32624L8.45782 6.2884L8.55029 4.64637L7.85676 2.539L9.15135 1.26067C8.98696 1.21253 8.73523 1.18579 8.42699 1.18579C6.9115 1.18579 4.03464 1.82763 3.5055 3.50176C3.05856 4.9245 3.3411 5.18123 3.1202 5.44867C2.90444 5.7161 2.00542 6.55584 2.00028 6.78048C1.98487 7.26721 2.61161 6.99443 2.65271 7.37418C2.68354 7.65231 2.46777 7.67371 2.52942 7.85021C2.5551 7.92509 2.8171 8.05346 2.80683 8.0802C2.79656 8.10695 2.48832 8.25671 2.52942 8.46531C2.57565 8.6739 2.64244 8.64716 2.64244 8.83436C2.64244 9.21947 2.31879 9.76503 2.50887 10.0378C2.8582 10.5299 3.6853 10.4497 4.42507 10.3641C4.93879 10.3052 5.40628 10.2464 5.63746 10.3801C8.17013 11.8671 6.05358 12.5624 7.36358 12.7335L10.225 12.3912L8.60166 9.73294Z" fill="url(#paint0_linear_213_4987)"/>
<path fill-rule="evenodd" clip-rule="evenodd" d="M7.48191 1.55257C7.50633 1.55761 7.52685 1.57456 7.53691 1.59799L7.92734 2.50727C7.93654 2.52869 7.936 2.55322 7.92586 2.5742C7.91572 2.59517 7.89703 2.61042 7.87486 2.6158L6.11278 3.04369C6.07907 3.05188 6.04422 3.03579 6.02776 3.00445C6.0113 2.9731 6.01733 2.9343 6.04247 2.9098L7.41412 1.57264C7.4322 1.55501 7.45748 1.54752 7.48191 1.55257ZM6.35411 2.82314L7.74992 2.4842L7.44065 1.76393L6.35411 2.82314Z" fill="white"/>
<path fill-rule="evenodd" clip-rule="evenodd" d="M7.83228 2.46437C7.87237 2.45044 7.91585 2.47259 7.92938 2.51382L8.62291 4.62654C8.63645 4.66778 8.61492 4.71249 8.57483 4.72641C8.53474 4.74034 8.49126 4.71819 8.47773 4.67696L7.7842 2.56424C7.77066 2.523 7.79219 2.47829 7.83228 2.46437Z" fill="white"/>
<path fill-rule="evenodd" clip-rule="evenodd" d="M9.15496 1.18171L9.41337 1.19249C9.56875 1.19892 9.77645 1.20744 9.98574 1.2158C10.1951 1.22415 10.4059 1.23234 10.5675 1.2381C10.6484 1.24098 10.7168 1.24325 10.7665 1.24463C10.7914 1.24532 10.8114 1.24579 10.8258 1.24599C10.8346 1.24612 10.8399 1.24612 10.8427 1.24611C10.8453 1.24611 10.8457 1.24611 10.8445 1.24623C10.8884 1.24166 10.913 1.2729 10.9191 1.28155C10.9271 1.29298 10.9316 1.30481 10.9339 1.31178C10.9391 1.32701 10.9428 1.3454 10.9458 1.36333C10.952 1.40046 10.9575 1.45164 10.9623 1.51043C10.9721 1.62874 10.9802 1.78605 10.9866 1.94241C10.993 2.09903 10.9979 2.25571 11.0011 2.37317C11.0027 2.43192 11.0039 2.4809 11.0047 2.5152L11.0056 2.55504L11.0059 2.56896C11.0065 2.5988 10.9907 2.62667 10.965 2.64058C10.9394 2.6545 10.9083 2.6523 10.8847 2.63492L9.10718 1.3245C9.07966 1.30421 9.06835 1.26774 9.07937 1.2348C9.09039 1.20187 9.12112 1.18028 9.15496 1.18171ZM10.8489 2.41463C10.8486 2.40279 10.8483 2.39043 10.8479 2.37761C10.8447 2.26056 10.8399 2.10468 10.8335 1.94907C10.8271 1.79321 10.8191 1.63862 10.8096 1.52377C10.8055 1.47378 10.8012 1.43282 10.7968 1.40307C10.7865 1.40283 10.775 1.40254 10.7624 1.40218C10.7121 1.40079 10.6432 1.3985 10.5622 1.39562C10.4002 1.38984 10.1892 1.38165 9.9798 1.37329C9.77041 1.36493 9.56263 1.3564 9.40721 1.34997L9.40462 1.34986L10.8489 2.41463ZM10.7892 1.36371C10.7892 1.36365 10.7893 1.36376 10.7892 1.36371V1.36371Z" fill="white"/>
<path fill-rule="evenodd" clip-rule="evenodd" d="M10.7785 1.30376C10.7898 1.26184 10.8321 1.23732 10.8728 1.24901L12.4959 1.71424C12.4974 1.71467 12.4989 1.71516 12.5005 1.71569C12.5123 1.71986 12.5226 1.72679 12.5308 1.73558L13.5676 2.80432C13.5906 2.82798 13.5965 2.86394 13.5825 2.89407C13.5684 2.92419 13.5374 2.94193 13.5051 2.93833L10.9159 2.6495C10.882 2.64572 10.8546 2.61932 10.8487 2.58476C10.8428 2.5502 10.8599 2.51579 10.8905 2.50037L12.261 1.81054L10.8317 1.40083C10.7909 1.38915 10.7671 1.34569 10.7785 1.30376ZM12.4601 1.88581L11.1958 2.52218L13.3058 2.75756L12.4601 1.88581Z" fill="white"/>
<path fill-rule="evenodd" clip-rule="evenodd" d="M6.07171 2.89189C6.09933 2.88286 6.12955 2.89064 6.14978 2.91199L7.28512 4.11008C7.30709 4.13327 7.31304 4.16791 7.30012 4.19743C7.2872 4.22695 7.25804 4.24534 7.2266 4.2438L5.9166 4.17962C5.89485 4.17856 5.87456 4.16802 5.86082 4.15064C5.84707 4.13327 5.84116 4.1107 5.84457 4.08857L6.01924 2.95466C6.02378 2.92521 6.04408 2.90092 6.07171 2.89189ZM6.14668 3.13453L6.0093 4.02637L7.03965 4.07685L6.14668 3.13453Z" fill="white"/>
<path fill-rule="evenodd" clip-rule="evenodd" d="M7.88543 2.46577C7.92477 2.48181 7.94401 2.52762 7.92842 2.56807L7.30167 4.19406C7.28608 4.23452 7.24155 4.25432 7.20221 4.23828C7.16287 4.22224 7.14363 4.17644 7.15922 4.13598L7.78597 2.50999C7.80156 2.46953 7.84609 2.44973 7.88543 2.46577Z" fill="white"/>
<path fill-rule="evenodd" clip-rule="evenodd" d="M5.93069 4.02221C5.97262 4.02806 6.002 4.06776 5.99632 4.11089L5.94099 4.53058L7.21104 4.08981C7.23993 4.07978 7.27186 4.08834 7.29233 4.11159C7.3128 4.13485 7.31791 4.16838 7.30534 4.19696L6.85905 5.21172C6.85351 5.22508 6.84457 5.23633 6.83352 5.24455C6.83211 5.24561 6.83065 5.24662 6.82917 5.24757C6.81357 5.25759 6.79444 5.2619 6.77495 5.25827C6.77479 5.25824 6.77463 5.25821 6.77447 5.25818L6.73874 5.25133C6.71595 5.24697 6.68333 5.24075 6.64406 5.23333C6.56549 5.21847 6.46036 5.19878 6.35399 5.17943C6.24753 5.16007 6.14022 5.14112 6.05716 5.1277C6.01554 5.12098 5.98066 5.11575 5.95526 5.11255C5.94246 5.11093 5.93297 5.10995 5.92661 5.1095L5.92396 5.10935C5.89257 5.11355 5.86822 5.09822 5.85542 5.08592C5.84274 5.07373 5.83541 5.05973 5.8315 5.05132C5.82313 5.03338 5.81726 5.01176 5.81287 4.99237C5.80369 4.95189 5.79623 4.89923 5.79038 4.84915C5.78445 4.79839 5.77987 4.74757 5.77677 4.7096C5.77522 4.69058 5.77404 4.67468 5.77324 4.66351L5.77293 4.65905C5.77207 4.65385 5.77172 4.64853 5.7719 4.64318C5.77163 4.63507 5.77258 4.6271 5.77463 4.61949L5.84447 4.08971C5.85015 4.04658 5.88875 4.01636 5.93069 4.02221ZM5.93724 4.78179C5.93886 4.79773 5.94062 4.81407 5.94252 4.83035C5.94812 4.87823 5.95463 4.923 5.96166 4.95463C5.96561 4.95508 5.96969 4.95558 5.9739 4.95611C6.00188 4.95963 6.03877 4.96519 6.08094 4.972C6.15719 4.98432 6.25289 5.00111 6.34923 5.01853L5.93724 4.78179ZM6.04245 4.66171L6.75315 5.07009L7.09312 4.29707L6.04245 4.66171ZM5.9218 5.10925C5.92173 5.10925 5.92185 5.10925 5.9218 5.10925V5.10925Z" fill="white"/>
<path fill-rule="evenodd" clip-rule="evenodd" d="M8.51778 4.58063C8.54304 4.56828 8.57284 4.57107 8.59552 4.5879L11.7447 6.92526C11.774 6.94704 11.7845 6.98697 11.7699 7.02102C11.7553 7.05507 11.7195 7.07394 11.6841 7.06629L8.44245 6.36561C8.40535 6.35759 8.37952 6.32286 8.38172 6.28392L8.47419 4.64723C8.47582 4.61851 8.49252 4.59299 8.51778 4.58063ZM8.61907 4.79975L8.53853 6.22532L11.362 6.83562L8.61907 4.79975Z" fill="white"/>
<path fill-rule="evenodd" clip-rule="evenodd" d="M10.8616 2.52516C10.8864 2.48985 10.9343 2.48187 10.9686 2.50732L13.6126 4.46781L13.4368 2.86893C13.4321 2.82568 13.4623 2.78666 13.5044 2.78177C13.5464 2.77688 13.5844 2.80797 13.5891 2.85122L13.7843 4.62695C13.7843 4.62696 13.7843 4.62696 13.7843 4.62697C13.7844 4.62812 13.7845 4.62927 13.7846 4.63042M13.595 4.64902L10.879 2.63517C10.8447 2.60972 10.8369 2.56046 10.8616 2.52516M13.595 4.64902L11.6419 6.93724C11.624 6.95831 11.6182 6.98763 11.6269 7.01422C11.6355 7.04081 11.6572 7.06068 11.6839 7.06639L13.7337 7.50497C13.7565 7.50985 13.7801 7.50381 13.7981 7.48858C13.816 7.47334 13.8262 7.45055 13.8259 7.42663L13.7848 4.63479M13.6346 4.84151L13.6712 7.33063L11.8438 6.93962L13.6346 4.84151Z" fill="white"/>
<path fill-rule="evenodd" clip-rule="evenodd" d="M5.76515 5.5069C5.79149 5.52073 5.80775 5.54892 5.80691 5.57933L5.76067 7.25346C5.75995 7.27987 5.7464 7.30414 5.72461 7.31811C5.70281 7.33208 5.67566 7.33389 5.65229 7.32292L4.35256 6.71318C4.32811 6.70171 4.31129 6.67789 4.30824 6.65043C4.30518 6.62296 4.31635 6.59586 4.33766 6.57901L5.68362 5.51462C5.70707 5.49608 5.7388 5.49307 5.76515 5.5069ZM4.532 6.62413L5.61078 7.13022L5.64915 5.74069L4.532 6.62413Z" fill="white"/>
<path fill-rule="evenodd" clip-rule="evenodd" d="M4.33373 6.58265C4.36549 6.55389 4.41391 6.55705 4.44187 6.58972L5.08324 7.33904L5.66385 7.17553C5.69115 7.16784 5.72034 7.17626 5.73978 7.19742C5.75921 7.21858 5.76573 7.24903 5.75672 7.27662L5.40277 8.36082C5.40006 8.36975 5.39577 8.37829 5.38988 8.38599C5.38768 8.38886 5.3853 8.39157 5.38275 8.39409C5.37131 8.40543 5.35723 8.41242 5.34254 8.415C5.33801 8.41579 5.33337 8.41618 5.32865 8.41611C5.30975 8.41587 5.29217 8.40852 5.27871 8.39621C5.2781 8.39565 5.27749 8.39508 5.27689 8.39449L5.27656 8.39417C5.26737 8.38511 5.26032 8.37363 5.25639 8.36051L5.17042 8.07341L5.29521 8.19514L5.33276 8.0801L5.4024 8.31264M5.15384 7.48257L5.33276 8.0801L5.56571 7.36658L5.70432 7.32755L5.68409 7.25154L5.61145 7.22645L5.56571 7.36658L5.15384 7.48257ZM5.09997 7.49774L5.15384 7.48257L5.13056 7.40485C5.12729 7.3939 5.1218 7.38403 5.11466 7.37575M5.09997 7.49774L5.02473 7.58688L4.98896 7.46741L4.95557 7.42841L4.70152 7.7294C4.67464 7.76124 4.6769 7.80921 4.70665 7.83824L5.27656 8.39417C5.27726 8.39487 5.27798 8.39555 5.27871 8.39621M4.95557 7.42841L4.32685 6.69387C4.29889 6.6612 4.30197 6.6114 4.33373 6.58265M4.8653 7.77577L5.17042 8.07341L5.02473 7.58688L4.8653 7.77577ZM4.8653 7.77577L4.8121 7.72388L4.75938 7.78106L4.81724 7.83272L4.8653 7.77577Z" fill="white"/>
<path fill-rule="evenodd" clip-rule="evenodd" d="M4.76727 7.70207C4.80936 7.70649 4.84001 7.74516 4.83572 7.78846L4.77925 8.35835L5.31619 8.25917C5.34639 8.25359 5.37691 8.26707 5.39376 8.29344C5.41061 8.31981 5.41054 8.35398 5.39359 8.38028L4.87987 9.17723C4.86262 9.20398 4.83133 9.2173 4.80075 9.21091C4.77017 9.20452 4.74642 9.17969 4.74069 9.14814L4.61772 8.47066C4.61623 8.46338 4.61573 8.45576 4.61635 8.44798M4.6165 8.44626L4.68327 7.77248C4.68756 7.72918 4.72517 7.69766 4.76727 7.70207M4.78219 8.51794L4.85663 8.92806L5.16679 8.44689L4.78219 8.51794Z" fill="white"/>
<path fill-rule="evenodd" clip-rule="evenodd" d="M4.80695 9.05544C4.83962 9.05161 4.87101 9.06964 4.88498 9.10025L5.37816 10.1807C5.39131 10.2095 5.38632 10.2436 5.36549 10.2672C5.34467 10.2907 5.31211 10.2991 5.28297 10.2884L4.61512 10.0423C4.57895 10.029 4.55797 9.99017 4.56606 9.95154L4.74072 9.11715C4.74764 9.0841 4.77429 9.05927 4.80695 9.05544ZM4.84275 9.37858L4.72999 9.91722L5.16112 10.0761L4.84275 9.37858Z" fill="white"/>
<path fill-rule="evenodd" clip-rule="evenodd" d="M4.74211 9.11208C4.75375 9.07024 4.79616 9.04602 4.83685 9.05799L6.72589 9.61382C6.73644 9.6167 6.74626 9.62187 6.75467 9.62891C6.76562 9.63807 6.77419 9.65039 6.77892 9.66492C6.77979 9.66757 6.78052 9.67028 6.78111 9.67304L6.94018 10.3782C6.9458 10.4032 6.9393 10.4294 6.92274 10.4485C6.90618 10.4676 6.88163 10.4772 6.8569 10.4743L5.3003 10.2925C5.26499 10.2884 5.23706 10.2598 5.23287 10.2235C5.22867 10.1872 5.24931 10.1527 5.2827 10.1402L6.45851 9.69908L4.7947 9.20952C4.75402 9.19755 4.73047 9.15393 4.74211 9.11208ZM6.65121 9.79456L5.64068 10.1736L6.76639 10.3051L6.65121 9.79456Z" fill="white"/>
<path fill-rule="evenodd" clip-rule="evenodd" d="M6.64692 9.64092C6.66184 9.62204 6.68441 9.6113 6.70806 9.61184L8.60371 9.65462C8.60482 9.65465 8.60593 9.6547 8.60703 9.65477C8.62498 9.65598 8.64231 9.66368 8.65565 9.67711C8.66997 9.69155 8.67795 9.71085 8.67861 9.73074C8.67865 9.7322 8.67866 9.73366 8.67863 9.73514C8.67859 9.73701 8.67849 9.73886 8.67832 9.7407C8.67776 9.74696 8.67646 9.75321 8.67439 9.75931L8.6738 9.76105C8.6658 9.78303 8.64856 9.80028 8.62703 9.80792L8.47619 9.86554L8.49505 9.80982L8.19937 9.80315L6.92059 10.2916L6.80331 9.77163L8.19937 9.80315M6.79283 10.4212L7.51179 12.7631C7.52173 12.7955 7.55072 12.8177 7.58374 12.8182C7.61675 12.8186 7.64636 12.7973 7.65721 12.7653L8.6738 9.76105C8.67614 9.75463 8.67769 9.7478 8.67832 9.7407C8.67862 9.73737 8.67872 9.73405 8.67861 9.73074C8.67731 9.69035 8.64634 9.65739 8.60703 9.65477M6.7917 10.4173C6.79205 10.4186 6.79242 10.4199 6.79283 10.4212L6.7917 10.4173ZM6.79082 10.4137C6.79109 10.4149 6.79138 10.4161 6.7917 10.4173L6.79082 10.4137ZM6.79082 10.4137L6.63174 9.70843C6.6264 9.68473 6.632 9.65981 6.64692 9.64092M6.96065 10.4444L8.47619 9.86554L7.58839 12.4892L6.96065 10.4444ZM7.58839 12.4892L7.51249 12.7135L7.58485 12.7394L7.65791 12.7156L7.58839 12.4892Z" fill="white"/>
<path fill-rule="evenodd" clip-rule="evenodd" d="M5.94037 4.95681C5.98033 4.97114 6.00142 5.01607 5.98749 5.05716L5.85568 5.446L6.7623 5.10692C6.78799 5.09731 6.81671 5.10251 6.83767 5.12056C6.85863 5.13861 6.86865 5.16677 6.86397 5.19447L6.76636 5.77213C6.76286 5.79286 6.75144 5.81128 6.73466 5.8233C6.71788 5.83533 6.69712 5.83995 6.677 5.83614L5.7177 5.65454C5.7148 5.65405 5.7119 5.65337 5.70901 5.65252C5.69062 5.64708 5.67522 5.63486 5.66535 5.61875C5.65482 5.60151 5.65084 5.58022 5.65549 5.55931C5.65618 5.55616 5.65707 5.55306 5.65812 5.55005L5.8428 5.00527C5.85673 4.96418 5.90041 4.94248 5.94037 4.95681ZM6.02131 5.55176L6.62864 5.66673L6.69034 5.30154L6.02131 5.55176Z" fill="white"/>
<path fill-rule="evenodd" clip-rule="evenodd" d="M6.72411 5.13865C6.74704 5.10207 6.79446 5.09154 6.83002 5.11512L8.49963 6.22229C8.53161 6.2435 8.54362 6.28563 8.52782 6.32124C8.51203 6.35684 8.47322 6.37513 8.43669 6.36419L6.66947 5.83472C6.62884 5.82255 6.6055 5.77881 6.61734 5.73702C6.62917 5.69524 6.6717 5.67123 6.71232 5.6834L7.9744 6.06152L6.74699 5.24759C6.71142 5.224 6.70118 5.17523 6.72411 5.13865Z" fill="white"/>
<path fill-rule="evenodd" clip-rule="evenodd" d="M8.86427 8.28157C8.87942 8.24093 8.92373 8.22062 8.96324 8.2362L12.6929 9.70708C12.7275 9.72074 12.7477 9.75797 12.7407 9.79546C12.7338 9.83294 12.7017 9.8599 12.6646 9.85946L8.601 9.81132C8.55869 9.81082 8.52479 9.77514 8.52527 9.73162C8.52576 9.6881 8.56046 9.65322 8.60277 9.65372L12.2388 9.6968L8.90838 8.38337C8.86887 8.36778 8.84912 8.32221 8.86427 8.28157Z" fill="white"/>
<path fill-rule="evenodd" clip-rule="evenodd" d="M11.7289 6.91664C11.7489 6.92518 11.7645 6.94202 11.7717 6.96301L12.7375 9.755C12.7473 9.78308 12.7407 9.81439 12.7207 9.83592L10.2856 12.4514C10.2564 12.4828 10.2079 12.4839 10.1773 12.4538C10.1467 12.4237 10.1457 12.3738 10.175 12.3424L12.5773 9.76203L11.6558 7.09794L11.299 7.27182C11.0393 7.39842 10.6937 7.56706 10.3499 7.73519C10.006 7.90333 9.66402 8.07093 9.41153 8.19548C9.28526 8.25777 9.18153 8.30921 9.11121 8.34454C9.07596 8.36225 9.04948 8.37573 9.03282 8.38445C9.02834 8.38679 9.02486 8.38864 9.02228 8.39004C9.01494 8.3956 9.00651 8.3999 8.9972 8.40255C8.99573 8.40297 8.99225 8.40392 8.9878 8.40462C8.98548 8.40495 8.97981 8.40544 8.9764 8.40553C8.97097 8.40536 8.95637 8.40289 8.94744 8.39984C8.93266 8.3917 8.90719 8.36142 8.90035 8.33938C8.89949 8.32166 8.90587 8.29481 8.91036 8.28591C8.91741 8.27388 8.92617 8.26663 8.92735 8.26564C8.9274 8.2656 8.92733 8.26566 8.92735 8.26564C8.93375 8.26021 8.94102 8.25608 8.94192 8.25557C8.9471 8.25257 8.9547 8.24849 8.96333 8.24398C8.98117 8.23464 9.00861 8.22068 9.04395 8.20293C9.1148 8.16733 9.21893 8.11568 9.34527 8.05337C9.598 7.9287 9.94021 7.761 10.2841 7.59285C10.628 7.42468 10.9737 7.25602 11.2334 7.1294L11.6666 6.91826C11.6667 6.91825 11.6668 6.91819 11.6996 6.98942L11.6666 6.91826C11.6862 6.90873 11.7089 6.9081 11.7289 6.91664Z" fill="white"/>
<path fill-rule="evenodd" clip-rule="evenodd" d="M8.99719 8.2499C9.038 8.2614 9.06201 8.30476 9.05082 8.34673L8.6758 9.75343C8.66461 9.7954 8.62245 9.8201 8.58165 9.80859C8.54084 9.79708 8.51683 9.75372 8.52802 9.71175L8.90304 8.30506C8.91423 8.26308 8.95638 8.23839 8.99719 8.2499Z" fill="white"/>
<path fill-rule="evenodd" clip-rule="evenodd" d="M13.7825 7.35673C13.8208 7.37536 13.8371 7.42235 13.819 7.46168L12.735 9.81509C12.7169 9.85442 12.6712 9.8712 12.6329 9.85257C12.5947 9.83394 12.5784 9.78695 12.5965 9.74761L13.6805 7.39421C13.6986 7.35487 13.7443 7.33809 13.7825 7.35673Z" fill="white"/>
<path d="M12.9017 9.86677C12.8555 10.0005 12.7117 10.0754 12.5832 10.0272C12.4548 9.9791 12.3829 9.82933 12.4291 9.69562C12.4753 9.5619 12.6192 9.48702 12.7476 9.53516C12.8812 9.58329 12.948 9.73306 12.9017 9.86677Z" fill="white"/>
<path d="M11.9465 7.04207C11.9003 7.17578 11.7565 7.25066 11.628 7.20253C11.4996 7.15439 11.4277 7.00463 11.4739 6.87091C11.5201 6.73719 11.664 6.66231 11.7924 6.71045C11.926 6.75859 11.9928 6.90835 11.9465 7.04207Z" fill="white"/>
<path d="M13.9858 7.51326C13.9396 7.64697 13.7958 7.72186 13.6673 7.67372C13.5389 7.62558 13.467 7.47582 13.5132 7.3421C13.5595 7.20838 13.7033 7.1335 13.8317 7.18164C13.9602 7.22978 14.0321 7.37954 13.9858 7.51326Z" fill="white"/>
<path d="M13.9447 4.72151C13.8985 4.85523 13.7546 4.93011 13.6262 4.88197C13.4978 4.83383 13.4258 4.68407 13.4721 4.55035C13.5183 4.41664 13.6622 4.34176 13.7906 4.38989C13.9242 4.43803 13.9909 4.58245 13.9447 4.72151Z" fill="white"/>
<path d="M12.7119 3.83308C12.6657 3.9668 12.5218 4.04168 12.3934 3.99354C12.265 3.9454 12.1931 3.79564 12.2393 3.66193C12.2855 3.52821 12.4294 3.45333 12.5578 3.50147C12.6914 3.5496 12.7582 3.69402 12.7119 3.83308Z" fill="white"/>
<path d="M11.1603 2.65706C11.114 2.79077 10.9702 2.86565 10.8418 2.81752C10.7133 2.76938 10.6414 2.61962 10.6877 2.4859C10.7339 2.35218 10.8777 2.2773 11.0062 2.32544C11.1346 2.37358 11.2014 2.52334 11.1603 2.65706Z" fill="white"/>
<path d="M9.38807 1.34627C9.34183 1.47998 9.19799 1.55486 9.06956 1.50673C8.94112 1.45859 8.8692 1.30883 8.91544 1.17511C8.96167 1.04139 9.10552 0.966511 9.23395 1.01465C9.36238 1.06279 9.42916 1.2072 9.38807 1.34627Z" fill="white"/>
<path d="M11.0836 1.41048C11.0374 1.54419 10.8935 1.61907 10.7651 1.57093C10.6367 1.5228 10.5648 1.37303 10.611 1.23932C10.6572 1.1056 10.8011 1.03072 10.9295 1.07886C11.0631 1.127 11.1299 1.27676 11.0836 1.41048Z" fill="white"/>
<path d="M12.7119 1.87483C12.6657 2.00855 12.5218 2.08343 12.3934 2.03529C12.265 1.98715 12.1931 1.83739 12.2393 1.70367C12.2855 1.56996 12.4294 1.49508 12.5578 1.54321C12.6914 1.59135 12.7582 1.74111 12.7119 1.87483Z" fill="white"/>
<path d="M13.7498 2.9344C13.7035 3.06812 13.5597 3.143 13.4312 3.09486C13.3028 3.04672 13.2309 2.89696 13.2771 2.76324C13.3234 2.62953 13.4672 2.55465 13.5956 2.60278C13.7292 2.65092 13.796 2.80068 13.7498 2.9344Z" fill="white"/>
<path d="M7.82093 12.8248C7.77469 12.9585 7.63085 13.0334 7.50242 12.9852C7.37399 12.9371 7.30206 12.7873 7.3483 12.6536C7.39453 12.5199 7.53838 12.445 7.66681 12.4932C7.79524 12.5413 7.86716 12.6911 7.82093 12.8248Z" fill="white"/>
<path fill-rule="evenodd" clip-rule="evenodd" d="M7.15823 4.13817C7.17251 4.0972 7.21637 4.0759 7.25621 4.09058L8.57648 4.57731C8.60773 4.58883 8.62821 4.61973 8.62722 4.65385C8.62622 4.68797 8.60398 4.71756 8.57212 4.72713L6.81004 5.25665C6.76942 5.26886 6.72688 5.24489 6.71501 5.20311C6.70314 5.16133 6.72645 5.11757 6.76707 5.10537L8.30284 4.64385L7.20451 4.23895C7.16467 4.22426 7.14395 4.17915 7.15823 4.13817Z" fill="white"/>
<path fill-rule="evenodd" clip-rule="evenodd" d="M7.78052 2.53821C7.78095 2.49469 7.8156 2.45977 7.85792 2.46021L10.9249 2.4923C10.9563 2.49263 10.9843 2.51267 10.9956 2.54284C11.0069 2.57302 10.9991 2.60722 10.976 2.6291L8.9996 4.49883L12.4576 3.64444C12.4836 3.63803 12.5109 3.64596 12.5298 3.66538C12.5486 3.68479 12.5563 3.7129 12.55 3.73957L11.7897 6.97551C11.7798 7.01781 11.7384 7.04382 11.6972 7.0336C11.6561 7.02337 11.6308 6.98079 11.6407 6.93849L12.3716 3.82778L8.74837 4.723C8.71443 4.73139 8.67927 4.71512 8.66286 4.68344C8.64644 4.65177 8.65291 4.61268 8.6786 4.58838L10.7298 2.64788L7.85636 2.61781C7.81404 2.61737 7.78009 2.58173 7.78052 2.53821Z" fill="white"/>
<path fill-rule="evenodd" clip-rule="evenodd" d="M6.70243 5.68077C6.73122 5.68512 6.75513 5.70587 6.76414 5.73433L7.50278 8.06622L8.39007 6.25283C8.40909 6.21395 8.45516 6.19829 8.49295 6.21786C8.53075 6.23743 8.54597 6.2848 8.52695 6.32368L7.57789 8.26331L8.66261 9.68412C8.68875 9.71835 8.68295 9.76789 8.64967 9.79477C8.61639 9.82165 8.56823 9.81569 8.54209 9.78146L7.49789 8.41372L6.77336 9.72885C6.76172 9.74999 6.74124 9.76442 6.71787 9.76796C6.6945 9.7715 6.67085 9.76376 6.65377 9.74697L5.27698 8.39376C5.25464 8.3718 5.24731 8.33819 5.2584 8.30852C5.26948 8.27885 5.29681 8.25893 5.3277 8.25802L7.20448 8.20219L5.64742 7.32004C5.62842 7.30927 5.61475 7.29073 5.60979 7.269C5.60484 7.24728 5.60907 7.22441 5.62144 7.20608L6.62835 5.71381C6.64494 5.68922 6.67364 5.67642 6.70243 5.68077ZM7.35388 8.35542L5.51542 8.41011L6.68853 9.56314L7.35388 8.35542ZM7.55372 8.31238C7.55469 8.31067 7.5556 8.30892 7.55645 8.30713L7.55372 8.31238ZM7.35463 8.10732L6.66625 5.93407L5.79578 7.22415L7.35463 8.10732Z" fill="white"/>
<path fill-rule="evenodd" clip-rule="evenodd" d="M7.41069 8.26942C7.41217 8.22592 7.44765 8.19189 7.48994 8.19341L8.97974 8.24689C9.02203 8.24841 9.05512 8.2849 9.05364 8.3284C9.05217 8.3719 9.01669 8.40593 8.9744 8.40441L7.48459 8.35092C7.4423 8.3494 7.40922 8.31291 7.41069 8.26942Z" fill="white"/>
<path fill-rule="evenodd" clip-rule="evenodd" d="M8.56111 9.6664C8.59693 9.64323 8.64423 9.65432 8.66676 9.69116L10.2953 12.3548C10.3178 12.3916 10.307 12.4403 10.2712 12.4635C10.2354 12.4866 10.1881 12.4755 10.1655 12.4387L8.53704 9.77506C8.51451 9.73822 8.52529 9.68957 8.56111 9.6664Z" fill="white"/>
<path d="M10.4768 12.4503C10.4306 12.584 10.2867 12.6589 10.1583 12.6107C10.0299 12.5626 9.95795 12.4128 10.0042 12.2791C10.0504 12.1454 10.1943 12.0705 10.3227 12.1187C10.4563 12.1668 10.523 12.3166 10.4768 12.4503Z" fill="white"/>
<path d="M8.83814 4.72151C8.7919 4.85523 8.64806 4.93011 8.51963 4.88197C8.3912 4.83383 8.31928 4.68407 8.36551 4.55035C8.41175 4.41664 8.55559 4.34176 8.68402 4.38989C8.81245 4.43803 8.88437 4.58245 8.83814 4.72151Z" fill="white"/>
<path d="M8.09327 2.62459C8.04703 2.7583 7.90319 2.83318 7.77476 2.78505C7.64632 2.73691 7.5744 2.58715 7.62064 2.45343C7.66687 2.31971 7.81072 2.24483 7.93915 2.29297C8.06758 2.34111 8.1395 2.49087 8.09327 2.62459Z" fill="white"/>
<path d="M8.83814 9.81868C8.7919 9.95239 8.64806 10.0273 8.51963 9.97914C8.3912 9.931 8.31928 9.78124 8.36551 9.64752C8.41175 9.5138 8.55559 9.43892 8.68402 9.48706C8.81245 9.5352 8.88437 9.68496 8.83814 9.81868Z" fill="white"/>
<path d="M9.2135 8.41243C9.16727 8.54614 9.02343 8.62103 8.89499 8.57289C8.76656 8.52475 8.69464 8.37499 8.74088 8.24127C8.78711 8.10755 8.93095 8.03267 9.05939 8.08081C9.19296 8.12895 9.25974 8.27871 9.2135 8.41243Z" fill="white"/>
<path d="M8.6941 6.37923C8.64786 6.51294 8.50402 6.58782 8.37559 6.53968C8.24715 6.49155 8.17523 6.34178 8.22147 6.20807C8.2677 6.07435 8.41155 5.99947 8.53998 6.04761C8.66841 6.09575 8.74033 6.24016 8.6941 6.37923Z" fill="white"/>
<path fill-rule="evenodd" clip-rule="evenodd" d="M8.43882 6.21206C8.47975 6.20104 8.52163 6.22623 8.53235 6.26833L9.05121 8.30617C9.05462 8.31956 9.05454 8.33363 9.05098 8.34698L8.67596 9.75367C8.66477 9.79564 8.62262 9.82034 8.58181 9.80883C8.541 9.79732 8.51699 9.75397 8.52818 9.71199L8.89777 8.32567L8.38411 6.30826C8.37339 6.26616 8.39788 6.22309 8.43882 6.21206Z" fill="white"/>
<path fill-rule="evenodd" clip-rule="evenodd" d="M8.43882 6.21206C8.47975 6.20104 8.52163 6.22623 8.53235 6.26833L9.05121 8.30617C9.05462 8.31956 9.05454 8.33363 9.05098 8.34698L8.67596 9.75367C8.66477 9.79564 8.62262 9.82034 8.58181 9.80883C8.541 9.79732 8.51699 9.75397 8.52818 9.71199L8.89777 8.32567L8.38411 6.30826C8.37339 6.26616 8.39788 6.22309 8.43882 6.21206Z" fill="white"/>
<path fill-rule="evenodd" clip-rule="evenodd" d="M9.207 1.20587C9.2363 1.23727 9.23531 1.28715 9.20479 1.31729L7.9102 2.59562C7.87967 2.62577 7.83117 2.62475 7.80187 2.59335C7.77256 2.56196 7.77355 2.51207 7.80407 2.48193L9.09866 1.2036C9.12919 1.17346 9.17769 1.17447 9.207 1.20587Z" fill="white"/>
<path fill-rule="evenodd" clip-rule="evenodd" d="M10.3221 12.3535C10.3278 12.3967 10.2985 12.4364 10.2565 12.4423L7.59543 12.8167C7.55351 12.8226 7.51487 12.7924 7.50914 12.7493C7.5034 12.7062 7.53274 12.6664 7.57467 12.6605L10.2358 12.2861C10.2777 12.2802 10.3163 12.3104 10.3221 12.3535Z" fill="white"/>
<defs>
<linearGradient id="paint0_linear_213_4987" x1="1.29719" y1="2.55029" x2="12.0651" y2="9.39802" gradientUnits="userSpaceOnUse">
<stop offset="0.2577" stop-color="white"/>
<stop offset="0.7491" stop-color="#747474"/>
</linearGradient>
</defs>
</svg>
