<svg width="512" height="512" viewBox="0 0 512 512" fill="none" xmlns="http://www.w3.org/2000/svg">
<rect width="512" height="512" rx="40" fill="#1B1B1B"/>
<path d="M57.4669 371.884H66.0493L80.8496 405.331H73.756L70.9535 399.047H56.0657L58.8681 392.661H68.1511L61.7581 378.269L49.7603 405.331H42.6667L57.4669 371.884Z" fill="white"/>
<path d="M107.737 371.878H113.78V399.042H138.826V405.326H107.737V371.878Z" fill="white"/>
<path d="M156.251 371.878H163.257L175.255 399.042L187.253 371.878H194.347L179.546 405.326H170.964L156.251 371.878Z" fill="white"/>
<path d="M227.277 371.878H221.234V405.326H227.277V371.878Z" fill="white"/>
<path d="M256.352 403.808C255.214 402.794 254.601 401.274 254.513 399.247V395.395H260.556V396.308C260.643 397.321 260.818 397.929 261.169 398.335C261.432 398.639 261.957 398.842 262.57 398.943H279.472C279.998 398.943 280.435 398.842 280.698 398.74C280.961 398.639 281.224 398.335 281.399 397.929C281.574 397.524 281.661 396.814 281.661 395.801V394.686C281.661 393.774 281.574 393.064 281.399 392.558C281.224 392.152 281.048 391.848 280.698 391.747C280.435 391.645 279.998 391.544 279.472 391.544H260.556C259.505 391.544 258.542 391.24 257.666 390.733C256.79 390.226 256.002 389.415 255.476 388.402C254.951 387.388 254.601 386.172 254.601 384.854V378.368C254.601 376.949 254.951 375.834 255.476 374.82C256.002 373.807 256.79 372.996 257.666 372.489C258.542 371.982 259.505 371.678 260.556 371.678H281.661C283.238 371.678 284.639 372.185 285.777 373.097C286.916 374.009 287.441 375.631 287.441 377.962V381.611H281.661V381.307C281.661 380.293 281.574 379.584 281.399 379.077C281.224 378.57 281.048 378.266 280.786 378.165C280.523 378.064 280.085 377.962 279.472 377.962H262.57C261.694 378.064 261.169 378.368 260.994 378.976C260.731 379.584 260.643 380.395 260.643 381.51C260.643 382.625 260.731 383.537 260.994 384.044C261.169 384.652 261.694 384.956 262.482 385.057H281.661C283.238 385.057 284.639 385.564 285.777 386.476C286.916 387.388 287.441 389.01 287.441 391.341V398.639C287.441 400.97 286.916 402.592 285.777 403.504C284.639 404.416 283.325 404.923 281.661 404.923H260.643C258.979 405.328 257.578 404.822 256.352 403.808Z" fill="white"/>
<path d="M316.515 403.805C315.376 402.792 314.763 401.271 314.676 399.244V371.878H320.719V396.406C320.806 397.42 320.981 398.028 321.244 398.433C321.507 398.737 322.032 398.94 322.645 399.042H339.547C340.073 399.042 340.511 398.941 340.773 398.84C341.036 398.739 341.299 398.433 341.474 398.028C341.649 397.623 341.737 396.913 341.737 395.9V371.878H347.517V399.042C347.517 401.373 346.991 402.995 345.853 403.908C344.714 404.82 343.401 405.326 341.737 405.326H320.719C319.055 405.326 317.653 404.819 316.515 403.805Z" fill="white"/>
<path d="M387.976 371.878H396.471L411.271 405.326H404.265L401.463 399.042H386.487L389.29 392.656H398.573L392.18 378.264L380.182 405.326H373.176L387.976 371.878Z" fill="white"/>
<path d="M438.158 371.878H444.2V399.042H469.334V405.326H438.158V371.878Z" fill="white"/>
<path d="M251.886 272.149L258.279 245.493L249.433 206.876L251.01 175.76L239.187 135.826L261.256 111.602C258.454 110.69 254.162 110.183 248.908 110.183C223.073 110.183 174.031 122.346 165.011 154.07C157.392 181.031 162.208 185.896 158.443 190.963C154.764 196.031 139.439 211.944 139.351 216.201C139.088 225.424 149.773 220.255 150.473 227.452C150.999 232.722 147.32 233.127 148.371 236.472C148.809 237.891 153.276 240.324 153.1 240.831C152.925 241.337 147.671 244.175 148.371 248.128C149.16 252.081 150.298 251.574 150.298 255.122C150.298 262.419 144.781 272.758 148.021 277.927C153.976 287.252 168.076 285.731 180.687 284.109C189.444 282.995 197.414 281.88 201.355 284.414C244.529 312.59 208.448 325.767 230.78 329.01L279.559 322.523L251.886 272.149Z" fill="url(#paint0_linear_210_3941)"/>
<path fill-rule="evenodd" clip-rule="evenodd" d="M232.787 117.142C233.203 117.238 233.553 117.559 233.725 118.003L240.38 135.233C240.537 135.639 240.528 136.104 240.355 136.502C240.182 136.899 239.864 137.188 239.486 137.29L209.447 145.398C208.873 145.554 208.279 145.249 207.998 144.655C207.718 144.061 207.82 143.326 208.249 142.861L231.631 117.522C231.94 117.188 232.371 117.046 232.787 117.142ZM213.562 141.219L237.356 134.796L232.084 121.147L213.562 141.219Z" fill="white"/>
<path fill-rule="evenodd" clip-rule="evenodd" d="M238.766 134.411C239.45 134.147 240.191 134.566 240.422 135.348L252.244 175.383C252.475 176.165 252.108 177.012 251.425 177.276C250.741 177.54 250 177.12 249.769 176.339L237.947 136.303C237.716 135.522 238.083 134.674 238.766 134.411Z" fill="white"/>
<path fill-rule="evenodd" clip-rule="evenodd" d="M261.306 110.114L265.712 110.318C268.36 110.44 271.901 110.602 275.469 110.76C279.037 110.918 282.631 111.074 285.387 111.183C286.765 111.237 287.931 111.28 288.779 111.306C289.203 111.32 289.543 111.328 289.789 111.332C289.939 111.335 290.03 111.335 290.077 111.335C290.122 111.334 290.128 111.334 290.109 111.337C290.856 111.25 291.276 111.842 291.379 112.006C291.517 112.223 291.592 112.447 291.633 112.579C291.721 112.868 291.785 113.216 291.836 113.556C291.941 114.259 292.034 115.229 292.116 116.343C292.283 118.585 292.421 121.566 292.531 124.529C292.64 127.497 292.723 130.466 292.777 132.692C292.805 133.805 292.825 134.733 292.839 135.383L292.855 136.138L292.86 136.402C292.87 136.968 292.6 137.496 292.163 137.759C291.725 138.023 291.195 137.982 290.793 137.652L260.492 112.82C260.023 112.435 259.83 111.744 260.018 111.12C260.206 110.496 260.73 110.087 261.306 110.114ZM290.183 133.478C290.178 133.253 290.172 133.019 290.166 132.776C290.112 130.558 290.03 127.604 289.921 124.655C289.811 121.702 289.675 118.773 289.514 116.596C289.443 115.649 289.37 114.873 289.296 114.309C289.12 114.304 288.924 114.299 288.708 114.292C287.851 114.266 286.677 114.222 285.296 114.168C282.535 114.058 278.937 113.903 275.368 113.745C271.798 113.586 268.256 113.425 265.606 113.303L265.562 113.301L290.183 133.478ZM289.166 113.563C289.166 113.562 289.166 113.564 289.166 113.563V113.563Z" fill="white"/>
<path fill-rule="evenodd" clip-rule="evenodd" d="M288.984 112.415C289.178 111.621 289.898 111.156 290.593 111.378L318.261 120.194C318.287 120.202 318.313 120.211 318.339 120.221C318.542 120.3 318.717 120.432 318.858 120.598L336.531 140.851C336.922 141.299 337.024 141.98 336.784 142.551C336.545 143.122 336.016 143.458 335.466 143.39L291.328 137.917C290.75 137.845 290.283 137.345 290.182 136.69C290.082 136.035 290.372 135.383 290.895 135.091L314.258 122.019L289.892 114.255C289.197 114.033 288.791 113.21 288.984 112.415ZM317.652 123.445L296.099 135.504L332.068 139.964L317.652 123.445Z" fill="white"/>
<path fill-rule="evenodd" clip-rule="evenodd" d="M208.753 142.515C209.224 142.344 209.739 142.491 210.084 142.896L229.438 165.599C229.812 166.039 229.914 166.695 229.694 167.255C229.473 167.814 228.976 168.162 228.44 168.133L206.109 166.917C205.738 166.897 205.392 166.697 205.158 166.368C204.923 166.039 204.823 165.611 204.881 165.192L207.858 143.704C207.936 143.146 208.282 142.686 208.753 142.515ZM210.031 147.113L207.689 164.013L225.253 164.97L210.031 147.113Z" fill="white"/>
<path fill-rule="evenodd" clip-rule="evenodd" d="M239.666 134.437C240.337 134.741 240.665 135.609 240.399 136.376L229.715 167.188C229.449 167.955 228.69 168.33 228.019 168.026C227.349 167.722 227.02 166.854 227.286 166.087L237.971 135.275C238.236 134.508 238.995 134.133 239.666 134.437Z" fill="white"/>
<path fill-rule="evenodd" clip-rule="evenodd" d="M206.344 163.944C207.059 164.055 207.56 164.808 207.463 165.625L206.52 173.578L228.171 165.225C228.663 165.035 229.208 165.198 229.557 165.638C229.905 166.079 229.993 166.714 229.778 167.256L222.17 186.485C222.076 186.739 221.923 186.952 221.735 187.108C221.711 187.128 221.686 187.147 221.661 187.165C221.395 187.355 221.069 187.436 220.737 187.367C220.734 187.367 220.731 187.366 220.729 187.366L220.119 187.236C219.731 187.153 219.175 187.036 218.505 186.895C217.166 186.613 215.374 186.24 213.561 185.874C211.746 185.507 209.916 185.148 208.5 184.893C207.791 184.766 207.196 184.667 206.763 184.606C206.545 184.575 206.383 184.557 206.275 184.548L206.23 184.545C205.695 184.625 205.28 184.335 205.061 184.102C204.845 183.871 204.72 183.605 204.654 183.446C204.511 183.106 204.411 182.696 204.336 182.329C204.179 181.562 204.052 180.564 203.953 179.615C203.852 178.653 203.773 177.69 203.721 176.97C203.694 176.61 203.674 176.309 203.66 176.097L203.655 176.012C203.64 175.914 203.634 175.813 203.637 175.712C203.633 175.558 203.649 175.407 203.684 175.263L204.875 165.224C204.972 164.406 205.63 163.834 206.344 163.944ZM206.456 178.338C206.484 178.64 206.514 178.95 206.546 179.258C206.642 180.166 206.753 181.014 206.872 181.614C206.94 181.622 207.009 181.632 207.081 181.642C207.558 181.708 208.187 181.814 208.906 181.943C210.206 182.176 211.837 182.494 213.479 182.824L206.456 178.338ZM208.25 176.063L220.365 183.802L226.161 169.153L208.25 176.063ZM206.193 184.544C206.192 184.544 206.194 184.544 206.193 184.544V184.544Z" fill="white"/>
<path fill-rule="evenodd" clip-rule="evenodd" d="M250.447 174.521C250.877 174.287 251.385 174.34 251.772 174.659L305.456 218.952C305.956 219.364 306.135 220.121 305.886 220.766C305.637 221.411 305.026 221.769 304.423 221.624L249.163 208.346C248.53 208.194 248.09 207.536 248.127 206.798L249.704 175.783C249.731 175.239 250.016 174.755 250.447 174.521ZM252.173 178.674L250.8 205.688L298.933 217.253L252.173 178.674Z" fill="white"/>
<path fill-rule="evenodd" clip-rule="evenodd" d="M290.407 135.562C290.829 134.893 291.645 134.742 292.23 135.224L337.303 172.375L334.307 142.077C334.225 141.257 334.741 140.518 335.458 140.425C336.174 140.332 336.821 140.922 336.902 141.741L340.23 175.391C340.23 175.391 340.23 175.391 340.23 175.391C340.232 175.413 340.234 175.435 340.235 175.457M337.002 175.809L290.703 137.647C290.117 137.165 289.985 136.231 290.407 135.562M337.002 175.809L303.709 219.17C303.402 219.57 303.304 220.125 303.452 220.629C303.599 221.133 303.969 221.509 304.424 221.618L339.367 229.929C339.755 230.021 340.159 229.907 340.465 229.618C340.77 229.329 340.945 228.897 340.939 228.444L340.238 175.539M337.678 179.457L338.302 226.625L307.15 219.215L337.678 179.457Z" fill="white"/>
<path fill-rule="evenodd" clip-rule="evenodd" d="M203.524 192.072C203.973 192.334 204.25 192.868 204.236 193.445L203.448 225.169C203.436 225.669 203.205 226.129 202.833 226.394C202.462 226.659 201.999 226.693 201.6 226.485L179.444 214.931C179.027 214.713 178.74 214.262 178.688 213.742C178.636 213.221 178.826 212.708 179.19 212.388L202.134 192.218C202.534 191.867 203.075 191.81 203.524 192.072ZM182.503 213.243L200.893 222.834L201.547 196.502L182.503 213.243Z" fill="white"/>
<path fill-rule="evenodd" clip-rule="evenodd" d="M179.123 212.45C179.664 211.905 180.49 211.965 180.966 212.584L191.9 226.783L201.797 223.685C202.263 223.539 202.76 223.699 203.092 224.099C203.423 224.5 203.534 225.077 203.381 225.6L197.347 246.146C197.301 246.315 197.227 246.477 197.127 246.623C197.09 246.677 197.049 246.728 197.006 246.776C196.811 246.991 196.571 247.124 196.32 247.172C196.243 247.187 196.164 247.195 196.083 247.193C195.761 247.189 195.461 247.049 195.232 246.816C195.221 246.806 195.211 246.795 195.201 246.784L195.195 246.778C195.039 246.606 194.918 246.389 194.851 246.14L193.386 240.699L195.513 243.006L196.153 240.826L197.34 245.233M193.103 229.503L196.153 240.826L200.124 227.305L202.487 226.565L202.142 225.125L200.904 224.65L200.124 227.305L193.103 229.503ZM192.185 229.791L193.103 229.503L192.706 228.03C192.651 227.823 192.557 227.636 192.435 227.479M192.185 229.791L190.902 231.48L190.293 229.216L189.723 228.477L185.393 234.18C184.934 234.784 184.973 235.693 185.48 236.243L195.195 246.778C195.207 246.791 195.219 246.804 195.232 246.816M189.723 228.477L179.005 214.557C178.529 213.938 178.581 212.995 179.123 212.45M188.185 235.059L193.386 240.699L190.902 231.48L188.185 235.059ZM188.185 235.059L187.278 234.076L186.379 235.159L187.365 236.138L188.185 235.059Z" fill="white"/>
<path fill-rule="evenodd" clip-rule="evenodd" d="M186.509 233.668C187.227 233.752 187.75 234.485 187.676 235.306L186.714 246.105L195.867 244.225C196.382 244.12 196.902 244.375 197.189 244.875C197.477 245.374 197.475 246.022 197.186 246.52L188.429 261.622C188.135 262.129 187.602 262.382 187.08 262.261C186.559 262.139 186.154 261.669 186.056 261.071L183.96 248.233C183.935 248.095 183.926 247.951 183.937 247.803M183.939 247.771L185.078 235.003C185.151 234.182 185.792 233.585 186.509 233.668M186.764 249.129L188.033 256.901L193.32 247.783L186.764 249.129Z" fill="white"/>
<path fill-rule="evenodd" clip-rule="evenodd" d="M187.193 259.315C187.75 259.243 188.285 259.584 188.523 260.164L196.931 280.638C197.155 281.184 197.07 281.831 196.715 282.278C196.36 282.724 195.805 282.882 195.308 282.679L183.923 278.016C183.307 277.764 182.949 277.028 183.087 276.296L186.064 260.485C186.182 259.858 186.637 259.388 187.193 259.315ZM187.803 265.439L185.881 275.646L193.231 278.656L187.803 265.439Z" fill="white"/>
<path fill-rule="evenodd" clip-rule="evenodd" d="M186.085 260.389C186.283 259.596 187.006 259.137 187.7 259.364L219.902 269.896C220.082 269.951 220.249 270.049 220.393 270.182C220.58 270.356 220.726 270.589 220.806 270.865C220.821 270.915 220.834 270.966 220.844 271.019L223.555 284.382C223.651 284.854 223.54 285.351 223.258 285.713C222.976 286.075 222.557 286.258 222.136 286.203L195.6 282.757C194.998 282.679 194.522 282.138 194.451 281.45C194.379 280.762 194.731 280.108 195.3 279.87L215.344 271.512L186.981 262.235C186.288 262.008 185.886 261.182 186.085 260.389ZM218.629 273.321L201.403 280.505L220.593 282.997L218.629 273.321Z" fill="white"/>
<path fill-rule="evenodd" clip-rule="evenodd" d="M218.556 270.406C218.81 270.048 219.195 269.844 219.598 269.855L251.913 270.665C251.932 270.666 251.951 270.667 251.97 270.668C252.276 270.691 252.571 270.837 252.799 271.092C253.043 271.365 253.179 271.731 253.19 272.108C253.191 272.135 253.191 272.163 253.19 272.191C253.19 272.227 253.188 272.262 253.185 272.296C253.175 272.415 253.153 272.534 253.118 272.649L253.108 272.682C252.972 273.099 252.678 273.426 252.311 273.57L249.739 274.662L250.061 273.606L245.02 273.48L223.221 282.736L221.222 272.883L245.02 273.48M221.043 285.192L233.299 329.57C233.469 330.184 233.963 330.604 234.526 330.614C235.088 330.623 235.593 330.219 235.778 329.611L253.108 272.682C253.148 272.561 253.174 272.431 253.185 272.296C253.19 272.234 253.192 272.171 253.19 272.108C253.168 271.343 252.64 270.718 251.97 270.668M221.024 285.118C221.03 285.143 221.036 285.168 221.043 285.192L221.024 285.118ZM221.009 285.049C221.013 285.072 221.018 285.095 221.024 285.118L221.009 285.049ZM221.009 285.049L218.297 271.685C218.206 271.236 218.301 270.764 218.556 270.406M223.904 285.632L249.739 274.662L234.605 324.379L223.904 285.632ZM234.605 324.379L233.311 328.63L234.545 329.12L235.79 328.671L234.605 324.379Z" fill="white"/>
<path fill-rule="evenodd" clip-rule="evenodd" d="M206.512 181.655C207.193 181.926 207.552 182.778 207.315 183.556L205.068 190.925L220.523 184.499C220.961 184.317 221.451 184.416 221.808 184.758C222.165 185.1 222.336 185.634 222.256 186.158L220.592 197.105C220.533 197.498 220.338 197.847 220.052 198.075C219.766 198.302 219.412 198.39 219.069 198.318L202.716 194.877C202.666 194.867 202.617 194.854 202.568 194.838C202.254 194.735 201.992 194.504 201.823 194.198C201.644 193.872 201.576 193.468 201.655 193.072C201.667 193.012 201.682 192.954 201.7 192.896L204.848 182.573C205.086 181.794 205.831 181.383 206.512 181.655ZM207.891 192.929L218.245 195.108L219.296 188.187L207.891 192.929Z" fill="white"/>
<path fill-rule="evenodd" clip-rule="evenodd" d="M219.874 185.086C220.265 184.393 221.073 184.193 221.679 184.64L250.142 205.62C250.687 206.022 250.891 206.821 250.622 207.495C250.353 208.17 249.691 208.517 249.068 208.309L218.943 198.276C218.25 198.045 217.852 197.217 218.054 196.425C218.256 195.633 218.981 195.178 219.673 195.409L241.188 202.574L220.264 187.15C219.658 186.703 219.483 185.779 219.874 185.086Z" fill="white"/>
<path fill-rule="evenodd" clip-rule="evenodd" d="M256.356 244.655C256.614 243.885 257.369 243.5 258.043 243.795L321.623 271.668C322.213 271.927 322.557 272.633 322.438 273.343C322.319 274.053 321.773 274.564 321.14 274.556L251.868 273.644C251.147 273.634 250.569 272.958 250.577 272.133C250.585 271.309 251.177 270.648 251.898 270.657L313.882 271.473L257.108 246.584C256.434 246.289 256.098 245.425 256.356 244.655Z" fill="white"/>
<path fill-rule="evenodd" clip-rule="evenodd" d="M305.193 218.78C305.534 218.942 305.799 219.261 305.923 219.659L322.387 272.567C322.553 273.099 322.442 273.692 322.1 274.1L280.589 323.663C280.09 324.259 279.264 324.279 278.743 323.709C278.222 323.138 278.204 322.193 278.703 321.597L319.656 272.7L303.946 222.216L297.864 225.511C293.438 227.91 287.546 231.106 281.684 234.292C275.823 237.478 269.992 240.654 265.688 243.014C263.536 244.194 261.767 245.169 260.569 245.839C259.968 246.174 259.516 246.43 259.232 246.595C259.156 246.639 259.097 246.674 259.053 246.701C258.928 246.806 258.784 246.888 258.625 246.938C258.6 246.946 258.541 246.964 258.465 246.977C258.425 246.983 258.329 246.993 258.271 246.995C258.178 246.991 257.929 246.944 257.777 246.887C257.525 246.732 257.091 246.159 256.974 245.741C256.959 245.405 257.068 244.896 257.145 244.728C257.265 244.5 257.414 244.362 257.434 244.344C257.435 244.343 257.434 244.344 257.434 244.344C257.543 244.241 257.667 244.162 257.683 244.153C257.771 244.096 257.901 244.019 258.048 243.933C258.352 243.756 258.82 243.492 259.422 243.155C260.63 242.481 262.405 241.502 264.559 240.321C268.867 237.959 274.701 234.781 280.563 231.594C286.426 228.408 292.318 225.212 296.745 222.812L304.131 218.811C304.132 218.811 304.134 218.81 304.692 220.16L304.131 218.811C304.465 218.63 304.852 218.618 305.193 218.78Z" fill="white"/>
<path fill-rule="evenodd" clip-rule="evenodd" d="M258.62 244.052C259.316 244.27 259.725 245.092 259.535 245.887L253.142 272.544C252.951 273.339 252.232 273.807 251.537 273.589C250.841 273.371 250.432 272.549 250.622 271.754L257.015 245.097C257.206 244.302 257.925 243.834 258.62 244.052Z" fill="white"/>
<path fill-rule="evenodd" clip-rule="evenodd" d="M340.194 227.123C340.846 227.476 341.124 228.367 340.815 229.112L322.337 273.709C322.028 274.454 321.249 274.772 320.598 274.419C319.946 274.066 319.668 273.176 319.976 272.43L338.455 227.834C338.764 227.088 339.542 226.77 340.194 227.123Z" fill="white"/>
<path d="M325.185 274.693C324.397 277.227 321.945 278.646 319.755 277.734C317.566 276.821 316.34 273.984 317.128 271.45C317.916 268.916 320.368 267.497 322.558 268.409C324.835 269.321 325.973 272.159 325.185 274.693Z" fill="white"/>
<path d="M308.895 221.167C308.106 223.701 305.654 225.12 303.465 224.207C301.275 223.295 300.049 220.457 300.838 217.923C301.626 215.389 304.078 213.97 306.267 214.883C308.544 215.795 309.683 218.633 308.895 221.167Z" fill="white"/>
<path d="M343.661 230.09C342.873 232.623 340.421 234.042 338.232 233.13C336.042 232.218 334.816 229.38 335.604 226.846C336.393 224.312 338.845 222.893 341.034 223.805C343.224 224.718 344.45 227.556 343.661 230.09Z" fill="white"/>
<path d="M342.963 177.184C342.175 179.718 339.723 181.137 337.534 180.225C335.344 179.313 334.118 176.475 334.907 173.941C335.695 171.407 338.147 169.988 340.336 170.9C342.613 171.813 343.752 174.549 342.963 177.184Z" fill="white"/>
<path d="M321.944 160.36C321.156 162.893 318.704 164.312 316.514 163.4C314.325 162.488 313.099 159.65 313.887 157.116C314.675 154.582 317.127 153.163 319.317 154.075C321.594 154.988 322.732 157.724 321.944 160.36Z" fill="white"/>
<path d="M295.496 138.063C294.708 140.597 292.256 142.016 290.066 141.104C287.877 140.192 286.651 137.354 287.439 134.82C288.227 132.286 290.679 130.867 292.869 131.779C295.058 132.692 296.197 135.529 295.496 138.063Z" fill="white"/>
<path d="M265.281 113.228C264.493 115.762 262.041 117.181 259.851 116.269C257.662 115.357 256.436 112.519 257.224 109.985C258.012 107.451 260.465 106.032 262.654 106.944C264.843 107.857 265.982 110.593 265.281 113.228Z" fill="white"/>
<path d="M294.181 114.444C293.393 116.978 290.941 118.397 288.751 117.484C286.562 116.572 285.336 113.734 286.124 111.2C286.912 108.666 289.364 107.247 291.554 108.16C293.831 109.072 294.969 111.91 294.181 114.444Z" fill="white"/>
<path d="M321.944 123.258C321.156 125.792 318.704 127.211 316.514 126.299C314.325 125.387 313.099 122.549 313.887 120.015C314.675 117.481 317.127 116.062 319.317 116.974C321.594 117.887 322.732 120.725 321.944 123.258Z" fill="white"/>
<path d="M339.635 143.324C338.847 145.858 336.395 147.277 334.206 146.365C332.016 145.453 330.79 142.615 331.578 140.081C332.367 137.547 334.819 136.128 337.008 137.04C339.285 137.952 340.424 140.79 339.635 143.324Z" fill="white"/>
<path d="M238.573 330.736C237.785 333.27 235.333 334.689 233.143 333.777C230.954 332.865 229.728 330.027 230.516 327.493C231.304 324.959 233.756 323.54 235.946 324.452C238.135 325.364 239.361 328.202 238.573 330.736Z" fill="white"/>
<path fill-rule="evenodd" clip-rule="evenodd" d="M227.272 166.136C227.516 165.359 228.264 164.956 228.943 165.234L251.45 174.457C251.982 174.676 252.331 175.261 252.314 175.908C252.297 176.554 251.918 177.115 251.375 177.297L221.337 187.331C220.644 187.562 219.919 187.108 219.717 186.316C219.515 185.525 219.912 184.695 220.604 184.464L246.785 175.718L228.061 168.046C227.382 167.767 227.029 166.912 227.272 166.136Z" fill="white"/>
<path fill-rule="evenodd" clip-rule="evenodd" d="M237.879 135.81C237.886 134.985 238.477 134.323 239.198 134.332L291.481 134.94C292.017 134.946 292.495 135.326 292.687 135.898C292.879 136.47 292.746 137.118 292.352 137.532L258.661 172.963L317.61 156.773C318.052 156.651 318.518 156.802 318.84 157.17C319.161 157.537 319.292 158.07 319.185 158.576L306.224 219.896C306.054 220.698 305.349 221.19 304.647 220.997C303.946 220.803 303.515 219.996 303.685 219.194L316.144 160.247L254.378 177.211C253.799 177.37 253.2 177.062 252.92 176.462C252.64 175.861 252.751 175.121 253.189 174.66L288.155 137.888L239.172 137.318C238.45 137.31 237.872 136.635 237.879 135.81Z" fill="white"/>
<path fill-rule="evenodd" clip-rule="evenodd" d="M219.496 195.366C219.987 195.448 220.395 195.841 220.549 196.38L233.14 240.569L248.266 206.206C248.59 205.469 249.375 205.172 250.02 205.543C250.664 205.914 250.924 206.812 250.599 207.549L234.421 244.304L252.912 271.228C253.357 271.877 253.259 272.816 252.691 273.325C252.124 273.834 251.303 273.721 250.857 273.073L233.057 247.154L220.706 272.076C220.507 272.476 220.158 272.75 219.76 272.817C219.361 272.884 218.958 272.737 218.667 272.419L195.197 246.776C194.816 246.36 194.691 245.723 194.88 245.161C195.069 244.599 195.535 244.221 196.061 244.204L228.055 243.146L201.512 226.429C201.188 226.225 200.955 225.874 200.87 225.462C200.786 225.05 200.858 224.617 201.069 224.27L218.234 195.992C218.516 195.526 219.006 195.283 219.496 195.366ZM230.602 246.05L199.261 247.086L219.26 268.936L230.602 246.05ZM234.009 245.234C234.025 245.202 234.041 245.168 234.055 245.134L234.009 245.234ZM230.615 241.348L218.88 200.166L204.041 224.612L230.615 241.348Z" fill="white"/>
<path fill-rule="evenodd" clip-rule="evenodd" d="M231.575 244.43C231.6 243.606 232.205 242.961 232.926 242.989L258.323 244.003C259.044 244.032 259.608 244.723 259.583 245.548C259.557 246.372 258.953 247.017 258.232 246.988L232.835 245.974C232.114 245.946 231.55 245.254 231.575 244.43Z" fill="white"/>
<path fill-rule="evenodd" clip-rule="evenodd" d="M251.187 270.888C251.797 270.449 252.604 270.659 252.988 271.358L280.749 321.833C281.133 322.531 280.949 323.453 280.339 323.892C279.728 324.331 278.922 324.121 278.538 323.423L250.776 272.947C250.392 272.249 250.576 271.327 251.187 270.888Z" fill="white"/>
<path d="M283.849 323.639C283.061 326.173 280.609 327.592 278.419 326.679C276.23 325.767 275.004 322.929 275.792 320.395C276.58 317.862 279.032 316.443 281.222 317.355C283.499 318.267 284.637 321.105 283.849 323.639Z" fill="white"/>
<path d="M255.913 177.184C255.125 179.718 252.672 181.137 250.483 180.225C248.294 179.313 247.068 176.475 247.856 173.941C248.644 171.407 251.096 169.988 253.285 170.9C255.475 171.813 256.701 174.549 255.913 177.184Z" fill="white"/>
<path d="M243.215 137.453C242.427 139.987 239.974 141.406 237.785 140.494C235.596 139.582 234.37 136.744 235.158 134.21C235.946 131.676 238.398 130.257 240.587 131.169C242.777 132.081 244.003 134.919 243.215 137.453Z" fill="white"/>
<path d="M255.913 273.775C255.125 276.309 252.672 277.728 250.483 276.815C248.294 275.903 247.068 273.065 247.856 270.531C248.644 267.998 251.096 266.579 253.285 267.491C255.475 268.403 256.701 271.241 255.913 273.775Z" fill="white"/>
<path d="M262.305 247.12C261.516 249.653 259.064 251.072 256.875 250.16C254.686 249.248 253.459 246.41 254.248 243.876C255.036 241.342 257.488 239.923 259.677 240.835C261.954 241.748 263.093 244.586 262.305 247.12Z" fill="white"/>
<path d="M253.458 208.603C252.67 211.137 250.218 212.556 248.029 211.644C245.839 210.732 244.613 207.894 245.401 205.36C246.19 202.826 248.642 201.407 250.831 202.319C253.02 203.232 254.246 205.968 253.458 208.603Z" fill="white"/>
<path fill-rule="evenodd" clip-rule="evenodd" d="M249.101 205.44C249.798 205.231 250.512 205.708 250.695 206.506L259.54 245.123C259.598 245.376 259.597 245.643 259.536 245.896L253.143 272.552C252.952 273.348 252.234 273.816 251.538 273.598C250.842 273.38 250.433 272.558 250.624 271.763L256.924 245.492L248.168 207.263C247.985 206.465 248.403 205.649 249.101 205.44Z" fill="white"/>
<path fill-rule="evenodd" clip-rule="evenodd" d="M249.101 205.44C249.798 205.231 250.512 205.708 250.695 206.506L259.54 245.123C259.598 245.376 259.597 245.643 259.536 245.896L253.143 272.552C252.952 273.348 252.234 273.816 251.538 273.598C250.842 273.38 250.433 272.558 250.624 271.763L256.924 245.492L248.168 207.263C247.985 206.465 248.403 205.649 249.101 205.44Z" fill="white"/>
<path fill-rule="evenodd" clip-rule="evenodd" d="M262.196 110.572C262.696 111.167 262.679 112.112 262.159 112.683L240.09 136.907C239.569 137.479 238.742 137.459 238.243 136.864C237.743 136.269 237.76 135.324 238.28 134.753L260.349 110.529C260.87 109.958 261.697 109.977 262.196 110.572Z" fill="white"/>
<path fill-rule="evenodd" clip-rule="evenodd" d="M281.201 321.814C281.299 322.631 280.799 323.384 280.084 323.496L234.72 330.591C234.006 330.703 233.347 330.131 233.249 329.314C233.151 328.497 233.652 327.744 234.366 327.632L279.73 320.537C280.445 320.425 281.104 320.997 281.201 321.814Z" fill="white"/>
<defs>
<linearGradient id="paint0_linear_210_3941" x1="127.366" y1="136.04" x2="321.596" y2="247.156" gradientUnits="userSpaceOnUse">
<stop offset="0.2577" stop-color="white"/>
<stop offset="0.7491" stop-color="#747474"/>
</linearGradient>
</defs>
</svg>
