<svg width="33" height="32" viewBox="0 0 33 32" fill="none" xmlns="http://www.w3.org/2000/svg">
<g clip-path="url(#clip0_1872_18042)">
<circle cx="16.5" cy="16" r="15.5" fill="white" fill-opacity="0.54" stroke="#017948"/>
<path fill-rule="evenodd" clip-rule="evenodd" d="M7.43816 10.2812C6.88993 13.5286 7.93658 18.5197 7.93658 18.5197C7.93658 18.5197 8.56508 22.5715 10.1795 24.4206C11.9911 26.4957 13.7694 27.4929 16.5001 27.4659C19.2308 27.4929 21.0091 26.4957 22.8208 24.4206C24.4351 22.5715 25.0636 18.5197 25.0636 18.5197C25.0636 18.5197 26.1103 13.5286 25.562 10.2812C25.1562 7.87759 24.4142 6.38947 22.5715 4.82259C20.659 3.19631 18.9939 2.77656 16.5001 2.80078C14.0063 2.77656 12.3412 3.19631 10.4287 4.82259C8.58597 6.38947 7.84396 7.87759 7.43816 10.2812Z" fill="white"/>
<path fill-rule="evenodd" clip-rule="evenodd" d="M8.12896 18.4883L8.12934 18.4907L8.13065 18.4989C8.13183 18.5063 8.13364 18.5174 8.13607 18.5321C8.14095 18.5615 8.14835 18.6051 8.15838 18.6615C8.17843 18.7743 8.20894 18.938 8.2506 19.1404C8.33396 19.5453 8.46177 20.1042 8.63941 20.72C8.99717 21.96 9.54819 23.3979 10.3245 24.2871C11.2198 25.3126 12.0978 26.0613 13.0803 26.5517C14.0612 27.0413 15.1578 27.2792 16.4982 27.2659L16.5001 27.2659L16.502 27.2659C17.8424 27.2792 18.939 27.0413 19.9199 26.5517C20.9024 26.0613 21.7804 25.3126 22.6757 24.2871C23.452 23.3979 24.003 21.96 24.3608 20.72C24.5384 20.1042 24.6662 19.5453 24.7496 19.1404C24.7913 18.938 24.8218 18.7743 24.8418 18.6615C24.8519 18.6051 24.8593 18.5615 24.8641 18.5321C24.8666 18.5174 24.8684 18.5063 24.8696 18.4989L24.8709 18.4907L24.8712 18.4888L24.8712 18.4883L24.8712 18.4883L24.8721 18.4829L24.8732 18.4776L24.8918 18.4817C24.8732 18.4776 24.8732 18.4776 24.8732 18.4776L24.8732 18.4775L24.8733 18.4769L24.876 18.464C24.8779 18.4547 24.8808 18.4407 24.8845 18.4223C24.8919 18.3855 24.9028 18.3309 24.9164 18.2601C24.9438 18.1184 24.9823 17.9121 25.0268 17.6542C25.1159 17.1383 25.229 16.4168 25.325 15.5944C25.5177 13.9446 25.6391 11.909 25.3701 10.3154C25.1694 9.12672 24.8877 8.17713 24.4351 7.33473C23.9829 6.49323 23.3545 5.74807 22.4473 4.97662C21.5072 4.1772 20.635 3.68008 19.6965 3.38392C18.7561 3.08713 17.7386 2.98876 16.5019 3.00077L16.5001 3.00079L16.4983 3.00077C15.2616 2.98876 14.2441 3.08713 13.3037 3.38392C12.3652 3.68008 11.4931 4.1772 10.5529 4.97662C9.64568 5.74807 9.01729 6.49323 8.56515 7.33473C8.11252 8.17713 7.83078 9.12672 7.63011 10.3154C7.36106 11.909 7.48252 13.9446 7.6752 15.5944C7.77124 16.4168 7.88434 17.1383 7.97342 17.6542C8.01795 17.9121 8.05645 18.1184 8.08377 18.2601C8.09743 18.3309 8.1083 18.3855 8.11572 18.4223C8.11943 18.4407 8.12228 18.4547 8.12419 18.464L8.12634 18.4744L8.12702 18.4776C8.12702 18.4776 8.12702 18.4776 8.10897 18.4816L8.12702 18.4776L8.12813 18.4829L8.12896 18.4883ZM25.0636 18.5197C25.0636 18.5197 24.4351 22.5715 22.8208 24.4206C21.0091 26.4957 19.2308 27.4929 16.5001 27.4659C13.7694 27.4929 11.9911 26.4957 10.1795 24.4206C8.56508 22.5715 7.93658 18.5197 7.93658 18.5197C7.93658 18.5197 6.88993 13.5286 7.43816 10.2812C7.84396 7.87759 8.58597 6.38947 10.4287 4.82259C12.3412 3.19631 14.0063 2.77656 16.5001 2.80078C18.9939 2.77656 20.659 3.19631 22.5715 4.82259C24.4142 6.38947 25.1562 7.87759 25.562 10.2812C26.1103 13.5286 25.0636 18.5197 25.0636 18.5197Z" fill="#E0E0E0"/>
<path d="M25.591 14.2334C25.8616 14.9112 26.13 16.6067 25.0391 17.9667L25.591 14.2334Z" fill="white"/>
<path fill-rule="evenodd" clip-rule="evenodd" d="M25.5474 13.8604L25.681 14.195C25.9592 14.8919 26.2364 16.6307 25.1141 18.0298L24.8896 18.3096L25.5474 13.8604ZM25.1949 17.5775L25.6246 14.6714C25.7952 15.3884 25.8405 16.5468 25.1949 17.5775Z" fill="#E0E0E0"/>
<path d="M7.4544 14.2334C7.18384 14.9112 6.91544 16.6067 8.00635 17.9667L7.4544 14.2334Z" fill="white"/>
<path fill-rule="evenodd" clip-rule="evenodd" d="M7.49797 13.8604L7.3644 14.195C7.0862 14.8919 6.80906 16.6307 7.93128 18.0298L8.15576 18.3096L7.49797 13.8604ZM7.85048 17.5775L7.42083 14.6714C7.25019 15.3884 7.2049 16.5468 7.85048 17.5775Z" fill="#E0E0E0"/>
<path d="M16.5001 28.8662C15.6886 28.8662 15.4611 27.2662 15.4611 27.2662L17.5391 27.2662C17.5391 27.2662 17.3116 28.8662 16.5001 28.8662Z" fill="white"/>
<path fill-rule="evenodd" clip-rule="evenodd" d="M16.1383 28.4802C16.2489 28.6027 16.3669 28.6662 16.5001 28.6662C16.6333 28.6662 16.7513 28.6027 16.8619 28.4802C16.9748 28.3552 17.0686 28.1801 17.1434 27.9909C17.2175 27.8038 17.2685 27.6146 17.3011 27.4709C17.3015 27.4693 17.3018 27.4678 17.3022 27.4662L15.698 27.4662C15.6984 27.4678 15.6987 27.4693 15.6991 27.4709C15.7317 27.6146 15.7827 27.8038 15.8568 27.9909C15.9316 28.1801 16.0254 28.3552 16.1383 28.4802ZM15.4983 27.4662C15.5903 27.8954 15.868 28.8662 16.5001 28.8662C17.1322 28.8662 17.4099 27.8954 17.5019 27.4662C17.5279 27.3444 17.5391 27.2662 17.5391 27.2662L15.4611 27.2662C15.4611 27.2662 15.4723 27.3444 15.4983 27.4662Z" fill="#E0E0E0"/>
<path d="M18.7557 19.291L23.854 17.9668C23.2107 21.161 21.4001 25.5996 15.854 25.9668L18.7557 19.291Z" fill="#01AC67" fill-opacity="0.75" stroke="#01AC67" stroke-width="0.8"/>
</g>
<defs>
<clipPath id="clip0_1872_18042">
<rect width="32" height="32" fill="white" transform="translate(0.5)"/>
</clipPath>
</defs>
</svg>
