<svg width="33" height="32" viewBox="0 0 33 32" fill="none" xmlns="http://www.w3.org/2000/svg">
<g clip-path="url(#clip0_1872_18191)">
<circle cx="16.5" cy="16" r="15.5" fill="white" fill-opacity="0.54" stroke="#017948"/>
<g clip-path="url(#clip1_1872_18191)">
<path fill-rule="evenodd" clip-rule="evenodd" d="M7.43816 10.2812C6.88993 13.5286 7.93658 18.5197 7.93658 18.5197C7.93658 18.5197 8.56508 22.5715 10.1795 24.4206C11.9911 26.4957 13.7694 27.4929 16.5001 27.4659C19.2308 27.4929 21.0091 26.4957 22.8208 24.4206C24.4351 22.5715 25.0636 18.5197 25.0636 18.5197C25.0636 18.5197 26.1103 13.5286 25.562 10.2812C25.1562 7.87759 24.4142 6.38947 22.5715 4.82259C20.659 3.19631 18.9939 2.77656 16.5001 2.80078C14.0063 2.77656 12.3412 3.19631 10.4287 4.82259C8.58597 6.38947 7.84396 7.87759 7.43816 10.2812Z" fill="white"/>
<path fill-rule="evenodd" clip-rule="evenodd" d="M8.12896 18.4883L8.12934 18.4907L8.13065 18.4989C8.13183 18.5063 8.13364 18.5174 8.13607 18.5321C8.14095 18.5615 8.14835 18.6051 8.15838 18.6615C8.17843 18.7743 8.20894 18.938 8.2506 19.1404C8.33396 19.5453 8.46177 20.1042 8.63941 20.72C8.99717 21.96 9.54819 23.3979 10.3245 24.2871C11.2198 25.3126 12.0978 26.0613 13.0803 26.5517C14.0612 27.0413 15.1578 27.2792 16.4982 27.2659L16.5001 27.2659L16.502 27.2659C17.8424 27.2792 18.939 27.0413 19.9199 26.5517C20.9024 26.0613 21.7804 25.3126 22.6757 24.2871C23.452 23.3979 24.003 21.96 24.3608 20.72C24.5384 20.1042 24.6662 19.5453 24.7496 19.1404C24.7913 18.938 24.8218 18.7743 24.8418 18.6615C24.8519 18.6051 24.8593 18.5615 24.8641 18.5321C24.8666 18.5174 24.8684 18.5063 24.8696 18.4989L24.8709 18.4907L24.8712 18.4888L24.8712 18.4883L24.8712 18.4883L24.8721 18.4829L24.8732 18.4776L24.8918 18.4817C24.8732 18.4776 24.8732 18.4776 24.8732 18.4776L24.8732 18.4775L24.8733 18.4769L24.876 18.464C24.8779 18.4547 24.8808 18.4407 24.8845 18.4223C24.8919 18.3855 24.9028 18.3309 24.9164 18.2601C24.9438 18.1184 24.9823 17.9121 25.0268 17.6542C25.1159 17.1383 25.229 16.4168 25.325 15.5944C25.5177 13.9446 25.6391 11.909 25.3701 10.3154C25.1694 9.12672 24.8877 8.17713 24.4351 7.33473C23.9829 6.49323 23.3545 5.74807 22.4473 4.97662C21.5072 4.1772 20.635 3.68008 19.6965 3.38392C18.7561 3.08713 17.7386 2.98876 16.5019 3.00077L16.5001 3.00079L16.4983 3.00077C15.2616 2.98876 14.2441 3.08713 13.3037 3.38392C12.3652 3.68008 11.4931 4.1772 10.5529 4.97662C9.64568 5.74807 9.01729 6.49323 8.56515 7.33473C8.11252 8.17713 7.83078 9.12672 7.63011 10.3154C7.36106 11.909 7.48252 13.9446 7.6752 15.5944C7.77124 16.4168 7.88434 17.1383 7.97342 17.6542C8.01795 17.9121 8.05645 18.1184 8.08377 18.2601C8.09743 18.3309 8.1083 18.3855 8.11572 18.4223C8.11943 18.4407 8.12228 18.4547 8.12419 18.464L8.12634 18.4744L8.12702 18.4776C8.12702 18.4776 8.12702 18.4776 8.10897 18.4816L8.12702 18.4776L8.12813 18.4829L8.12896 18.4883ZM25.0636 18.5197C25.0636 18.5197 24.4351 22.5715 22.8208 24.4206C21.0091 26.4957 19.2308 27.4929 16.5001 27.4659C13.7694 27.4929 11.9911 26.4957 10.1795 24.4206C8.56508 22.5715 7.93658 18.5197 7.93658 18.5197C7.93658 18.5197 6.88993 13.5286 7.43816 10.2812C7.84396 7.87759 8.58597 6.38947 10.4287 4.82259C12.3412 3.19631 14.0063 2.77656 16.5001 2.80078C18.9939 2.77656 20.659 3.19631 22.5715 4.82259C24.4142 6.38947 25.1562 7.87759 25.562 10.2812C26.1103 13.5286 25.0636 18.5197 25.0636 18.5197Z" fill="#E0E0E0"/>
<path fill-rule="evenodd" clip-rule="evenodd" d="M-1312.06 18.5197C-1312.06 18.5197 -1313.11 13.5286 -1312.56 10.2812C-1312.16 7.87759 -1311.41 6.38947 -1309.57 4.82259C-1307.66 3.19631 -1305.99 2.77656 -1303.5 2.80078C-1301.01 2.77656 -1299.34 3.19631 -1297.43 4.82259C-1295.59 6.38947 -1294.84 7.87759 -1294.44 10.2812C-1293.89 13.5286 -1294.94 18.5197 -1294.94 18.5197C-1294.94 18.5197 -1295.56 22.5715 -1297.18 24.4206C-1298.99 26.4957 -1300.77 27.4929 -1303.5 27.4659C-1306.23 27.4929 -1308.01 26.4957 -1309.82 24.4206C-1311.43 22.5715 -1312.06 18.5197 -1312.06 18.5197ZM-1180.56 10.2812C-1181.11 13.5286 -1180.06 18.5197 -1180.06 18.5197C-1180.06 18.5197 -1179.43 22.5715 -1177.82 24.4206C-1176.01 26.4957 -1174.23 27.4929 -1171.5 27.4659C-1168.77 27.4929 -1166.99 26.4957 -1165.18 24.4206C-1163.56 22.5715 -1162.94 18.5197 -1162.94 18.5197C-1162.94 18.5197 -1161.89 13.5286 -1162.44 10.2812C-1162.84 7.87759 -1163.59 6.38947 -1165.43 4.82259C-1167.34 3.19631 -1169.01 2.77656 -1171.5 2.80078C-1173.99 2.77656 -1175.66 3.19631 -1177.57 4.82259C-1179.41 6.38947 -1180.16 7.87759 -1180.56 10.2812ZM-432.562 10.2812C-433.11 13.5286 -432.063 18.5197 -432.063 18.5197C-432.063 18.5197 -431.435 22.5715 -429.82 24.4206C-428.009 26.4957 -426.231 27.4929 -423.5 27.4659C-420.769 27.4929 -418.991 26.4957 -417.179 24.4206C-415.565 22.5715 -414.936 18.5197 -414.936 18.5197C-414.936 18.5197 -413.89 13.5286 -414.438 10.2812C-414.844 7.87759 -415.586 6.38947 -417.428 4.82259C-419.341 3.19631 -421.006 2.77656 -423.5 2.80078C-425.994 2.77656 -427.659 3.19631 -429.571 4.82259C-431.414 6.38947 -432.156 7.87759 -432.562 10.2812ZM-344.562 10.2812C-345.11 13.5286 -344.063 18.5197 -344.063 18.5197C-344.063 18.5197 -343.435 22.5715 -341.82 24.4206C-340.009 26.4957 -338.231 27.4929 -335.5 27.4659C-332.769 27.4929 -330.991 26.4957 -329.179 24.4206C-327.565 22.5715 -326.936 18.5197 -326.936 18.5197C-326.936 18.5197 -325.89 13.5286 -326.438 10.2812C-326.844 7.87759 -327.586 6.38947 -329.428 4.82259C-331.341 3.19631 -333.006 2.77656 -335.5 2.80078C-337.994 2.77656 -339.659 3.19631 -341.571 4.82259C-343.414 6.38947 -344.156 7.87759 -344.562 10.2812ZM-916.063 18.5197C-916.063 18.5197 -917.11 13.5286 -916.562 10.2812C-916.156 7.87759 -915.414 6.38947 -913.571 4.82259C-911.659 3.19631 -909.994 2.77656 -907.5 2.80078C-905.006 2.77656 -903.341 3.19631 -901.428 4.82259C-899.586 6.38947 -898.844 7.87759 -898.438 10.2812C-897.89 13.5286 -898.936 18.5197 -898.936 18.5197C-898.936 18.5197 -899.565 22.5715 -901.179 24.4206C-902.991 26.4957 -904.769 27.4929 -907.5 27.4659C-910.23 27.4929 -912.009 26.4957 -913.82 24.4206C-915.435 22.5715 -916.063 18.5197 -916.063 18.5197ZM-256.562 10.2812C-257.11 13.5286 -256.063 18.5197 -256.063 18.5197C-256.063 18.5197 -255.435 22.5715 -253.821 24.4206C-252.009 26.4957 -250.231 27.4929 -247.5 27.4659C-244.769 27.4929 -242.991 26.4957 -241.179 24.4206C-239.565 22.5715 -238.936 18.5197 -238.936 18.5197C-238.936 18.5197 -237.89 13.5286 -238.438 10.2812C-238.844 7.87759 -239.586 6.38947 -241.428 4.82259C-243.341 3.19631 -245.006 2.77656 -247.5 2.80078C-249.994 2.77656 -251.659 3.19631 -253.571 4.82259C-255.414 6.38947 -256.156 7.87759 -256.562 10.2812ZM-872.063 18.5197C-872.063 18.5197 -873.11 13.5286 -872.562 10.2812C-872.156 7.87759 -871.414 6.38947 -869.571 4.82259C-867.659 3.19631 -865.994 2.77656 -863.5 2.80078C-861.006 2.77656 -859.341 3.19631 -857.428 4.82259C-855.586 6.38947 -854.844 7.87759 -854.438 10.2812C-853.89 13.5286 -854.936 18.5197 -854.936 18.5197C-854.936 18.5197 -855.565 22.5715 -857.179 24.4206C-858.991 26.4957 -860.769 27.4929 -863.5 27.4659C-866.23 27.4929 -868.009 26.4957 -869.82 24.4206C-871.435 22.5715 -872.063 18.5197 -872.063 18.5197ZM-212.562 10.2812C-213.11 13.5286 -212.063 18.5197 -212.063 18.5197C-212.063 18.5197 -211.435 22.5715 -209.821 24.4206C-208.009 26.4957 -206.231 27.4929 -203.5 27.4659C-200.769 27.4929 -198.991 26.4957 -197.179 24.4206C-195.565 22.5715 -194.936 18.5197 -194.936 18.5197C-194.936 18.5197 -193.89 13.5286 -194.438 10.2812C-194.844 7.87759 -195.586 6.38947 -197.428 4.82259C-199.341 3.19631 -201.006 2.77656 -203.5 2.80078C-205.994 2.77656 -207.659 3.19631 -209.571 4.82259C-211.414 6.38947 -212.156 7.87759 -212.562 10.2812ZM-828.063 18.5197C-828.063 18.5197 -829.11 13.5286 -828.562 10.2812C-828.156 7.87759 -827.414 6.38947 -825.571 4.82259C-823.659 3.19631 -821.994 2.77656 -819.5 2.80078C-817.006 2.77656 -815.341 3.19631 -813.428 4.82259C-811.586 6.38947 -810.844 7.87759 -810.438 10.2812C-809.89 13.5286 -810.936 18.5197 -810.936 18.5197C-810.936 18.5197 -811.565 22.5715 -813.179 24.4206C-814.991 26.4957 -816.769 27.4929 -819.5 27.4659C-822.23 27.4929 -824.009 26.4957 -825.82 24.4206C-827.435 22.5715 -828.063 18.5197 -828.063 18.5197ZM-168.562 10.2812C-169.11 13.5286 -168.063 18.5197 -168.063 18.5197C-168.063 18.5197 -167.435 22.5715 -165.821 24.4206C-164.009 26.4957 -162.231 27.4929 -159.5 27.4659C-156.769 27.4929 -154.991 26.4957 -153.179 24.4206C-151.565 22.5715 -150.936 18.5197 -150.936 18.5197C-150.936 18.5197 -149.89 13.5286 -150.438 10.2812C-150.844 7.87759 -151.586 6.38947 -153.428 4.82259C-155.341 3.19631 -157.006 2.77656 -159.5 2.80078C-161.994 2.77656 -163.659 3.19631 -165.571 4.82259C-167.414 6.38947 -168.156 7.87759 -168.562 10.2812ZM-73.9534 7.60289C-73.9534 7.60289 -72.3855 7.36621 -71.4592 7.36621C-70.4694 7.36621 -69.0466 7.60289 -69.0466 7.60289L-67.5 12.3662C-67.5 12.3662 -69.911 12.1646 -71.4592 12.163C-73.0392 12.1613 -75.5 12.3662 -75.5 12.3662L-73.9534 7.60289ZM-650.643 6.89967C-649.734 5.73301 -647.474 3.33301 -643.5 3.33301C-639.526 3.33301 -637.266 5.73301 -636.357 6.89967C-638.825 6.13301 -642.072 5.84412 -643.5 5.86634C-644.929 5.84412 -648.175 6.13301 -650.643 6.89967ZM16.4956 3.59082C11.0929 3.59082 8.35547 7.8049 8.35547 11.1876C10.9882 9.46503 14.9713 9.23276 16.4956 9.28268C18.0198 9.23276 22.0016 9.57074 24.6343 11.2933C24.6343 7.8616 21.6747 3.59082 16.4956 3.59082Z" fill="#01AC67" fill-opacity="0.75"/>
<path d="M-1312.56 10.2812L-1312.17 10.3478L-1312.56 10.2812ZM-1312.06 18.5197L-1311.67 18.4584L-1311.67 18.448L-1311.67 18.4376L-1312.06 18.5197ZM-1309.57 4.82259L-1309.31 5.12732H-1309.31L-1309.57 4.82259ZM-1303.5 2.80078L-1303.5 3.20084L-1303.5 3.20076L-1303.5 2.80078ZM-1297.43 4.82259L-1297.69 5.12732V5.12732L-1297.43 4.82259ZM-1294.44 10.2812L-1294.04 10.2146L-1294.44 10.2812ZM-1294.94 18.5197L-1295.33 18.4376L-1295.33 18.448L-1295.33 18.4584L-1294.94 18.5197ZM-1297.18 24.4206L-1296.88 24.6837L-1297.18 24.4206ZM-1303.5 27.4659L-1303.5 27.0659L-1303.5 27.066L-1303.5 27.4659ZM-1309.82 24.4206L-1310.12 24.6837H-1310.12L-1309.82 24.4206ZM-1180.06 18.5197L-1179.67 18.4584L-1179.67 18.448L-1179.67 18.4376L-1180.06 18.5197ZM-1180.56 10.2812L-1180.17 10.3478V10.3478L-1180.56 10.2812ZM-1177.82 24.4206L-1178.12 24.6837L-1178.12 24.6837L-1177.82 24.4206ZM-1171.5 27.4659L-1171.5 27.0659L-1171.5 27.066L-1171.5 27.4659ZM-1165.18 24.4206L-1164.88 24.6837L-1165.18 24.4206ZM-1162.94 18.5197L-1163.33 18.4376L-1163.33 18.448L-1163.33 18.4584L-1162.94 18.5197ZM-1162.44 10.2812L-1162.04 10.2146V10.2146L-1162.44 10.2812ZM-1165.43 4.82259L-1165.17 4.51786V4.51786L-1165.43 4.82259ZM-1171.5 2.80078L-1171.5 3.20084L-1171.5 3.20076L-1171.5 2.80078ZM-1177.57 4.82259L-1177.31 5.12732V5.12732L-1177.57 4.82259ZM-432.063 18.5197L-431.668 18.4584L-431.67 18.448L-431.672 18.4376L-432.063 18.5197ZM-432.562 10.2812L-432.167 10.3478V10.3478L-432.562 10.2812ZM-429.82 24.4206L-429.519 24.1576V24.1576L-429.82 24.4206ZM-423.5 27.4659L-423.496 27.0659L-423.504 27.066L-423.5 27.4659ZM-417.179 24.4206L-417.481 24.1576V24.1576L-417.179 24.4206ZM-414.936 18.5197L-415.328 18.4376L-415.33 18.448L-415.332 18.4584L-414.936 18.5197ZM-414.438 10.2812L-414.043 10.2146V10.2146L-414.438 10.2812ZM-417.428 4.82259L-417.688 5.12732V5.12732L-417.428 4.82259ZM-423.5 2.80078L-423.504 3.20084L-423.496 3.20076L-423.5 2.80078ZM-429.571 4.82259L-429.83 4.51787V4.51787L-429.571 4.82259ZM-344.063 18.5197L-343.668 18.4584L-343.67 18.448L-343.672 18.4376L-344.063 18.5197ZM-344.562 10.2812L-344.167 10.3478V10.3478L-344.562 10.2812ZM-341.82 24.4206L-341.519 24.1576V24.1576L-341.82 24.4206ZM-335.5 27.4659L-335.496 27.0659L-335.504 27.066L-335.5 27.4659ZM-329.179 24.4206L-329.481 24.1576V24.1576L-329.179 24.4206ZM-326.936 18.5197L-327.328 18.4376L-327.33 18.448L-327.332 18.4584L-326.936 18.5197ZM-326.438 10.2812L-326.043 10.2146V10.2146L-326.438 10.2812ZM-329.428 4.82259L-329.688 5.12732V5.12732L-329.428 4.82259ZM-335.5 2.80078L-335.504 3.20084L-335.496 3.20076L-335.5 2.80078ZM-341.571 4.82259L-341.83 4.51787V4.51787L-341.571 4.82259ZM-916.562 10.2812L-916.167 10.3478V10.3478L-916.562 10.2812ZM-916.063 18.5197L-915.668 18.4584L-915.67 18.448L-915.672 18.4376L-916.063 18.5197ZM-913.571 4.82259L-913.83 4.51786V4.51786L-913.571 4.82259ZM-907.5 2.80078L-907.504 3.20084L-907.496 3.20076L-907.5 2.80078ZM-901.428 4.82259L-901.688 5.12732V5.12732L-901.428 4.82259ZM-898.438 10.2812L-898.832 10.3478V10.3478L-898.438 10.2812ZM-898.936 18.5197L-899.328 18.4376L-899.33 18.448L-899.332 18.4584L-898.936 18.5197ZM-901.179 24.4206L-900.878 24.6837V24.6837L-901.179 24.4206ZM-907.5 27.4659L-907.496 27.0659L-907.504 27.066L-907.5 27.4659ZM-913.82 24.4206L-914.122 24.6837L-913.82 24.4206ZM-256.063 18.5197L-255.668 18.4584L-255.67 18.448L-255.672 18.4376L-256.063 18.5197ZM-256.562 10.2812L-256.956 10.2146V10.2146L-256.562 10.2812ZM-253.821 24.4206L-254.122 24.6837V24.6837L-253.821 24.4206ZM-247.5 27.4659L-247.496 27.0659L-247.504 27.066L-247.5 27.4659ZM-241.179 24.4206L-240.878 24.6837V24.6837L-241.179 24.4206ZM-238.936 18.5197L-239.328 18.4376L-239.33 18.448L-239.332 18.4584L-238.936 18.5197ZM-238.438 10.2812L-238.832 10.3478V10.3478L-238.438 10.2812ZM-241.428 4.82259L-241.169 4.51787V4.51786L-241.428 4.82259ZM-247.5 2.80078L-247.504 3.20084L-247.496 3.20076L-247.5 2.80078ZM-253.571 4.82259L-253.312 5.12732V5.12731L-253.571 4.82259ZM-872.562 10.2812L-872.167 10.3478V10.3478L-872.562 10.2812ZM-872.063 18.5197L-871.668 18.4584L-871.67 18.448L-871.672 18.4376L-872.063 18.5197ZM-869.571 4.82259L-869.83 4.51786V4.51786L-869.571 4.82259ZM-863.5 2.80078L-863.504 3.20084L-863.496 3.20076L-863.5 2.80078ZM-857.428 4.82259L-857.688 5.12732V5.12732L-857.428 4.82259ZM-854.438 10.2812L-854.832 10.3478V10.3478L-854.438 10.2812ZM-854.936 18.5197L-855.328 18.4376L-855.33 18.448L-855.332 18.4584L-854.936 18.5197ZM-857.179 24.4206L-856.878 24.6837V24.6837L-857.179 24.4206ZM-863.5 27.4659L-863.496 27.0659L-863.504 27.066L-863.5 27.4659ZM-869.82 24.4206L-870.122 24.6837L-869.82 24.4206ZM-212.063 18.5197L-211.668 18.4584L-211.67 18.448L-211.672 18.4376L-212.063 18.5197ZM-212.562 10.2812L-212.956 10.2146V10.2146L-212.562 10.2812ZM-209.821 24.4206L-210.122 24.6837V24.6837L-209.821 24.4206ZM-203.5 27.4659L-203.496 27.0659L-203.504 27.066L-203.5 27.4659ZM-197.179 24.4206L-196.878 24.6837V24.6837L-197.179 24.4206ZM-194.936 18.5197L-195.328 18.4376L-195.33 18.448L-195.332 18.4584L-194.936 18.5197ZM-194.438 10.2812L-194.832 10.3478V10.3478L-194.438 10.2812ZM-197.428 4.82259L-197.169 4.51787V4.51786L-197.428 4.82259ZM-203.5 2.80078L-203.504 3.20084L-203.496 3.20076L-203.5 2.80078ZM-209.571 4.82259L-209.312 5.12732V5.12731L-209.571 4.82259ZM-828.562 10.2812L-828.167 10.3478V10.3478L-828.562 10.2812ZM-828.063 18.5197L-827.668 18.4584L-827.67 18.448L-827.672 18.4376L-828.063 18.5197ZM-825.571 4.82259L-825.83 4.51786V4.51786L-825.571 4.82259ZM-819.5 2.80078L-819.504 3.20084L-819.496 3.20076L-819.5 2.80078ZM-813.428 4.82259L-813.688 5.12732V5.12732L-813.428 4.82259ZM-810.438 10.2812L-810.832 10.3478V10.3478L-810.438 10.2812ZM-810.936 18.5197L-811.328 18.4376L-811.33 18.448L-811.332 18.4584L-810.936 18.5197ZM-813.179 24.4206L-812.878 24.6837V24.6837L-813.179 24.4206ZM-819.5 27.4659L-819.496 27.0659L-819.504 27.066L-819.5 27.4659ZM-825.82 24.4206L-826.122 24.6837L-825.82 24.4206ZM-168.063 18.5197L-167.668 18.4584L-167.67 18.448L-167.672 18.4376L-168.063 18.5197ZM-168.562 10.2812L-168.956 10.2146V10.2146L-168.562 10.2812ZM-165.821 24.4206L-166.122 24.6837V24.6837L-165.821 24.4206ZM-159.5 27.4659L-159.496 27.0659L-159.504 27.066L-159.5 27.4659ZM-153.179 24.4206L-152.878 24.6837V24.6837L-153.179 24.4206ZM-150.936 18.5197L-151.328 18.4376L-151.33 18.448L-151.332 18.4584L-150.936 18.5197ZM-150.438 10.2812L-150.832 10.3478V10.3478L-150.438 10.2812ZM-153.428 4.82259L-153.169 4.51787V4.51786L-153.428 4.82259ZM-159.5 2.80078L-159.504 3.20084L-159.496 3.20076L-159.5 2.80078ZM-165.571 4.82259L-165.312 5.12732V5.12731L-165.571 4.82259ZM-73.9534 7.60289L-74.0131 7.20737L-74.2574 7.24426L-74.3339 7.47936L-73.9534 7.60289ZM-69.0466 7.60289L-68.6661 7.47936L-68.7412 7.24819L-68.981 7.20831L-69.0466 7.60289ZM-67.5 12.3662L-67.5333 12.7648L-66.9337 12.815L-67.1195 12.2427L-67.5 12.3662ZM-71.4592 12.163L-71.4596 12.563L-71.4592 12.163ZM-75.5 12.3662L-75.8805 12.2427L-76.0662 12.8147L-75.4668 12.7648L-75.5 12.3662ZM-650.643 6.89967L-650.958 6.65381L-651.743 7.66024L-650.524 7.28166L-650.643 6.89967ZM-636.357 6.89967L-636.476 7.28166L-635.258 7.66022L-636.042 6.65382L-636.357 6.89967ZM-643.5 5.86634L-643.506 6.26649L-643.494 6.26629L-643.5 5.86634ZM8.35547 11.1876H7.95544V11.9273L8.57446 11.5223L8.35547 11.1876ZM16.4956 9.28268L16.4825 9.68247L16.4956 9.6829L16.5087 9.68247L16.4956 9.28268ZM24.6343 11.2933L24.4153 11.628L25.0343 12.033V11.2933H24.6343ZM-1312.96 10.2146C-1313.24 11.897 -1313.11 14.0035 -1312.92 15.6647C-1312.82 16.5003 -1312.7 17.2331 -1312.61 17.7572C-1312.57 18.0193 -1312.53 18.2296 -1312.5 18.3747C-1312.49 18.4473 -1312.47 18.5036 -1312.47 18.542C-1312.46 18.5612 -1312.46 18.5759 -1312.46 18.5859C-1312.46 18.591 -1312.46 18.5948 -1312.46 18.5975C-1312.46 18.5988 -1312.46 18.5998 -1312.46 18.6006C-1312.46 18.6009 -1312.45 18.6012 -1312.45 18.6014C-1312.45 18.6015 -1312.45 18.6016 -1312.45 18.6017C-1312.45 18.6018 -1312.45 18.6018 -1312.06 18.5197C-1311.67 18.4376 -1311.67 18.4377 -1311.67 18.4377C-1311.67 18.4376 -1311.67 18.4376 -1311.67 18.4376C-1311.67 18.4375 -1311.67 18.4373 -1311.67 18.4371C-1311.67 18.4366 -1311.67 18.4358 -1311.67 18.4347C-1311.67 18.4326 -1311.67 18.4292 -1311.67 18.4247C-1311.68 18.4157 -1311.68 18.402 -1311.68 18.3838C-1311.69 18.3475 -1311.7 18.2934 -1311.71 18.2232C-1311.74 18.0827 -1311.78 17.8776 -1311.82 17.6211C-1311.91 17.1078 -1312.03 16.3899 -1312.12 15.5719C-1312.31 13.9256 -1312.43 11.9129 -1312.17 10.3478L-1312.96 10.2146ZM-1309.83 4.51786C-1310.78 5.32588 -1311.46 6.12709 -1311.96 7.0488C-1312.45 7.96844 -1312.75 8.98728 -1312.96 10.2146L-1312.17 10.3478C-1311.97 9.17154 -1311.69 8.2445 -1311.25 7.42745C-1310.82 6.61247 -1310.2 5.88618 -1309.31 5.12732L-1309.83 4.51786ZM-1303.5 2.4008C-1304.76 2.38848 -1305.85 2.48846 -1306.87 2.81129C-1307.9 3.13537 -1308.84 3.67678 -1309.83 4.51786L-1309.31 5.12732C-1308.39 4.34211 -1307.54 3.86051 -1306.63 3.5742C-1305.72 3.28664 -1304.73 3.18886 -1303.5 3.20076L-1303.5 2.4008ZM-1297.17 4.51786C-1298.16 3.67678 -1299.1 3.13537 -1300.13 2.81129C-1301.15 2.48846 -1302.24 2.38848 -1303.5 2.4008L-1303.5 3.20076C-1302.27 3.18886 -1301.28 3.28664 -1300.37 3.5742C-1299.46 3.86051 -1298.61 4.34211 -1297.69 5.12732L-1297.17 4.51786ZM-1294.04 10.2146C-1294.25 8.98728 -1294.55 7.96844 -1295.04 7.0488C-1295.54 6.12709 -1296.22 5.32588 -1297.17 4.51786L-1297.69 5.12732C-1296.8 5.88618 -1296.18 6.61247 -1295.75 7.42745C-1295.31 8.2445 -1295.03 9.17154 -1294.83 10.3478L-1294.04 10.2146ZM-1294.94 18.5197C-1294.54 18.6018 -1294.54 18.6018 -1294.54 18.6017C-1294.54 18.6016 -1294.54 18.6015 -1294.54 18.6014C-1294.54 18.6012 -1294.54 18.6009 -1294.54 18.6006C-1294.54 18.5998 -1294.54 18.5988 -1294.54 18.5975C-1294.54 18.5948 -1294.54 18.591 -1294.54 18.5859C-1294.54 18.5759 -1294.54 18.5612 -1294.53 18.542C-1294.52 18.5036 -1294.51 18.4473 -1294.5 18.3747C-1294.47 18.2296 -1294.43 18.0193 -1294.39 17.7572C-1294.3 17.2331 -1294.18 16.5003 -1294.08 15.6647C-1293.89 14.0035 -1293.76 11.897 -1294.04 10.2146L-1294.83 10.3478C-1294.57 11.9129 -1294.69 13.9256 -1294.88 15.5719C-1294.97 16.3899 -1295.09 17.1078 -1295.18 17.6211C-1295.22 17.8776 -1295.26 18.0827 -1295.29 18.2232C-1295.3 18.2934 -1295.31 18.3475 -1295.32 18.3838C-1295.32 18.402 -1295.32 18.4157 -1295.33 18.4247C-1295.33 18.4292 -1295.33 18.4326 -1295.33 18.4347C-1295.33 18.4358 -1295.33 18.4366 -1295.33 18.4371C-1295.33 18.4373 -1295.33 18.4375 -1295.33 18.4376C-1295.33 18.4376 -1295.33 18.4376 -1295.33 18.4377C-1295.33 18.4377 -1295.33 18.4376 -1294.94 18.5197ZM-1296.88 24.6837C-1296.01 23.6884 -1295.43 22.1391 -1295.07 20.8876C-1294.89 20.2533 -1294.75 19.6785 -1294.67 19.2624C-1294.63 19.0541 -1294.59 18.885 -1294.57 18.7675C-1294.56 18.7087 -1294.55 18.6627 -1294.55 18.6311C-1294.55 18.6154 -1294.54 18.6032 -1294.54 18.5948C-1294.54 18.5905 -1294.54 18.5873 -1294.54 18.585C-1294.54 18.5838 -1294.54 18.5829 -1294.54 18.5823C-1294.54 18.582 -1294.54 18.5817 -1294.54 18.5815C-1294.54 18.5814 -1294.54 18.5813 -1294.54 18.5812C-1294.54 18.5811 -1294.54 18.581 -1294.94 18.5197C-1295.33 18.4584 -1295.33 18.4584 -1295.33 18.4583C-1295.33 18.4584 -1295.33 18.4583 -1295.33 18.4584C-1295.33 18.4584 -1295.33 18.4585 -1295.33 18.4587C-1295.33 18.459 -1295.33 18.4596 -1295.33 18.4604C-1295.33 18.462 -1295.33 18.4646 -1295.33 18.4681C-1295.33 18.4751 -1295.34 18.4859 -1295.34 18.5002C-1295.34 18.5289 -1295.35 18.5718 -1295.36 18.6274C-1295.38 18.7387 -1295.41 18.9006 -1295.45 19.1011C-1295.53 19.5024 -1295.66 20.0562 -1295.84 20.6659C-1296.19 21.9026 -1296.74 23.3038 -1297.48 24.1576L-1296.88 24.6837ZM-1303.5 27.8659C-1302.09 27.8799 -1300.89 27.6274 -1299.82 27.0894C-1298.74 26.5532 -1297.8 25.7453 -1296.88 24.6837L-1297.48 24.1576C-1298.37 25.171 -1299.22 25.8992 -1300.17 26.3736C-1301.12 26.8463 -1302.18 27.0789 -1303.5 27.066L-1303.5 27.8659ZM-1310.12 24.6837C-1309.2 25.7453 -1308.26 26.5532 -1307.18 27.0894C-1306.11 27.6274 -1304.91 27.8799 -1303.5 27.8659L-1303.5 27.066C-1304.82 27.0789 -1305.88 26.8463 -1306.83 26.3736C-1307.78 25.8992 -1308.63 25.171 -1309.52 24.1576L-1310.12 24.6837ZM-1312.06 18.5197C-1312.46 18.581 -1312.46 18.5811 -1312.46 18.5812C-1312.46 18.5813 -1312.46 18.5814 -1312.46 18.5815C-1312.46 18.5817 -1312.46 18.582 -1312.46 18.5823C-1312.46 18.5829 -1312.46 18.5838 -1312.46 18.585C-1312.46 18.5873 -1312.46 18.5905 -1312.46 18.5948C-1312.46 18.6032 -1312.45 18.6154 -1312.45 18.6311C-1312.45 18.6627 -1312.44 18.7087 -1312.43 18.7675C-1312.41 18.885 -1312.37 19.0541 -1312.33 19.2624C-1312.25 19.6785 -1312.11 20.2533 -1311.93 20.8876C-1311.57 22.1391 -1310.99 23.6884 -1310.12 24.6837L-1309.52 24.1576C-1310.26 23.3038 -1310.81 21.9026 -1311.16 20.6659C-1311.34 20.0562 -1311.47 19.5024 -1311.55 19.1011C-1311.59 18.9006 -1311.62 18.7387 -1311.64 18.6274C-1311.65 18.5718 -1311.66 18.5289 -1311.66 18.5002C-1311.66 18.4859 -1311.67 18.4751 -1311.67 18.4681C-1311.67 18.4646 -1311.67 18.462 -1311.67 18.4604C-1311.67 18.4596 -1311.67 18.459 -1311.67 18.4587C-1311.67 18.4585 -1311.67 18.4584 -1311.67 18.4584C-1311.67 18.4583 -1311.67 18.4584 -1311.67 18.4583C-1311.67 18.4584 -1311.67 18.4584 -1312.06 18.5197ZM-1180.06 18.5197C-1179.67 18.4376 -1179.67 18.4377 -1179.67 18.4377C-1179.67 18.4376 -1179.67 18.4376 -1179.67 18.4376C-1179.67 18.4375 -1179.67 18.4373 -1179.67 18.4371C-1179.67 18.4366 -1179.67 18.4358 -1179.67 18.4347C-1179.67 18.4326 -1179.67 18.4292 -1179.67 18.4247C-1179.68 18.4157 -1179.68 18.402 -1179.68 18.3838C-1179.69 18.3475 -1179.7 18.2934 -1179.71 18.2232C-1179.74 18.0826 -1179.78 17.8776 -1179.82 17.6211C-1179.91 17.1078 -1180.03 16.3899 -1180.12 15.5719C-1180.31 13.9256 -1180.43 11.9129 -1180.17 10.3478L-1180.96 10.2146C-1181.24 11.897 -1181.11 14.0035 -1180.92 15.6647C-1180.82 16.5003 -1180.7 17.2331 -1180.61 17.7572C-1180.57 18.0193 -1180.53 18.2296 -1180.5 18.3747C-1180.49 18.4473 -1180.47 18.5036 -1180.47 18.542C-1180.46 18.5612 -1180.46 18.5759 -1180.46 18.5859C-1180.46 18.591 -1180.46 18.5948 -1180.46 18.5975C-1180.46 18.5988 -1180.46 18.5998 -1180.46 18.6006C-1180.46 18.6009 -1180.45 18.6012 -1180.45 18.6014C-1180.45 18.6015 -1180.45 18.6016 -1180.45 18.6017C-1180.45 18.6018 -1180.45 18.6018 -1180.06 18.5197ZM-1177.52 24.1576C-1178.26 23.3038 -1178.81 21.9026 -1179.16 20.6659C-1179.34 20.0562 -1179.47 19.5024 -1179.55 19.1011C-1179.59 18.9006 -1179.62 18.7387 -1179.64 18.6274C-1179.65 18.5718 -1179.66 18.5289 -1179.66 18.5002C-1179.66 18.4859 -1179.67 18.4751 -1179.67 18.4681C-1179.67 18.4646 -1179.67 18.462 -1179.67 18.4604C-1179.67 18.4596 -1179.67 18.459 -1179.67 18.4587C-1179.67 18.4585 -1179.67 18.4584 -1179.67 18.4584C-1179.67 18.4583 -1179.67 18.4584 -1179.67 18.4583C-1179.67 18.4584 -1179.67 18.4584 -1180.06 18.5197C-1180.46 18.581 -1180.46 18.5811 -1180.46 18.5812C-1180.46 18.5813 -1180.46 18.5814 -1180.46 18.5815C-1180.46 18.5817 -1180.46 18.582 -1180.46 18.5823C-1180.46 18.5829 -1180.46 18.5838 -1180.46 18.585C-1180.46 18.5873 -1180.46 18.5905 -1180.46 18.5948C-1180.46 18.6032 -1180.45 18.6154 -1180.45 18.6311C-1180.45 18.6627 -1180.44 18.7087 -1180.43 18.7675C-1180.41 18.885 -1180.37 19.0541 -1180.33 19.2624C-1180.25 19.6785 -1180.11 20.2533 -1179.93 20.8876C-1179.57 22.1391 -1178.99 23.6884 -1178.12 24.6837L-1177.52 24.1576ZM-1171.5 27.066C-1172.82 27.0789 -1173.88 26.8463 -1174.83 26.3736C-1175.78 25.8992 -1176.63 25.171 -1177.52 24.1576L-1178.12 24.6837C-1177.2 25.7453 -1176.26 26.5532 -1175.18 27.0894C-1174.11 27.6274 -1172.91 27.8799 -1171.5 27.8659L-1171.5 27.066ZM-1165.48 24.1576C-1166.37 25.171 -1167.22 25.8992 -1168.17 26.3736C-1169.12 26.8463 -1170.18 27.0789 -1171.5 27.066L-1171.5 27.8659C-1170.09 27.8799 -1168.89 27.6274 -1167.82 27.0894C-1166.74 26.5532 -1165.8 25.7453 -1164.88 24.6837L-1165.48 24.1576ZM-1162.94 18.5197C-1163.33 18.4584 -1163.33 18.4584 -1163.33 18.4583C-1163.33 18.4584 -1163.33 18.4583 -1163.33 18.4584C-1163.33 18.4584 -1163.33 18.4585 -1163.33 18.4587C-1163.33 18.459 -1163.33 18.4596 -1163.33 18.4604C-1163.33 18.462 -1163.33 18.4646 -1163.33 18.4681C-1163.33 18.4751 -1163.34 18.4859 -1163.34 18.5002C-1163.34 18.5289 -1163.35 18.5718 -1163.36 18.6274C-1163.38 18.7387 -1163.41 18.9006 -1163.45 19.1011C-1163.53 19.5024 -1163.66 20.0562 -1163.84 20.6659C-1164.19 21.9026 -1164.74 23.3038 -1165.48 24.1576L-1164.88 24.6837C-1164.01 23.6884 -1163.43 22.1391 -1163.07 20.8876C-1162.89 20.2533 -1162.75 19.6785 -1162.67 19.2624C-1162.63 19.0541 -1162.59 18.885 -1162.57 18.7675C-1162.56 18.7087 -1162.55 18.6627 -1162.55 18.6311C-1162.55 18.6154 -1162.54 18.6032 -1162.54 18.5948C-1162.54 18.5905 -1162.54 18.5873 -1162.54 18.585C-1162.54 18.5838 -1162.54 18.5829 -1162.54 18.5823C-1162.54 18.582 -1162.54 18.5817 -1162.54 18.5815C-1162.54 18.5814 -1162.54 18.5813 -1162.54 18.5812C-1162.54 18.5811 -1162.54 18.581 -1162.94 18.5197ZM-1162.83 10.3478C-1162.57 11.9129 -1162.69 13.9256 -1162.88 15.5719C-1162.97 16.3899 -1163.09 17.1078 -1163.18 17.6211C-1163.22 17.8776 -1163.26 18.0827 -1163.29 18.2232C-1163.3 18.2934 -1163.31 18.3475 -1163.32 18.3838C-1163.32 18.402 -1163.32 18.4157 -1163.33 18.4247C-1163.33 18.4292 -1163.33 18.4326 -1163.33 18.4347C-1163.33 18.4358 -1163.33 18.4366 -1163.33 18.4371C-1163.33 18.4373 -1163.33 18.4375 -1163.33 18.4376C-1163.33 18.4376 -1163.33 18.4377 -1163.33 18.4377C-1163.33 18.4377 -1163.33 18.4376 -1162.94 18.5197C-1162.54 18.6018 -1162.54 18.6018 -1162.54 18.6017C-1162.54 18.6016 -1162.54 18.6015 -1162.54 18.6014C-1162.54 18.6012 -1162.54 18.6009 -1162.54 18.6006C-1162.54 18.5998 -1162.54 18.5988 -1162.54 18.5975C-1162.54 18.5948 -1162.54 18.591 -1162.54 18.5859C-1162.54 18.5759 -1162.54 18.5612 -1162.53 18.542C-1162.52 18.5036 -1162.51 18.4473 -1162.5 18.3747C-1162.47 18.2296 -1162.43 18.0193 -1162.39 17.7572C-1162.3 17.2331 -1162.18 16.5003 -1162.08 15.6647C-1161.89 14.0035 -1161.76 11.897 -1162.04 10.2146L-1162.83 10.3478ZM-1165.69 5.12732C-1164.8 5.88618 -1164.18 6.61247 -1163.75 7.42745C-1163.31 8.2445 -1163.03 9.17154 -1162.83 10.3478L-1162.04 10.2146C-1162.25 8.98728 -1162.55 7.96844 -1163.04 7.0488C-1163.54 6.12709 -1164.22 5.32588 -1165.17 4.51786L-1165.69 5.12732ZM-1171.5 3.20076C-1170.27 3.18886 -1169.28 3.28664 -1168.37 3.5742C-1167.46 3.86051 -1166.61 4.34211 -1165.69 5.12732L-1165.17 4.51786C-1166.16 3.67678 -1167.1 3.13537 -1168.13 2.81129C-1169.15 2.48846 -1170.24 2.38848 -1171.5 2.4008L-1171.5 3.20076ZM-1177.31 5.12732C-1176.39 4.34211 -1175.54 3.86051 -1174.63 3.5742C-1173.72 3.28664 -1172.73 3.18886 -1171.5 3.20076L-1171.5 2.4008C-1172.76 2.38848 -1173.85 2.48846 -1174.87 2.81129C-1175.9 3.13537 -1176.84 3.67678 -1177.83 4.51786L-1177.31 5.12732ZM-1180.17 10.3478C-1179.97 9.17154 -1179.69 8.2445 -1179.25 7.42745C-1178.82 6.61247 -1178.2 5.88618 -1177.31 5.12732L-1177.83 4.51786C-1178.78 5.32588 -1179.46 6.12709 -1179.96 7.0488C-1180.45 7.96844 -1180.75 8.98728 -1180.96 10.2146L-1180.17 10.3478ZM-432.063 18.5197C-431.672 18.4376 -431.672 18.4377 -431.672 18.4377C-431.672 18.4377 -431.672 18.4376 -431.672 18.4376C-431.672 18.4375 -431.672 18.4373 -431.672 18.4371C-431.672 18.4366 -431.672 18.4358 -431.672 18.4347C-431.673 18.4326 -431.674 18.4292 -431.675 18.4247C-431.676 18.4157 -431.679 18.402 -431.683 18.3838C-431.69 18.3475 -431.701 18.2934 -431.714 18.2232C-431.742 18.0827 -431.78 17.8776 -431.824 17.6211C-431.913 17.1078 -432.025 16.3899 -432.121 15.5719C-432.313 13.9256 -432.432 11.9129 -432.167 10.3478L-432.956 10.2146C-433.24 11.897 -433.109 14.0035 -432.915 15.6646C-432.818 16.5003 -432.703 17.2331 -432.612 17.7572C-432.567 18.0193 -432.528 18.2296 -432.5 18.3747C-432.486 18.4473 -432.475 18.5036 -432.467 18.542C-432.463 18.5612 -432.46 18.5759 -432.458 18.5859C-432.457 18.591 -432.456 18.5948 -432.456 18.5975C-432.455 18.5988 -432.455 18.5998 -432.455 18.6006C-432.455 18.6009 -432.455 18.6012 -432.455 18.6014C-432.455 18.6015 -432.455 18.6016 -432.455 18.6017C-432.455 18.6018 -432.455 18.6018 -432.063 18.5197ZM-429.519 24.1576C-430.265 23.3038 -430.806 21.9026 -431.163 20.6659C-431.339 20.0562 -431.466 19.5024 -431.548 19.1011C-431.589 18.9006 -431.62 18.7387 -431.639 18.6274C-431.649 18.5718 -431.657 18.5289 -431.661 18.5002C-431.664 18.4859 -431.665 18.4751 -431.667 18.4681C-431.667 18.4646 -431.668 18.462 -431.668 18.4604C-431.668 18.4596 -431.668 18.459 -431.668 18.4587C-431.668 18.4585 -431.668 18.4584 -431.668 18.4584C-431.668 18.4583 -431.668 18.4584 -431.668 18.4583C-431.668 18.4584 -431.668 18.4584 -432.063 18.5197C-432.459 18.581 -432.459 18.5811 -432.459 18.5812C-432.459 18.5813 -432.459 18.5814 -432.459 18.5815C-432.459 18.5817 -432.458 18.582 -432.458 18.5823C-432.458 18.5829 -432.458 18.5838 -432.458 18.585C-432.458 18.5873 -432.457 18.5905 -432.456 18.5947C-432.455 18.6032 -432.453 18.6154 -432.451 18.6311C-432.445 18.6627 -432.438 18.7087 -432.427 18.7675C-432.406 18.885 -432.375 19.0541 -432.332 19.2624C-432.246 19.6785 -432.115 20.2533 -431.932 20.8876C-431.571 22.1391 -430.991 23.6884 -430.122 24.6837L-429.519 24.1576ZM-423.504 27.066C-424.816 27.0789 -425.879 26.8463 -426.826 26.3736C-427.777 25.8992 -428.634 25.171 -429.519 24.1576L-430.122 24.6837C-429.195 25.7453 -428.258 26.5532 -427.183 27.0894C-426.106 27.6274 -424.914 27.8799 -423.496 27.8659L-423.504 27.066ZM-417.481 24.1576C-418.365 25.171 -419.223 25.8992 -420.174 26.3736C-421.12 26.8463 -422.183 27.0789 -423.496 27.066L-423.504 27.8659C-422.086 27.8799 -420.894 27.6274 -419.816 27.0894C-418.742 26.5532 -417.805 25.7453 -416.878 24.6837L-417.481 24.1576ZM-414.936 18.5197C-415.332 18.4584 -415.332 18.4584 -415.332 18.4583C-415.332 18.4584 -415.332 18.4583 -415.332 18.4584C-415.332 18.4584 -415.332 18.4585 -415.332 18.4587C-415.332 18.459 -415.332 18.4596 -415.332 18.4604C-415.332 18.462 -415.333 18.4646 -415.333 18.4681C-415.334 18.4751 -415.336 18.4859 -415.338 18.5002C-415.343 18.5289 -415.35 18.5718 -415.36 18.6274C-415.38 18.7387 -415.41 18.9006 -415.452 19.1011C-415.534 19.5024 -415.661 20.0562 -415.837 20.6659C-416.193 21.9026 -416.735 23.3038 -417.481 24.1576L-416.878 24.6837C-416.009 23.6884 -415.429 22.1391 -415.068 20.8876C-414.885 20.2533 -414.754 19.6785 -414.668 19.2624C-414.625 19.0541 -414.594 18.885 -414.573 18.7675C-414.562 18.7087 -414.554 18.6627 -414.549 18.6311C-414.547 18.6154 -414.545 18.6032 -414.543 18.5947C-414.543 18.5905 -414.542 18.5873 -414.542 18.585C-414.542 18.5838 -414.541 18.5829 -414.541 18.5823C-414.541 18.582 -414.541 18.5817 -414.541 18.5815C-414.541 18.5814 -414.541 18.5813 -414.541 18.5812C-414.541 18.5811 -414.541 18.581 -414.936 18.5197ZM-414.832 10.3478C-414.568 11.9129 -414.687 13.9256 -414.879 15.5718C-414.974 16.3899 -415.087 17.1078 -415.176 17.6211C-415.22 17.8776 -415.258 18.0826 -415.285 18.2232C-415.299 18.2934 -415.31 18.3475 -415.317 18.3838C-415.32 18.402 -415.323 18.4157 -415.325 18.4247C-415.326 18.4292 -415.327 18.4326 -415.327 18.4347C-415.327 18.4358 -415.328 18.4366 -415.328 18.4371C-415.328 18.4373 -415.328 18.4375 -415.328 18.4376C-415.328 18.4376 -415.328 18.4376 -415.328 18.4377C-415.328 18.4377 -415.328 18.4376 -414.936 18.5197C-414.545 18.6018 -414.545 18.6018 -414.545 18.6017C-414.545 18.6016 -414.545 18.6015 -414.545 18.6014C-414.545 18.6012 -414.545 18.6009 -414.545 18.6006C-414.544 18.5998 -414.544 18.5988 -414.544 18.5975C-414.543 18.5948 -414.543 18.591 -414.542 18.5859C-414.539 18.5759 -414.536 18.5612 -414.533 18.542C-414.525 18.5036 -414.514 18.4473 -414.5 18.3747C-414.472 18.2296 -414.432 18.0193 -414.387 17.7572C-414.297 17.2331 -414.182 16.5003 -414.084 15.6647C-413.89 14.0035 -413.759 11.897 -414.043 10.2146L-414.832 10.3478ZM-417.688 5.12732C-416.795 5.88618 -416.185 6.61247 -415.747 7.42745C-415.308 8.2445 -415.031 9.17154 -414.832 10.3478L-414.043 10.2146C-414.251 8.98728 -414.548 7.96844 -415.042 7.0488C-415.537 6.12709 -416.219 5.32588 -417.169 4.51786L-417.688 5.12732ZM-423.496 3.20076C-422.271 3.18886 -421.278 3.28664 -420.367 3.5742C-419.459 3.86051 -418.611 4.34211 -417.688 5.12732L-417.169 4.51787C-418.158 3.67679 -419.099 3.13537 -420.126 2.81129C-421.149 2.48846 -422.235 2.38848 -423.504 2.4008L-423.496 3.20076ZM-429.312 5.12732C-428.389 4.34211 -427.54 3.86051 -426.633 3.5742C-425.722 3.28664 -424.729 3.18886 -423.504 3.20076L-423.496 2.4008C-424.765 2.38848 -425.851 2.48846 -426.874 2.81129C-427.901 3.13537 -428.841 3.67678 -429.83 4.51787L-429.312 5.12732ZM-432.167 10.3478C-431.969 9.17154 -431.692 8.2445 -431.253 7.42745C-430.815 6.61247 -430.205 5.88618 -429.312 5.12732L-429.83 4.51787C-430.781 5.32588 -431.462 6.12709 -431.958 7.0488C-432.452 7.96844 -432.749 8.98728 -432.956 10.2147L-432.167 10.3478ZM-344.063 18.5197C-343.672 18.4376 -343.672 18.4377 -343.672 18.4377C-343.672 18.4377 -343.672 18.4376 -343.672 18.4376C-343.672 18.4375 -343.672 18.4373 -343.672 18.4371C-343.672 18.4366 -343.672 18.4358 -343.672 18.4347C-343.673 18.4326 -343.674 18.4292 -343.675 18.4247C-343.676 18.4157 -343.679 18.402 -343.683 18.3838C-343.69 18.3475 -343.701 18.2934 -343.714 18.2232C-343.742 18.0827 -343.78 17.8776 -343.824 17.6211C-343.913 17.1078 -344.025 16.3899 -344.121 15.5719C-344.313 13.9256 -344.432 11.9129 -344.167 10.3478L-344.956 10.2146C-345.24 11.897 -345.109 14.0035 -344.915 15.6646C-344.818 16.5003 -344.703 17.2331 -344.612 17.7572C-344.567 18.0193 -344.528 18.2296 -344.5 18.3747C-344.486 18.4473 -344.475 18.5036 -344.467 18.542C-344.463 18.5612 -344.46 18.5759 -344.458 18.5859C-344.457 18.591 -344.456 18.5948 -344.456 18.5975C-344.455 18.5988 -344.455 18.5998 -344.455 18.6006C-344.455 18.6009 -344.455 18.6012 -344.455 18.6014C-344.455 18.6015 -344.455 18.6016 -344.455 18.6017C-344.455 18.6018 -344.455 18.6018 -344.063 18.5197ZM-341.519 24.1576C-342.265 23.3038 -342.806 21.9026 -343.163 20.6659C-343.339 20.0562 -343.466 19.5024 -343.548 19.1011C-343.589 18.9006 -343.62 18.7387 -343.639 18.6274C-343.649 18.5718 -343.657 18.5289 -343.661 18.5002C-343.664 18.4859 -343.665 18.4751 -343.667 18.4681C-343.667 18.4646 -343.668 18.462 -343.668 18.4604C-343.668 18.4596 -343.668 18.459 -343.668 18.4587C-343.668 18.4585 -343.668 18.4584 -343.668 18.4584C-343.668 18.4583 -343.668 18.4584 -343.668 18.4583C-343.668 18.4584 -343.668 18.4584 -344.063 18.5197C-344.459 18.581 -344.459 18.5811 -344.459 18.5812C-344.459 18.5813 -344.459 18.5814 -344.459 18.5815C-344.459 18.5817 -344.458 18.582 -344.458 18.5823C-344.458 18.5829 -344.458 18.5838 -344.458 18.585C-344.458 18.5873 -344.457 18.5905 -344.456 18.5947C-344.455 18.6032 -344.453 18.6154 -344.451 18.6311C-344.445 18.6627 -344.438 18.7087 -344.427 18.7675C-344.406 18.885 -344.375 19.0541 -344.332 19.2624C-344.246 19.6785 -344.115 20.2533 -343.932 20.8876C-343.571 22.1391 -342.991 23.6884 -342.122 24.6837L-341.519 24.1576ZM-335.504 27.066C-336.816 27.0789 -337.879 26.8463 -338.826 26.3736C-339.777 25.8992 -340.634 25.171 -341.519 24.1576L-342.122 24.6837C-341.195 25.7453 -340.258 26.5532 -339.183 27.0894C-338.106 27.6274 -336.914 27.8799 -335.496 27.8659L-335.504 27.066ZM-329.481 24.1576C-330.365 25.171 -331.223 25.8992 -332.174 26.3736C-333.12 26.8463 -334.183 27.0789 -335.496 27.066L-335.504 27.8659C-334.086 27.8799 -332.894 27.6274 -331.816 27.0894C-330.742 26.5532 -329.805 25.7453 -328.878 24.6837L-329.481 24.1576ZM-326.936 18.5197C-327.332 18.4584 -327.332 18.4584 -327.332 18.4583C-327.332 18.4584 -327.332 18.4583 -327.332 18.4584C-327.332 18.4584 -327.332 18.4585 -327.332 18.4587C-327.332 18.459 -327.332 18.4596 -327.332 18.4604C-327.332 18.462 -327.333 18.4646 -327.333 18.4681C-327.334 18.4751 -327.336 18.4859 -327.338 18.5002C-327.343 18.5289 -327.35 18.5718 -327.36 18.6274C-327.38 18.7387 -327.41 18.9006 -327.452 19.1011C-327.534 19.5024 -327.661 20.0562 -327.837 20.6659C-328.193 21.9026 -328.735 23.3038 -329.481 24.1576L-328.878 24.6837C-328.009 23.6884 -327.429 22.1391 -327.068 20.8876C-326.885 20.2533 -326.754 19.6785 -326.668 19.2624C-326.625 19.0541 -326.594 18.885 -326.573 18.7675C-326.562 18.7087 -326.554 18.6627 -326.549 18.6311C-326.547 18.6154 -326.545 18.6032 -326.543 18.5947C-326.543 18.5905 -326.542 18.5873 -326.542 18.585C-326.542 18.5838 -326.541 18.5829 -326.541 18.5823C-326.541 18.582 -326.541 18.5817 -326.541 18.5815C-326.541 18.5814 -326.541 18.5813 -326.541 18.5812C-326.541 18.5811 -326.541 18.581 -326.936 18.5197ZM-326.832 10.3478C-326.568 11.9129 -326.687 13.9256 -326.879 15.5718C-326.974 16.3899 -327.087 17.1078 -327.176 17.6211C-327.22 17.8776 -327.258 18.0826 -327.285 18.2232C-327.299 18.2934 -327.31 18.3475 -327.317 18.3838C-327.32 18.402 -327.323 18.4157 -327.325 18.4247C-327.326 18.4292 -327.327 18.4326 -327.327 18.4347C-327.327 18.4358 -327.328 18.4366 -327.328 18.4371C-327.328 18.4373 -327.328 18.4375 -327.328 18.4376C-327.328 18.4376 -327.328 18.4376 -327.328 18.4377C-327.328 18.4377 -327.328 18.4376 -326.936 18.5197C-326.545 18.6018 -326.545 18.6018 -326.545 18.6017C-326.545 18.6016 -326.545 18.6015 -326.545 18.6014C-326.545 18.6012 -326.545 18.6009 -326.545 18.6006C-326.544 18.5998 -326.544 18.5988 -326.544 18.5975C-326.543 18.5948 -326.543 18.591 -326.542 18.5859C-326.539 18.5759 -326.536 18.5612 -326.533 18.542C-326.525 18.5036 -326.514 18.4473 -326.5 18.3747C-326.472 18.2296 -326.432 18.0193 -326.387 17.7572C-326.297 17.2331 -326.182 16.5003 -326.084 15.6647C-325.89 14.0035 -325.759 11.897 -326.043 10.2146L-326.832 10.3478ZM-329.688 5.12732C-328.795 5.88618 -328.185 6.61247 -327.747 7.42745C-327.308 8.2445 -327.031 9.17154 -326.832 10.3478L-326.043 10.2146C-326.251 8.98728 -326.548 7.96844 -327.042 7.0488C-327.537 6.12709 -328.219 5.32588 -329.169 4.51786L-329.688 5.12732ZM-335.496 3.20076C-334.271 3.18886 -333.278 3.28664 -332.367 3.5742C-331.459 3.86051 -330.611 4.34211 -329.688 5.12732L-329.169 4.51787C-330.158 3.67679 -331.099 3.13537 -332.126 2.81129C-333.149 2.48846 -334.235 2.38848 -335.504 2.4008L-335.496 3.20076ZM-341.312 5.12732C-340.389 4.34211 -339.54 3.86051 -338.633 3.5742C-337.722 3.28664 -336.729 3.18886 -335.504 3.20076L-335.496 2.4008C-336.765 2.38848 -337.851 2.48846 -338.874 2.81129C-339.901 3.13537 -340.841 3.67678 -341.83 4.51787L-341.312 5.12732ZM-344.167 10.3478C-343.969 9.17154 -343.692 8.2445 -343.253 7.42745C-342.815 6.61247 -342.205 5.88618 -341.312 5.12732L-341.83 4.51787C-342.781 5.32588 -343.462 6.12709 -343.958 7.0488C-344.452 7.96844 -344.749 8.98728 -344.956 10.2147L-344.167 10.3478ZM-916.956 10.2146C-917.24 11.897 -917.109 14.0035 -916.915 15.6647C-916.818 16.5003 -916.703 17.2331 -916.612 17.7572C-916.567 18.0193 -916.528 18.2296 -916.5 18.3747C-916.486 18.4473 -916.475 18.5036 -916.467 18.542C-916.463 18.5612 -916.46 18.5759 -916.458 18.5859C-916.457 18.591 -916.456 18.5948 -916.456 18.5975C-916.455 18.5988 -916.455 18.5998 -916.455 18.6006C-916.455 18.6009 -916.455 18.6012 -916.455 18.6014C-916.455 18.6015 -916.455 18.6016 -916.455 18.6017C-916.455 18.6018 -916.455 18.6018 -916.063 18.5197C-915.672 18.4376 -915.672 18.4377 -915.672 18.4377C-915.672 18.4376 -915.672 18.4376 -915.672 18.4376C-915.672 18.4375 -915.672 18.4373 -915.672 18.4371C-915.672 18.4366 -915.672 18.4358 -915.672 18.4347C-915.673 18.4326 -915.674 18.4292 -915.675 18.4247C-915.676 18.4157 -915.679 18.402 -915.683 18.3838C-915.69 18.3475 -915.701 18.2934 -915.715 18.2232C-915.742 18.0826 -915.78 17.8776 -915.824 17.6211C-915.913 17.1078 -916.025 16.3899 -916.121 15.5719C-916.313 13.9256 -916.432 11.9129 -916.167 10.3478L-916.956 10.2146ZM-913.83 4.51786C-914.781 5.32588 -915.462 6.12709 -915.958 7.0488C-916.452 7.96844 -916.749 8.98728 -916.956 10.2146L-916.167 10.3478C-915.969 9.17154 -915.692 8.2445 -915.253 7.42745C-914.815 6.61247 -914.205 5.88618 -913.312 5.12732L-913.83 4.51786ZM-907.496 2.4008C-908.765 2.38848 -909.851 2.48846 -910.874 2.81129C-911.901 3.13537 -912.841 3.67678 -913.83 4.51786L-913.312 5.12732C-912.389 4.34211 -911.54 3.86051 -910.633 3.5742C-909.722 3.28664 -908.729 3.18886 -907.504 3.20076L-907.496 2.4008ZM-901.169 4.51787C-902.158 3.67679 -903.099 3.13537 -904.126 2.81129C-905.149 2.48846 -906.235 2.38848 -907.504 2.4008L-907.496 3.20076C-906.271 3.18886 -905.278 3.28664 -904.367 3.5742C-903.459 3.86051 -902.611 4.34211 -901.688 5.12732L-901.169 4.51787ZM-898.043 10.2146C-898.251 8.98728 -898.548 7.96844 -899.042 7.0488C-899.537 6.12709 -900.219 5.32588 -901.169 4.51786L-901.688 5.12732C-900.795 5.88618 -900.185 6.61247 -899.747 7.42745C-899.308 8.2445 -899.031 9.17154 -898.832 10.3478L-898.043 10.2146ZM-898.936 18.5197C-898.545 18.6018 -898.545 18.6018 -898.545 18.6017C-898.545 18.6016 -898.545 18.6015 -898.545 18.6014C-898.545 18.6012 -898.545 18.6009 -898.545 18.6006C-898.544 18.5998 -898.544 18.5988 -898.544 18.5975C-898.543 18.5948 -898.543 18.591 -898.542 18.5859C-898.539 18.5759 -898.536 18.5612 -898.533 18.542C-898.525 18.5036 -898.514 18.4473 -898.5 18.3747C-898.472 18.2296 -898.432 18.0193 -898.387 17.7572C-898.297 17.2331 -898.182 16.5003 -898.084 15.6647C-897.89 14.0035 -897.759 11.897 -898.043 10.2146L-898.832 10.3478C-898.568 11.9129 -898.687 13.9256 -898.879 15.5719C-898.974 16.3899 -899.087 17.1078 -899.176 17.6211C-899.22 17.8776 -899.258 18.0826 -899.285 18.2232C-899.299 18.2934 -899.309 18.3475 -899.317 18.3838C-899.32 18.402 -899.323 18.4157 -899.325 18.4247C-899.326 18.4292 -899.327 18.4326 -899.327 18.4347C-899.327 18.4358 -899.328 18.4366 -899.328 18.4371C-899.328 18.4373 -899.328 18.4375 -899.328 18.4376C-899.328 18.4376 -899.328 18.4376 -899.328 18.4377C-899.328 18.4377 -899.328 18.4376 -898.936 18.5197ZM-900.878 24.6837C-900.009 23.6884 -899.429 22.1391 -899.068 20.8876C-898.885 20.2533 -898.754 19.6785 -898.668 19.2624C-898.625 19.0541 -898.594 18.885 -898.573 18.7675C-898.562 18.7087 -898.554 18.6627 -898.549 18.6311C-898.547 18.6154 -898.545 18.6032 -898.543 18.5948C-898.543 18.5905 -898.542 18.5873 -898.542 18.585C-898.541 18.5838 -898.541 18.5829 -898.541 18.5823C-898.541 18.582 -898.541 18.5817 -898.541 18.5815C-898.541 18.5814 -898.541 18.5813 -898.541 18.5812C-898.541 18.5811 -898.541 18.581 -898.936 18.5197C-899.332 18.4584 -899.332 18.4584 -899.332 18.4583C-899.332 18.4584 -899.332 18.4583 -899.332 18.4584C-899.332 18.4584 -899.332 18.4585 -899.332 18.4587C-899.332 18.459 -899.332 18.4596 -899.332 18.4604C-899.332 18.462 -899.333 18.4646 -899.333 18.4681C-899.334 18.4751 -899.336 18.4859 -899.338 18.5002C-899.343 18.5289 -899.35 18.5718 -899.36 18.6274C-899.38 18.7387 -899.41 18.9006 -899.452 19.1011C-899.534 19.5024 -899.661 20.0562 -899.837 20.6659C-900.193 21.9026 -900.735 23.3038 -901.48 24.1576L-900.878 24.6837ZM-907.504 27.8659C-906.086 27.8799 -904.894 27.6274 -903.816 27.0894C-902.742 26.5532 -901.805 25.7453 -900.878 24.6837L-901.48 24.1576C-902.365 25.171 -903.223 25.8992 -904.173 26.3736C-905.12 26.8463 -906.183 27.0789 -907.496 27.066L-907.504 27.8659ZM-914.122 24.6837C-913.195 25.7453 -912.258 26.5532 -911.183 27.0894C-910.106 27.6274 -908.914 27.8799 -907.496 27.8659L-907.504 27.066C-908.816 27.0789 -909.879 26.8463 -910.826 26.3736C-911.777 25.8992 -912.634 25.171 -913.519 24.1576L-914.122 24.6837ZM-916.063 18.5197C-916.459 18.581 -916.459 18.5811 -916.459 18.5812C-916.459 18.5813 -916.459 18.5814 -916.459 18.5815C-916.459 18.5817 -916.458 18.582 -916.458 18.5823C-916.458 18.5829 -916.458 18.5838 -916.458 18.585C-916.458 18.5873 -916.457 18.5905 -916.456 18.5947C-916.455 18.6032 -916.453 18.6154 -916.451 18.6311C-916.445 18.6627 -916.437 18.7087 -916.427 18.7675C-916.406 18.885 -916.375 19.0541 -916.332 19.2624C-916.246 19.6785 -916.115 20.2533 -915.932 20.8876C-915.571 22.1391 -914.991 23.6884 -914.122 24.6837L-913.519 24.1576C-914.265 23.3038 -914.806 21.9026 -915.163 20.6659C-915.339 20.0562 -915.466 19.5024 -915.548 19.1011C-915.589 18.9006 -915.62 18.7387 -915.639 18.6274C-915.649 18.5718 -915.657 18.5289 -915.661 18.5002C-915.664 18.4859 -915.665 18.4751 -915.667 18.4681C-915.667 18.4646 -915.668 18.462 -915.668 18.4604C-915.668 18.4596 -915.668 18.459 -915.668 18.4587C-915.668 18.4585 -915.668 18.4584 -915.668 18.4584C-915.668 18.4583 -915.668 18.4584 -915.668 18.4583C-915.668 18.4584 -915.668 18.4584 -916.063 18.5197ZM-256.063 18.5197C-255.672 18.4376 -255.672 18.4377 -255.672 18.4377C-255.672 18.4377 -255.672 18.4376 -255.672 18.4376C-255.672 18.4375 -255.672 18.4373 -255.672 18.4371C-255.672 18.4366 -255.672 18.4358 -255.673 18.4347C-255.673 18.4326 -255.674 18.4292 -255.675 18.4247C-255.677 18.4157 -255.679 18.402 -255.683 18.3838C-255.69 18.3475 -255.701 18.2934 -255.715 18.2232C-255.742 18.0827 -255.78 17.8776 -255.824 17.6211C-255.913 17.1078 -256.025 16.3899 -256.121 15.5719C-256.313 13.9256 -256.432 11.9129 -256.167 10.3478L-256.956 10.2146C-257.24 11.897 -257.11 14.0035 -256.916 15.6646C-256.818 16.5003 -256.703 17.2331 -256.613 17.7572C-256.567 18.0193 -256.528 18.2296 -256.5 18.3747C-256.486 18.4473 -256.475 18.5036 -256.467 18.542C-256.463 18.5612 -256.46 18.5759 -256.458 18.5859C-256.457 18.591 -256.456 18.5948 -256.456 18.5975C-256.456 18.5988 -256.455 18.5998 -256.455 18.6006C-256.455 18.6009 -256.455 18.6012 -256.455 18.6014C-256.455 18.6015 -256.455 18.6016 -256.455 18.6017C-256.455 18.6018 -256.455 18.6018 -256.063 18.5197ZM-253.519 24.1576C-254.265 23.3038 -254.806 21.9026 -255.163 20.6659C-255.339 20.0562 -255.466 19.5024 -255.548 19.1011C-255.589 18.9006 -255.62 18.7387 -255.64 18.6274C-255.649 18.5718 -255.657 18.5289 -255.661 18.5002C-255.664 18.4859 -255.666 18.4751 -255.667 18.4681C-255.667 18.4646 -255.668 18.462 -255.668 18.4604C-255.668 18.4596 -255.668 18.459 -255.668 18.4587C-255.668 18.4585 -255.668 18.4584 -255.668 18.4584C-255.668 18.4583 -255.668 18.4584 -255.668 18.4583C-255.668 18.4584 -255.668 18.4584 -256.063 18.5197C-256.459 18.5811 -256.459 18.5811 -256.459 18.5812C-256.459 18.5813 -256.459 18.5814 -256.459 18.5815C-256.459 18.5817 -256.459 18.582 -256.458 18.5823C-256.458 18.5829 -256.458 18.5839 -256.458 18.585C-256.458 18.5873 -256.457 18.5905 -256.457 18.5948C-256.455 18.6032 -256.453 18.6154 -256.451 18.6311C-256.445 18.6627 -256.438 18.7087 -256.427 18.7675C-256.406 18.885 -256.375 19.0541 -256.332 19.2624C-256.246 19.6786 -256.115 20.2533 -255.932 20.8876C-255.571 22.1391 -254.991 23.6884 -254.122 24.6837L-253.519 24.1576ZM-247.504 27.066C-248.817 27.0789 -249.879 26.8463 -250.826 26.3736C-251.777 25.8992 -252.634 25.171 -253.519 24.1576L-254.122 24.6837C-253.195 25.7453 -252.258 26.5532 -251.183 27.0894C-250.106 27.6274 -248.914 27.8799 -247.496 27.8659L-247.504 27.066ZM-241.48 24.1576C-242.365 25.171 -243.223 25.8992 -244.174 26.3736C-245.12 26.8463 -246.183 27.0789 -247.496 27.066L-247.504 27.8659C-246.086 27.8799 -244.894 27.6274 -243.816 27.0894C-242.742 26.5532 -241.805 25.7453 -240.878 24.6837L-241.48 24.1576ZM-238.936 18.5197C-239.332 18.4584 -239.332 18.4584 -239.332 18.4584C-239.332 18.4584 -239.332 18.4583 -239.332 18.4584C-239.332 18.4584 -239.332 18.4585 -239.332 18.4587C-239.332 18.459 -239.332 18.4596 -239.332 18.4604C-239.332 18.462 -239.333 18.4646 -239.333 18.4681C-239.334 18.4751 -239.336 18.4859 -239.339 18.5002C-239.343 18.5289 -239.35 18.5718 -239.36 18.6274C-239.38 18.7387 -239.41 18.9006 -239.452 19.1011C-239.534 19.5024 -239.661 20.0562 -239.837 20.6659C-240.193 21.9026 -240.735 23.3038 -241.48 24.1576L-240.878 24.6837C-240.009 23.6884 -239.429 22.1391 -239.068 20.8876C-238.885 20.2532 -238.754 19.6785 -238.668 19.2624C-238.625 19.0541 -238.594 18.885 -238.573 18.7675C-238.562 18.7087 -238.554 18.6627 -238.549 18.6311C-238.547 18.6154 -238.545 18.6032 -238.543 18.5947C-238.543 18.5905 -238.542 18.5873 -238.542 18.585C-238.542 18.5838 -238.541 18.5829 -238.541 18.5823C-238.541 18.5819 -238.541 18.5817 -238.541 18.5815C-238.541 18.5814 -238.541 18.5813 -238.541 18.5812C-238.541 18.5811 -238.541 18.581 -238.936 18.5197ZM-238.832 10.3478C-238.568 11.9129 -238.687 13.9256 -238.879 15.5719C-238.974 16.3899 -239.087 17.1078 -239.176 17.6211C-239.22 17.8776 -239.258 18.0827 -239.285 18.2232C-239.299 18.2934 -239.31 18.3475 -239.317 18.3838C-239.321 18.402 -239.323 18.4157 -239.325 18.4247C-239.326 18.4292 -239.327 18.4326 -239.327 18.4347C-239.328 18.4358 -239.328 18.4366 -239.328 18.4371C-239.328 18.4373 -239.328 18.4375 -239.328 18.4376C-239.328 18.4376 -239.328 18.4377 -239.328 18.4377C-239.328 18.4377 -239.328 18.4376 -238.936 18.5197C-238.545 18.6018 -238.545 18.6018 -238.545 18.6017C-238.545 18.6016 -238.545 18.6015 -238.545 18.6014C-238.545 18.6012 -238.545 18.6009 -238.545 18.6006C-238.545 18.5998 -238.544 18.5988 -238.544 18.5975C-238.543 18.5948 -238.543 18.591 -238.542 18.5859C-238.54 18.5759 -238.536 18.5612 -238.533 18.542C-238.525 18.5036 -238.514 18.4473 -238.5 18.3747C-238.472 18.2296 -238.432 18.0193 -238.387 17.7572C-238.297 17.2331 -238.182 16.5003 -238.084 15.6646C-237.89 14.0035 -237.76 11.897 -238.044 10.2146L-238.832 10.3478ZM-241.688 5.12732C-240.795 5.88618 -240.185 6.61247 -239.747 7.42745C-239.308 8.2445 -239.031 9.17154 -238.832 10.3478L-238.044 10.2147C-238.251 8.98728 -238.548 7.96844 -239.042 7.0488C-239.537 6.12709 -240.219 5.32588 -241.169 4.51787L-241.688 5.12732ZM-247.496 3.20076C-246.271 3.18886 -245.278 3.28664 -244.367 3.5742C-243.459 3.86051 -242.611 4.34211 -241.688 5.12732L-241.169 4.51786C-242.158 3.67678 -243.099 3.13537 -244.126 2.81129C-245.149 2.48846 -246.235 2.38848 -247.504 2.4008L-247.496 3.20076ZM-253.312 5.12731C-252.389 4.34211 -251.54 3.86051 -250.633 3.5742C-249.722 3.28664 -248.729 3.18886 -247.504 3.20076L-247.496 2.4008C-248.765 2.38848 -249.851 2.48846 -250.874 2.81129C-251.901 3.13537 -252.841 3.67679 -253.83 4.51787L-253.312 5.12731ZM-256.167 10.3478C-255.969 9.17155 -255.692 8.2445 -255.253 7.42745C-254.815 6.61247 -254.205 5.88618 -253.312 5.12732L-253.83 4.51786C-254.781 5.32588 -255.463 6.12709 -255.958 7.0488C-256.452 7.96843 -256.749 8.98728 -256.956 10.2146L-256.167 10.3478ZM-872.956 10.2146C-873.24 11.897 -873.109 14.0035 -872.915 15.6647C-872.818 16.5003 -872.703 17.2331 -872.612 17.7572C-872.567 18.0193 -872.528 18.2296 -872.5 18.3747C-872.486 18.4473 -872.475 18.5036 -872.467 18.542C-872.463 18.5612 -872.46 18.5759 -872.458 18.5859C-872.457 18.591 -872.456 18.5948 -872.456 18.5975C-872.455 18.5988 -872.455 18.5998 -872.455 18.6006C-872.455 18.6009 -872.455 18.6012 -872.455 18.6014C-872.455 18.6015 -872.455 18.6016 -872.455 18.6017C-872.455 18.6018 -872.455 18.6018 -872.063 18.5197C-871.672 18.4376 -871.672 18.4377 -871.672 18.4377C-871.672 18.4376 -871.672 18.4376 -871.672 18.4376C-871.672 18.4375 -871.672 18.4373 -871.672 18.4371C-871.672 18.4366 -871.672 18.4358 -871.672 18.4347C-871.673 18.4326 -871.674 18.4292 -871.675 18.4247C-871.676 18.4157 -871.679 18.402 -871.683 18.3838C-871.69 18.3475 -871.701 18.2934 -871.715 18.2232C-871.742 18.0826 -871.78 17.8776 -871.824 17.6211C-871.913 17.1078 -872.025 16.3899 -872.121 15.5719C-872.313 13.9256 -872.432 11.9129 -872.167 10.3478L-872.956 10.2146ZM-869.83 4.51786C-870.781 5.32588 -871.462 6.12709 -871.958 7.0488C-872.452 7.96844 -872.749 8.98728 -872.956 10.2146L-872.167 10.3478C-871.969 9.17154 -871.692 8.2445 -871.253 7.42745C-870.815 6.61247 -870.205 5.88618 -869.312 5.12732L-869.83 4.51786ZM-863.496 2.4008C-864.765 2.38848 -865.851 2.48846 -866.874 2.81129C-867.901 3.13537 -868.841 3.67678 -869.83 4.51786L-869.312 5.12732C-868.389 4.34211 -867.54 3.86051 -866.633 3.5742C-865.722 3.28664 -864.729 3.18886 -863.504 3.20076L-863.496 2.4008ZM-857.169 4.51787C-858.158 3.67679 -859.099 3.13537 -860.126 2.81129C-861.149 2.48846 -862.235 2.38848 -863.504 2.4008L-863.496 3.20076C-862.271 3.18886 -861.278 3.28664 -860.367 3.5742C-859.459 3.86051 -858.611 4.34211 -857.688 5.12732L-857.169 4.51787ZM-854.043 10.2146C-854.251 8.98728 -854.548 7.96844 -855.042 7.0488C-855.537 6.12709 -856.219 5.32588 -857.169 4.51786L-857.688 5.12732C-856.795 5.88618 -856.185 6.61247 -855.747 7.42745C-855.308 8.2445 -855.031 9.17154 -854.832 10.3478L-854.043 10.2146ZM-854.936 18.5197C-854.545 18.6018 -854.545 18.6018 -854.545 18.6017C-854.545 18.6016 -854.545 18.6015 -854.545 18.6014C-854.545 18.6012 -854.545 18.6009 -854.545 18.6006C-854.544 18.5998 -854.544 18.5988 -854.544 18.5975C-854.543 18.5948 -854.543 18.591 -854.542 18.5859C-854.539 18.5759 -854.536 18.5612 -854.533 18.542C-854.525 18.5036 -854.514 18.4473 -854.5 18.3747C-854.472 18.2296 -854.432 18.0193 -854.387 17.7572C-854.297 17.2331 -854.182 16.5003 -854.084 15.6647C-853.89 14.0035 -853.759 11.897 -854.043 10.2146L-854.832 10.3478C-854.568 11.9129 -854.687 13.9256 -854.879 15.5719C-854.974 16.3899 -855.087 17.1078 -855.176 17.6211C-855.22 17.8776 -855.258 18.0826 -855.285 18.2232C-855.299 18.2934 -855.309 18.3475 -855.317 18.3838C-855.32 18.402 -855.323 18.4157 -855.325 18.4247C-855.326 18.4292 -855.327 18.4326 -855.327 18.4347C-855.327 18.4358 -855.328 18.4366 -855.328 18.4371C-855.328 18.4373 -855.328 18.4375 -855.328 18.4376C-855.328 18.4376 -855.328 18.4376 -855.328 18.4377C-855.328 18.4377 -855.328 18.4376 -854.936 18.5197ZM-856.878 24.6837C-856.009 23.6884 -855.429 22.1391 -855.068 20.8876C-854.885 20.2533 -854.754 19.6785 -854.668 19.2624C-854.625 19.0541 -854.594 18.885 -854.573 18.7675C-854.562 18.7087 -854.554 18.6627 -854.549 18.6311C-854.547 18.6154 -854.545 18.6032 -854.543 18.5948C-854.543 18.5905 -854.542 18.5873 -854.542 18.585C-854.541 18.5838 -854.541 18.5829 -854.541 18.5823C-854.541 18.582 -854.541 18.5817 -854.541 18.5815C-854.541 18.5814 -854.541 18.5813 -854.541 18.5812C-854.541 18.5811 -854.541 18.581 -854.936 18.5197C-855.332 18.4584 -855.332 18.4584 -855.332 18.4583C-855.332 18.4584 -855.332 18.4583 -855.332 18.4584C-855.332 18.4584 -855.332 18.4585 -855.332 18.4587C-855.332 18.459 -855.332 18.4596 -855.332 18.4604C-855.332 18.462 -855.333 18.4646 -855.333 18.4681C-855.334 18.4751 -855.336 18.4859 -855.338 18.5002C-855.343 18.5289 -855.35 18.5718 -855.36 18.6274C-855.38 18.7387 -855.41 18.9006 -855.452 19.1011C-855.534 19.5024 -855.661 20.0562 -855.837 20.6659C-856.193 21.9026 -856.735 23.3038 -857.48 24.1576L-856.878 24.6837ZM-863.504 27.8659C-862.086 27.8799 -860.894 27.6274 -859.816 27.0894C-858.742 26.5532 -857.805 25.7453 -856.878 24.6837L-857.48 24.1576C-858.365 25.171 -859.223 25.8992 -860.173 26.3736C-861.12 26.8463 -862.183 27.0789 -863.496 27.066L-863.504 27.8659ZM-870.122 24.6837C-869.195 25.7453 -868.258 26.5532 -867.183 27.0894C-866.106 27.6274 -864.914 27.8799 -863.496 27.8659L-863.504 27.066C-864.816 27.0789 -865.879 26.8463 -866.826 26.3736C-867.777 25.8992 -868.634 25.171 -869.519 24.1576L-870.122 24.6837ZM-872.063 18.5197C-872.459 18.581 -872.459 18.5811 -872.459 18.5812C-872.459 18.5813 -872.459 18.5814 -872.459 18.5815C-872.459 18.5817 -872.458 18.582 -872.458 18.5823C-872.458 18.5829 -872.458 18.5838 -872.458 18.585C-872.458 18.5873 -872.457 18.5905 -872.456 18.5947C-872.455 18.6032 -872.453 18.6154 -872.451 18.6311C-872.445 18.6627 -872.437 18.7087 -872.427 18.7675C-872.406 18.885 -872.375 19.0541 -872.332 19.2624C-872.246 19.6785 -872.115 20.2533 -871.932 20.8876C-871.571 22.1391 -870.991 23.6884 -870.122 24.6837L-869.519 24.1576C-870.265 23.3038 -870.806 21.9026 -871.163 20.6659C-871.339 20.0562 -871.466 19.5024 -871.548 19.1011C-871.589 18.9006 -871.62 18.7387 -871.639 18.6274C-871.649 18.5718 -871.657 18.5289 -871.661 18.5002C-871.664 18.4859 -871.665 18.4751 -871.667 18.4681C-871.667 18.4646 -871.668 18.462 -871.668 18.4604C-871.668 18.4596 -871.668 18.459 -871.668 18.4587C-871.668 18.4585 -871.668 18.4584 -871.668 18.4584C-871.668 18.4583 -871.668 18.4584 -871.668 18.4583C-871.668 18.4584 -871.668 18.4584 -872.063 18.5197ZM-212.063 18.5197C-211.672 18.4376 -211.672 18.4377 -211.672 18.4377C-211.672 18.4377 -211.672 18.4376 -211.672 18.4376C-211.672 18.4375 -211.672 18.4373 -211.672 18.4371C-211.672 18.4366 -211.672 18.4358 -211.673 18.4347C-211.673 18.4326 -211.674 18.4292 -211.675 18.4247C-211.677 18.4157 -211.679 18.402 -211.683 18.3838C-211.69 18.3475 -211.701 18.2934 -211.715 18.2232C-211.742 18.0827 -211.78 17.8776 -211.824 17.6211C-211.913 17.1078 -212.025 16.3899 -212.121 15.5719C-212.313 13.9256 -212.432 11.9129 -212.167 10.3478L-212.956 10.2146C-213.24 11.897 -213.11 14.0035 -212.916 15.6646C-212.818 16.5003 -212.703 17.2331 -212.613 17.7572C-212.567 18.0193 -212.528 18.2296 -212.5 18.3747C-212.486 18.4473 -212.475 18.5036 -212.467 18.542C-212.463 18.5612 -212.46 18.5759 -212.458 18.5859C-212.457 18.591 -212.456 18.5948 -212.456 18.5975C-212.456 18.5988 -212.455 18.5998 -212.455 18.6006C-212.455 18.6009 -212.455 18.6012 -212.455 18.6014C-212.455 18.6015 -212.455 18.6016 -212.455 18.6017C-212.455 18.6018 -212.455 18.6018 -212.063 18.5197ZM-209.519 24.1576C-210.265 23.3038 -210.806 21.9026 -211.163 20.6659C-211.339 20.0562 -211.466 19.5024 -211.548 19.1011C-211.589 18.9006 -211.62 18.7387 -211.64 18.6274C-211.649 18.5718 -211.657 18.5289 -211.661 18.5002C-211.664 18.4859 -211.666 18.4751 -211.667 18.4681C-211.667 18.4646 -211.668 18.462 -211.668 18.4604C-211.668 18.4596 -211.668 18.459 -211.668 18.4587C-211.668 18.4585 -211.668 18.4584 -211.668 18.4584C-211.668 18.4583 -211.668 18.4584 -211.668 18.4583C-211.668 18.4584 -211.668 18.4584 -212.063 18.5197C-212.459 18.5811 -212.459 18.5811 -212.459 18.5812C-212.459 18.5813 -212.459 18.5814 -212.459 18.5815C-212.459 18.5817 -212.459 18.582 -212.458 18.5823C-212.458 18.5829 -212.458 18.5839 -212.458 18.585C-212.458 18.5873 -212.457 18.5905 -212.457 18.5948C-212.455 18.6032 -212.453 18.6154 -212.451 18.6311C-212.445 18.6627 -212.438 18.7087 -212.427 18.7675C-212.406 18.885 -212.375 19.0541 -212.332 19.2624C-212.246 19.6786 -212.115 20.2533 -211.932 20.8876C-211.571 22.1391 -210.991 23.6884 -210.122 24.6837L-209.519 24.1576ZM-203.504 27.066C-204.817 27.0789 -205.879 26.8463 -206.826 26.3736C-207.777 25.8992 -208.634 25.171 -209.519 24.1576L-210.122 24.6837C-209.195 25.7453 -208.258 26.5532 -207.183 27.0894C-206.106 27.6274 -204.914 27.8799 -203.496 27.8659L-203.504 27.066ZM-197.48 24.1576C-198.365 25.171 -199.223 25.8992 -200.174 26.3736C-201.12 26.8463 -202.183 27.0789 -203.496 27.066L-203.504 27.8659C-202.086 27.8799 -200.894 27.6274 -199.816 27.0894C-198.742 26.5532 -197.805 25.7453 -196.878 24.6837L-197.48 24.1576ZM-194.936 18.5197C-195.332 18.4584 -195.332 18.4584 -195.332 18.4584C-195.332 18.4584 -195.332 18.4583 -195.332 18.4584C-195.332 18.4584 -195.332 18.4585 -195.332 18.4587C-195.332 18.459 -195.332 18.4596 -195.332 18.4604C-195.332 18.462 -195.333 18.4646 -195.333 18.4681C-195.334 18.4751 -195.336 18.4859 -195.339 18.5002C-195.343 18.5289 -195.35 18.5718 -195.36 18.6274C-195.38 18.7387 -195.41 18.9006 -195.452 19.1011C-195.534 19.5024 -195.661 20.0562 -195.837 20.6659C-196.193 21.9026 -196.735 23.3038 -197.48 24.1576L-196.878 24.6837C-196.009 23.6884 -195.429 22.1391 -195.068 20.8876C-194.885 20.2532 -194.754 19.6785 -194.668 19.2624C-194.625 19.0541 -194.594 18.885 -194.573 18.7675C-194.562 18.7087 -194.554 18.6627 -194.549 18.6311C-194.547 18.6154 -194.545 18.6032 -194.543 18.5947C-194.543 18.5905 -194.542 18.5873 -194.542 18.585C-194.542 18.5838 -194.541 18.5829 -194.541 18.5823C-194.541 18.5819 -194.541 18.5817 -194.541 18.5815C-194.541 18.5814 -194.541 18.5813 -194.541 18.5812C-194.541 18.5811 -194.541 18.581 -194.936 18.5197ZM-194.832 10.3478C-194.568 11.9129 -194.687 13.9256 -194.879 15.5719C-194.974 16.3899 -195.087 17.1078 -195.176 17.6211C-195.22 17.8776 -195.258 18.0827 -195.285 18.2232C-195.299 18.2934 -195.31 18.3475 -195.317 18.3838C-195.321 18.402 -195.323 18.4157 -195.325 18.4247C-195.326 18.4292 -195.327 18.4326 -195.327 18.4347C-195.328 18.4358 -195.328 18.4366 -195.328 18.4371C-195.328 18.4373 -195.328 18.4375 -195.328 18.4376C-195.328 18.4376 -195.328 18.4377 -195.328 18.4377C-195.328 18.4377 -195.328 18.4376 -194.936 18.5197C-194.545 18.6018 -194.545 18.6018 -194.545 18.6017C-194.545 18.6016 -194.545 18.6015 -194.545 18.6014C-194.545 18.6012 -194.545 18.6009 -194.545 18.6006C-194.545 18.5998 -194.544 18.5988 -194.544 18.5975C-194.543 18.5948 -194.543 18.591 -194.542 18.5859C-194.54 18.5759 -194.536 18.5612 -194.533 18.542C-194.525 18.5036 -194.514 18.4473 -194.5 18.3747C-194.472 18.2296 -194.432 18.0193 -194.387 17.7572C-194.297 17.2331 -194.182 16.5003 -194.084 15.6646C-193.89 14.0035 -193.76 11.897 -194.044 10.2146L-194.832 10.3478ZM-197.688 5.12732C-196.795 5.88618 -196.185 6.61247 -195.747 7.42745C-195.308 8.2445 -195.031 9.17154 -194.832 10.3478L-194.044 10.2147C-194.251 8.98728 -194.548 7.96844 -195.042 7.0488C-195.537 6.12709 -196.219 5.32588 -197.169 4.51787L-197.688 5.12732ZM-203.496 3.20076C-202.271 3.18886 -201.278 3.28664 -200.367 3.5742C-199.459 3.86051 -198.611 4.34211 -197.688 5.12732L-197.169 4.51786C-198.158 3.67678 -199.099 3.13537 -200.126 2.81129C-201.149 2.48846 -202.235 2.38848 -203.504 2.4008L-203.496 3.20076ZM-209.312 5.12731C-208.389 4.34211 -207.54 3.86051 -206.633 3.5742C-205.722 3.28664 -204.729 3.18886 -203.504 3.20076L-203.496 2.4008C-204.765 2.38848 -205.851 2.48846 -206.874 2.81129C-207.901 3.13537 -208.841 3.67679 -209.83 4.51787L-209.312 5.12731ZM-212.167 10.3478C-211.969 9.17155 -211.692 8.2445 -211.253 7.42745C-210.815 6.61247 -210.205 5.88618 -209.312 5.12732L-209.83 4.51786C-210.781 5.32588 -211.463 6.12709 -211.958 7.0488C-212.452 7.96843 -212.749 8.98728 -212.956 10.2146L-212.167 10.3478ZM-828.956 10.2146C-829.24 11.897 -829.109 14.0035 -828.915 15.6647C-828.818 16.5003 -828.703 17.2331 -828.612 17.7572C-828.567 18.0193 -828.528 18.2296 -828.5 18.3747C-828.486 18.4473 -828.475 18.5036 -828.467 18.542C-828.463 18.5612 -828.46 18.5759 -828.458 18.5859C-828.457 18.591 -828.456 18.5948 -828.456 18.5975C-828.455 18.5988 -828.455 18.5998 -828.455 18.6006C-828.455 18.6009 -828.455 18.6012 -828.455 18.6014C-828.455 18.6015 -828.455 18.6016 -828.455 18.6017C-828.455 18.6018 -828.455 18.6018 -828.063 18.5197C-827.672 18.4376 -827.672 18.4377 -827.672 18.4377C-827.672 18.4376 -827.672 18.4376 -827.672 18.4376C-827.672 18.4375 -827.672 18.4373 -827.672 18.4371C-827.672 18.4366 -827.672 18.4358 -827.672 18.4347C-827.673 18.4326 -827.674 18.4292 -827.675 18.4247C-827.676 18.4157 -827.679 18.402 -827.683 18.3838C-827.69 18.3475 -827.701 18.2934 -827.715 18.2232C-827.742 18.0826 -827.78 17.8776 -827.824 17.6211C-827.913 17.1078 -828.025 16.3899 -828.121 15.5719C-828.313 13.9256 -828.432 11.9129 -828.167 10.3478L-828.956 10.2146ZM-825.83 4.51786C-826.781 5.32588 -827.462 6.12709 -827.958 7.0488C-828.452 7.96844 -828.749 8.98728 -828.956 10.2146L-828.167 10.3478C-827.969 9.17154 -827.692 8.2445 -827.253 7.42745C-826.815 6.61247 -826.205 5.88618 -825.312 5.12732L-825.83 4.51786ZM-819.496 2.4008C-820.765 2.38848 -821.851 2.48846 -822.874 2.81129C-823.901 3.13537 -824.841 3.67678 -825.83 4.51786L-825.312 5.12732C-824.389 4.34211 -823.54 3.86051 -822.633 3.5742C-821.722 3.28664 -820.729 3.18886 -819.504 3.20076L-819.496 2.4008ZM-813.169 4.51787C-814.158 3.67679 -815.099 3.13537 -816.126 2.81129C-817.149 2.48846 -818.235 2.38848 -819.504 2.4008L-819.496 3.20076C-818.271 3.18886 -817.278 3.28664 -816.367 3.5742C-815.459 3.86051 -814.611 4.34211 -813.688 5.12732L-813.169 4.51787ZM-810.043 10.2146C-810.251 8.98728 -810.548 7.96844 -811.042 7.0488C-811.537 6.12709 -812.219 5.32588 -813.169 4.51786L-813.688 5.12732C-812.795 5.88618 -812.185 6.61247 -811.747 7.42745C-811.308 8.2445 -811.031 9.17154 -810.832 10.3478L-810.043 10.2146ZM-810.936 18.5197C-810.545 18.6018 -810.545 18.6018 -810.545 18.6017C-810.545 18.6016 -810.545 18.6015 -810.545 18.6014C-810.545 18.6012 -810.545 18.6009 -810.545 18.6006C-810.544 18.5998 -810.544 18.5988 -810.544 18.5975C-810.543 18.5948 -810.543 18.591 -810.542 18.5859C-810.539 18.5759 -810.536 18.5612 -810.533 18.542C-810.525 18.5036 -810.514 18.4473 -810.5 18.3747C-810.472 18.2296 -810.432 18.0193 -810.387 17.7572C-810.297 17.2331 -810.182 16.5003 -810.084 15.6647C-809.89 14.0035 -809.759 11.897 -810.043 10.2146L-810.832 10.3478C-810.568 11.9129 -810.687 13.9256 -810.879 15.5719C-810.974 16.3899 -811.087 17.1078 -811.176 17.6211C-811.22 17.8776 -811.258 18.0826 -811.285 18.2232C-811.299 18.2934 -811.309 18.3475 -811.317 18.3838C-811.32 18.402 -811.323 18.4157 -811.325 18.4247C-811.326 18.4292 -811.327 18.4326 -811.327 18.4347C-811.327 18.4358 -811.328 18.4366 -811.328 18.4371C-811.328 18.4373 -811.328 18.4375 -811.328 18.4376C-811.328 18.4376 -811.328 18.4376 -811.328 18.4377C-811.328 18.4377 -811.328 18.4376 -810.936 18.5197ZM-812.878 24.6837C-812.009 23.6884 -811.429 22.1391 -811.068 20.8876C-810.885 20.2533 -810.754 19.6785 -810.668 19.2624C-810.625 19.0541 -810.594 18.885 -810.573 18.7675C-810.562 18.7087 -810.554 18.6627 -810.549 18.6311C-810.547 18.6154 -810.545 18.6032 -810.543 18.5948C-810.543 18.5905 -810.542 18.5873 -810.542 18.585C-810.541 18.5838 -810.541 18.5829 -810.541 18.5823C-810.541 18.582 -810.541 18.5817 -810.541 18.5815C-810.541 18.5814 -810.541 18.5813 -810.541 18.5812C-810.541 18.5811 -810.541 18.581 -810.936 18.5197C-811.332 18.4584 -811.332 18.4584 -811.332 18.4583C-811.332 18.4584 -811.332 18.4583 -811.332 18.4584C-811.332 18.4584 -811.332 18.4585 -811.332 18.4587C-811.332 18.459 -811.332 18.4596 -811.332 18.4604C-811.332 18.462 -811.333 18.4646 -811.333 18.4681C-811.334 18.4751 -811.336 18.4859 -811.338 18.5002C-811.343 18.5289 -811.35 18.5718 -811.36 18.6274C-811.38 18.7387 -811.41 18.9006 -811.452 19.1011C-811.534 19.5024 -811.661 20.0562 -811.837 20.6659C-812.193 21.9026 -812.735 23.3038 -813.48 24.1576L-812.878 24.6837ZM-819.504 27.8659C-818.086 27.8799 -816.894 27.6274 -815.816 27.0894C-814.742 26.5532 -813.805 25.7453 -812.878 24.6837L-813.48 24.1576C-814.365 25.171 -815.223 25.8992 -816.173 26.3736C-817.12 26.8463 -818.183 27.0789 -819.496 27.066L-819.504 27.8659ZM-826.122 24.6837C-825.195 25.7453 -824.258 26.5532 -823.183 27.0894C-822.106 27.6274 -820.914 27.8799 -819.496 27.8659L-819.504 27.066C-820.816 27.0789 -821.879 26.8463 -822.826 26.3736C-823.777 25.8992 -824.634 25.171 -825.519 24.1576L-826.122 24.6837ZM-828.063 18.5197C-828.459 18.581 -828.459 18.5811 -828.459 18.5812C-828.459 18.5813 -828.459 18.5814 -828.459 18.5815C-828.459 18.5817 -828.458 18.582 -828.458 18.5823C-828.458 18.5829 -828.458 18.5838 -828.458 18.585C-828.458 18.5873 -828.457 18.5905 -828.456 18.5947C-828.455 18.6032 -828.453 18.6154 -828.451 18.6311C-828.445 18.6627 -828.437 18.7087 -828.427 18.7675C-828.406 18.885 -828.375 19.0541 -828.332 19.2624C-828.246 19.6785 -828.115 20.2533 -827.932 20.8876C-827.571 22.1391 -826.991 23.6884 -826.122 24.6837L-825.519 24.1576C-826.265 23.3038 -826.806 21.9026 -827.163 20.6659C-827.339 20.0562 -827.466 19.5024 -827.548 19.1011C-827.589 18.9006 -827.62 18.7387 -827.639 18.6274C-827.649 18.5718 -827.657 18.5289 -827.661 18.5002C-827.664 18.4859 -827.665 18.4751 -827.667 18.4681C-827.667 18.4646 -827.668 18.462 -827.668 18.4604C-827.668 18.4596 -827.668 18.459 -827.668 18.4587C-827.668 18.4585 -827.668 18.4584 -827.668 18.4584C-827.668 18.4583 -827.668 18.4584 -827.668 18.4583C-827.668 18.4584 -827.668 18.4584 -828.063 18.5197ZM-168.063 18.5197C-167.672 18.4376 -167.672 18.4377 -167.672 18.4377C-167.672 18.4377 -167.672 18.4376 -167.672 18.4376C-167.672 18.4375 -167.672 18.4373 -167.672 18.4371C-167.672 18.4366 -167.672 18.4358 -167.673 18.4347C-167.673 18.4326 -167.674 18.4292 -167.675 18.4247C-167.677 18.4157 -167.679 18.402 -167.683 18.3838C-167.69 18.3475 -167.701 18.2934 -167.715 18.2232C-167.742 18.0827 -167.78 17.8776 -167.824 17.6211C-167.913 17.1078 -168.025 16.3899 -168.121 15.5719C-168.313 13.9256 -168.432 11.9129 -168.167 10.3478L-168.956 10.2146C-169.24 11.897 -169.11 14.0035 -168.916 15.6646C-168.818 16.5003 -168.703 17.2331 -168.613 17.7572C-168.567 18.0193 -168.528 18.2296 -168.5 18.3747C-168.486 18.4473 -168.475 18.5036 -168.467 18.542C-168.463 18.5612 -168.46 18.5759 -168.458 18.5859C-168.457 18.591 -168.456 18.5948 -168.456 18.5975C-168.456 18.5988 -168.455 18.5998 -168.455 18.6006C-168.455 18.6009 -168.455 18.6012 -168.455 18.6014C-168.455 18.6015 -168.455 18.6016 -168.455 18.6017C-168.455 18.6018 -168.455 18.6018 -168.063 18.5197ZM-165.519 24.1576C-166.265 23.3038 -166.806 21.9026 -167.163 20.6659C-167.339 20.0562 -167.466 19.5024 -167.548 19.1011C-167.589 18.9006 -167.62 18.7387 -167.64 18.6274C-167.649 18.5718 -167.657 18.5289 -167.661 18.5002C-167.664 18.4859 -167.666 18.4751 -167.667 18.4681C-167.667 18.4646 -167.668 18.462 -167.668 18.4604C-167.668 18.4596 -167.668 18.459 -167.668 18.4587C-167.668 18.4585 -167.668 18.4584 -167.668 18.4584C-167.668 18.4583 -167.668 18.4584 -167.668 18.4583C-167.668 18.4584 -167.668 18.4584 -168.063 18.5197C-168.459 18.5811 -168.459 18.5811 -168.459 18.5812C-168.459 18.5813 -168.459 18.5814 -168.459 18.5815C-168.459 18.5817 -168.459 18.582 -168.458 18.5823C-168.458 18.5829 -168.458 18.5839 -168.458 18.585C-168.458 18.5873 -168.457 18.5905 -168.457 18.5948C-168.455 18.6032 -168.453 18.6154 -168.451 18.6311C-168.445 18.6627 -168.438 18.7087 -168.427 18.7675C-168.406 18.885 -168.375 19.0541 -168.332 19.2624C-168.246 19.6786 -168.115 20.2533 -167.932 20.8876C-167.571 22.1391 -166.991 23.6884 -166.122 24.6837L-165.519 24.1576ZM-159.504 27.066C-160.817 27.0789 -161.879 26.8463 -162.826 26.3736C-163.777 25.8992 -164.634 25.171 -165.519 24.1576L-166.122 24.6837C-165.195 25.7453 -164.258 26.5532 -163.183 27.0894C-162.106 27.6274 -160.914 27.8799 -159.496 27.8659L-159.504 27.066ZM-153.48 24.1576C-154.365 25.171 -155.223 25.8992 -156.174 26.3736C-157.12 26.8463 -158.183 27.0789 -159.496 27.066L-159.504 27.8659C-158.086 27.8799 -156.894 27.6274 -155.816 27.0894C-154.742 26.5532 -153.805 25.7453 -152.878 24.6837L-153.48 24.1576ZM-150.936 18.5197C-151.332 18.4584 -151.332 18.4584 -151.332 18.4584C-151.332 18.4584 -151.332 18.4583 -151.332 18.4584C-151.332 18.4584 -151.332 18.4585 -151.332 18.4587C-151.332 18.459 -151.332 18.4596 -151.332 18.4604C-151.332 18.462 -151.333 18.4646 -151.333 18.4681C-151.334 18.4751 -151.336 18.4859 -151.339 18.5002C-151.343 18.5289 -151.35 18.5718 -151.36 18.6274C-151.38 18.7387 -151.41 18.9006 -151.452 19.1011C-151.534 19.5024 -151.661 20.0562 -151.837 20.6659C-152.193 21.9026 -152.735 23.3038 -153.48 24.1576L-152.878 24.6837C-152.009 23.6884 -151.429 22.1391 -151.068 20.8876C-150.885 20.2532 -150.754 19.6785 -150.668 19.2624C-150.625 19.0541 -150.594 18.885 -150.573 18.7675C-150.562 18.7087 -150.554 18.6627 -150.549 18.6311C-150.547 18.6154 -150.545 18.6032 -150.543 18.5947C-150.543 18.5905 -150.542 18.5873 -150.542 18.585C-150.542 18.5838 -150.541 18.5829 -150.541 18.5823C-150.541 18.5819 -150.541 18.5817 -150.541 18.5815C-150.541 18.5814 -150.541 18.5813 -150.541 18.5812C-150.541 18.5811 -150.541 18.581 -150.936 18.5197ZM-150.832 10.3478C-150.568 11.9129 -150.687 13.9256 -150.879 15.5719C-150.974 16.3899 -151.087 17.1078 -151.176 17.6211C-151.22 17.8776 -151.258 18.0827 -151.285 18.2232C-151.299 18.2934 -151.31 18.3475 -151.317 18.3838C-151.321 18.402 -151.323 18.4157 -151.325 18.4247C-151.326 18.4292 -151.327 18.4326 -151.327 18.4347C-151.328 18.4358 -151.328 18.4366 -151.328 18.4371C-151.328 18.4373 -151.328 18.4375 -151.328 18.4376C-151.328 18.4376 -151.328 18.4377 -151.328 18.4377C-151.328 18.4377 -151.328 18.4376 -150.936 18.5197C-150.545 18.6018 -150.545 18.6018 -150.545 18.6017C-150.545 18.6016 -150.545 18.6015 -150.545 18.6014C-150.545 18.6012 -150.545 18.6009 -150.545 18.6006C-150.545 18.5998 -150.544 18.5988 -150.544 18.5975C-150.543 18.5948 -150.543 18.591 -150.542 18.5859C-150.54 18.5759 -150.536 18.5612 -150.533 18.542C-150.525 18.5036 -150.514 18.4473 -150.5 18.3747C-150.472 18.2296 -150.432 18.0193 -150.387 17.7572C-150.297 17.2331 -150.182 16.5003 -150.084 15.6646C-149.89 14.0035 -149.76 11.897 -150.044 10.2146L-150.832 10.3478ZM-153.688 5.12732C-152.795 5.88618 -152.185 6.61247 -151.747 7.42745C-151.308 8.2445 -151.031 9.17154 -150.832 10.3478L-150.044 10.2147C-150.251 8.98728 -150.548 7.96844 -151.042 7.0488C-151.537 6.12709 -152.219 5.32588 -153.169 4.51787L-153.688 5.12732ZM-159.496 3.20076C-158.271 3.18886 -157.278 3.28664 -156.367 3.5742C-155.459 3.86051 -154.611 4.34211 -153.688 5.12732L-153.169 4.51786C-154.158 3.67678 -155.099 3.13537 -156.126 2.81129C-157.149 2.48846 -158.235 2.38848 -159.504 2.4008L-159.496 3.20076ZM-165.312 5.12731C-164.389 4.34211 -163.54 3.86051 -162.633 3.5742C-161.722 3.28664 -160.729 3.18886 -159.504 3.20076L-159.496 2.4008C-160.765 2.38848 -161.851 2.48846 -162.874 2.81129C-163.901 3.13537 -164.841 3.67679 -165.83 4.51787L-165.312 5.12731ZM-168.167 10.3478C-167.969 9.17155 -167.692 8.2445 -167.253 7.42745C-166.815 6.61247 -166.205 5.88618 -165.312 5.12732L-165.83 4.51786C-166.781 5.32588 -167.463 6.12709 -167.958 7.0488C-168.452 7.96843 -168.749 8.98728 -168.956 10.2146L-168.167 10.3478ZM-71.4592 6.96621C-71.9473 6.96621 -72.5906 7.02788 -73.1 7.08724C-73.3572 7.11721 -73.5848 7.14717 -73.7484 7.16963C-73.8302 7.18087 -73.896 7.19025 -73.9415 7.19685C-73.9644 7.20015 -73.9821 7.20275 -73.9941 7.20454C-74.0001 7.20544 -74.0048 7.20613 -74.0081 7.20661C-74.0096 7.20685 -74.0109 7.20703 -74.0117 7.20716C-74.0121 7.20722 -74.0125 7.20727 -74.0127 7.20731C-74.0128 7.20732 -74.0128 7.20734 -74.0129 7.20735C-74.0129 7.20735 -74.0131 7.20736 -74.0131 7.20736C-74.0131 7.20737 -74.0131 7.20737 -73.9534 7.60289C-73.8937 7.99841 -73.8937 7.99841 -73.8937 7.99841C-73.8937 7.99841 -73.8937 7.99841 -73.8937 7.99841C-73.8937 7.9984 -73.8936 7.9984 -73.8936 7.99838C-73.8933 7.99836 -73.8932 7.99833 -73.8928 7.99828C-73.8921 7.99818 -73.8911 7.99802 -73.8896 7.99781C-73.8868 7.99739 -73.8826 7.99676 -73.877 7.99592C-73.8656 7.99424 -73.8488 7.99176 -73.8269 7.98859C-73.7831 7.98224 -73.7191 7.97313 -73.6394 7.96218C-73.48 7.94027 -73.2579 7.91106 -73.0073 7.88186C-72.5012 7.82288 -71.8975 7.76621 -71.4592 7.76621V6.96621ZM-69.0466 7.60289C-68.981 7.20831 -68.9811 7.20831 -68.9811 7.2083C-68.9811 7.2083 -68.9811 7.20829 -68.9812 7.20829C-68.9812 7.20827 -68.9813 7.20826 -68.9814 7.20824C-68.9817 7.2082 -68.9819 7.20815 -68.9824 7.20808C-68.9832 7.20795 -68.9844 7.20776 -68.9858 7.20751C-68.9888 7.20703 -68.993 7.20632 -68.9987 7.20541C-69.0098 7.2036 -69.0261 7.20097 -69.0471 7.19765C-69.089 7.191 -69.1497 7.18157 -69.2255 7.17028C-69.3768 7.14771 -69.589 7.11764 -69.8328 7.08756C-70.3162 7.02789 -70.9391 6.96621 -71.4592 6.96621V7.76621C-70.9895 7.76621 -70.4061 7.82287 -69.9308 7.88154C-69.6951 7.91063 -69.4896 7.93973 -69.3434 7.96154C-69.2703 7.97243 -69.212 7.98149 -69.1724 7.98779C-69.1525 7.99094 -69.1372 7.99339 -69.1271 7.99505C-69.1219 7.99587 -69.1182 7.9965 -69.1157 7.9969C-69.1144 7.99711 -69.1135 7.99726 -69.1129 7.99735C-69.1127 7.9974 -69.1124 7.99743 -69.1123 7.99745C-69.1123 7.99746 -69.1123 7.99747 -69.1123 7.99747C-69.1122 7.99747 -69.1123 7.99747 -69.1122 7.99747C-69.1123 7.99747 -69.1123 7.99747 -69.0466 7.60289ZM-67.1195 12.2427L-68.6661 7.47936L-69.4271 7.72642L-67.8805 12.4897L-67.1195 12.2427ZM-71.4596 12.563C-70.6986 12.5637 -69.7191 12.6139 -68.9244 12.6644C-68.5282 12.6896 -68.1801 12.7147 -67.931 12.7335C-67.8066 12.743 -67.7069 12.7508 -67.6385 12.7563C-67.6044 12.759 -67.5779 12.7612 -67.5601 12.7626C-67.5513 12.7633 -67.5444 12.7639 -67.5399 12.7643C-67.5377 12.7645 -67.536 12.7646 -67.5349 12.7647C-67.5344 12.7647 -67.5339 12.7648 -67.5337 12.7648C-67.5336 12.7648 -67.5334 12.7648 -67.5334 12.7648C-67.5333 12.7648 -67.5333 12.7648 -67.5333 12.7648C-67.5333 12.7648 -67.5333 12.7648 -67.5 12.3662C-67.4667 11.9676 -67.4667 11.9676 -67.4667 11.9676C-67.4667 11.9676 -67.4668 11.9676 -67.4668 11.9676C-67.4669 11.9676 -67.467 11.9676 -67.4672 11.9676C-67.4675 11.9675 -67.468 11.9675 -67.4686 11.9674C-67.4698 11.9673 -67.4716 11.9672 -67.474 11.967C-67.4786 11.9666 -67.4857 11.966 -67.4948 11.9653C-67.5131 11.9638 -67.54 11.9616 -67.5747 11.9588C-67.6442 11.9533 -67.745 11.9453 -67.8707 11.9358C-68.1222 11.9168 -68.4736 11.8914 -68.8737 11.866C-69.6715 11.8153 -70.6716 11.7638 -71.4589 11.763L-71.4596 12.563ZM-75.5 12.3662C-75.4668 12.7648 -75.4668 12.7648 -75.4668 12.7648C-75.4668 12.7648 -75.4668 12.7648 -75.4668 12.7648C-75.4667 12.7648 -75.4666 12.7648 -75.4664 12.7648C-75.4662 12.7648 -75.4657 12.7647 -75.4652 12.7647C-75.4641 12.7646 -75.4623 12.7645 -75.4601 12.7643C-75.4554 12.7639 -75.4486 12.7633 -75.4395 12.7626C-75.4213 12.7611 -75.3944 12.7589 -75.3595 12.7562C-75.2896 12.7506 -75.1879 12.7426 -75.0608 12.7331C-74.8066 12.714 -74.4514 12.6886 -74.047 12.6632C-73.236 12.6123 -72.2362 12.5622 -71.4596 12.563L-71.4589 11.763C-72.2622 11.7621 -73.2828 11.8136 -74.0972 11.8648C-74.5055 11.8904 -74.8641 11.9161 -75.1207 11.9353C-75.2491 11.945 -75.3521 11.953 -75.4229 11.9587C-75.4584 11.9615 -75.4858 11.9637 -75.5045 11.9652C-75.5138 11.966 -75.5209 11.9666 -75.5258 11.967C-75.5282 11.9672 -75.53 11.9673 -75.5312 11.9674C-75.5319 11.9675 -75.5323 11.9675 -75.5327 11.9675C-75.5328 11.9676 -75.533 11.9676 -75.5331 11.9676C-75.5331 11.9676 -75.5331 11.9676 -75.5331 11.9676C-75.5332 11.9676 -75.5332 11.9676 -75.5 12.3662ZM-74.3339 7.47936L-75.8805 12.2427L-75.1195 12.4897L-73.5729 7.72642L-74.3339 7.47936ZM-643.5 2.93301C-647.656 2.93301 -650.019 5.44766 -650.958 6.65381L-650.328 7.14554C-649.449 6.01835 -647.293 3.73301 -643.5 3.73301V2.93301ZM-636.042 6.65382C-636.982 5.44766 -639.345 2.93301 -643.5 2.93301V3.73301C-639.708 3.73301 -637.551 6.01836 -636.673 7.14553L-636.042 6.65382ZM-643.494 6.26629C-642.098 6.24459 -638.895 6.53003 -636.476 7.28166L-636.239 6.51769C-638.755 5.73599 -642.045 5.44365 -643.506 5.46639L-643.494 6.26629ZM-650.524 7.28166C-648.105 6.53003 -644.902 6.24459 -643.506 6.26629L-643.494 5.46639C-644.956 5.44365 -648.246 5.73599 -650.762 6.51769L-650.524 7.28166ZM8.75549 11.1876C8.75549 7.99417 11.3441 3.99082 16.4956 3.99082V3.19082C10.8417 3.19082 7.95544 7.61562 7.95544 11.1876H8.75549ZM16.5087 8.8829C15.7216 8.85711 14.3168 8.90415 12.7717 9.17653C11.2307 9.44818 9.51697 9.94963 8.13647 10.8528L8.57446 11.5223C9.82666 10.703 11.4208 10.227 12.9106 9.96438C14.3964 9.70246 15.7454 9.65833 16.4825 9.68247L16.5087 8.8829ZM16.5087 9.68247C17.2395 9.65853 18.5861 9.72786 20.0731 10.016C21.563 10.3047 23.1599 10.8066 24.4153 11.628L24.8533 10.9586C23.476 10.0574 21.7656 9.52907 20.2253 9.23061C18.6823 8.93161 17.2759 8.85691 16.4825 8.8829L16.5087 9.68247ZM25.0343 11.2933C25.0343 7.66981 21.9236 3.19082 16.4956 3.19082V3.99082C21.4258 3.99082 24.2343 8.05339 24.2343 11.2933H25.0343Z" fill="#01AC67"/>
<path d="M25.591 14.2334C25.8616 14.9112 26.13 16.6067 25.0391 17.9667L25.591 14.2334Z" fill="white"/>
<path fill-rule="evenodd" clip-rule="evenodd" d="M25.5474 13.8604L25.681 14.195C25.9592 14.8919 26.2364 16.6307 25.1141 18.0298L24.8896 18.3096L25.5474 13.8604ZM25.1949 17.5775L25.6246 14.6714C25.7952 15.3884 25.8405 16.5468 25.1949 17.5775Z" fill="#E0E0E0"/>
<path d="M7.4544 14.2334C7.18384 14.9112 6.91544 16.6067 8.00635 17.9667L7.4544 14.2334Z" fill="white"/>
<path fill-rule="evenodd" clip-rule="evenodd" d="M7.49797 13.8604L7.3644 14.195C7.0862 14.8919 6.80906 16.6307 7.93128 18.0298L8.15576 18.3096L7.49797 13.8604ZM7.85048 17.5775L7.42083 14.6714C7.25019 15.3884 7.2049 16.5468 7.85048 17.5775Z" fill="#E0E0E0"/>
<path d="M16.5001 28.8662C15.6886 28.8662 15.4611 27.2662 15.4611 27.2662L17.5391 27.2662C17.5391 27.2662 17.3116 28.8662 16.5001 28.8662Z" fill="white"/>
<path fill-rule="evenodd" clip-rule="evenodd" d="M16.1383 28.4802C16.2489 28.6027 16.3669 28.6662 16.5001 28.6662C16.6333 28.6662 16.7513 28.6027 16.8619 28.4802C16.9748 28.3552 17.0686 28.1801 17.1434 27.9909C17.2175 27.8038 17.2685 27.6146 17.3011 27.4709C17.3015 27.4693 17.3018 27.4678 17.3022 27.4662L15.698 27.4662C15.6984 27.4678 15.6987 27.4693 15.6991 27.4709C15.7317 27.6146 15.7827 27.8038 15.8568 27.9909C15.9316 28.1801 16.0254 28.3552 16.1383 28.4802ZM15.4983 27.4662C15.5903 27.8954 15.868 28.8662 16.5001 28.8662C17.1322 28.8662 17.4099 27.8954 17.5019 27.4662C17.5279 27.3444 17.5391 27.2662 17.5391 27.2662L15.4611 27.2662C15.4611 27.2662 15.4723 27.3444 15.4983 27.4662Z" fill="#E0E0E0"/>
</g>
</g>
<defs>
<clipPath id="clip0_1872_18191">
<rect width="32" height="32" fill="white" transform="translate(0.5)"/>
</clipPath>
<clipPath id="clip1_1872_18191">
<rect width="20" height="28" fill="white" transform="translate(6.5 2)"/>
</clipPath>
</defs>
</svg>
