<svg width="44" height="44" viewBox="0 0 44 44" fill="none" xmlns="http://www.w3.org/2000/svg">
    <g clip-path="url(#clip0_5826_9728)">
        <circle cx="22" cy="22" r="21.5" fill="white" fill-opacity="0.54" stroke="#017948" />
        <path
            d="M12.6595 25.5851C14.775 28.9342 13.7444 33.9238 12.9646 36H26.8983L27.1018 34.0599C27.1831 33.1614 27.5425 32.6644 27.712 32.5283H31.0683C32.8583 32.2016 32.9668 29.8055 32.7973 28.6482L33.4075 26.9124V25.0745L34.3229 24.564C35.3806 24.0739 34.967 23.2025 34.628 22.8282L32.3905 19.0502C32.7973 16.763 32.221 14.2853 31.8819 13.3323C30.0512 7.00166 22.1182 6.59323 19.4738 7.20587C16.8294 7.81851 12.9646 8.53326 11.0322 13.3323C9.0998 18.1313 10.0152 21.3987 12.6595 25.5851Z"
            fill="white" />
        <path fill-rule="evenodd" clip-rule="evenodd"
            d="M25.8662 8.04928C23.3978 7.25456 20.8324 7.30687 19.5673 7.60061C19.4708 7.62301 19.3728 7.64552 19.2735 7.66834C16.6879 8.26253 13.1915 9.06601 11.4014 13.5212C10.4615 15.8605 10.2196 17.8114 10.5252 19.6809C10.8315 21.5549 11.6909 23.3656 12.9861 25.4205C14.0579 27.1209 14.3257 29.2241 14.2355 31.1437C14.1526 32.9068 13.7668 34.536 13.4023 35.5972H26.6477L26.8287 33.8672C26.8288 33.8668 26.8288 33.8663 26.8289 33.8658C26.9128 32.9401 27.2844 32.3942 27.5035 32.2179L27.5583 32.1738H30.9126C31.6784 32.0262 32.0997 31.4418 32.3128 30.7124C32.5283 29.9748 32.515 29.1298 32.4344 28.5783L32.4272 28.5289L33.0327 26.8028V24.9064L34.0429 24.3417L34.0497 24.3386C34.2853 24.2292 34.4226 24.1062 34.5003 23.9897C34.577 23.8748 34.6042 23.7539 34.5991 23.6312C34.5885 23.3749 34.4354 23.1109 34.2857 22.9452L34.2721 22.9301L32.022 19.1227L32.0351 19.0488C32.4271 16.8401 31.87 14.4341 31.5432 13.5134L31.5412 13.5077L31.5395 13.5019C30.6635 10.4661 28.3289 8.84216 25.8662 8.04928ZM31.9222 13.3837C30.9956 10.1806 28.5278 8.48333 25.9882 7.66569C23.4528 6.84939 20.8141 6.89777 19.4773 7.20817C19.3774 7.23134 19.2757 7.25469 19.1722 7.27844C16.5839 7.87238 12.8996 8.71783 11.0303 13.3702C10.0688 15.7633 9.81029 17.7896 10.1302 19.7463C10.4493 21.6984 11.3413 23.5629 12.6481 25.6362C13.6579 27.2384 13.9239 29.2467 13.8356 31.1247C13.7474 33.0006 13.307 34.7218 12.93 35.7276L12.8279 36H27.0081L27.2273 33.9051L27.2274 33.9037C27.2952 33.1532 27.567 32.7272 27.7073 32.5765H30.9491L30.9669 32.5733C31.9515 32.3932 32.4595 31.6383 32.6968 30.8259C32.9268 30.0388 32.9173 29.1596 32.8374 28.5695L33.433 26.8718V25.1434L34.2244 24.701C34.5056 24.5693 34.7055 24.4048 34.8326 24.2143C34.9619 24.0206 35.0073 23.813 34.9991 23.6144C34.9834 23.2377 34.7766 22.8954 34.5959 22.6899L32.442 19.0453C32.8246 16.7689 32.2592 14.3363 31.9222 13.3837Z"
            fill="#E0E0E0" />
        <path d="M21 8.01087V14.9516L25.6392 18L31 12.7702C28.0811 8.44403 23.8866 7.90946 21 8.01087Z" fill="#01AC67"
            fill-opacity="0.75" />
        <path fill-rule="evenodd" clip-rule="evenodd"
            d="M21.3938 8.38916V14.7355L25.603 17.5041L30.4939 12.728C27.8284 8.88375 24.0785 8.32474 21.3938 8.38916ZM21.1898 8.01049C23.9787 7.91242 28.0697 8.43037 30.9118 12.6467L31 12.7776L25.652 18L21 14.9401V8.01717L21.1898 8.01049Z"
            fill="#01AC67" />
    </g>
    <defs>
        <clipPath id="clip0_5826_9728">
            <rect width="44" height="44" fill="white" />
        </clipPath>
    </defs>
</svg>