<svg width="44" height="44" viewBox="0 0 44 44" fill="none" xmlns="http://www.w3.org/2000/svg">
    <g clip-path="url(#clip0_5829_10223)">
        <circle cx="22" cy="22" r="21.5" fill="white" fill-opacity="0.54" stroke="#017948" />
        <path
            d="M12.6052 25.5522C14.7258 28.9119 13.6927 33.9173 12.911 36H26.8786L27.0825 34.0538C27.1641 33.1524 27.5243 32.6539 27.6943 32.5173H31.0587C32.8531 32.1896 32.9619 29.7859 32.7919 28.625L33.4037 26.8837V25.04L34.3212 24.5278C35.3815 24.0362 34.9669 23.1621 34.6271 22.7865L32.3841 18.9966C32.7919 16.7022 32.2142 14.2166 31.8743 13.2607C30.0392 6.91002 22.1314 6.74478 19.436 7.11488C16.4642 7.52295 12.6051 8.91537 10.8567 13.2607C8.91965 18.0749 10.5999 22.3752 12.6052 25.5522Z"
            fill="white" />
        <path fill-rule="evenodd" clip-rule="evenodd"
            d="M25.8628 8.05321C23.3951 7.28611 20.8176 7.33584 19.5125 7.51543C16.6197 7.91349 12.9109 9.26417 11.2298 13.4511C9.35952 18.1094 10.9748 22.2775 12.9336 25.3876C14.0079 27.0932 14.2764 29.203 14.1859 31.1286C14.1029 32.8972 13.7162 34.5314 13.3508 35.596H26.6278L26.8092 33.8606C26.8093 33.8601 26.8093 33.8596 26.8094 33.8592C26.8935 32.9306 27.266 32.383 27.4856 32.2061L27.5406 32.1618H30.9028C31.6704 32.0138 32.0928 31.4276 32.3064 30.6959C32.5224 29.956 32.5091 29.1084 32.4283 28.5551L32.421 28.5057L33.028 26.7741V24.8718L34.0406 24.3054L34.0474 24.3022C34.2835 24.1925 34.4212 24.0691 34.4991 23.9523C34.576 23.837 34.6032 23.7157 34.5981 23.5926C34.5875 23.3355 34.4341 23.0707 34.284 22.9045L34.2704 22.8894L32.0148 19.0701L32.028 18.996C32.4209 16.7804 31.8626 14.3669 31.535 13.4434L31.5329 13.4376L31.5312 13.4318C30.6536 10.3882 28.3264 8.819 25.8628 8.05321ZM31.9149 13.3133C30.9855 10.0985 28.521 8.45668 25.9812 7.66718C23.4441 6.87851 20.8052 6.92977 19.4582 7.11514C16.5027 7.52183 12.6174 8.91721 10.8578 13.2997C8.91617 18.1357 10.6074 22.4486 12.5947 25.6039C13.607 27.2111 13.8736 29.2256 13.7851 31.1095C13.6967 32.9913 13.2552 34.7178 12.8774 35.7267L12.7751 36H26.989L27.2087 33.8986L27.2089 33.8972C27.2768 33.1444 27.5493 32.717 27.6899 32.5659H30.9395L30.9573 32.5626C31.9442 32.3819 32.4535 31.6247 32.6913 30.8098C32.9219 30.0202 32.9124 29.1383 32.8323 28.5464L33.4293 26.8433V25.1095L34.2225 24.6658C34.5044 24.5337 34.7048 24.3686 34.8322 24.1775C34.9618 23.9833 35.0073 23.7751 34.9991 23.5758C34.9834 23.1979 34.776 22.8546 34.5949 22.6484L32.4359 18.9925C32.8194 16.709 32.2527 14.2688 31.9149 13.3133Z"
            fill="#E0E0E0" />
        <path d="M21 8V15.1094L11.3826 21C10.2035 17.1955 11.3125 8.40625 21 8Z" fill="#01AC67" fill-opacity="0.75" />
        <path fill-rule="evenodd" clip-rule="evenodd"
            d="M21 8V15.1477L11.4509 21L11.3763 20.7593C10.7962 18.8865 10.7807 15.808 12.0926 13.1416C13.4125 10.4587 16.0703 8.20685 20.7958 8.00857L21 8ZM11.6807 20.4006L20.6081 14.9294V8.40873C16.1546 8.656 13.6822 10.7976 12.4445 13.3135C11.2357 15.7705 11.1989 18.5971 11.6807 20.4006Z"
            fill="#01AC67" />
    </g>
    <defs>
        <clipPath id="clip0_5829_10223">
            <rect width="44" height="44" fill="white" />
        </clipPath>
    </defs>
</svg>