<svg width="230" height="59" viewBox="0 0 230 59" fill="none" xmlns="http://www.w3.org/2000/svg">
<path fill-rule="evenodd" clip-rule="evenodd" d="M5 55.5C19 38 53.8 2 115 2C176.2 2 211 38 225 55.5C187 44 137 39.6667 115 40C93 39.6667 43 44 5 55.5Z" fill="#01AC67" fill-opacity="0.75"/>
<path d="M5 55.5L3.8287 54.563L0.811179 58.3349L5.43449 56.9357L5 55.5ZM225 55.5L224.566 56.9357L229.189 58.3349L226.171 54.563L225 55.5ZM115 40L114.977 41.4998L115 41.5002L115.023 41.4998L115 40ZM115 0.5C53.1362 0.5 17.9512 36.9098 3.8287 54.563L6.1713 56.437C20.0488 39.0902 54.4638 3.5 115 3.5V0.5ZM115 3.5C175.536 3.5 209.951 39.0902 223.829 56.437L226.171 54.563C212.049 36.9098 176.864 0.5 115 0.5V3.5ZM225.434 54.0643C187.257 42.5105 137.098 38.165 114.977 38.5002L115.023 41.4998C136.902 41.1683 186.743 45.4895 224.566 56.9357L225.434 54.0643ZM5.43449 56.9357C43.2568 45.4895 93.098 41.1683 114.977 41.4998L115.023 38.5002C92.902 38.165 42.7432 42.5105 4.56551 54.0643L5.43449 56.9357Z" fill="#01AC67"/>
</svg>
